M48
; DRILL file {KiCad (6.0.5)} date Fri Sep  9 14:32:18 2022
; FORMAT={-:-/ absolute / inch / decimal}
; #@! TF.CreationDate,2022-09-09T14:32:18-04:00
; #@! TF.GenerationSoftware,Kicad,Pcbnew,(6.0.5)
; #@! TF.FileFunction,Plated,1,6,PTH
FMAT,2
INCH
; #@! TA.AperFunction,Plated,PTH,ViaDrill
T1C0.0079
; #@! TA.AperFunction,Plated,PTH,ComponentDrill
T2C0.0360
; #@! TA.AperFunction,Plated,PTH,ComponentDrill
T3C0.0394
; #@! TA.AperFunction,Plated,PTH,ComponentDrill
T4C0.1260
%
G90
G05
T1
X4.0681Y-1.899
X4.0681Y-2.018
X4.0681Y-2.138
X4.0911Y-2.18
X4.1181Y-1.899
X4.1181Y-2.018
X4.1181Y-2.138
X4.1409Y-2.1801
X4.1681Y-1.899
X4.1681Y-2.018
X4.1681Y-2.138
X4.1726Y-5.1552
X4.1911Y-2.18
X4.2181Y-1.899
X4.2181Y-2.018
X4.2181Y-2.138
X4.23Y-5.8
X4.2411Y-2.18
X4.2681Y-1.899
X4.2681Y-2.018
X4.2681Y-2.138
X4.2911Y-2.18
X4.31Y-3.98
X4.3181Y-1.899
X4.3181Y-2.018
X4.3181Y-2.138
X4.325Y-4.725
X4.33Y-5.76
X4.3411Y-2.18
X4.35Y-4.01
X4.3667Y-5.1099
X4.3678Y-5.0748
X4.3681Y-1.899
X4.3681Y-2.018
X4.3681Y-2.138
X4.3911Y-2.18
X4.4181Y-1.899
X4.4181Y-2.018
X4.4181Y-2.138
X4.4411Y-2.18
X4.4681Y-1.899
X4.4681Y-2.018
X4.4681Y-2.138
X4.4911Y-2.18
X4.5181Y-1.899
X4.5181Y-2.018
X4.5181Y-2.138
X4.5411Y-2.18
X4.5681Y-1.899
X4.5681Y-2.018
X4.5681Y-2.138
X4.5843Y-6.306
X4.5911Y-2.18
X4.6181Y-1.899
X4.6181Y-2.018
X4.6181Y-2.138
X4.6411Y-2.18
X4.645Y-6.915
X4.6681Y-1.899
X4.6681Y-2.018
X4.6681Y-2.138
X4.6911Y-2.18
X4.7181Y-1.899
X4.7181Y-2.018
X4.7181Y-2.138
X4.7411Y-2.18
X4.7681Y-1.899
X4.7681Y-2.018
X4.7681Y-2.138
X4.7911Y-2.18
X4.8181Y-1.899
X4.8181Y-2.018
X4.8181Y-2.138
X4.8393Y-6.9193
X4.8411Y-2.18
X4.8681Y-1.899
X4.8681Y-2.018
X4.8681Y-2.138
X4.8911Y-2.18
X4.9181Y-1.899
X4.9181Y-2.018
X4.9181Y-2.138
X4.9411Y-2.18
X4.9681Y-1.899
X4.9681Y-2.018
X4.9681Y-2.138
X4.9911Y-2.18
X5.005Y-7.015
X5.0181Y-1.899
X5.0181Y-2.018
X5.0181Y-2.138
X5.04Y-6.92
X5.0411Y-2.18
X5.0681Y-1.899
X5.0681Y-2.018
X5.0681Y-2.138
X5.0911Y-2.18
X5.1181Y-1.899
X5.1181Y-2.018
X5.1181Y-2.138
X5.1411Y-2.18
X5.1681Y-1.9
X5.1681Y-2.019
X5.1681Y-2.139
X5.1911Y-2.181
X5.2181Y-1.9
X5.2181Y-2.019
X5.2181Y-2.139
X5.2411Y-2.181
X5.245Y-6.92
X5.2681Y-1.9
X5.2681Y-2.019
X5.2681Y-2.139
X5.2911Y-2.181
X5.3181Y-1.9
X5.3181Y-2.019
X5.3181Y-2.139
X5.3411Y-2.181
X5.3681Y-1.9
X5.3681Y-2.019
X5.3681Y-2.139
X5.3911Y-2.181
X5.405Y-7.015
X5.4181Y-1.899
X5.4181Y-2.018
X5.4181Y-2.138
X5.4411Y-2.18
X5.445Y-6.92
X5.4681Y-1.899
X5.4681Y-2.018
X5.4681Y-2.138
X5.4911Y-2.18
X5.5181Y-1.899
X5.5181Y-2.018
X5.5181Y-2.138
X5.5411Y-2.18
X5.64Y-6.92
X5.805Y-7.015
X5.845Y-6.92
X6.045Y-6.92
X6.205Y-7.015
X6.24Y-6.92
X6.32Y-6.96
X6.3372Y-7.0878
X6.475Y-7.095
X6.5Y-6.695
X6.5022Y-6.9717
X6.6467Y-7.1262
X6.6895Y-6.44
X6.7Y-6.9012
X6.8432Y-7.1362
X6.9294Y-6.9416
X6.965Y-6.695
X7.0467Y-7.1262
X7.1214Y-6.9416
X7.17Y-6.4805
X7.2367Y-7.1362
X7.3214Y-6.9416
X7.44Y-6.695
X7.4439Y-7.1262
X7.5168Y-6.9416
X7.64Y-6.48
X7.68Y-6.94
X7.7493Y-6.9843
X7.845Y-6.92
X7.9593Y-6.9843
X8.01Y-6.695
X8.04Y-6.92
X8.1195Y-6.4805
X8.1543Y-6.9843
X8.2277Y-3.2155
X8.2277Y-3.415
X8.2277Y-3.615
X8.2277Y-3.815
X8.2277Y-4.015
X8.2277Y-4.215
X8.2277Y-4.415
X8.2277Y-4.615
X8.2277Y-4.815
X8.2277Y-5.015
X8.2277Y-5.215
X8.2277Y-5.415
X8.2277Y-5.615
X8.2277Y-5.82
X8.2277Y-6.015
X8.245Y-6.92
X8.3325Y-6.9525
X8.3475Y-3.3155
X8.3475Y-3.515
X8.3475Y-3.715
X8.3475Y-3.915
X8.3475Y-4.115
X8.3475Y-4.315
X8.3475Y-4.515
X8.3475Y-4.715
X8.3475Y-4.915
X8.3475Y-5.115
X8.3475Y-5.315
X8.3475Y-5.515
X8.3475Y-5.715
X8.3475Y-5.92
X8.3475Y-6.115
X8.44Y-6.92
X8.4507Y-3.2165
X8.4507Y-3.416
X8.4507Y-3.616
X8.4507Y-3.816
X8.4507Y-4.016
X8.4507Y-4.216
X8.4507Y-4.416
X8.4507Y-4.616
X8.4507Y-4.816
X8.4507Y-5.016
X8.4507Y-5.216
X8.4507Y-5.416
X8.4507Y-5.616
X8.4507Y-5.821
X8.4507Y-6.016
X8.49Y-6.695
X8.5301Y-6.9499
X8.5698Y-3.3172
X8.5705Y-3.516
X8.5705Y-3.716
X8.5705Y-3.916
X8.5705Y-4.116
X8.5705Y-4.316
X8.5705Y-4.516
X8.5705Y-4.716
X8.5705Y-4.916
X8.5705Y-5.116
X8.5705Y-5.316
X8.5705Y-5.516
X8.5705Y-5.716
X8.5705Y-5.921
X8.5705Y-6.116
X8.61Y-6.48
X8.64Y-6.92
X8.7325Y-6.9525
X8.84Y-6.92
X9.045Y-6.92
X9.235Y-6.92
X9.4311Y-3.2155
X9.4311Y-3.415
X9.4311Y-3.615
X9.4311Y-3.815
X9.4311Y-4.015
X9.4311Y-4.215
X9.4311Y-4.415
X9.4311Y-4.615
X9.4311Y-4.815
X9.4311Y-5.015
X9.4311Y-5.215
X9.4311Y-5.415
X9.4311Y-5.615
X9.4311Y-5.82
X9.4311Y-6.015
X9.495Y-7.04
X9.505Y-6.35
X9.505Y-6.7
X9.5509Y-3.3155
X9.5509Y-3.515
X9.5509Y-3.715
X9.5509Y-3.915
X9.5509Y-4.115
X9.5509Y-4.315
X9.5509Y-4.515
X9.5509Y-4.715
X9.5509Y-4.915
X9.5509Y-5.115
X9.5509Y-5.315
X9.5509Y-5.515
X9.5509Y-5.715
X9.5509Y-5.92
X9.5509Y-6.115
X9.595Y-7.04
X9.605Y-6.35
X9.605Y-6.7
X9.6532Y-3.2155
X9.6532Y-3.415
X9.6532Y-3.615
X9.6532Y-3.815
X9.6532Y-4.015
X9.6532Y-4.215
X9.6532Y-4.415
X9.6532Y-4.615
X9.6532Y-4.815
X9.6532Y-5.015
X9.6532Y-5.215
X9.6532Y-5.415
X9.6532Y-5.615
X9.6532Y-5.82
X9.6532Y-6.015
X9.695Y-7.04
X9.705Y-6.35
X9.705Y-6.7
X9.7737Y-3.3155
X9.7737Y-3.515
X9.7737Y-3.715
X9.7737Y-3.915
X9.7737Y-4.115
X9.7737Y-4.315
X9.7737Y-4.515
X9.7737Y-4.715
X9.7737Y-4.915
X9.7737Y-5.115
X9.7737Y-5.315
X9.7737Y-5.515
X9.7737Y-5.715
X9.7737Y-5.92
X9.7737Y-6.115
X9.795Y-7.04
X9.805Y-6.35
X9.805Y-6.7
X9.93Y-6.93
X10.05Y-7.05
X10.3737Y-3.6437
X10.3737Y-3.7067
X10.3737Y-3.7697
X10.3737Y-3.8327
X10.3737Y-3.8957
X10.3737Y-3.9587
X10.3737Y-4.0217
X10.3737Y-4.0846
X10.3737Y-4.1476
X10.3737Y-4.2106
X10.3737Y-4.2736
X10.3737Y-4.3366
X10.3737Y-4.3996
X10.3737Y-4.4626
X10.3737Y-4.6516
X10.3737Y-4.7146
X10.3737Y-4.7776
X10.3737Y-4.8406
X10.3737Y-4.9035
X10.3737Y-4.9665
X10.3737Y-5.0295
X10.3737Y-5.0925
X10.3737Y-5.1555
X10.3737Y-5.2185
X10.3737Y-5.2815
X10.3737Y-5.3445
X10.3737Y-5.4075
X10.3737Y-5.4705
X10.3737Y-5.5335
X10.3737Y-5.5965
X10.45Y-6.98
X10.4524Y-3.6122
X10.4524Y-3.6752
X10.4524Y-3.7382
X10.4524Y-3.8012
X10.4524Y-3.8642
X10.4524Y-3.9272
X10.4524Y-3.9902
X10.4524Y-4.0531
X10.4524Y-4.1161
X10.4524Y-4.1791
X10.4524Y-4.2421
X10.4524Y-4.3051
X10.4524Y-4.3681
X10.4524Y-4.4311
X10.4524Y-4.6201
X10.4524Y-4.6831
X10.4524Y-4.7461
X10.4524Y-4.8091
X10.4524Y-4.872
X10.4524Y-4.935
X10.4524Y-4.998
X10.4524Y-5.061
X10.4524Y-5.124
X10.4524Y-5.187
X10.4524Y-5.25
X10.4524Y-5.313
X10.4524Y-5.376
X10.4524Y-5.439
X10.4524Y-5.502
X10.4524Y-5.565
X10.4838Y-6.9162
X10.5076Y-3.6437
X10.5076Y-3.7067
X10.5076Y-3.7697
X10.5076Y-3.8327
X10.5076Y-3.8957
X10.5076Y-3.9587
X10.5076Y-4.0217
X10.5076Y-4.0846
X10.5076Y-4.1476
X10.5076Y-4.2106
X10.5076Y-4.2736
X10.5076Y-4.3366
X10.5076Y-4.3996
X10.5076Y-4.4626
X10.5076Y-4.6516
X10.5076Y-4.7146
X10.5076Y-4.7776
X10.5076Y-4.8406
X10.5076Y-4.9035
X10.5076Y-4.9665
X10.5076Y-5.0295
X10.5076Y-5.0925
X10.5076Y-5.1555
X10.5076Y-5.2185
X10.5076Y-5.2815
X10.5076Y-5.3445
X10.5076Y-5.4075
X10.5076Y-5.4705
X10.5076Y-5.5335
X10.5076Y-5.5965
X10.5863Y-3.6122
X10.5863Y-3.6752
X10.5863Y-3.7382
X10.5863Y-3.8012
X10.5863Y-3.8642
X10.5863Y-3.9272
X10.5863Y-3.9902
X10.5863Y-4.0531
X10.5863Y-4.1161
X10.5863Y-4.1791
X10.5863Y-4.2421
X10.5863Y-4.3051
X10.5863Y-4.3681
X10.5863Y-4.4311
X10.5863Y-4.6201
X10.5863Y-4.6831
X10.5863Y-4.7461
X10.5863Y-4.8091
X10.5863Y-4.872
X10.5863Y-4.935
X10.5863Y-4.998
X10.5863Y-5.061
X10.5863Y-5.124
X10.5863Y-5.187
X10.5863Y-5.25
X10.5863Y-5.313
X10.5863Y-5.376
X10.5863Y-5.439
X10.5863Y-5.502
X10.5863Y-5.565
X10.6123Y-6.9123
X10.68Y-7.045
T2
X4.45Y-3.2998
X4.45Y-3.7998
X4.45Y-4.3998
X4.45Y-4.9998
X4.45Y-5.5998
X4.45Y-6.1498
X4.6Y-3.2998
X4.6Y-3.7998
X4.6Y-4.3998
X4.6Y-4.9998
X4.6Y-5.5998
X4.6Y-6.15
X4.75Y-3.2998
X4.75Y-3.7998
X4.75Y-4.3998
X4.75Y-4.9998
X4.75Y-5.5998
X4.75Y-6.15
X4.9Y-3.2998
X4.9Y-3.7998
X4.9Y-4.3998
X4.9Y-4.9998
X4.9Y-5.5998
X4.9Y-6.15
X5.05Y-3.2998
X5.05Y-3.7998
X5.05Y-4.3998
X5.05Y-4.9998
X5.05Y-5.5998
X5.05Y-6.15
X5.2Y-3.2998
X5.2Y-3.7998
X5.2Y-4.3998
X5.2Y-4.9998
X5.2Y-5.5998
X5.2Y-6.15
X5.35Y-3.7998
X5.35Y-4.3998
X5.35Y-4.9998
X5.35Y-5.5998
X5.35Y-6.15
X5.3593Y-3.2998
X5.5Y-3.7998
X5.5Y-4.3998
X5.5Y-4.9998
X5.5Y-5.5998
X5.5Y-6.15
X5.5093Y-3.2998
X5.65Y-3.7998
X5.65Y-4.3998
X5.65Y-4.9998
X5.65Y-5.5998
X5.65Y-6.15
X5.6593Y-3.2998
X5.8Y-3.7998
X5.8Y-4.3998
X5.8Y-4.9998
X5.8Y-5.5998
X5.8Y-6.15
X5.8093Y-3.2998
X5.95Y-3.2998
X5.95Y-3.7998
X5.95Y-4.3998
X5.95Y-4.9998
X5.95Y-5.5998
X5.95Y-6.15
X6.1Y-3.2998
X6.1Y-3.7998
X6.1Y-4.3998
X6.1Y-4.9998
X6.1Y-5.5998
X6.1Y-6.15
X6.25Y-3.2998
X6.25Y-3.7998
X6.25Y-4.3998
X6.25Y-4.9998
X6.25Y-5.5998
X6.25Y-6.15
X6.4Y-3.2998
X6.4Y-3.7998
X6.4Y-4.3998
X6.4Y-4.9998
X6.4Y-5.5998
X6.4Y-6.15
X6.55Y-3.2998
X6.55Y-3.7998
X6.55Y-4.3998
X6.55Y-4.9998
X6.55Y-5.5998
X6.55Y-6.15
X6.7Y-3.2998
X6.7Y-3.7998
X6.7Y-4.3998
X6.7Y-4.9998
X6.7Y-5.5998
X6.7Y-6.15
X6.85Y-3.2998
X6.85Y-3.7998
X6.85Y-4.3998
X6.85Y-4.9998
X6.85Y-5.5998
X6.85Y-6.15
X7.0Y-3.2998
X7.0Y-3.7998
X7.0Y-4.3998
X7.0Y-4.9998
X7.0Y-5.5998
X7.0Y-6.15
X7.15Y-3.2998
X7.15Y-3.7998
X7.15Y-4.3998
X7.15Y-4.9998
X7.15Y-5.5998
X7.15Y-6.15
X7.3Y-3.2998
X7.3Y-3.7998
X7.3Y-4.3998
X7.3Y-4.9998
X7.3Y-5.5998
X7.3Y-6.15
T3
X11.2827Y-3.3972
X11.2827Y-3.4972
X11.2827Y-3.5972
X11.2827Y-3.6972
X11.2827Y-3.7972
X11.2827Y-3.8972
X11.2827Y-3.9972
X11.2827Y-4.0972
X11.2827Y-4.1972
X11.2827Y-4.2972
X11.2827Y-4.3972
X11.2827Y-4.4972
X11.2827Y-4.5972
X11.2827Y-4.6972
X11.2827Y-4.7972
X11.2827Y-4.8972
X11.2827Y-4.9972
X11.2827Y-5.0972
X11.2827Y-5.1972
X11.2827Y-5.2972
X11.2827Y-5.3972
X11.2827Y-5.4972
X11.2827Y-5.5972
X11.2827Y-5.6972
X11.2827Y-5.7972
X11.2827Y-5.8972
X11.3827Y-3.3972
X11.3827Y-3.4972
X11.3827Y-3.5972
X11.3827Y-3.6972
X11.3827Y-3.7972
X11.3827Y-3.8972
X11.3827Y-3.9972
X11.3827Y-4.0972
X11.3827Y-4.1972
X11.3827Y-4.2972
X11.3827Y-4.3972
X11.3827Y-4.4972
X11.3827Y-4.5972
X11.3827Y-4.6972
X11.3827Y-4.7972
X11.3827Y-4.8972
X11.3827Y-4.9972
X11.3827Y-5.0972
X11.3827Y-5.1972
X11.3827Y-5.2972
X11.3827Y-5.3972
X11.3827Y-5.4972
X11.3827Y-5.5972
X11.3827Y-5.6972
X11.3827Y-5.7972
X11.3827Y-5.8972
X11.4826Y-3.3972
X11.4826Y-3.4972
X11.4826Y-3.5972
X11.4826Y-3.6972
X11.4826Y-3.7972
X11.4826Y-3.8972
X11.4826Y-3.9972
X11.4826Y-4.0972
X11.4826Y-4.1972
X11.4826Y-4.2972
X11.4826Y-4.3972
X11.4826Y-4.4972
X11.4826Y-4.5972
X11.4826Y-4.6972
X11.4826Y-4.7972
X11.4826Y-4.8972
X11.4826Y-4.9972
X11.4826Y-5.0972
X11.4826Y-5.1972
X11.4826Y-5.2972
X11.4826Y-5.3972
X11.4826Y-5.4972
X11.4826Y-5.5972
X11.4826Y-5.6972
X11.4826Y-5.7972
X11.4826Y-5.8972
X11.5826Y-3.3972
X11.5826Y-3.4972
X11.5826Y-3.5972
X11.5826Y-3.6972
X11.5826Y-3.7972
X11.5826Y-3.8972
X11.5826Y-3.9972
X11.5826Y-4.0972
X11.5826Y-4.1972
X11.5826Y-4.2972
X11.5826Y-4.3972
X11.5826Y-4.4972
X11.5826Y-4.5972
X11.5826Y-4.6972
X11.5826Y-4.7972
X11.5826Y-4.8972
X11.5826Y-4.9972
X11.5826Y-5.0972
X11.5826Y-5.1972
X11.5826Y-5.2972
X11.5826Y-5.3972
X11.5826Y-5.4972
X11.5826Y-5.5972
X11.5826Y-5.6972
X11.5826Y-5.7972
X11.5826Y-5.8972
T4
X4.22Y-2.825
X4.22Y-4.925
X4.23Y-7.0646
X7.725Y-6.175
X9.375Y-2.5
X11.4658Y-2.5
X11.4658Y-7.0496
T0
M30
