G04 #@! TF.GenerationSoftware,KiCad,Pcbnew,(6.0.5)*
G04 #@! TF.CreationDate,2022-09-09T14:32:12-04:00*
G04 #@! TF.ProjectId,backplane-breaout-big,6261636b-706c-4616-9e65-2d627265616f,rev?*
G04 #@! TF.SameCoordinates,Original*
G04 #@! TF.FileFunction,Soldermask,Bot*
G04 #@! TF.FilePolarity,Negative*
%FSLAX46Y46*%
G04 Gerber Fmt 4.6, Leading zero omitted, Abs format (unit mm)*
G04 Created by KiCad (PCBNEW (6.0.5)) date 2022-09-09 14:32:12*
%MOMM*%
%LPD*%
G01*
G04 APERTURE LIST*
%ADD10C,1.270000*%
%ADD11C,0.900000*%
%ADD12C,3.600000*%
%ADD13C,6.400000*%
%ADD14R,1.700000X1.700000*%
%ADD15O,1.700000X1.700000*%
%ADD16R,0.760000X2.030000*%
G04 APERTURE END LIST*
D10*
X267692000Y-143650000D03*
X266192000Y-90250000D03*
X185420000Y-156210000D03*
X181610000Y-156210000D03*
X185420000Y-111754524D03*
X181610000Y-111754524D03*
X177800000Y-156210000D03*
X173990000Y-156210000D03*
X177800000Y-111754524D03*
X173990000Y-111754524D03*
X170180000Y-156210000D03*
X166370000Y-156210000D03*
X170180000Y-111754524D03*
X166370000Y-111754524D03*
X162560000Y-156210000D03*
X158750000Y-156210000D03*
X162560000Y-111754524D03*
X158750000Y-111754524D03*
X154940000Y-156210000D03*
X151130000Y-156210000D03*
X154940000Y-111754524D03*
X151130000Y-111754524D03*
X147320000Y-156210000D03*
X143510000Y-156210000D03*
X147320000Y-111754524D03*
X143510000Y-111754524D03*
X139700000Y-156210000D03*
X135890000Y-156210000D03*
X139700000Y-111754524D03*
X135890000Y-111754524D03*
X132080000Y-156210000D03*
X128270000Y-156210000D03*
X132080000Y-111754524D03*
X128270000Y-111754524D03*
X124460000Y-156210000D03*
X120650000Y-156210000D03*
X124460000Y-111754524D03*
X120650000Y-111754524D03*
X116840000Y-156210000D03*
X113030000Y-156204524D03*
X116840000Y-111754524D03*
X113030000Y-111754524D03*
X185420000Y-142234524D03*
X181610000Y-142234524D03*
X185420000Y-96514524D03*
X181610000Y-96514524D03*
X177800000Y-142234524D03*
X173990000Y-142234524D03*
X177800000Y-96514524D03*
X173990000Y-96514524D03*
X170180000Y-142234524D03*
X166370000Y-142234524D03*
X170180000Y-96514524D03*
X166370000Y-96514524D03*
X162560000Y-142234524D03*
X158750000Y-142234524D03*
X162560000Y-96514524D03*
X158750000Y-96514524D03*
X154940000Y-142234524D03*
X151130000Y-142234524D03*
X154940000Y-96514524D03*
X151130000Y-96514524D03*
X147320000Y-142234524D03*
X143510000Y-142234524D03*
X147320000Y-96514524D03*
X143510000Y-96514524D03*
X139700000Y-142234524D03*
X135890000Y-142234524D03*
X139700000Y-96514524D03*
X135890000Y-96514524D03*
X132080000Y-142234524D03*
X128270000Y-142234524D03*
X132080000Y-96514524D03*
X128270000Y-96514524D03*
X124460000Y-142234524D03*
X120650000Y-142234524D03*
X124460000Y-96514524D03*
X120650000Y-96514524D03*
X116840000Y-142234524D03*
X113030000Y-142234524D03*
X116840000Y-96514524D03*
X113030000Y-96514524D03*
X185420000Y-126994524D03*
X181610000Y-126994524D03*
X185420000Y-83814524D03*
X181610000Y-83814524D03*
X177800000Y-126994524D03*
X173990000Y-126994524D03*
X177800000Y-83814524D03*
X173990000Y-83814524D03*
X170180000Y-126994524D03*
X166370000Y-126994524D03*
X170180000Y-83814524D03*
X166370000Y-83814524D03*
X162560000Y-126994524D03*
X158750000Y-126994524D03*
X162560000Y-83814524D03*
X158750000Y-83814524D03*
X154940000Y-126994524D03*
X151130000Y-126994524D03*
X154940000Y-83814524D03*
X151130000Y-83814524D03*
X147320000Y-126994524D03*
X143510000Y-126994524D03*
X147555000Y-83814524D03*
X143745000Y-83814524D03*
X139700000Y-126994524D03*
X135890000Y-126994524D03*
X139935000Y-83814524D03*
X136125000Y-83814524D03*
X132080000Y-126994524D03*
X128270000Y-126994524D03*
X132080000Y-83814524D03*
X128270000Y-83814524D03*
X124460000Y-126994524D03*
X120650000Y-126994524D03*
X124460000Y-83814524D03*
X120650000Y-83814524D03*
X116840000Y-126994524D03*
X113030000Y-126994524D03*
X116840000Y-83814524D03*
X113030000Y-83814524D03*
D11*
X210943996Y-167354504D03*
X217743996Y-167354504D03*
X205678996Y-167354504D03*
X198878996Y-167354504D03*
X186813996Y-167354504D03*
X193613996Y-167354504D03*
X181548996Y-167354504D03*
X174748996Y-167354504D03*
X169483996Y-167354504D03*
X162683996Y-167354504D03*
X157418996Y-167354504D03*
X150618996Y-167354504D03*
X145353996Y-167354504D03*
X138553996Y-167354504D03*
X126488996Y-167354504D03*
X133288996Y-167354504D03*
X121223996Y-167354504D03*
X114423996Y-167354504D03*
D12*
X107188000Y-71755000D03*
D13*
X107188000Y-71755000D03*
X291231066Y-179059992D03*
D12*
X291231066Y-179059992D03*
X107188000Y-125095000D03*
D13*
X107188000Y-125095000D03*
X291231066Y-63500000D03*
D12*
X291231066Y-63500000D03*
D13*
X196215000Y-156845000D03*
D12*
X196215000Y-156845000D03*
D14*
X294199020Y-149790000D03*
D15*
X291659020Y-149790000D03*
X294199020Y-147250000D03*
X291659020Y-147250000D03*
X294199020Y-144710000D03*
X291659020Y-144710000D03*
X294199020Y-142170000D03*
X291659020Y-142170000D03*
X294199020Y-139630000D03*
X291659020Y-139630000D03*
X294199020Y-137090000D03*
X291659020Y-137090000D03*
X294199020Y-134550000D03*
X291659020Y-134550000D03*
X294199020Y-132010000D03*
X291659020Y-132010000D03*
X294199020Y-129470000D03*
X291659020Y-129470000D03*
X294199020Y-126930000D03*
X291659020Y-126930000D03*
X294199020Y-124390000D03*
X291659020Y-124390000D03*
X294199020Y-121850000D03*
X291659020Y-121850000D03*
X294199020Y-119310000D03*
X291659020Y-119310000D03*
X294199020Y-116770000D03*
X291659020Y-116770000D03*
X294199020Y-114230000D03*
X291659020Y-114230000D03*
X294199020Y-111690000D03*
X291659020Y-111690000D03*
X294199020Y-109150000D03*
X291659020Y-109150000D03*
X294199020Y-106610000D03*
X291659020Y-106610000D03*
X294199020Y-104070000D03*
X291659020Y-104070000D03*
X294199020Y-101530000D03*
X291659020Y-101530000D03*
X294199020Y-98990000D03*
X291659020Y-98990000D03*
X294199020Y-96450000D03*
X291659020Y-96450000D03*
X294199020Y-93910000D03*
X291659020Y-93910000D03*
X294199020Y-91370000D03*
X291659020Y-91370000D03*
X294199020Y-88830000D03*
X291659020Y-88830000D03*
X294199020Y-86290000D03*
X291659020Y-86290000D03*
D13*
X107442000Y-179440992D03*
D12*
X107442000Y-179440992D03*
D13*
X238125000Y-63500000D03*
D12*
X238125000Y-63500000D03*
D14*
X289120000Y-149790000D03*
D15*
X286580000Y-149790000D03*
X289120000Y-147250000D03*
X286580000Y-147250000D03*
X289120000Y-144710000D03*
X286580000Y-144710000D03*
X289120000Y-142170000D03*
X286580000Y-142170000D03*
X289120000Y-139630000D03*
X286580000Y-139630000D03*
X289120000Y-137090000D03*
X286580000Y-137090000D03*
X289120000Y-134550000D03*
X286580000Y-134550000D03*
X289120000Y-132010000D03*
X286580000Y-132010000D03*
X289120000Y-129470000D03*
X286580000Y-129470000D03*
X289120000Y-126930000D03*
X286580000Y-126930000D03*
X289120000Y-124390000D03*
X286580000Y-124390000D03*
X289120000Y-121850000D03*
X286580000Y-121850000D03*
X289120000Y-119310000D03*
X286580000Y-119310000D03*
X289120000Y-116770000D03*
X286580000Y-116770000D03*
X289120000Y-114230000D03*
X286580000Y-114230000D03*
X289120000Y-111690000D03*
X286580000Y-111690000D03*
X289120000Y-109150000D03*
X286580000Y-109150000D03*
X289120000Y-106610000D03*
X286580000Y-106610000D03*
X289120000Y-104070000D03*
X286580000Y-104070000D03*
X289120000Y-101530000D03*
X286580000Y-101530000D03*
X289120000Y-98990000D03*
X286580000Y-98990000D03*
X289120000Y-96450000D03*
X286580000Y-96450000D03*
X289120000Y-93910000D03*
X286580000Y-93910000D03*
X289120000Y-91370000D03*
X286580000Y-91370000D03*
X289120000Y-88830000D03*
X286580000Y-88830000D03*
X289120000Y-86290000D03*
X286580000Y-86290000D03*
D16*
X140160000Y-49745000D03*
X140160000Y-52795000D03*
X138890000Y-49745000D03*
X138890000Y-52795000D03*
X137620000Y-49745000D03*
X137620000Y-52795000D03*
X136350000Y-49745000D03*
X136350000Y-52795000D03*
X135080000Y-49745000D03*
X135080000Y-52795000D03*
X133810000Y-49745000D03*
X133810000Y-52795000D03*
X132540000Y-49745000D03*
X132540000Y-52795000D03*
X131270000Y-49745000D03*
X131270000Y-52795000D03*
X130000000Y-49745000D03*
X130000000Y-52795000D03*
X128730000Y-49745000D03*
X128730000Y-52795000D03*
X127460000Y-49745000D03*
X127460000Y-52795000D03*
X126190000Y-49745000D03*
X126190000Y-52795000D03*
X124920000Y-49745000D03*
X124920000Y-52795000D03*
X123650000Y-49745000D03*
X123650000Y-52795000D03*
X122380000Y-49745000D03*
X122380000Y-52795000D03*
X121110000Y-49745000D03*
X121110000Y-52795000D03*
X119840000Y-49745000D03*
X119840000Y-52795000D03*
X118570000Y-49745000D03*
X118570000Y-52795000D03*
X117300000Y-49745000D03*
X117300000Y-52795000D03*
X116030000Y-49745000D03*
X116030000Y-52795000D03*
X114760000Y-49745000D03*
X114760000Y-52795000D03*
X113490000Y-49745000D03*
X113490000Y-52795000D03*
X112220000Y-49745000D03*
X112220000Y-52795000D03*
X110950000Y-49745000D03*
X110950000Y-52795000D03*
X109680000Y-49745000D03*
X109680000Y-52795000D03*
X108410000Y-49745000D03*
X108410000Y-52795000D03*
X107140000Y-49745000D03*
X107140000Y-52795000D03*
X105870000Y-49745000D03*
X105870000Y-52795000D03*
X104600000Y-49745000D03*
X104600000Y-52795000D03*
X103330000Y-49745000D03*
X103330000Y-52795000D03*
M02*
