G04 #@! TF.GenerationSoftware,KiCad,Pcbnew,(6.0.5)*
G04 #@! TF.CreationDate,2022-09-09T14:32:11-04:00*
G04 #@! TF.ProjectId,backplane-breaout-big,6261636b-706c-4616-9e65-2d627265616f,rev?*
G04 #@! TF.SameCoordinates,Original*
G04 #@! TF.FileFunction,Paste,Top*
G04 #@! TF.FilePolarity,Positive*
%FSLAX46Y46*%
G04 Gerber Fmt 4.6, Leading zero omitted, Abs format (unit mm)*
G04 Created by KiCad (PCBNEW (6.0.5)) date 2022-09-09 14:32:11*
%MOMM*%
%LPD*%
G01*
G04 APERTURE LIST*
G04 Aperture macros list*
%AMRoundRect*
0 Rectangle with rounded corners*
0 $1 Rounding radius*
0 $2 $3 $4 $5 $6 $7 $8 $9 X,Y pos of 4 corners*
0 Add a 4 corners polygon primitive as box body*
4,1,4,$2,$3,$4,$5,$6,$7,$8,$9,$2,$3,0*
0 Add four circle primitives for the rounded corners*
1,1,$1+$1,$2,$3*
1,1,$1+$1,$4,$5*
1,1,$1+$1,$6,$7*
1,1,$1+$1,$8,$9*
0 Add four rect primitives between the rounded corners*
20,1,$1+$1,$2,$3,$4,$5,0*
20,1,$1+$1,$4,$5,$6,$7,0*
20,1,$1+$1,$6,$7,$8,$9,0*
20,1,$1+$1,$8,$9,$2,$3,0*%
G04 Aperture macros list end*
%ADD10R,0.760000X2.030000*%
%ADD11RoundRect,0.212500X-0.212500X0.400000X-0.212500X-0.400000X0.212500X-0.400000X0.212500X0.400000X0*%
%ADD12R,2.220000X1.020000*%
%ADD13R,1.200000X0.500000*%
%ADD14R,0.450000X0.700000*%
%ADD15RoundRect,0.317500X0.317500X-1.587500X0.317500X1.587500X-0.317500X1.587500X-0.317500X-1.587500X0*%
%ADD16R,1.000000X3.150000*%
%ADD17RoundRect,0.200000X-0.275000X0.200000X-0.275000X-0.200000X0.275000X-0.200000X0.275000X0.200000X0*%
%ADD18RoundRect,0.200000X0.275000X-0.200000X0.275000X0.200000X-0.275000X0.200000X-0.275000X-0.200000X0*%
%ADD19R,1.200000X2.500000*%
%ADD20R,2.100000X1.400000*%
G04 APERTURE END LIST*
D10*
X140160000Y-52795000D03*
X140160000Y-49745000D03*
X138890000Y-52795000D03*
X138890000Y-49745000D03*
X137620000Y-52795000D03*
X137620000Y-49745000D03*
X136350000Y-52795000D03*
X136350000Y-49745000D03*
X135080000Y-52795000D03*
X135080000Y-49745000D03*
X133810000Y-52795000D03*
X133810000Y-49745000D03*
X132540000Y-52795000D03*
X132540000Y-49745000D03*
X131270000Y-52795000D03*
X131270000Y-49745000D03*
X130000000Y-52795000D03*
X130000000Y-49745000D03*
X128730000Y-52795000D03*
X128730000Y-49745000D03*
X127460000Y-52795000D03*
X127460000Y-49745000D03*
X126190000Y-52795000D03*
X126190000Y-49745000D03*
X124920000Y-52795000D03*
X124920000Y-49745000D03*
X123650000Y-52795000D03*
X123650000Y-49745000D03*
X122380000Y-52795000D03*
X122380000Y-49745000D03*
X121110000Y-52795000D03*
X121110000Y-49745000D03*
X119840000Y-52795000D03*
X119840000Y-49745000D03*
X118570000Y-52795000D03*
X118570000Y-49745000D03*
X117300000Y-52795000D03*
X117300000Y-49745000D03*
X116030000Y-52795000D03*
X116030000Y-49745000D03*
X114760000Y-52795000D03*
X114760000Y-49745000D03*
X113490000Y-52795000D03*
X113490000Y-49745000D03*
X112220000Y-52795000D03*
X112220000Y-49745000D03*
X110950000Y-52795000D03*
X110950000Y-49745000D03*
X109680000Y-52795000D03*
X109680000Y-49745000D03*
X108410000Y-52795000D03*
X108410000Y-49745000D03*
X107140000Y-52795000D03*
X107140000Y-49745000D03*
X105870000Y-52795000D03*
X105870000Y-49745000D03*
X104600000Y-52795000D03*
X104600000Y-49745000D03*
X103330000Y-52795000D03*
X103330000Y-49745000D03*
D11*
X231254000Y-180207500D03*
X231254000Y-181832500D03*
X226174000Y-180207500D03*
X226174000Y-181832500D03*
X221094000Y-180030000D03*
X221094000Y-181655000D03*
X155054000Y-180207500D03*
X155054000Y-181832500D03*
X216014000Y-180207500D03*
X216014000Y-181832500D03*
X149974000Y-180207500D03*
X149974000Y-181832500D03*
X210934000Y-180207500D03*
X210934000Y-181832500D03*
X205854000Y-180207500D03*
X205854000Y-181832500D03*
X200774000Y-180207500D03*
X200774000Y-181832500D03*
X195694000Y-180207500D03*
X195694000Y-181832500D03*
X144894000Y-180207500D03*
X144894000Y-181832500D03*
X139814000Y-180207500D03*
X139814000Y-181832500D03*
X134734000Y-180207500D03*
X134734000Y-181832500D03*
X129654000Y-180207500D03*
X129654000Y-181832500D03*
X190614000Y-180207500D03*
X190614000Y-181832500D03*
X185534000Y-180207500D03*
X185534000Y-181832500D03*
X180454000Y-180207500D03*
X180454000Y-181832500D03*
X175374000Y-180207500D03*
X175374000Y-181832500D03*
X170294000Y-180207500D03*
X170294000Y-181832500D03*
X124574000Y-180207500D03*
X124574000Y-181832500D03*
X165214000Y-180207500D03*
X165214000Y-181832500D03*
X119494000Y-180207500D03*
X119494000Y-181832500D03*
X160134000Y-180030000D03*
X160134000Y-181655000D03*
D12*
X210520000Y-155334000D03*
X216170000Y-155334000D03*
X210520000Y-152794000D03*
X216170000Y-152794000D03*
X210520000Y-150254000D03*
X216170000Y-150254000D03*
X210520000Y-147714000D03*
X216170000Y-147714000D03*
X210520000Y-145174000D03*
X216170000Y-145174000D03*
X210520000Y-142634000D03*
X216170000Y-142634000D03*
X210520000Y-140094000D03*
X216170000Y-140094000D03*
X210520000Y-137554000D03*
X216170000Y-137554000D03*
X210520000Y-135014000D03*
X216170000Y-135014000D03*
X210520000Y-132474000D03*
X216170000Y-132474000D03*
X210520000Y-129934000D03*
X216170000Y-129934000D03*
X210520000Y-127394000D03*
X216170000Y-127394000D03*
X210520000Y-124854000D03*
X216170000Y-124854000D03*
X210520000Y-122314000D03*
X216170000Y-122314000D03*
X210520000Y-119774000D03*
X216170000Y-119774000D03*
X210520000Y-117234000D03*
X216170000Y-117234000D03*
X210520000Y-114694000D03*
X216170000Y-114694000D03*
X210520000Y-112154000D03*
X216170000Y-112154000D03*
X210520000Y-109614000D03*
X216170000Y-109614000D03*
X210520000Y-107074000D03*
X216170000Y-107074000D03*
X210520000Y-104534000D03*
X216170000Y-104534000D03*
X210520000Y-101994000D03*
X216170000Y-101994000D03*
X210520000Y-99454000D03*
X216170000Y-99454000D03*
X210520000Y-96914000D03*
X216170000Y-96914000D03*
X210520000Y-94374000D03*
X216170000Y-94374000D03*
X210520000Y-91834000D03*
X216170000Y-91834000D03*
X210520000Y-89294000D03*
X216170000Y-89294000D03*
X210520000Y-86754000D03*
X216170000Y-86754000D03*
X210520000Y-84214000D03*
X216170000Y-84214000D03*
X210520000Y-81674000D03*
X216170000Y-81674000D03*
X241066000Y-155334000D03*
X246716000Y-155334000D03*
X241066000Y-152794000D03*
X246716000Y-152794000D03*
X241066000Y-150254000D03*
X246716000Y-150254000D03*
X241066000Y-147714000D03*
X246716000Y-147714000D03*
X241066000Y-145174000D03*
X246716000Y-145174000D03*
X241066000Y-142634000D03*
X246716000Y-142634000D03*
X241066000Y-140094000D03*
X246716000Y-140094000D03*
X241066000Y-137554000D03*
X246716000Y-137554000D03*
X241066000Y-135014000D03*
X246716000Y-135014000D03*
X241066000Y-132474000D03*
X246716000Y-132474000D03*
X241066000Y-129934000D03*
X246716000Y-129934000D03*
X241066000Y-127394000D03*
X246716000Y-127394000D03*
X241066000Y-124854000D03*
X246716000Y-124854000D03*
X241066000Y-122314000D03*
X246716000Y-122314000D03*
X241066000Y-119774000D03*
X246716000Y-119774000D03*
X241066000Y-117234000D03*
X246716000Y-117234000D03*
X241066000Y-114694000D03*
X246716000Y-114694000D03*
X241066000Y-112154000D03*
X246716000Y-112154000D03*
X241066000Y-109614000D03*
X246716000Y-109614000D03*
X241066000Y-107074000D03*
X246716000Y-107074000D03*
X241066000Y-104534000D03*
X246716000Y-104534000D03*
X241066000Y-101994000D03*
X246716000Y-101994000D03*
X241066000Y-99454000D03*
X246716000Y-99454000D03*
X241066000Y-96914000D03*
X246716000Y-96914000D03*
X241066000Y-94374000D03*
X246716000Y-94374000D03*
X241066000Y-91834000D03*
X246716000Y-91834000D03*
X241066000Y-89294000D03*
X246716000Y-89294000D03*
X241066000Y-86754000D03*
X246716000Y-86754000D03*
X241066000Y-84214000D03*
X246716000Y-84214000D03*
X241066000Y-81674000D03*
X246716000Y-81674000D03*
D13*
X267892000Y-142150000D03*
X264492000Y-142150000D03*
X267892000Y-141350000D03*
X264492000Y-141350000D03*
X267892000Y-140550000D03*
X264492000Y-140550000D03*
X267892000Y-139750000D03*
X264492000Y-139750000D03*
X267892000Y-138950000D03*
X264492000Y-138950000D03*
X267892000Y-138150000D03*
X264492000Y-138150000D03*
X267892000Y-137350000D03*
X264492000Y-137350000D03*
X267892000Y-136550000D03*
X264492000Y-136550000D03*
X267892000Y-135750000D03*
X264492000Y-135750000D03*
X267892000Y-134950000D03*
X264492000Y-134950000D03*
X267892000Y-134150000D03*
X264492000Y-134150000D03*
X267892000Y-133350000D03*
X264492000Y-133350000D03*
X267892000Y-132550000D03*
X264492000Y-132550000D03*
X267892000Y-131750000D03*
X264492000Y-131750000D03*
X267892000Y-130950000D03*
X264492000Y-130950000D03*
X267892000Y-130150000D03*
X264492000Y-130150000D03*
X267892000Y-129350000D03*
X264492000Y-129350000D03*
X267892000Y-128550000D03*
X264492000Y-128550000D03*
X267892000Y-127750000D03*
X264492000Y-127750000D03*
X267892000Y-126950000D03*
X264492000Y-126950000D03*
X267892000Y-126150000D03*
X264492000Y-126150000D03*
X267892000Y-125350000D03*
X264492000Y-125350000D03*
X267892000Y-124550000D03*
X264492000Y-124550000D03*
X267892000Y-123750000D03*
X264492000Y-123750000D03*
X267892000Y-122950000D03*
X264492000Y-122950000D03*
X267892000Y-122150000D03*
X264492000Y-122150000D03*
X267892000Y-121350000D03*
X264492000Y-121350000D03*
X267892000Y-120550000D03*
X264492000Y-120550000D03*
X267892000Y-119750000D03*
X264492000Y-119750000D03*
X267892000Y-118950000D03*
X264492000Y-118950000D03*
X267892000Y-118150000D03*
X264492000Y-118150000D03*
X267892000Y-117350000D03*
X264492000Y-117350000D03*
X267892000Y-113350000D03*
X264492000Y-113350000D03*
X267892000Y-112550000D03*
X264492000Y-112550000D03*
X267892000Y-111750000D03*
X264492000Y-111750000D03*
X267892000Y-110950000D03*
X264492000Y-110950000D03*
X267892000Y-110150000D03*
X264492000Y-110150000D03*
X267892000Y-109350000D03*
X264492000Y-109350000D03*
X267892000Y-108550000D03*
X264492000Y-108550000D03*
X267892000Y-107750000D03*
X264492000Y-107750000D03*
X267892000Y-106950000D03*
X264492000Y-106950000D03*
X267892000Y-106150000D03*
X264492000Y-106150000D03*
X267892000Y-105350000D03*
X264492000Y-105350000D03*
X267892000Y-104550000D03*
X264492000Y-104550000D03*
X267892000Y-103750000D03*
X264492000Y-103750000D03*
X267892000Y-102950000D03*
X264492000Y-102950000D03*
X267892000Y-102150000D03*
X264492000Y-102150000D03*
X267892000Y-101350000D03*
X264492000Y-101350000D03*
X267892000Y-100550000D03*
X264492000Y-100550000D03*
X267892000Y-99750000D03*
X264492000Y-99750000D03*
X267892000Y-98950000D03*
X264492000Y-98950000D03*
X267892000Y-98150000D03*
X264492000Y-98150000D03*
X267892000Y-97350000D03*
X264492000Y-97350000D03*
X267892000Y-96550000D03*
X264492000Y-96550000D03*
X267892000Y-95750000D03*
X264492000Y-95750000D03*
X267892000Y-94950000D03*
X264492000Y-94950000D03*
X267892000Y-94150000D03*
X264492000Y-94150000D03*
X267892000Y-93350000D03*
X264492000Y-93350000D03*
X267892000Y-92550000D03*
X264492000Y-92550000D03*
X267892000Y-91750000D03*
X264492000Y-91750000D03*
D14*
X231904000Y-175575000D03*
X230604000Y-175575000D03*
X231254000Y-177575000D03*
X226824000Y-175575000D03*
X225524000Y-175575000D03*
X226174000Y-177575000D03*
X221744000Y-175575000D03*
X220444000Y-175575000D03*
X221094000Y-177575000D03*
X155704000Y-175829000D03*
X154404000Y-175829000D03*
X155054000Y-177829000D03*
X216664000Y-175575000D03*
X215364000Y-175575000D03*
X216014000Y-177575000D03*
X150624000Y-175829000D03*
X149324000Y-175829000D03*
X149974000Y-177829000D03*
X211584000Y-175575000D03*
X210284000Y-175575000D03*
X210934000Y-177575000D03*
X206504000Y-175575000D03*
X205204000Y-175575000D03*
X205854000Y-177575000D03*
X201424000Y-175575000D03*
X200124000Y-175575000D03*
X200774000Y-177575000D03*
X196344000Y-175575000D03*
X195044000Y-175575000D03*
X195694000Y-177575000D03*
X145544000Y-175575000D03*
X144244000Y-175575000D03*
X144894000Y-177575000D03*
X140464000Y-175575000D03*
X139164000Y-175575000D03*
X139814000Y-177575000D03*
X190879000Y-177694000D03*
X192179000Y-177694000D03*
X191529000Y-175694000D03*
X186053000Y-177612000D03*
X187353000Y-177612000D03*
X186703000Y-175612000D03*
X180973000Y-177612000D03*
X182273000Y-177612000D03*
X181623000Y-175612000D03*
X176021000Y-177485000D03*
X177321000Y-177485000D03*
X176671000Y-175485000D03*
X170813000Y-177485000D03*
X172113000Y-177485000D03*
X171463000Y-175485000D03*
X135384000Y-175575000D03*
X134084000Y-175575000D03*
X134734000Y-177575000D03*
X130304000Y-175575000D03*
X129004000Y-175575000D03*
X129654000Y-177575000D03*
X165834000Y-177448000D03*
X167134000Y-177448000D03*
X166484000Y-175448000D03*
X160780000Y-177485000D03*
X162080000Y-177485000D03*
X161430000Y-175485000D03*
X125224000Y-175575000D03*
X123924000Y-175575000D03*
X124574000Y-177575000D03*
X120144000Y-175575000D03*
X118844000Y-175575000D03*
X119494000Y-177575000D03*
D15*
X185420000Y-157657800D03*
X181610000Y-157657800D03*
X185420000Y-113202324D03*
X181610000Y-113202324D03*
X177800000Y-157657800D03*
X173990000Y-157657800D03*
X177800000Y-113202324D03*
X173990000Y-113202324D03*
X170180000Y-157657800D03*
X166370000Y-157657800D03*
X170180000Y-113202324D03*
X166370000Y-113202324D03*
X162560000Y-157657800D03*
X158750000Y-157657800D03*
X162560000Y-113202324D03*
X158750000Y-113202324D03*
X154940000Y-157657800D03*
X151130000Y-157657800D03*
X154940000Y-113202324D03*
X151130000Y-113202324D03*
X147320000Y-157657800D03*
X143510000Y-157657800D03*
X147320000Y-113202324D03*
X143510000Y-113202324D03*
X139700000Y-157657800D03*
X135890000Y-157657800D03*
X139700000Y-113202324D03*
X135890000Y-113202324D03*
X132080000Y-157657800D03*
X128270000Y-157657800D03*
X132080000Y-113202324D03*
X128270000Y-113202324D03*
X124460000Y-157657800D03*
X120650000Y-157657800D03*
X124460000Y-113202324D03*
X120650000Y-113202324D03*
X116840000Y-157657800D03*
X113030000Y-157652324D03*
X116840000Y-113202324D03*
X113030000Y-113202324D03*
X185420000Y-143682324D03*
X181610000Y-143682324D03*
X185420000Y-97962324D03*
X181610000Y-97962324D03*
X177800000Y-143682324D03*
X173990000Y-143682324D03*
X177800000Y-97962324D03*
X173990000Y-97962324D03*
X170180000Y-143682324D03*
X166370000Y-143682324D03*
X170180000Y-97962324D03*
X166370000Y-97962324D03*
X162560000Y-143682324D03*
X158750000Y-143682324D03*
X162560000Y-97962324D03*
X158750000Y-97962324D03*
X154940000Y-143682324D03*
X151130000Y-143682324D03*
X154940000Y-97962324D03*
X151130000Y-97962324D03*
X147320000Y-143682324D03*
X143510000Y-143682324D03*
X147320000Y-97962324D03*
X143510000Y-97962324D03*
X139700000Y-143682324D03*
X135890000Y-143682324D03*
X139700000Y-97962324D03*
X135890000Y-97962324D03*
X132080000Y-143682324D03*
X128270000Y-143682324D03*
X132080000Y-97962324D03*
X128270000Y-97962324D03*
X124460000Y-143682324D03*
X120650000Y-143682324D03*
X124460000Y-97962324D03*
X120650000Y-97962324D03*
X116840000Y-143682324D03*
X113030000Y-143682324D03*
X116840000Y-97962324D03*
X113030000Y-97962324D03*
X185420000Y-128442324D03*
X181610000Y-128442324D03*
X185420000Y-85262324D03*
X181610000Y-85262324D03*
X177800000Y-128442324D03*
X173990000Y-128442324D03*
X177800000Y-85262324D03*
X173990000Y-85262324D03*
X170180000Y-128442324D03*
X166370000Y-128442324D03*
X170180000Y-85262324D03*
X166370000Y-85262324D03*
X162560000Y-128442324D03*
X158750000Y-128442324D03*
X162560000Y-85262324D03*
X158750000Y-85262324D03*
X154940000Y-128442324D03*
X151130000Y-128442324D03*
X154940000Y-85262324D03*
X151130000Y-85262324D03*
X147320000Y-128442324D03*
X143510000Y-128442324D03*
X147555000Y-85262324D03*
X143745000Y-85262324D03*
X139700000Y-128442324D03*
X135890000Y-128442324D03*
X139935000Y-85262324D03*
X136125000Y-85262324D03*
X132080000Y-128442324D03*
X128270000Y-128442324D03*
X132080000Y-85262324D03*
X128270000Y-85262324D03*
X124460000Y-128442324D03*
X120650000Y-128442324D03*
X124460000Y-85262324D03*
X120650000Y-85262324D03*
X116840000Y-128442324D03*
X113030000Y-128442324D03*
X116840000Y-85262324D03*
X113030000Y-85262324D03*
D16*
X241179000Y-180707000D03*
X241179000Y-175657000D03*
X243719000Y-180707000D03*
X243719000Y-175657000D03*
X246259000Y-180707000D03*
X246259000Y-175657000D03*
X248799000Y-180707000D03*
X248799000Y-175657000D03*
X225939000Y-168515000D03*
X225939000Y-163465000D03*
X228479000Y-168515000D03*
X228479000Y-163465000D03*
X231019000Y-168515000D03*
X231019000Y-163465000D03*
X233559000Y-168515000D03*
X233559000Y-163465000D03*
X241379000Y-168266000D03*
X241379000Y-163216000D03*
X243919000Y-168266000D03*
X243919000Y-163216000D03*
X246459000Y-168266000D03*
X246459000Y-163216000D03*
X248999000Y-168266000D03*
X248999000Y-163216000D03*
D17*
X233159000Y-180195000D03*
X233159000Y-181845000D03*
X228079000Y-180195000D03*
X228079000Y-181845000D03*
X222999000Y-180195000D03*
X222999000Y-181845000D03*
X156959000Y-180195000D03*
X156959000Y-181845000D03*
X217919000Y-180195000D03*
X217919000Y-181845000D03*
X151879000Y-180195000D03*
X151879000Y-181845000D03*
D18*
X233794000Y-177400000D03*
X233794000Y-175750000D03*
X228714000Y-177400000D03*
X228714000Y-175750000D03*
X223634000Y-177400000D03*
X223634000Y-175750000D03*
X157594000Y-177400000D03*
X157594000Y-175750000D03*
X218554000Y-177400000D03*
X218554000Y-175750000D03*
X152514000Y-177400000D03*
X152514000Y-175750000D03*
D17*
X212839000Y-180195000D03*
X212839000Y-181845000D03*
X207759000Y-180195000D03*
X207759000Y-181845000D03*
X202679000Y-180195000D03*
X202679000Y-181845000D03*
X197599000Y-180195000D03*
X197599000Y-181845000D03*
X146799000Y-180195000D03*
X146799000Y-181845000D03*
X141719000Y-180195000D03*
X141719000Y-181845000D03*
D18*
X213474000Y-177400000D03*
X213474000Y-175750000D03*
X208394000Y-177400000D03*
X208394000Y-175750000D03*
X203314000Y-177400000D03*
X203314000Y-175750000D03*
X198234000Y-177400000D03*
X198234000Y-175750000D03*
X147434000Y-177400000D03*
X147434000Y-175750000D03*
X142354000Y-177400000D03*
X142354000Y-175750000D03*
D17*
X136639000Y-180195000D03*
X136639000Y-181845000D03*
X131559000Y-180195000D03*
X131559000Y-181845000D03*
X192519000Y-180195000D03*
X192519000Y-181845000D03*
X187439000Y-180195000D03*
X187439000Y-181845000D03*
X182359000Y-180195000D03*
X182359000Y-181845000D03*
X177279000Y-180195000D03*
X177279000Y-181845000D03*
X172199000Y-180195000D03*
X172199000Y-181845000D03*
D18*
X137274000Y-177400000D03*
X137274000Y-175750000D03*
X132194000Y-177400000D03*
X132194000Y-175750000D03*
D17*
X126479000Y-180195000D03*
X126479000Y-181845000D03*
X167119000Y-180195000D03*
X167119000Y-181845000D03*
X121399000Y-180195000D03*
X121399000Y-181845000D03*
X162039000Y-180195000D03*
X162039000Y-181845000D03*
D18*
X127114000Y-177400000D03*
X127114000Y-175750000D03*
X122034000Y-177400000D03*
X122034000Y-175750000D03*
D19*
X211843996Y-164604504D03*
X214343996Y-170104504D03*
X216843996Y-164604504D03*
X199778996Y-164604504D03*
X202278996Y-170104504D03*
X204778996Y-164604504D03*
X187713996Y-164604504D03*
X190213996Y-170104504D03*
X192713996Y-164604504D03*
X175648996Y-164604504D03*
X178148996Y-170104504D03*
X180648996Y-164604504D03*
X163583996Y-164604504D03*
X166083996Y-170104504D03*
X168583996Y-164604504D03*
X151518996Y-164604504D03*
X154018996Y-170104504D03*
X156518996Y-164604504D03*
X139453996Y-164604504D03*
X141953996Y-170104504D03*
X144453996Y-164604504D03*
X127388996Y-164604504D03*
X129888996Y-170104504D03*
X132388996Y-164604504D03*
X115323996Y-164604504D03*
X117823996Y-170104504D03*
X120323996Y-164604504D03*
D20*
X280399000Y-180072000D03*
X271299000Y-180072000D03*
X271299000Y-175572000D03*
X280399000Y-175572000D03*
X255258980Y-180171996D03*
X264358980Y-180171996D03*
X255258980Y-175671996D03*
X264358980Y-175671996D03*
M02*
