M48
; DRILL file {KiCad 7.0.1} date Thu Jun  1 09:09:49 2023
; FORMAT={-:-/ absolute / inch / decimal}
; #@! TF.CreationDate,2023-06-01T09:09:49-04:00
; #@! TF.GenerationSoftware,Kicad,Pcbnew,7.0.1
; #@! TF.FileFunction,NonPlated,1,6,NPTH
FMAT,2
INCH
; #@! TA.AperFunction,NonPlated,NPTH,ComponentDrill
T1C0.0240
; #@! TA.AperFunction,NonPlated,NPTH,ComponentDrill
T2C0.0291
; #@! TA.AperFunction,NonPlated,NPTH,ComponentDrill
T3C0.0394
; #@! TA.AperFunction,NonPlated,NPTH,ComponentDrill
T4C0.0500
; #@! TA.AperFunction,NonPlated,NPTH,ComponentDrill
T5C0.0591
%
G90
G05
T1
X3.0939Y-6.4952
X3.0939Y-6.5452
X3.0939Y-6.7552
X3.0939Y-6.8052
X3.1439Y-6.4952
X3.1439Y-6.5452
X3.1439Y-6.7552
X3.1439Y-6.8052
X3.1939Y-6.4952
X3.1939Y-6.5452
X3.1939Y-6.7552
X3.1939Y-6.8052
X3.2439Y-6.4952
X3.2439Y-6.5452
X3.2439Y-6.7552
X3.2439Y-6.8052
X3.2939Y-6.4952
X3.2939Y-6.5452
X3.2939Y-6.7552
X3.2939Y-6.8052
X3.3439Y-6.4952
X3.3439Y-6.5452
X3.3439Y-6.7552
X3.3439Y-6.8052
X3.3939Y-6.4952
X3.3939Y-6.5452
X3.3939Y-6.7552
X3.3939Y-6.8052
X3.4439Y-6.4952
X3.4439Y-6.5452
X3.4439Y-6.7552
X3.4439Y-6.8052
X3.4939Y-6.4952
X3.4939Y-6.5452
X3.4939Y-6.7552
X3.4939Y-6.8052
X3.5439Y-6.4952
X3.5439Y-6.5452
X3.5439Y-6.7552
X3.5439Y-6.8052
X3.5939Y-6.4952
X3.5939Y-6.5452
X3.5939Y-6.7552
X3.5939Y-6.8052
X3.6439Y-6.4952
X3.6439Y-6.5452
X3.6439Y-6.7552
X3.6439Y-6.8052
X3.6939Y-6.4952
X3.6939Y-6.5452
X3.6939Y-6.7552
X3.6939Y-6.8052
X3.7439Y-6.4952
X3.7439Y-6.5452
X3.7439Y-6.7552
X3.7439Y-6.8052
X3.7939Y-6.4952
X3.7939Y-6.5452
X3.7939Y-6.7552
X3.7939Y-6.8052
X3.8439Y-6.4952
X3.8439Y-6.5452
X3.8439Y-6.7552
X3.8439Y-6.8052
X3.8939Y-6.4952
X3.8939Y-6.5452
X3.8939Y-6.7552
X3.8939Y-6.8052
X3.9439Y-6.4952
X3.9439Y-6.5452
X3.9439Y-6.7552
X3.9439Y-6.8052
X3.9939Y-6.4952
X3.9939Y-6.5452
X3.9939Y-6.7552
X3.9939Y-6.8052
X4.0439Y-6.4952
X4.0439Y-6.5452
X4.0439Y-6.7552
X4.0439Y-6.8052
X4.0939Y-6.4952
X4.0939Y-6.5452
X4.0939Y-6.7552
X4.0939Y-6.8052
X4.1439Y-6.4952
X4.1439Y-6.5452
X4.1439Y-6.7552
X4.1439Y-6.8052
X4.1939Y-6.4952
X4.1939Y-6.5452
X4.1939Y-6.7552
X4.1939Y-6.8052
X4.2439Y-6.4952
X4.2439Y-6.5452
X4.2439Y-6.7552
X4.2439Y-6.8052
X4.2939Y-6.4952
X4.2939Y-6.5452
X4.2939Y-6.7552
X4.2939Y-6.8052
X4.3439Y-6.4952
X4.3439Y-6.5452
X4.3439Y-6.7552
X4.3439Y-6.8052
X4.3939Y-6.4952
X4.3939Y-6.5452
X4.3939Y-6.7552
X4.3939Y-6.8052
X4.4439Y-6.4952
X4.4439Y-6.5452
X4.4439Y-6.7552
X4.4439Y-6.8052
X4.4939Y-6.4952
X4.4939Y-6.5452
X4.4939Y-6.7552
X4.4939Y-6.8052
X4.5439Y-6.4952
X4.5439Y-6.5452
X4.5439Y-6.7552
X4.5439Y-6.8052
T2
X3.1189Y-6.5202
X3.1189Y-6.7802
X4.5189Y-6.5202
X4.5189Y-6.7802
T3
X2.365Y-2.0472
X2.365Y-2.6378
X2.365Y-3.2283
X2.365Y-3.8189
X2.365Y-4.4094
X2.365Y-5.0
X2.365Y-5.5906
X2.365Y-6.1811
X2.4201Y-1.9606
X2.4201Y-2.5512
X2.4201Y-3.1417
X2.4201Y-3.7323
X2.4201Y-4.3228
X2.4201Y-4.9134
X2.4201Y-5.5039
X2.4201Y-6.0945
X2.5146Y-2.0472
X2.5146Y-2.6378
X2.5146Y-3.2283
X2.5146Y-3.8189
X2.5146Y-4.4094
X2.5146Y-5.0
X2.5146Y-5.5906
X2.5146Y-6.1811
X2.6642Y-2.0472
X2.6642Y-2.6378
X2.6642Y-3.2283
X2.6642Y-3.8189
X2.6642Y-4.4094
X2.6642Y-5.0
X2.6642Y-5.5906
X2.6642Y-6.1811
T4
X2.7677Y-2.063
X2.7677Y-2.6535
X2.7677Y-3.2441
X2.7677Y-3.8346
X2.7677Y-4.4252
X2.7677Y-5.0157
X2.7677Y-5.6063
X2.7677Y-6.1969
X4.8701Y-2.0039
X4.8701Y-2.5945
X4.8701Y-3.185
X4.8701Y-3.7756
X4.8701Y-4.3661
X4.8701Y-4.9567
X4.8701Y-5.5472
X4.8701Y-6.1378
T5
X2.5894Y-1.9453
X2.5894Y-2.5358
X2.5894Y-3.1264
X2.5894Y-3.7169
X2.5894Y-4.3075
X2.5894Y-4.898
X2.5894Y-5.4886
X2.5894Y-6.0791
T0
M30
