M48
; DRILL file {KiCad 7.0.1} date Thu Jun  1 09:09:49 2023
; FORMAT={-:-/ absolute / inch / decimal}
; #@! TF.CreationDate,2023-06-01T09:09:49-04:00
; #@! TF.GenerationSoftware,Kicad,Pcbnew,7.0.1
; #@! TF.FileFunction,Plated,1,6,PTH
FMAT,2
INCH
; #@! TA.AperFunction,Plated,PTH,ViaDrill
T1C0.0079
; #@! TA.AperFunction,Plated,PTH,ComponentDrill
T2C0.0850
; #@! TA.AperFunction,Plated,PTH,ComponentDrill
T3C0.1200
%
G90
G05
T1
X2.3415Y-6.2565
X2.355Y-6.49
X2.355Y-6.61
X2.3684Y-6.3284
X2.4046Y-6.0317
X2.405Y-5.6719
X2.415Y-5.0809
X2.4152Y-4.4902
X2.42Y-3.31
X2.4202Y-3.9002
X2.4203Y-2.13
X2.4213Y-2.725
X2.425Y-5.7014
X2.428Y-6.0317
X2.4298Y-6.5531
X2.444Y-4.8288
X2.444Y-6.0029
X2.455Y-2.195
X2.455Y-2.79
X2.455Y-3.38
X2.455Y-3.965
X2.455Y-4.56
X2.455Y-5.15
X2.455Y-6.33
X2.4674Y-4.8288
X2.4674Y-6.0029
X2.4951Y-4.8288
X2.5227Y-4.8288
X2.5227Y-6.0029
X2.53Y-6.065
X2.5462Y-4.8288
X2.5462Y-6.0029
X2.5621Y-6.0317
X2.5855Y-6.0317
X2.5978Y-6.628
X2.6015Y-4.8288
X2.6015Y-6.0029
X2.6115Y-1.605
X2.6175Y-6.2925
X2.619Y-4.1732
X2.6249Y-4.8288
X2.6249Y-6.0029
X2.63Y-2.2792
X2.63Y-2.31
X2.63Y-2.342
X2.6311Y-6.3356
X2.6322Y-6.47
X2.6327Y-6.4392
X2.6327Y-6.502
X2.6461Y-2.1939
X2.6461Y-2.7889
X2.6461Y-3.3739
X2.6461Y-3.9689
X2.6461Y-4.5589
X2.6461Y-5.1489
X2.6511Y-5.7339
X2.685Y-2.1
X2.685Y-2.695
X2.685Y-3.28
X2.685Y-3.87
X2.685Y-4.465
X2.685Y-5.055
X2.6873Y-1.605
X2.69Y-5.64
X2.6948Y-4.1732
X2.7Y-6.3617
X2.705Y-2.165
X2.705Y-2.76
X2.705Y-3.345
X2.705Y-3.94
X2.705Y-4.53
X2.705Y-5.12
X2.71Y-5.705
X2.7517Y-6.8283
X2.7517Y-6.8517
X2.795Y-6.015
X2.8268Y-2.0394
X2.8268Y-2.4961
X2.8268Y-2.63
X2.8268Y-3.0867
X2.8268Y-3.2205
X2.8268Y-3.6772
X2.8268Y-3.8111
X2.8268Y-4.2678
X2.8268Y-4.4016
X2.8268Y-4.8583
X2.8268Y-4.9922
X2.8268Y-5.4489
X2.8268Y-5.5827
X2.8268Y-6.0394
X2.8268Y-6.1733
X2.8268Y-1.902
X2.8583Y-1.9685
X2.8583Y-2.1023
X2.8583Y-2.559
X2.8583Y-2.6929
X2.8583Y-3.1496
X2.8583Y-3.2834
X2.8583Y-3.7401
X2.8583Y-3.874
X2.8583Y-4.3307
X2.8583Y-4.4645
X2.8583Y-4.9212
X2.8583Y-5.0551
X2.8583Y-5.5118
X2.8583Y-5.6456
X2.8583Y-6.1023
X2.8583Y-6.2362
X2.8898Y-2.0394
X2.8898Y-2.4961
X2.8898Y-2.63
X2.8898Y-3.0867
X2.8898Y-3.2205
X2.8898Y-3.6772
X2.8898Y-3.8111
X2.8898Y-4.2678
X2.8898Y-4.4016
X2.8898Y-4.8583
X2.8898Y-4.9922
X2.8898Y-5.4489
X2.8898Y-5.5827
X2.8898Y-6.0394
X2.8898Y-6.1733
X2.8898Y-1.9059
X2.9213Y-1.9685
X2.9213Y-2.1023
X2.9213Y-2.559
X2.9213Y-2.6929
X2.9213Y-3.1496
X2.9213Y-3.2834
X2.9213Y-3.7401
X2.9213Y-3.874
X2.9213Y-4.3307
X2.9213Y-4.4645
X2.9213Y-4.9212
X2.9213Y-5.0551
X2.9213Y-5.5118
X2.9213Y-5.6456
X2.9213Y-6.1023
X2.9213Y-6.2362
X2.9528Y-1.9056
X2.9528Y-2.0394
X2.9528Y-2.4961
X2.9528Y-2.63
X2.9528Y-3.0867
X2.9528Y-3.2205
X2.9528Y-3.6772
X2.9528Y-3.8111
X2.9528Y-4.2678
X2.9528Y-4.4016
X2.9528Y-4.8583
X2.9528Y-4.9922
X2.9528Y-5.4489
X2.9528Y-5.5827
X2.9528Y-6.0394
X2.9528Y-6.1733
X2.9827Y-6.4786
X2.9827Y-6.502
X2.9827Y-6.5574
X2.9827Y-6.5808
X2.9843Y-1.9685
X2.9843Y-2.1023
X2.9843Y-2.559
X2.9843Y-2.6929
X2.9843Y-3.1496
X2.9843Y-3.2834
X2.9843Y-3.7401
X2.9843Y-3.874
X2.9843Y-4.3307
X2.9843Y-4.4645
X2.9843Y-4.9212
X2.9843Y-5.0551
X2.9843Y-5.5118
X2.9843Y-5.6456
X2.9843Y-6.1023
X2.9843Y-6.2362
X3.0116Y-6.4392
X3.0116Y-6.4626
X3.0116Y-6.518
X3.0116Y-6.5414
X3.0157Y-1.9016
X3.0157Y-2.0394
X3.0157Y-2.4922
X3.0157Y-2.63
X3.0157Y-3.0827
X3.0157Y-3.2205
X3.0157Y-3.6733
X3.0157Y-3.8111
X3.0157Y-4.2638
X3.0157Y-4.4016
X3.0157Y-4.8544
X3.0157Y-4.9922
X3.0157Y-5.4449
X3.0157Y-5.5827
X3.0157Y-6.1733
X3.0157Y-6.0355
X3.0472Y-1.8028
X3.0472Y-2.1023
X3.0472Y-2.559
X3.0472Y-2.6929
X3.0472Y-3.1496
X3.0472Y-3.2834
X3.0472Y-3.7401
X3.0472Y-3.874
X3.0472Y-4.3307
X3.0472Y-4.4645
X3.0472Y-4.9212
X3.0472Y-5.0551
X3.0472Y-5.5118
X3.0472Y-5.6456
X3.0472Y-6.1023
X3.0472Y-6.2362
X3.0787Y-1.9056
X3.0787Y-2.0394
X3.0787Y-2.4961
X3.0787Y-2.63
X3.0787Y-3.0867
X3.0787Y-3.2205
X3.0787Y-3.6772
X3.0787Y-3.8111
X3.0787Y-4.2678
X3.0787Y-4.4016
X3.0787Y-4.8583
X3.0787Y-4.9922
X3.0787Y-5.4489
X3.0787Y-5.5827
X3.0787Y-6.0394
X3.0787Y-6.1733
X3.0939Y-6.4115
X3.0939Y-6.6425
X3.0939Y-6.6715
X3.0939Y-6.8902
X3.1093Y-6.2362
X3.1102Y-1.9685
X3.1102Y-2.1023
X3.1102Y-2.559
X3.1102Y-2.6929
X3.1102Y-3.1496
X3.1102Y-3.2834
X3.1102Y-3.7401
X3.1102Y-3.874
X3.1102Y-4.3307
X3.1102Y-4.4645
X3.1102Y-4.9212
X3.1102Y-5.0551
X3.1102Y-5.5118
X3.1102Y-5.6456
X3.1102Y-6.1023
X3.1417Y-1.9056
X3.1417Y-2.0394
X3.1417Y-2.4961
X3.1417Y-2.63
X3.1417Y-3.0867
X3.1417Y-3.2205
X3.1417Y-3.6772
X3.1417Y-3.8111
X3.1417Y-4.2678
X3.1417Y-4.4016
X3.1417Y-4.8583
X3.1417Y-4.9922
X3.1417Y-5.4489
X3.1417Y-5.5827
X3.1417Y-6.0394
X3.1417Y-6.1733
X3.1438Y-6.6579
X3.1439Y-6.4115
X3.1439Y-6.6302
X3.1439Y-6.8902
X3.1732Y-1.9685
X3.1732Y-2.1023
X3.1732Y-2.559
X3.1732Y-2.6929
X3.1732Y-3.1496
X3.1732Y-3.2834
X3.1732Y-3.7401
X3.1732Y-3.874
X3.1732Y-4.3307
X3.1732Y-4.4645
X3.1732Y-4.9212
X3.1732Y-5.0551
X3.1732Y-5.5118
X3.1732Y-5.6456
X3.1732Y-6.1023
X3.1732Y-6.2362
X3.1939Y-6.4102
X3.1939Y-6.6425
X3.1939Y-6.6702
X3.1939Y-6.8902
X3.2047Y-1.9056
X3.2047Y-2.0394
X3.2047Y-2.4961
X3.2047Y-2.63
X3.2047Y-3.0867
X3.2047Y-3.2205
X3.2047Y-3.6772
X3.2047Y-3.8111
X3.2047Y-4.2678
X3.2047Y-4.4016
X3.2047Y-4.8583
X3.2047Y-4.9922
X3.2047Y-5.4489
X3.2047Y-5.5827
X3.2047Y-6.0394
X3.2047Y-6.1733
X3.2352Y-6.2362
X3.2362Y-1.9685
X3.2362Y-2.1023
X3.2362Y-2.559
X3.2362Y-2.6929
X3.2362Y-3.1496
X3.2362Y-3.2834
X3.2362Y-3.7401
X3.2362Y-3.874
X3.2362Y-4.3307
X3.2362Y-4.4645
X3.2362Y-4.9212
X3.2362Y-5.0551
X3.2362Y-5.5118
X3.2362Y-5.6456
X3.2362Y-6.1023
X3.2438Y-6.6579
X3.2439Y-6.4115
X3.2439Y-6.6302
X3.2439Y-6.8902
X3.2677Y-1.9056
X3.2677Y-2.0394
X3.2677Y-2.4961
X3.2677Y-2.63
X3.2677Y-3.0867
X3.2677Y-3.2205
X3.2677Y-3.6772
X3.2677Y-3.8111
X3.2677Y-4.2678
X3.2677Y-4.4016
X3.2677Y-4.8583
X3.2677Y-4.9922
X3.2677Y-5.4489
X3.2677Y-5.5827
X3.2677Y-6.0394
X3.2677Y-6.1733
X3.2939Y-6.4102
X3.2939Y-6.6425
X3.2939Y-6.6702
X3.2939Y-6.8902
X3.2992Y-1.9685
X3.2992Y-2.1023
X3.2992Y-2.559
X3.2992Y-2.6929
X3.2992Y-3.1496
X3.2992Y-3.2834
X3.2992Y-3.7401
X3.2992Y-3.874
X3.2992Y-4.3307
X3.2992Y-4.4645
X3.2992Y-4.9212
X3.2992Y-5.0551
X3.2992Y-5.5118
X3.2992Y-5.6456
X3.2992Y-6.1023
X3.2992Y-6.2362
X3.3307Y-1.9056
X3.3307Y-2.0394
X3.3307Y-2.4961
X3.3307Y-2.63
X3.3307Y-3.0867
X3.3307Y-3.2205
X3.3307Y-3.6772
X3.3307Y-3.8111
X3.3307Y-4.2678
X3.3307Y-4.4016
X3.3307Y-4.8583
X3.3307Y-4.9922
X3.3307Y-5.4489
X3.3307Y-5.5827
X3.3307Y-6.0394
X3.3307Y-6.1733
X3.3438Y-6.6579
X3.3439Y-6.4115
X3.3439Y-6.6302
X3.3439Y-6.8902
X3.3612Y-6.2362
X3.3622Y-1.9685
X3.3622Y-2.1023
X3.3622Y-2.559
X3.3622Y-2.6929
X3.3622Y-3.1496
X3.3622Y-3.2834
X3.3622Y-3.7401
X3.3622Y-3.874
X3.3622Y-4.3307
X3.3622Y-4.4645
X3.3622Y-4.9212
X3.3622Y-5.0551
X3.3622Y-5.5118
X3.3622Y-5.6456
X3.3622Y-6.1023
X3.3937Y-1.9056
X3.3937Y-2.0394
X3.3937Y-2.4961
X3.3937Y-2.63
X3.3937Y-3.0867
X3.3937Y-3.2205
X3.3937Y-3.6772
X3.3937Y-3.8111
X3.3937Y-4.2678
X3.3937Y-4.4016
X3.3937Y-4.8583
X3.3937Y-4.9922
X3.3937Y-5.4489
X3.3937Y-5.5827
X3.3937Y-6.0394
X3.3937Y-6.1733
X3.3939Y-6.4102
X3.3939Y-6.6425
X3.3939Y-6.6702
X3.3939Y-6.8902
X3.4252Y-1.9685
X3.4252Y-2.1023
X3.4252Y-2.559
X3.4252Y-2.6929
X3.4252Y-3.1496
X3.4252Y-3.2834
X3.4252Y-3.7401
X3.4252Y-3.874
X3.4252Y-4.3307
X3.4252Y-4.4645
X3.4252Y-4.9212
X3.4252Y-5.0551
X3.4252Y-5.5118
X3.4252Y-5.6456
X3.4252Y-6.1023
X3.4252Y-6.2362
X3.4438Y-6.6579
X3.4439Y-6.4115
X3.4439Y-6.6302
X3.4439Y-6.8902
X3.4567Y-1.9056
X3.4567Y-2.0394
X3.4567Y-2.4961
X3.4567Y-2.63
X3.4567Y-3.0867
X3.4567Y-3.2205
X3.4567Y-3.6772
X3.4567Y-3.8111
X3.4567Y-4.2678
X3.4567Y-4.4016
X3.4567Y-4.8583
X3.4567Y-4.9922
X3.4567Y-5.4489
X3.4567Y-5.5827
X3.4567Y-6.0394
X3.4567Y-6.1733
X3.4872Y-6.2362
X3.4882Y-1.9685
X3.4882Y-2.1023
X3.4882Y-2.559
X3.4882Y-2.6929
X3.4882Y-3.1496
X3.4882Y-3.2834
X3.4882Y-3.7401
X3.4882Y-3.874
X3.4882Y-4.3307
X3.4882Y-4.4645
X3.4882Y-4.9212
X3.4882Y-5.0551
X3.4882Y-5.5118
X3.4882Y-5.6456
X3.4882Y-6.1023
X3.4939Y-6.4102
X3.4939Y-6.6425
X3.4939Y-6.6702
X3.4939Y-6.8902
X3.5197Y-1.9056
X3.5197Y-2.0394
X3.5197Y-2.4961
X3.5197Y-2.63
X3.5197Y-3.0867
X3.5197Y-3.2205
X3.5197Y-3.6772
X3.5197Y-3.8111
X3.5197Y-4.2678
X3.5197Y-4.4016
X3.5197Y-4.8583
X3.5197Y-4.9922
X3.5197Y-5.4489
X3.5197Y-5.5827
X3.5197Y-6.0394
X3.5197Y-6.1733
X3.5438Y-6.6579
X3.5439Y-6.4115
X3.5439Y-6.6302
X3.5439Y-6.8902
X3.5512Y-1.9685
X3.5512Y-2.1023
X3.5512Y-2.559
X3.5512Y-2.6929
X3.5512Y-3.1496
X3.5512Y-3.2834
X3.5512Y-3.7401
X3.5512Y-3.874
X3.5512Y-4.3307
X3.5512Y-4.4645
X3.5512Y-4.9212
X3.5512Y-5.0551
X3.5512Y-5.5118
X3.5512Y-5.6456
X3.5512Y-6.1023
X3.5512Y-6.2362
X3.5827Y-1.9056
X3.5827Y-2.0394
X3.5827Y-2.4961
X3.5827Y-2.63
X3.5827Y-3.0867
X3.5827Y-3.2205
X3.5827Y-3.6772
X3.5827Y-3.8111
X3.5827Y-4.2678
X3.5827Y-4.4016
X3.5827Y-4.8583
X3.5827Y-4.9922
X3.5827Y-5.4489
X3.5827Y-5.5827
X3.5827Y-6.0394
X3.5827Y-6.1733
X3.5939Y-6.4106
X3.5939Y-6.6425
X3.5939Y-6.6706
X3.5939Y-6.8902
X3.6142Y-1.9685
X3.6142Y-2.1023
X3.6142Y-2.559
X3.6142Y-2.6929
X3.6142Y-3.1496
X3.6142Y-3.2834
X3.6142Y-3.7401
X3.6142Y-3.874
X3.6142Y-4.3307
X3.6142Y-4.4645
X3.6142Y-4.9212
X3.6142Y-5.0551
X3.6142Y-5.5118
X3.6142Y-5.6456
X3.6142Y-6.1023
X3.6142Y-6.2362
X3.6438Y-6.6579
X3.6439Y-6.4115
X3.6439Y-6.6302
X3.6439Y-6.8902
X3.6457Y-1.9056
X3.6457Y-2.0394
X3.6457Y-2.4961
X3.6457Y-2.63
X3.6457Y-3.0867
X3.6457Y-3.2205
X3.6457Y-3.6772
X3.6457Y-3.8111
X3.6457Y-4.2678
X3.6457Y-4.4016
X3.6457Y-4.8583
X3.6457Y-4.9922
X3.6457Y-5.4489
X3.6457Y-5.5827
X3.6457Y-6.0394
X3.6457Y-6.1733
X3.6772Y-1.9685
X3.6772Y-2.1024
X3.6772Y-2.559
X3.6772Y-2.693
X3.6772Y-3.1496
X3.6772Y-3.2835
X3.6772Y-3.7401
X3.6772Y-3.8741
X3.6772Y-4.3307
X3.6772Y-4.4646
X3.6772Y-4.9212
X3.6772Y-5.0552
X3.6772Y-5.5118
X3.6772Y-5.6457
X3.6772Y-6.1023
X3.6772Y-6.2363
X3.6939Y-6.4102
X3.6939Y-6.6425
X3.6939Y-6.6702
X3.6939Y-6.8902
X3.7087Y-1.9056
X3.7087Y-2.0394
X3.7087Y-2.4961
X3.7087Y-2.63
X3.7087Y-3.0867
X3.7087Y-3.2205
X3.7087Y-3.6772
X3.7087Y-3.8111
X3.7087Y-4.2678
X3.7087Y-4.4016
X3.7087Y-4.8583
X3.7087Y-4.9922
X3.7087Y-5.4489
X3.7087Y-5.5827
X3.7087Y-6.0394
X3.7087Y-6.1733
X3.7402Y-1.9685
X3.7402Y-2.1024
X3.7402Y-2.5591
X3.7402Y-2.693
X3.7402Y-3.1496
X3.7402Y-3.2835
X3.7402Y-3.7402
X3.7402Y-3.8741
X3.7402Y-4.3307
X3.7402Y-4.4646
X3.7402Y-4.9213
X3.7402Y-5.0552
X3.7402Y-5.5119
X3.7402Y-5.6457
X3.7402Y-6.1024
X3.7402Y-6.2363
X3.7438Y-6.6579
X3.7439Y-6.4115
X3.7439Y-6.6302
X3.7439Y-6.8902
X3.7717Y-1.9056
X3.7717Y-2.0394
X3.7717Y-2.4961
X3.7717Y-2.63
X3.7717Y-3.0867
X3.7717Y-3.2205
X3.7717Y-3.6772
X3.7717Y-3.8111
X3.7717Y-4.2678
X3.7717Y-4.4016
X3.7717Y-4.8583
X3.7717Y-4.9922
X3.7717Y-5.4489
X3.7717Y-5.5827
X3.7717Y-6.0394
X3.7717Y-6.1733
X3.7939Y-6.4102
X3.7939Y-6.6425
X3.7939Y-6.6702
X3.7939Y-6.8902
X3.8031Y-1.9685
X3.8031Y-2.1024
X3.8031Y-2.5591
X3.8031Y-2.693
X3.8031Y-3.1496
X3.8031Y-3.2835
X3.8031Y-3.7402
X3.8031Y-3.8741
X3.8031Y-4.3307
X3.8031Y-4.4646
X3.8031Y-4.9213
X3.8031Y-5.0552
X3.8031Y-5.5119
X3.8031Y-5.6457
X3.8031Y-6.1024
X3.8031Y-6.2363
X3.8438Y-6.6579
X3.8439Y-6.4115
X3.8439Y-6.6302
X3.8439Y-6.8902
X3.8939Y-6.4102
X3.8939Y-6.6425
X3.8939Y-6.6702
X3.8939Y-6.8902
X3.9435Y-6.6302
X3.9438Y-6.6579
X3.9439Y-6.4115
X3.9439Y-6.8902
X3.9606Y-1.9056
X3.9606Y-2.0394
X3.9606Y-2.4961
X3.9606Y-2.63
X3.9606Y-3.0867
X3.9606Y-3.2205
X3.9606Y-3.6772
X3.9606Y-3.8111
X3.9606Y-4.2678
X3.9606Y-4.4016
X3.9606Y-4.8583
X3.9606Y-4.9922
X3.9606Y-5.4489
X3.9606Y-5.5827
X3.9606Y-6.0394
X3.9606Y-6.1733
X3.9921Y-1.9685
X3.9921Y-2.1023
X3.9921Y-2.559
X3.9921Y-2.6929
X3.9921Y-3.1496
X3.9921Y-3.2834
X3.9921Y-3.7401
X3.9921Y-3.874
X3.9921Y-4.3307
X3.9921Y-4.4645
X3.9921Y-4.9212
X3.9921Y-5.0551
X3.9921Y-5.5118
X3.9921Y-5.6456
X3.9921Y-6.1023
X3.9921Y-6.2362
X3.9939Y-6.4102
X3.9939Y-6.6425
X3.9939Y-6.6702
X3.9939Y-6.8902
X4.0236Y-1.9056
X4.0236Y-2.0394
X4.0236Y-2.4961
X4.0236Y-2.63
X4.0236Y-3.0867
X4.0236Y-3.2205
X4.0236Y-3.6772
X4.0236Y-3.8111
X4.0236Y-4.2678
X4.0236Y-4.4016
X4.0236Y-4.8583
X4.0236Y-4.9922
X4.0236Y-5.4489
X4.0236Y-5.5827
X4.0236Y-6.0394
X4.0236Y-6.1733
X4.0438Y-6.6579
X4.0439Y-6.4115
X4.0439Y-6.6298
X4.0439Y-6.8898
X4.0551Y-1.9685
X4.0551Y-2.1023
X4.0551Y-2.559
X4.0551Y-2.6929
X4.0551Y-3.1496
X4.0551Y-3.2834
X4.0551Y-3.7401
X4.0551Y-3.874
X4.0551Y-4.3307
X4.0551Y-4.4645
X4.0551Y-4.9212
X4.0551Y-5.0551
X4.0551Y-5.5118
X4.0551Y-5.6456
X4.0551Y-6.1023
X4.0551Y-6.2362
X4.0866Y-1.9056
X4.0866Y-2.0394
X4.0866Y-2.4961
X4.0866Y-2.63
X4.0866Y-3.0867
X4.0866Y-3.2205
X4.0866Y-3.6772
X4.0866Y-3.8111
X4.0866Y-4.2678
X4.0866Y-4.4016
X4.0866Y-4.8583
X4.0866Y-4.9922
X4.0866Y-5.4489
X4.0866Y-5.5827
X4.0866Y-6.0394
X4.0866Y-6.1733
X4.0939Y-6.4102
X4.0939Y-6.6425
X4.0939Y-6.6702
X4.0939Y-6.8902
X4.1181Y-1.9685
X4.1181Y-2.1023
X4.1181Y-2.559
X4.1181Y-2.6929
X4.1181Y-3.1496
X4.1181Y-3.2834
X4.1181Y-3.7401
X4.1181Y-3.874
X4.1181Y-4.3307
X4.1181Y-4.4645
X4.1181Y-4.9212
X4.1181Y-5.0551
X4.1181Y-5.5118
X4.1181Y-5.6456
X4.1181Y-6.1023
X4.1181Y-6.2362
X4.1438Y-6.6579
X4.1439Y-6.4115
X4.1439Y-6.6302
X4.1439Y-6.8902
X4.1496Y-1.9056
X4.1496Y-2.0394
X4.1496Y-2.4961
X4.1496Y-2.63
X4.1496Y-3.0867
X4.1496Y-3.2205
X4.1496Y-3.6772
X4.1496Y-3.8111
X4.1496Y-4.2678
X4.1496Y-4.4016
X4.1496Y-4.8583
X4.1496Y-4.9922
X4.1496Y-5.4489
X4.1496Y-5.5827
X4.1496Y-6.0394
X4.1496Y-6.1733
X4.1811Y-1.9685
X4.1811Y-2.1023
X4.1811Y-2.559
X4.1811Y-2.6929
X4.1811Y-3.1496
X4.1811Y-3.2834
X4.1811Y-3.7401
X4.1811Y-3.874
X4.1811Y-4.3307
X4.1811Y-4.4645
X4.1811Y-4.9212
X4.1811Y-5.0551
X4.1811Y-5.5118
X4.1811Y-5.6456
X4.1811Y-6.1023
X4.1811Y-6.2362
X4.1939Y-6.4102
X4.1939Y-6.6425
X4.1939Y-6.6702
X4.1939Y-6.8902
X4.2126Y-1.9056
X4.2126Y-2.0394
X4.2126Y-2.4961
X4.2126Y-2.63
X4.2126Y-3.0867
X4.2126Y-3.2205
X4.2126Y-3.6772
X4.2126Y-3.8111
X4.2126Y-4.2678
X4.2126Y-4.4016
X4.2126Y-4.8583
X4.2126Y-4.9922
X4.2126Y-5.4489
X4.2126Y-5.5827
X4.2126Y-6.0394
X4.2126Y-6.1733
X4.2438Y-6.6579
X4.2439Y-6.4115
X4.2439Y-6.6302
X4.2439Y-6.8902
X4.2441Y-1.9685
X4.2441Y-2.1023
X4.2441Y-2.559
X4.2441Y-2.6929
X4.2441Y-3.1496
X4.2441Y-3.2834
X4.2441Y-3.7401
X4.2441Y-3.874
X4.2441Y-4.3307
X4.2441Y-4.4645
X4.2441Y-4.9212
X4.2441Y-5.0551
X4.2441Y-5.5118
X4.2441Y-5.6456
X4.2441Y-6.1023
X4.2441Y-6.2362
X4.2756Y-1.9056
X4.2756Y-2.0394
X4.2756Y-2.4961
X4.2756Y-2.63
X4.2756Y-3.0867
X4.2756Y-3.2205
X4.2756Y-3.6772
X4.2756Y-3.8111
X4.2756Y-4.2678
X4.2756Y-4.4016
X4.2756Y-4.8583
X4.2756Y-4.9922
X4.2756Y-5.4489
X4.2756Y-5.5827
X4.2756Y-6.0394
X4.2756Y-6.1733
X4.2939Y-6.4102
X4.2939Y-6.6425
X4.2939Y-6.6702
X4.2939Y-6.8902
X4.3071Y-1.9685
X4.3071Y-2.1023
X4.3071Y-2.559
X4.3071Y-2.6929
X4.3071Y-3.1496
X4.3071Y-3.2834
X4.3071Y-3.7401
X4.3071Y-3.874
X4.3071Y-4.3307
X4.3071Y-4.4645
X4.3071Y-4.9212
X4.3071Y-5.0551
X4.3071Y-5.5118
X4.3071Y-5.6456
X4.3071Y-6.1023
X4.3071Y-6.2362
X4.3386Y-1.9056
X4.3386Y-2.0394
X4.3386Y-2.4961
X4.3386Y-2.63
X4.3386Y-3.0867
X4.3386Y-3.2205
X4.3386Y-3.6772
X4.3386Y-3.8111
X4.3386Y-4.2678
X4.3386Y-4.4016
X4.3386Y-4.8583
X4.3386Y-4.9922
X4.3386Y-5.4489
X4.3386Y-5.5827
X4.3386Y-6.0394
X4.3386Y-6.1733
X4.3438Y-6.6579
X4.3439Y-6.4115
X4.3439Y-6.6302
X4.3439Y-6.8902
X4.3701Y-1.9685
X4.3701Y-2.1023
X4.3701Y-2.559
X4.3701Y-2.6929
X4.3701Y-3.1496
X4.3701Y-3.2834
X4.3701Y-3.7401
X4.3701Y-3.874
X4.3701Y-4.3307
X4.3701Y-4.4645
X4.3701Y-4.9212
X4.3701Y-5.0551
X4.3701Y-5.5118
X4.3701Y-5.6456
X4.3701Y-6.1023
X4.3701Y-6.2362
X4.3939Y-6.6425
X4.3939Y-6.8902
X4.3951Y-6.4105
X4.3957Y-6.6702
X4.4016Y-1.9056
X4.4016Y-2.0394
X4.4016Y-2.4961
X4.4016Y-2.63
X4.4016Y-3.0867
X4.4016Y-3.2205
X4.4016Y-3.6772
X4.4016Y-3.8111
X4.4016Y-4.2678
X4.4016Y-4.4016
X4.4016Y-4.8583
X4.4016Y-4.9922
X4.4016Y-5.4489
X4.4016Y-5.5827
X4.4016Y-6.0394
X4.4016Y-6.1733
X4.4331Y-1.9685
X4.4331Y-2.1023
X4.4331Y-2.559
X4.4331Y-2.6929
X4.4331Y-3.1496
X4.4331Y-3.2834
X4.4331Y-3.7401
X4.4331Y-3.874
X4.4331Y-4.3307
X4.4331Y-4.4645
X4.4331Y-4.9212
X4.4331Y-5.0551
X4.4331Y-5.5118
X4.4331Y-5.6456
X4.4331Y-6.1023
X4.4331Y-6.2362
X4.4438Y-6.6579
X4.4439Y-6.4115
X4.4439Y-6.6302
X4.4439Y-6.8902
X4.4646Y-1.9056
X4.4646Y-2.0394
X4.4646Y-2.4961
X4.4646Y-2.63
X4.4646Y-3.0867
X4.4646Y-3.2205
X4.4646Y-3.6772
X4.4646Y-3.8111
X4.4646Y-4.2678
X4.4646Y-4.4016
X4.4646Y-4.8583
X4.4646Y-4.9922
X4.4646Y-5.4489
X4.4646Y-5.5827
X4.4646Y-6.0394
X4.4646Y-6.1733
X4.4939Y-6.4102
X4.4939Y-6.6425
X4.4939Y-6.6702
X4.4939Y-6.8902
X4.4961Y-1.9685
X4.4961Y-2.1016
X4.4961Y-2.5591
X4.4961Y-2.6921
X4.4961Y-3.1496
X4.4961Y-3.2827
X4.4961Y-3.7402
X4.4961Y-3.8732
X4.4961Y-4.3307
X4.4961Y-4.4638
X4.4961Y-4.9213
X4.4961Y-5.0543
X4.4961Y-5.5119
X4.4961Y-5.6449
X4.4961Y-6.1024
X4.4961Y-6.2354
X4.5276Y-1.9056
X4.5276Y-2.0394
X4.5276Y-2.4961
X4.5276Y-2.63
X4.5276Y-3.0867
X4.5276Y-3.2205
X4.5276Y-3.6772
X4.5276Y-3.8111
X4.5276Y-4.2678
X4.5276Y-4.4016
X4.5276Y-4.8583
X4.5276Y-4.9922
X4.5276Y-5.4489
X4.5276Y-5.5827
X4.5276Y-6.0394
X4.5276Y-6.1733
X4.5438Y-6.6579
X4.5439Y-6.4102
X4.5439Y-6.6289
X4.5439Y-6.8889
X4.5591Y-1.9685
X4.5591Y-2.1023
X4.5591Y-2.559
X4.5591Y-2.6929
X4.5591Y-3.1496
X4.5591Y-3.2834
X4.5591Y-3.7401
X4.5591Y-3.874
X4.5591Y-4.3307
X4.5591Y-4.4645
X4.5591Y-4.9212
X4.5591Y-5.0551
X4.5591Y-5.5118
X4.5591Y-5.6456
X4.5591Y-6.1023
X4.5591Y-6.2362
X4.5906Y-1.9056
X4.5906Y-2.0394
X4.5906Y-2.4961
X4.5906Y-2.63
X4.5906Y-3.0867
X4.5906Y-3.2205
X4.5906Y-3.6772
X4.5906Y-3.8111
X4.5906Y-4.2678
X4.5906Y-4.4016
X4.5906Y-4.8583
X4.5906Y-4.9922
X4.5906Y-5.4489
X4.5906Y-5.5827
X4.5906Y-6.0394
X4.5906Y-6.1733
X4.6205Y-6.2363
X4.622Y-1.9685
X4.622Y-2.1023
X4.622Y-2.559
X4.622Y-2.6929
X4.622Y-3.1496
X4.622Y-3.2834
X4.622Y-3.7401
X4.622Y-3.874
X4.622Y-4.3307
X4.622Y-4.4645
X4.622Y-4.9212
X4.622Y-5.0551
X4.622Y-5.5118
X4.622Y-5.6456
X4.622Y-6.1023
X4.63Y-6.51
X4.63Y-6.54
X4.63Y-6.76
X4.63Y-6.79
X4.6535Y-1.9056
X4.6535Y-2.0394
X4.6535Y-2.4961
X4.6535Y-2.63
X4.6535Y-3.0867
X4.6535Y-3.2205
X4.6535Y-3.6772
X4.6535Y-3.8111
X4.6535Y-4.2678
X4.6535Y-4.4016
X4.6535Y-4.8583
X4.6535Y-4.9922
X4.6535Y-5.4489
X4.6535Y-5.5827
X4.6535Y-6.0394
X4.6535Y-6.1733
X4.685Y-1.9685
X4.685Y-2.1023
X4.685Y-2.559
X4.685Y-2.6929
X4.685Y-3.1496
X4.685Y-3.2834
X4.685Y-3.7401
X4.685Y-3.874
X4.685Y-4.3307
X4.685Y-4.4645
X4.685Y-4.9212
X4.685Y-5.0551
X4.685Y-5.5118
X4.685Y-5.6456
X4.685Y-6.1023
X4.6851Y-6.2361
X4.705Y-6.385
X4.7165Y-1.9056
X4.7165Y-2.0394
X4.7165Y-2.4961
X4.7165Y-2.63
X4.7165Y-3.0867
X4.7165Y-3.2205
X4.7165Y-3.6772
X4.7165Y-3.8111
X4.7165Y-4.2678
X4.7165Y-4.4016
X4.7165Y-4.8583
X4.7165Y-4.9922
X4.7165Y-5.4489
X4.7165Y-5.5827
X4.7165Y-6.0394
X4.7165Y-6.1733
X4.748Y-1.9685
X4.748Y-2.1023
X4.748Y-2.559
X4.748Y-2.6929
X4.748Y-3.1496
X4.748Y-3.2834
X4.748Y-3.7401
X4.748Y-3.874
X4.748Y-4.3307
X4.748Y-4.4645
X4.748Y-4.9212
X4.748Y-5.0551
X4.748Y-5.5118
X4.748Y-5.6456
X4.748Y-6.1023
X4.748Y-6.2362
X4.7795Y-1.9056
X4.7795Y-2.0394
X4.7795Y-2.4961
X4.7795Y-2.63
X4.7795Y-3.0867
X4.7795Y-3.2205
X4.7795Y-3.6772
X4.7795Y-3.8111
X4.7795Y-4.2678
X4.7795Y-4.4016
X4.7795Y-4.8583
X4.7795Y-4.9922
X4.7795Y-5.4489
X4.7795Y-5.5827
X4.7795Y-6.0394
X4.7795Y-6.1733
X4.7795Y-6.2676
X4.811Y-1.9685
X4.811Y-2.1023
X4.811Y-2.559
X4.811Y-2.6929
X4.811Y-3.1496
X4.811Y-3.2834
X4.811Y-3.7401
X4.811Y-3.874
X4.811Y-4.3307
X4.811Y-4.4645
X4.811Y-4.9212
X4.811Y-5.0551
X4.811Y-5.5118
X4.811Y-5.6456
X4.811Y-6.1023
X4.811Y-6.2362
X4.8584Y-6.4786
X4.8584Y-6.502
X4.8584Y-6.5574
X4.8584Y-6.5808
X4.87Y-2.415
X4.87Y-2.4667
X4.8786Y-6.0683
X4.8873Y-6.4392
X4.8873Y-6.4626
X4.8873Y-6.518
X4.8873Y-6.5414
X4.9517Y-4.1732
X4.9517Y-6.8602
X4.9565Y-1.6064
X4.9903Y-2.968
X4.9903Y-2.9914
X4.9903Y-3.558
X4.9903Y-3.5814
X4.9903Y-4.738
X4.9903Y-4.7614
X4.9903Y-5.334
X4.9903Y-5.3574
X5.0129Y-2.4955
X5.0129Y-6.0388
X5.0275Y-4.1732
X5.0275Y-6.8602
X5.0323Y-1.6064
X5.0363Y-2.4955
X5.0363Y-6.0388
X5.0523Y-2.4667
X5.0523Y-6.0099
X5.0757Y-2.4667
X5.0757Y-6.0099
X5.1033Y-2.525
X5.1033Y-6.0683
X5.131Y-2.4667
X5.131Y-6.0099
X5.1544Y-2.4667
X5.1544Y-6.0099
X5.1704Y-2.4955
X5.1704Y-6.0388
X5.1938Y-2.4955
X5.1938Y-6.0388
X5.208Y-6.5531
X5.208Y-6.628
X5.2098Y-2.4667
X5.2098Y-6.0099
X5.2332Y-2.4667
X5.2332Y-6.0099
X5.285Y-6.495
T2
X4.73Y-6.525
X4.73Y-6.775
T3
X2.4409Y-1.6102
X2.4409Y-4.1693
X2.4409Y-6.8071
X5.1969Y-1.6102
X5.1969Y-4.1693
X5.1969Y-6.8071
T0
M30
