M48
INCH,TZ
T1C0.0354
T2C0.0500
%
G90
G05
T1
X45049Y-65888
X47726Y-65888
X49799Y-65888
X52476Y-65888
X54549Y-65888
X57226Y-65888
X59299Y-65888
X61976Y-65888
X64049Y-65888
X66726Y-65888
X68799Y-65888
X71476Y-65888
X73549Y-65888
X76226Y-65888
X78299Y-65888
X80976Y-65888
X83049Y-65888
X85726Y-65888
T2
X104800Y-35531
X105391Y-56555
T0
M30
