M48
INCH,TZ
T1C0.0079
T2C0.0360
T3C0.0394
T4C0.1260
%
G90
G05
T1
X40681Y-18990
X40681Y-20180
X40681Y-21380
X40911Y-21800
X41181Y-18990
X41181Y-20180
X41181Y-21380
X41409Y-21801
X41681Y-18990
X41681Y-20180
X41681Y-21380
X41726Y-51552
X41911Y-21800
X42181Y-18990
X42181Y-20180
X42181Y-21380
X42394Y-57559
X42411Y-21800
X42681Y-18990
X42681Y-20180
X42681Y-21380
X42911Y-21800
X43100Y-39800
X43181Y-18990
X43181Y-20180
X43181Y-21380
X43250Y-47250
X43300Y-57600
X43411Y-21800
X43500Y-40100
X43667Y-51099
X43681Y-18990
X43681Y-20180
X43681Y-21380
X43714Y-50022
X43911Y-21800
X44181Y-18990
X44181Y-20180
X44181Y-21380
X44411Y-21800
X44681Y-18990
X44681Y-20180
X44681Y-21380
X44911Y-21800
X45181Y-18990
X45181Y-20180
X45181Y-21380
X45411Y-21800
X45681Y-18990
X45681Y-20180
X45681Y-21380
X45843Y-63060
X45911Y-21800
X46181Y-18990
X46181Y-20180
X46181Y-21380
X46411Y-21800
X46450Y-69150
X46681Y-18990
X46681Y-20180
X46681Y-21380
X46911Y-21800
X47181Y-18990
X47181Y-20180
X47181Y-21380
X47411Y-21800
X47681Y-18990
X47681Y-20180
X47681Y-21380
X47911Y-21800
X48181Y-18990
X48181Y-20180
X48181Y-21380
X48393Y-69193
X48411Y-21800
X48681Y-18990
X48681Y-20180
X48681Y-21380
X48911Y-21800
X49181Y-18990
X49181Y-20180
X49181Y-21380
X49411Y-21800
X49681Y-18990
X49681Y-20180
X49681Y-21380
X49911Y-21800
X50050Y-70150
X50181Y-18990
X50181Y-20180
X50181Y-21380
X50400Y-69200
X50411Y-21800
X50681Y-18990
X50681Y-20180
X50681Y-21380
X50911Y-21800
X51181Y-18990
X51181Y-20180
X51181Y-21380
X51411Y-21800
X51681Y-19000
X51681Y-20190
X51681Y-21390
X51911Y-21810
X52181Y-19000
X52181Y-20190
X52181Y-21390
X52411Y-21810
X52450Y-69200
X52681Y-19000
X52681Y-20190
X52681Y-21390
X52911Y-21810
X53181Y-19000
X53181Y-20190
X53181Y-21390
X53411Y-21810
X53681Y-19000
X53681Y-20190
X53681Y-21390
X53911Y-21810
X54050Y-70150
X54181Y-18990
X54181Y-20180
X54181Y-21380
X54411Y-21800
X54450Y-69200
X54681Y-18990
X54681Y-20180
X54681Y-21380
X54911Y-21800
X55181Y-18990
X55181Y-20180
X55181Y-21380
X55411Y-21800
X56400Y-69200
X58050Y-70150
X58450Y-69200
X60450Y-69200
X62050Y-70150
X62400Y-69200
X63300Y-69550
X63400Y-70850
X64750Y-70950
X65000Y-66950
X65022Y-69717
X66467Y-71262
X66850Y-64800
X67414Y-69484
X68432Y-71362
X69294Y-69416
X69650Y-66950
X70467Y-71262
X71214Y-69416
X71600Y-64800
X72367Y-71362
X73214Y-69416
X74400Y-66950
X74439Y-71262
X75168Y-69416
X76300Y-64800
X76800Y-69400
X77493Y-69843
X78450Y-69200
X79593Y-69843
X80100Y-66950
X80400Y-69200
X81050Y-64800
X81543Y-69843
X82277Y-32155
X82277Y-34150
X82277Y-36150
X82277Y-38150
X82277Y-40150
X82277Y-42150
X82277Y-44150
X82277Y-46150
X82277Y-48150
X82277Y-50150
X82277Y-52150
X82277Y-54150
X82277Y-56150
X82277Y-58200
X82277Y-60150
X82450Y-69200
X83325Y-69525
X83475Y-33155
X83475Y-35150
X83475Y-37150
X83475Y-39150
X83475Y-41150
X83475Y-43150
X83475Y-45150
X83475Y-47150
X83475Y-49150
X83475Y-51150
X83475Y-53150
X83475Y-55150
X83475Y-57150
X83475Y-59200
X83475Y-61150
X84400Y-69200
X84507Y-32165
X84507Y-34160
X84507Y-36160
X84507Y-38160
X84507Y-40160
X84507Y-42160
X84507Y-44160
X84507Y-46160
X84507Y-48160
X84507Y-50160
X84507Y-52160
X84507Y-54160
X84507Y-56160
X84507Y-58210
X84507Y-60160
X84900Y-66950
X85301Y-69499
X85698Y-33172
X85705Y-35160
X85705Y-37160
X85705Y-39160
X85705Y-41160
X85705Y-43160
X85705Y-45160
X85705Y-47160
X85705Y-49160
X85705Y-51160
X85705Y-53160
X85705Y-55160
X85705Y-57160
X85705Y-59210
X85705Y-61160
X85800Y-64800
X86400Y-69200
X87325Y-69525
X88400Y-69200
X90450Y-69200
X92350Y-69200
X94311Y-32155
X94311Y-34150
X94311Y-36150
X94311Y-38150
X94311Y-40150
X94311Y-42150
X94311Y-44150
X94311Y-46150
X94311Y-48150
X94311Y-50150
X94311Y-52150
X94311Y-54150
X94311Y-56150
X94311Y-58200
X94311Y-60150
X94950Y-70400
X95050Y-63500
X95050Y-67000
X95509Y-33155
X95509Y-35150
X95509Y-37150
X95509Y-39150
X95509Y-41150
X95509Y-43150
X95509Y-45150
X95509Y-47150
X95509Y-49150
X95509Y-51150
X95509Y-53150
X95509Y-55150
X95509Y-57150
X95509Y-59200
X95509Y-61150
X95950Y-70400
X96050Y-63500
X96050Y-67000
X96532Y-32155
X96532Y-34150
X96532Y-36150
X96532Y-38150
X96532Y-40150
X96532Y-42150
X96532Y-44150
X96532Y-46150
X96532Y-48150
X96532Y-50150
X96532Y-52150
X96532Y-54150
X96532Y-56150
X96532Y-58200
X96532Y-60150
X96950Y-70400
X97050Y-63500
X97050Y-67000
X97737Y-33155
X97737Y-35150
X97737Y-37150
X97737Y-39150
X97737Y-41150
X97737Y-43150
X97737Y-45150
X97737Y-47150
X97737Y-49150
X97737Y-51150
X97737Y-53150
X97737Y-55150
X97737Y-57150
X97737Y-59200
X97737Y-61150
X97950Y-70400
X98050Y-63500
X98050Y-67000
X100500Y-70500
X102800Y-69400
X103737Y-36437
X103737Y-37067
X103737Y-37697
X103737Y-38327
X103737Y-38957
X103737Y-39587
X103737Y-40217
X103737Y-40846
X103737Y-41476
X103737Y-42106
X103737Y-42736
X103737Y-43366
X103737Y-43996
X103737Y-44626
X103737Y-46516
X103737Y-47146
X103737Y-47776
X103737Y-48406
X103737Y-49035
X103737Y-49665
X103737Y-50295
X103737Y-50925
X103737Y-51555
X103737Y-52185
X103737Y-52815
X103737Y-53445
X103737Y-54075
X103737Y-54705
X103737Y-55335
X103737Y-55965
X104524Y-36122
X104524Y-36752
X104524Y-37382
X104524Y-38012
X104524Y-38642
X104524Y-39272
X104524Y-39902
X104524Y-40531
X104524Y-41161
X104524Y-41791
X104524Y-42421
X104524Y-43051
X104524Y-43681
X104524Y-44311
X104524Y-46201
X104524Y-46831
X104524Y-47461
X104524Y-48091
X104524Y-48720
X104524Y-49350
X104524Y-49980
X104524Y-50610
X104524Y-51240
X104524Y-51870
X104524Y-52500
X104524Y-53130
X104524Y-53760
X104524Y-54390
X104524Y-55020
X104524Y-55650
X105076Y-36437
X105076Y-37067
X105076Y-37697
X105076Y-38327
X105076Y-38957
X105076Y-39587
X105076Y-40217
X105076Y-40846
X105076Y-41476
X105076Y-42106
X105076Y-42736
X105076Y-43366
X105076Y-43996
X105076Y-44626
X105076Y-46516
X105076Y-47146
X105076Y-47776
X105076Y-48406
X105076Y-49035
X105076Y-49665
X105076Y-50295
X105076Y-50925
X105076Y-51555
X105076Y-52185
X105076Y-52815
X105076Y-53445
X105076Y-54075
X105076Y-54705
X105076Y-55335
X105076Y-55965
X105863Y-36122
X105863Y-36752
X105863Y-37382
X105863Y-38012
X105863Y-38642
X105863Y-39272
X105863Y-39902
X105863Y-40531
X105863Y-41161
X105863Y-41791
X105863Y-42421
X105863Y-43051
X105863Y-43681
X105863Y-44311
X105863Y-46201
X105863Y-46831
X105863Y-47461
X105863Y-48091
X105863Y-48720
X105863Y-49350
X105863Y-49980
X105863Y-50610
X105863Y-51240
X105863Y-51870
X105863Y-52500
X105863Y-53130
X105863Y-53760
X105863Y-54390
X105863Y-55020
X105863Y-55650
X106800Y-70450
X110400Y-70350
T2
X44500Y-32998
X44500Y-37998
X44500Y-43998
X44500Y-49998
X44500Y-55998
X44500Y-61498
X46000Y-32998
X46000Y-37998
X46000Y-43998
X46000Y-49998
X46000Y-55998
X46000Y-61500
X47500Y-32998
X47500Y-37998
X47500Y-43998
X47500Y-49998
X47500Y-55998
X47500Y-61500
X49000Y-32998
X49000Y-37998
X49000Y-43998
X49000Y-49998
X49000Y-55998
X49000Y-61500
X50500Y-32998
X50500Y-37998
X50500Y-43998
X50500Y-49998
X50500Y-55998
X50500Y-61500
X52000Y-32998
X52000Y-37998
X52000Y-43998
X52000Y-49998
X52000Y-55998
X52000Y-61500
X53500Y-37998
X53500Y-43998
X53500Y-49998
X53500Y-55998
X53500Y-61500
X53593Y-32998
X55000Y-37998
X55000Y-43998
X55000Y-49998
X55000Y-55998
X55000Y-61500
X55093Y-32998
X56500Y-37998
X56500Y-43998
X56500Y-49998
X56500Y-55998
X56500Y-61500
X56593Y-32998
X58000Y-37998
X58000Y-43998
X58000Y-49998
X58000Y-55998
X58000Y-61500
X58093Y-32998
X59500Y-32998
X59500Y-37998
X59500Y-43998
X59500Y-49998
X59500Y-55998
X59500Y-61500
X61000Y-32998
X61000Y-37998
X61000Y-43998
X61000Y-49998
X61000Y-55998
X61000Y-61500
X62500Y-32998
X62500Y-37998
X62500Y-43998
X62500Y-49998
X62500Y-55998
X62500Y-61500
X64000Y-32998
X64000Y-37998
X64000Y-43998
X64000Y-49998
X64000Y-55998
X64000Y-61500
X65500Y-32998
X65500Y-37998
X65500Y-43998
X65500Y-49998
X65500Y-55998
X65500Y-61500
X67000Y-32998
X67000Y-37998
X67000Y-43998
X67000Y-49998
X67000Y-55998
X67000Y-61500
X68500Y-32998
X68500Y-37998
X68500Y-43998
X68500Y-49998
X68500Y-55998
X68500Y-61500
X70000Y-32998
X70000Y-37998
X70000Y-43998
X70000Y-49998
X70000Y-55998
X70000Y-61500
X71500Y-32998
X71500Y-37998
X71500Y-43998
X71500Y-49998
X71500Y-55998
X71500Y-61500
X73000Y-32998
X73000Y-37998
X73000Y-43998
X73000Y-49998
X73000Y-55998
X73000Y-61500
T3
X112827Y-33972
X112827Y-34972
X112827Y-35972
X112827Y-36972
X112827Y-37972
X112827Y-38972
X112827Y-39972
X112827Y-40972
X112827Y-41972
X112827Y-42972
X112827Y-43972
X112827Y-44972
X112827Y-45972
X112827Y-46972
X112827Y-47972
X112827Y-48972
X112827Y-49972
X112827Y-50972
X112827Y-51972
X112827Y-52972
X112827Y-53972
X112827Y-54972
X112827Y-55972
X112827Y-56972
X112827Y-57972
X112827Y-58972
X113827Y-33972
X113827Y-34972
X113827Y-35972
X113827Y-36972
X113827Y-37972
X113827Y-38972
X113827Y-39972
X113827Y-40972
X113827Y-41972
X113827Y-42972
X113827Y-43972
X113827Y-44972
X113827Y-45972
X113827Y-46972
X113827Y-47972
X113827Y-48972
X113827Y-49972
X113827Y-50972
X113827Y-51972
X113827Y-52972
X113827Y-53972
X113827Y-54972
X113827Y-55972
X113827Y-56972
X113827Y-57972
X113827Y-58972
X114826Y-33972
X114826Y-34972
X114826Y-35972
X114826Y-36972
X114826Y-37972
X114826Y-38972
X114826Y-39972
X114826Y-40972
X114826Y-41972
X114826Y-42972
X114826Y-43972
X114826Y-44972
X114826Y-45972
X114826Y-46972
X114826Y-47972
X114826Y-48972
X114826Y-49972
X114826Y-50972
X114826Y-51972
X114826Y-52972
X114826Y-53972
X114826Y-54972
X114826Y-55972
X114826Y-56972
X114826Y-57972
X114826Y-58972
X115826Y-33972
X115826Y-34972
X115826Y-35972
X115826Y-36972
X115826Y-37972
X115826Y-38972
X115826Y-39972
X115826Y-40972
X115826Y-41972
X115826Y-42972
X115826Y-43972
X115826Y-44972
X115826Y-45972
X115826Y-46972
X115826Y-47972
X115826Y-48972
X115826Y-49972
X115826Y-50972
X115826Y-51972
X115826Y-52972
X115826Y-53972
X115826Y-54972
X115826Y-55972
X115826Y-56972
X115826Y-57972
X115826Y-58972
T4
X42200Y-28250
X42200Y-49250
X42300Y-70646
X77250Y-61750
X93750Y-25000
X114658Y-25000
X114658Y-70496
T0
M30
