M48
INCH,TZ
T1C0.0079
T2C0.0157
T3C0.0984
%
G90
G05
T1
X23301Y-63925
X23301Y-65047
X23822Y-16947
X23822Y-17705
X24511Y-66278
X24950Y-53920
X25553Y-21717
X25553Y-27622
X25553Y-39433
X25553Y-45339
X25553Y-51244
X25553Y-57150
X25553Y-63055
X25554Y-27170
X25556Y-21264
X25556Y-33075
X25556Y-38980
X25556Y-44886
X25556Y-50791
X25556Y-56697
X25556Y-62602
X25561Y-33528
X25761Y-41691
X25761Y-68069
X25940Y-53930
X26086Y-66278
X26370Y-65530
X26486Y-16732
X26519Y-41691
X26519Y-68069
X26549Y-16977
X26614Y-17205
X26691Y-17430
X26750Y-16531
X26775Y-17652
X27050Y-15950
X27089Y-17913
X27200Y-15650
X27257Y-16243
X27336Y-21264
X27336Y-27170
X27336Y-33075
X27336Y-38980
X27336Y-44886
X27336Y-50791
X27336Y-56697
X27336Y-62602
X27341Y-21717
X27341Y-57150
X27343Y-27622
X27343Y-33528
X27343Y-39433
X27343Y-45339
X27343Y-51244
X27343Y-63055
X27404Y-18161
X27627Y-18277
X27687Y-66171
X27697Y-65679
X27697Y-66663
X27697Y-67156
X27964Y-18220
X28167Y-19368
X28245Y-18168
X28300Y-15650
X28429Y-20392
X28429Y-24959
X28429Y-26298
X28429Y-30865
X28429Y-32203
X28429Y-36770
X28429Y-38109
X28429Y-42676
X28429Y-42676
X28429Y-44014
X28429Y-44014
X28429Y-48581
X28429Y-49920
X28429Y-54487
X28429Y-55825
X28429Y-60392
X28429Y-61731
X28514Y-18150
X28740Y-17697
X28744Y-19683
X28744Y-21021
X28744Y-25588
X28744Y-26927
X28744Y-31494
X28744Y-32832
X28744Y-37399
X28744Y-38738
X28744Y-43305
X28744Y-44643
X28744Y-49210
X28744Y-50549
X28744Y-55116
X28744Y-56454
X28744Y-61021
X28744Y-62360
X29059Y-20392
X29059Y-24959
X29059Y-26298
X29059Y-30865
X29059Y-32203
X29059Y-36770
X29059Y-38109
X29059Y-42676
X29059Y-44014
X29059Y-48581
X29059Y-49920
X29059Y-54487
X29059Y-55825
X29059Y-60392
X29059Y-61731
X29059Y-19057
X29087Y-17606
X29145Y-17292
X29156Y-17024
X29183Y-16742
X29374Y-19683
X29374Y-21021
X29374Y-25588
X29374Y-26927
X29374Y-31494
X29374Y-32832
X29374Y-37399
X29374Y-38738
X29374Y-43305
X29374Y-44643
X29374Y-49210
X29374Y-50549
X29374Y-55116
X29374Y-56454
X29374Y-61021
X29374Y-62360
X29491Y-16769
X29567Y-17280
X29567Y-17009
X29572Y-17542
X29689Y-19054
X29689Y-20392
X29689Y-24959
X29689Y-26298
X29689Y-30865
X29689Y-32203
X29689Y-36770
X29689Y-38109
X29689Y-42676
X29689Y-44014
X29689Y-48581
X29689Y-49920
X29689Y-54487
X29689Y-55825
X29689Y-60392
X29689Y-61731
X29817Y-16383
X29929Y-17805
X30000Y-15650
X30004Y-19683
X30004Y-21021
X30004Y-25588
X30004Y-26927
X30004Y-31494
X30004Y-32832
X30004Y-37399
X30004Y-38738
X30004Y-43305
X30004Y-44643
X30004Y-49210
X30004Y-50549
X30004Y-55116
X30004Y-56454
X30004Y-61021
X30004Y-62360
X30048Y-18010
X30057Y-16243
X30057Y-16243
X30245Y-18143
X30319Y-19054
X30319Y-20392
X30319Y-24959
X30319Y-26298
X30319Y-30865
X30319Y-32203
X30319Y-36770
X30319Y-38109
X30319Y-42676
X30319Y-44014
X30319Y-48581
X30319Y-49920
X30319Y-54487
X30319Y-55825
X30319Y-60392
X30319Y-61731
X30552Y-18151
X30633Y-19683
X30633Y-21021
X30633Y-25588
X30633Y-26927
X30633Y-31494
X30633Y-32832
X30633Y-37399
X30633Y-38738
X30633Y-43305
X30633Y-44643
X30633Y-49210
X30633Y-50549
X30633Y-55116
X30633Y-56454
X30633Y-61021
X30633Y-62360
X30948Y-19054
X30948Y-20392
X30948Y-24959
X30948Y-26298
X30948Y-30865
X30948Y-32203
X30948Y-36770
X30948Y-38109
X30948Y-42676
X30948Y-44014
X30948Y-48581
X30948Y-49920
X30948Y-54487
X30948Y-55825
X30948Y-60392
X30948Y-61731
X31100Y-15650
X31100Y-64113
X31100Y-66423
X31100Y-66713
X31100Y-68900
X31254Y-62360
X31263Y-19683
X31263Y-21021
X31263Y-25588
X31263Y-26927
X31263Y-31494
X31263Y-32832
X31263Y-37399
X31263Y-38738
X31263Y-43305
X31263Y-44643
X31263Y-49210
X31263Y-50549
X31263Y-55116
X31263Y-56454
X31263Y-61021
X31578Y-19054
X31578Y-20392
X31578Y-24959
X31578Y-26298
X31578Y-30865
X31578Y-32203
X31578Y-36770
X31578Y-38109
X31578Y-42676
X31578Y-44014
X31578Y-48581
X31578Y-49920
X31578Y-54487
X31578Y-55825
X31578Y-60392
X31578Y-61731
X31599Y-66577
X31600Y-64113
X31600Y-66300
X31600Y-68900
X31893Y-19683
X31893Y-21021
X31893Y-25588
X31893Y-26927
X31893Y-31494
X31893Y-32832
X31893Y-37399
X31893Y-38738
X31893Y-43305
X31893Y-44643
X31893Y-49210
X31893Y-50549
X31893Y-55116
X31893Y-56454
X31893Y-61021
X31893Y-62360
X32100Y-64100
X32100Y-66423
X32100Y-66700
X32100Y-68900
X32208Y-19054
X32208Y-20392
X32208Y-24959
X32208Y-26298
X32208Y-30865
X32208Y-32203
X32208Y-36770
X32208Y-38109
X32208Y-42676
X32208Y-44014
X32208Y-48581
X32208Y-49920
X32208Y-54487
X32208Y-55825
X32208Y-60392
X32208Y-61731
X32513Y-62360
X32523Y-19683
X32523Y-21021
X32523Y-25588
X32523Y-26927
X32523Y-31494
X32523Y-32832
X32523Y-37399
X32523Y-38738
X32523Y-43305
X32523Y-44643
X32523Y-49210
X32523Y-50549
X32523Y-55116
X32523Y-56454
X32523Y-61021
X32599Y-66577
X32600Y-64113
X32600Y-66300
X32600Y-68900
X32838Y-19054
X32838Y-20392
X32838Y-24959
X32838Y-26298
X32838Y-30865
X32838Y-32203
X32838Y-36770
X32838Y-38109
X32838Y-42676
X32838Y-44014
X32838Y-48581
X32838Y-49920
X32838Y-54487
X32838Y-55825
X32838Y-60392
X32838Y-61731
X33100Y-64100
X33100Y-66423
X33100Y-66700
X33100Y-68900
X33153Y-19683
X33153Y-21021
X33153Y-25588
X33153Y-26927
X33153Y-31494
X33153Y-32832
X33153Y-37399
X33153Y-38738
X33153Y-43305
X33153Y-44643
X33153Y-49210
X33153Y-50549
X33153Y-55116
X33153Y-56454
X33153Y-61021
X33153Y-62360
X33200Y-16650
X33200Y-18270
X33450Y-15100
X33468Y-19054
X33468Y-20392
X33468Y-24959
X33468Y-26298
X33468Y-30865
X33468Y-32203
X33468Y-36770
X33468Y-38109
X33468Y-42676
X33468Y-44014
X33468Y-48581
X33468Y-49920
X33468Y-54487
X33468Y-55825
X33468Y-60392
X33468Y-61731
X33599Y-66577
X33600Y-64113
X33600Y-66300
X33600Y-68900
X33773Y-62360
X33783Y-19683
X33783Y-21021
X33783Y-25588
X33783Y-26927
X33783Y-31494
X33783Y-32832
X33783Y-37399
X33783Y-38738
X33783Y-43305
X33783Y-44643
X33783Y-49210
X33783Y-50549
X33783Y-55116
X33783Y-56454
X33783Y-61021
X34098Y-19054
X34098Y-20392
X34098Y-24959
X34098Y-26298
X34098Y-30865
X34098Y-32203
X34098Y-36770
X34098Y-38109
X34098Y-42676
X34098Y-44014
X34098Y-48581
X34098Y-49920
X34098Y-54487
X34098Y-55825
X34098Y-60392
X34098Y-61731
X34100Y-64100
X34100Y-66423
X34100Y-66700
X34100Y-68900
X34300Y-16644
X34300Y-18270
X34413Y-19683
X34413Y-21021
X34413Y-25588
X34413Y-26927
X34413Y-31494
X34413Y-32832
X34413Y-37399
X34413Y-38738
X34413Y-43305
X34413Y-44643
X34413Y-49210
X34413Y-50549
X34413Y-55116
X34413Y-56454
X34413Y-61021
X34413Y-62360
X34550Y-15100
X34599Y-66577
X34600Y-64113
X34600Y-66300
X34600Y-68900
X34728Y-19054
X34728Y-20392
X34728Y-24959
X34728Y-26298
X34728Y-30865
X34728Y-32203
X34728Y-36770
X34728Y-38109
X34728Y-42676
X34728Y-44014
X34728Y-48581
X34728Y-49920
X34728Y-54487
X34728Y-55825
X34728Y-60392
X34728Y-61731
X35033Y-62360
X35043Y-19683
X35043Y-21021
X35043Y-25588
X35043Y-26927
X35043Y-31494
X35043Y-32832
X35043Y-37399
X35043Y-38738
X35043Y-43305
X35043Y-44643
X35043Y-49210
X35043Y-50549
X35043Y-55116
X35043Y-56454
X35043Y-61021
X35100Y-64100
X35100Y-66423
X35100Y-66700
X35100Y-68900
X35358Y-19054
X35358Y-20392
X35358Y-24959
X35358Y-26298
X35358Y-30865
X35358Y-32203
X35358Y-36770
X35358Y-38109
X35358Y-42676
X35358Y-44014
X35358Y-48581
X35358Y-49920
X35358Y-54487
X35358Y-55825
X35358Y-60392
X35358Y-61731
X35400Y-16644
X35400Y-18270
X35599Y-66577
X35600Y-64113
X35600Y-66300
X35600Y-68900
X35650Y-15100
X35673Y-19683
X35673Y-21021
X35673Y-25588
X35673Y-26927
X35673Y-31494
X35673Y-32832
X35673Y-37399
X35673Y-38738
X35673Y-43305
X35673Y-44643
X35673Y-49210
X35673Y-50549
X35673Y-55116
X35673Y-56454
X35673Y-61021
X35673Y-62360
X35988Y-19054
X35988Y-20392
X35988Y-24959
X35988Y-26298
X35988Y-30865
X35988Y-32203
X35988Y-36770
X35988Y-38109
X35988Y-42676
X35988Y-44014
X35988Y-48581
X35988Y-49920
X35988Y-54487
X35988Y-55825
X35988Y-60392
X35988Y-61731
X36100Y-64104
X36100Y-66423
X36100Y-66704
X36100Y-68900
X36244Y-15856
X36303Y-19683
X36303Y-21021
X36303Y-25588
X36303Y-26927
X36303Y-31494
X36303Y-32832
X36303Y-37399
X36303Y-38738
X36303Y-43305
X36303Y-44643
X36303Y-49210
X36303Y-50549
X36303Y-55116
X36303Y-56454
X36303Y-61021
X36303Y-62360
X36500Y-15550
X36500Y-16637
X36599Y-66577
X36600Y-64113
X36600Y-66300
X36600Y-68900
X36618Y-19054
X36618Y-20392
X36618Y-24959
X36618Y-26298
X36618Y-30865
X36618Y-32203
X36618Y-36770
X36618Y-38109
X36618Y-42676
X36618Y-44014
X36618Y-48581
X36618Y-49920
X36618Y-54487
X36618Y-55825
X36618Y-60392
X36618Y-61731
X36933Y-19683
X36933Y-21022
X36933Y-25588
X36933Y-26928
X36933Y-31494
X36933Y-32833
X36933Y-37399
X36933Y-38739
X36933Y-43305
X36933Y-44644
X36933Y-49210
X36933Y-50550
X36933Y-55116
X36933Y-56455
X36933Y-61021
X36933Y-62361
X37100Y-64100
X37100Y-66423
X37100Y-66700
X37100Y-68900
X37248Y-19054
X37248Y-20392
X37248Y-24959
X37248Y-26298
X37248Y-30865
X37248Y-32203
X37248Y-36770
X37248Y-38109
X37248Y-42676
X37248Y-44014
X37248Y-48581
X37248Y-49920
X37248Y-54487
X37248Y-55825
X37248Y-60392
X37248Y-61731
X37300Y-15550
X37563Y-19683
X37563Y-21022
X37563Y-25589
X37563Y-26928
X37563Y-31494
X37563Y-32833
X37563Y-37400
X37563Y-38739
X37563Y-43306
X37563Y-44644
X37563Y-49211
X37563Y-50550
X37563Y-55117
X37563Y-56455
X37563Y-61022
X37563Y-62361
X37599Y-66577
X37600Y-64113
X37600Y-66300
X37600Y-68900
X37878Y-19054
X37878Y-20392
X37878Y-24959
X37878Y-26298
X37878Y-30865
X37878Y-32203
X37878Y-36770
X37878Y-38109
X37878Y-42676
X37878Y-44014
X37878Y-48581
X37878Y-49920
X37878Y-54487
X37878Y-55825
X37878Y-60392
X37878Y-61731
X38100Y-64100
X38100Y-66423
X38100Y-66700
X38100Y-68900
X38193Y-19683
X38193Y-21022
X38193Y-25589
X38193Y-26928
X38193Y-31494
X38193Y-32833
X38193Y-37400
X38193Y-38739
X38193Y-43306
X38193Y-44644
X38193Y-49211
X38193Y-50550
X38193Y-55117
X38193Y-56455
X38193Y-61022
X38193Y-62361
X38599Y-66577
X38600Y-64113
X38600Y-66300
X38600Y-68900
X39100Y-64100
X39100Y-66423
X39100Y-66700
X39100Y-68900
X39596Y-66300
X39599Y-66577
X39600Y-64113
X39600Y-68900
X39767Y-19054
X39767Y-20392
X39767Y-24959
X39767Y-26298
X39767Y-30865
X39767Y-32203
X39767Y-36770
X39767Y-38109
X39767Y-42676
X39767Y-44014
X39767Y-48581
X39767Y-49920
X39767Y-54487
X39767Y-55825
X39767Y-60392
X39767Y-61731
X40082Y-19683
X40082Y-21021
X40082Y-25588
X40082Y-26927
X40082Y-31494
X40082Y-32832
X40082Y-37399
X40082Y-38738
X40082Y-43305
X40082Y-44643
X40082Y-49210
X40082Y-50549
X40082Y-55116
X40082Y-56454
X40082Y-61021
X40082Y-62360
X40100Y-64100
X40100Y-66423
X40100Y-66700
X40100Y-68900
X40397Y-19054
X40397Y-20392
X40397Y-24959
X40397Y-26298
X40397Y-30865
X40397Y-32203
X40397Y-36770
X40397Y-38109
X40397Y-42676
X40397Y-44014
X40397Y-48581
X40397Y-49920
X40397Y-54487
X40397Y-55825
X40397Y-60392
X40397Y-61731
X40599Y-66577
X40600Y-64113
X40600Y-66296
X40600Y-68896
X40712Y-19683
X40712Y-21021
X40712Y-25588
X40712Y-26927
X40712Y-31494
X40712Y-32832
X40712Y-37399
X40712Y-38738
X40712Y-43305
X40712Y-44643
X40712Y-49210
X40712Y-50549
X40712Y-55116
X40712Y-56454
X40712Y-61021
X40712Y-62360
X41027Y-19054
X41027Y-20392
X41027Y-24959
X41027Y-26298
X41027Y-30865
X41027Y-32203
X41027Y-36770
X41027Y-38109
X41027Y-42676
X41027Y-44014
X41027Y-48581
X41027Y-49920
X41027Y-54487
X41027Y-55825
X41027Y-60392
X41027Y-61731
X41100Y-64100
X41100Y-66423
X41100Y-66700
X41100Y-68900
X41342Y-19683
X41342Y-21021
X41342Y-25588
X41342Y-26927
X41342Y-31494
X41342Y-32832
X41342Y-37399
X41342Y-38738
X41342Y-43305
X41342Y-44643
X41342Y-49210
X41342Y-50549
X41342Y-55116
X41342Y-56454
X41342Y-61021
X41342Y-62360
X41599Y-66577
X41600Y-64113
X41600Y-66300
X41600Y-68900
X41657Y-19054
X41657Y-20392
X41657Y-24959
X41657Y-26298
X41657Y-30865
X41657Y-32203
X41657Y-36770
X41657Y-38109
X41657Y-42676
X41657Y-44014
X41657Y-48581
X41657Y-49920
X41657Y-54487
X41657Y-55825
X41657Y-60392
X41657Y-61731
X41972Y-19683
X41972Y-21021
X41972Y-25588
X41972Y-26927
X41972Y-31494
X41972Y-32832
X41972Y-37399
X41972Y-38738
X41972Y-43305
X41972Y-44643
X41972Y-49210
X41972Y-50549
X41972Y-55116
X41972Y-56454
X41972Y-61021
X41972Y-62360
X42100Y-64100
X42100Y-66423
X42100Y-66700
X42100Y-68900
X42287Y-19054
X42287Y-20392
X42287Y-24959
X42287Y-26298
X42287Y-30865
X42287Y-32203
X42287Y-36770
X42287Y-38109
X42287Y-42676
X42287Y-44014
X42287Y-48581
X42287Y-49920
X42287Y-54487
X42287Y-55825
X42287Y-60392
X42287Y-61731
X42599Y-66577
X42600Y-64113
X42600Y-66300
X42600Y-68900
X42602Y-19683
X42602Y-21021
X42602Y-25588
X42602Y-26927
X42602Y-31494
X42602Y-32832
X42602Y-37399
X42602Y-38738
X42602Y-43305
X42602Y-44643
X42602Y-49210
X42602Y-50549
X42602Y-55116
X42602Y-56454
X42602Y-61021
X42602Y-62360
X42917Y-19054
X42917Y-20392
X42917Y-24959
X42917Y-26298
X42917Y-30865
X42917Y-32203
X42917Y-36770
X42917Y-38109
X42917Y-42676
X42917Y-44014
X42917Y-48581
X42917Y-49920
X42917Y-54487
X42917Y-55825
X42917Y-60392
X42917Y-61731
X43100Y-64100
X43100Y-66423
X43100Y-66700
X43100Y-68900
X43232Y-19683
X43232Y-21021
X43232Y-25588
X43232Y-26927
X43232Y-31494
X43232Y-32832
X43232Y-37399
X43232Y-38738
X43232Y-43305
X43232Y-44643
X43232Y-49210
X43232Y-50549
X43232Y-55116
X43232Y-56454
X43232Y-61021
X43232Y-62360
X43547Y-19054
X43547Y-20392
X43547Y-24959
X43547Y-26298
X43547Y-30865
X43547Y-32203
X43547Y-36770
X43547Y-38109
X43547Y-42676
X43547Y-44014
X43547Y-48581
X43547Y-49920
X43547Y-54487
X43547Y-55825
X43547Y-60392
X43547Y-61731
X43599Y-66577
X43600Y-64113
X43600Y-66300
X43600Y-68900
X43862Y-19683
X43862Y-21021
X43862Y-25588
X43862Y-26927
X43862Y-31494
X43862Y-32832
X43862Y-37399
X43862Y-38738
X43862Y-43305
X43862Y-44643
X43862Y-49210
X43862Y-50549
X43862Y-55116
X43862Y-56454
X43862Y-61021
X43862Y-62360
X44100Y-66423
X44100Y-68900
X44112Y-64103
X44118Y-66700
X44177Y-19054
X44177Y-20392
X44177Y-24959
X44177Y-26298
X44177Y-30865
X44177Y-32203
X44177Y-36770
X44177Y-38109
X44177Y-42676
X44177Y-44014
X44177Y-48581
X44177Y-49920
X44177Y-54487
X44177Y-55825
X44177Y-60392
X44177Y-61731
X44492Y-19683
X44492Y-21021
X44492Y-25588
X44492Y-26927
X44492Y-31494
X44492Y-32832
X44492Y-37399
X44492Y-38738
X44492Y-43305
X44492Y-44643
X44492Y-49210
X44492Y-50549
X44492Y-55116
X44492Y-56454
X44492Y-61021
X44492Y-62360
X44599Y-66577
X44600Y-64113
X44600Y-66300
X44600Y-68900
X44807Y-19054
X44807Y-20392
X44807Y-24959
X44807Y-26298
X44807Y-30865
X44807Y-32203
X44807Y-36770
X44807Y-38109
X44807Y-42676
X44807Y-44014
X44807Y-48581
X44807Y-49920
X44807Y-54487
X44807Y-55825
X44807Y-60392
X44807Y-61731
X45100Y-64100
X45100Y-66423
X45100Y-66700
X45100Y-68900
X45122Y-19683
X45122Y-21014
X45122Y-25589
X45122Y-26919
X45122Y-31494
X45122Y-32825
X45122Y-37400
X45122Y-38730
X45122Y-43306
X45122Y-44636
X45122Y-49211
X45122Y-50541
X45122Y-55117
X45122Y-56447
X45122Y-61022
X45122Y-62352
X45437Y-19054
X45437Y-20392
X45437Y-24959
X45437Y-26298
X45437Y-30865
X45437Y-32203
X45437Y-36770
X45437Y-38109
X45437Y-42676
X45437Y-44014
X45437Y-48581
X45437Y-49920
X45437Y-54487
X45437Y-55825
X45437Y-60392
X45437Y-61731
X45599Y-66577
X45600Y-64100
X45600Y-66287
X45600Y-68887
X45752Y-19683
X45752Y-21021
X45752Y-25588
X45752Y-26927
X45752Y-31494
X45752Y-32832
X45752Y-37399
X45752Y-38738
X45752Y-43305
X45752Y-44643
X45752Y-49210
X45752Y-50549
X45752Y-55116
X45752Y-56454
X45752Y-61021
X45752Y-62360
X46067Y-19054
X46067Y-20392
X46067Y-24959
X46067Y-26298
X46067Y-30865
X46067Y-32203
X46067Y-36770
X46067Y-38109
X46067Y-42676
X46067Y-44014
X46067Y-48581
X46067Y-49920
X46067Y-54487
X46067Y-55825
X46067Y-60392
X46067Y-61731
X46366Y-62361
X46381Y-19683
X46381Y-21021
X46381Y-25588
X46381Y-26927
X46381Y-31494
X46381Y-32832
X46381Y-37399
X46381Y-38738
X46381Y-43305
X46381Y-44643
X46381Y-49210
X46381Y-50549
X46381Y-55116
X46381Y-56454
X46381Y-61021
X46696Y-19054
X46696Y-20392
X46696Y-24959
X46696Y-26298
X46696Y-30865
X46696Y-32203
X46696Y-36770
X46696Y-38109
X46696Y-42676
X46696Y-44014
X46696Y-48581
X46696Y-49920
X46696Y-54487
X46696Y-55825
X46696Y-60392
X46696Y-61731
X47011Y-19683
X47011Y-21021
X47011Y-25588
X47011Y-26927
X47011Y-31494
X47011Y-32832
X47011Y-37399
X47011Y-38738
X47011Y-43305
X47011Y-44643
X47011Y-49210
X47011Y-50549
X47011Y-55116
X47011Y-56454
X47011Y-61021
X47012Y-62359
X47326Y-19054
X47326Y-20392
X47326Y-24959
X47326Y-26298
X47326Y-30865
X47326Y-32203
X47326Y-36770
X47326Y-38109
X47326Y-42676
X47326Y-44014
X47326Y-48581
X47326Y-49920
X47326Y-54487
X47326Y-55825
X47326Y-60392
X47326Y-61731
X47641Y-19683
X47641Y-21021
X47641Y-25588
X47641Y-26927
X47641Y-31494
X47641Y-32832
X47641Y-37399
X47641Y-38738
X47641Y-43305
X47641Y-44643
X47641Y-49210
X47641Y-50549
X47641Y-55116
X47641Y-56454
X47641Y-61021
X47641Y-62360
X47956Y-19054
X47956Y-20392
X47956Y-24959
X47956Y-26298
X47956Y-30865
X47956Y-32203
X47956Y-36770
X47956Y-38109
X47956Y-42676
X47956Y-44014
X47956Y-48581
X47956Y-49920
X47956Y-54487
X47956Y-55825
X47956Y-60392
X47956Y-61731
X47956Y-62674
X48271Y-19683
X48271Y-21021
X48271Y-25588
X48271Y-26927
X48271Y-31494
X48271Y-32832
X48271Y-37399
X48271Y-38738
X48271Y-43305
X48271Y-44643
X48271Y-49210
X48271Y-50549
X48271Y-55116
X48271Y-56454
X48271Y-61021
X48271Y-62360
X49055Y-65610
X49055Y-66112
X49055Y-66594
X49055Y-67087
X50170Y-16100
X50170Y-41691
X50170Y-68069
X50612Y-65530
X50614Y-66278
X50928Y-16100
X50928Y-41691
X50928Y-68069
X51687Y-59870
X52189Y-66278
T2
X24523Y-47921
X24523Y-59732
X25013Y-47921
X25013Y-59732
X25507Y-47931
X25507Y-59742
X49720Y-59240
X49759Y-23846
X50210Y-59240
X50250Y-23846
X50704Y-59250
X50744Y-23856
T3
X24570Y-16100
X24570Y-41691
X24570Y-68069
X52130Y-16100
X52130Y-41691
X52130Y-68069
T0
M30
