%TF.GenerationSoftware,KiCad,Pcbnew,(6.0.5)*%
%TF.CreationDate,2023-01-13T09:29:17-05:00*%
%TF.ProjectId,breakout,62726561-6b6f-4757-942e-6b696361645f,rev?*%
%TF.SameCoordinates,Original*%
%TF.FileFunction,Copper,L5,Inr*%
%TF.FilePolarity,Positive*%
%FSLAX46Y46*%
G04 Gerber Fmt 4.6, Leading zero omitted, Abs format (unit mm)*
G04 Created by KiCad (PCBNEW (6.0.5)) date 2023-01-13 09:29:17*
%MOMM*%
%LPD*%
G01*
G04 APERTURE LIST*
%TA.AperFunction,ComponentPad*%
%ADD10C,2.000000*%
%TD*%
%TA.AperFunction,ComponentPad*%
%ADD11C,1.000000*%
%TD*%
%TA.AperFunction,ComponentPad*%
%ADD12C,2.800000*%
%TD*%
%TA.AperFunction,ComponentPad*%
%ADD13R,1.700000X1.700000*%
%TD*%
%TA.AperFunction,ComponentPad*%
%ADD14O,1.700000X1.700000*%
%TD*%
%TA.AperFunction,ViaPad*%
%ADD15C,0.500000*%
%TD*%
%TA.AperFunction,ViaPad*%
%ADD16C,0.800000*%
%TD*%
%TA.AperFunction,Conductor*%
%ADD17C,0.250000*%
%TD*%
G04 APERTURE END LIST*
D10*
%TO.N,/SEP3_RET*%
%TO.C,TP28*%
X128905000Y-105410000D03*
%TD*%
D11*
%TO.N,/H2-13*%
%TO.C,TP9*%
X116840000Y-118745000D03*
%TD*%
%TO.N,/H2-3*%
%TO.C,TP4*%
X97790000Y-118745000D03*
%TD*%
%TO.N,/H1-42*%
%TO.C,TP83*%
X134685000Y-114935000D03*
%TD*%
%TO.N,/H2-4*%
%TO.C,TP94*%
X100965000Y-118745000D03*
%TD*%
%TO.N,/H2-16*%
%TO.C,TP100*%
X126365000Y-118745000D03*
%TD*%
D10*
%TO.N,/+X_SOLAR_TLE*%
%TO.C,TP91*%
X96520000Y-81280000D03*
%TD*%
D11*
%TO.N,/H2-42*%
%TO.C,TP113*%
X127635000Y-122555000D03*
%TD*%
D10*
%TO.N,/USER_3*%
%TO.C,TP87*%
X179070000Y-92710000D03*
%TD*%
%TO.N,/MOSI*%
%TO.C,TP44*%
X100330000Y-92710000D03*
%TD*%
D11*
%TO.N,/H2-17*%
%TO.C,TP11*%
X129540000Y-118745000D03*
%TD*%
D10*
%TO.N,/VBATT-*%
%TO.C,TP105*%
X144145000Y-105410000D03*
%TD*%
%TO.N,/SEP2_RET*%
%TO.C,TP88*%
X121285000Y-105410000D03*
%TD*%
D12*
%TO.N,/5V_RF*%
%TO.C,TP49*%
X148590000Y-67310000D03*
%TD*%
D10*
%TO.N,/SEP4*%
%TO.C,TP120*%
X132715000Y-105410000D03*
%TD*%
D13*
%TO.N,Net-(P1-Pad1)*%
%TO.C,P1*%
X72390000Y-66040000D03*
D14*
%TO.N,Net-(P1-Pad2)*%
X74930000Y-66040000D03*
%TO.N,Net-(P1-Pad3)*%
X77470000Y-66040000D03*
%TD*%
D11*
%TO.N,/H2-35*%
%TO.C,TP20*%
X105410000Y-122555000D03*
%TD*%
D10*
%TO.N,/RX_2*%
%TO.C,TP42*%
X118110000Y-92710000D03*
%TD*%
D11*
%TO.N,/H1-25*%
%TO.C,TP45*%
X109285000Y-114935000D03*
%TD*%
D13*
%TO.N,Net-(P3-Pad1)*%
%TO.C,P3*%
X74930000Y-72390000D03*
D14*
%TO.N,Net-(P3-Pad2)*%
X77470000Y-72390000D03*
%TD*%
D11*
%TO.N,/H2-20*%
%TO.C,TP102*%
X139065000Y-118745000D03*
%TD*%
D10*
%TO.N,/SEP3*%
%TO.C,TP30*%
X125095000Y-105410000D03*
%TD*%
%TO.N,/GND*%
%TO.C,TP116*%
X166370000Y-92710000D03*
%TD*%
%TO.N,/GND*%
%TO.C,TP116*%
X91440000Y-92710000D03*
%TD*%
D11*
%TO.N,/H2-9*%
%TO.C,TP7*%
X104140000Y-118745000D03*
%TD*%
%TO.N,/H1-31*%
%TO.C,TP48*%
X121985000Y-114935000D03*
%TD*%
%TO.N,/H1-27*%
%TO.C,TP46*%
X112460000Y-114935000D03*
%TD*%
D10*
%TO.N,/CTS_3*%
%TO.C,TP80*%
X135890000Y-92710000D03*
%TD*%
D11*
%TO.N,/H2-39*%
%TO.C,TP22*%
X118110000Y-122555000D03*
%TD*%
D12*
%TO.N,/+Y_SOLAR_PWR*%
%TO.C,TP60*%
X105410000Y-67310000D03*
%TD*%
D11*
%TO.N,/H2-19*%
%TO.C,TP12*%
X135890000Y-118745000D03*
%TD*%
%TO.N,/H2-41*%
%TO.C,TP23*%
X124460000Y-122555000D03*
%TD*%
%TO.N,/H2-15*%
%TO.C,TP10*%
X123190000Y-118745000D03*
%TD*%
%TO.N,/H1-24*%
%TO.C,TP74*%
X106110000Y-114935000D03*
%TD*%
D10*
%TO.N,/GND*%
%TO.C,TP116*%
X91440000Y-81280000D03*
%TD*%
%TO.N,/IRR_ON_OFF*%
%TO.C,TP66*%
X179070000Y-81280000D03*
%TD*%
%TO.N,/GND*%
%TO.C,TP116*%
X142240000Y-81280000D03*
%TD*%
%TO.N,/+Y_SOLAR_TLE*%
%TO.C,TP59*%
X100330000Y-81280000D03*
%TD*%
D11*
%TO.N,/H2-10*%
%TO.C,TP97*%
X107315000Y-118745000D03*
%TD*%
D12*
%TO.N,/GND*%
%TO.C,TP108*%
X143510000Y-67310000D03*
%TD*%
D11*
%TO.N,/H2-43*%
%TO.C,TP24*%
X130810000Y-122555000D03*
%TD*%
D10*
%TO.N,/SEP2*%
%TO.C,TP61*%
X117475000Y-105410000D03*
%TD*%
D12*
%TO.N,/-Z_SOLAR_RTN*%
%TO.C,TP32*%
X130810000Y-67310000D03*
%TD*%
D11*
%TO.N,/H2-14*%
%TO.C,TP99*%
X120015000Y-118745000D03*
%TD*%
D10*
%TO.N,/PB18*%
%TO.C,TP13*%
X86360000Y-116205000D03*
%TD*%
D12*
%TO.N,/+X_SOLAR_RTN*%
%TO.C,TP62*%
X100330000Y-67310000D03*
%TD*%
D10*
%TO.N,/AIN11*%
%TO.C,TP95*%
X133350000Y-81280000D03*
%TD*%
D12*
%TO.N,/-Z_SOLAR_PWR*%
%TO.C,TP2*%
X125730000Y-67310000D03*
%TD*%
D11*
%TO.N,/H2-12*%
%TO.C,TP98*%
X113665000Y-118745000D03*
%TD*%
D10*
%TO.N,/AIN10*%
%TO.C,TP5*%
X129540000Y-81280000D03*
%TD*%
%TO.N,/TX_3*%
%TO.C,TP82*%
X128270000Y-92710000D03*
%TD*%
D12*
%TO.N,/3V3*%
%TO.C,TP16*%
X138430000Y-67310000D03*
%TD*%
D10*
%TO.N,/MB_PC03*%
%TO.C,TP64*%
X82550000Y-116205000D03*
%TD*%
%TO.N,/BUS_RESET*%
%TO.C,TP47*%
X93345000Y-105410000D03*
%TD*%
%TO.N,/SCL*%
%TO.C,TP54*%
X82550000Y-92710000D03*
%TD*%
D11*
%TO.N,/H1-37*%
%TO.C,TP51*%
X128335000Y-114935000D03*
%TD*%
%TO.N,/H1-38*%
%TO.C,TP81*%
X131510000Y-114935000D03*
%TD*%
D10*
%TO.N,/SCK*%
%TO.C,TP43*%
X96520000Y-92710000D03*
%TD*%
D11*
%TO.N,/H2-37*%
%TO.C,TP21*%
X111760000Y-122555000D03*
%TD*%
D10*
%TO.N,/USER_2*%
%TO.C,TP57*%
X175260000Y-92710000D03*
%TD*%
D11*
%TO.N,/H1-45*%
%TO.C,TP55*%
X141035000Y-114935000D03*
%TD*%
%TO.N,/H1-46*%
%TO.C,TP85*%
X144210000Y-114935000D03*
%TD*%
D12*
%TO.N,/+Y_SOLAR_RTN*%
%TO.C,TP29*%
X110490000Y-67310000D03*
%TD*%
D11*
%TO.N,/H1-44*%
%TO.C,TP84*%
X137860000Y-114935000D03*
%TD*%
D10*
%TO.N,/CTS_4*%
%TO.C,TP37*%
X157480000Y-92710000D03*
%TD*%
D11*
%TO.N,/H1-13*%
%TO.C,TP39*%
X96585000Y-114935000D03*
%TD*%
D10*
%TO.N,/VBURN2*%
%TO.C,TP63*%
X86360000Y-81280000D03*
%TD*%
%TO.N,/GND*%
%TO.C,TP116*%
X113030000Y-81280000D03*
%TD*%
%TO.N,/RX_3*%
%TO.C,TP52*%
X132080000Y-92710000D03*
%TD*%
%TO.N,/-Z_SOLAR_TLE*%
%TO.C,TP1*%
X107950000Y-81280000D03*
%TD*%
D11*
%TO.N,/H2-38*%
%TO.C,TP111*%
X114935000Y-122555000D03*
%TD*%
D10*
%TO.N,/RBF*%
%TO.C,TP40*%
X140335000Y-105410000D03*
%TD*%
%TO.N,/GND*%
%TO.C,TP116*%
X109220000Y-92710000D03*
%TD*%
%TO.N,/AIN4*%
%TO.C,TP6*%
X121920000Y-81280000D03*
%TD*%
D12*
%TO.N,/-X_SOLAR_PWR*%
%TO.C,TP90*%
X115570000Y-67310000D03*
%TD*%
D11*
%TO.N,/H2-40*%
%TO.C,TP112*%
X121285000Y-122555000D03*
%TD*%
D10*
%TO.N,/VBURN1*%
%TO.C,TP33*%
X82550000Y-81280000D03*
%TD*%
D11*
%TO.N,/H1-12*%
%TO.C,TP68*%
X93410000Y-114935000D03*
%TD*%
D10*
%TO.N,/GND*%
%TO.C,TP116*%
X184150000Y-81280000D03*
%TD*%
D11*
%TO.N,/H1-34*%
%TO.C,TP79*%
X125160000Y-114935000D03*
%TD*%
D13*
%TO.N,Net-(P2-Pad1)*%
%TO.C,P2*%
X66040000Y-72390000D03*
D14*
%TO.N,Net-(P2-Pad2)*%
X68580000Y-72390000D03*
%TD*%
D10*
%TO.N,/PICO_PW_EN*%
%TO.C,TP103*%
X151130000Y-81280000D03*
%TD*%
%TO.N,/GND*%
%TO.C,TP116*%
X144780000Y-92710000D03*
%TD*%
%TO.N,/TX_2*%
%TO.C,TP72*%
X114300000Y-92710000D03*
%TD*%
D11*
%TO.N,/H2-1*%
%TO.C,TP3*%
X91440000Y-118745000D03*
%TD*%
D10*
%TO.N,/GND*%
%TO.C,TP116*%
X139700000Y-124460000D03*
%TD*%
D11*
%TO.N,/H2-34*%
%TO.C,TP109*%
X102235000Y-122555000D03*
%TD*%
%TO.N,/H1-14*%
%TO.C,TP69*%
X99760000Y-114935000D03*
%TD*%
D10*
%TO.N,/AIN7*%
%TO.C,TP96*%
X125730000Y-81280000D03*
%TD*%
%TO.N,/IRR_PW_EN*%
%TO.C,TP36*%
X175260000Y-81280000D03*
%TD*%
D11*
%TO.N,/H2-36*%
%TO.C,TP110*%
X108585000Y-122555000D03*
%TD*%
%TO.N,/H2-18*%
%TO.C,TP101*%
X132715000Y-118745000D03*
%TD*%
D10*
%TO.N,/TX_4*%
%TO.C,TP71*%
X149860000Y-92710000D03*
%TD*%
%TO.N,/3V3REF*%
%TO.C,TP75*%
X118110000Y-81280000D03*
%TD*%
D11*
%TO.N,/H2-2*%
%TO.C,TP93*%
X94615000Y-118745000D03*
%TD*%
%TO.N,/H1-16*%
%TO.C,TP70*%
X102935000Y-114935000D03*
%TD*%
%TO.N,/H2-11*%
%TO.C,TP8*%
X110490000Y-118745000D03*
%TD*%
D10*
%TO.N,/SELF_TEST*%
%TO.C,TP56*%
X82550000Y-105410000D03*
%TD*%
D12*
%TO.N,/5V_USB*%
%TO.C,TP78*%
X168910000Y-67310000D03*
%TD*%
D10*
%TO.N,/SEP1*%
%TO.C,TP31*%
X109855000Y-105410000D03*
%TD*%
D11*
%TO.N,/H2-23*%
%TO.C,TP14*%
X92710000Y-122555000D03*
%TD*%
D12*
%TO.N,/VBATT-*%
%TO.C,TP27*%
X87630000Y-67310000D03*
%TD*%
D10*
%TO.N,/GND*%
%TO.C,TP116*%
X184150000Y-92710000D03*
%TD*%
D12*
%TO.N,/GND*%
%TO.C,TP107*%
X153670000Y-67310000D03*
%TD*%
D10*
%TO.N,/PYLD_SERVO_PWR_CTRL*%
%TO.C,TP35*%
X154940000Y-81280000D03*
%TD*%
D11*
%TO.N,/H2-24*%
%TO.C,TP104*%
X95885000Y-122555000D03*
%TD*%
D12*
%TO.N,/-X_SOLAR_RTN*%
%TO.C,TP119*%
X120650000Y-67310000D03*
%TD*%
%TO.N,/VBATT+*%
%TO.C,TP25*%
X82550000Y-67310000D03*
%TD*%
%TO.N,/+X_SOLAR_PWR*%
%TO.C,TP92*%
X95250000Y-67310000D03*
%TD*%
D10*
%TO.N,/USER_1*%
%TO.C,TP86*%
X171450000Y-92710000D03*
%TD*%
D11*
%TO.N,/H2-33*%
%TO.C,TP19*%
X99060000Y-122555000D03*
%TD*%
%TO.N,/H1-3*%
%TO.C,TP34*%
X90235000Y-114935000D03*
%TD*%
%TO.N,/H1-28*%
%TO.C,TP76*%
X115635000Y-114935000D03*
%TD*%
D10*
%TO.N,/GND*%
%TO.C,TP116*%
X104775000Y-105410000D03*
%TD*%
D12*
%TO.N,/GND*%
%TO.C,TP17*%
X163830000Y-67310000D03*
%TD*%
D10*
%TO.N,/MISO*%
%TO.C,TP73*%
X104140000Y-92710000D03*
%TD*%
%TO.N,/SEP1_RET*%
%TO.C,TP58*%
X113665000Y-105410000D03*
%TD*%
%TO.N,/RTS_4*%
%TO.C,TP67*%
X161290000Y-92710000D03*
%TD*%
%TO.N,/RTS_3*%
%TO.C,TP50*%
X139700000Y-92710000D03*
%TD*%
%TO.N,/-X_SOLAR_TLE*%
%TO.C,TP89*%
X104140000Y-81280000D03*
%TD*%
%TO.N,/AGND*%
%TO.C,TP18*%
X137160000Y-81280000D03*
%TD*%
D12*
%TO.N,/5V_PYLD*%
%TO.C,TP15*%
X158750000Y-67310000D03*
%TD*%
D10*
%TO.N,/PYLD_RST*%
%TO.C,TP65*%
X158750000Y-81280000D03*
%TD*%
%TO.N,/PYLD_PW_EN*%
%TO.C,TP38*%
X147320000Y-81280000D03*
%TD*%
%TO.N,/RX_4*%
%TO.C,TP41*%
X153670000Y-92710000D03*
%TD*%
%TO.N,/GND*%
%TO.C,TP116*%
X170180000Y-81280000D03*
%TD*%
%TO.N,/SEP4_RET*%
%TO.C,TP118*%
X136525000Y-105410000D03*
%TD*%
D11*
%TO.N,/H2-44*%
%TO.C,TP114*%
X133985000Y-122555000D03*
%TD*%
D12*
%TO.N,/GND*%
%TO.C,TP26*%
X173990000Y-67310000D03*
%TD*%
D10*
%TO.N,/SDA*%
%TO.C,TP53*%
X86360000Y-92710000D03*
%TD*%
D11*
%TO.N,/H1-30*%
%TO.C,TP77*%
X118810000Y-114935000D03*
%TD*%
D10*
%TO.N,/GND*%
%TO.C,TP116*%
X123190000Y-92710000D03*
%TD*%
D15*
%TO.N,/VBATT-*%
X61687000Y-84456790D03*
D16*
X70104000Y-77560689D03*
D15*
X67537506Y-84453140D03*
D16*
%TO.N,Net-(D1-Pad2)*%
X110998000Y-110201700D03*
%TO.N,Net-(D2-Pad2)*%
X118618000Y-110490000D03*
%TO.N,Net-(D3-Pad2)*%
X126238000Y-110236000D03*
D15*
%TO.N,/GND*%
X61722000Y-97156790D03*
X61722000Y-85726790D03*
X67537506Y-97153140D03*
X61722000Y-95886790D03*
X67537506Y-85723140D03*
D16*
%TO.N,Net-(D4-Pad2)*%
X86360000Y-97536000D03*
%TO.N,Net-(D5-Pad2)*%
X133858000Y-110236000D03*
%TO.N,Net-(D6-Pad1)*%
X143256000Y-109220000D03*
D15*
%TO.N,/VBATT+*%
X67537506Y-86993140D03*
X61687000Y-86996790D03*
D16*
X74168000Y-69215000D03*
%TO.N,Net-(D7-Pad2)*%
X101496500Y-98147500D03*
%TO.N,Net-(D6-Pad2)*%
X141478000Y-110236000D03*
%TO.N,Net-(D9-Pad2)*%
X103378000Y-98044000D03*
%TO.N,Net-(D8-Pad1)*%
X81788000Y-69850000D03*
%TO.N,Net-(D11-Pad2)*%
X119634000Y-97282000D03*
%TO.N,Net-(D8-Pad2)*%
X80518000Y-70612000D03*
%TO.N,Net-(D13-Pad2)*%
X112014000Y-96266000D03*
%TO.N,Net-(D14-Pad2)*%
X115570000Y-72644000D03*
%TO.N,Net-(D15-Pad2)*%
X132334000Y-97155000D03*
%TO.N,Net-(D16-Pad1)*%
X127508000Y-72136000D03*
%TO.N,Net-(D17-Pad2)*%
X127254000Y-97536000D03*
%TO.N,Net-(D18-Pad1)*%
X140208000Y-72136000D03*
%TO.N,Net-(D18-Pad2)*%
X138430000Y-72644000D03*
%TO.N,Net-(D19-Pad2)*%
X151638000Y-97282000D03*
%TO.N,Net-(D20-Pad1)*%
X160528000Y-72136000D03*
%TO.N,Net-(D20-Pad2)*%
X158750000Y-72644000D03*
%TO.N,Net-(D21-Pad2)*%
X149037769Y-97342231D03*
%TO.N,Net-(D22-Pad1)*%
X150368000Y-72136000D03*
%TO.N,Net-(D22-Pad2)*%
X148590000Y-72644000D03*
%TO.N,Net-(D10-Pad1)*%
X97028000Y-72136000D03*
%TO.N,Net-(D10-Pad2)*%
X93218000Y-72136000D03*
%TO.N,Net-(D12-Pad1)*%
X106426000Y-72136000D03*
%TO.N,Net-(D12-Pad2)*%
X103632000Y-72390000D03*
%TO.N,Net-(D14-Pad1)*%
X117348000Y-72136000D03*
%TO.N,Net-(D16-Pad2)*%
X125730000Y-72644000D03*
D15*
%TO.N,/SEP1*%
X74203000Y-117473210D03*
%TO.N,/SEP2*%
X68326000Y-117475000D03*
%TO.N,/SEP3*%
X67537506Y-80643140D03*
%TO.N,/SEP4*%
X61687000Y-80646790D03*
%TO.N,/RBF*%
X81026000Y-103955700D03*
%TO.N,/MOSI*%
X74201210Y-100965000D03*
%TO.N,/MISO*%
X68326000Y-102235000D03*
%TO.N,/+X_SOLAR_PWR*%
X61687000Y-116206790D03*
%TO.N,/RX_2*%
X74203000Y-103503210D03*
%TO.N,/+Y_SOLAR_PWR*%
X75184000Y-80643210D03*
%TO.N,/TX_2*%
X68326000Y-103505000D03*
%TO.N,/-X_SOLAR_PWR*%
X68326000Y-80645000D03*
%TO.N,/RX_3*%
X74283512Y-90619966D03*
%TO.N,/-Z_SOLAR_PWR*%
X67537506Y-116203140D03*
%TO.N,/TX_3*%
X68326000Y-90805000D03*
%TO.N,/3V3*%
X67537506Y-98423140D03*
X61687000Y-98426790D03*
%TO.N,/RX_4*%
X74203000Y-104773210D03*
%TO.N,/5V_PYLD*%
X61687000Y-99696790D03*
X67537506Y-99693140D03*
%TO.N,/TX_4*%
X68326000Y-104775000D03*
%TO.N,/5V_RF*%
X74203000Y-94613210D03*
%TO.N,/SEP4_RET*%
X61687000Y-83186790D03*
%TO.N,/SEP3_RET*%
X67537506Y-83183140D03*
%TO.N,/SEP2_RET*%
X68326000Y-83185000D03*
%TO.N,/SEP1_RET*%
X75696367Y-84514779D03*
%TO.N,/SELF_TEST*%
X74203000Y-85723210D03*
%TO.N,/BUS_RESET*%
X74203000Y-97153210D03*
%TO.N,/-Z_SOLAR_TLE*%
X67537506Y-117473140D03*
%TO.N,/H2-1*%
X67537506Y-114933140D03*
%TO.N,/H2-3*%
X67537506Y-113663140D03*
%TO.N,/AIN10*%
X67537506Y-112393140D03*
%TO.N,/AIN4*%
X67537506Y-111123140D03*
%TO.N,/H2-9*%
X67537506Y-109853140D03*
%TO.N,/H2-11*%
X67537506Y-108583140D03*
%TO.N,/H2-13*%
X67537506Y-107313140D03*
%TO.N,/H2-15*%
X67537506Y-106043140D03*
%TO.N,/H2-17*%
X67537506Y-104773140D03*
%TO.N,/H2-19*%
X67537506Y-103503140D03*
%TO.N,/PB18*%
X67537506Y-102233140D03*
%TO.N,/H2-23*%
X67537506Y-100963140D03*
%TO.N,/AGND*%
X67537506Y-95883140D03*
%TO.N,/H2-33*%
X67537506Y-94613140D03*
%TO.N,/H2-35*%
X67537506Y-93343140D03*
D16*
X102108000Y-106934000D03*
X89154000Y-97790000D03*
D15*
%TO.N,/H2-37*%
X67537506Y-92073140D03*
D16*
X105664000Y-103124000D03*
X78994000Y-93218000D03*
%TO.N,/H2-39*%
X84582000Y-91186000D03*
X106934000Y-102108000D03*
D15*
X67537506Y-90803140D03*
%TO.N,/H2-41*%
X67537506Y-89533140D03*
D16*
X88900000Y-91440000D03*
X107950000Y-101092000D03*
D15*
%TO.N,/H2-43*%
X67537506Y-88263140D03*
%TO.N,/+Y_SOLAR_RTN*%
X67537506Y-81913140D03*
%TO.N,/-Z_SOLAR_RTN*%
X74203000Y-116203210D03*
%TO.N,/VBURN1*%
X74203000Y-114933210D03*
%TO.N,/H1-3*%
X74203000Y-113663210D03*
%TO.N,/PYLD_SERVO_PWR_CTRL*%
X74203000Y-112393210D03*
%TO.N,/IRR_PW_EN*%
X74203000Y-111123210D03*
%TO.N,/CTS_4*%
X74203000Y-109853210D03*
%TO.N,/PYLD_PW_EN*%
X74203000Y-108583210D03*
%TO.N,/H1-13*%
X74203000Y-107313210D03*
%TO.N,/SCK*%
X74203000Y-102233210D03*
%TO.N,/H1-25*%
X74203000Y-99693210D03*
%TO.N,/H1-27*%
X74203000Y-98423210D03*
%TO.N,/H1-31*%
X74203000Y-95883210D03*
%TO.N,/RTS_3*%
X74203000Y-93343210D03*
%TO.N,/H1-37*%
X74203000Y-92073210D03*
%TO.N,/H1-45*%
X74203000Y-86993210D03*
%TO.N,/USER_2*%
X74203000Y-84453210D03*
%TO.N,/+Y_SOLAR_TLE*%
X74203000Y-81913210D03*
%TO.N,/+X_SOLAR_RTN*%
X68378452Y-116218113D03*
%TO.N,/VBURN2*%
X68326000Y-114935000D03*
%TO.N,/MB_PC03*%
X68326000Y-113665000D03*
%TO.N,/PYLD_RST*%
X68326000Y-112395000D03*
D16*
X164338000Y-88646000D03*
D15*
%TO.N,/IRR_ON_OFF*%
X68326000Y-111125000D03*
%TO.N,/RTS_4*%
X68326000Y-109855000D03*
%TO.N,/H1-12*%
X68326000Y-108585000D03*
D16*
X78740000Y-107696000D03*
%TO.N,/H1-14*%
X77724000Y-106680000D03*
D15*
X68326000Y-107315000D03*
%TO.N,/H1-16*%
X68326000Y-106045000D03*
D16*
X87630000Y-106172000D03*
D15*
%TO.N,/H1-24*%
X68326000Y-100965000D03*
%TO.N,/3V3REF*%
X68326000Y-99695000D03*
D16*
%TO.N,/H1-28*%
X92964000Y-99057521D03*
D15*
X68326000Y-98425000D03*
%TO.N,/H1-30*%
X68326000Y-97155000D03*
D16*
X93726000Y-98044000D03*
D15*
%TO.N,/5V_USB*%
X68326000Y-95885000D03*
D16*
X76454000Y-68072000D03*
%TO.N,/H1-34*%
X88900000Y-93980000D03*
D15*
X68326000Y-94615000D03*
%TO.N,/CTS_3*%
X68326000Y-93345000D03*
%TO.N,/H1-38*%
X68326000Y-92075000D03*
%TO.N,/H1-42*%
X68326000Y-89535000D03*
%TO.N,/H1-44*%
X68326000Y-88265000D03*
%TO.N,/H1-46*%
X68326000Y-86995000D03*
%TO.N,/USER_1*%
X68326000Y-85725000D03*
%TO.N,/USER_3*%
X68326000Y-84455000D03*
%TO.N,/-X_SOLAR_TLE*%
X68326000Y-81915000D03*
%TO.N,/+X_SOLAR_TLE*%
X64794735Y-118618000D03*
%TO.N,/H2-2*%
X61687000Y-114936790D03*
%TO.N,/H2-4*%
X61687000Y-113666790D03*
%TO.N,/AIN11*%
X61687000Y-112396790D03*
%TO.N,/AIN7*%
X61687000Y-111126790D03*
%TO.N,/H2-10*%
X61687000Y-109856790D03*
%TO.N,/H2-12*%
X61687000Y-108586790D03*
%TO.N,/H2-14*%
X61687000Y-107316790D03*
%TO.N,/H2-16*%
X61687000Y-106046790D03*
%TO.N,/H2-18*%
X61687000Y-104776790D03*
%TO.N,/H2-20*%
X61687000Y-103506790D03*
%TO.N,/PICO_PW_EN*%
X61687000Y-102236790D03*
%TO.N,/H2-24*%
X61687000Y-100966790D03*
%TO.N,/H2-34*%
X61687000Y-94616790D03*
%TO.N,/H2-36*%
X61687000Y-93346790D03*
%TO.N,/H2-38*%
X61687000Y-92076790D03*
%TO.N,/H2-40*%
X61687000Y-90806790D03*
%TO.N,/H2-42*%
X61687000Y-89536790D03*
%TO.N,/H2-44*%
X61687000Y-88266790D03*
%TO.N,/-X_SOLAR_RTN*%
X61687000Y-81916790D03*
D16*
%TO.N,/LED_RET_2*%
X136906000Y-109220000D03*
X121412000Y-103124000D03*
X122682000Y-76488300D03*
%TO.N,/LED_RET_1*%
X160528000Y-95758000D03*
%TO.N,Net-(D23-Pad1)*%
X170434000Y-72136000D03*
%TO.N,Net-(D23-Pad2)*%
X168656000Y-72644000D03*
%TD*%
D17*
%TO.N,/AIN10*%
X67537506Y-112251908D02*
X68029414Y-111760000D01*
X68029414Y-111760000D02*
X93980000Y-111760000D01*
X67537506Y-112393140D02*
X67537506Y-112251908D01*
X126492000Y-84328000D02*
X129540000Y-81280000D01*
X122936000Y-98552000D02*
X126492000Y-94996000D01*
X126492000Y-94996000D02*
X126492000Y-84328000D01*
X107188000Y-98552000D02*
X122936000Y-98552000D01*
X93980000Y-111760000D02*
X107188000Y-98552000D01*
%TO.N,/AIN4*%
X94234000Y-110490000D02*
X106735280Y-97988720D01*
X120920000Y-94218000D02*
X120920000Y-82280000D01*
X67537506Y-110981908D02*
X68029414Y-110490000D01*
X67537506Y-111123140D02*
X67537506Y-110981908D01*
X120920000Y-82280000D02*
X121920000Y-81280000D01*
X106735280Y-97988720D02*
X117149280Y-97988720D01*
X117149280Y-97988720D02*
X120920000Y-94218000D01*
X68029414Y-110490000D02*
X94234000Y-110490000D01*
%TO.N,/AGND*%
X108557668Y-78740000D02*
X92050147Y-95247521D01*
X67537506Y-95856486D02*
X67537506Y-95883140D01*
X92050147Y-95247521D02*
X68146471Y-95247521D01*
X134620000Y-78740000D02*
X108557668Y-78740000D01*
X137160000Y-81280000D02*
X134620000Y-78740000D01*
X68146471Y-95247521D02*
X67537506Y-95856486D01*
%TO.N,/H2-35*%
X88646000Y-98298000D02*
X74894798Y-98298000D01*
X105282289Y-110108289D02*
X102108000Y-106934000D01*
X105282289Y-122427289D02*
X105282289Y-110108289D01*
X66959795Y-97439795D02*
X66959795Y-93920851D01*
X66959795Y-93920851D02*
X67537506Y-93343140D01*
X67312479Y-97792479D02*
X66959795Y-97439795D01*
X74389277Y-97792479D02*
X67312479Y-97792479D01*
X74894798Y-98298000D02*
X74389277Y-97792479D01*
X89154000Y-97790000D02*
X88646000Y-98298000D01*
%TO.N,/H2-37*%
X111760000Y-122555000D02*
X111760000Y-115824000D01*
X108204000Y-105664000D02*
X105664000Y-103124000D01*
X78994000Y-93218000D02*
X78486000Y-92710000D01*
X111760000Y-115824000D02*
X108204000Y-112268000D01*
X68072000Y-92710000D02*
X67537506Y-92175506D01*
X78486000Y-92710000D02*
X68072000Y-92710000D01*
X108204000Y-112268000D02*
X108204000Y-105664000D01*
X67537506Y-92175506D02*
X67537506Y-92073140D01*
%TO.N,/H2-39*%
X117602000Y-102108000D02*
X119380000Y-103886000D01*
X119380000Y-107696000D02*
X120650000Y-108966000D01*
X84582000Y-91186000D02*
X82196332Y-91186000D01*
X67537506Y-90905506D02*
X67537506Y-90803140D01*
X81942332Y-91440000D02*
X68072000Y-91440000D01*
X118110000Y-118364000D02*
X118110000Y-122555000D01*
X106934000Y-102108000D02*
X117602000Y-102108000D01*
X68072000Y-91440000D02*
X67537506Y-90905506D01*
X120650000Y-108966000D02*
X120650000Y-115824000D01*
X82196332Y-91186000D02*
X81942332Y-91440000D01*
X119380000Y-103886000D02*
X119380000Y-107696000D01*
X120650000Y-115824000D02*
X118110000Y-118364000D01*
%TO.N,/H2-41*%
X88900000Y-91440000D02*
X87376000Y-89916000D01*
X87376000Y-89916000D02*
X74168000Y-89916000D01*
X68069521Y-90167521D02*
X67537506Y-89635506D01*
X123444000Y-116078000D02*
X123444000Y-102870000D01*
X121666000Y-101092000D02*
X107950000Y-101092000D01*
X67537506Y-89635506D02*
X67537506Y-89533140D01*
X124332289Y-122427289D02*
X124332289Y-116966289D01*
X74168000Y-89916000D02*
X73916479Y-90167521D01*
X73916479Y-90167521D02*
X68069521Y-90167521D01*
X123444000Y-102870000D02*
X121666000Y-101092000D01*
X124332289Y-116966289D02*
X123444000Y-116078000D01*
%TO.N,/H1-14*%
X76705521Y-106682479D02*
X77218479Y-106682479D01*
X76705521Y-106682479D02*
X77721521Y-106682479D01*
X68958521Y-106682479D02*
X76705521Y-106682479D01*
X77721521Y-106682479D02*
X77724000Y-106680000D01*
X68326000Y-107315000D02*
X68958521Y-106682479D01*
%TO.N,/H1-16*%
X68958521Y-105412479D02*
X68326000Y-106045000D01*
X78742479Y-105412479D02*
X68958521Y-105412479D01*
X85852000Y-107950000D02*
X81280000Y-107950000D01*
X87630000Y-106172000D02*
X85852000Y-107950000D01*
X81280000Y-107950000D02*
X78742479Y-105412479D01*
%TO.N,/3V3REF*%
X68958521Y-100327521D02*
X68326000Y-99695000D01*
X107442000Y-91948000D02*
X107442000Y-95250000D01*
X107442000Y-95250000D02*
X102364479Y-100327521D01*
X102364479Y-100327521D02*
X68958521Y-100327521D01*
X118110000Y-81280000D02*
X107442000Y-91948000D01*
%TO.N,/H1-28*%
X92964000Y-99057521D02*
X68958521Y-99057521D01*
X68958521Y-99057521D02*
X68326000Y-98425000D01*
%TO.N,/H1-30*%
X91694000Y-96012000D02*
X74891218Y-96012000D01*
X68963479Y-96517521D02*
X68326000Y-97155000D01*
X74385697Y-96517521D02*
X68963479Y-96517521D01*
X93726000Y-98044000D02*
X91694000Y-96012000D01*
X74891218Y-96012000D02*
X74385697Y-96517521D01*
%TO.N,/H1-34*%
X81536479Y-93977521D02*
X68963479Y-93977521D01*
X88842289Y-94037711D02*
X81596669Y-94037711D01*
X88900000Y-93980000D02*
X88842289Y-94037711D01*
X68963479Y-93977521D02*
X68326000Y-94615000D01*
X81596669Y-94037711D02*
X81536479Y-93977521D01*
%TO.N,/AIN11*%
X61687000Y-112396790D02*
X62317731Y-113027521D01*
X133350000Y-89507668D02*
X133350000Y-81280000D01*
X107442000Y-99314000D02*
X123543668Y-99314000D01*
X93728479Y-113027521D02*
X107442000Y-99314000D01*
X123543668Y-99314000D02*
X133350000Y-89507668D01*
X62317731Y-113027521D02*
X93728479Y-113027521D01*
%TO.N,/AIN7*%
X75181521Y-109217521D02*
X75184000Y-109220000D01*
X119888000Y-93980000D02*
X119888000Y-80772000D01*
X106172000Y-97536000D02*
X116332000Y-97536000D01*
X120904000Y-79756000D02*
X124206000Y-79756000D01*
X124206000Y-79756000D02*
X125730000Y-81280000D01*
X65540000Y-110487521D02*
X66294000Y-109733521D01*
X75184000Y-109220000D02*
X94488000Y-109220000D01*
X116332000Y-97536000D02*
X119888000Y-93980000D01*
X66294000Y-109728000D02*
X66804479Y-109217521D01*
X62326269Y-110487521D02*
X65540000Y-110487521D01*
X119888000Y-80772000D02*
X120904000Y-79756000D01*
X66294000Y-109733521D02*
X66294000Y-109728000D01*
X61687000Y-111126790D02*
X62326269Y-110487521D01*
X66804479Y-109217521D02*
X75181521Y-109217521D01*
X94488000Y-109220000D02*
X106172000Y-97536000D01*
%TD*%
M02*
