%TF.GenerationSoftware,KiCad,Pcbnew,(6.0.5)*%
%TF.CreationDate,2023-01-13T09:29:17-05:00*%
%TF.ProjectId,breakout,62726561-6b6f-4757-942e-6b696361645f,rev?*%
%TF.SameCoordinates,Original*%
%TF.FileFunction,Paste,Bot*%
%TF.FilePolarity,Positive*%
%FSLAX46Y46*%
G04 Gerber Fmt 4.6, Leading zero omitted, Abs format (unit mm)*
G04 Created by KiCad (PCBNEW (6.0.5)) date 2023-01-13 09:29:17*
%MOMM*%
%LPD*%
G01*
G04 APERTURE LIST*
G04 Aperture macros list*
%AMRoundRect*
0 Rectangle with rounded corners*
0 $1 Rounding radius*
0 $2 $3 $4 $5 $6 $7 $8 $9 X,Y pos of 4 corners*
0 Add a 4 corners polygon primitive as box body*
4,1,4,$2,$3,$4,$5,$6,$7,$8,$9,$2,$3,0*
0 Add four circle primitives for the rounded corners*
1,1,$1+$1,$2,$3*
1,1,$1+$1,$4,$5*
1,1,$1+$1,$6,$7*
1,1,$1+$1,$8,$9*
0 Add four rect primitives between the rounded corners*
20,1,$1+$1,$2,$3,$4,$5,0*
20,1,$1+$1,$4,$5,$6,$7,0*
20,1,$1+$1,$6,$7,$8,$9,0*
20,1,$1+$1,$8,$9,$2,$3,0*%
G04 Aperture macros list end*
%ADD10RoundRect,0.237500X-0.250000X-0.237500X0.250000X-0.237500X0.250000X0.237500X-0.250000X0.237500X0*%
%ADD11RoundRect,0.237500X0.237500X-0.250000X0.237500X0.250000X-0.237500X0.250000X-0.237500X-0.250000X0*%
%ADD12RoundRect,0.237500X0.250000X0.237500X-0.250000X0.237500X-0.250000X-0.237500X0.250000X-0.237500X0*%
%ADD13RoundRect,0.237500X-0.237500X0.250000X-0.237500X-0.250000X0.237500X-0.250000X0.237500X0.250000X0*%
%ADD14RoundRect,0.150000X-0.150000X0.587500X-0.150000X-0.587500X0.150000X-0.587500X0.150000X0.587500X0*%
%ADD15RoundRect,0.150000X0.150000X-0.587500X0.150000X0.587500X-0.150000X0.587500X-0.150000X-0.587500X0*%
%ADD16RoundRect,0.150000X0.587500X0.150000X-0.587500X0.150000X-0.587500X-0.150000X0.587500X-0.150000X0*%
G04 APERTURE END LIST*
D10*
%TO.C,R35*%
X141835500Y-71120000D03*
X143660500Y-71120000D03*
%TD*%
D11*
%TO.C,R2*%
X109855000Y-112037500D03*
X109855000Y-110212500D03*
%TD*%
D12*
%TO.C,R1*%
X106957500Y-107950000D03*
X105132500Y-107950000D03*
%TD*%
D13*
%TO.C,R13*%
X140335000Y-110212500D03*
X140335000Y-112037500D03*
%TD*%
D12*
%TO.C,R8*%
X129817500Y-107950000D03*
X127992500Y-107950000D03*
%TD*%
D14*
%TO.C,Q5*%
X127955000Y-110187500D03*
X129855000Y-110187500D03*
X128905000Y-112062500D03*
%TD*%
D10*
%TO.C,R28*%
X134342500Y-95885000D03*
X136167500Y-95885000D03*
%TD*%
%TO.C,R52*%
X172061500Y-71120000D03*
X173886500Y-71120000D03*
%TD*%
D13*
%TO.C,R25*%
X106045000Y-73763500D03*
X106045000Y-75588500D03*
%TD*%
D14*
%TO.C,Q2*%
X112715000Y-110187500D03*
X114615000Y-110187500D03*
X113665000Y-112062500D03*
%TD*%
D13*
%TO.C,R42*%
X146050000Y-87352500D03*
X146050000Y-89177500D03*
%TD*%
D11*
%TO.C,R48*%
X66045000Y-77112500D03*
X66045000Y-75287500D03*
%TD*%
%TO.C,R49*%
X68585000Y-77112500D03*
X68585000Y-75287500D03*
%TD*%
D15*
%TO.C,Q21*%
X150810000Y-89202500D03*
X148910000Y-89202500D03*
X149860000Y-87327500D03*
%TD*%
D11*
%TO.C,R32*%
X132080000Y-89177500D03*
X132080000Y-87352500D03*
%TD*%
D16*
%TO.C,Q12*%
X110665500Y-73726000D03*
X110665500Y-75626000D03*
X108790500Y-74676000D03*
%TD*%
D13*
%TO.C,R41*%
X159512000Y-73763500D03*
X159512000Y-75588500D03*
%TD*%
D16*
%TO.C,Q16*%
X130985500Y-73726000D03*
X130985500Y-75626000D03*
X129110500Y-74676000D03*
%TD*%
D11*
%TO.C,R6*%
X125095000Y-112037500D03*
X125095000Y-110212500D03*
%TD*%
D12*
%TO.C,R5*%
X122197500Y-107950000D03*
X120372500Y-107950000D03*
%TD*%
D11*
%TO.C,R10*%
X132715000Y-112037500D03*
X132715000Y-110212500D03*
%TD*%
D14*
%TO.C,Q3*%
X120335000Y-110187500D03*
X122235000Y-110187500D03*
X121285000Y-112062500D03*
%TD*%
D16*
%TO.C,Q18*%
X143685500Y-73726000D03*
X143685500Y-75626000D03*
X141810500Y-74676000D03*
%TD*%
%TO.C,Q8*%
X87805500Y-73726000D03*
X87805500Y-75626000D03*
X85930500Y-74676000D03*
%TD*%
D10*
%TO.C,R19*%
X98655500Y-71120000D03*
X100480500Y-71120000D03*
%TD*%
%TO.C,R39*%
X162155500Y-71120000D03*
X163980500Y-71120000D03*
%TD*%
D11*
%TO.C,R22*%
X118745000Y-99972500D03*
X118745000Y-98147500D03*
%TD*%
D16*
%TO.C,Q10*%
X100505500Y-73726000D03*
X100505500Y-75626000D03*
X98630500Y-74676000D03*
%TD*%
D12*
%TO.C,R12*%
X97432500Y-95885000D03*
X95607500Y-95885000D03*
%TD*%
D10*
%TO.C,R11*%
X143232500Y-107950000D03*
X145057500Y-107950000D03*
%TD*%
%TO.C,R23*%
X108815500Y-71120000D03*
X110640500Y-71120000D03*
%TD*%
D15*
%TO.C,Q13*%
X115250000Y-89202500D03*
X113350000Y-89202500D03*
X114300000Y-87327500D03*
%TD*%
D16*
%TO.C,Q22*%
X153845500Y-73726000D03*
X153845500Y-75626000D03*
X151970500Y-74676000D03*
%TD*%
D12*
%TO.C,R3*%
X114577500Y-107950000D03*
X112752500Y-107950000D03*
%TD*%
D13*
%TO.C,R34*%
X124460000Y-87352500D03*
X124460000Y-89177500D03*
%TD*%
D12*
%TO.C,R45*%
X73302500Y-69215000D03*
X71477500Y-69215000D03*
%TD*%
D11*
%TO.C,R18*%
X104775000Y-99972500D03*
X104775000Y-98147500D03*
%TD*%
D16*
%TO.C,Q14*%
X120825500Y-73726000D03*
X120825500Y-75626000D03*
X118950500Y-74676000D03*
%TD*%
%TO.C,Q15*%
X136192500Y-98110000D03*
X136192500Y-100010000D03*
X134317500Y-99060000D03*
%TD*%
D11*
%TO.C,R24*%
X118110000Y-89177500D03*
X118110000Y-87352500D03*
%TD*%
%TO.C,R51*%
X81407000Y-75715500D03*
X81407000Y-73890500D03*
%TD*%
D10*
%TO.C,R15*%
X85955500Y-71120000D03*
X87780500Y-71120000D03*
%TD*%
%TO.C,R27*%
X119102500Y-71120000D03*
X120927500Y-71120000D03*
%TD*%
%TO.C,R43*%
X151995500Y-71120000D03*
X153820500Y-71120000D03*
%TD*%
D16*
%TO.C,Q4*%
X83487500Y-98745000D03*
X83487500Y-100645000D03*
X81612500Y-99695000D03*
%TD*%
D10*
%TO.C,R36*%
X155932500Y-95885000D03*
X157757500Y-95885000D03*
%TD*%
D11*
%TO.C,R38*%
X153035000Y-99972500D03*
X153035000Y-98147500D03*
%TD*%
D10*
%TO.C,R47*%
X76557500Y-69215000D03*
X78382500Y-69215000D03*
%TD*%
D13*
%TO.C,R53*%
X169418000Y-73763500D03*
X169418000Y-75588500D03*
%TD*%
D12*
%TO.C,R7*%
X83462500Y-95885000D03*
X81637500Y-95885000D03*
%TD*%
D15*
%TO.C,Q17*%
X129220000Y-89202500D03*
X127320000Y-89202500D03*
X128270000Y-87327500D03*
%TD*%
D16*
%TO.C,Q11*%
X123492500Y-98110000D03*
X123492500Y-100010000D03*
X121617500Y-99060000D03*
%TD*%
D10*
%TO.C,R20*%
X121642500Y-95885000D03*
X123467500Y-95885000D03*
%TD*%
D11*
%TO.C,R50*%
X74935000Y-77112500D03*
X74935000Y-75287500D03*
%TD*%
D13*
%TO.C,R44*%
X149352000Y-73763500D03*
X149352000Y-75588500D03*
%TD*%
D16*
%TO.C,Q23*%
X173911500Y-73726000D03*
X173911500Y-75626000D03*
X172036500Y-74676000D03*
%TD*%
D14*
%TO.C,Q1*%
X105095000Y-110187500D03*
X106995000Y-110187500D03*
X106045000Y-112062500D03*
%TD*%
D16*
%TO.C,Q19*%
X157782500Y-98110000D03*
X157782500Y-100010000D03*
X155907500Y-99060000D03*
%TD*%
D10*
%TO.C,R16*%
X107672500Y-95885000D03*
X109497500Y-95885000D03*
%TD*%
D11*
%TO.C,R9*%
X86360000Y-100607500D03*
X86360000Y-98782500D03*
%TD*%
D16*
%TO.C,Q20*%
X164005500Y-73726000D03*
X164005500Y-75626000D03*
X162130500Y-74676000D03*
%TD*%
D12*
%TO.C,R46*%
X76755000Y-62865000D03*
X74930000Y-62865000D03*
%TD*%
D13*
%TO.C,R26*%
X110490000Y-87352500D03*
X110490000Y-89177500D03*
%TD*%
D11*
%TO.C,R40*%
X153670000Y-89177500D03*
X153670000Y-87352500D03*
%TD*%
D13*
%TO.C,R33*%
X126492000Y-73763500D03*
X126492000Y-75588500D03*
%TD*%
D10*
%TO.C,R31*%
X129262500Y-71120000D03*
X131087500Y-71120000D03*
%TD*%
D15*
%TO.C,Q6*%
X145095000Y-112062500D03*
X143195000Y-112062500D03*
X144145000Y-110187500D03*
%TD*%
D11*
%TO.C,R4*%
X117475000Y-112037500D03*
X117475000Y-110212500D03*
%TD*%
D13*
%TO.C,R29*%
X116332000Y-73763500D03*
X116332000Y-75588500D03*
%TD*%
D16*
%TO.C,Q9*%
X109522500Y-98110000D03*
X109522500Y-100010000D03*
X107647500Y-99060000D03*
%TD*%
D11*
%TO.C,R14*%
X100330000Y-99972500D03*
X100330000Y-98147500D03*
%TD*%
D13*
%TO.C,R17*%
X83312000Y-73763500D03*
X83312000Y-75588500D03*
%TD*%
%TO.C,R37*%
X139192000Y-73763500D03*
X139192000Y-75588500D03*
%TD*%
D11*
%TO.C,R30*%
X131445000Y-99972500D03*
X131445000Y-98147500D03*
%TD*%
D13*
%TO.C,R21*%
X96012000Y-73763500D03*
X96012000Y-75588500D03*
%TD*%
D16*
%TO.C,Q7*%
X97457500Y-98110000D03*
X97457500Y-100010000D03*
X95582500Y-99060000D03*
%TD*%
M02*
