M48
; DRILL file {KiCad (6.0.5)} date Fri Jan 13 09:29:19 2023
; FORMAT={-:-/ absolute / inch / decimal}
; #@! TF.CreationDate,2023-01-13T09:29:19-05:00
; #@! TF.GenerationSoftware,Kicad,Pcbnew,(6.0.5)
; #@! TF.FileFunction,NonPlated,1,8,NPTH
FMAT,2
INCH
; #@! TA.AperFunction,NonPlated,NPTH,ComponentDrill
T1C0.0240
; #@! TA.AperFunction,NonPlated,NPTH,ComponentDrill
T2C0.0291
; #@! TA.AperFunction,NonPlated,NPTH,ComponentDrill
T3C0.1260
%
G90
G05
T1
X2.52Y-3.175
X2.52Y-3.225
X2.52Y-3.275
X2.52Y-3.325
X2.52Y-3.375
X2.52Y-3.425
X2.52Y-3.475
X2.52Y-3.525
X2.52Y-3.575
X2.52Y-3.625
X2.52Y-3.675
X2.52Y-3.725
X2.52Y-3.775
X2.52Y-3.825
X2.52Y-3.875
X2.52Y-3.925
X2.52Y-3.975
X2.52Y-4.025
X2.52Y-4.075
X2.52Y-4.125
X2.52Y-4.175
X2.52Y-4.225
X2.52Y-4.275
X2.52Y-4.325
X2.52Y-4.375
X2.52Y-4.425
X2.52Y-4.475
X2.52Y-4.525
X2.52Y-4.575
X2.52Y-4.625
X2.57Y-3.175
X2.57Y-3.225
X2.57Y-3.275
X2.57Y-3.325
X2.57Y-3.375
X2.57Y-3.425
X2.57Y-3.475
X2.57Y-3.525
X2.57Y-3.575
X2.57Y-3.625
X2.57Y-3.675
X2.57Y-3.725
X2.57Y-3.775
X2.57Y-3.825
X2.57Y-3.875
X2.57Y-3.925
X2.57Y-3.975
X2.57Y-4.025
X2.57Y-4.075
X2.57Y-4.125
X2.57Y-4.175
X2.57Y-4.225
X2.57Y-4.275
X2.57Y-4.325
X2.57Y-4.375
X2.57Y-4.425
X2.57Y-4.475
X2.57Y-4.525
X2.57Y-4.575
X2.57Y-4.625
X2.78Y-3.175
X2.78Y-3.225
X2.78Y-3.275
X2.78Y-3.325
X2.78Y-3.375
X2.78Y-3.425
X2.78Y-3.475
X2.78Y-3.525
X2.78Y-3.575
X2.78Y-3.625
X2.78Y-3.675
X2.78Y-3.725
X2.78Y-3.775
X2.78Y-3.825
X2.78Y-3.875
X2.78Y-3.925
X2.78Y-3.975
X2.78Y-4.025
X2.78Y-4.075
X2.78Y-4.125
X2.78Y-4.175
X2.78Y-4.225
X2.78Y-4.275
X2.78Y-4.325
X2.78Y-4.375
X2.78Y-4.425
X2.78Y-4.475
X2.78Y-4.525
X2.78Y-4.575
X2.78Y-4.625
X2.83Y-3.175
X2.83Y-3.225
X2.83Y-3.275
X2.83Y-3.325
X2.83Y-3.375
X2.83Y-3.425
X2.83Y-3.475
X2.83Y-3.525
X2.83Y-3.575
X2.83Y-3.625
X2.83Y-3.675
X2.83Y-3.725
X2.83Y-3.775
X2.83Y-3.825
X2.83Y-3.875
X2.83Y-3.925
X2.83Y-3.975
X2.83Y-4.025
X2.83Y-4.075
X2.83Y-4.125
X2.83Y-4.175
X2.83Y-4.225
X2.83Y-4.275
X2.83Y-4.325
X2.83Y-4.375
X2.83Y-4.425
X2.83Y-4.475
X2.83Y-4.525
X2.83Y-4.575
X2.83Y-4.625
T2
X2.545Y-3.2
X2.545Y-4.6
X2.805Y-3.2
X2.805Y-4.6
T3
X2.6Y-2.6
X2.6Y-5.2
X7.2Y-2.6
X7.2Y-5.2
T0
M30
