M48
; DRILL file {KiCad (6.0.5)} date Fri Jan 13 09:29:19 2023
; FORMAT={-:-/ absolute / inch / decimal}
; #@! TF.CreationDate,2023-01-13T09:29:19-05:00
; #@! TF.GenerationSoftware,Kicad,Pcbnew,(6.0.5)
; #@! TF.FileFunction,Plated,1,8,PTH
FMAT,2
INCH
; #@! TA.AperFunction,Plated,PTH,ViaDrill
T1C0.0079
; #@! TA.AperFunction,Plated,PTH,ViaDrill
T2C0.0157
; #@! TA.AperFunction,Plated,PTH,ComponentDrill
T3C0.0197
; #@! TA.AperFunction,Plated,PTH,ComponentDrill
T4C0.0394
; #@! TA.AperFunction,Plated,PTH,ComponentDrill
T5C0.0630
%
G90
G05
T1
X2.4286Y-3.1751
X2.4286Y-3.2251
X2.4286Y-3.2751
X2.4286Y-3.3251
X2.4286Y-3.4251
X2.4286Y-3.4751
X2.4286Y-3.5251
X2.4286Y-3.5751
X2.4286Y-3.6251
X2.4286Y-3.6751
X2.4286Y-3.7251
X2.4286Y-3.8751
X2.4286Y-3.9251
X2.4286Y-3.9751
X2.4286Y-4.0251
X2.4286Y-4.0751
X2.4286Y-4.1251
X2.4286Y-4.1751
X2.4286Y-4.2251
X2.4286Y-4.2751
X2.4286Y-4.3251
X2.4286Y-4.3751
X2.4286Y-4.4251
X2.4286Y-4.4751
X2.4286Y-4.5251
X2.4286Y-4.5751
X2.43Y-3.3751
X2.43Y-3.7751
X2.43Y-3.8251
X2.551Y-4.67
X2.659Y-3.1749
X2.659Y-3.2249
X2.659Y-3.2749
X2.659Y-3.3249
X2.659Y-3.3749
X2.659Y-3.4249
X2.659Y-3.4749
X2.659Y-3.5249
X2.659Y-3.5749
X2.659Y-3.6249
X2.659Y-3.6749
X2.659Y-3.7249
X2.659Y-3.7749
X2.659Y-3.8249
X2.659Y-3.8749
X2.659Y-3.9249
X2.659Y-3.9749
X2.659Y-4.0249
X2.659Y-4.0749
X2.659Y-4.1249
X2.659Y-4.1749
X2.659Y-4.2249
X2.659Y-4.2749
X2.659Y-4.3249
X2.659Y-4.3749
X2.659Y-4.4249
X2.659Y-4.4749
X2.659Y-4.5249
X2.659Y-4.5749
X2.659Y-4.6249
X2.69Y-3.175
X2.69Y-3.225
X2.69Y-3.275
X2.69Y-3.325
X2.69Y-3.375
X2.69Y-3.425
X2.69Y-3.475
X2.69Y-3.525
X2.69Y-3.575
X2.69Y-3.625
X2.69Y-3.675
X2.69Y-3.725
X2.69Y-3.775
X2.69Y-3.825
X2.69Y-3.875
X2.69Y-3.925
X2.69Y-3.975
X2.69Y-4.025
X2.69Y-4.075
X2.69Y-4.125
X2.69Y-4.175
X2.69Y-4.225
X2.69Y-4.275
X2.69Y-4.325
X2.69Y-4.375
X2.69Y-4.425
X2.69Y-4.475
X2.69Y-4.525
X2.69Y-4.625
X2.6921Y-4.5755
X2.9213Y-3.975
X2.9214Y-3.2249
X2.9214Y-3.3249
X2.9214Y-3.3749
X2.9214Y-3.4249
X2.9214Y-3.6249
X2.9214Y-3.6749
X2.9214Y-3.7249
X2.9214Y-3.7749
X2.9214Y-3.8249
X2.9214Y-3.8749
X2.9214Y-3.9249
X2.9214Y-4.0249
X2.9214Y-4.0749
X2.9214Y-4.1249
X2.9214Y-4.2249
X2.9214Y-4.2749
X2.9214Y-4.3249
X2.9214Y-4.3749
X2.9214Y-4.4249
X2.9214Y-4.4749
X2.9214Y-4.5249
X2.9214Y-4.5749
X2.9214Y-4.6249
X2.9245Y-3.5677
X2.96Y-3.1749
X2.9802Y-3.3274
X3.19Y-4.0927
T2
X2.76Y-3.0536
X2.92Y-2.725
X3.01Y-2.68
X3.06Y-4.2
X3.1Y-4.24
X3.11Y-3.67
X3.17Y-2.78
X3.22Y-2.75
X3.33Y-3.59
X3.4Y-3.84
X3.45Y-4.18
X3.5Y-3.6
X3.5Y-3.7
X3.51Y-3.85
X3.66Y-3.8999
X3.67Y-2.84
X3.69Y-3.86
X3.82Y-2.84
X3.9959Y-3.8641
X4.02Y-4.21
X4.07Y-3.86
X4.08Y-2.85
X4.16Y-4.06
X4.19Y-2.84
X4.21Y-4.02
X4.25Y-3.98
X4.37Y-4.3386
X4.41Y-3.79
X4.55Y-2.86
X4.62Y-2.84
X4.67Y-4.35
X4.71Y-3.83
X4.78Y-4.06
X4.83Y-3.0114
X4.95Y-2.86
X4.97Y-4.34
X5.01Y-3.84
X5.02Y-2.84
X5.21Y-3.825
X5.27Y-4.34
X5.39Y-4.3
X5.45Y-2.86
X5.52Y-2.84
X5.57Y-4.34
X5.64Y-4.3
X5.85Y-2.86
X5.8676Y-3.8324
X5.92Y-2.84
X5.97Y-3.83
X6.25Y-2.86
X6.32Y-2.84
X6.32Y-3.77
X6.47Y-3.49
X6.64Y-2.86
X6.71Y-2.84
T3
X3.5526Y-4.525
X3.6Y-4.675
X3.65Y-4.825
X3.6776Y-4.525
X3.725Y-4.675
X3.775Y-4.825
X3.8026Y-4.525
X3.85Y-4.675
X3.9Y-4.825
X3.9276Y-4.525
X3.975Y-4.675
X4.025Y-4.825
X4.0526Y-4.525
X4.1Y-4.675
X4.15Y-4.825
X4.1776Y-4.525
X4.225Y-4.675
X4.275Y-4.825
X4.3026Y-4.525
X4.35Y-4.675
X4.4Y-4.825
X4.4276Y-4.525
X4.475Y-4.675
X4.525Y-4.825
X4.5526Y-4.525
X4.6Y-4.675
X4.65Y-4.825
X4.6776Y-4.525
X4.725Y-4.675
X4.775Y-4.825
X4.8026Y-4.525
X4.85Y-4.675
X4.9Y-4.825
X4.9276Y-4.525
X4.975Y-4.675
X5.025Y-4.825
X5.0526Y-4.525
X5.1Y-4.675
X5.15Y-4.825
X5.1776Y-4.525
X5.225Y-4.675
X5.275Y-4.825
X5.3026Y-4.525
X5.35Y-4.675
X5.4276Y-4.525
X5.475Y-4.675
X5.5526Y-4.525
X5.6776Y-4.525
T4
X2.6Y-2.85
X2.7Y-2.85
X2.85Y-2.6
X2.95Y-2.6
X2.95Y-2.85
X3.05Y-2.6
X3.05Y-2.85
X3.25Y-3.2
X3.25Y-3.65
X3.25Y-4.15
X3.25Y-4.575
X3.4Y-3.2
X3.4Y-3.65
X3.4Y-4.575
X3.6Y-3.2
X3.6Y-3.65
X3.675Y-4.15
X3.8Y-3.2
X3.8Y-3.65
X3.95Y-3.2
X3.95Y-3.65
X4.1Y-3.2
X4.1Y-3.65
X4.125Y-4.15
X4.25Y-3.2
X4.3Y-3.65
X4.325Y-4.15
X4.45Y-3.2
X4.475Y-4.15
X4.5Y-3.65
X4.625Y-4.15
X4.65Y-3.2
X4.65Y-3.65
X4.775Y-4.15
X4.8Y-3.2
X4.85Y-3.65
X4.925Y-4.15
X4.95Y-3.2
X5.05Y-3.65
X5.075Y-4.15
X5.1Y-3.2
X5.2Y-3.65
X5.225Y-4.15
X5.25Y-3.2
X5.35Y-3.65
X5.375Y-4.15
X5.4Y-3.2
X5.5Y-3.65
X5.5Y-4.9
X5.525Y-4.15
X5.6Y-3.2
X5.675Y-4.15
X5.7Y-3.65
X5.8Y-3.2
X5.9Y-3.65
X5.95Y-3.2
X6.05Y-3.65
X6.1Y-3.2
X6.2Y-3.65
X6.25Y-3.2
X6.35Y-3.65
X6.55Y-3.65
X6.7Y-3.2
X6.75Y-3.65
X6.9Y-3.2
X6.9Y-3.65
X7.05Y-3.2
X7.05Y-3.65
X7.25Y-3.2
X7.25Y-3.65
T5
X3.25Y-2.65
X3.45Y-2.65
X3.75Y-2.65
X3.95Y-2.65
X4.15Y-2.65
X4.35Y-2.65
X4.55Y-2.65
X4.75Y-2.65
X4.95Y-2.65
X5.15Y-2.65
X5.45Y-2.65
X5.65Y-2.65
X5.85Y-2.65
X6.05Y-2.65
X6.25Y-2.65
X6.45Y-2.65
X6.65Y-2.65
X6.85Y-2.65
T0
M30
