G04 #@! TF.GenerationSoftware,KiCad,Pcbnew,(5.1.9)-1*
G04 #@! TF.CreationDate,2021-12-19T15:19:46-05:00*
G04 #@! TF.ProjectId,backplane-breakout-FPC,6261636b-706c-4616-9e65-2d627265616b,rev?*
G04 #@! TF.SameCoordinates,Original*
G04 #@! TF.FileFunction,Copper,L4,Inr*
G04 #@! TF.FilePolarity,Positive*
%FSLAX46Y46*%
G04 Gerber Fmt 4.6, Leading zero omitted, Abs format (unit mm)*
G04 Created by KiCad (PCBNEW (5.1.9)-1) date 2021-12-19 15:19:46*
%MOMM*%
%LPD*%
G01*
G04 APERTURE LIST*
G04 #@! TA.AperFunction,ViaPad*
%ADD10C,0.500000*%
G04 #@! TD*
G04 #@! TA.AperFunction,Conductor*
%ADD11C,0.500000*%
G04 #@! TD*
G04 #@! TA.AperFunction,Conductor*
%ADD12C,0.250000*%
G04 #@! TD*
G04 APERTURE END LIST*
D10*
X132750000Y-31850000D03*
X132750000Y-184400000D03*
X132750000Y-176550000D03*
X132750000Y-24000000D03*
X132250000Y-32725000D03*
X132250000Y-184850000D03*
X132250000Y-175675000D03*
X132250000Y-23550000D03*
X131750000Y-31850000D03*
X131750000Y-184400000D03*
X131750000Y-176550000D03*
X131750000Y-24000000D03*
X131250000Y-32725000D03*
X131250000Y-184850000D03*
X131250000Y-175675000D03*
X131250000Y-23550000D03*
X130750000Y-31850000D03*
X130750000Y-184400000D03*
X130750000Y-176550000D03*
X130750000Y-24000000D03*
X130250000Y-32725000D03*
X130250000Y-184850000D03*
X130250000Y-175675000D03*
X130250000Y-23550000D03*
X129750000Y-31850000D03*
X129750000Y-184400000D03*
X129750000Y-176550000D03*
X129750000Y-24000000D03*
X129250000Y-32725000D03*
X129250000Y-184850000D03*
X129250000Y-175675000D03*
X129250000Y-23550000D03*
X128750000Y-31850000D03*
X128750000Y-184400000D03*
X128750000Y-176550000D03*
X128750000Y-24000000D03*
X128250000Y-32725000D03*
X128250000Y-184850000D03*
X128250000Y-175675000D03*
X128250000Y-23550000D03*
X127750000Y-31850000D03*
X127750000Y-184400000D03*
X127750000Y-176550000D03*
X127750000Y-24000000D03*
X127250000Y-32725000D03*
X127250000Y-184850000D03*
X149750000Y-31850000D03*
X140750000Y-32725000D03*
X139750000Y-32725000D03*
X139750000Y-175675000D03*
X139750000Y-184850000D03*
X140750000Y-184850000D03*
X149750000Y-176550000D03*
X149750000Y-184400000D03*
X149750000Y-24000000D03*
X139750000Y-23550000D03*
X126750000Y-31850000D03*
X126750000Y-184400000D03*
X126750000Y-176550000D03*
X126750000Y-24000000D03*
X126250000Y-184850000D03*
X126250000Y-32725000D03*
X126250000Y-175675000D03*
X126250000Y-23600000D03*
X125750000Y-184400000D03*
X125750000Y-31850000D03*
X125750000Y-176550000D03*
X125750000Y-24000000D03*
X124250000Y-184400000D03*
X124250000Y-31850000D03*
X124250000Y-176550000D03*
X124250000Y-24000000D03*
X123750000Y-184850000D03*
X123750000Y-32725000D03*
X123750000Y-175675000D03*
X123750000Y-23550000D03*
X123250000Y-184400000D03*
X123250000Y-31850000D03*
X123250000Y-176550000D03*
X123250000Y-24000000D03*
X122750000Y-184850000D03*
X122750000Y-32725000D03*
X122750000Y-175675000D03*
X122750000Y-23550000D03*
X122250000Y-184400000D03*
X122250000Y-31850000D03*
X122250000Y-176550000D03*
X122250000Y-24000000D03*
X121750000Y-184850000D03*
X121750000Y-32725000D03*
X121750000Y-175675000D03*
X121750000Y-23550000D03*
X121250000Y-184400000D03*
X121250000Y-31850000D03*
X121250000Y-176550000D03*
X121250000Y-24000000D03*
X120750000Y-184850000D03*
X120750000Y-32725000D03*
X120750000Y-175675000D03*
X120750000Y-23550000D03*
X120250000Y-184400000D03*
X120250000Y-31850000D03*
X120250000Y-176550000D03*
X120250000Y-24000000D03*
X119750000Y-184850000D03*
X119750000Y-32725000D03*
X119750000Y-175675000D03*
X119750000Y-23550000D03*
X119250000Y-184400000D03*
X119250000Y-31850000D03*
X119250000Y-176550000D03*
X119250000Y-24000000D03*
X118750000Y-184850000D03*
X118750000Y-32725000D03*
X118750000Y-175675000D03*
X118750000Y-23550000D03*
X118250000Y-184400000D03*
X118250000Y-31850000D03*
X118250000Y-176550000D03*
X118250000Y-24000000D03*
X117750000Y-184850000D03*
X117750000Y-32725000D03*
X117750000Y-175675000D03*
X117750000Y-23600000D03*
X117250000Y-184400000D03*
X117250000Y-31850000D03*
X117250000Y-176550000D03*
X117250000Y-24050000D03*
X153750000Y-31850000D03*
X153750000Y-184400000D03*
X153750000Y-176550000D03*
X153750000Y-24000000D03*
X153250000Y-32725000D03*
X153250000Y-184800000D03*
X153250000Y-175675000D03*
X153250000Y-23550000D03*
X152750000Y-31850000D03*
X152750000Y-184400000D03*
X152750000Y-176550000D03*
X152750000Y-24000000D03*
X152250000Y-32725000D03*
X152250000Y-184850000D03*
X152250000Y-175675000D03*
X152250000Y-23550000D03*
X151750000Y-31850000D03*
X151750000Y-184400000D03*
X151750000Y-176550000D03*
X151750000Y-24000000D03*
X151250000Y-32725000D03*
X151250000Y-184850000D03*
X151250000Y-175675000D03*
X151250000Y-23550000D03*
X150750000Y-31850000D03*
X150750000Y-184400000D03*
X150750000Y-176550000D03*
X150750000Y-24000000D03*
X150250000Y-32725000D03*
X150250000Y-184850000D03*
X150250000Y-175675000D03*
X150250000Y-23550000D03*
X149250000Y-32725000D03*
X149250000Y-184850000D03*
X149250000Y-175675000D03*
X149250000Y-23550000D03*
X148750000Y-31850000D03*
X148750000Y-184400000D03*
X148750000Y-176550000D03*
X148750000Y-24000000D03*
X148250000Y-32725000D03*
X148250000Y-184850000D03*
X148250000Y-175675000D03*
X148250000Y-23550000D03*
X147750000Y-31850000D03*
X147750000Y-184400000D03*
X147750000Y-176550000D03*
X147750000Y-24000000D03*
X147250000Y-32725000D03*
X147250000Y-184850000D03*
X147250000Y-175675000D03*
X147250000Y-23600000D03*
X146750000Y-31850000D03*
X146750000Y-184400000D03*
X146750000Y-176550000D03*
X146750000Y-24050000D03*
X145250000Y-31850000D03*
X145250000Y-184400000D03*
X145250000Y-176550000D03*
X145250000Y-24000000D03*
X144750000Y-32725000D03*
X144750000Y-184800000D03*
X144750000Y-175675000D03*
X144750000Y-23550000D03*
X144250000Y-31850000D03*
X144250000Y-184400000D03*
X144250000Y-176550000D03*
X144250000Y-24000000D03*
X143750000Y-32725000D03*
X143750000Y-184850000D03*
X143750000Y-175675000D03*
X143750000Y-23550000D03*
X143250000Y-31850000D03*
X143250000Y-184400000D03*
X143250000Y-176550000D03*
X143250000Y-24000000D03*
X142750000Y-32725000D03*
X142750000Y-184850000D03*
X142750000Y-175675000D03*
X142750000Y-23550000D03*
X142250000Y-31850000D03*
X142250000Y-184400000D03*
X142250000Y-176550000D03*
X142250000Y-24000000D03*
X141750000Y-32725000D03*
X141750000Y-184850000D03*
X141750000Y-175675000D03*
X141750000Y-23550000D03*
X141250000Y-31850000D03*
X141250000Y-184400000D03*
X141250000Y-176550000D03*
X141250000Y-24000000D03*
X140750000Y-175675000D03*
X140750000Y-23550000D03*
X140250000Y-31850000D03*
X140250000Y-184400000D03*
X140250000Y-176550000D03*
X140250000Y-24000000D03*
X139250000Y-31850000D03*
X139250000Y-184400000D03*
X139250000Y-176550000D03*
X139250000Y-24000000D03*
X138750000Y-184850000D03*
X138750000Y-32725000D03*
X138750000Y-175675000D03*
X138750000Y-23600000D03*
X138250000Y-184400000D03*
X138250000Y-31850000D03*
X138250000Y-176550000D03*
X138250000Y-24000000D03*
X127250000Y-175675000D03*
X127250000Y-23550000D03*
D11*
X132250000Y-32725000D02*
X132250000Y-174786998D01*
X132250000Y-184050000D02*
X132250000Y-176938002D01*
D12*
X131774999Y-175871997D02*
X131774999Y-175475001D01*
X132250000Y-176346998D02*
X131774999Y-175871997D01*
X132250000Y-184850000D02*
X132250000Y-176346998D01*
X131774999Y-175475001D02*
X132250000Y-175000000D01*
X132250000Y-175000000D02*
X132250000Y-32725000D01*
D11*
X132250000Y-174786998D02*
X132250000Y-175000000D01*
X131250000Y-32725000D02*
X131250000Y-174786998D01*
X131250000Y-184050000D02*
X131250000Y-176938002D01*
D12*
X130774999Y-175871997D02*
X130774999Y-175475001D01*
X131250000Y-176346998D02*
X130774999Y-175871997D01*
X131250000Y-184850000D02*
X131250000Y-176346998D01*
X130774999Y-175475001D02*
X131250000Y-175000000D01*
X131250000Y-175000000D02*
X131250000Y-32725000D01*
D11*
X131250000Y-174786998D02*
X131250000Y-175000000D01*
X130250000Y-32725000D02*
X130250000Y-174786998D01*
X130250000Y-184050000D02*
X130250000Y-176938002D01*
D12*
X129774999Y-175871997D02*
X129774999Y-175475001D01*
X130250000Y-176346998D02*
X129774999Y-175871997D01*
X130250000Y-184850000D02*
X130250000Y-176346998D01*
X129774999Y-175475001D02*
X130250000Y-175000000D01*
X130250000Y-175000000D02*
X130250000Y-32725000D01*
D11*
X130250000Y-174786998D02*
X130250000Y-175000000D01*
X129250000Y-32725000D02*
X129250000Y-174786998D01*
X129250000Y-184050000D02*
X129250000Y-176938002D01*
D12*
X128774999Y-175871997D02*
X128774999Y-175475001D01*
X129250000Y-176346998D02*
X128774999Y-175871997D01*
X129250000Y-184850000D02*
X129250000Y-176346998D01*
X128774999Y-175475001D02*
X129250000Y-175000000D01*
X129250000Y-175000000D02*
X129250000Y-32725000D01*
D11*
X129250000Y-174786998D02*
X129250000Y-175000000D01*
X128250000Y-32725000D02*
X128250000Y-174786998D01*
X128250000Y-184050000D02*
X128250000Y-176938002D01*
D12*
X127774999Y-175871997D02*
X127774999Y-175475001D01*
X128250000Y-176346998D02*
X127774999Y-175871997D01*
X128250000Y-184850000D02*
X128250000Y-176346998D01*
X127774999Y-175475001D02*
X128250000Y-175000000D01*
X128250000Y-175000000D02*
X128250000Y-32725000D01*
D11*
X128250000Y-174786998D02*
X128250000Y-175000000D01*
X127250000Y-32725000D02*
X127250000Y-174786998D01*
X127250000Y-184050000D02*
X127250000Y-176938002D01*
D12*
X126774999Y-175871997D02*
X126774999Y-175475001D01*
X127250000Y-176346998D02*
X126774999Y-175871997D01*
X127250000Y-184850000D02*
X127250000Y-176346998D01*
X126774999Y-175475001D02*
X127250000Y-175000000D01*
X127250000Y-175000000D02*
X127250000Y-32725000D01*
D11*
X127250000Y-174786998D02*
X127250000Y-175000000D01*
D12*
X140274999Y-175871997D02*
X140274999Y-175475001D01*
X140750000Y-176346998D02*
X140274999Y-175871997D01*
X140750000Y-175000000D02*
X140750000Y-32725000D01*
X140750000Y-184850000D02*
X140750000Y-176346998D01*
X140274999Y-175475001D02*
X140750000Y-175000000D01*
D11*
X140750000Y-184050000D02*
X140750000Y-176938002D01*
X140750000Y-174786998D02*
X140750000Y-175000000D01*
X140750000Y-32725000D02*
X140750000Y-174786998D01*
D12*
X139274999Y-175871997D02*
X139274999Y-175475001D01*
X139750000Y-175000000D02*
X139750000Y-32725000D01*
X139750000Y-176346998D02*
X139274999Y-175871997D01*
X139750000Y-184850000D02*
X139750000Y-176346998D01*
X139274999Y-175475001D02*
X139750000Y-175000000D01*
D11*
X139750000Y-184050000D02*
X139750000Y-176938002D01*
X139750000Y-174786998D02*
X139750000Y-175000000D01*
X139750000Y-32725000D02*
X139750000Y-174786998D01*
D12*
X140274999Y-175871997D02*
X140274999Y-175475001D01*
X140750000Y-176346998D02*
X140274999Y-175871997D01*
X140750000Y-184850000D02*
X140750000Y-176346998D01*
X140750000Y-175000000D02*
X140750000Y-32725000D01*
X140274999Y-175475001D02*
X140750000Y-175000000D01*
X139274999Y-175871997D02*
X139274999Y-175475001D01*
X139750000Y-176346998D02*
X139274999Y-175871997D01*
X139750000Y-184850000D02*
X139750000Y-176346998D01*
X139750000Y-175000000D02*
X139750000Y-32725000D01*
X139274999Y-175475001D02*
X139750000Y-175000000D01*
D11*
X126250000Y-32725000D02*
X126250000Y-174786998D01*
X126250000Y-184050000D02*
X126250000Y-176938002D01*
D12*
X125774999Y-175871997D02*
X125774999Y-175475001D01*
X126250000Y-176346998D02*
X125774999Y-175871997D01*
X126250000Y-184850000D02*
X126250000Y-176346998D01*
X125774999Y-175475001D02*
X126250000Y-175000000D01*
X126250000Y-175000000D02*
X126250000Y-32725000D01*
D11*
X126250000Y-174786998D02*
X126250000Y-175000000D01*
X123750000Y-32725000D02*
X123750000Y-174786998D01*
X123750000Y-184050000D02*
X123750000Y-176938002D01*
D12*
X123274999Y-175871997D02*
X123274999Y-175475001D01*
X123750000Y-176346998D02*
X123274999Y-175871997D01*
X123750000Y-184850000D02*
X123750000Y-176346998D01*
X123274999Y-175475001D02*
X123750000Y-175000000D01*
X123750000Y-175000000D02*
X123750000Y-32725000D01*
D11*
X123750000Y-174786998D02*
X123750000Y-175000000D01*
X122750000Y-32725000D02*
X122750000Y-174786998D01*
X122750000Y-184050000D02*
X122750000Y-176938002D01*
D12*
X122274999Y-175871997D02*
X122274999Y-175475001D01*
X122750000Y-176346998D02*
X122274999Y-175871997D01*
X122750000Y-184850000D02*
X122750000Y-176346998D01*
X122274999Y-175475001D02*
X122750000Y-175000000D01*
X122750000Y-175000000D02*
X122750000Y-32725000D01*
D11*
X122750000Y-174786998D02*
X122750000Y-175000000D01*
X121750000Y-32725000D02*
X121750000Y-174786998D01*
X121750000Y-184050000D02*
X121750000Y-176938002D01*
D12*
X121274999Y-175871997D02*
X121274999Y-175475001D01*
X121750000Y-176346998D02*
X121274999Y-175871997D01*
X121750000Y-184850000D02*
X121750000Y-176346998D01*
X121274999Y-175475001D02*
X121750000Y-175000000D01*
X121750000Y-175000000D02*
X121750000Y-32725000D01*
D11*
X121750000Y-174786998D02*
X121750000Y-175000000D01*
X120750000Y-32725000D02*
X120750000Y-174786998D01*
X120750000Y-184050000D02*
X120750000Y-176938002D01*
D12*
X120274999Y-175871997D02*
X120274999Y-175475001D01*
X120750000Y-176346998D02*
X120274999Y-175871997D01*
X120750000Y-184850000D02*
X120750000Y-176346998D01*
X120274999Y-175475001D02*
X120750000Y-175000000D01*
X120750000Y-175000000D02*
X120750000Y-32725000D01*
D11*
X120750000Y-174786998D02*
X120750000Y-175000000D01*
X119750000Y-32725000D02*
X119750000Y-174786998D01*
X119750000Y-184050000D02*
X119750000Y-176938002D01*
D12*
X119274999Y-175871997D02*
X119274999Y-175475001D01*
X119750000Y-176346998D02*
X119274999Y-175871997D01*
X119750000Y-184850000D02*
X119750000Y-176346998D01*
X119274999Y-175475001D02*
X119750000Y-175000000D01*
X119750000Y-175000000D02*
X119750000Y-32725000D01*
D11*
X119750000Y-174786998D02*
X119750000Y-175000000D01*
X118750000Y-32725000D02*
X118750000Y-174786998D01*
X118750000Y-184050000D02*
X118750000Y-176938002D01*
D12*
X118274999Y-175871997D02*
X118274999Y-175475001D01*
X118750000Y-176346998D02*
X118274999Y-175871997D01*
X118750000Y-184850000D02*
X118750000Y-176346998D01*
X118274999Y-175475001D02*
X118750000Y-175000000D01*
X118750000Y-175000000D02*
X118750000Y-32725000D01*
D11*
X118750000Y-174786998D02*
X118750000Y-175000000D01*
D12*
X117274999Y-175871997D02*
X117274999Y-175475001D01*
X117750000Y-176346998D02*
X117274999Y-175871997D01*
X117274999Y-175475001D02*
X117750000Y-175000000D01*
D11*
X117750000Y-184050000D02*
X117750000Y-176938002D01*
D12*
X117750000Y-184850000D02*
X117750000Y-184050000D01*
X117750000Y-184050000D02*
X117750000Y-176346998D01*
D11*
X117750000Y-32725000D02*
X117750000Y-175000000D01*
D12*
X153250000Y-184850000D02*
X153250000Y-176346998D01*
X152774999Y-175871997D02*
X152774999Y-175475001D01*
X153250000Y-175000000D02*
X153250000Y-32725000D01*
X152774999Y-175475001D02*
X153250000Y-175000000D01*
X153250000Y-176346998D02*
X152774999Y-175871997D01*
D11*
X153250000Y-184050000D02*
X153250000Y-176938002D01*
X153250000Y-174786998D02*
X153250000Y-175000000D01*
X153250000Y-32725000D02*
X153250000Y-174786998D01*
D12*
X153250000Y-176378002D02*
X153250000Y-184800000D01*
X152774999Y-175903001D02*
X153250000Y-176378002D01*
X152774999Y-175425001D02*
X152774999Y-175903001D01*
X153250000Y-174950000D02*
X152774999Y-175425001D01*
X153250000Y-32675000D02*
X153250000Y-174950000D01*
X152250000Y-175000000D02*
X152250000Y-32725000D01*
X151774999Y-175475001D02*
X152250000Y-175000000D01*
X152250000Y-184850000D02*
X152250000Y-176346998D01*
X151774999Y-175871997D02*
X151774999Y-175475001D01*
X152250000Y-176346998D02*
X151774999Y-175871997D01*
D11*
X152250000Y-184050000D02*
X152250000Y-176938002D01*
X152250000Y-32725000D02*
X152250000Y-174786998D01*
X152250000Y-174786998D02*
X152250000Y-175000000D01*
D12*
X151774999Y-175871997D02*
X151774999Y-175475001D01*
X152250000Y-176346998D02*
X151774999Y-175871997D01*
X152250000Y-184850000D02*
X152250000Y-176346998D01*
X152250000Y-175000000D02*
X152250000Y-32725000D01*
X151774999Y-175475001D02*
X152250000Y-175000000D01*
X150774999Y-175475001D02*
X151250000Y-175000000D01*
X150774999Y-175871997D02*
X150774999Y-175475001D01*
X151250000Y-184850000D02*
X151250000Y-176346998D01*
X151250000Y-176346998D02*
X150774999Y-175871997D01*
X151250000Y-175000000D02*
X151250000Y-32725000D01*
D11*
X151250000Y-184050000D02*
X151250000Y-176938002D01*
X151250000Y-32725000D02*
X151250000Y-174786998D01*
X151250000Y-174786998D02*
X151250000Y-175000000D01*
D12*
X150774999Y-175871997D02*
X150774999Y-175475001D01*
X151250000Y-176346998D02*
X150774999Y-175871997D01*
X151250000Y-184850000D02*
X151250000Y-176346998D01*
X151250000Y-175000000D02*
X151250000Y-32725000D01*
X150774999Y-175475001D02*
X151250000Y-175000000D01*
X150250000Y-176346998D02*
X149774999Y-175871997D01*
X150250000Y-184850000D02*
X150250000Y-176346998D01*
X149774999Y-175871997D02*
X149774999Y-175475001D01*
X149774999Y-175475001D02*
X150250000Y-175000000D01*
X150250000Y-175000000D02*
X150250000Y-32725000D01*
D11*
X150250000Y-184050000D02*
X150250000Y-176938002D01*
X150250000Y-174786998D02*
X150250000Y-175000000D01*
X150250000Y-32725000D02*
X150250000Y-174786998D01*
D12*
X149250000Y-176346998D02*
X148774999Y-175871997D01*
X148774999Y-175475001D02*
X149250000Y-175000000D01*
X149250000Y-175000000D02*
X149250000Y-32725000D01*
X149250000Y-184850000D02*
X149250000Y-176346998D01*
X148774999Y-175871997D02*
X148774999Y-175475001D01*
D11*
X149250000Y-184050000D02*
X149250000Y-176938002D01*
X149250000Y-174786998D02*
X149250000Y-175000000D01*
X149250000Y-32725000D02*
X149250000Y-174786998D01*
D12*
X148774999Y-175871997D02*
X148774999Y-175475001D01*
X149250000Y-176346998D02*
X148774999Y-175871997D01*
X149250000Y-184850000D02*
X149250000Y-176346998D01*
X149250000Y-175000000D02*
X149250000Y-32725000D01*
X148774999Y-175475001D02*
X149250000Y-175000000D01*
X148250000Y-184850000D02*
X148250000Y-176346998D01*
X147774999Y-175871997D02*
X147774999Y-175475001D01*
X148250000Y-176346998D02*
X147774999Y-175871997D01*
X147774999Y-175475001D02*
X148250000Y-175000000D01*
X148250000Y-175000000D02*
X148250000Y-32725000D01*
D11*
X148250000Y-184050000D02*
X148250000Y-176938002D01*
X148250000Y-174786998D02*
X148250000Y-175000000D01*
X148250000Y-32725000D02*
X148250000Y-174786998D01*
D12*
X147774999Y-175871997D02*
X147774999Y-175475001D01*
X148250000Y-176346998D02*
X147774999Y-175871997D01*
X148250000Y-184850000D02*
X148250000Y-176346998D01*
X148250000Y-175000000D02*
X148250000Y-32725000D01*
X147774999Y-175475001D02*
X148250000Y-175000000D01*
X146774999Y-175871997D02*
X146774999Y-175475001D01*
X147250000Y-184850000D02*
X147250000Y-176346998D01*
X147250000Y-176346998D02*
X146774999Y-175871997D01*
X146774999Y-175475001D02*
X147250000Y-175000000D01*
X147250000Y-175000000D02*
X147250000Y-32725000D01*
D11*
X147250000Y-184050000D02*
X147250000Y-176938002D01*
X147250000Y-32725000D02*
X147250000Y-174786998D01*
X147250000Y-174786998D02*
X147250000Y-175000000D01*
D12*
X146774999Y-175871997D02*
X146774999Y-175475001D01*
X147250000Y-176346998D02*
X146774999Y-175871997D01*
X147250000Y-184850000D02*
X147250000Y-176346998D01*
X147250000Y-175000000D02*
X147250000Y-32725000D01*
X146774999Y-175475001D02*
X147250000Y-175000000D01*
X144274999Y-175475001D02*
X144750000Y-175000000D01*
X144274999Y-175871997D02*
X144274999Y-175475001D01*
X144750000Y-176346998D02*
X144274999Y-175871997D01*
X144750000Y-175000000D02*
X144750000Y-32725000D01*
X144750000Y-184850000D02*
X144750000Y-176346998D01*
D11*
X144750000Y-184050000D02*
X144750000Y-176938002D01*
X144750000Y-32725000D02*
X144750000Y-174786998D01*
X144750000Y-174786998D02*
X144750000Y-175000000D01*
D12*
X144750000Y-176346998D02*
X144750000Y-184800000D01*
X144274999Y-175871997D02*
X144750000Y-176346998D01*
X144274999Y-175446999D02*
X144274999Y-175871997D01*
X144750000Y-174971998D02*
X144274999Y-175446999D01*
X144750000Y-32675000D02*
X144750000Y-174971998D01*
X143750000Y-184850000D02*
X143750000Y-176346998D01*
X143274999Y-175871997D02*
X143274999Y-175475001D01*
X143750000Y-175000000D02*
X143750000Y-32725000D01*
X143750000Y-176346998D02*
X143274999Y-175871997D01*
X143274999Y-175475001D02*
X143750000Y-175000000D01*
D11*
X143750000Y-184050000D02*
X143750000Y-176938002D01*
X143750000Y-32725000D02*
X143750000Y-174786998D01*
X143750000Y-174786998D02*
X143750000Y-175000000D01*
D12*
X143274999Y-175871997D02*
X143274999Y-175475001D01*
X143750000Y-176346998D02*
X143274999Y-175871997D01*
X143750000Y-184850000D02*
X143750000Y-176346998D01*
X143750000Y-175000000D02*
X143750000Y-32725000D01*
X143274999Y-175475001D02*
X143750000Y-175000000D01*
X142274999Y-175871997D02*
X142274999Y-175475001D01*
X142750000Y-175000000D02*
X142750000Y-32725000D01*
X142750000Y-176346998D02*
X142274999Y-175871997D01*
X142750000Y-184850000D02*
X142750000Y-176346998D01*
X142274999Y-175475001D02*
X142750000Y-175000000D01*
D11*
X142750000Y-184050000D02*
X142750000Y-176938002D01*
X142750000Y-174786998D02*
X142750000Y-175000000D01*
X142750000Y-32725000D02*
X142750000Y-174786998D01*
D12*
X142274999Y-175871997D02*
X142274999Y-175475001D01*
X142750000Y-176346998D02*
X142274999Y-175871997D01*
X142750000Y-184850000D02*
X142750000Y-176346998D01*
X142750000Y-175000000D02*
X142750000Y-32725000D01*
X142274999Y-175475001D02*
X142750000Y-175000000D01*
X141750000Y-175000000D02*
X141750000Y-32725000D01*
X141750000Y-176346998D02*
X141274999Y-175871997D01*
X141750000Y-184850000D02*
X141750000Y-176346998D01*
X141274999Y-175475001D02*
X141750000Y-175000000D01*
X141274999Y-175871997D02*
X141274999Y-175475001D01*
D11*
X141750000Y-184050000D02*
X141750000Y-176938002D01*
X141750000Y-174786998D02*
X141750000Y-175000000D01*
X141750000Y-32725000D02*
X141750000Y-174786998D01*
D12*
X141274999Y-175871997D02*
X141274999Y-175475001D01*
X141750000Y-176346998D02*
X141274999Y-175871997D01*
X141750000Y-184850000D02*
X141750000Y-176346998D01*
X141750000Y-175000000D02*
X141750000Y-32725000D01*
X141274999Y-175475001D02*
X141750000Y-175000000D01*
X138274999Y-175475001D02*
X138750000Y-175000000D01*
X138750000Y-176346998D02*
X138274999Y-175871997D01*
X138274999Y-175871997D02*
X138274999Y-175475001D01*
D11*
X138750000Y-32725000D02*
X138750000Y-175000000D01*
D12*
X138750000Y-184850000D02*
X138750000Y-184050000D01*
X138750000Y-184050000D02*
X138750000Y-176346998D01*
D11*
X138750000Y-184050000D02*
X138750000Y-176938002D01*
D12*
X138274999Y-175871997D02*
X138274999Y-175475001D01*
X138750000Y-176346998D02*
X138274999Y-175871997D01*
X138750000Y-184850000D02*
X138750000Y-176346998D01*
X138750000Y-175000000D02*
X138750000Y-32725000D01*
X138274999Y-175475001D02*
X138750000Y-175000000D01*
M02*
