G04 #@! TF.GenerationSoftware,KiCad,Pcbnew,(5.1.9)-1*
G04 #@! TF.CreationDate,2021-12-19T15:19:46-05:00*
G04 #@! TF.ProjectId,backplane-breakout-FPC,6261636b-706c-4616-9e65-2d627265616b,rev?*
G04 #@! TF.SameCoordinates,Original*
G04 #@! TF.FileFunction,Copper,L6,Bot*
G04 #@! TF.FilePolarity,Positive*
%FSLAX46Y46*%
G04 Gerber Fmt 4.6, Leading zero omitted, Abs format (unit mm)*
G04 Created by KiCad (PCBNEW (5.1.9)-1) date 2021-12-19 15:19:46*
%MOMM*%
%LPD*%
G01*
G04 APERTURE LIST*
G04 #@! TA.AperFunction,SMDPad,CuDef*
%ADD10R,0.280000X1.350000*%
G04 #@! TD*
G04 #@! TA.AperFunction,ViaPad*
%ADD11C,0.500000*%
G04 #@! TD*
G04 #@! TA.AperFunction,Conductor*
%ADD12C,0.250000*%
G04 #@! TD*
G04 APERTURE END LIST*
D10*
X132750000Y-30950000D03*
X132750000Y-25050000D03*
X132250000Y-30950000D03*
X132250000Y-25050000D03*
X131750000Y-30950000D03*
X131750000Y-25050000D03*
X131250000Y-30950000D03*
X131250000Y-25050000D03*
X130750000Y-30950000D03*
X130750000Y-25050000D03*
X130250000Y-30950000D03*
X130250000Y-25050000D03*
X129750000Y-30950000D03*
X129750000Y-25050000D03*
X129250000Y-30950000D03*
X129250000Y-25050000D03*
X128750000Y-30950000D03*
X128750000Y-25050000D03*
X128250000Y-30950000D03*
X128250000Y-25050000D03*
X127750000Y-30950000D03*
X127750000Y-25050000D03*
X127250000Y-30950000D03*
X127250000Y-25050000D03*
X126750000Y-30950000D03*
X126750000Y-25050000D03*
X126250000Y-30950000D03*
X126250000Y-25050000D03*
X125750000Y-30950000D03*
X125750000Y-25050000D03*
X124250000Y-30950000D03*
X124250000Y-25050000D03*
X123750000Y-30950000D03*
X123750000Y-25050000D03*
X123250000Y-30950000D03*
X123250000Y-25050000D03*
X122750000Y-30950000D03*
X122750000Y-25050000D03*
X122250000Y-30950000D03*
X122250000Y-25050000D03*
X121750000Y-30950000D03*
X121750000Y-25050000D03*
X121250000Y-30950000D03*
X121250000Y-25050000D03*
X120750000Y-30950000D03*
X120750000Y-25050000D03*
X120250000Y-30950000D03*
X120250000Y-25050000D03*
X119750000Y-30950000D03*
X119750000Y-25050000D03*
X119250000Y-30950000D03*
X119250000Y-25050000D03*
X118750000Y-30950000D03*
X118750000Y-25050000D03*
X118250000Y-30950000D03*
X118250000Y-25050000D03*
X117750000Y-30950000D03*
X117750000Y-25050000D03*
X117250000Y-30950000D03*
X117250000Y-25050000D03*
X153750000Y-183350000D03*
X153750000Y-177450000D03*
X153250000Y-183350000D03*
X153250000Y-177450000D03*
X152750000Y-183350000D03*
X152750000Y-177450000D03*
X152250000Y-183350000D03*
X152250000Y-177450000D03*
X151750000Y-183350000D03*
X151750000Y-177450000D03*
X151250000Y-183350000D03*
X151250000Y-177450000D03*
X150750000Y-183350000D03*
X150750000Y-177450000D03*
X150250000Y-183350000D03*
X150250000Y-177450000D03*
X149750000Y-183350000D03*
X149750000Y-177450000D03*
X149250000Y-183350000D03*
X149250000Y-177450000D03*
X148750000Y-183350000D03*
X148750000Y-177450000D03*
X148250000Y-183350000D03*
X148250000Y-177450000D03*
X147750000Y-183350000D03*
X147750000Y-177450000D03*
X147250000Y-183350000D03*
X147250000Y-177450000D03*
X146750000Y-183350000D03*
X146750000Y-177450000D03*
X145250000Y-183350000D03*
X145250000Y-177450000D03*
X144750000Y-183350000D03*
X144750000Y-177450000D03*
X144250000Y-183350000D03*
X144250000Y-177450000D03*
X143750000Y-183350000D03*
X143750000Y-177450000D03*
X143250000Y-183350000D03*
X143250000Y-177450000D03*
X142750000Y-183350000D03*
X142750000Y-177450000D03*
X142250000Y-183350000D03*
X142250000Y-177450000D03*
X141750000Y-183350000D03*
X141750000Y-177450000D03*
X141250000Y-183350000D03*
X141250000Y-177450000D03*
X140750000Y-183350000D03*
X140750000Y-177450000D03*
X140250000Y-183350000D03*
X140250000Y-177450000D03*
X139750000Y-183350000D03*
X139750000Y-177450000D03*
X139250000Y-183350000D03*
X139250000Y-177450000D03*
X138750000Y-183350000D03*
X138750000Y-177450000D03*
X138250000Y-183350000D03*
X138250000Y-177450000D03*
X132750000Y-183350000D03*
X132750000Y-177450000D03*
X132250000Y-183350000D03*
X132250000Y-177450000D03*
X131750000Y-183350000D03*
X131750000Y-177450000D03*
X131250000Y-183350000D03*
X131250000Y-177450000D03*
X130750000Y-183350000D03*
X130750000Y-177450000D03*
X130250000Y-183350000D03*
X130250000Y-177450000D03*
X129750000Y-183350000D03*
X129750000Y-177450000D03*
X129250000Y-183350000D03*
X129250000Y-177450000D03*
X128750000Y-183350000D03*
X128750000Y-177450000D03*
X128250000Y-183350000D03*
X128250000Y-177450000D03*
X127750000Y-183350000D03*
X127750000Y-177450000D03*
X127250000Y-183350000D03*
X127250000Y-177450000D03*
X126750000Y-183350000D03*
X126750000Y-177450000D03*
X126250000Y-183350000D03*
X126250000Y-177450000D03*
X125750000Y-183350000D03*
X125750000Y-177450000D03*
X124250000Y-183350000D03*
X124250000Y-177450000D03*
X123750000Y-183350000D03*
X123750000Y-177450000D03*
X123250000Y-183350000D03*
X123250000Y-177450000D03*
X122750000Y-183350000D03*
X122750000Y-177450000D03*
X122250000Y-183350000D03*
X122250000Y-177450000D03*
X121750000Y-183350000D03*
X121750000Y-177450000D03*
X121250000Y-183350000D03*
X121250000Y-177450000D03*
X120750000Y-183350000D03*
X120750000Y-177450000D03*
X120250000Y-183350000D03*
X120250000Y-177450000D03*
X119750000Y-183350000D03*
X119750000Y-177450000D03*
X119250000Y-183350000D03*
X119250000Y-177450000D03*
X118750000Y-183350000D03*
X118750000Y-177450000D03*
X118250000Y-183350000D03*
X118250000Y-177450000D03*
X117750000Y-183350000D03*
X117750000Y-177450000D03*
X117250000Y-183350000D03*
X117250000Y-177450000D03*
X153750000Y-30950000D03*
X153750000Y-25050000D03*
X153250000Y-30950000D03*
X153250000Y-25050000D03*
X152750000Y-30950000D03*
X152750000Y-25050000D03*
X152250000Y-30950000D03*
X152250000Y-25050000D03*
X151750000Y-30950000D03*
X151750000Y-25050000D03*
X151250000Y-30950000D03*
X151250000Y-25050000D03*
X150750000Y-30950000D03*
X150750000Y-25050000D03*
X150250000Y-30950000D03*
X150250000Y-25050000D03*
X149750000Y-30950000D03*
X149750000Y-25050000D03*
X149250000Y-30950000D03*
X149250000Y-25050000D03*
X148750000Y-30950000D03*
X148750000Y-25050000D03*
X148250000Y-30950000D03*
X148250000Y-25050000D03*
X147750000Y-30950000D03*
X147750000Y-25050000D03*
X147250000Y-30950000D03*
X147250000Y-25050000D03*
X146750000Y-30950000D03*
X146750000Y-25050000D03*
X145250000Y-30950000D03*
X145250000Y-25050000D03*
X144750000Y-30950000D03*
X144750000Y-25050000D03*
X144250000Y-30950000D03*
X144250000Y-25050000D03*
X143750000Y-30950000D03*
X143750000Y-25050000D03*
X143250000Y-30950000D03*
X143250000Y-25050000D03*
X142750000Y-30950000D03*
X142750000Y-25050000D03*
X142250000Y-30950000D03*
X142250000Y-25050000D03*
X141750000Y-30950000D03*
X141750000Y-25050000D03*
X141250000Y-30950000D03*
X141250000Y-25050000D03*
X140750000Y-30950000D03*
X140750000Y-25050000D03*
X140250000Y-30950000D03*
X140250000Y-25050000D03*
X139750000Y-30950000D03*
X139750000Y-25050000D03*
X139250000Y-30950000D03*
X139250000Y-25050000D03*
X138750000Y-30950000D03*
X138750000Y-25050000D03*
X138250000Y-30950000D03*
X138250000Y-25050000D03*
D11*
X132750000Y-31850000D03*
X132750000Y-184400000D03*
X132750000Y-176550000D03*
X132750000Y-24000000D03*
X132250000Y-32725000D03*
X132250000Y-184850000D03*
X132250000Y-175675000D03*
X132250000Y-23550000D03*
X131750000Y-31850000D03*
X131750000Y-184400000D03*
X131750000Y-176550000D03*
X131750000Y-24000000D03*
X131250000Y-32725000D03*
X131250000Y-184850000D03*
X131250000Y-175675000D03*
X131250000Y-23550000D03*
X130750000Y-31850000D03*
X130750000Y-184400000D03*
X130750000Y-176550000D03*
X130750000Y-24000000D03*
X130250000Y-32725000D03*
X130250000Y-184850000D03*
X130250000Y-175675000D03*
X130250000Y-23550000D03*
X129750000Y-31850000D03*
X129750000Y-184400000D03*
X129750000Y-176550000D03*
X129750000Y-24000000D03*
X129250000Y-32725000D03*
X129250000Y-184850000D03*
X129250000Y-175675000D03*
X129250000Y-23550000D03*
X128750000Y-31850000D03*
X128750000Y-184400000D03*
X128750000Y-176550000D03*
X128750000Y-24000000D03*
X128250000Y-32725000D03*
X128250000Y-184850000D03*
X128250000Y-175675000D03*
X128250000Y-23550000D03*
X127750000Y-31850000D03*
X127750000Y-184400000D03*
X127750000Y-176550000D03*
X127750000Y-24000000D03*
X127250000Y-32725000D03*
X127250000Y-184850000D03*
X149750000Y-31850000D03*
X140750000Y-32725000D03*
X139750000Y-32725000D03*
X139750000Y-175675000D03*
X139750000Y-184850000D03*
X140750000Y-184850000D03*
X149750000Y-176550000D03*
X149750000Y-184400000D03*
X149750000Y-24000000D03*
X139750000Y-23550000D03*
X126750000Y-31850000D03*
X126750000Y-184400000D03*
X126750000Y-176550000D03*
X126750000Y-24000000D03*
X126250000Y-184850000D03*
X126250000Y-32725000D03*
X126250000Y-175675000D03*
X126250000Y-23600000D03*
X125750000Y-184400000D03*
X125750000Y-31850000D03*
X125750000Y-176550000D03*
X125750000Y-24000000D03*
X124250000Y-184400000D03*
X124250000Y-31850000D03*
X124250000Y-176550000D03*
X124250000Y-24000000D03*
X123750000Y-184850000D03*
X123750000Y-32725000D03*
X123750000Y-175675000D03*
X123750000Y-23550000D03*
X123250000Y-184400000D03*
X123250000Y-31850000D03*
X123250000Y-176550000D03*
X123250000Y-24000000D03*
X122750000Y-184850000D03*
X122750000Y-32725000D03*
X122750000Y-175675000D03*
X122750000Y-23550000D03*
X122250000Y-184400000D03*
X122250000Y-31850000D03*
X122250000Y-176550000D03*
X122250000Y-24000000D03*
X121750000Y-184850000D03*
X121750000Y-32725000D03*
X121750000Y-175675000D03*
X121750000Y-23550000D03*
X121250000Y-184400000D03*
X121250000Y-31850000D03*
X121250000Y-176550000D03*
X121250000Y-24000000D03*
X120750000Y-184850000D03*
X120750000Y-32725000D03*
X120750000Y-175675000D03*
X120750000Y-23550000D03*
X120250000Y-184400000D03*
X120250000Y-31850000D03*
X120250000Y-176550000D03*
X120250000Y-24000000D03*
X119750000Y-184850000D03*
X119750000Y-32725000D03*
X119750000Y-175675000D03*
X119750000Y-23550000D03*
X119250000Y-184400000D03*
X119250000Y-31850000D03*
X119250000Y-176550000D03*
X119250000Y-24000000D03*
X118750000Y-184850000D03*
X118750000Y-32725000D03*
X118750000Y-175675000D03*
X118750000Y-23550000D03*
X118250000Y-184400000D03*
X118250000Y-31850000D03*
X118250000Y-176550000D03*
X118250000Y-24000000D03*
X117750000Y-184850000D03*
X117750000Y-32725000D03*
X117750000Y-175675000D03*
X117750000Y-23600000D03*
X117250000Y-184400000D03*
X117250000Y-31850000D03*
X117250000Y-176550000D03*
X117250000Y-24050000D03*
X153750000Y-31850000D03*
X153750000Y-184400000D03*
X153750000Y-176550000D03*
X153750000Y-24000000D03*
X153250000Y-32725000D03*
X153250000Y-184800000D03*
X153250000Y-175675000D03*
X153250000Y-23550000D03*
X152750000Y-31850000D03*
X152750000Y-184400000D03*
X152750000Y-176550000D03*
X152750000Y-24000000D03*
X152250000Y-32725000D03*
X152250000Y-184850000D03*
X152250000Y-175675000D03*
X152250000Y-23550000D03*
X151750000Y-31850000D03*
X151750000Y-184400000D03*
X151750000Y-176550000D03*
X151750000Y-24000000D03*
X151250000Y-32725000D03*
X151250000Y-184850000D03*
X151250000Y-175675000D03*
X151250000Y-23550000D03*
X150750000Y-31850000D03*
X150750000Y-184400000D03*
X150750000Y-176550000D03*
X150750000Y-24000000D03*
X150250000Y-32725000D03*
X150250000Y-184850000D03*
X150250000Y-175675000D03*
X150250000Y-23550000D03*
X149250000Y-32725000D03*
X149250000Y-184850000D03*
X149250000Y-175675000D03*
X149250000Y-23550000D03*
X148750000Y-31850000D03*
X148750000Y-184400000D03*
X148750000Y-176550000D03*
X148750000Y-24000000D03*
X148250000Y-32725000D03*
X148250000Y-184850000D03*
X148250000Y-175675000D03*
X148250000Y-23550000D03*
X147750000Y-31850000D03*
X147750000Y-184400000D03*
X147750000Y-176550000D03*
X147750000Y-24000000D03*
X147250000Y-32725000D03*
X147250000Y-184850000D03*
X147250000Y-175675000D03*
X147250000Y-23600000D03*
X146750000Y-31850000D03*
X146750000Y-184400000D03*
X146750000Y-176550000D03*
X146750000Y-24050000D03*
X145250000Y-31850000D03*
X145250000Y-184400000D03*
X145250000Y-176550000D03*
X145250000Y-24000000D03*
X144750000Y-32725000D03*
X144750000Y-184800000D03*
X144750000Y-175675000D03*
X144750000Y-23550000D03*
X144250000Y-31850000D03*
X144250000Y-184400000D03*
X144250000Y-176550000D03*
X144250000Y-24000000D03*
X143750000Y-32725000D03*
X143750000Y-184850000D03*
X143750000Y-175675000D03*
X143750000Y-23550000D03*
X143250000Y-31850000D03*
X143250000Y-184400000D03*
X143250000Y-176550000D03*
X143250000Y-24000000D03*
X142750000Y-32725000D03*
X142750000Y-184850000D03*
X142750000Y-175675000D03*
X142750000Y-23550000D03*
X142250000Y-31850000D03*
X142250000Y-184400000D03*
X142250000Y-176550000D03*
X142250000Y-24000000D03*
X141750000Y-32725000D03*
X141750000Y-184850000D03*
X141750000Y-175675000D03*
X141750000Y-23550000D03*
X141250000Y-31850000D03*
X141250000Y-184400000D03*
X141250000Y-176550000D03*
X141250000Y-24000000D03*
X140750000Y-175675000D03*
X140750000Y-23550000D03*
X140250000Y-31850000D03*
X140250000Y-184400000D03*
X140250000Y-176550000D03*
X140250000Y-24000000D03*
X139250000Y-31850000D03*
X139250000Y-184400000D03*
X139250000Y-176550000D03*
X139250000Y-24000000D03*
X138750000Y-184850000D03*
X138750000Y-32725000D03*
X138750000Y-175675000D03*
X138750000Y-23600000D03*
X138250000Y-184400000D03*
X138250000Y-31850000D03*
X138250000Y-176550000D03*
X138250000Y-24000000D03*
X127250000Y-175675000D03*
X127250000Y-23550000D03*
D12*
X132750000Y-30800000D02*
X132750000Y-31800000D01*
X132750000Y-183400000D02*
X132750000Y-184400000D01*
X132750000Y-177550000D02*
X132750000Y-176550000D01*
X132750000Y-25000000D02*
X132750000Y-24000000D01*
X132250000Y-31400000D02*
X132250000Y-32850000D01*
X132250000Y-183350000D02*
X132250000Y-184800000D01*
X132250000Y-177000000D02*
X132250000Y-175550000D01*
X132250000Y-25000000D02*
X132250000Y-23550000D01*
X131750000Y-30850000D02*
X131750000Y-31850000D01*
X131750000Y-183400000D02*
X131750000Y-184400000D01*
X131750000Y-25000000D02*
X131750000Y-24000000D01*
X131750000Y-176550000D02*
X131750000Y-177450000D01*
X131250000Y-31400000D02*
X131250000Y-32850000D01*
X131250000Y-183400000D02*
X131250000Y-184850000D01*
X131250000Y-177000000D02*
X131250000Y-175550000D01*
X131250000Y-25000000D02*
X131250000Y-23550000D01*
X130750000Y-30850000D02*
X130750000Y-31850000D01*
X130750000Y-183400000D02*
X130750000Y-184400000D01*
X130750000Y-177550000D02*
X130750000Y-176550000D01*
X130750000Y-25000000D02*
X130750000Y-24000000D01*
X130250000Y-31400000D02*
X130250000Y-32850000D01*
X130250000Y-183400000D02*
X130250000Y-184850000D01*
X130250000Y-177000000D02*
X130250000Y-175550000D01*
X130250000Y-25000000D02*
X130250000Y-23550000D01*
X129750000Y-30850000D02*
X129750000Y-31850000D01*
X129750000Y-183400000D02*
X129750000Y-184400000D01*
X129750000Y-177550000D02*
X129750000Y-176550000D01*
X129750000Y-25000000D02*
X129750000Y-24000000D01*
X129250000Y-31400000D02*
X129250000Y-32850000D01*
X129250000Y-183400000D02*
X129250000Y-184850000D01*
X129250000Y-177000000D02*
X129250000Y-175550000D01*
X129250000Y-25000000D02*
X129250000Y-23550000D01*
X128750000Y-30850000D02*
X128750000Y-31850000D01*
X128750000Y-183400000D02*
X128750000Y-184400000D01*
X128750000Y-177550000D02*
X128750000Y-176550000D01*
X128750000Y-25000000D02*
X128750000Y-24000000D01*
X128250000Y-31400000D02*
X128250000Y-32850000D01*
X128250000Y-183400000D02*
X128250000Y-184850000D01*
X128250000Y-177000000D02*
X128250000Y-175550000D01*
X128250000Y-25000000D02*
X128250000Y-23550000D01*
X127750000Y-30850000D02*
X127750000Y-31850000D01*
X127750000Y-183400000D02*
X127750000Y-184400000D01*
X127750000Y-177550000D02*
X127750000Y-176550000D01*
X127750000Y-25000000D02*
X127750000Y-24000000D01*
X127250000Y-31400000D02*
X127250000Y-32850000D01*
X127250000Y-183400000D02*
X127250000Y-184850000D01*
X149750000Y-30850000D02*
X149750000Y-31850000D01*
X140750000Y-31400000D02*
X140750000Y-32850000D01*
X139750000Y-31400000D02*
X139750000Y-32850000D01*
X139750000Y-177000000D02*
X139750000Y-175550000D01*
X139750000Y-183400000D02*
X139750000Y-184850000D01*
X140750000Y-183400000D02*
X140750000Y-184850000D01*
X149750000Y-177550000D02*
X149750000Y-176550000D01*
X149750000Y-183400000D02*
X149750000Y-184400000D01*
X149750000Y-25000000D02*
X149750000Y-24000000D01*
X139750000Y-25000000D02*
X139750000Y-23550000D01*
X140750000Y-32725000D02*
X140750000Y-30950000D01*
X149750000Y-176550000D02*
X149750000Y-177450000D01*
X126750000Y-183400000D02*
X126750000Y-184400000D01*
X126750000Y-31850000D02*
X126750000Y-30950000D01*
X126750000Y-177550000D02*
X126750000Y-176550000D01*
X126750000Y-25000000D02*
X126750000Y-24000000D01*
X126250000Y-183400000D02*
X126250000Y-184850000D01*
X126250000Y-31400000D02*
X126250000Y-32850000D01*
X126250000Y-177000000D02*
X126250000Y-175550000D01*
X126250000Y-25050000D02*
X126250000Y-23600000D01*
X125750000Y-183400000D02*
X125750000Y-184400000D01*
X125750000Y-30850000D02*
X125750000Y-31850000D01*
X125750000Y-177600000D02*
X125750000Y-176600000D01*
X125750000Y-25000000D02*
X125750000Y-24000000D01*
X124250000Y-183400000D02*
X124250000Y-184400000D01*
X124250000Y-30800000D02*
X124250000Y-31800000D01*
X124250000Y-177550000D02*
X124250000Y-176550000D01*
X124250000Y-25000000D02*
X124250000Y-24000000D01*
X123750000Y-183350000D02*
X123750000Y-184800000D01*
X123750000Y-31400000D02*
X123750000Y-32850000D01*
X123750000Y-177000000D02*
X123750000Y-175550000D01*
X123750000Y-25000000D02*
X123750000Y-23550000D01*
X123250000Y-183400000D02*
X123250000Y-184400000D01*
X123250000Y-30850000D02*
X123250000Y-31850000D01*
X123250000Y-25000000D02*
X123250000Y-24000000D01*
X123250000Y-176550000D02*
X123250000Y-177450000D01*
X122750000Y-183400000D02*
X122750000Y-184850000D01*
X122750000Y-31400000D02*
X122750000Y-32850000D01*
X122750000Y-177000000D02*
X122750000Y-175550000D01*
X122750000Y-25000000D02*
X122750000Y-23550000D01*
X122250000Y-183400000D02*
X122250000Y-184400000D01*
X122250000Y-30850000D02*
X122250000Y-31850000D01*
X122250000Y-177550000D02*
X122250000Y-176550000D01*
X122250000Y-25000000D02*
X122250000Y-24000000D01*
X121750000Y-183400000D02*
X121750000Y-184850000D01*
X121750000Y-31400000D02*
X121750000Y-32850000D01*
X121750000Y-177000000D02*
X121750000Y-175550000D01*
X121750000Y-25000000D02*
X121750000Y-23550000D01*
X121250000Y-183400000D02*
X121250000Y-184400000D01*
X121250000Y-30850000D02*
X121250000Y-31850000D01*
X121250000Y-177550000D02*
X121250000Y-176550000D01*
X121250000Y-25000000D02*
X121250000Y-24000000D01*
X120750000Y-183400000D02*
X120750000Y-184850000D01*
X120750000Y-31400000D02*
X120750000Y-32850000D01*
X120750000Y-177000000D02*
X120750000Y-175550000D01*
X120750000Y-25000000D02*
X120750000Y-23550000D01*
X120250000Y-183400000D02*
X120250000Y-184400000D01*
X120250000Y-30850000D02*
X120250000Y-31850000D01*
X120250000Y-177550000D02*
X120250000Y-176550000D01*
X120250000Y-25000000D02*
X120250000Y-24000000D01*
X119750000Y-183400000D02*
X119750000Y-184850000D01*
X119750000Y-31400000D02*
X119750000Y-32850000D01*
X119750000Y-177000000D02*
X119750000Y-175550000D01*
X119750000Y-25000000D02*
X119750000Y-23550000D01*
X119250000Y-183400000D02*
X119250000Y-184400000D01*
X119250000Y-30850000D02*
X119250000Y-31850000D01*
X119250000Y-177550000D02*
X119250000Y-176550000D01*
X119250000Y-25000000D02*
X119250000Y-24000000D01*
X118750000Y-183400000D02*
X118750000Y-184850000D01*
X118750000Y-31400000D02*
X118750000Y-32850000D01*
X118750000Y-177000000D02*
X118750000Y-175550000D01*
X118750000Y-25000000D02*
X118750000Y-23550000D01*
X118250000Y-183400000D02*
X118250000Y-184400000D01*
X118250000Y-31850000D02*
X118250000Y-30950000D01*
X118250000Y-177550000D02*
X118250000Y-176550000D01*
X118250000Y-25000000D02*
X118250000Y-24000000D01*
X117750000Y-183400000D02*
X117750000Y-184850000D01*
X117750000Y-31400000D02*
X117750000Y-32850000D01*
X117750000Y-177000000D02*
X117750000Y-175550000D01*
X117750000Y-25050000D02*
X117750000Y-23600000D01*
X117250000Y-183400000D02*
X117250000Y-184400000D01*
X117250000Y-30850000D02*
X117250000Y-31850000D01*
X117250000Y-177550000D02*
X117250000Y-176550000D01*
X117250000Y-25050000D02*
X117250000Y-24050000D01*
X153750000Y-30800000D02*
X153750000Y-31800000D01*
X153750000Y-183350000D02*
X153750000Y-184350000D01*
X153750000Y-177550000D02*
X153750000Y-176550000D01*
X153750000Y-25000000D02*
X153750000Y-24000000D01*
X153250000Y-31400000D02*
X153250000Y-32850000D01*
X153250000Y-183350000D02*
X153250000Y-184800000D01*
X153250000Y-177000000D02*
X153250000Y-175550000D01*
X153250000Y-25000000D02*
X153250000Y-23550000D01*
X152750000Y-30850000D02*
X152750000Y-31850000D01*
X152750000Y-183400000D02*
X152750000Y-184400000D01*
X152750000Y-25000000D02*
X152750000Y-24000000D01*
X152750000Y-176550000D02*
X152750000Y-177450000D01*
X152250000Y-31400000D02*
X152250000Y-32850000D01*
X152250000Y-183400000D02*
X152250000Y-184850000D01*
X152250000Y-177000000D02*
X152250000Y-175550000D01*
X152250000Y-25000000D02*
X152250000Y-23550000D01*
X151750000Y-30850000D02*
X151750000Y-31850000D01*
X151750000Y-183400000D02*
X151750000Y-184400000D01*
X151750000Y-177550000D02*
X151750000Y-176550000D01*
X151750000Y-25000000D02*
X151750000Y-24000000D01*
X151250000Y-31400000D02*
X151250000Y-32850000D01*
X151250000Y-183400000D02*
X151250000Y-184850000D01*
X151250000Y-177000000D02*
X151250000Y-175550000D01*
X151250000Y-25000000D02*
X151250000Y-23550000D01*
X150750000Y-30850000D02*
X150750000Y-31850000D01*
X150750000Y-183400000D02*
X150750000Y-184400000D01*
X150750000Y-177550000D02*
X150750000Y-176550000D01*
X150750000Y-25000000D02*
X150750000Y-24000000D01*
X150250000Y-31400000D02*
X150250000Y-32850000D01*
X150250000Y-183350000D02*
X150250000Y-184850000D01*
X150250000Y-177000000D02*
X150250000Y-175550000D01*
X150250000Y-25000000D02*
X150250000Y-23550000D01*
X149250000Y-31400000D02*
X149250000Y-32850000D01*
X149250000Y-183400000D02*
X149250000Y-184850000D01*
X149250000Y-32725000D02*
X149250000Y-30950000D01*
X149250000Y-177000000D02*
X149250000Y-175550000D01*
X149250000Y-25000000D02*
X149250000Y-23550000D01*
X148750000Y-30850000D02*
X148750000Y-31850000D01*
X148750000Y-183400000D02*
X148750000Y-184400000D01*
X148750000Y-177550000D02*
X148750000Y-176550000D01*
X148750000Y-25000000D02*
X148750000Y-24000000D01*
X148250000Y-31400000D02*
X148250000Y-32850000D01*
X148250000Y-183400000D02*
X148250000Y-184850000D01*
X148250000Y-177000000D02*
X148250000Y-175550000D01*
X148250000Y-25000000D02*
X148250000Y-23550000D01*
X147750000Y-183400000D02*
X147750000Y-184400000D01*
X147750000Y-31850000D02*
X147750000Y-31334999D01*
X147750000Y-177550000D02*
X147750000Y-176550000D01*
X147750000Y-25000000D02*
X147750000Y-24000000D01*
X147250000Y-31400000D02*
X147250000Y-32850000D01*
X147250000Y-183400000D02*
X147250000Y-184850000D01*
X147250000Y-177000000D02*
X147250000Y-175550000D01*
X147250000Y-25050000D02*
X147250000Y-23600000D01*
X146750000Y-30850000D02*
X146750000Y-31850000D01*
X146750000Y-183400000D02*
X146750000Y-184400000D01*
X146750000Y-177600000D02*
X146750000Y-176600000D01*
X146750000Y-25050000D02*
X146750000Y-24050000D01*
X145250000Y-30800000D02*
X145250000Y-31800000D01*
X145250000Y-183350000D02*
X145250000Y-184350000D01*
X145250000Y-177550000D02*
X145250000Y-176550000D01*
X145250000Y-25000000D02*
X145250000Y-24000000D01*
X144750000Y-31400000D02*
X144750000Y-32850000D01*
X144750000Y-183350000D02*
X144750000Y-184800000D01*
X144750000Y-177000000D02*
X144750000Y-175550000D01*
X144750000Y-25000000D02*
X144750000Y-23550000D01*
X144250000Y-30850000D02*
X144250000Y-31850000D01*
X144250000Y-183400000D02*
X144250000Y-184400000D01*
X144250000Y-25000000D02*
X144250000Y-24000000D01*
X144250000Y-176550000D02*
X144250000Y-177450000D01*
X143750000Y-31400000D02*
X143750000Y-32850000D01*
X143750000Y-183400000D02*
X143750000Y-184850000D01*
X143750000Y-177000000D02*
X143750000Y-175550000D01*
X143750000Y-25000000D02*
X143750000Y-23550000D01*
X143250000Y-30850000D02*
X143250000Y-31850000D01*
X143250000Y-183400000D02*
X143250000Y-184400000D01*
X143250000Y-177550000D02*
X143250000Y-176550000D01*
X143250000Y-25000000D02*
X143250000Y-24000000D01*
X142750000Y-31400000D02*
X142750000Y-32850000D01*
X142750000Y-183400000D02*
X142750000Y-184850000D01*
X142750000Y-177000000D02*
X142750000Y-175550000D01*
X142750000Y-25000000D02*
X142750000Y-23550000D01*
X142250000Y-30850000D02*
X142250000Y-31850000D01*
X142250000Y-183400000D02*
X142250000Y-184400000D01*
X142250000Y-177550000D02*
X142250000Y-176550000D01*
X142250000Y-25000000D02*
X142250000Y-24000000D01*
X141750000Y-31400000D02*
X141750000Y-32850000D01*
X141750000Y-183400000D02*
X141750000Y-184850000D01*
X141750000Y-177000000D02*
X141750000Y-175550000D01*
X141750000Y-25000000D02*
X141750000Y-23550000D01*
X141250000Y-30850000D02*
X141250000Y-31850000D01*
X141250000Y-183400000D02*
X141250000Y-184400000D01*
X141250000Y-177550000D02*
X141250000Y-176550000D01*
X141250000Y-25000000D02*
X141250000Y-24000000D01*
X140750000Y-177000000D02*
X140750000Y-175550000D01*
X140750000Y-25000000D02*
X140750000Y-23550000D01*
X140250000Y-30850000D02*
X140250000Y-31850000D01*
X140250000Y-183400000D02*
X140250000Y-184400000D01*
X140250000Y-177550000D02*
X140250000Y-176550000D01*
X140250000Y-25000000D02*
X140250000Y-24000000D01*
X139250000Y-183400000D02*
X139250000Y-184400000D01*
X139250000Y-31850000D02*
X139250000Y-30950000D01*
X139250000Y-177550000D02*
X139250000Y-176550000D01*
X139250000Y-25000000D02*
X139250000Y-24000000D01*
X138750000Y-183400000D02*
X138750000Y-184850000D01*
X138750000Y-31400000D02*
X138750000Y-32850000D01*
X138750000Y-177000000D02*
X138750000Y-175550000D01*
X138750000Y-25050000D02*
X138750000Y-23600000D01*
X138250000Y-183400000D02*
X138250000Y-184400000D01*
X138250000Y-30850000D02*
X138250000Y-31850000D01*
X138250000Y-177600000D02*
X138250000Y-176600000D01*
X138250000Y-25000000D02*
X138250000Y-24000000D01*
X127250000Y-177000000D02*
X127250000Y-175550000D01*
X127250000Y-25000000D02*
X127250000Y-23550000D01*
M02*
