G04 #@! TF.GenerationSoftware,KiCad,Pcbnew,(5.1.9)-1*
G04 #@! TF.CreationDate,2021-12-19T15:19:46-05:00*
G04 #@! TF.ProjectId,backplane-breakout-FPC,6261636b-706c-4616-9e65-2d627265616b,rev?*
G04 #@! TF.SameCoordinates,Original*
G04 #@! TF.FileFunction,Legend,Top*
G04 #@! TF.FilePolarity,Positive*
%FSLAX46Y46*%
G04 Gerber Fmt 4.6, Leading zero omitted, Abs format (unit mm)*
G04 Created by KiCad (PCBNEW (5.1.9)-1) date 2021-12-19 15:19:46*
%MOMM*%
%LPD*%
G01*
G04 APERTURE LIST*
%ADD10C,0.150000*%
%ADD11C,0.120000*%
%ADD12C,0.300000*%
G04 APERTURE END LIST*
D10*
X118001190Y-180578571D02*
X118144047Y-180626190D01*
X118191666Y-180673809D01*
X118239285Y-180769047D01*
X118239285Y-180911904D01*
X118191666Y-181007142D01*
X118144047Y-181054761D01*
X118048809Y-181102380D01*
X117667857Y-181102380D01*
X117667857Y-180102380D01*
X118001190Y-180102380D01*
X118096428Y-180150000D01*
X118144047Y-180197619D01*
X118191666Y-180292857D01*
X118191666Y-180388095D01*
X118144047Y-180483333D01*
X118096428Y-180530952D01*
X118001190Y-180578571D01*
X117667857Y-180578571D01*
X119239285Y-181102380D02*
X118905952Y-180626190D01*
X118667857Y-181102380D02*
X118667857Y-180102380D01*
X119048809Y-180102380D01*
X119144047Y-180150000D01*
X119191666Y-180197619D01*
X119239285Y-180292857D01*
X119239285Y-180435714D01*
X119191666Y-180530952D01*
X119144047Y-180578571D01*
X119048809Y-180626190D01*
X118667857Y-180626190D01*
X119667857Y-180578571D02*
X120001190Y-180578571D01*
X120144047Y-181102380D02*
X119667857Y-181102380D01*
X119667857Y-180102380D01*
X120144047Y-180102380D01*
X120525000Y-180816666D02*
X121001190Y-180816666D01*
X120429761Y-181102380D02*
X120763095Y-180102380D01*
X121096428Y-181102380D01*
X121429761Y-181102380D02*
X121429761Y-180102380D01*
X122001190Y-181102380D02*
X121572619Y-180530952D01*
X122001190Y-180102380D02*
X121429761Y-180673809D01*
X122620238Y-180102380D02*
X122810714Y-180102380D01*
X122905952Y-180150000D01*
X123001190Y-180245238D01*
X123048809Y-180435714D01*
X123048809Y-180769047D01*
X123001190Y-180959523D01*
X122905952Y-181054761D01*
X122810714Y-181102380D01*
X122620238Y-181102380D01*
X122525000Y-181054761D01*
X122429761Y-180959523D01*
X122382142Y-180769047D01*
X122382142Y-180435714D01*
X122429761Y-180245238D01*
X122525000Y-180150000D01*
X122620238Y-180102380D01*
X123477380Y-180102380D02*
X123477380Y-180911904D01*
X123525000Y-181007142D01*
X123572619Y-181054761D01*
X123667857Y-181102380D01*
X123858333Y-181102380D01*
X123953571Y-181054761D01*
X124001190Y-181007142D01*
X124048809Y-180911904D01*
X124048809Y-180102380D01*
X124382142Y-180102380D02*
X124953571Y-180102380D01*
X124667857Y-181102380D02*
X124667857Y-180102380D01*
X125905952Y-180102380D02*
X126477380Y-180102380D01*
X126191666Y-181102380D02*
X126191666Y-180102380D01*
X127001190Y-180102380D02*
X127191666Y-180102380D01*
X127286904Y-180150000D01*
X127382142Y-180245238D01*
X127429761Y-180435714D01*
X127429761Y-180769047D01*
X127382142Y-180959523D01*
X127286904Y-181054761D01*
X127191666Y-181102380D01*
X127001190Y-181102380D01*
X126905952Y-181054761D01*
X126810714Y-180959523D01*
X126763095Y-180769047D01*
X126763095Y-180435714D01*
X126810714Y-180245238D01*
X126905952Y-180150000D01*
X127001190Y-180102380D01*
X127858333Y-181102380D02*
X127858333Y-180102380D01*
X128239285Y-180102380D01*
X128334523Y-180150000D01*
X128382142Y-180197619D01*
X128429761Y-180292857D01*
X128429761Y-180435714D01*
X128382142Y-180530952D01*
X128334523Y-180578571D01*
X128239285Y-180626190D01*
X127858333Y-180626190D01*
D11*
X117875000Y-176150000D02*
X118450000Y-176775000D01*
X117875000Y-179550000D02*
X117875000Y-176150000D01*
X119225000Y-176150000D02*
X119800000Y-176775000D01*
X117875000Y-176150000D02*
X117300000Y-176775000D01*
X119225000Y-176150000D02*
X118650000Y-176775000D01*
X119225000Y-179550000D02*
X119225000Y-176150000D01*
X120625000Y-179575000D02*
X120625000Y-176175000D01*
X120625000Y-176175000D02*
X121200000Y-176800000D01*
X120625000Y-176175000D02*
X120050000Y-176800000D01*
X122100000Y-176175000D02*
X122675000Y-176800000D01*
X122100000Y-176175000D02*
X121525000Y-176800000D01*
X122100000Y-179575000D02*
X122100000Y-176175000D01*
X153350000Y-32625000D02*
X152775000Y-32000000D01*
X153350000Y-32625000D02*
X153925000Y-32000000D01*
X153350000Y-29225000D02*
X153350000Y-32625000D01*
X152000000Y-32625000D02*
X151425000Y-32000000D01*
X152000000Y-32625000D02*
X152575000Y-32000000D01*
X152000000Y-29225000D02*
X152000000Y-32625000D01*
X150600000Y-32600000D02*
X150025000Y-31975000D01*
X150600000Y-32600000D02*
X151175000Y-31975000D01*
X150600000Y-29200000D02*
X150600000Y-32600000D01*
X149125000Y-32600000D02*
X148550000Y-31975000D01*
X149125000Y-32600000D02*
X149700000Y-31975000D01*
X149125000Y-29200000D02*
X149125000Y-32600000D01*
D10*
X139321428Y-27878571D02*
X139464285Y-27926190D01*
X139511904Y-27973809D01*
X139559523Y-28069047D01*
X139559523Y-28211904D01*
X139511904Y-28307142D01*
X139464285Y-28354761D01*
X139369047Y-28402380D01*
X138988095Y-28402380D01*
X138988095Y-27402380D01*
X139321428Y-27402380D01*
X139416666Y-27450000D01*
X139464285Y-27497619D01*
X139511904Y-27592857D01*
X139511904Y-27688095D01*
X139464285Y-27783333D01*
X139416666Y-27830952D01*
X139321428Y-27878571D01*
X138988095Y-27878571D01*
X139940476Y-28116666D02*
X140416666Y-28116666D01*
X139845238Y-28402380D02*
X140178571Y-27402380D01*
X140511904Y-28402380D01*
X141416666Y-28307142D02*
X141369047Y-28354761D01*
X141226190Y-28402380D01*
X141130952Y-28402380D01*
X140988095Y-28354761D01*
X140892857Y-28259523D01*
X140845238Y-28164285D01*
X140797619Y-27973809D01*
X140797619Y-27830952D01*
X140845238Y-27640476D01*
X140892857Y-27545238D01*
X140988095Y-27450000D01*
X141130952Y-27402380D01*
X141226190Y-27402380D01*
X141369047Y-27450000D01*
X141416666Y-27497619D01*
X141845238Y-28402380D02*
X141845238Y-27402380D01*
X142416666Y-28402380D02*
X141988095Y-27830952D01*
X142416666Y-27402380D02*
X141845238Y-27973809D01*
X142845238Y-28402380D02*
X142845238Y-27402380D01*
X143226190Y-27402380D01*
X143321428Y-27450000D01*
X143369047Y-27497619D01*
X143416666Y-27592857D01*
X143416666Y-27735714D01*
X143369047Y-27830952D01*
X143321428Y-27878571D01*
X143226190Y-27926190D01*
X142845238Y-27926190D01*
X144321428Y-28402380D02*
X143845238Y-28402380D01*
X143845238Y-27402380D01*
X144607142Y-28116666D02*
X145083333Y-28116666D01*
X144511904Y-28402380D02*
X144845238Y-27402380D01*
X145178571Y-28402380D01*
X145511904Y-28402380D02*
X145511904Y-27402380D01*
X146083333Y-28402380D01*
X146083333Y-27402380D01*
X146559523Y-27878571D02*
X146892857Y-27878571D01*
X147035714Y-28402380D02*
X146559523Y-28402380D01*
X146559523Y-27402380D01*
X147035714Y-27402380D01*
X148559523Y-27878571D02*
X148702380Y-27926190D01*
X148750000Y-27973809D01*
X148797619Y-28069047D01*
X148797619Y-28211904D01*
X148750000Y-28307142D01*
X148702380Y-28354761D01*
X148607142Y-28402380D01*
X148226190Y-28402380D01*
X148226190Y-27402380D01*
X148559523Y-27402380D01*
X148654761Y-27450000D01*
X148702380Y-27497619D01*
X148750000Y-27592857D01*
X148750000Y-27688095D01*
X148702380Y-27783333D01*
X148654761Y-27830952D01*
X148559523Y-27878571D01*
X148226190Y-27878571D01*
X149416666Y-27402380D02*
X149607142Y-27402380D01*
X149702380Y-27450000D01*
X149797619Y-27545238D01*
X149845238Y-27735714D01*
X149845238Y-28069047D01*
X149797619Y-28259523D01*
X149702380Y-28354761D01*
X149607142Y-28402380D01*
X149416666Y-28402380D01*
X149321428Y-28354761D01*
X149226190Y-28259523D01*
X149178571Y-28069047D01*
X149178571Y-27735714D01*
X149226190Y-27545238D01*
X149321428Y-27450000D01*
X149416666Y-27402380D01*
X150130952Y-27402380D02*
X150702380Y-27402380D01*
X150416666Y-28402380D02*
X150416666Y-27402380D01*
X150892857Y-27402380D02*
X151464285Y-27402380D01*
X151178571Y-28402380D02*
X151178571Y-27402380D01*
X151988095Y-27402380D02*
X152178571Y-27402380D01*
X152273809Y-27450000D01*
X152369047Y-27545238D01*
X152416666Y-27735714D01*
X152416666Y-28069047D01*
X152369047Y-28259523D01*
X152273809Y-28354761D01*
X152178571Y-28402380D01*
X151988095Y-28402380D01*
X151892857Y-28354761D01*
X151797619Y-28259523D01*
X151750000Y-28069047D01*
X151750000Y-27735714D01*
X151797619Y-27545238D01*
X151892857Y-27450000D01*
X151988095Y-27402380D01*
X152845238Y-28402380D02*
X152845238Y-27402380D01*
X153178571Y-28116666D01*
X153511904Y-27402380D01*
X153511904Y-28402380D01*
D11*
X140650000Y-31425000D02*
G75*
G02*
X139500000Y-32575000I-1150000J0D01*
G01*
X131700000Y-175975000D02*
G75*
G02*
X130550000Y-177125000I-1150000J0D01*
G01*
D10*
X132621443Y-176453571D02*
X132758348Y-176501190D01*
X132800014Y-176548809D01*
X132835729Y-176644047D01*
X132817872Y-176786904D01*
X132758348Y-176882142D01*
X132704776Y-176929761D01*
X132603586Y-176977380D01*
X132222633Y-176977380D01*
X132347633Y-175977380D01*
X132680967Y-175977380D01*
X132770252Y-176025000D01*
X132811919Y-176072619D01*
X132847633Y-176167857D01*
X132835729Y-176263095D01*
X132776205Y-176358333D01*
X132722633Y-176405952D01*
X132621443Y-176453571D01*
X132288110Y-176453571D01*
X133288110Y-176453571D02*
X133621443Y-176453571D01*
X133698824Y-176977380D02*
X133222633Y-176977380D01*
X133347633Y-175977380D01*
X133823824Y-175977380D01*
X134157157Y-175977380D02*
X134270252Y-176977380D01*
X134550014Y-176263095D01*
X134651205Y-176977380D01*
X135014300Y-175977380D01*
X135258348Y-176691666D02*
X135734538Y-176691666D01*
X135127395Y-176977380D02*
X135585729Y-175977380D01*
X135794062Y-176977380D01*
X136698824Y-176977380D02*
X136425014Y-176501190D01*
X136127395Y-176977380D02*
X136252395Y-175977380D01*
X136633348Y-175977380D01*
X136722633Y-176025000D01*
X136764300Y-176072619D01*
X136800014Y-176167857D01*
X136782157Y-176310714D01*
X136722633Y-176405952D01*
X136669062Y-176453571D01*
X136567872Y-176501190D01*
X136186919Y-176501190D01*
X137192872Y-176453571D02*
X137526205Y-176453571D01*
X137603586Y-176977380D02*
X137127395Y-176977380D01*
X137252395Y-175977380D01*
X137728586Y-175977380D01*
X139109538Y-175977380D02*
X139300014Y-175977380D01*
X139389300Y-176025000D01*
X139472633Y-176120238D01*
X139496443Y-176310714D01*
X139454776Y-176644047D01*
X139383348Y-176834523D01*
X139276205Y-176929761D01*
X139175014Y-176977380D01*
X138984538Y-176977380D01*
X138895252Y-176929761D01*
X138811919Y-176834523D01*
X138788110Y-176644047D01*
X138829776Y-176310714D01*
X138901205Y-176120238D01*
X139008348Y-176025000D01*
X139109538Y-175977380D01*
X140240491Y-176453571D02*
X139907157Y-176453571D01*
X139841681Y-176977380D02*
X139966681Y-175977380D01*
X140442872Y-175977380D01*
X141526205Y-176453571D02*
X141859538Y-176453571D01*
X141936919Y-176977380D02*
X141460729Y-176977380D01*
X141585729Y-175977380D01*
X142061919Y-175977380D01*
X142395252Y-175977380D02*
X142936919Y-176977380D01*
X143061919Y-175977380D02*
X142270252Y-176977380D01*
X143901205Y-176882142D02*
X143847633Y-176929761D01*
X143698824Y-176977380D01*
X143603586Y-176977380D01*
X143466681Y-176929761D01*
X143383348Y-176834523D01*
X143347633Y-176739285D01*
X143323824Y-176548809D01*
X143341681Y-176405952D01*
X143413110Y-176215476D01*
X143472633Y-176120238D01*
X143579776Y-176025000D01*
X143728586Y-175977380D01*
X143823824Y-175977380D01*
X143960729Y-176025000D01*
X144002395Y-176072619D01*
X144383348Y-176453571D02*
X144716681Y-176453571D01*
X144794062Y-176977380D02*
X144317872Y-176977380D01*
X144442872Y-175977380D01*
X144919062Y-175977380D01*
X145180967Y-176929761D02*
X145317872Y-176977380D01*
X145555967Y-176977380D01*
X145657157Y-176929761D01*
X145710729Y-176882142D01*
X145770252Y-176786904D01*
X145782157Y-176691666D01*
X145746443Y-176596428D01*
X145704776Y-176548809D01*
X145615491Y-176501190D01*
X145430967Y-176453571D01*
X145341681Y-176405952D01*
X145300014Y-176358333D01*
X145264300Y-176263095D01*
X145276205Y-176167857D01*
X145335729Y-176072619D01*
X145389300Y-176025000D01*
X145490491Y-175977380D01*
X145728586Y-175977380D01*
X145865491Y-176025000D01*
X146133348Y-176929761D02*
X146270252Y-176977380D01*
X146508348Y-176977380D01*
X146609538Y-176929761D01*
X146663110Y-176882142D01*
X146722633Y-176786904D01*
X146734538Y-176691666D01*
X146698824Y-176596428D01*
X146657157Y-176548809D01*
X146567872Y-176501190D01*
X146383348Y-176453571D01*
X146294062Y-176405952D01*
X146252395Y-176358333D01*
X146216681Y-176263095D01*
X146228586Y-176167857D01*
X146288110Y-176072619D01*
X146341681Y-176025000D01*
X146442872Y-175977380D01*
X146680967Y-175977380D01*
X146817872Y-176025000D01*
X147127395Y-176977380D02*
X147252395Y-175977380D01*
X147585729Y-175977380D02*
X147794062Y-176977380D01*
X148252395Y-175977380D01*
X148526205Y-176453571D02*
X148859538Y-176453571D01*
X148936919Y-176977380D02*
X148460729Y-176977380D01*
X148585729Y-175977380D01*
X149061919Y-175977380D01*
X150526205Y-176453571D02*
X150663110Y-176501190D01*
X150704776Y-176548809D01*
X150740491Y-176644047D01*
X150722633Y-176786904D01*
X150663110Y-176882142D01*
X150609538Y-176929761D01*
X150508348Y-176977380D01*
X150127395Y-176977380D01*
X150252395Y-175977380D01*
X150585729Y-175977380D01*
X150675014Y-176025000D01*
X150716681Y-176072619D01*
X150752395Y-176167857D01*
X150740491Y-176263095D01*
X150680967Y-176358333D01*
X150627395Y-176405952D01*
X150526205Y-176453571D01*
X150192872Y-176453571D01*
X151192872Y-176453571D02*
X151526205Y-176453571D01*
X151603586Y-176977380D02*
X151127395Y-176977380D01*
X151252395Y-175977380D01*
X151728586Y-175977380D01*
X152032157Y-176977380D02*
X152157157Y-175977380D01*
X152603586Y-176977380D01*
X152728586Y-175977380D01*
X153079776Y-176977380D02*
X153204776Y-175977380D01*
X153442872Y-175977380D01*
X153579776Y-176025000D01*
X153663110Y-176120238D01*
X153698824Y-176215476D01*
X153722633Y-176405952D01*
X153704776Y-176548809D01*
X153633348Y-176739285D01*
X153573824Y-176834523D01*
X153466681Y-176929761D01*
X153317872Y-176977380D01*
X153079776Y-176977380D01*
X154079776Y-176977380D02*
X154204776Y-175977380D01*
X154555967Y-176977380D02*
X154680967Y-175977380D01*
X155127395Y-176977380D01*
X155252395Y-175977380D01*
X156246443Y-176025000D02*
X156157157Y-175977380D01*
X156014300Y-175977380D01*
X155865491Y-176025000D01*
X155758348Y-176120238D01*
X155698824Y-176215476D01*
X155627395Y-176405952D01*
X155609538Y-176548809D01*
X155633348Y-176739285D01*
X155669062Y-176834523D01*
X155752395Y-176929761D01*
X155889300Y-176977380D01*
X155984538Y-176977380D01*
X156133348Y-176929761D01*
X156186919Y-176882142D01*
X156228586Y-176548809D01*
X156038110Y-176548809D01*
X115246443Y-31978571D02*
X115383348Y-32026190D01*
X115425014Y-32073809D01*
X115460729Y-32169047D01*
X115442872Y-32311904D01*
X115383348Y-32407142D01*
X115329776Y-32454761D01*
X115228586Y-32502380D01*
X114847633Y-32502380D01*
X114972633Y-31502380D01*
X115305967Y-31502380D01*
X115395252Y-31550000D01*
X115436919Y-31597619D01*
X115472633Y-31692857D01*
X115460729Y-31788095D01*
X115401205Y-31883333D01*
X115347633Y-31930952D01*
X115246443Y-31978571D01*
X114913110Y-31978571D01*
X115913110Y-31978571D02*
X116246443Y-31978571D01*
X116323824Y-32502380D02*
X115847633Y-32502380D01*
X115972633Y-31502380D01*
X116448824Y-31502380D01*
X116782157Y-31502380D02*
X116895252Y-32502380D01*
X117175014Y-31788095D01*
X117276205Y-32502380D01*
X117639300Y-31502380D01*
X117883348Y-32216666D02*
X118359538Y-32216666D01*
X117752395Y-32502380D02*
X118210729Y-31502380D01*
X118419062Y-32502380D01*
X119323824Y-32502380D02*
X119050014Y-32026190D01*
X118752395Y-32502380D02*
X118877395Y-31502380D01*
X119258348Y-31502380D01*
X119347633Y-31550000D01*
X119389300Y-31597619D01*
X119425014Y-31692857D01*
X119407157Y-31835714D01*
X119347633Y-31930952D01*
X119294062Y-31978571D01*
X119192872Y-32026190D01*
X118811919Y-32026190D01*
X119817872Y-31978571D02*
X120151205Y-31978571D01*
X120228586Y-32502380D02*
X119752395Y-32502380D01*
X119877395Y-31502380D01*
X120353586Y-31502380D01*
X121734538Y-31502380D02*
X121925014Y-31502380D01*
X122014300Y-31550000D01*
X122097633Y-31645238D01*
X122121443Y-31835714D01*
X122079776Y-32169047D01*
X122008348Y-32359523D01*
X121901205Y-32454761D01*
X121800014Y-32502380D01*
X121609538Y-32502380D01*
X121520252Y-32454761D01*
X121436919Y-32359523D01*
X121413110Y-32169047D01*
X121454776Y-31835714D01*
X121526205Y-31645238D01*
X121633348Y-31550000D01*
X121734538Y-31502380D01*
X122865491Y-31978571D02*
X122532157Y-31978571D01*
X122466681Y-32502380D02*
X122591681Y-31502380D01*
X123067872Y-31502380D01*
X124151205Y-31978571D02*
X124484538Y-31978571D01*
X124561919Y-32502380D02*
X124085729Y-32502380D01*
X124210729Y-31502380D01*
X124686919Y-31502380D01*
X125020252Y-31502380D02*
X125561919Y-32502380D01*
X125686919Y-31502380D02*
X124895252Y-32502380D01*
X126526205Y-32407142D02*
X126472633Y-32454761D01*
X126323824Y-32502380D01*
X126228586Y-32502380D01*
X126091681Y-32454761D01*
X126008348Y-32359523D01*
X125972633Y-32264285D01*
X125948824Y-32073809D01*
X125966681Y-31930952D01*
X126038110Y-31740476D01*
X126097633Y-31645238D01*
X126204776Y-31550000D01*
X126353586Y-31502380D01*
X126448824Y-31502380D01*
X126585729Y-31550000D01*
X126627395Y-31597619D01*
X127008348Y-31978571D02*
X127341681Y-31978571D01*
X127419062Y-32502380D02*
X126942872Y-32502380D01*
X127067872Y-31502380D01*
X127544062Y-31502380D01*
X127805967Y-32454761D02*
X127942872Y-32502380D01*
X128180967Y-32502380D01*
X128282157Y-32454761D01*
X128335729Y-32407142D01*
X128395252Y-32311904D01*
X128407157Y-32216666D01*
X128371443Y-32121428D01*
X128329776Y-32073809D01*
X128240491Y-32026190D01*
X128055967Y-31978571D01*
X127966681Y-31930952D01*
X127925014Y-31883333D01*
X127889300Y-31788095D01*
X127901205Y-31692857D01*
X127960729Y-31597619D01*
X128014300Y-31550000D01*
X128115491Y-31502380D01*
X128353586Y-31502380D01*
X128490491Y-31550000D01*
X128758348Y-32454761D02*
X128895252Y-32502380D01*
X129133348Y-32502380D01*
X129234538Y-32454761D01*
X129288110Y-32407142D01*
X129347633Y-32311904D01*
X129359538Y-32216666D01*
X129323824Y-32121428D01*
X129282157Y-32073809D01*
X129192872Y-32026190D01*
X129008348Y-31978571D01*
X128919062Y-31930952D01*
X128877395Y-31883333D01*
X128841681Y-31788095D01*
X128853586Y-31692857D01*
X128913110Y-31597619D01*
X128966681Y-31550000D01*
X129067872Y-31502380D01*
X129305967Y-31502380D01*
X129442872Y-31550000D01*
X129752395Y-32502380D02*
X129877395Y-31502380D01*
X130210729Y-31502380D02*
X130419062Y-32502380D01*
X130877395Y-31502380D01*
X131151205Y-31978571D02*
X131484538Y-31978571D01*
X131561919Y-32502380D02*
X131085729Y-32502380D01*
X131210729Y-31502380D01*
X131686919Y-31502380D01*
X133151205Y-31978571D02*
X133288110Y-32026190D01*
X133329776Y-32073809D01*
X133365491Y-32169047D01*
X133347633Y-32311904D01*
X133288110Y-32407142D01*
X133234538Y-32454761D01*
X133133348Y-32502380D01*
X132752395Y-32502380D01*
X132877395Y-31502380D01*
X133210729Y-31502380D01*
X133300014Y-31550000D01*
X133341681Y-31597619D01*
X133377395Y-31692857D01*
X133365491Y-31788095D01*
X133305967Y-31883333D01*
X133252395Y-31930952D01*
X133151205Y-31978571D01*
X132817872Y-31978571D01*
X133817872Y-31978571D02*
X134151205Y-31978571D01*
X134228586Y-32502380D02*
X133752395Y-32502380D01*
X133877395Y-31502380D01*
X134353586Y-31502380D01*
X134657157Y-32502380D02*
X134782157Y-31502380D01*
X135228586Y-32502380D01*
X135353586Y-31502380D01*
X135704776Y-32502380D02*
X135829776Y-31502380D01*
X136067872Y-31502380D01*
X136204776Y-31550000D01*
X136288110Y-31645238D01*
X136323824Y-31740476D01*
X136347633Y-31930952D01*
X136329776Y-32073809D01*
X136258348Y-32264285D01*
X136198824Y-32359523D01*
X136091681Y-32454761D01*
X135942872Y-32502380D01*
X135704776Y-32502380D01*
X136704776Y-32502380D02*
X136829776Y-31502380D01*
X137180967Y-32502380D02*
X137305967Y-31502380D01*
X137752395Y-32502380D01*
X137877395Y-31502380D01*
X138871443Y-31550000D02*
X138782157Y-31502380D01*
X138639300Y-31502380D01*
X138490491Y-31550000D01*
X138383348Y-31645238D01*
X138323824Y-31740476D01*
X138252395Y-31930952D01*
X138234538Y-32073809D01*
X138258348Y-32264285D01*
X138294062Y-32359523D01*
X138377395Y-32454761D01*
X138514300Y-32502380D01*
X138609538Y-32502380D01*
X138758348Y-32454761D01*
X138811919Y-32407142D01*
X138853586Y-32073809D01*
X138663110Y-32073809D01*
D11*
X143302239Y-180655907D02*
X141573102Y-180288368D01*
X141142911Y-181462010D02*
X140723575Y-181734329D01*
X139748745Y-182069301D02*
X141426086Y-180980023D01*
X140723575Y-181734329D02*
X139906617Y-180476324D01*
X139487281Y-180748643D02*
X140304240Y-182006649D01*
X141940641Y-178559231D02*
X141573102Y-180288368D01*
X143669778Y-178926770D02*
X141940641Y-178559231D01*
X139476425Y-181649965D02*
X141153767Y-180560687D01*
X143669778Y-178926770D02*
X143302239Y-180655907D01*
X141573102Y-180288368D02*
X141153767Y-180560687D01*
X143669778Y-178926770D02*
X144089114Y-178654451D01*
X141562246Y-181189690D02*
X141153767Y-180560687D01*
X141153767Y-180560687D02*
X140745287Y-179931684D01*
X139884905Y-182278968D02*
X141562246Y-181189690D01*
X139340266Y-181440298D02*
X139476425Y-181649965D01*
X140745287Y-179931684D02*
X139067946Y-181020963D01*
X141289926Y-180770355D02*
X139612585Y-181859633D01*
X140325952Y-180204004D02*
X141142911Y-181462010D01*
X139067946Y-181020963D02*
X139884905Y-182278968D01*
X139906617Y-180476324D02*
X139487281Y-180748643D01*
X140881447Y-180141352D02*
X141017607Y-180351020D01*
X139204106Y-181230630D02*
X140881447Y-180141352D01*
X141017607Y-180351020D02*
X139340266Y-181440298D01*
X139612585Y-181859633D02*
X139748745Y-182069301D01*
X144916928Y-179011134D02*
X144099970Y-177753128D01*
X143040775Y-179335249D02*
G75*
G02*
X142202105Y-179879889I-419335J-272320D01*
G01*
X144099970Y-177753128D02*
X144519305Y-177480809D01*
X145630295Y-177355505D02*
X145494135Y-177145837D01*
X142144293Y-177771178D02*
G75*
G02*
X141137887Y-178424746I-693827J-33249D01*
G01*
X143952954Y-178444783D02*
X145630295Y-177355505D01*
X141940641Y-178559231D02*
X141831713Y-178391497D01*
X143680634Y-178025448D02*
X144089114Y-178654451D01*
X145336263Y-178738815D02*
X145755599Y-178466495D01*
X142595511Y-179085187D02*
G75*
G03*
X142595511Y-179085187I-50990J0D01*
G01*
X145766455Y-177565173D02*
X144089114Y-178654451D01*
X145755599Y-178466495D02*
X144938640Y-177208489D01*
X145902614Y-177774840D02*
X145766455Y-177565173D01*
X146038774Y-177984508D02*
X144361433Y-179073786D01*
X146174934Y-178194176D02*
X145357975Y-176936170D01*
X144361433Y-179073786D02*
X144225273Y-178864118D01*
X144225273Y-178864118D02*
X145902614Y-177774840D01*
X145494135Y-177145837D02*
X143816794Y-178235116D01*
X142226496Y-179324828D02*
G75*
G03*
X142226496Y-179324828I-50990J0D01*
G01*
X145357975Y-176936170D02*
X143680634Y-178025448D01*
X144089114Y-178654451D02*
X144497593Y-179283454D01*
X144497593Y-179283454D02*
X146174934Y-178194176D01*
X144519305Y-177480809D02*
X145336263Y-178738815D01*
D12*
X123678571Y-183867857D02*
X123892857Y-183939285D01*
X123964285Y-184010714D01*
X124035714Y-184153571D01*
X124035714Y-184367857D01*
X123964285Y-184510714D01*
X123892857Y-184582142D01*
X123750000Y-184653571D01*
X123178571Y-184653571D01*
X123178571Y-183153571D01*
X123678571Y-183153571D01*
X123821428Y-183225000D01*
X123892857Y-183296428D01*
X123964285Y-183439285D01*
X123964285Y-183582142D01*
X123892857Y-183725000D01*
X123821428Y-183796428D01*
X123678571Y-183867857D01*
X123178571Y-183867857D01*
X125535714Y-184653571D02*
X125035714Y-183939285D01*
X124678571Y-184653571D02*
X124678571Y-183153571D01*
X125250000Y-183153571D01*
X125392857Y-183225000D01*
X125464285Y-183296428D01*
X125535714Y-183439285D01*
X125535714Y-183653571D01*
X125464285Y-183796428D01*
X125392857Y-183867857D01*
X125250000Y-183939285D01*
X124678571Y-183939285D01*
X126178571Y-183867857D02*
X126678571Y-183867857D01*
X126892857Y-184653571D02*
X126178571Y-184653571D01*
X126178571Y-183153571D01*
X126892857Y-183153571D01*
X127464285Y-184225000D02*
X128178571Y-184225000D01*
X127321428Y-184653571D02*
X127821428Y-183153571D01*
X128321428Y-184653571D01*
X128821428Y-184653571D02*
X128821428Y-183153571D01*
X129678571Y-184653571D02*
X129035714Y-183796428D01*
X129678571Y-183153571D02*
X128821428Y-184010714D01*
X130607142Y-183153571D02*
X130892857Y-183153571D01*
X131035714Y-183225000D01*
X131178571Y-183367857D01*
X131250000Y-183653571D01*
X131250000Y-184153571D01*
X131178571Y-184439285D01*
X131035714Y-184582142D01*
X130892857Y-184653571D01*
X130607142Y-184653571D01*
X130464285Y-184582142D01*
X130321428Y-184439285D01*
X130250000Y-184153571D01*
X130250000Y-183653571D01*
X130321428Y-183367857D01*
X130464285Y-183225000D01*
X130607142Y-183153571D01*
X131892857Y-183153571D02*
X131892857Y-184367857D01*
X131964285Y-184510714D01*
X132035714Y-184582142D01*
X132178571Y-184653571D01*
X132464285Y-184653571D01*
X132607142Y-184582142D01*
X132678571Y-184510714D01*
X132750000Y-184367857D01*
X132750000Y-183153571D01*
X133250000Y-183153571D02*
X134107142Y-183153571D01*
X133678571Y-184653571D02*
X133678571Y-183153571D01*
X136607142Y-184510714D02*
X136535714Y-184582142D01*
X136321428Y-184653571D01*
X136178571Y-184653571D01*
X135964285Y-184582142D01*
X135821428Y-184439285D01*
X135750000Y-184296428D01*
X135678571Y-184010714D01*
X135678571Y-183796428D01*
X135750000Y-183510714D01*
X135821428Y-183367857D01*
X135964285Y-183225000D01*
X136178571Y-183153571D01*
X136321428Y-183153571D01*
X136535714Y-183225000D01*
X136607142Y-183296428D01*
X137535714Y-183153571D02*
X137821428Y-183153571D01*
X137964285Y-183225000D01*
X138107142Y-183367857D01*
X138178571Y-183653571D01*
X138178571Y-184153571D01*
X138107142Y-184439285D01*
X137964285Y-184582142D01*
X137821428Y-184653571D01*
X137535714Y-184653571D01*
X137392857Y-184582142D01*
X137250000Y-184439285D01*
X137178571Y-184153571D01*
X137178571Y-183653571D01*
X137250000Y-183367857D01*
X137392857Y-183225000D01*
X137535714Y-183153571D01*
X138821428Y-184653571D02*
X138821428Y-183153571D01*
X139678571Y-184653571D01*
X139678571Y-183153571D01*
X140392857Y-184653571D02*
X140392857Y-183153571D01*
X141250000Y-184653571D01*
X141250000Y-183153571D01*
X141964285Y-183867857D02*
X142464285Y-183867857D01*
X142678571Y-184653571D02*
X141964285Y-184653571D01*
X141964285Y-183153571D01*
X142678571Y-183153571D01*
X144178571Y-184510714D02*
X144107142Y-184582142D01*
X143892857Y-184653571D01*
X143750000Y-184653571D01*
X143535714Y-184582142D01*
X143392857Y-184439285D01*
X143321428Y-184296428D01*
X143250000Y-184010714D01*
X143250000Y-183796428D01*
X143321428Y-183510714D01*
X143392857Y-183367857D01*
X143535714Y-183225000D01*
X143750000Y-183153571D01*
X143892857Y-183153571D01*
X144107142Y-183225000D01*
X144178571Y-183296428D01*
X144607142Y-183153571D02*
X145464285Y-183153571D01*
X145035714Y-184653571D02*
X145035714Y-183153571D01*
X146250000Y-183153571D02*
X146535714Y-183153571D01*
X146678571Y-183225000D01*
X146821428Y-183367857D01*
X146892857Y-183653571D01*
X146892857Y-184153571D01*
X146821428Y-184439285D01*
X146678571Y-184582142D01*
X146535714Y-184653571D01*
X146250000Y-184653571D01*
X146107142Y-184582142D01*
X145964285Y-184439285D01*
X145892857Y-184153571D01*
X145892857Y-183653571D01*
X145964285Y-183367857D01*
X146107142Y-183225000D01*
X146250000Y-183153571D01*
X148392857Y-184653571D02*
X147892857Y-183939285D01*
X147535714Y-184653571D02*
X147535714Y-183153571D01*
X148107142Y-183153571D01*
X148250000Y-183225000D01*
X148321428Y-183296428D01*
X148392857Y-183439285D01*
X148392857Y-183653571D01*
X148321428Y-183796428D01*
X148250000Y-183867857D01*
X148107142Y-183939285D01*
X147535714Y-183939285D01*
D10*
X147676190Y-179692380D02*
X147200000Y-179692380D01*
X147152380Y-180168571D01*
X147200000Y-180120952D01*
X147295238Y-180073333D01*
X147533333Y-180073333D01*
X147628571Y-180120952D01*
X147676190Y-180168571D01*
X147723809Y-180263809D01*
X147723809Y-180501904D01*
X147676190Y-180597142D01*
X147628571Y-180644761D01*
X147533333Y-180692380D01*
X147295238Y-180692380D01*
X147200000Y-180644761D01*
X147152380Y-180597142D01*
X148342857Y-179692380D02*
X148438095Y-179692380D01*
X148533333Y-179740000D01*
X148580952Y-179787619D01*
X148628571Y-179882857D01*
X148676190Y-180073333D01*
X148676190Y-180311428D01*
X148628571Y-180501904D01*
X148580952Y-180597142D01*
X148533333Y-180644761D01*
X148438095Y-180692380D01*
X148342857Y-180692380D01*
X148247619Y-180644761D01*
X148200000Y-180597142D01*
X148152380Y-180501904D01*
X148104761Y-180311428D01*
X148104761Y-180073333D01*
X148152380Y-179882857D01*
X148200000Y-179787619D01*
X148247619Y-179740000D01*
X148342857Y-179692380D01*
X148961904Y-179692380D02*
X149295238Y-180692380D01*
X149628571Y-179692380D01*
X150723809Y-180692380D02*
X150723809Y-179692380D01*
X151057142Y-180406666D01*
X151390476Y-179692380D01*
X151390476Y-180692380D01*
X151819047Y-180406666D02*
X152295238Y-180406666D01*
X151723809Y-180692380D02*
X152057142Y-179692380D01*
X152390476Y-180692380D01*
X152628571Y-179692380D02*
X153295238Y-180692380D01*
X153295238Y-179692380D02*
X152628571Y-180692380D01*
X144091666Y-182062380D02*
X143520238Y-182062380D01*
X143805952Y-182062380D02*
X143805952Y-181062380D01*
X143710714Y-181205238D01*
X143615476Y-181300476D01*
X143520238Y-181348095D01*
X144520238Y-181967142D02*
X144567857Y-182014761D01*
X144520238Y-182062380D01*
X144472619Y-182014761D01*
X144520238Y-181967142D01*
X144520238Y-182062380D01*
X145472619Y-181062380D02*
X144996428Y-181062380D01*
X144948809Y-181538571D01*
X144996428Y-181490952D01*
X145091666Y-181443333D01*
X145329761Y-181443333D01*
X145425000Y-181490952D01*
X145472619Y-181538571D01*
X145520238Y-181633809D01*
X145520238Y-181871904D01*
X145472619Y-181967142D01*
X145425000Y-182014761D01*
X145329761Y-182062380D01*
X145091666Y-182062380D01*
X144996428Y-182014761D01*
X144948809Y-181967142D01*
X145901190Y-181776666D02*
X146377380Y-181776666D01*
X145805952Y-182062380D02*
X146139285Y-181062380D01*
X146472619Y-182062380D01*
X147567857Y-182062380D02*
X147567857Y-181062380D01*
X147948809Y-181062380D01*
X148044047Y-181110000D01*
X148091666Y-181157619D01*
X148139285Y-181252857D01*
X148139285Y-181395714D01*
X148091666Y-181490952D01*
X148044047Y-181538571D01*
X147948809Y-181586190D01*
X147567857Y-181586190D01*
X148567857Y-181538571D02*
X148901190Y-181538571D01*
X149044047Y-182062380D02*
X148567857Y-182062380D01*
X148567857Y-181062380D01*
X149044047Y-181062380D01*
X150044047Y-182062380D02*
X149710714Y-181586190D01*
X149472619Y-182062380D02*
X149472619Y-181062380D01*
X149853571Y-181062380D01*
X149948809Y-181110000D01*
X149996428Y-181157619D01*
X150044047Y-181252857D01*
X150044047Y-181395714D01*
X149996428Y-181490952D01*
X149948809Y-181538571D01*
X149853571Y-181586190D01*
X149472619Y-181586190D01*
X151234523Y-182062380D02*
X151234523Y-181062380D01*
X151615476Y-181062380D01*
X151710714Y-181110000D01*
X151758333Y-181157619D01*
X151805952Y-181252857D01*
X151805952Y-181395714D01*
X151758333Y-181490952D01*
X151710714Y-181538571D01*
X151615476Y-181586190D01*
X151234523Y-181586190D01*
X152234523Y-182062380D02*
X152234523Y-181062380D01*
X152710714Y-182062380D02*
X152710714Y-181062380D01*
X153282142Y-182062380D01*
X153282142Y-181062380D01*
D11*
X141594814Y-178485723D02*
X141586626Y-178014095D01*
X142014149Y-178213404D02*
X141586626Y-178014095D01*
X140978282Y-177712135D02*
G75*
G02*
X141566993Y-177341236I376872J54475D01*
G01*
X141661626Y-178014095D02*
G75*
G03*
X141661626Y-178014095I-75000J0D01*
G01*
X141216499Y-177816210D02*
G75*
G02*
X141550120Y-177590666I206735J53716D01*
G01*
D10*
X118276190Y-27612380D02*
X117800000Y-27612380D01*
X117752380Y-28088571D01*
X117800000Y-28040952D01*
X117895238Y-27993333D01*
X118133333Y-27993333D01*
X118228571Y-28040952D01*
X118276190Y-28088571D01*
X118323809Y-28183809D01*
X118323809Y-28421904D01*
X118276190Y-28517142D01*
X118228571Y-28564761D01*
X118133333Y-28612380D01*
X117895238Y-28612380D01*
X117800000Y-28564761D01*
X117752380Y-28517142D01*
X118942857Y-27612380D02*
X119038095Y-27612380D01*
X119133333Y-27660000D01*
X119180952Y-27707619D01*
X119228571Y-27802857D01*
X119276190Y-27993333D01*
X119276190Y-28231428D01*
X119228571Y-28421904D01*
X119180952Y-28517142D01*
X119133333Y-28564761D01*
X119038095Y-28612380D01*
X118942857Y-28612380D01*
X118847619Y-28564761D01*
X118800000Y-28517142D01*
X118752380Y-28421904D01*
X118704761Y-28231428D01*
X118704761Y-27993333D01*
X118752380Y-27802857D01*
X118800000Y-27707619D01*
X118847619Y-27660000D01*
X118942857Y-27612380D01*
X119561904Y-27612380D02*
X119895238Y-28612380D01*
X120228571Y-27612380D01*
X121323809Y-28612380D02*
X121323809Y-27612380D01*
X121657142Y-28326666D01*
X121990476Y-27612380D01*
X121990476Y-28612380D01*
X122419047Y-28326666D02*
X122895238Y-28326666D01*
X122323809Y-28612380D02*
X122657142Y-27612380D01*
X122990476Y-28612380D01*
X123228571Y-27612380D02*
X123895238Y-28612380D01*
X123895238Y-27612380D02*
X123228571Y-28612380D01*
X118366666Y-27227380D02*
X117795238Y-27227380D01*
X118080952Y-27227380D02*
X118080952Y-26227380D01*
X117985714Y-26370238D01*
X117890476Y-26465476D01*
X117795238Y-26513095D01*
X118795238Y-27132142D02*
X118842857Y-27179761D01*
X118795238Y-27227380D01*
X118747619Y-27179761D01*
X118795238Y-27132142D01*
X118795238Y-27227380D01*
X119747619Y-26227380D02*
X119271428Y-26227380D01*
X119223809Y-26703571D01*
X119271428Y-26655952D01*
X119366666Y-26608333D01*
X119604761Y-26608333D01*
X119700000Y-26655952D01*
X119747619Y-26703571D01*
X119795238Y-26798809D01*
X119795238Y-27036904D01*
X119747619Y-27132142D01*
X119700000Y-27179761D01*
X119604761Y-27227380D01*
X119366666Y-27227380D01*
X119271428Y-27179761D01*
X119223809Y-27132142D01*
X120176190Y-26941666D02*
X120652380Y-26941666D01*
X120080952Y-27227380D02*
X120414285Y-26227380D01*
X120747619Y-27227380D01*
X121842857Y-27227380D02*
X121842857Y-26227380D01*
X122223809Y-26227380D01*
X122319047Y-26275000D01*
X122366666Y-26322619D01*
X122414285Y-26417857D01*
X122414285Y-26560714D01*
X122366666Y-26655952D01*
X122319047Y-26703571D01*
X122223809Y-26751190D01*
X121842857Y-26751190D01*
X122842857Y-26703571D02*
X123176190Y-26703571D01*
X123319047Y-27227380D02*
X122842857Y-27227380D01*
X122842857Y-26227380D01*
X123319047Y-26227380D01*
X124319047Y-27227380D02*
X123985714Y-26751190D01*
X123747619Y-27227380D02*
X123747619Y-26227380D01*
X124128571Y-26227380D01*
X124223809Y-26275000D01*
X124271428Y-26322619D01*
X124319047Y-26417857D01*
X124319047Y-26560714D01*
X124271428Y-26655952D01*
X124223809Y-26703571D01*
X124128571Y-26751190D01*
X123747619Y-26751190D01*
X125509523Y-27227380D02*
X125509523Y-26227380D01*
X125890476Y-26227380D01*
X125985714Y-26275000D01*
X126033333Y-26322619D01*
X126080952Y-26417857D01*
X126080952Y-26560714D01*
X126033333Y-26655952D01*
X125985714Y-26703571D01*
X125890476Y-26751190D01*
X125509523Y-26751190D01*
X126509523Y-27227380D02*
X126509523Y-26227380D01*
X126985714Y-27227380D02*
X126985714Y-26227380D01*
X127557142Y-27227380D01*
X127557142Y-26227380D01*
D12*
X122560714Y-24467857D02*
X122775000Y-24539285D01*
X122846428Y-24610714D01*
X122917857Y-24753571D01*
X122917857Y-24967857D01*
X122846428Y-25110714D01*
X122775000Y-25182142D01*
X122632142Y-25253571D01*
X122060714Y-25253571D01*
X122060714Y-23753571D01*
X122560714Y-23753571D01*
X122703571Y-23825000D01*
X122775000Y-23896428D01*
X122846428Y-24039285D01*
X122846428Y-24182142D01*
X122775000Y-24325000D01*
X122703571Y-24396428D01*
X122560714Y-24467857D01*
X122060714Y-24467857D01*
X123489285Y-24825000D02*
X124203571Y-24825000D01*
X123346428Y-25253571D02*
X123846428Y-23753571D01*
X124346428Y-25253571D01*
X125703571Y-25110714D02*
X125632142Y-25182142D01*
X125417857Y-25253571D01*
X125275000Y-25253571D01*
X125060714Y-25182142D01*
X124917857Y-25039285D01*
X124846428Y-24896428D01*
X124775000Y-24610714D01*
X124775000Y-24396428D01*
X124846428Y-24110714D01*
X124917857Y-23967857D01*
X125060714Y-23825000D01*
X125275000Y-23753571D01*
X125417857Y-23753571D01*
X125632142Y-23825000D01*
X125703571Y-23896428D01*
X126346428Y-25253571D02*
X126346428Y-23753571D01*
X127203571Y-25253571D02*
X126560714Y-24396428D01*
X127203571Y-23753571D02*
X126346428Y-24610714D01*
X127846428Y-25253571D02*
X127846428Y-23753571D01*
X128417857Y-23753571D01*
X128560714Y-23825000D01*
X128632142Y-23896428D01*
X128703571Y-24039285D01*
X128703571Y-24253571D01*
X128632142Y-24396428D01*
X128560714Y-24467857D01*
X128417857Y-24539285D01*
X127846428Y-24539285D01*
X130060714Y-25253571D02*
X129346428Y-25253571D01*
X129346428Y-23753571D01*
X130489285Y-24825000D02*
X131203571Y-24825000D01*
X130346428Y-25253571D02*
X130846428Y-23753571D01*
X131346428Y-25253571D01*
X131846428Y-25253571D02*
X131846428Y-23753571D01*
X132703571Y-25253571D01*
X132703571Y-23753571D01*
X133417857Y-24467857D02*
X133917857Y-24467857D01*
X134132142Y-25253571D02*
X133417857Y-25253571D01*
X133417857Y-23753571D01*
X134132142Y-23753571D01*
X136775000Y-25110714D02*
X136703571Y-25182142D01*
X136489285Y-25253571D01*
X136346428Y-25253571D01*
X136132142Y-25182142D01*
X135989285Y-25039285D01*
X135917857Y-24896428D01*
X135846428Y-24610714D01*
X135846428Y-24396428D01*
X135917857Y-24110714D01*
X135989285Y-23967857D01*
X136132142Y-23825000D01*
X136346428Y-23753571D01*
X136489285Y-23753571D01*
X136703571Y-23825000D01*
X136775000Y-23896428D01*
X137703571Y-23753571D02*
X137989285Y-23753571D01*
X138132142Y-23825000D01*
X138275000Y-23967857D01*
X138346428Y-24253571D01*
X138346428Y-24753571D01*
X138275000Y-25039285D01*
X138132142Y-25182142D01*
X137989285Y-25253571D01*
X137703571Y-25253571D01*
X137560714Y-25182142D01*
X137417857Y-25039285D01*
X137346428Y-24753571D01*
X137346428Y-24253571D01*
X137417857Y-23967857D01*
X137560714Y-23825000D01*
X137703571Y-23753571D01*
X138989285Y-25253571D02*
X138989285Y-23753571D01*
X139846428Y-25253571D01*
X139846428Y-23753571D01*
X140560714Y-25253571D02*
X140560714Y-23753571D01*
X141417857Y-25253571D01*
X141417857Y-23753571D01*
X142132142Y-24467857D02*
X142632142Y-24467857D01*
X142846428Y-25253571D02*
X142132142Y-25253571D01*
X142132142Y-23753571D01*
X142846428Y-23753571D01*
X144346428Y-25110714D02*
X144275000Y-25182142D01*
X144060714Y-25253571D01*
X143917857Y-25253571D01*
X143703571Y-25182142D01*
X143560714Y-25039285D01*
X143489285Y-24896428D01*
X143417857Y-24610714D01*
X143417857Y-24396428D01*
X143489285Y-24110714D01*
X143560714Y-23967857D01*
X143703571Y-23825000D01*
X143917857Y-23753571D01*
X144060714Y-23753571D01*
X144275000Y-23825000D01*
X144346428Y-23896428D01*
X144775000Y-23753571D02*
X145632142Y-23753571D01*
X145203571Y-25253571D02*
X145203571Y-23753571D01*
X146417857Y-23753571D02*
X146703571Y-23753571D01*
X146846428Y-23825000D01*
X146989285Y-23967857D01*
X147060714Y-24253571D01*
X147060714Y-24753571D01*
X146989285Y-25039285D01*
X146846428Y-25182142D01*
X146703571Y-25253571D01*
X146417857Y-25253571D01*
X146275000Y-25182142D01*
X146132142Y-25039285D01*
X146060714Y-24753571D01*
X146060714Y-24253571D01*
X146132142Y-23967857D01*
X146275000Y-23825000D01*
X146417857Y-23753571D01*
X148560714Y-25253571D02*
X148060714Y-24539285D01*
X147703571Y-25253571D02*
X147703571Y-23753571D01*
X148275000Y-23753571D01*
X148417857Y-23825000D01*
X148489285Y-23896428D01*
X148560714Y-24039285D01*
X148560714Y-24253571D01*
X148489285Y-24396428D01*
X148417857Y-24467857D01*
X148275000Y-24539285D01*
X147703571Y-24539285D01*
D11*
X128628282Y-26537135D02*
G75*
G02*
X129216993Y-26166236I376872J54475D01*
G01*
X128866499Y-26641210D02*
G75*
G02*
X129200120Y-26415666I206735J53716D01*
G01*
X129311626Y-26839095D02*
G75*
G03*
X129311626Y-26839095I-75000J0D01*
G01*
X129664149Y-27038404D02*
X129236626Y-26839095D01*
X129244814Y-27310723D02*
X129236626Y-26839095D01*
X129794293Y-26596178D02*
G75*
G02*
X128787887Y-27249746I-693827J-33249D01*
G01*
X129590641Y-27384231D02*
X129481713Y-27216497D01*
X130245511Y-27910187D02*
G75*
G03*
X130245511Y-27910187I-50990J0D01*
G01*
X129876496Y-28149828D02*
G75*
G03*
X129876496Y-28149828I-50990J0D01*
G01*
X130690775Y-28160249D02*
G75*
G02*
X129852105Y-28704889I-419335J-272320D01*
G01*
X133144135Y-25970837D02*
X131466794Y-27060116D01*
X132011433Y-27898786D02*
X131875273Y-27689118D01*
X133552614Y-26599840D02*
X133416455Y-26390173D01*
X131875273Y-27689118D02*
X133552614Y-26599840D01*
X133280295Y-26180505D02*
X133144135Y-25970837D01*
X131602954Y-27269783D02*
X133280295Y-26180505D01*
X133416455Y-26390173D02*
X131739114Y-27479451D01*
X131749970Y-26578128D02*
X132169305Y-26305809D01*
X133405599Y-27291495D02*
X132588640Y-26033489D01*
X132986263Y-27563815D02*
X133405599Y-27291495D01*
X132566928Y-27836134D02*
X131749970Y-26578128D01*
X132169305Y-26305809D02*
X132986263Y-27563815D01*
X132147593Y-28108454D02*
X133824934Y-27019176D01*
X131739114Y-27479451D02*
X132147593Y-28108454D01*
X131330634Y-26850448D02*
X131739114Y-27479451D01*
X133007975Y-25761170D02*
X131330634Y-26850448D01*
X133824934Y-27019176D02*
X133007975Y-25761170D01*
X133688774Y-26809508D02*
X132011433Y-27898786D01*
X127137281Y-29573643D02*
X127954240Y-30831649D01*
X127556617Y-29301324D02*
X127137281Y-29573643D01*
X128373575Y-30559329D02*
X127556617Y-29301324D01*
X128792911Y-30287010D02*
X128373575Y-30559329D01*
X127975952Y-29029004D02*
X128792911Y-30287010D01*
X127398745Y-30894301D02*
X129076086Y-29805023D01*
X127262585Y-30684633D02*
X127398745Y-30894301D01*
X128939926Y-29595355D02*
X127262585Y-30684633D01*
X127126425Y-30474965D02*
X128803767Y-29385687D01*
X126990266Y-30265298D02*
X127126425Y-30474965D01*
X128667607Y-29176020D02*
X126990266Y-30265298D01*
X128531447Y-28966352D02*
X128667607Y-29176020D01*
X126854106Y-30055630D02*
X128531447Y-28966352D01*
X129212246Y-30014690D02*
X128803767Y-29385687D01*
X127534905Y-31103968D02*
X129212246Y-30014690D01*
X126717946Y-29845963D02*
X127534905Y-31103968D01*
X128395287Y-28756684D02*
X126717946Y-29845963D01*
X128803767Y-29385687D02*
X128395287Y-28756684D01*
X131319778Y-27751770D02*
X131739114Y-27479451D01*
X129223102Y-29113368D02*
X128803767Y-29385687D01*
X131319778Y-27751770D02*
X130952239Y-29480907D01*
X131319778Y-27751770D02*
X129590641Y-27384231D01*
X129590641Y-27384231D02*
X129223102Y-29113368D01*
X130952239Y-29480907D02*
X129223102Y-29113368D01*
M02*
