G04 #@! TF.GenerationSoftware,KiCad,Pcbnew,(5.1.9)-1*
G04 #@! TF.CreationDate,2021-12-19T15:19:46-05:00*
G04 #@! TF.ProjectId,backplane-breakout-FPC,6261636b-706c-4616-9e65-2d627265616b,rev?*
G04 #@! TF.SameCoordinates,Original*
G04 #@! TF.FileFunction,Legend,Bot*
G04 #@! TF.FilePolarity,Positive*
%FSLAX46Y46*%
G04 Gerber Fmt 4.6, Leading zero omitted, Abs format (unit mm)*
G04 Created by KiCad (PCBNEW (5.1.9)-1) date 2021-12-19 15:19:46*
%MOMM*%
%LPD*%
G01*
G04 APERTURE LIST*
%ADD10C,0.200000*%
%ADD11C,0.150000*%
G04 APERTURE END LIST*
D10*
X114970000Y-24750000D02*
X116760000Y-24750000D01*
X114970000Y-24750000D02*
X114970000Y-30230000D01*
X114970000Y-30230000D02*
X115980000Y-31250000D01*
X115980000Y-31250000D02*
X116760000Y-31250000D01*
X133240000Y-31250000D02*
X134020000Y-31250000D01*
X134020000Y-31250000D02*
X135030000Y-30230000D01*
X135030000Y-30230000D02*
X135030000Y-24750000D01*
X135030000Y-24750000D02*
X133240000Y-24750000D01*
X117300000Y-23800000D02*
G75*
G03*
X117300000Y-23800000I-100000J0D01*
G01*
X135970000Y-177150000D02*
X137760000Y-177150000D01*
X135970000Y-177150000D02*
X135970000Y-182630000D01*
X135970000Y-182630000D02*
X136980000Y-183650000D01*
X136980000Y-183650000D02*
X137760000Y-183650000D01*
X154240000Y-183650000D02*
X155020000Y-183650000D01*
X155020000Y-183650000D02*
X156030000Y-182630000D01*
X156030000Y-182630000D02*
X156030000Y-177150000D01*
X156030000Y-177150000D02*
X154240000Y-177150000D01*
X138300000Y-176200000D02*
G75*
G03*
X138300000Y-176200000I-100000J0D01*
G01*
X114970000Y-177150000D02*
X116760000Y-177150000D01*
X114970000Y-177150000D02*
X114970000Y-182630000D01*
X114970000Y-182630000D02*
X115980000Y-183650000D01*
X115980000Y-183650000D02*
X116760000Y-183650000D01*
X133240000Y-183650000D02*
X134020000Y-183650000D01*
X134020000Y-183650000D02*
X135030000Y-182630000D01*
X135030000Y-182630000D02*
X135030000Y-177150000D01*
X135030000Y-177150000D02*
X133240000Y-177150000D01*
X117300000Y-176200000D02*
G75*
G03*
X117300000Y-176200000I-100000J0D01*
G01*
X135970000Y-24750000D02*
X137760000Y-24750000D01*
X135970000Y-24750000D02*
X135970000Y-30230000D01*
X135970000Y-30230000D02*
X136980000Y-31250000D01*
X136980000Y-31250000D02*
X137760000Y-31250000D01*
X154240000Y-31250000D02*
X155020000Y-31250000D01*
X155020000Y-31250000D02*
X156030000Y-30230000D01*
X156030000Y-30230000D02*
X156030000Y-24750000D01*
X156030000Y-24750000D02*
X154240000Y-24750000D01*
X138300000Y-23800000D02*
G75*
G03*
X138300000Y-23800000I-100000J0D01*
G01*
D11*
X134835714Y-23302380D02*
X134835714Y-24016666D01*
X134883333Y-24159523D01*
X134978571Y-24254761D01*
X135121428Y-24302380D01*
X135216666Y-24302380D01*
X133835714Y-24302380D02*
X134407142Y-24302380D01*
X134121428Y-24302380D02*
X134121428Y-23302380D01*
X134216666Y-23445238D01*
X134311904Y-23540476D01*
X134407142Y-23588095D01*
X133216666Y-23302380D02*
X133121428Y-23302380D01*
X133026190Y-23350000D01*
X132978571Y-23397619D01*
X132930952Y-23492857D01*
X132883333Y-23683333D01*
X132883333Y-23921428D01*
X132930952Y-24111904D01*
X132978571Y-24207142D01*
X133026190Y-24254761D01*
X133121428Y-24302380D01*
X133216666Y-24302380D01*
X133311904Y-24254761D01*
X133359523Y-24207142D01*
X133407142Y-24111904D01*
X133454761Y-23921428D01*
X133454761Y-23683333D01*
X133407142Y-23492857D01*
X133359523Y-23397619D01*
X133311904Y-23350000D01*
X133216666Y-23302380D01*
X132264285Y-23302380D02*
X132169047Y-23302380D01*
X132073809Y-23350000D01*
X132026190Y-23397619D01*
X131978571Y-23492857D01*
X131930952Y-23683333D01*
X131930952Y-23921428D01*
X131978571Y-24111904D01*
X132026190Y-24207142D01*
X132073809Y-24254761D01*
X132169047Y-24302380D01*
X132264285Y-24302380D01*
X132359523Y-24254761D01*
X132407142Y-24207142D01*
X132454761Y-24111904D01*
X132502380Y-23921428D01*
X132502380Y-23683333D01*
X132454761Y-23492857D01*
X132407142Y-23397619D01*
X132359523Y-23350000D01*
X132264285Y-23302380D01*
X156310714Y-184027380D02*
X156310714Y-184741666D01*
X156358333Y-184884523D01*
X156453571Y-184979761D01*
X156596428Y-185027380D01*
X156691666Y-185027380D01*
X155882142Y-184122619D02*
X155834523Y-184075000D01*
X155739285Y-184027380D01*
X155501190Y-184027380D01*
X155405952Y-184075000D01*
X155358333Y-184122619D01*
X155310714Y-184217857D01*
X155310714Y-184313095D01*
X155358333Y-184455952D01*
X155929761Y-185027380D01*
X155310714Y-185027380D01*
X154691666Y-184027380D02*
X154596428Y-184027380D01*
X154501190Y-184075000D01*
X154453571Y-184122619D01*
X154405952Y-184217857D01*
X154358333Y-184408333D01*
X154358333Y-184646428D01*
X154405952Y-184836904D01*
X154453571Y-184932142D01*
X154501190Y-184979761D01*
X154596428Y-185027380D01*
X154691666Y-185027380D01*
X154786904Y-184979761D01*
X154834523Y-184932142D01*
X154882142Y-184836904D01*
X154929761Y-184646428D01*
X154929761Y-184408333D01*
X154882142Y-184217857D01*
X154834523Y-184122619D01*
X154786904Y-184075000D01*
X154691666Y-184027380D01*
X153405952Y-185027380D02*
X153977380Y-185027380D01*
X153691666Y-185027380D02*
X153691666Y-184027380D01*
X153786904Y-184170238D01*
X153882142Y-184265476D01*
X153977380Y-184313095D01*
X117235714Y-184177380D02*
X117235714Y-184891666D01*
X117283333Y-185034523D01*
X117378571Y-185129761D01*
X117521428Y-185177380D01*
X117616666Y-185177380D01*
X116807142Y-184272619D02*
X116759523Y-184225000D01*
X116664285Y-184177380D01*
X116426190Y-184177380D01*
X116330952Y-184225000D01*
X116283333Y-184272619D01*
X116235714Y-184367857D01*
X116235714Y-184463095D01*
X116283333Y-184605952D01*
X116854761Y-185177380D01*
X116235714Y-185177380D01*
X115616666Y-184177380D02*
X115521428Y-184177380D01*
X115426190Y-184225000D01*
X115378571Y-184272619D01*
X115330952Y-184367857D01*
X115283333Y-184558333D01*
X115283333Y-184796428D01*
X115330952Y-184986904D01*
X115378571Y-185082142D01*
X115426190Y-185129761D01*
X115521428Y-185177380D01*
X115616666Y-185177380D01*
X115711904Y-185129761D01*
X115759523Y-185082142D01*
X115807142Y-184986904D01*
X115854761Y-184796428D01*
X115854761Y-184558333D01*
X115807142Y-184367857D01*
X115759523Y-184272619D01*
X115711904Y-184225000D01*
X115616666Y-184177380D01*
X114664285Y-184177380D02*
X114569047Y-184177380D01*
X114473809Y-184225000D01*
X114426190Y-184272619D01*
X114378571Y-184367857D01*
X114330952Y-184558333D01*
X114330952Y-184796428D01*
X114378571Y-184986904D01*
X114426190Y-185082142D01*
X114473809Y-185129761D01*
X114569047Y-185177380D01*
X114664285Y-185177380D01*
X114759523Y-185129761D01*
X114807142Y-185082142D01*
X114854761Y-184986904D01*
X114902380Y-184796428D01*
X114902380Y-184558333D01*
X114854761Y-184367857D01*
X114807142Y-184272619D01*
X114759523Y-184225000D01*
X114664285Y-184177380D01*
X155535714Y-23377380D02*
X155535714Y-24091666D01*
X155583333Y-24234523D01*
X155678571Y-24329761D01*
X155821428Y-24377380D01*
X155916666Y-24377380D01*
X154535714Y-24377380D02*
X155107142Y-24377380D01*
X154821428Y-24377380D02*
X154821428Y-23377380D01*
X154916666Y-23520238D01*
X155011904Y-23615476D01*
X155107142Y-23663095D01*
X153916666Y-23377380D02*
X153821428Y-23377380D01*
X153726190Y-23425000D01*
X153678571Y-23472619D01*
X153630952Y-23567857D01*
X153583333Y-23758333D01*
X153583333Y-23996428D01*
X153630952Y-24186904D01*
X153678571Y-24282142D01*
X153726190Y-24329761D01*
X153821428Y-24377380D01*
X153916666Y-24377380D01*
X154011904Y-24329761D01*
X154059523Y-24282142D01*
X154107142Y-24186904D01*
X154154761Y-23996428D01*
X154154761Y-23758333D01*
X154107142Y-23567857D01*
X154059523Y-23472619D01*
X154011904Y-23425000D01*
X153916666Y-23377380D01*
X152630952Y-24377380D02*
X153202380Y-24377380D01*
X152916666Y-24377380D02*
X152916666Y-23377380D01*
X153011904Y-23520238D01*
X153107142Y-23615476D01*
X153202380Y-23663095D01*
M02*
