M48
INCH,TZ
T1C0.0079
%
G90
G05
T1
X46161Y-9469
X46161Y-12539
X46161Y-69508
X46161Y-72598
X46358Y-9291
X46358Y-12884
X46358Y-69163
X46358Y-72776
X46555Y-9449
X46555Y-12539
X46555Y-69508
X46555Y-72598
X46752Y-9272
X46752Y-12884
X46752Y-69163
X46752Y-72776
X46949Y-9449
X46949Y-12539
X46949Y-69508
X46949Y-72598
X47146Y-9272
X47146Y-12884
X47146Y-69163
X47146Y-72776
X47343Y-9449
X47343Y-12539
X47343Y-69508
X47343Y-72598
X47539Y-9272
X47539Y-12884
X47539Y-69163
X47539Y-72776
X47736Y-9449
X47736Y-12539
X47736Y-69508
X47736Y-72598
X47933Y-9272
X47933Y-12884
X47933Y-69163
X47933Y-72776
X48130Y-9449
X48130Y-12539
X48130Y-69508
X48130Y-72598
X48327Y-9272
X48327Y-12884
X48327Y-69163
X48327Y-72776
X48524Y-9449
X48524Y-12539
X48524Y-69508
X48524Y-72598
X48720Y-9272
X48720Y-12884
X48720Y-69163
X48720Y-72776
X48917Y-9449
X48917Y-12539
X48917Y-69508
X48917Y-72598
X49508Y-9449
X49508Y-12539
X49508Y-69508
X49508Y-72598
X49705Y-9291
X49705Y-12884
X49705Y-69163
X49705Y-72776
X49902Y-9449
X49902Y-12539
X49902Y-69508
X49902Y-72598
X50098Y-9272
X50098Y-12884
X50098Y-69163
X50098Y-72776
X50295Y-9449
X50295Y-12539
X50295Y-69508
X50295Y-72598
X50492Y-9272
X50492Y-12884
X50492Y-69163
X50492Y-72776
X50689Y-9449
X50689Y-12539
X50689Y-69508
X50689Y-72598
X50886Y-9272
X50886Y-12884
X50886Y-69163
X50886Y-72776
X51083Y-9449
X51083Y-12539
X51083Y-69508
X51083Y-72598
X51280Y-9272
X51280Y-12884
X51280Y-69163
X51280Y-72776
X51476Y-9449
X51476Y-12539
X51476Y-69508
X51476Y-72598
X51673Y-9272
X51673Y-12884
X51673Y-69163
X51673Y-72776
X51870Y-9449
X51870Y-12539
X51870Y-69508
X51870Y-72598
X52067Y-9272
X52067Y-12884
X52067Y-69163
X52067Y-72776
X52264Y-9449
X52264Y-12539
X52264Y-69508
X52264Y-72598
X54429Y-9449
X54429Y-12539
X54429Y-69508
X54429Y-72598
X54626Y-9291
X54626Y-12884
X54626Y-69163
X54626Y-72776
X54823Y-9449
X54823Y-12539
X54823Y-69508
X54823Y-72598
X55020Y-9272
X55020Y-12884
X55020Y-69163
X55020Y-72776
X55217Y-9449
X55217Y-12539
X55217Y-69508
X55217Y-72598
X55413Y-9272
X55413Y-12884
X55413Y-69163
X55413Y-72776
X55610Y-9449
X55610Y-12539
X55610Y-69508
X55610Y-72598
X55807Y-9272
X55807Y-12884
X55807Y-69163
X55807Y-72776
X56004Y-9449
X56004Y-12539
X56004Y-69508
X56004Y-72598
X56201Y-9272
X56201Y-12884
X56201Y-69163
X56201Y-72776
X56398Y-9449
X56398Y-12539
X56398Y-69508
X56398Y-72598
X56594Y-9272
X56594Y-12884
X56594Y-69163
X56594Y-72776
X56791Y-9449
X56791Y-12539
X56791Y-69508
X56791Y-72598
X56988Y-9272
X56988Y-12884
X56988Y-69163
X56988Y-72756
X57185Y-9449
X57185Y-12539
X57185Y-69508
X57185Y-72598
X57776Y-9469
X57776Y-12539
X57776Y-69508
X57776Y-72598
X57972Y-9291
X57972Y-12884
X57972Y-69163
X57972Y-72776
X58169Y-9449
X58169Y-12539
X58169Y-69508
X58169Y-72598
X58366Y-9272
X58366Y-12884
X58366Y-69163
X58366Y-72776
X58563Y-9449
X58563Y-12539
X58563Y-69508
X58563Y-72598
X58760Y-9272
X58760Y-12884
X58760Y-69163
X58760Y-72776
X58957Y-9449
X58957Y-12539
X58957Y-69508
X58957Y-72598
X59154Y-9272
X59154Y-12884
X59154Y-69163
X59154Y-72776
X59350Y-9449
X59350Y-12539
X59350Y-69508
X59350Y-72598
X59547Y-9272
X59547Y-12884
X59547Y-69163
X59547Y-72776
X59744Y-9449
X59744Y-12539
X59744Y-69508
X59744Y-72598
X59941Y-9272
X59941Y-12884
X59941Y-69163
X59941Y-72776
X60138Y-9449
X60138Y-12539
X60138Y-69508
X60138Y-72598
X60335Y-9272
X60335Y-12884
X60335Y-69163
X60335Y-72756
X60531Y-9449
X60531Y-12539
X60531Y-69508
X60531Y-72598
T0
M30
