G04 #@! TF.GenerationSoftware,KiCad,Pcbnew,(5.1.9)-1*
G04 #@! TF.CreationDate,2021-12-19T15:19:46-05:00*
G04 #@! TF.ProjectId,backplane-breakout-FPC,6261636b-706c-4616-9e65-2d627265616b,rev?*
G04 #@! TF.SameCoordinates,Original*
G04 #@! TF.FileFunction,Profile,NP*
%FSLAX46Y46*%
G04 Gerber Fmt 4.6, Leading zero omitted, Abs format (unit mm)*
G04 Created by KiCad (PCBNEW (5.1.9)-1) date 2021-12-19 15:19:46*
%MOMM*%
%LPD*%
G01*
G04 APERTURE LIST*
G04 #@! TA.AperFunction,Profile*
%ADD10C,0.050000*%
G04 #@! TD*
G04 APERTURE END LIST*
D10*
X114500000Y-33000000D02*
G75*
G02*
X115600000Y-34100000I0J-1100000D01*
G01*
X156500000Y-33000000D02*
G75*
G03*
X155400000Y-34100000I0J-1100000D01*
G01*
X114500000Y-175400000D02*
G75*
G03*
X115600000Y-174300000I0J1100000D01*
G01*
X155400000Y-174300000D02*
X155400000Y-34100000D01*
X156500000Y-175400000D02*
G75*
G02*
X155400000Y-174300000I0J1100000D01*
G01*
X115600000Y-174300000D02*
X115600000Y-34100000D01*
X114000000Y-184900000D02*
G75*
G03*
X114500000Y-185400000I500000J0D01*
G01*
X157000000Y-184900000D02*
X157000000Y-175900000D01*
X114000000Y-184900000D02*
X114000000Y-175900000D01*
X114000000Y-175900000D02*
G75*
G02*
X114500000Y-175400000I500000J0D01*
G01*
X157000000Y-184900000D02*
G75*
G02*
X156500000Y-185400000I-500000J0D01*
G01*
X156500000Y-175400000D02*
G75*
G02*
X157000000Y-175900000I0J-500000D01*
G01*
X156500000Y-185400000D02*
X114500000Y-185400000D01*
X156500000Y-23000000D02*
G75*
G02*
X157000000Y-23500000I0J-500000D01*
G01*
X157000000Y-32500000D02*
G75*
G02*
X156500000Y-33000000I-500000J0D01*
G01*
X114000000Y-32500000D02*
G75*
G03*
X114500000Y-33000000I500000J0D01*
G01*
X114500000Y-23000000D02*
X156500000Y-23000000D01*
X114000000Y-32500000D02*
X114000000Y-23500000D01*
X114000000Y-23500000D02*
G75*
G02*
X114500000Y-23000000I500000J0D01*
G01*
X157000000Y-32500000D02*
X157000000Y-23500000D01*
M02*
