G04 #@! TF.GenerationSoftware,KiCad,Pcbnew,(5.1.9)-1*
G04 #@! TF.CreationDate,2021-12-19T15:19:46-05:00*
G04 #@! TF.ProjectId,backplane-breakout-FPC,6261636b-706c-4616-9e65-2d627265616b,rev?*
G04 #@! TF.SameCoordinates,Original*
G04 #@! TF.FileFunction,Copper,L2,Inr*
G04 #@! TF.FilePolarity,Positive*
%FSLAX46Y46*%
G04 Gerber Fmt 4.6, Leading zero omitted, Abs format (unit mm)*
G04 Created by KiCad (PCBNEW (5.1.9)-1) date 2021-12-19 15:19:46*
%MOMM*%
%LPD*%
G01*
G04 APERTURE LIST*
G04 #@! TA.AperFunction,ViaPad*
%ADD10C,0.500000*%
G04 #@! TD*
G04 #@! TA.AperFunction,Conductor*
%ADD11C,0.500000*%
G04 #@! TD*
G04 #@! TA.AperFunction,Conductor*
%ADD12C,0.250000*%
G04 #@! TD*
G04 APERTURE END LIST*
D10*
X132750000Y-31850000D03*
X132750000Y-184400000D03*
X132750000Y-176550000D03*
X132750000Y-24000000D03*
X132250000Y-32725000D03*
X132250000Y-184850000D03*
X132250000Y-175675000D03*
X132250000Y-23550000D03*
X131750000Y-31850000D03*
X131750000Y-184400000D03*
X131750000Y-176550000D03*
X131750000Y-24000000D03*
X131250000Y-32725000D03*
X131250000Y-184850000D03*
X131250000Y-175675000D03*
X131250000Y-23550000D03*
X130750000Y-31850000D03*
X130750000Y-184400000D03*
X130750000Y-176550000D03*
X130750000Y-24000000D03*
X130250000Y-32725000D03*
X130250000Y-184850000D03*
X130250000Y-175675000D03*
X130250000Y-23550000D03*
X129750000Y-31850000D03*
X129750000Y-184400000D03*
X129750000Y-176550000D03*
X129750000Y-24000000D03*
X129250000Y-32725000D03*
X129250000Y-184850000D03*
X129250000Y-175675000D03*
X129250000Y-23550000D03*
X128750000Y-31850000D03*
X128750000Y-184400000D03*
X128750000Y-176550000D03*
X128750000Y-24000000D03*
X128250000Y-32725000D03*
X128250000Y-184850000D03*
X128250000Y-175675000D03*
X128250000Y-23550000D03*
X127750000Y-31850000D03*
X127750000Y-184400000D03*
X127750000Y-176550000D03*
X127750000Y-24000000D03*
X127250000Y-32725000D03*
X127250000Y-184850000D03*
X149750000Y-31850000D03*
X140750000Y-32725000D03*
X139750000Y-32725000D03*
X139750000Y-175675000D03*
X139750000Y-184850000D03*
X140750000Y-184850000D03*
X149750000Y-176550000D03*
X149750000Y-184400000D03*
X149750000Y-24000000D03*
X139750000Y-23550000D03*
X126750000Y-31850000D03*
X126750000Y-184400000D03*
X126750000Y-176550000D03*
X126750000Y-24000000D03*
X126250000Y-184850000D03*
X126250000Y-32725000D03*
X126250000Y-175675000D03*
X126250000Y-23600000D03*
X125750000Y-184400000D03*
X125750000Y-31850000D03*
X125750000Y-176550000D03*
X125750000Y-24000000D03*
X124250000Y-184400000D03*
X124250000Y-31850000D03*
X124250000Y-176550000D03*
X124250000Y-24000000D03*
X123750000Y-184850000D03*
X123750000Y-32725000D03*
X123750000Y-175675000D03*
X123750000Y-23550000D03*
X123250000Y-184400000D03*
X123250000Y-31850000D03*
X123250000Y-176550000D03*
X123250000Y-24000000D03*
X122750000Y-184850000D03*
X122750000Y-32725000D03*
X122750000Y-175675000D03*
X122750000Y-23550000D03*
X122250000Y-184400000D03*
X122250000Y-31850000D03*
X122250000Y-176550000D03*
X122250000Y-24000000D03*
X121750000Y-184850000D03*
X121750000Y-32725000D03*
X121750000Y-175675000D03*
X121750000Y-23550000D03*
X121250000Y-184400000D03*
X121250000Y-31850000D03*
X121250000Y-176550000D03*
X121250000Y-24000000D03*
X120750000Y-184850000D03*
X120750000Y-32725000D03*
X120750000Y-175675000D03*
X120750000Y-23550000D03*
X120250000Y-184400000D03*
X120250000Y-31850000D03*
X120250000Y-176550000D03*
X120250000Y-24000000D03*
X119750000Y-184850000D03*
X119750000Y-32725000D03*
X119750000Y-175675000D03*
X119750000Y-23550000D03*
X119250000Y-184400000D03*
X119250000Y-31850000D03*
X119250000Y-176550000D03*
X119250000Y-24000000D03*
X118750000Y-184850000D03*
X118750000Y-32725000D03*
X118750000Y-175675000D03*
X118750000Y-23550000D03*
X118250000Y-184400000D03*
X118250000Y-31850000D03*
X118250000Y-176550000D03*
X118250000Y-24000000D03*
X117750000Y-184850000D03*
X117750000Y-32725000D03*
X117750000Y-175675000D03*
X117750000Y-23600000D03*
X117250000Y-184400000D03*
X117250000Y-31850000D03*
X117250000Y-176550000D03*
X117250000Y-24050000D03*
X153750000Y-31850000D03*
X153750000Y-184400000D03*
X153750000Y-176550000D03*
X153750000Y-24000000D03*
X153250000Y-32725000D03*
X153250000Y-184800000D03*
X153250000Y-175675000D03*
X153250000Y-23550000D03*
X152750000Y-31850000D03*
X152750000Y-184400000D03*
X152750000Y-176550000D03*
X152750000Y-24000000D03*
X152250000Y-32725000D03*
X152250000Y-184850000D03*
X152250000Y-175675000D03*
X152250000Y-23550000D03*
X151750000Y-31850000D03*
X151750000Y-184400000D03*
X151750000Y-176550000D03*
X151750000Y-24000000D03*
X151250000Y-32725000D03*
X151250000Y-184850000D03*
X151250000Y-175675000D03*
X151250000Y-23550000D03*
X150750000Y-31850000D03*
X150750000Y-184400000D03*
X150750000Y-176550000D03*
X150750000Y-24000000D03*
X150250000Y-32725000D03*
X150250000Y-184850000D03*
X150250000Y-175675000D03*
X150250000Y-23550000D03*
X149250000Y-32725000D03*
X149250000Y-184850000D03*
X149250000Y-175675000D03*
X149250000Y-23550000D03*
X148750000Y-31850000D03*
X148750000Y-184400000D03*
X148750000Y-176550000D03*
X148750000Y-24000000D03*
X148250000Y-32725000D03*
X148250000Y-184850000D03*
X148250000Y-175675000D03*
X148250000Y-23550000D03*
X147750000Y-31850000D03*
X147750000Y-184400000D03*
X147750000Y-176550000D03*
X147750000Y-24000000D03*
X147250000Y-32725000D03*
X147250000Y-184850000D03*
X147250000Y-175675000D03*
X147250000Y-23600000D03*
X146750000Y-31850000D03*
X146750000Y-184400000D03*
X146750000Y-176550000D03*
X146750000Y-24050000D03*
X145250000Y-31850000D03*
X145250000Y-184400000D03*
X145250000Y-176550000D03*
X145250000Y-24000000D03*
X144750000Y-32725000D03*
X144750000Y-184800000D03*
X144750000Y-175675000D03*
X144750000Y-23550000D03*
X144250000Y-31850000D03*
X144250000Y-184400000D03*
X144250000Y-176550000D03*
X144250000Y-24000000D03*
X143750000Y-32725000D03*
X143750000Y-184850000D03*
X143750000Y-175675000D03*
X143750000Y-23550000D03*
X143250000Y-31850000D03*
X143250000Y-184400000D03*
X143250000Y-176550000D03*
X143250000Y-24000000D03*
X142750000Y-32725000D03*
X142750000Y-184850000D03*
X142750000Y-175675000D03*
X142750000Y-23550000D03*
X142250000Y-31850000D03*
X142250000Y-184400000D03*
X142250000Y-176550000D03*
X142250000Y-24000000D03*
X141750000Y-32725000D03*
X141750000Y-184850000D03*
X141750000Y-175675000D03*
X141750000Y-23550000D03*
X141250000Y-31850000D03*
X141250000Y-184400000D03*
X141250000Y-176550000D03*
X141250000Y-24000000D03*
X140750000Y-175675000D03*
X140750000Y-23550000D03*
X140250000Y-31850000D03*
X140250000Y-184400000D03*
X140250000Y-176550000D03*
X140250000Y-24000000D03*
X139250000Y-31850000D03*
X139250000Y-184400000D03*
X139250000Y-176550000D03*
X139250000Y-24000000D03*
X138750000Y-184850000D03*
X138750000Y-32725000D03*
X138750000Y-175675000D03*
X138750000Y-23600000D03*
X138250000Y-184400000D03*
X138250000Y-31850000D03*
X138250000Y-176550000D03*
X138250000Y-24000000D03*
X127250000Y-175675000D03*
X127250000Y-23550000D03*
D11*
X132250000Y-24400000D02*
X132250000Y-31461998D01*
X132250000Y-33400002D02*
X132250000Y-175675000D01*
D12*
X132250000Y-33550000D02*
X132250000Y-175675000D01*
X132725001Y-33074999D02*
X132250000Y-33550000D01*
X132725001Y-32496999D02*
X132725001Y-33074999D01*
X132250000Y-32021998D02*
X132725001Y-32496999D01*
X132250000Y-23600000D02*
X132250000Y-32021998D01*
D11*
X131250000Y-24400000D02*
X131250000Y-31461998D01*
X131250000Y-33400002D02*
X131250000Y-175675000D01*
D12*
X131725001Y-33074999D02*
X131250000Y-33550000D01*
X131725001Y-32496999D02*
X131725001Y-33074999D01*
X131250000Y-32021998D02*
X131725001Y-32496999D01*
X131250000Y-33550000D02*
X131250000Y-175675000D01*
X131250000Y-23600000D02*
X131250000Y-32021998D01*
D11*
X130250000Y-24400000D02*
X130250000Y-31461998D01*
X130250000Y-33400002D02*
X130250000Y-175675000D01*
D12*
X130250000Y-33550000D02*
X130250000Y-175675000D01*
X130725001Y-33074999D02*
X130250000Y-33550000D01*
X130725001Y-32496999D02*
X130725001Y-33074999D01*
X130250000Y-32021998D02*
X130725001Y-32496999D01*
X130250000Y-23600000D02*
X130250000Y-32021998D01*
D11*
X129250000Y-24400000D02*
X129250000Y-31461998D01*
X129250000Y-33400002D02*
X129250000Y-175675000D01*
D12*
X129250000Y-33550000D02*
X129250000Y-175675000D01*
X129725001Y-33074999D02*
X129250000Y-33550000D01*
X129725001Y-32496999D02*
X129725001Y-33074999D01*
X129250000Y-32021998D02*
X129725001Y-32496999D01*
X129250000Y-23600000D02*
X129250000Y-32021998D01*
D11*
X128250000Y-24400000D02*
X128250000Y-31461998D01*
X128250000Y-33400002D02*
X128250000Y-175675000D01*
D12*
X128250000Y-33550000D02*
X128250000Y-175675000D01*
X128725001Y-32496999D02*
X128725001Y-33074999D01*
X128725001Y-33074999D02*
X128250000Y-33550000D01*
X128250000Y-32021998D02*
X128725001Y-32496999D01*
X128250000Y-23600000D02*
X128250000Y-32021998D01*
X139750000Y-33550000D02*
X139750000Y-175675000D01*
X140225001Y-32496999D02*
X140225001Y-33074999D01*
X139750000Y-23600000D02*
X139750000Y-32021998D01*
X140225001Y-33074999D02*
X139750000Y-33550000D01*
X139750000Y-32021998D02*
X140225001Y-32496999D01*
D11*
X139750000Y-24400000D02*
X139750000Y-31461998D01*
X139750000Y-33400002D02*
X139750000Y-175675000D01*
D12*
X139750000Y-33550000D02*
X139750000Y-175675000D01*
X140225001Y-33074999D02*
X139750000Y-33550000D01*
X140225001Y-32528003D02*
X140225001Y-33074999D01*
X139750000Y-32053002D02*
X140225001Y-32528003D01*
X139750000Y-23600000D02*
X139750000Y-32053002D01*
D11*
X126250000Y-24450000D02*
X126250000Y-31511998D01*
X126250000Y-33450002D02*
X126250000Y-175725000D01*
D12*
X126250000Y-33550000D02*
X126250000Y-175675000D01*
X126725001Y-33074999D02*
X126250000Y-33550000D01*
X126725001Y-32496999D02*
X126725001Y-33074999D01*
X126250000Y-32021998D02*
X126725001Y-32496999D01*
X126250000Y-23600000D02*
X126250000Y-32021998D01*
D11*
X123750000Y-24400000D02*
X123750000Y-31461998D01*
X123750000Y-33400002D02*
X123750000Y-175675000D01*
D12*
X123750000Y-33550000D02*
X123750000Y-175675000D01*
X124225001Y-33074999D02*
X123750000Y-33550000D01*
X124225001Y-32496999D02*
X124225001Y-33074999D01*
X123750000Y-32021998D02*
X124225001Y-32496999D01*
X123750000Y-23600000D02*
X123750000Y-32021998D01*
D11*
X122750000Y-24400000D02*
X122750000Y-31461998D01*
X122750000Y-33400002D02*
X122750000Y-175675000D01*
D12*
X122750000Y-33550000D02*
X122750000Y-175675000D01*
X123225001Y-33074999D02*
X122750000Y-33550000D01*
X123225001Y-32496999D02*
X123225001Y-33074999D01*
X122750000Y-32021998D02*
X123225001Y-32496999D01*
X122750000Y-23600000D02*
X122750000Y-32021998D01*
D11*
X121750000Y-24400000D02*
X121750000Y-31461998D01*
X121750000Y-33400002D02*
X121750000Y-175675000D01*
D12*
X121750000Y-33550000D02*
X121750000Y-175675000D01*
X122225001Y-33074999D02*
X121750000Y-33550000D01*
X122225001Y-32496999D02*
X122225001Y-33074999D01*
X121750000Y-32021998D02*
X122225001Y-32496999D01*
X121750000Y-23600000D02*
X121750000Y-32021998D01*
D11*
X120750000Y-24400000D02*
X120750000Y-31461998D01*
X120750000Y-33400002D02*
X120750000Y-175675000D01*
D12*
X120750000Y-33550000D02*
X120750000Y-175675000D01*
X121225001Y-33074999D02*
X120750000Y-33550000D01*
X121225001Y-32496999D02*
X121225001Y-33074999D01*
X120750000Y-32021998D02*
X121225001Y-32496999D01*
X120750000Y-23600000D02*
X120750000Y-32021998D01*
D11*
X119750000Y-24400000D02*
X119750000Y-31461998D01*
X119750000Y-33400002D02*
X119750000Y-175675000D01*
D12*
X119750000Y-33550000D02*
X119750000Y-175675000D01*
X120225001Y-33074999D02*
X119750000Y-33550000D01*
X120225001Y-32496999D02*
X120225001Y-33074999D01*
X119750000Y-32021998D02*
X120225001Y-32496999D01*
X119750000Y-23600000D02*
X119750000Y-32021998D01*
D11*
X118750000Y-33400002D02*
X118750000Y-175675000D01*
X118750000Y-24400000D02*
X118750000Y-31461998D01*
D12*
X118750000Y-33550000D02*
X118750000Y-175675000D01*
X119225001Y-33074999D02*
X118750000Y-33550000D01*
X119225001Y-32496999D02*
X119225001Y-33074999D01*
X118750000Y-32021998D02*
X119225001Y-32496999D01*
X118750000Y-23600000D02*
X118750000Y-32021998D01*
X117750000Y-23600000D02*
X117725001Y-23575001D01*
X118225001Y-32925001D02*
X117750000Y-33400002D01*
X118225001Y-32496999D02*
X118225001Y-32925001D01*
X117750000Y-32021998D02*
X118225001Y-32496999D01*
D11*
X117750000Y-24400000D02*
X117750000Y-31461998D01*
D12*
X117750000Y-23600000D02*
X117750000Y-24400000D01*
X117750000Y-24400000D02*
X117750000Y-32021998D01*
D11*
X117750000Y-33400002D02*
X117750000Y-175675000D01*
D12*
X153250000Y-33550000D02*
X153250000Y-175675000D01*
X153725001Y-33074999D02*
X153250000Y-33550000D01*
X153725001Y-32496999D02*
X153725001Y-33074999D01*
X153250000Y-32021998D02*
X153725001Y-32496999D01*
X153250000Y-23600000D02*
X153250000Y-32021998D01*
D11*
X153250000Y-24400000D02*
X153250000Y-31461998D01*
X153250000Y-33400002D02*
X153250000Y-175675000D01*
D12*
X153250000Y-33550000D02*
X153250000Y-175675000D01*
X153725001Y-32496999D02*
X153725001Y-33074999D01*
X153250000Y-32021998D02*
X153725001Y-32496999D01*
X153725001Y-33074999D02*
X153250000Y-33550000D01*
X153250000Y-23600000D02*
X153250000Y-32021998D01*
X152250000Y-33550000D02*
X152250000Y-175675000D01*
X152250000Y-32021998D02*
X152725001Y-32496999D01*
X152725001Y-33074999D02*
X152250000Y-33550000D01*
X152725001Y-32496999D02*
X152725001Y-33074999D01*
X152250000Y-23600000D02*
X152250000Y-32021998D01*
D11*
X152250000Y-33400002D02*
X152250000Y-175675000D01*
X152250000Y-24400000D02*
X152250000Y-31461998D01*
D12*
X152725001Y-33074999D02*
X152250000Y-33550000D01*
X152725001Y-32496999D02*
X152725001Y-33074999D01*
X152250000Y-32021998D02*
X152725001Y-32496999D01*
X152250000Y-33550000D02*
X152250000Y-175675000D01*
X152250000Y-23600000D02*
X152250000Y-32021998D01*
X151725001Y-32496999D02*
X151725001Y-33074999D01*
X151250000Y-32021998D02*
X151725001Y-32496999D01*
X151725001Y-33074999D02*
X151250000Y-33550000D01*
X151250000Y-33550000D02*
X151250000Y-175675000D01*
X151250000Y-23600000D02*
X151250000Y-32021998D01*
D11*
X151250000Y-33400002D02*
X151250000Y-175675000D01*
X151250000Y-24400000D02*
X151250000Y-31461998D01*
D12*
X151250000Y-33550000D02*
X151250000Y-175675000D01*
X151725001Y-33074999D02*
X151250000Y-33550000D01*
X151725001Y-32496999D02*
X151725001Y-33074999D01*
X151250000Y-32021998D02*
X151725001Y-32496999D01*
X151250000Y-23600000D02*
X151250000Y-32021998D01*
X150250000Y-32021998D02*
X150725001Y-32496999D01*
X150250000Y-23600000D02*
X150250000Y-32021998D01*
X150250000Y-33550000D02*
X150250000Y-175675000D01*
X150725001Y-32496999D02*
X150725001Y-33074999D01*
X150725001Y-33074999D02*
X150250000Y-33550000D01*
D11*
X150250000Y-24400000D02*
X150250000Y-31461998D01*
X150250000Y-33400002D02*
X150250000Y-175675000D01*
D12*
X150250000Y-33550000D02*
X150250000Y-175675000D01*
X150725001Y-33074999D02*
X150250000Y-33550000D01*
X150725001Y-32496999D02*
X150725001Y-33074999D01*
X150250000Y-32021998D02*
X150725001Y-32496999D01*
X150250000Y-23600000D02*
X150250000Y-32021998D01*
X149725001Y-32496999D02*
X149725001Y-33074999D01*
X149250000Y-23600000D02*
X149250000Y-32021998D01*
X149725001Y-33074999D02*
X149250000Y-33550000D01*
X149250000Y-33550000D02*
X149250000Y-175675000D01*
X149250000Y-32021998D02*
X149725001Y-32496999D01*
D11*
X149250000Y-24400000D02*
X149250000Y-31461998D01*
X149250000Y-33400002D02*
X149250000Y-175675000D01*
D12*
X149250000Y-33550000D02*
X149250000Y-175675000D01*
X149725001Y-33074999D02*
X149250000Y-33550000D01*
X149725001Y-32496999D02*
X149725001Y-33074999D01*
X149250000Y-32021998D02*
X149725001Y-32496999D01*
X149250000Y-23600000D02*
X149250000Y-32021998D01*
X148250000Y-33550000D02*
X148250000Y-175675000D01*
X148725001Y-33074999D02*
X148250000Y-33550000D01*
X148725001Y-32496999D02*
X148725001Y-33074999D01*
X148250000Y-32021998D02*
X148725001Y-32496999D01*
X148250000Y-23600000D02*
X148250000Y-32021998D01*
D11*
X148250000Y-33400002D02*
X148250000Y-175675000D01*
X148250000Y-24400000D02*
X148250000Y-31461998D01*
D12*
X148250000Y-33700000D02*
X148250000Y-175675000D01*
X148725001Y-33224999D02*
X148250000Y-33700000D01*
X148725001Y-32496999D02*
X148725001Y-33224999D01*
X148250000Y-32021998D02*
X148725001Y-32496999D01*
X148250000Y-23600000D02*
X148250000Y-32021998D01*
X147250000Y-32021998D02*
X147725001Y-32496999D01*
X147250000Y-23600000D02*
X147250000Y-32021998D01*
X147725001Y-33074999D02*
X147250000Y-33550000D01*
X147250000Y-33550000D02*
X147250000Y-175675000D01*
X147725001Y-32496999D02*
X147725001Y-33074999D01*
D11*
X147250000Y-33450002D02*
X147250000Y-175725000D01*
X147250000Y-24450000D02*
X147250000Y-31511998D01*
D12*
X147250000Y-33550000D02*
X147250000Y-175675000D01*
X147725001Y-32496999D02*
X147725001Y-33074999D01*
X147250000Y-32021998D02*
X147725001Y-32496999D01*
X147725001Y-33074999D02*
X147250000Y-33550000D01*
X147250000Y-23600000D02*
X147250000Y-32021998D01*
X144750000Y-33550000D02*
X144750000Y-175675000D01*
X145225001Y-33074999D02*
X144750000Y-33550000D01*
X144750000Y-23600000D02*
X144750000Y-32021998D01*
X144750000Y-32021998D02*
X145225001Y-32496999D01*
X145225001Y-32496999D02*
X145225001Y-33074999D01*
D11*
X144750000Y-24400000D02*
X144750000Y-31461998D01*
X144750000Y-33400002D02*
X144750000Y-175675000D01*
D12*
X144750000Y-33550000D02*
X144750000Y-175675000D01*
X145225001Y-33074999D02*
X144750000Y-33550000D01*
X145225001Y-32496999D02*
X145225001Y-33074999D01*
X144750000Y-32021998D02*
X145225001Y-32496999D01*
X144750000Y-23600000D02*
X144750000Y-32021998D01*
X143750000Y-32021998D02*
X144225001Y-32496999D01*
X143750000Y-33550000D02*
X143750000Y-175675000D01*
X144225001Y-33074999D02*
X143750000Y-33550000D01*
X143750000Y-23600000D02*
X143750000Y-32021998D01*
X144225001Y-32496999D02*
X144225001Y-33074999D01*
D11*
X143750000Y-24400000D02*
X143750000Y-31461998D01*
X143750000Y-33400002D02*
X143750000Y-175675000D01*
D12*
X144225001Y-33074999D02*
X143750000Y-33550000D01*
X144225001Y-32496999D02*
X144225001Y-33074999D01*
X143750000Y-33550000D02*
X143750000Y-175675000D01*
X143750000Y-32021998D02*
X144225001Y-32496999D01*
X143750000Y-23600000D02*
X143750000Y-32021998D01*
X143225001Y-33074999D02*
X142750000Y-33550000D01*
X142750000Y-33550000D02*
X142750000Y-175675000D01*
X143225001Y-32496999D02*
X143225001Y-33074999D01*
X142750000Y-32021998D02*
X143225001Y-32496999D01*
X142750000Y-23600000D02*
X142750000Y-32021998D01*
D11*
X142750000Y-33400002D02*
X142750000Y-175675000D01*
X142750000Y-24400000D02*
X142750000Y-31461998D01*
D12*
X142750000Y-33550000D02*
X142750000Y-175675000D01*
X143225001Y-33074999D02*
X142750000Y-33550000D01*
X143225001Y-32496999D02*
X143225001Y-33074999D01*
X142750000Y-32021998D02*
X143225001Y-32496999D01*
X142750000Y-23600000D02*
X142750000Y-32021998D01*
X141750000Y-33550000D02*
X141750000Y-175675000D01*
X142225001Y-32496999D02*
X142225001Y-33074999D01*
X141750000Y-23600000D02*
X141750000Y-32021998D01*
X142225001Y-33074999D02*
X141750000Y-33550000D01*
X141750000Y-32021998D02*
X142225001Y-32496999D01*
D11*
X141750000Y-33400002D02*
X141750000Y-175675000D01*
X141750000Y-24400000D02*
X141750000Y-31461998D01*
D12*
X141750000Y-33550000D02*
X141750000Y-175675000D01*
X142225001Y-33074999D02*
X141750000Y-33550000D01*
X142225001Y-32496999D02*
X142225001Y-33074999D01*
X141750000Y-32021998D02*
X142225001Y-32496999D01*
X141750000Y-23600000D02*
X141750000Y-32021998D01*
X140750000Y-33550000D02*
X140750000Y-175675000D01*
X141225001Y-33074999D02*
X140750000Y-33550000D01*
X141225001Y-32496999D02*
X141225001Y-33074999D01*
X140750000Y-32021998D02*
X141225001Y-32496999D01*
X140750000Y-23600000D02*
X140750000Y-32021998D01*
D11*
X140750000Y-33400002D02*
X140750000Y-175675000D01*
X140750000Y-24400000D02*
X140750000Y-31461998D01*
D12*
X140750000Y-33550000D02*
X140750000Y-175675000D01*
X141225001Y-33074999D02*
X140750000Y-33550000D01*
X141225001Y-32496999D02*
X141225001Y-33074999D01*
X140750000Y-32021998D02*
X141225001Y-32496999D01*
X140750000Y-23600000D02*
X140750000Y-32021998D01*
X139225001Y-32925001D02*
X138750000Y-33400002D01*
X138750000Y-32021998D02*
X139225001Y-32496999D01*
X139225001Y-32496999D02*
X139225001Y-32925001D01*
X138750000Y-23600000D02*
X138725001Y-23575001D01*
X138750000Y-23600000D02*
X138750000Y-24400000D01*
X138750000Y-24400000D02*
X138750000Y-32021998D01*
D11*
X138750000Y-33400002D02*
X138750000Y-175675000D01*
X138750000Y-24400000D02*
X138750000Y-31461998D01*
D12*
X138750000Y-23600000D02*
X138725001Y-23575001D01*
X138750000Y-33550000D02*
X138750000Y-175675000D01*
X139225001Y-33074999D02*
X138750000Y-33550000D01*
X139225001Y-32496999D02*
X139225001Y-33074999D01*
X138750000Y-32021998D02*
X139225001Y-32496999D01*
X138750000Y-23600000D02*
X138750000Y-32021998D01*
D11*
X127250000Y-24400000D02*
X127250000Y-31461998D01*
X127250000Y-33400002D02*
X127250000Y-175675000D01*
D12*
X127250000Y-33550000D02*
X127250000Y-175675000D01*
X127725001Y-33074999D02*
X127250000Y-33550000D01*
X127725001Y-32496999D02*
X127725001Y-33074999D01*
X127250000Y-32021998D02*
X127725001Y-32496999D01*
X127250000Y-23600000D02*
X127250000Y-32021998D01*
M02*
