M48
INCH,TZ
T1C0.0240
T2C0.0291
T3C0.0354
T4C0.0394
T5C0.0500
T6C0.0591
T7C0.0748
%
G90
G05
T1
X31100Y-64950
X31100Y-65450
X31100Y-67550
X31100Y-68050
X31600Y-64950
X31600Y-65450
X31600Y-67550
X31600Y-68050
X32100Y-64950
X32100Y-65450
X32100Y-67550
X32100Y-68050
X32600Y-64950
X32600Y-65450
X32600Y-67550
X32600Y-68050
X33100Y-64950
X33100Y-65450
X33100Y-67550
X33100Y-68050
X33600Y-64950
X33600Y-65450
X33600Y-67550
X33600Y-68050
X34100Y-64950
X34100Y-65450
X34100Y-67550
X34100Y-68050
X34600Y-64950
X34600Y-65450
X34600Y-67550
X34600Y-68050
X35100Y-64950
X35100Y-65450
X35100Y-67550
X35100Y-68050
X35600Y-64950
X35600Y-65450
X35600Y-67550
X35600Y-68050
X36100Y-64950
X36100Y-65450
X36100Y-67550
X36100Y-68050
X36600Y-64950
X36600Y-65450
X36600Y-67550
X36600Y-68050
X37100Y-64950
X37100Y-65450
X37100Y-67550
X37100Y-68050
X37600Y-64950
X37600Y-65450
X37600Y-67550
X37600Y-68050
X38100Y-64950
X38100Y-65450
X38100Y-67550
X38100Y-68050
X38600Y-64950
X38600Y-65450
X38600Y-67550
X38600Y-68050
X39100Y-64950
X39100Y-65450
X39100Y-67550
X39100Y-68050
X39600Y-64950
X39600Y-65450
X39600Y-67550
X39600Y-68050
X40100Y-64950
X40100Y-65450
X40100Y-67550
X40100Y-68050
X40600Y-64950
X40600Y-65450
X40600Y-67550
X40600Y-68050
X41100Y-64950
X41100Y-65450
X41100Y-67550
X41100Y-68050
X41600Y-64950
X41600Y-65450
X41600Y-67550
X41600Y-68050
X42100Y-64950
X42100Y-65450
X42100Y-67550
X42100Y-68050
X42600Y-64950
X42600Y-65450
X42600Y-67550
X42600Y-68050
X43100Y-64950
X43100Y-65450
X43100Y-67550
X43100Y-68050
X43600Y-64950
X43600Y-65450
X43600Y-67550
X43600Y-68050
X44100Y-64950
X44100Y-65450
X44100Y-67550
X44100Y-68050
X44600Y-64950
X44600Y-65450
X44600Y-67550
X44600Y-68050
X45100Y-64950
X45100Y-65450
X45100Y-67550
X45100Y-68050
X45600Y-64950
X45600Y-65450
X45600Y-67550
X45600Y-68050
T2
X31350Y-65200
X31350Y-67800
X45350Y-65200
X45350Y-67800
T3
X24098Y-45923
X24114Y-57717
X24529Y-51949
X26851Y-51949
X27405Y-45923
X27421Y-57717
X29685Y-65256
X29685Y-67579
X47067Y-65187
X47067Y-67510
X49295Y-57242
X49334Y-21848
X52602Y-57242
X52641Y-21848
T4
X23811Y-20470
X23811Y-26376
X23811Y-32281
X23811Y-38187
X23811Y-44093
X23811Y-49998
X23811Y-55904
X23811Y-61809
X24362Y-19604
X24362Y-25510
X24362Y-31415
X24362Y-37321
X24362Y-43226
X24362Y-49132
X24362Y-55037
X24362Y-60943
X25307Y-20470
X25307Y-26376
X25307Y-32281
X25307Y-38187
X25307Y-44093
X25307Y-49998
X25307Y-55904
X25307Y-61809
X26803Y-20470
X26803Y-26376
X26803Y-32281
X26803Y-38187
X26803Y-44093
X26803Y-49998
X26803Y-55904
X26803Y-61809
T5
X27838Y-20628
X27838Y-26533
X27838Y-32439
X27838Y-38344
X27838Y-44250
X27838Y-50156
X27838Y-56061
X27838Y-61967
X48862Y-20037
X48862Y-25943
X48862Y-31848
X48862Y-37754
X48862Y-43659
X48862Y-49565
X48862Y-55470
X48862Y-61376
T6
X26055Y-19451
X26055Y-25356
X26055Y-31262
X26055Y-37167
X26055Y-43073
X26055Y-48978
X26055Y-54884
X26055Y-60789
T7
X26448Y-21491
X26448Y-27396
X26448Y-33302
X26448Y-39207
X26448Y-45112
X26448Y-51018
X26448Y-56923
X26448Y-62829
T0
M30
