G04 #@! TF.GenerationSoftware,KiCad,Pcbnew,(5.1.10)-1*
G04 #@! TF.CreationDate,2021-12-21T16:16:02-05:00*
G04 #@! TF.ProjectId,backplane,6261636b-706c-4616-9e65-2e6b69636164,A1*
G04 #@! TF.SameCoordinates,Original*
G04 #@! TF.FileFunction,Profile,NP*
%FSLAX46Y46*%
G04 Gerber Fmt 4.6, Leading zero omitted, Abs format (unit mm)*
G04 Created by KiCad (PCBNEW (5.1.10)-1) date 2021-12-21 16:16:02*
%MOMM*%
%LPD*%
G01*
G04 APERTURE LIST*
G04 #@! TA.AperFunction,Profile*
%ADD10C,0.050000*%
G04 #@! TD*
G04 APERTURE END LIST*
D10*
X126842000Y-144578000D02*
G75*
G02*
X126546000Y-144282000I0J296000D01*
G01*
X126842000Y-144578000D02*
X134226000Y-144578000D01*
X134522000Y-144282000D02*
G75*
G02*
X134226000Y-144578000I-296000J0D01*
G01*
X134522000Y-54282000D02*
X134522000Y-51728000D01*
X134226000Y-51432000D02*
G75*
G02*
X134522000Y-51728000I0J-296000D01*
G01*
X126842000Y-51432000D02*
X134226000Y-51432000D01*
X126546000Y-51728000D02*
G75*
G02*
X126842000Y-51432000I296000J0D01*
G01*
X134522000Y-54282000D02*
G75*
G02*
X134226000Y-54578000I-296000J0D01*
G01*
X126842000Y-54578000D02*
X134226000Y-54578000D01*
X126842000Y-54578000D02*
G75*
G02*
X126546000Y-54282000I0J296000D01*
G01*
X126546000Y-54282000D02*
X126546000Y-51728000D01*
X134522000Y-69282000D02*
X134522000Y-66728000D01*
X134226000Y-66432000D02*
G75*
G02*
X134522000Y-66728000I0J-296000D01*
G01*
X126842000Y-66432000D02*
X134226000Y-66432000D01*
X126546000Y-66728000D02*
G75*
G02*
X126842000Y-66432000I296000J0D01*
G01*
X134522000Y-69282000D02*
G75*
G02*
X134226000Y-69578000I-296000J0D01*
G01*
X126842000Y-69578000D02*
X134226000Y-69578000D01*
X126842000Y-69578000D02*
G75*
G02*
X126546000Y-69282000I0J296000D01*
G01*
X126546000Y-69282000D02*
X126546000Y-66728000D01*
X134522000Y-84282000D02*
X134522000Y-81728000D01*
X134226000Y-81432000D02*
G75*
G02*
X134522000Y-81728000I0J-296000D01*
G01*
X126842000Y-81432000D02*
X134226000Y-81432000D01*
X126546000Y-81728000D02*
G75*
G02*
X126842000Y-81432000I296000J0D01*
G01*
X134522000Y-84282000D02*
G75*
G02*
X134226000Y-84578000I-296000J0D01*
G01*
X126842000Y-84578000D02*
X134226000Y-84578000D01*
X126842000Y-84578000D02*
G75*
G02*
X126546000Y-84282000I0J296000D01*
G01*
X126546000Y-84282000D02*
X126546000Y-81728000D01*
X134522000Y-99282000D02*
X134522000Y-96728000D01*
X134226000Y-96432000D02*
G75*
G02*
X134522000Y-96728000I0J-296000D01*
G01*
X126842000Y-96432000D02*
X134226000Y-96432000D01*
X126546000Y-96728000D02*
G75*
G02*
X126842000Y-96432000I296000J0D01*
G01*
X134522000Y-99282000D02*
G75*
G02*
X134226000Y-99578000I-296000J0D01*
G01*
X126842000Y-99578000D02*
X134226000Y-99578000D01*
X126842000Y-99578000D02*
G75*
G02*
X126546000Y-99282000I0J296000D01*
G01*
X126546000Y-99282000D02*
X126546000Y-96728000D01*
X134522000Y-114282000D02*
X134522000Y-111728000D01*
X134226000Y-111432000D02*
G75*
G02*
X134522000Y-111728000I0J-296000D01*
G01*
X126842000Y-111432000D02*
X134226000Y-111432000D01*
X126546000Y-111728000D02*
G75*
G02*
X126842000Y-111432000I296000J0D01*
G01*
X134522000Y-114282000D02*
G75*
G02*
X134226000Y-114578000I-296000J0D01*
G01*
X126842000Y-114578000D02*
X134226000Y-114578000D01*
X126842000Y-114578000D02*
G75*
G02*
X126546000Y-114282000I0J296000D01*
G01*
X126546000Y-114282000D02*
X126546000Y-111728000D01*
X134522000Y-129282000D02*
X134522000Y-126728000D01*
X134226000Y-126432000D02*
G75*
G02*
X134522000Y-126728000I0J-296000D01*
G01*
X126842000Y-126432000D02*
X134226000Y-126432000D01*
X126546000Y-126728000D02*
G75*
G02*
X126842000Y-126432000I296000J0D01*
G01*
X134522000Y-129282000D02*
G75*
G02*
X134226000Y-129578000I-296000J0D01*
G01*
X126842000Y-129578000D02*
X134226000Y-129578000D01*
X126842000Y-129578000D02*
G75*
G02*
X126546000Y-129282000I0J296000D01*
G01*
X126546000Y-129282000D02*
X126546000Y-126728000D01*
X134522000Y-144282000D02*
X134522000Y-141728000D01*
X134226000Y-141432000D02*
G75*
G02*
X134522000Y-141728000I0J-296000D01*
G01*
X126842000Y-141432000D02*
X134226000Y-141432000D01*
X126546000Y-141728000D02*
G75*
G02*
X126842000Y-141432000I296000J0D01*
G01*
X126546000Y-144282000D02*
X126546000Y-141728000D01*
X126842000Y-156432000D02*
X134226000Y-156432000D01*
X126546000Y-156728000D02*
G75*
G02*
X126842000Y-156432000I296000J0D01*
G01*
X134226000Y-156432000D02*
G75*
G02*
X134522000Y-156728000I0J-296000D01*
G01*
X134522000Y-159282000D02*
X134522000Y-156728000D01*
X134522000Y-159282000D02*
G75*
G02*
X134226000Y-159578000I-296000J0D01*
G01*
X126842000Y-159578000D02*
G75*
G02*
X126546000Y-159282000I0J296000D01*
G01*
X126546000Y-159282000D02*
X126546000Y-156728000D01*
X126842000Y-159578000D02*
X134226000Y-159578000D01*
X136409000Y-38495000D02*
G75*
G03*
X135809000Y-37895000I-600000J0D01*
G01*
X58409000Y-38495000D02*
G75*
G02*
X59009000Y-37895000I600000J0D01*
G01*
X135809000Y-37895000D02*
X59009000Y-37895000D01*
X136409000Y-175295000D02*
G75*
G02*
X135809000Y-175895000I-600000J0D01*
G01*
X136409000Y-175295000D02*
X136409000Y-38495000D01*
X58409000Y-175295000D02*
G75*
G03*
X59009000Y-175895000I600000J0D01*
G01*
X58409000Y-175295000D02*
X58409000Y-38495000D01*
X59009000Y-175895000D02*
X135809000Y-175895000D01*
M02*
