%TF.GenerationSoftware,KiCad,Pcbnew,(5.1.10)-1*%
%TF.CreationDate,2021-12-10T15:36:21-05:00*%
%TF.ProjectId,backplane,6261636b-706c-4616-9e65-2e6b69636164,rev?*%
%TF.SameCoordinates,Original*%
%TF.FileFunction,Profile,NP*%
%FSLAX46Y46*%
G04 Gerber Fmt 4.6, Leading zero omitted, Abs format (unit mm)*
G04 Created by KiCad (PCBNEW (5.1.10)-1) date 2021-12-10 15:36:21*
%MOMM*%
%LPD*%
G01*
G04 APERTURE LIST*
%TA.AperFunction,Profile*%
%ADD10C,0.050000*%
%TD*%
G04 APERTURE END LIST*
D10*
X37113000Y121613000D02*
X37113000Y124167000D01*
X36817000Y124463000D02*
G75*
G02*
X37113000Y124167000I0J-296000D01*
G01*
X29433000Y124463000D02*
X36817000Y124463000D01*
X29137000Y124167000D02*
G75*
G02*
X29433000Y124463000I296000J0D01*
G01*
X37113000Y121613000D02*
G75*
G02*
X36817000Y121317000I-296000J0D01*
G01*
X29433000Y121317000D02*
X36817000Y121317000D01*
X29433000Y121317000D02*
G75*
G02*
X29137000Y121613000I0J296000D01*
G01*
X29137000Y121613000D02*
X29137000Y124167000D01*
X37113000Y106613000D02*
X37113000Y109167000D01*
X36817000Y109463000D02*
G75*
G02*
X37113000Y109167000I0J-296000D01*
G01*
X29433000Y109463000D02*
X36817000Y109463000D01*
X29137000Y109167000D02*
G75*
G02*
X29433000Y109463000I296000J0D01*
G01*
X37113000Y106613000D02*
G75*
G02*
X36817000Y106317000I-296000J0D01*
G01*
X29433000Y106317000D02*
X36817000Y106317000D01*
X29433000Y106317000D02*
G75*
G02*
X29137000Y106613000I0J296000D01*
G01*
X29137000Y106613000D02*
X29137000Y109167000D01*
X37113000Y91613000D02*
X37113000Y94167000D01*
X36817000Y94463000D02*
G75*
G02*
X37113000Y94167000I0J-296000D01*
G01*
X29433000Y94463000D02*
X36817000Y94463000D01*
X29137000Y94167000D02*
G75*
G02*
X29433000Y94463000I296000J0D01*
G01*
X37113000Y91613000D02*
G75*
G02*
X36817000Y91317000I-296000J0D01*
G01*
X29433000Y91317000D02*
X36817000Y91317000D01*
X29433000Y91317000D02*
G75*
G02*
X29137000Y91613000I0J296000D01*
G01*
X29137000Y91613000D02*
X29137000Y94167000D01*
X37113000Y76613000D02*
X37113000Y79167000D01*
X36817000Y79463000D02*
G75*
G02*
X37113000Y79167000I0J-296000D01*
G01*
X29433000Y79463000D02*
X36817000Y79463000D01*
X29137000Y79167000D02*
G75*
G02*
X29433000Y79463000I296000J0D01*
G01*
X37113000Y76613000D02*
G75*
G02*
X36817000Y76317000I-296000J0D01*
G01*
X29433000Y76317000D02*
X36817000Y76317000D01*
X29433000Y76317000D02*
G75*
G02*
X29137000Y76613000I0J296000D01*
G01*
X29137000Y76613000D02*
X29137000Y79167000D01*
X37113000Y61613000D02*
X37113000Y64167000D01*
X36817000Y64463000D02*
G75*
G02*
X37113000Y64167000I0J-296000D01*
G01*
X29433000Y64463000D02*
X36817000Y64463000D01*
X29137000Y64167000D02*
G75*
G02*
X29433000Y64463000I296000J0D01*
G01*
X37113000Y61613000D02*
G75*
G02*
X36817000Y61317000I-296000J0D01*
G01*
X29433000Y61317000D02*
X36817000Y61317000D01*
X29433000Y61317000D02*
G75*
G02*
X29137000Y61613000I0J296000D01*
G01*
X29137000Y61613000D02*
X29137000Y64167000D01*
X37113000Y46613000D02*
X37113000Y49167000D01*
X36817000Y49463000D02*
G75*
G02*
X37113000Y49167000I0J-296000D01*
G01*
X29433000Y49463000D02*
X36817000Y49463000D01*
X29137000Y49167000D02*
G75*
G02*
X29433000Y49463000I296000J0D01*
G01*
X37113000Y46613000D02*
G75*
G02*
X36817000Y46317000I-296000J0D01*
G01*
X29433000Y46317000D02*
X36817000Y46317000D01*
X29433000Y46317000D02*
G75*
G02*
X29137000Y46613000I0J296000D01*
G01*
X29137000Y46613000D02*
X29137000Y49167000D01*
X37113000Y31613000D02*
X37113000Y34167000D01*
X36817000Y34463000D02*
G75*
G02*
X37113000Y34167000I0J-296000D01*
G01*
X29433000Y34463000D02*
X36817000Y34463000D01*
X29137000Y34167000D02*
G75*
G02*
X29433000Y34463000I296000J0D01*
G01*
X37113000Y31613000D02*
G75*
G02*
X36817000Y31317000I-296000J0D01*
G01*
X29433000Y31317000D02*
X36817000Y31317000D01*
X29433000Y31317000D02*
G75*
G02*
X29137000Y31613000I0J296000D01*
G01*
X29137000Y31613000D02*
X29137000Y34167000D01*
X29433000Y19463000D02*
X36817000Y19463000D01*
X29137000Y19167000D02*
G75*
G02*
X29433000Y19463000I296000J0D01*
G01*
X36817000Y19463000D02*
G75*
G02*
X37113000Y19167000I0J-296000D01*
G01*
X37113000Y16613000D02*
X37113000Y19167000D01*
X37113000Y16613000D02*
G75*
G02*
X36817000Y16317000I-296000J0D01*
G01*
X29433000Y16317000D02*
G75*
G02*
X29137000Y16613000I0J296000D01*
G01*
X29137000Y16613000D02*
X29137000Y19167000D01*
X29433000Y16317000D02*
X36817000Y16317000D01*
X39000000Y137400000D02*
G75*
G03*
X38400000Y138000000I-600000J0D01*
G01*
X-39000000Y137400000D02*
G75*
G02*
X-38400000Y138000000I600000J0D01*
G01*
X38400000Y138000000D02*
X-38400000Y138000000D01*
X39000000Y600000D02*
G75*
G02*
X38400000Y0I-600000J0D01*
G01*
X39000000Y600000D02*
X39000000Y137400000D01*
X-39000000Y600000D02*
G75*
G03*
X-38400000Y0I600000J0D01*
G01*
X-39000000Y600000D02*
X-39000000Y137400000D01*
X-38400000Y0D02*
X38400000Y0D01*
M02*
