%TF.GenerationSoftware,KiCad,Pcbnew,(5.1.10)-1*%
%TF.CreationDate,2021-12-10T15:36:21-05:00*%
%TF.ProjectId,backplane,6261636b-706c-4616-9e65-2e6b69636164,rev?*%
%TF.SameCoordinates,Original*%
%TF.FileFunction,Legend,Bot*%
%TF.FilePolarity,Positive*%
%FSLAX46Y46*%
G04 Gerber Fmt 4.6, Leading zero omitted, Abs format (unit mm)*
G04 Created by KiCad (PCBNEW (5.1.10)-1) date 2021-12-10 15:36:21*
%MOMM*%
%LPD*%
G01*
G04 APERTURE LIST*
%ADD10C,0.100000*%
%ADD11C,0.120000*%
%ADD12C,0.200000*%
%ADD13C,0.150000*%
%ADD14C,0.125000*%
G04 APERTURE END LIST*
D10*
X34821428Y11547619D02*
X34750000Y11523809D01*
X34630952Y11523809D01*
X34583333Y11547619D01*
X34559523Y11571428D01*
X34535714Y11619047D01*
X34535714Y11666666D01*
X34559523Y11714285D01*
X34583333Y11738095D01*
X34630952Y11761904D01*
X34726190Y11785714D01*
X34773809Y11809523D01*
X34797619Y11833333D01*
X34821428Y11880952D01*
X34821428Y11928571D01*
X34797619Y11976190D01*
X34773809Y12000000D01*
X34726190Y12023809D01*
X34607142Y12023809D01*
X34535714Y12000000D01*
X34321428Y11785714D02*
X34154761Y11785714D01*
X34083333Y11523809D02*
X34321428Y11523809D01*
X34321428Y12023809D01*
X34083333Y12023809D01*
X33630952Y11523809D02*
X33869047Y11523809D01*
X33869047Y12023809D01*
X33297619Y11785714D02*
X33464285Y11785714D01*
X33464285Y11523809D02*
X33464285Y12023809D01*
X33226190Y12023809D01*
X32726190Y12023809D02*
X32440476Y12023809D01*
X32583333Y11523809D02*
X32583333Y12023809D01*
X32273809Y11785714D02*
X32107142Y11785714D01*
X32035714Y11523809D02*
X32273809Y11523809D01*
X32273809Y12023809D01*
X32035714Y12023809D01*
X31845238Y11547619D02*
X31773809Y11523809D01*
X31654761Y11523809D01*
X31607142Y11547619D01*
X31583333Y11571428D01*
X31559523Y11619047D01*
X31559523Y11666666D01*
X31583333Y11714285D01*
X31607142Y11738095D01*
X31654761Y11761904D01*
X31750000Y11785714D01*
X31797619Y11809523D01*
X31821428Y11833333D01*
X31845238Y11880952D01*
X31845238Y11928571D01*
X31821428Y11976190D01*
X31797619Y12000000D01*
X31750000Y12023809D01*
X31630952Y12023809D01*
X31559523Y12000000D01*
X31416666Y12023809D02*
X31130952Y12023809D01*
X31273809Y11523809D02*
X31273809Y12023809D01*
X-32023809Y11523809D02*
X-31857142Y11761904D01*
X-31738095Y11523809D02*
X-31738095Y12023809D01*
X-31928571Y12023809D01*
X-31976190Y12000000D01*
X-32000000Y11976190D01*
X-32023809Y11928571D01*
X-32023809Y11857142D01*
X-32000000Y11809523D01*
X-31976190Y11785714D01*
X-31928571Y11761904D01*
X-31738095Y11761904D01*
X-32238095Y11785714D02*
X-32404761Y11785714D01*
X-32476190Y11523809D02*
X-32238095Y11523809D01*
X-32238095Y12023809D01*
X-32476190Y12023809D01*
X-32666666Y11547619D02*
X-32738095Y11523809D01*
X-32857142Y11523809D01*
X-32904761Y11547619D01*
X-32928571Y11571428D01*
X-32952380Y11619047D01*
X-32952380Y11666666D01*
X-32928571Y11714285D01*
X-32904761Y11738095D01*
X-32857142Y11761904D01*
X-32761904Y11785714D01*
X-32714285Y11809523D01*
X-32690476Y11833333D01*
X-32666666Y11880952D01*
X-32666666Y11928571D01*
X-32690476Y11976190D01*
X-32714285Y12000000D01*
X-32761904Y12023809D01*
X-32880952Y12023809D01*
X-32952380Y12000000D01*
X-33166666Y11785714D02*
X-33333333Y11785714D01*
X-33404761Y11523809D02*
X-33166666Y11523809D01*
X-33166666Y12023809D01*
X-33404761Y12023809D01*
X-33547619Y12023809D02*
X-33833333Y12023809D01*
X-33690476Y11523809D02*
X-33690476Y12023809D01*
D11*
%TO.C,SW101*%
X30900000Y10250000D02*
X30900000Y6750000D01*
X30900000Y6750000D02*
X35400000Y6750000D01*
X30900000Y10250000D02*
X35400000Y10250000D01*
X35400000Y10250000D02*
X35400000Y6750000D01*
%TO.C,SW100*%
X-35400000Y10250000D02*
X-35400000Y6750000D01*
X-35400000Y6750000D02*
X-30900000Y6750000D01*
X-35400000Y10250000D02*
X-30900000Y10250000D01*
X-30900000Y10250000D02*
X-30900000Y6750000D01*
D12*
%TO.C,J301*%
X1500000Y8500000D02*
X2500000Y8500000D01*
X1500000Y3500000D02*
X2500000Y3500000D01*
X1500000Y8500000D02*
X1500000Y3500000D01*
X19500000Y8500000D02*
X18500000Y8500000D01*
X19500000Y3500000D02*
X19500000Y8500000D01*
X1500000Y6970000D02*
X1500000Y5030000D01*
X19500000Y3500000D02*
X18500000Y3500000D01*
%TO.C,J300*%
X-19500000Y8500000D02*
X-18500000Y8500000D01*
X-19500000Y3500000D02*
X-18500000Y3500000D01*
X-19500000Y8500000D02*
X-19500000Y3500000D01*
X-1500000Y8500000D02*
X-2500000Y8500000D01*
X-1500000Y3500000D02*
X-1500000Y8500000D01*
X-19500000Y6970000D02*
X-19500000Y5030000D01*
X-1500000Y3500000D02*
X-2500000Y3500000D01*
%TO.C,SW101*%
D13*
X35435714Y3845238D02*
X35292857Y3797619D01*
X35054761Y3797619D01*
X34959523Y3845238D01*
X34911904Y3892857D01*
X34864285Y3988095D01*
X34864285Y4083333D01*
X34911904Y4178571D01*
X34959523Y4226190D01*
X35054761Y4273809D01*
X35245238Y4321428D01*
X35340476Y4369047D01*
X35388095Y4416666D01*
X35435714Y4511904D01*
X35435714Y4607142D01*
X35388095Y4702380D01*
X35340476Y4750000D01*
X35245238Y4797619D01*
X35007142Y4797619D01*
X34864285Y4750000D01*
X34530952Y4797619D02*
X34292857Y3797619D01*
X34102380Y4511904D01*
X33911904Y3797619D01*
X33673809Y4797619D01*
X32769047Y3797619D02*
X33340476Y3797619D01*
X33054761Y3797619D02*
X33054761Y4797619D01*
X33150000Y4654761D01*
X33245238Y4559523D01*
X33340476Y4511904D01*
X32150000Y4797619D02*
X32054761Y4797619D01*
X31959523Y4750000D01*
X31911904Y4702380D01*
X31864285Y4607142D01*
X31816666Y4416666D01*
X31816666Y4178571D01*
X31864285Y3988095D01*
X31911904Y3892857D01*
X31959523Y3845238D01*
X32054761Y3797619D01*
X32150000Y3797619D01*
X32245238Y3845238D01*
X32292857Y3892857D01*
X32340476Y3988095D01*
X32388095Y4178571D01*
X32388095Y4416666D01*
X32340476Y4607142D01*
X32292857Y4702380D01*
X32245238Y4750000D01*
X32150000Y4797619D01*
X30864285Y3797619D02*
X31435714Y3797619D01*
X31150000Y3797619D02*
X31150000Y4797619D01*
X31245238Y4654761D01*
X31340476Y4559523D01*
X31435714Y4511904D01*
%TO.C,SW100*%
X-30864285Y3845238D02*
X-31007142Y3797619D01*
X-31245238Y3797619D01*
X-31340476Y3845238D01*
X-31388095Y3892857D01*
X-31435714Y3988095D01*
X-31435714Y4083333D01*
X-31388095Y4178571D01*
X-31340476Y4226190D01*
X-31245238Y4273809D01*
X-31054761Y4321428D01*
X-30959523Y4369047D01*
X-30911904Y4416666D01*
X-30864285Y4511904D01*
X-30864285Y4607142D01*
X-30911904Y4702380D01*
X-30959523Y4750000D01*
X-31054761Y4797619D01*
X-31292857Y4797619D01*
X-31435714Y4750000D01*
X-31769047Y4797619D02*
X-32007142Y3797619D01*
X-32197619Y4511904D01*
X-32388095Y3797619D01*
X-32626190Y4797619D01*
X-33530952Y3797619D02*
X-32959523Y3797619D01*
X-33245238Y3797619D02*
X-33245238Y4797619D01*
X-33150000Y4654761D01*
X-33054761Y4559523D01*
X-32959523Y4511904D01*
X-34150000Y4797619D02*
X-34245238Y4797619D01*
X-34340476Y4750000D01*
X-34388095Y4702380D01*
X-34435714Y4607142D01*
X-34483333Y4416666D01*
X-34483333Y4178571D01*
X-34435714Y3988095D01*
X-34388095Y3892857D01*
X-34340476Y3845238D01*
X-34245238Y3797619D01*
X-34150000Y3797619D01*
X-34054761Y3845238D01*
X-34007142Y3892857D01*
X-33959523Y3988095D01*
X-33911904Y4178571D01*
X-33911904Y4416666D01*
X-33959523Y4607142D01*
X-34007142Y4702380D01*
X-34054761Y4750000D01*
X-34150000Y4797619D01*
X-35102380Y4797619D02*
X-35197619Y4797619D01*
X-35292857Y4750000D01*
X-35340476Y4702380D01*
X-35388095Y4607142D01*
X-35435714Y4416666D01*
X-35435714Y4178571D01*
X-35388095Y3988095D01*
X-35340476Y3892857D01*
X-35292857Y3845238D01*
X-35197619Y3797619D01*
X-35102380Y3797619D01*
X-35007142Y3845238D01*
X-34959523Y3892857D01*
X-34911904Y3988095D01*
X-34864285Y4178571D01*
X-34864285Y4416666D01*
X-34911904Y4607142D01*
X-34959523Y4702380D01*
X-35007142Y4750000D01*
X-35102380Y4797619D01*
%TO.C,J301*%
X7822857Y2569076D02*
X7822857Y2111933D01*
X7853333Y2020504D01*
X7914285Y1959552D01*
X8005714Y1929076D01*
X8066666Y1929076D01*
X7579047Y2569076D02*
X7182857Y2569076D01*
X7396190Y2325266D01*
X7304761Y2325266D01*
X7243809Y2294790D01*
X7213333Y2264314D01*
X7182857Y2203361D01*
X7182857Y2050980D01*
X7213333Y1990028D01*
X7243809Y1959552D01*
X7304761Y1929076D01*
X7487619Y1929076D01*
X7548571Y1959552D01*
X7579047Y1990028D01*
X6786666Y2569076D02*
X6725714Y2569076D01*
X6664761Y2538600D01*
X6634285Y2508123D01*
X6603809Y2447171D01*
X6573333Y2325266D01*
X6573333Y2172885D01*
X6603809Y2050980D01*
X6634285Y1990028D01*
X6664761Y1959552D01*
X6725714Y1929076D01*
X6786666Y1929076D01*
X6847619Y1959552D01*
X6878095Y1990028D01*
X6908571Y2050980D01*
X6939047Y2172885D01*
X6939047Y2325266D01*
X6908571Y2447171D01*
X6878095Y2508123D01*
X6847619Y2538600D01*
X6786666Y2569076D01*
X5963809Y1929076D02*
X6329523Y1929076D01*
X6146666Y1929076D02*
X6146666Y2569076D01*
X6207619Y2477647D01*
X6268571Y2416695D01*
X6329523Y2386219D01*
D14*
X2457142Y2273809D02*
X2480952Y2250000D01*
X2528571Y2226190D01*
X2647619Y2226190D01*
X2695238Y2250000D01*
X2719047Y2273809D01*
X2742857Y2321428D01*
X2742857Y2369047D01*
X2719047Y2440476D01*
X2433333Y2726190D01*
X2742857Y2726190D01*
X2742857Y9226190D02*
X2457142Y9226190D01*
X2599999Y9226190D02*
X2599999Y8726190D01*
X2552380Y8797619D01*
X2504761Y8845238D01*
X2457142Y8869047D01*
%TO.C,J300*%
D13*
X-13177142Y2569076D02*
X-13177142Y2111933D01*
X-13146666Y2020504D01*
X-13085714Y1959552D01*
X-12994285Y1929076D01*
X-12933333Y1929076D01*
X-13420952Y2569076D02*
X-13817142Y2569076D01*
X-13603809Y2325266D01*
X-13695238Y2325266D01*
X-13756190Y2294790D01*
X-13786666Y2264314D01*
X-13817142Y2203361D01*
X-13817142Y2050980D01*
X-13786666Y1990028D01*
X-13756190Y1959552D01*
X-13695238Y1929076D01*
X-13512380Y1929076D01*
X-13451428Y1959552D01*
X-13420952Y1990028D01*
X-14213333Y2569076D02*
X-14274285Y2569076D01*
X-14335238Y2538600D01*
X-14365714Y2508123D01*
X-14396190Y2447171D01*
X-14426666Y2325266D01*
X-14426666Y2172885D01*
X-14396190Y2050980D01*
X-14365714Y1990028D01*
X-14335238Y1959552D01*
X-14274285Y1929076D01*
X-14213333Y1929076D01*
X-14152380Y1959552D01*
X-14121904Y1990028D01*
X-14091428Y2050980D01*
X-14060952Y2172885D01*
X-14060952Y2325266D01*
X-14091428Y2447171D01*
X-14121904Y2508123D01*
X-14152380Y2538600D01*
X-14213333Y2569076D01*
X-14822857Y2569076D02*
X-14883809Y2569076D01*
X-14944761Y2538600D01*
X-14975238Y2508123D01*
X-15005714Y2447171D01*
X-15036190Y2325266D01*
X-15036190Y2172885D01*
X-15005714Y2050980D01*
X-14975238Y1990028D01*
X-14944761Y1959552D01*
X-14883809Y1929076D01*
X-14822857Y1929076D01*
X-14761904Y1959552D01*
X-14731428Y1990028D01*
X-14700952Y2050980D01*
X-14670476Y2172885D01*
X-14670476Y2325266D01*
X-14700952Y2447171D01*
X-14731428Y2508123D01*
X-14761904Y2538600D01*
X-14822857Y2569076D01*
D14*
X-18542857Y2273809D02*
X-18519047Y2250000D01*
X-18471428Y2226190D01*
X-18352380Y2226190D01*
X-18304761Y2250000D01*
X-18280952Y2273809D01*
X-18257142Y2321428D01*
X-18257142Y2369047D01*
X-18280952Y2440476D01*
X-18566666Y2726190D01*
X-18257142Y2726190D01*
X-18257142Y9226190D02*
X-18542857Y9226190D01*
X-18400000Y9226190D02*
X-18400000Y8726190D01*
X-18447619Y8797619D01*
X-18495238Y8845238D01*
X-18542857Y8869047D01*
%TD*%
M02*
