G04 #@! TF.GenerationSoftware,KiCad,Pcbnew,(5.1.10)-1*
G04 #@! TF.CreationDate,2021-12-22T09:51:40-05:00*
G04 #@! TF.ProjectId,backplane-rbf,6261636b-706c-4616-9e65-2d7262662e6b,rev?*
G04 #@! TF.SameCoordinates,Original*
G04 #@! TF.FileFunction,Copper,L1,Top*
G04 #@! TF.FilePolarity,Positive*
%FSLAX46Y46*%
G04 Gerber Fmt 4.6, Leading zero omitted, Abs format (unit mm)*
G04 Created by KiCad (PCBNEW (5.1.10)-1) date 2021-12-22 09:51:40*
%MOMM*%
%LPD*%
G01*
G04 APERTURE LIST*
G04 #@! TA.AperFunction,EtchedComponent*
%ADD10C,0.100000*%
G04 #@! TD*
G04 #@! TA.AperFunction,SMDPad,CuDef*
%ADD11R,0.650000X3.000000*%
G04 #@! TD*
G04 #@! TA.AperFunction,SMDPad,CuDef*
%ADD12C,0.250000*%
G04 #@! TD*
G04 #@! TA.AperFunction,Conductor*
%ADD13C,0.250000*%
G04 #@! TD*
G04 APERTURE END LIST*
D10*
G36*
X145407380Y-96137000D02*
G01*
X144407000Y-96137000D01*
X144407000Y-95887000D01*
X145407380Y-95887000D01*
X145407380Y-96137000D01*
G37*
D11*
X122855000Y-101500000D03*
X125395000Y-101500000D03*
X127935000Y-101500000D03*
X130475000Y-101500000D03*
X133015000Y-101500000D03*
X135555000Y-101500000D03*
X138095000Y-101500000D03*
X140635000Y-101500000D03*
X143175000Y-101500000D03*
X145715000Y-101500000D03*
X148255000Y-101500000D03*
X150795000Y-101500000D03*
X153335000Y-101500000D03*
X155875000Y-101500000D03*
X158415000Y-101500000D03*
X121585000Y-98500000D03*
X124125000Y-98500000D03*
X126665000Y-98500000D03*
X129205000Y-98500000D03*
X131745000Y-98500000D03*
X134285000Y-98500000D03*
X136825000Y-98500000D03*
X139365000Y-98500000D03*
X141905000Y-98500000D03*
X144445000Y-98500000D03*
X146985000Y-98500000D03*
X149525000Y-98500000D03*
X152065000Y-98500000D03*
X154605000Y-98500000D03*
X157145000Y-98500000D03*
X122809000Y-93630000D03*
X125349000Y-93630000D03*
X127889000Y-93630000D03*
X130429000Y-93630000D03*
X132969000Y-93630000D03*
X135509000Y-93630000D03*
X138049000Y-93630000D03*
X140589000Y-93630000D03*
X143129000Y-93630000D03*
X145669000Y-93630000D03*
X148209000Y-93630000D03*
X150749000Y-93630000D03*
X153289000Y-93630000D03*
X155829000Y-93630000D03*
X158369000Y-93630000D03*
X121539000Y-90630000D03*
X124079000Y-90630000D03*
X126619000Y-90630000D03*
X129159000Y-90630000D03*
X131699000Y-90630000D03*
X134239000Y-90630000D03*
X136779000Y-90630000D03*
X139319000Y-90630000D03*
X141859000Y-90630000D03*
X144399000Y-90630000D03*
X146939000Y-90630000D03*
X149479000Y-90630000D03*
X152019000Y-90630000D03*
X154559000Y-90630000D03*
X157099000Y-90630000D03*
D12*
X144407000Y-96012000D03*
X145407000Y-96012000D03*
D13*
X144407000Y-96012000D02*
X137488000Y-96012000D01*
X136825000Y-96675000D02*
X136825000Y-98500000D01*
X137488000Y-96012000D02*
X136825000Y-96675000D01*
X146939000Y-95061000D02*
X146939000Y-90630000D01*
X145988000Y-96012000D02*
X146939000Y-95061000D01*
X145407000Y-96012000D02*
X145988000Y-96012000D01*
M02*
