*
%FSLAX26Y26*%
%MOIN*%
%ADD10C,0.005906*%
%ADD11C,0.005010*%
%ADD12C,0.193750*%
%ADD13R,0.039500X0.039500*%
%ADD14C,0.003000*%
%ADD15C,0.043750*%
%ADD16C,0.049500*%
%ADD17C,0.055500*%
%ADD18C,0.059500*%
%ADD19C,0.069250*%
%ADD20C,0.079000*%
%ADD21C,0.094750*%
%ADD22C,0.122562*%
%ADD23C,0.071460*%
%IPPOS*%
%LNgbo.gbr*%
%LPD*%
%SRX1Y1I0J0*%
G01*
G75*
G54D10*
X1845399Y559702D02*
X1839775Y557827D01*
X1837900Y555952D01*
X1836025Y552203D01*
Y546579D01*
X1837900Y542829D01*
X1839775Y540954D01*
X1843525Y539080D01*
X1858523D01*
Y578450D01*
X1845399D01*
X1841650Y576575D01*
X1839775Y574700D01*
X1837900Y570950D01*
Y567201D01*
X1839775Y563451D01*
X1841650Y561577D01*
X1845399Y559702D01*
X1858523D01*
X1821027Y550328D02*
X1802280D01*
X1824777Y539080D02*
X1811654Y578450D01*
X1798530Y539080D01*
X1762910Y542829D02*
X1764784Y540954D01*
X1770409Y539080D01*
X1774158D01*
X1779782Y540954D01*
X1783532Y544704D01*
X1785407Y548453D01*
X1787282Y555952D01*
Y561577D01*
X1785407Y569076D01*
X1783532Y572825D01*
X1779782Y576575D01*
X1774158Y578450D01*
X1770409D01*
X1764784Y576575D01*
X1762910Y574700D01*
X1746037Y539080D02*
Y578450D01*
X1723540Y539080D02*
X1740412Y561577D01*
X1723540Y578450D02*
X1746037Y555952D01*
X1706667Y539080D02*
Y578450D01*
X1691669D01*
X1687919Y576575D01*
X1686044Y574700D01*
X1684169Y570950D01*
Y565326D01*
X1686044Y561577D01*
X1687919Y559702D01*
X1691669Y557827D01*
X1706667D01*
X1648549Y539080D02*
X1667297D01*
Y578450D01*
X1637300Y550328D02*
X1618553D01*
X1641050Y539080D02*
X1627926Y578450D01*
X1614803Y539080D01*
X1601680D02*
Y578450D01*
X1579183Y539080D01*
Y578450D01*
X1560435Y559702D02*
X1547312D01*
X1541687Y539080D02*
X1560435D01*
Y578450D01*
X1541687D01*
X1481695Y559702D02*
X1476070Y557827D01*
X1474196Y555952D01*
X1472321Y552203D01*
Y546579D01*
X1474196Y542829D01*
X1476070Y540954D01*
X1479820Y539080D01*
X1494818D01*
Y578450D01*
X1481695D01*
X1477945Y576575D01*
X1476070Y574700D01*
X1474196Y570950D01*
Y567201D01*
X1476070Y563451D01*
X1477945Y561577D01*
X1481695Y559702D01*
X1494818D01*
X1432951Y539080D02*
X1446074Y557827D01*
X1455448Y539080D02*
Y578450D01*
X1440450D01*
X1436700Y576575D01*
X1434826Y574700D01*
X1432951Y570950D01*
Y565326D01*
X1434826Y561577D01*
X1436700Y559702D01*
X1440450Y557827D01*
X1455448D01*
X1416078Y559702D02*
X1402955D01*
X1397330Y539080D02*
X1416078D01*
Y578450D01*
X1397330D01*
X1382332Y550328D02*
X1363585D01*
X1386082Y539080D02*
X1372958Y578450D01*
X1359835Y539080D01*
X1346712D02*
Y578450D01*
X1324214Y539080D02*
X1341087Y561577D01*
X1324214Y578450D02*
X1346712Y555952D01*
X1299843Y578450D02*
X1292343D01*
X1288594Y576575D01*
X1284844Y572825D01*
X1282970Y565326D01*
Y552203D01*
X1284844Y544704D01*
X1288594Y540954D01*
X1292343Y539080D01*
X1299843D01*
X1303592Y540954D01*
X1307342Y544704D01*
X1309216Y552203D01*
Y565326D01*
X1307342Y572825D01*
X1303592Y576575D01*
X1299843Y578450D01*
X1266097D02*
Y546579D01*
X1264222Y542829D01*
X1262347Y540954D01*
X1258598Y539080D01*
X1251099D01*
X1247349Y540954D01*
X1245474Y542829D01*
X1243600Y546579D01*
Y578450D01*
X1230476D02*
X1207979D01*
X1219228Y539080D02*
Y578450D01*
G54D11*
X2925885Y414360D02*
X2922510Y413235D01*
X2916886D01*
X2914636Y414360D01*
X2913511Y415484D01*
X2912387Y417734D01*
Y419984D01*
X2913511Y422233D01*
X2914636Y423358D01*
X2916886Y424483D01*
X2921385Y425608D01*
X2923635Y426733D01*
X2924760Y427858D01*
X2925885Y430107D01*
Y432357D01*
X2924760Y434607D01*
X2923635Y435732D01*
X2921385Y436857D01*
X2915761D01*
X2912387Y435732D01*
X2902263Y425608D02*
X2894389D01*
X2891014Y413235D02*
X2902263D01*
Y436857D01*
X2891014D01*
X2869642Y413235D02*
X2880891D01*
Y436857D01*
X2853894Y425608D02*
X2861768D01*
Y413235D02*
Y436857D01*
X2850519D01*
X2826897D02*
X2813399D01*
X2820148Y413235D02*
Y436857D01*
X2805525Y425608D02*
X2797651D01*
X2794276Y413235D02*
X2805525D01*
Y436857D01*
X2794276D01*
X2785277Y414360D02*
X2781903Y413235D01*
X2776279D01*
X2774029Y414360D01*
X2772904Y415484D01*
X2771779Y417734D01*
Y419984D01*
X2772904Y422233D01*
X2774029Y423358D01*
X2776279Y424483D01*
X2780778Y425608D01*
X2783028Y426733D01*
X2784153Y427858D01*
X2785277Y430107D01*
Y432357D01*
X2784153Y434607D01*
X2783028Y435732D01*
X2780778Y436857D01*
X2775154D01*
X2771779Y435732D01*
X2765030Y436857D02*
X2751532D01*
X2758281Y413235D02*
Y436857D01*
X264741Y411126D02*
X272615Y422375D01*
X278240Y411126D02*
Y434748D01*
X269241D01*
X266991Y433624D01*
X265866Y432499D01*
X264741Y430249D01*
Y426874D01*
X265866Y424625D01*
X266991Y423500D01*
X269241Y422375D01*
X278240D01*
X254618Y423500D02*
X246744D01*
X243369Y411126D02*
X254618D01*
Y434748D01*
X243369D01*
X234370Y412251D02*
X230995Y411126D01*
X225371D01*
X223121Y412251D01*
X221997Y413376D01*
X220872Y415626D01*
Y417876D01*
X221997Y420125D01*
X223121Y421250D01*
X225371Y422375D01*
X229871Y423500D01*
X232120Y424625D01*
X233245Y425750D01*
X234370Y427999D01*
Y430249D01*
X233245Y432499D01*
X232120Y433624D01*
X229871Y434748D01*
X224246D01*
X220872Y433624D01*
X210748Y423500D02*
X202874D01*
X199499Y411126D02*
X210748D01*
Y434748D01*
X199499D01*
X192750D02*
X179252D01*
X186001Y411126D02*
Y434748D01*
X2929134Y403543D02*
Y265748D01*
X2751969Y403543D02*
X2929134D01*
X2751969Y265748D02*
X2929134D01*
X2751969Y403543D02*
Y265748D01*
X318898Y403543D02*
Y265748D01*
X141732Y403543D02*
X318898D01*
X141732Y265748D02*
X318898D01*
X141732Y403543D02*
Y265748D01*
X2894771Y456241D02*
X2891397Y455117D01*
X2885772D01*
X2883523Y456241D01*
X2882398Y457366D01*
X2881273Y459616D01*
Y461866D01*
X2882398Y464115D01*
X2883523Y465240D01*
X2885772Y466365D01*
X2890272Y467490D01*
X2892522Y468615D01*
X2893646Y469740D01*
X2894771Y471989D01*
Y474239D01*
X2893646Y476489D01*
X2892522Y477614D01*
X2890272Y478739D01*
X2884647D01*
X2881273Y477614D01*
X2873399Y478739D02*
X2867775Y455117D01*
X2863275Y471989D01*
X2858776Y455117D01*
X2853151Y478739D01*
X2831779Y455117D02*
X2845277D01*
X2838528D02*
Y478739D01*
X2840778Y475364D01*
X2843028Y473114D01*
X2845277Y471989D01*
X2817156Y478739D02*
X2814906D01*
X2812656Y477614D01*
X2811532Y476489D01*
X2810407Y474239D01*
X2809282Y469740D01*
Y464115D01*
X2810407Y459616D01*
X2811532Y457366D01*
X2812656Y456241D01*
X2814906Y455117D01*
X2817156D01*
X2819406Y456241D01*
X2820531Y457366D01*
X2821655Y459616D01*
X2822780Y464115D01*
Y469740D01*
X2821655Y474239D01*
X2820531Y476489D01*
X2819406Y477614D01*
X2817156Y478739D01*
X2786785Y455117D02*
X2800283D01*
X2793534D02*
Y478739D01*
X2795784Y475364D01*
X2798033Y473114D01*
X2800283Y471989D01*
X284426Y448251D02*
X281052Y447126D01*
X275427D01*
X273178Y448251D01*
X272053Y449376D01*
X270928Y451626D01*
Y453876D01*
X272053Y456125D01*
X273178Y457250D01*
X275427Y458375D01*
X279927Y459500D01*
X282177Y460625D01*
X283301Y461750D01*
X284426Y463999D01*
Y466249D01*
X283301Y468499D01*
X282177Y469624D01*
X279927Y470748D01*
X274303D01*
X270928Y469624D01*
X263054Y470748D02*
X257430Y447126D01*
X252930Y463999D01*
X248431Y447126D01*
X242806Y470748D01*
X221434Y447126D02*
X234932D01*
X228183D02*
Y470748D01*
X230433Y467374D01*
X232683Y465124D01*
X234932Y463999D01*
X206811Y470748D02*
X204561D01*
X202312Y469624D01*
X201187Y468499D01*
X200062Y466249D01*
X198937Y461750D01*
Y456125D01*
X200062Y451626D01*
X201187Y449376D01*
X202312Y448251D01*
X204561Y447126D01*
X206811D01*
X209061Y448251D01*
X210186Y449376D01*
X211310Y451626D01*
X212435Y456125D01*
Y461750D01*
X211310Y466249D01*
X210186Y468499D01*
X209061Y469624D01*
X206811Y470748D01*
X184314D02*
X182064D01*
X179814Y469624D01*
X178689Y468499D01*
X177565Y466249D01*
X176440Y461750D01*
Y456125D01*
X177565Y451626D01*
X178689Y449376D01*
X179814Y448251D01*
X182064Y447126D01*
X184314D01*
X186563Y448251D01*
X187688Y449376D01*
X188813Y451626D01*
X189938Y456125D01*
Y461750D01*
X188813Y466249D01*
X187688Y468499D01*
X186563Y469624D01*
X184314Y470748D01*
%LPC*%
G01*
G75*
X184314Y470748D02*
G54D12*
X2913386Y5314961D03*
X157480Y2755906D03*
X2913386D03*
Y118110D03*
X157480D03*
Y5314961D03*
G54D13*
X2898622Y369547D02*
Y374547D01*
G54D14*
X2878872Y351297D02*
Y392797D01*
X2918372Y351297D02*
Y392797D01*
G54D13*
X2782480Y369547D02*
Y374547D01*
G54D14*
X2762730Y351297D02*
Y392797D01*
X2802230Y351297D02*
Y392797D01*
G54D13*
X2898622Y294744D02*
Y299744D01*
G54D14*
X2878872Y276494D02*
Y317994D01*
X2918372Y276494D02*
Y317994D01*
G54D13*
X2782480Y294744D02*
Y299744D01*
G54D14*
X2762730Y276494D02*
Y317994D01*
X2802230Y276494D02*
Y317994D01*
G54D13*
X288386Y369547D02*
Y374547D01*
G54D14*
X268636Y351297D02*
Y392797D01*
X308136Y351297D02*
Y392797D01*
G54D13*
X172244Y369547D02*
Y374547D01*
G54D14*
X152494Y351297D02*
Y392797D01*
X191994Y351297D02*
Y392797D01*
G54D13*
X288386Y294744D02*
Y299744D01*
G54D14*
X268636Y276494D02*
Y317994D01*
X308136Y276494D02*
Y317994D01*
G54D13*
X172244Y294744D02*
Y299744D01*
G54D14*
X152494Y276494D02*
Y317994D01*
X191994Y276494D02*
Y317994D01*
G54D15*
X810433Y430000D03*
Y380000D03*
Y170000D03*
Y120000D03*
X860433Y430000D03*
Y380000D03*
Y170000D03*
Y120000D03*
X910433Y430000D03*
Y380000D03*
Y170000D03*
Y120000D03*
X960433Y430000D03*
Y380000D03*
Y170000D03*
Y120000D03*
X1010433Y430000D03*
Y380000D03*
Y170000D03*
Y120000D03*
X1060433Y430000D03*
Y380000D03*
Y170000D03*
Y120000D03*
X1110433Y430000D03*
Y380000D03*
Y170000D03*
Y120000D03*
X1160433Y430000D03*
Y380000D03*
Y170000D03*
Y120000D03*
X1210433Y430000D03*
Y380000D03*
Y170000D03*
Y120000D03*
X1260433Y430000D03*
Y380000D03*
Y170000D03*
Y120000D03*
X1310433Y430000D03*
Y380000D03*
Y170000D03*
Y120000D03*
X1360433Y430000D03*
Y380000D03*
Y170000D03*
Y120000D03*
X1410433Y430000D03*
Y380000D03*
Y170000D03*
Y120000D03*
X1460433Y430000D03*
Y380000D03*
Y170000D03*
Y120000D03*
X1510433Y430000D03*
Y380000D03*
Y170000D03*
Y120000D03*
X1560433Y430000D03*
Y380000D03*
Y170000D03*
Y120000D03*
X1610433Y430000D03*
Y380000D03*
Y170000D03*
Y120000D03*
X1660433Y430000D03*
Y380000D03*
Y170000D03*
Y120000D03*
X1710433Y430000D03*
Y380000D03*
Y170000D03*
Y120000D03*
X1760433Y430000D03*
Y380000D03*
Y170000D03*
Y120000D03*
X1810433Y430000D03*
Y380000D03*
Y170000D03*
Y120000D03*
X1860433Y430000D03*
Y380000D03*
Y170000D03*
Y120000D03*
X1910433Y430000D03*
Y380000D03*
Y170000D03*
Y120000D03*
X1960433Y430000D03*
Y380000D03*
Y170000D03*
Y120000D03*
X2010433Y430000D03*
Y380000D03*
Y170000D03*
Y120000D03*
X2060433Y430000D03*
Y380000D03*
Y170000D03*
Y120000D03*
X2110433Y430000D03*
Y380000D03*
Y170000D03*
Y120000D03*
X2160433Y430000D03*
Y380000D03*
Y170000D03*
Y120000D03*
X2210433Y430000D03*
Y380000D03*
Y170000D03*
Y120000D03*
X2260433Y430000D03*
Y380000D03*
Y170000D03*
Y120000D03*
G54D16*
X835433Y405000D03*
Y145000D03*
X2235433Y405000D03*
Y145000D03*
G54D17*
X110233Y2332700D03*
X111833Y1153300D03*
X153333Y1730100D03*
X385533D03*
X440933Y2332700D03*
X442533Y1153300D03*
X668933Y399400D03*
Y167100D03*
X2407133Y406300D03*
Y174000D03*
X2629933Y1200800D03*
X2633833Y4740200D03*
X2960633Y1200800D03*
X2964533Y4740200D03*
G54D18*
X81533Y4878000D03*
Y4287400D03*
Y3696900D03*
Y3106300D03*
Y2515700D03*
Y1925200D03*
Y1334600D03*
Y744100D03*
X136633Y4964600D03*
Y4374000D03*
Y3783500D03*
Y3192900D03*
Y2602400D03*
Y2011800D03*
Y1421300D03*
Y830700D03*
X231133Y4878000D03*
Y4287400D03*
Y3696900D03*
Y3106300D03*
Y2515700D03*
Y1925200D03*
Y1334600D03*
Y744100D03*
X380733Y4878000D03*
Y4287400D03*
Y3696900D03*
Y3106300D03*
Y2515700D03*
Y1925200D03*
Y1334600D03*
Y744100D03*
G54D19*
X484233Y4862200D03*
Y4271700D03*
Y3681100D03*
Y3090600D03*
Y2500000D03*
Y1909400D03*
Y1318900D03*
Y728300D03*
X2586633Y4921300D03*
Y4330700D03*
Y3740200D03*
Y3149600D03*
Y2559100D03*
Y1968500D03*
Y1378000D03*
Y787400D03*
G54D20*
X305933Y4979900D03*
Y4389400D03*
Y3798800D03*
Y3208300D03*
Y2617700D03*
Y2027200D03*
Y1436600D03*
Y846100D03*
G54D21*
X345233Y4775900D03*
Y4185400D03*
Y3594800D03*
Y3004300D03*
Y2413800D03*
Y1823200D03*
Y1232700D03*
Y642100D03*
G54D22*
X157433Y5315000D03*
Y2755900D03*
Y118100D03*
X2913433Y5315000D03*
Y2755900D03*
Y118100D03*
G54D23*
X484233Y4862200D03*
Y4271700D03*
Y3681100D03*
Y3090600D03*
Y2500000D03*
Y1909400D03*
Y1318900D03*
Y728300D03*
X2586633Y4921300D03*
Y4330700D03*
Y3740200D03*
Y3149600D03*
Y2559100D03*
Y1968500D03*
Y1378000D03*
Y787400D03*
M02*
