*
%FSLAX26Y26*%
%MOIN*%
%ADD10C,0.010000*%
%IPPOS*%
%LNgko.gbr*%
%LPD*%
%SRX1Y1I0J0*%
G01*
G75*
G54D10*
X2694213Y1232953D02*
X2690869Y1233443D01*
X2687806Y1234872D01*
X2685283Y1237119D01*
X2683510Y1239996D01*
X2682637Y1243261D01*
X2682559Y1244606D01*
X2694213Y1232953D02*
X2984921D01*
X2996575Y1244606D02*
X2996085Y1241263D01*
X2994656Y1238200D01*
X2992409Y1235676D01*
X2989531Y1233903D01*
X2986267Y1233031D01*
X2984921Y1232953D01*
X2996575Y4787913D02*
Y4888465D01*
X2984921Y4900118D02*
X2988265Y4899628D01*
X2991328Y4898199D01*
X2993851Y4895952D01*
X2995624Y4893075D01*
X2996497Y4889810D01*
X2996575Y4888465D01*
X2694213Y4900118D02*
X2984921D01*
X2682559Y4888465D02*
X2683049Y4891808D01*
X2684478Y4894871D01*
X2686725Y4897395D01*
X2689602Y4899167D01*
X2692867Y4900040D01*
X2694213Y4900118D01*
X2996575Y4787913D02*
X2996085Y4784570D01*
X2994656Y4781507D01*
X2992409Y4778983D01*
X2989531Y4777211D01*
X2986267Y4776338D01*
X2984921Y4776260D01*
X2694213D02*
X2984921D01*
X2694213D02*
X2690869Y4776750D01*
X2687806Y4778179D01*
X2685283Y4780426D01*
X2683510Y4783303D01*
X2682637Y4786568D01*
X2682559Y4787913D01*
Y4888465D01*
X2996575Y4197362D02*
Y4297913D01*
X2984921Y4309567D02*
X2988265Y4309077D01*
X2991328Y4307648D01*
X2993851Y4305401D01*
X2995624Y4302524D01*
X2996497Y4299259D01*
X2996575Y4297913D01*
X2694213Y4309567D02*
X2984921D01*
X2682559Y4297913D02*
X2683049Y4301257D01*
X2684478Y4304320D01*
X2686725Y4306843D01*
X2689602Y4308616D01*
X2692867Y4309489D01*
X2694213Y4309567D01*
X2996575Y4197362D02*
X2996085Y4194019D01*
X2994656Y4190956D01*
X2992409Y4188432D01*
X2989531Y4186659D01*
X2986267Y4185787D01*
X2984921Y4185709D01*
X2694213D02*
X2984921D01*
X2694213D02*
X2690869Y4186199D01*
X2687806Y4187627D01*
X2685283Y4189875D01*
X2683510Y4192752D01*
X2682637Y4196017D01*
X2682559Y4197362D01*
Y4297913D01*
X2996575Y3606811D02*
Y3707362D01*
X2984921Y3719016D02*
X2988265Y3718526D01*
X2991328Y3717097D01*
X2993851Y3714850D01*
X2995624Y3711972D01*
X2996497Y3708708D01*
X2996575Y3707362D01*
X2694213Y3719016D02*
X2984921D01*
X2682559Y3707362D02*
X2683049Y3710706D01*
X2684478Y3713769D01*
X2686725Y3716292D01*
X2689602Y3718065D01*
X2692867Y3718938D01*
X2694213Y3719016D01*
X2996575Y3606811D02*
X2996085Y3603467D01*
X2994656Y3600405D01*
X2992409Y3597881D01*
X2989531Y3596108D01*
X2986267Y3595235D01*
X2984921Y3595157D01*
X2694213D02*
X2984921D01*
X2694213D02*
X2690869Y3595647D01*
X2687806Y3597076D01*
X2685283Y3599324D01*
X2683510Y3602201D01*
X2682637Y3605466D01*
X2682559Y3606811D01*
Y3707362D01*
X2996575Y3016260D02*
Y3116811D01*
X2984921Y3128465D02*
X2988265Y3127975D01*
X2991328Y3126546D01*
X2993851Y3124298D01*
X2995624Y3121421D01*
X2996497Y3118156D01*
X2996575Y3116811D01*
X2694213Y3128465D02*
X2984921D01*
X2682559Y3116811D02*
X2683049Y3120155D01*
X2684478Y3123217D01*
X2686725Y3125741D01*
X2689602Y3127514D01*
X2692867Y3128387D01*
X2694213Y3128465D01*
X2996575Y3016260D02*
X2996085Y3012916D01*
X2994656Y3009854D01*
X2992409Y3007330D01*
X2989531Y3005557D01*
X2986267Y3004684D01*
X2984921Y3004606D01*
X2694213D02*
X2984921D01*
X2694213D02*
X2690869Y3005096D01*
X2687806Y3006525D01*
X2685283Y3008773D01*
X2683510Y3011650D01*
X2682637Y3014914D01*
X2682559Y3016260D01*
Y3116811D01*
X2996575Y2425709D02*
Y2526260D01*
X2984921Y2537913D02*
X2988265Y2537423D01*
X2991328Y2535995D01*
X2993851Y2533747D01*
X2995624Y2530870D01*
X2996497Y2527605D01*
X2996575Y2526260D01*
X2694213Y2537913D02*
X2984921D01*
X2682559Y2526260D02*
X2683049Y2529604D01*
X2684478Y2532666D01*
X2686725Y2535190D01*
X2689602Y2536963D01*
X2692867Y2537835D01*
X2694213Y2537913D01*
X2996575Y2425709D02*
X2996085Y2422365D01*
X2994656Y2419302D01*
X2992409Y2416779D01*
X2989531Y2415006D01*
X2986267Y2414133D01*
X2984921Y2414055D01*
X2694213D02*
X2984921D01*
X2694213D02*
X2690869Y2414545D01*
X2687806Y2415974D01*
X2685283Y2418221D01*
X2683510Y2421099D01*
X2682637Y2424363D01*
X2682559Y2425709D01*
Y2526260D01*
X2996575Y1835157D02*
Y1935709D01*
X2984921Y1947362D02*
X2988265Y1946872D01*
X2991328Y1945443D01*
X2993851Y1943196D01*
X2995624Y1940319D01*
X2996497Y1937054D01*
X2996575Y1935709D01*
X2694213Y1947362D02*
X2984921D01*
X2682559Y1935709D02*
X2683049Y1939052D01*
X2684478Y1942115D01*
X2686725Y1944639D01*
X2689602Y1946412D01*
X2692867Y1947284D01*
X2694213Y1947362D01*
X2996575Y1835157D02*
X2996085Y1831814D01*
X2994656Y1828751D01*
X2992409Y1826227D01*
X2989531Y1824455D01*
X2986267Y1823582D01*
X2984921Y1823504D01*
X2694213D02*
X2984921D01*
X2694213D02*
X2690869Y1823994D01*
X2687806Y1825423D01*
X2685283Y1827670D01*
X2683510Y1830547D01*
X2682637Y1833812D01*
X2682559Y1835157D01*
Y1935709D01*
X2996575Y1244606D02*
Y1345157D01*
X2984921Y1356811D02*
X2988265Y1356321D01*
X2991328Y1354892D01*
X2993851Y1352645D01*
X2995624Y1349768D01*
X2996497Y1346503D01*
X2996575Y1345157D01*
X2694213Y1356811D02*
X2984921D01*
X2682559Y1345157D02*
X2683049Y1348501D01*
X2684478Y1351564D01*
X2686725Y1354088D01*
X2689602Y1355860D01*
X2692867Y1356733D01*
X2694213Y1356811D01*
X2682559Y1244606D02*
Y1345157D01*
X2694213Y766260D02*
X2984921D01*
X2682559Y754606D02*
X2683049Y757950D01*
X2684478Y761013D01*
X2686725Y763536D01*
X2689602Y765309D01*
X2692867Y766182D01*
X2694213Y766260D01*
X2984921D02*
X2988265Y765770D01*
X2991328Y764341D01*
X2993851Y762094D01*
X2995624Y759216D01*
X2996497Y755952D01*
X2996575Y754606D01*
Y654055D02*
Y754606D01*
Y654055D02*
X2996085Y650711D01*
X2994656Y647649D01*
X2992409Y645125D01*
X2989531Y643352D01*
X2986267Y642480D01*
X2984921Y642402D01*
X2694213D02*
X2690869Y642892D01*
X2687806Y644320D01*
X2685283Y646568D01*
X2683510Y649445D01*
X2682637Y652710D01*
X2682559Y654055D01*
Y754606D01*
X2694213Y642402D02*
X2984921D01*
X3070866Y5409449D02*
X3070374Y5414244D01*
X3068920Y5418839D01*
X3066562Y5423043D01*
X3063401Y5426682D01*
X3059566Y5429602D01*
X3055219Y5431684D01*
X3050539Y5432840D01*
X3047244Y5433071D01*
X0Y5409449D02*
X492Y5414244D01*
X1947Y5418839D01*
X4304Y5423043D01*
X7466Y5426682D01*
X11300Y5429602D01*
X15647Y5431684D01*
X20327Y5432840D01*
X23622Y5433071D01*
X3047244D02*
X23622D01*
X3070866Y23622D02*
X3070374Y18827D01*
X3068920Y14232D01*
X3066562Y10028D01*
X3063401Y6389D01*
X3059566Y3469D01*
X3055219Y1387D01*
X3050539Y231D01*
X3047244Y0D01*
X3070866Y23622D02*
Y5409449D01*
X0Y23622D02*
X492Y18827D01*
X1947Y14232D01*
X4304Y10028D01*
X7466Y6389D01*
X11300Y3469D01*
X15647Y1387D01*
X20327Y231D01*
X23622Y0D01*
X0Y23622D02*
Y5409449D01*
X23622Y0D02*
X3047244D01*
M02*
