*
%FSLAX26Y26*%
%MOIN*%
%ADD10C,0.021685*%
%ADD11C,0.019862*%
%ADD12C,0.011843*%
%ADD13C,0.010000*%
%ADD14C,0.020000*%
%ADD15C,0.001220*%
%IPPOS*%
%LNl3t.gbr*%
%LPD*%
%SRX1Y1I0J0*%
G01*
G75*
G36*
X10005Y407798D02*
G02X14059Y410722I3213J-182D01*
G02X18683Y408233I-352J-6193D01*
G03X41471Y433177I11847J12058D01*
G03X17493Y431125I-10938J-13304D01*
G02X13282Y429850I-3677J4554D01*
G02X10010Y432680I-235J3034D01*
G01X10009Y619512D01*
X240871D01*
G03X270609Y619512I14869J0D01*
G01X304118D01*
G03X386348Y619512I41115J22580D01*
G01X419871D01*
G03X449609Y619512I14869J0D01*
G01X656968D01*
X736427Y539859D01*
G02X738542Y535193I-4081J-4662D01*
G01X738533Y399400D01*
X696154D01*
G03X641712Y399400I-27221J0D01*
G01X10006D01*
X10005Y407798D01*
G37*
G36*
Y1801557D02*
G02X14019Y1804481I3157J-117D01*
G02X17323Y1803390I-625J-7442D01*
G01X67734Y1753065D01*
G03X74656Y1750614I6877J8423D01*
G01X126316Y1750611D01*
X126881Y1750549D01*
X129345Y1749616D01*
G02X130107Y1744391I-1207J-2844D01*
G03X175875Y1745448I23226J-14290D01*
G02X177317Y1749678I2621J1467D01*
G01X179441Y1750487D01*
X179700Y1750549D01*
X180268Y1750611D01*
X358597D01*
X359165Y1750549D01*
X359425Y1750487D01*
X361549Y1749678D01*
G02X363086Y1745635I-1186J-2765D01*
G03X403995Y1750176I22431J-15537D01*
G02X404020Y1754281I2210J2039D01*
G01X433642Y1783891D01*
G02X434955Y1784575I2000J-2237D01*
G03X418796Y1801122I-194J15975D01*
G02X417557Y1799007I-3143J421D01*
G01X392394Y1773876D01*
G02X389660Y1772614I-3598J4203D01*
G01X388020D01*
Y1772663D01*
X374363D01*
Y1772632D01*
X374310Y1772619D01*
X367909Y1772694D01*
G02X363065Y1778106I1018J5785D01*
G02X364561Y1780407I2985J-304D01*
G01X369901Y1783269D01*
X375917Y1787685D01*
G03X386245Y1845878I-30722J35465D01*
G01X419147D01*
G03X448884Y1845878I14869J0D01*
G01X535725D01*
X556420Y1825195D01*
G02X557911Y1821214I-3872J-3720D01*
G01X557958Y1498185D01*
G02X548867Y1492275I-5937J-814D01*
G03X536299Y1491715I-5598J-15671D01*
G03X549816Y1460800I6910J-15391D01*
G02X557992Y1455139I2242J-5497D01*
G01X557984Y1436602D01*
X344971D01*
G03X266895Y1436602I-39038J0D01*
G01X161509D01*
G03X107427Y1421300I-24876J-15302D01*
G01X10007D01*
X10005Y1801557D01*
G37*
G36*
X10006Y399400D02*
X641712D01*
G03X696154Y399400I27221J0D01*
G01X738533D01*
X738532Y372060D01*
X354252D01*
G03X320551Y372060I-16850J0D01*
G01X10008D01*
X10006Y399400D01*
G37*
G36*
X10007Y1421300D02*
X107427D01*
G03X165839Y1421300I29206J0D01*
G01X270019D01*
G03X344971Y1436602I35914J15302D01*
G01X557984D01*
X557953Y1363698D01*
G02X548727Y1358473I-6020J-128D01*
G03X526707Y1345596I-5508J-15846D01*
G03X539151Y1326064I16574J-3171D01*
G02X543027Y1318911I-1809J-5607D01*
G01X518353D01*
G03X453924Y1334586I-34121J0D01*
G01X409939D01*
G03X351527Y1334586I-29206J0D01*
G01X260339D01*
G03X201927Y1334586I-29206J0D01*
G01X110739D01*
G03X52327Y1334586I-29206J0D01*
G01X10007D01*
Y1421300D01*
G37*
G36*
Y1334586D02*
X52327D01*
G03X110739Y1334586I29206J0D01*
G01X201927D01*
G03X260339Y1334586I29206J0D01*
G01X351527D01*
G03X405376Y1318911I29206J0D01*
G01X450110D01*
G03X518353Y1318911I34121J0D01*
G01X543027D01*
G02X542820Y1318288I-5686J1543D01*
G02X540317Y1315116I-5892J2076D01*
G01X531712Y1306594D01*
G03X528965Y1303173I9681J-10588D01*
G01X527899Y1301244D01*
X526897Y1298383D01*
X526411Y1295273D01*
X526445Y1270951D01*
G03X531665Y1259381I16113J307D01*
G01X535750Y1255307D01*
X448884D01*
G03X419148Y1255307I-14868J0D01*
G01X386355D01*
G03X304110Y1255306I-41122J-22612D01*
G01X270884D01*
G03X241147Y1255306I-14868J0D01*
G01X10007D01*
Y1334586D01*
G37*
G36*
Y1255306D02*
X241147D01*
G03X270884Y1255306I14869J0D01*
G01X304110D01*
G03X298303Y1232695I41123J-22613D01*
G01X10007D01*
Y1255306D01*
G37*
G36*
Y1232695D02*
X298303D01*
G03X304144Y1210021I46930J0D01*
G01X270609D01*
G03X240871Y1210021I-14869J0D01*
G01X10007D01*
Y1232695D01*
G37*
G36*
Y1210021D02*
X240871D01*
G03X270609Y1210021I14869J0D01*
G01X304144D01*
G03X386321Y1210021I41088J22674D01*
G01X419667D01*
G03X449404Y1210021I14869J0D01*
G01X557909D01*
X557923Y1153290D01*
X469778D01*
G03X415288Y1153290I-27245J0D01*
G01X139078D01*
G03X84588Y1153290I-27245J0D01*
G01X10008D01*
X10007Y1210021D01*
G37*
G36*
X10008Y372060D02*
X320551D01*
G03X354252Y372060I16850J0D01*
G01X738532D01*
X738528Y307866D01*
X485987D01*
G03X452281Y307866I-16853J0D01*
G01X10011D01*
X10008Y372060D01*
G37*
G36*
Y1153290D02*
X84588D01*
G03X139078Y1153290I27245J0D01*
G01X415288D01*
G03X469778Y1153290I27245J0D01*
G01X557923D01*
X557973Y950783D01*
X273920D01*
G03X228442Y950783I-22739J0D01*
G01X10008D01*
Y1153290D01*
G37*
G36*
Y950783D02*
X228442D01*
G03X273920Y950783I22739J0D01*
G01X557973D01*
X557983Y906929D01*
G02X548640Y901766I-6059J-70D01*
G03X549660Y870166I-5360J-15989D01*
G02X557992Y864567I2354J-5495D01*
G01X557979Y846092D01*
X344971D01*
G03X266895Y846092I-39038J0D01*
G01X161479D01*
G03X107404Y830697I-24846J-15396D01*
G01X10009D01*
X10008Y950783D01*
G37*
G36*
X10009Y830697D02*
X107404D01*
G03X165862Y830697I29229J0D01*
G01X270059D01*
G03X344971Y846092I35874J15396D01*
G01X557979D01*
X557962Y821211D01*
G03X561674Y812129I17018J1656D01*
G02X562823Y808521I-4047J-3276D01*
G01X562828Y769394D01*
G02X552516Y766035I-5945J742D01*
G03X528306Y759628I-9241J-14026D01*
G03X555962Y740718I15020J-7711D01*
G02X565230Y738603I3813J-4654D01*
G01X575437Y728308D01*
X518379D01*
G03X453947Y744077I-34146J0D01*
G01X409939D01*
G03X351527Y744077I-29206J0D01*
G01X260339D01*
G03X201927Y744077I-29206J0D01*
G01X110739D01*
G03X52327Y744077I-29206J0D01*
G01X10009D01*
Y830697D01*
G37*
G36*
Y744077D02*
X52327D01*
G03X110739Y744077I29206J0D01*
G01X201927D01*
G03X260339Y744077I29206J0D01*
G01X351527D01*
G03X405316Y728308I29206J0D01*
G01X450088D01*
G03X518379Y728308I34146J0D01*
G01X575437D01*
X590886Y712725D01*
G02X583357Y703519I-4024J-4391D01*
G03X565665Y703146I-8556J-13955D01*
G03X588990Y679819I9119J-14206D01*
G02X599456Y677953I4790J-3419D01*
G01X600344Y676274D01*
X611824Y664766D01*
X448906D01*
G03X419125Y664766I-14890J0D01*
G01X386296D01*
G03X304170Y664766I-41063J-22674D01*
G01X270906D01*
G03X241125Y664766I-14890J0D01*
G01X10009D01*
Y744077D01*
G37*
G36*
Y664766D02*
X241125D01*
G03X270906Y664766I14891J0D01*
G01X304170D01*
G03X298326Y642092I41063J-22674D01*
G01X10009D01*
Y664766D01*
G37*
G36*
Y642092D02*
X298326D01*
G03X304118Y619512I46907J-1D01*
G01X270609D01*
G03X240871Y619512I-14869J0D01*
G01X10009D01*
Y642092D01*
G37*
G36*
X10010Y5070042D02*
X10070Y5305549D01*
X61900D01*
X65573Y5287074D01*
X72795Y5269657D01*
X81672Y5256345D01*
G02X78461Y5246579I-4563J-3911D01*
G03X71395Y5217716I4212J-16328D01*
G03X79999Y5213548I10661J11044D01*
G03X99365Y5227358I2630J16795D01*
G02X108548Y5232707I5986J280D01*
G01X112184Y5230281D01*
X129566Y5223066D01*
X147666Y5219458D01*
X167295D01*
X185395Y5223066D01*
X202781Y5230281D01*
X218426Y5240732D01*
X229124Y5251433D01*
X334071D01*
G03X336527Y5243655I13543J-0D01*
G03X339259Y5240483I10622J6386D01*
G02X341711Y5233329I-3154J-5078D01*
G01X341165Y5231899D01*
X341060Y5231463D01*
G03X340610Y5229411I6771J-2560D01*
G03X340746Y5224310I11834J-2237D01*
G03X341526Y5221697I8280J1049D01*
G01X342980Y5218898D01*
X344649Y5216845D01*
X345416Y5216161D01*
G02X347749Y5209381I-3399J-4961D01*
G03X349484Y5196193I14079J-4856D01*
G03X352105Y5193207I10450J6530D01*
G02X355164Y5186303I-2782J-5362D01*
G03X360258Y5170378I14371J-4180D01*
G02X363496Y5163598I-2610J-5410D01*
G03X370713Y5146740I14404J-3807D01*
G03X375457Y5145061I6499J10821D01*
G03X382999Y5145745I2466J14734D01*
G01X385511Y5146927D01*
X386478Y5147549D01*
G02X389616Y5149166I4278J-4449D01*
G01X390491Y5149477D01*
G02X391505Y5153521I6303J569D01*
G01X391867Y5154454D01*
G03X392489Y5156569I-6771J3140D01*
G03X392921Y5159706I-11200J3140D01*
G01X560184D01*
G03X559860Y5158435I14198J-4295D01*
G03X559680Y5153210I10882J-2991D01*
G03X563940Y5144750I12153J817D01*
G03X584831Y5144625I10511J10831D01*
G03X588940Y5151592I-10509J10893D01*
G02X599605Y5152899I5679J-2173D01*
G01X602671Y5150846D01*
G02X602842Y5141391I-3607J-4794D01*
G01X575257Y5113772D01*
G02X565136Y5116571I-4279J4227D01*
G03X562275Y5120552I-9394J-3732D01*
G03X545606Y5123538I-10397J-10022D01*
G03X541066Y5120366I5011J-12007D01*
G02X533114Y5120677I-3815J4274D01*
G03X526548Y5122978I-7275J-10242D01*
G03X515542Y5119744I-1731J-14453D01*
G01X513777Y5118064D01*
X512410Y5116385D01*
X512198Y5116198D01*
X510683Y5115265D01*
G02X506666Y5115514I-1880J2204D01*
G01X504273Y5117069D01*
G03X481649Y5107863I-7456J-14079D01*
G02X479718Y5106183I-2747J1208D01*
G02X476277Y5106302I-1629J2702D01*
G03X475135Y5107777I-13147J-8999D01*
G01X475126Y5107800D01*
X475042Y5107882D01*
G03X460488Y5113025I-11923J-10577D01*
G01X458997Y5112714D01*
G02X455986Y5113819I-594J3037D01*
G03X429961Y5120552I-15156J-4919D01*
G02X423298Y5123040I-2265J4100D01*
G02X423396Y5128950I5311J2868D01*
G03X423385Y5138592I-13656J4806D01*
G03X419719Y5144377I-12600J-3931D01*
G03X399619Y5145123I-10443J-10204D01*
G02X396729Y5144128I-3469J5381D01*
G02X395984Y5140396I-6810J-581D01*
G01X394947Y5137845D01*
X394668Y5136663D01*
G03X395548Y5128079I11908J-3116D01*
G02X390550Y5119930I-5483J-2244D01*
G01X73542Y5119925D01*
G03X71924Y5119806I-4J-11003D01*
G01X71733D01*
G03X66736Y5117568I1292J-9581D01*
G01X17719Y5068674D01*
G02X10742Y5068300I-3725J4222D01*
G02X10010Y5070042I2257J1973D01*
G37*
G36*
X10011Y307866D02*
G01X452281D01*
G03X485987Y307866I16853J0D01*
G01X738528D01*
X738522Y209458D01*
X486971D01*
G03X453265Y209458I-16853J0D01*
G01X186716D01*
X185440Y209987D01*
X167075Y213657D01*
X147886D01*
X129521Y209987D01*
X112251Y202833D01*
X96516Y192321D01*
X83215Y179009D01*
X72783Y163396D01*
X65568Y145978D01*
X61898Y127503D01*
Y108718D01*
X10023D01*
X10011Y307866D01*
G37*
G36*
X10023Y108718D02*
X61898D01*
X65568Y90243D01*
X72782Y72825D01*
X83267Y57150D01*
X96516Y43900D01*
X112262Y33388D01*
X129519Y26234D01*
X147572Y22626D01*
X167389D01*
X185441Y26234D01*
X202698Y33388D01*
X218445Y43900D01*
X231746Y57212D01*
X242178Y72825D01*
X249392Y90243D01*
X252275Y104737D01*
G02X263093Y107909I6057J-624D01*
G03X293464Y118142I13462J10233D01*
G01X738517D01*
X738515Y94722D01*
G03X738907Y91860I8287J-323D01*
G03X745442Y83151I19011J7459D01*
G01X792049Y36498D01*
G02X794250Y30029I-8296J-6432D01*
G03X800959Y21009I14683J3916D01*
G03X804814Y19081I7346J9871D01*
G02X807443Y11305I-2407J-5146D01*
G02X805618Y10123I-2432J1755D01*
G01X22151D01*
Y10154D01*
X22094D01*
Y10123D01*
X22086Y10104D01*
G02X10028Y22626I1489J13500D01*
G01X10023Y108718D01*
G37*
G36*
X10070Y5305549D02*
X10096Y5411297D01*
X10730Y5413848D01*
G02X22304Y5422992I12918J-4454D01*
G01X1026406D01*
G02X1028838Y5419819I-564J-2950D01*
G01X1028831Y5417766D01*
X1028798Y5417455D01*
X1028716Y5417082D01*
X1028676Y5416460D01*
G03X1028946Y5411608I12661J-1729D01*
G03X1029723Y5408933I9221J1228D01*
G03X1032918Y5403708I13002J4361D01*
G03X1061950Y5418326I12560J11194D01*
G02X1062029Y5420628I9547J825D01*
G02X1064969Y5423054I2979J-616D01*
G01X1135837D01*
G02X1138838Y5419819I0J-3009D01*
G01X1138831Y5417766D01*
X1138798Y5417455D01*
X1138716Y5417082D01*
G03X1144100Y5402526I16404J-2206D01*
G03X1171950Y5418326I11384J12380D01*
G02X1172029Y5420628I9547J825D01*
G02X1174969Y5423054I2979J-616D01*
G01X1245837D01*
G02X1248838Y5419819I0J-3009D01*
G01X1248831Y5417766D01*
X1248798Y5417455D01*
X1248716Y5417082D01*
G03X1254100Y5402526I16404J-2206D01*
G03X1281950Y5418326I11387J12374D01*
G02X1282029Y5420628I9547J825D01*
G02X1284401Y5422992I2941J-578D01*
G01X3049348Y5422929D01*
G02X3057302Y5418637I-2559J-14259D01*
G02X3060463Y5412728I-9265J-8756D01*
G01X3060789Y5411111D01*
Y5305549D01*
X3008966D01*
X3008964Y5324397D01*
X3005301Y5342810D01*
X2998094Y5360227D01*
X2987618Y5375903D01*
X2974301Y5389214D01*
X2958661Y5399665D01*
X2941213Y5406881D01*
X2923075Y5410488D01*
X2903696D01*
X2885559Y5406881D01*
X2868111Y5399665D01*
X2852470Y5389214D01*
X2839153Y5375903D01*
X2835204Y5369993D01*
X1447263D01*
G03X1413603Y5369993I-16830J0D01*
G01X1367263D01*
G03X1333603Y5369993I-16830J0D01*
G01X824010D01*
G03X793580Y5360009I-13577J-9984D01*
G01X547286D01*
G03X513580Y5360009I-16853J0D01*
G01X242275D01*
X242186Y5360227D01*
X231713Y5375903D01*
X218396Y5389214D01*
X202756Y5399665D01*
X185307Y5406881D01*
X167170Y5410488D01*
X147791D01*
X129653Y5406881D01*
X112205Y5399665D01*
X96565Y5389214D01*
X83248Y5375903D01*
X72772Y5360227D01*
X65565Y5342810D01*
X61902Y5324397D01*
X61900Y5305549D01*
X10070D01*
G37*
G36*
X26151Y1825727D02*
Y2005675D01*
G02X34225Y2006549I4506J-3899D01*
G01X79528Y1961237D01*
X80214Y1960179D01*
X80993Y1958188D01*
G02X78891Y1954394I-2864J-893D01*
G01X74510Y1953585D01*
G03X65249Y1949480I4892J-23535D01*
G03X110644Y1922359I16290J-24285D01*
G02X114424Y1924722I2997J-590D01*
G02X117764Y1923011I-2882J-9741D01*
G01X239147Y1801627D01*
G02X239809Y1800125I-3488J-2434D01*
G01X239896Y1798820D01*
G03X243558Y1790325I14779J1334D01*
G03X261057Y1785585I12175J10275D01*
G03X266060Y1788469I-3404J11686D01*
G03X256201Y1816548I-10331J12143D01*
G02X254122Y1817792I381J2995D01*
G01X251746Y1820156D01*
X251691Y1820196D01*
X250372Y1821515D01*
G02X251253Y1829487I4821J3502D01*
G02X254321Y1830047I2047J-2531D01*
G01X255060Y1829985D01*
Y1829953D01*
X255874D01*
Y1830016D01*
X256928D01*
Y1829985D01*
G03X257661Y1861709I-946J15892D01*
G02X254585Y1862891I-399J3555D01*
G01X228687Y1888830D01*
G02X227865Y1890323I2517J2359D01*
G01X227376Y1892563D01*
G02X229773Y1895984I2963J474D01*
G03X244084Y1899032I729J31699D01*
G01X246838Y1900587D01*
X247602Y1901147D01*
G03X260321Y1925220I-16480J24104D01*
G01X351527D01*
G03X405296Y1909420I29206J0D01*
G01X450110D01*
G03X518353Y1909420I34121J0D01*
G01X543017D01*
G02X542607Y1908363I-5708J1606D01*
G02X540278Y1905625I-7540J4054D01*
G01X530440Y1895797D01*
X528607Y1893185D01*
X527565Y1891007D01*
X526681Y1887959D01*
X526378Y1884787D01*
X526426Y1862518D01*
G03X531648Y1849952I16782J-394D01*
G01X535725Y1845878D01*
X448884D01*
G03X419147Y1845878I-14868J0D01*
G01X386245D01*
G03X353340Y1869360I-41050J-22727D01*
G03X337376Y1869422I-8123J-36151D01*
G03X323256Y1864633I5390J-39102D01*
G01X322816Y1864446D01*
X315726Y1859718D01*
G03X325872Y1780407I29448J-36537D01*
G02X326677Y1775369I-1387J-2805D01*
G02X322643Y1772694I-5004J3168D01*
G01X317270Y1772632D01*
Y1772614D01*
X316050D01*
Y1772663D01*
X82323D01*
Y1772632D01*
G02X76772Y1775058I-408J6630D01*
G01X26151Y1825727D01*
G37*
G36*
X60698Y2485012D02*
G02X61713Y2489541I10610J0D01*
G02X65686Y2491096I2770J-1225D01*
G03X110727Y2515698I15834J24542D01*
G01X201904D01*
G03X260362Y2515698I29229J0D01*
G01X351504D01*
G03X405384Y2499992I29229J1D01*
G01X450110D01*
G03X518353Y2499992I34121J0D01*
G01X543021D01*
G02X542553Y2498810I-5712J1578D01*
G02X540297Y2496197I-7847J4494D01*
G01X531128Y2487115D01*
G03X526602Y2477536I10238J-10696D01*
G01X526379Y2475296D01*
X526482Y2451285D01*
G03X531872Y2440213I15850J868D01*
G01X535675Y2436428D01*
X448901D01*
G03X419130Y2436428I-14885J0D01*
G01X386325D01*
G03X304135Y2436418I-41092J-22621D01*
G01X270906D01*
G03X241125Y2436418I-14890J0D01*
G01X60789D01*
X60780Y2483694D01*
G02X60698Y2485012I10528J1316D01*
G37*
G36*
X60715Y2802109D02*
G02X60811Y2803177I5974J1D01*
G01X60841Y2981674D01*
X240871D01*
G03X270609Y2981674I14869J0D01*
G01X304110D01*
G03X386356Y2981674I41123J22611D01*
G01X419871D01*
G03X449609Y2981674I14869J0D01*
G01X557880D01*
X557951Y2678146D01*
G02X548486Y2673481I-6015J270D01*
G03X531992Y2669873I-5257J-15471D01*
G03X527201Y2662284I8770J-10844D01*
G01X526667Y2660107D01*
G03X549797Y2641881I16638J-2675D01*
G02X557942Y2635598I2207J-5560D01*
G01X557944Y2617714D01*
X344994D01*
G03X266872Y2617714I-39061J0D01*
G01X161490D01*
G03X107427Y2602381I-24857J-15333D01*
G01X60842D01*
X60811Y2709746D01*
G02X67047Y2715687I5934J14D01*
G02X72797Y2710617I-182J-6002D01*
G01X83218Y2695003D01*
X96520Y2681692D01*
X112272Y2671179D01*
X129529Y2664025D01*
X147591Y2660418D01*
X167369D01*
X185431Y2664025D01*
X202689Y2671179D01*
X218441Y2681692D01*
X231743Y2695003D01*
X242175Y2710617D01*
X249392Y2728034D01*
X252552Y2743834D01*
G02X263696Y2744892I5773J-1593D01*
G03X263144Y2766166I12821J10977D01*
G02X252276Y2769276I-4898J3429D01*
G01X249393Y2783770D01*
X242180Y2801187D01*
X231698Y2816863D01*
X218373Y2830174D01*
X202719Y2840625D01*
X185449Y2847778D01*
X167094Y2851448D01*
X147866D01*
X129511Y2847778D01*
X112241Y2840625D01*
X96587Y2830174D01*
X83263Y2816863D01*
X72780Y2801187D01*
G02X63774Y2796895I-6034J1066D01*
G02X60715Y2802109I2915J5215D01*
G37*
G36*
X60789Y2436418D02*
G01X241125D01*
G03X270906Y2436418I14891J0D01*
G01X304135D01*
G03X298326Y2413807I41097J-22610D01*
G01X60793D01*
X60789Y2436418D01*
G37*
G36*
X60793Y2413807D02*
X298326D01*
G03X304152Y2391164I46907J-2D01*
G01X270609D01*
G03X240871Y2391164I-14869J0D01*
G01X60797D01*
X60793Y2413807D01*
G37*
G36*
X60797Y2391164D02*
X240871D01*
G03X270609Y2391164I14869J0D01*
G01X304152D01*
G03X386313Y2391164I41081J22643D01*
G01X419871D01*
G03X449609Y2391164I14869J0D01*
G01X557883D01*
X557897Y2332692D01*
X468178D01*
G03X413688Y2332692I-27245J0D01*
G01X137478D01*
G03X82988Y2332692I-27245J0D01*
G01X60808D01*
X60797Y2391164D01*
G37*
G36*
X60799Y5023727D02*
G02X63556Y5028863I6163J-0D01*
G01X95098Y5060338D01*
X95560Y5060649D01*
X96686Y5061147D01*
X97598Y5061396D01*
X98166Y5061458D01*
X181592D01*
G02X185667Y5051816I-491J-5890D01*
G01X162256Y5028303D01*
X161526Y5027370D01*
G03X159625Y5023077I6512J-5451D01*
G01X159533Y5022642D01*
X159510Y4994899D01*
G02X158351Y4988989I-9456J-1214D01*
G02X154353Y4987870I-2585J1533D01*
G01X151410Y4989798D01*
G03X153972Y4941029I-14784J-25228D01*
G02X158536Y4939848I1794J-2476D01*
G01X159407Y4937546D01*
X159472Y4937235D01*
X159505Y4401652D01*
X159321Y4400719D01*
X158479Y4398729D01*
G02X154325Y4397236I-2775J1197D01*
G03X110993Y4387967I-17621J-23544D01*
G03X154068Y4350458I25655J-14026D01*
G02X158579Y4349214I1750J-2454D01*
G01X159344Y4347348D01*
X159430Y4347037D01*
X159482Y4346725D01*
X159474Y3810707D01*
X159226Y3809774D01*
X158487Y3808157D01*
G02X154353Y3806788I-2721J1290D01*
G01X151305Y3808779D01*
G03X154317Y3760197I-14671J-25294D01*
G02X158439Y3758891I1415J-2691D01*
G01X159384Y3756651D01*
X159456Y3756340D01*
X159494Y3756029D01*
X159566Y3645989D01*
G03X160719Y3642070I9047J532D01*
G03X162579Y3639396I8588J3990D01*
G01X236714Y3565372D01*
G03X244679Y3561080I9342J7799D01*
G01X245126Y3560893D01*
X245344Y3560769D01*
G03X249582Y3586522I11149J11391D01*
G02X247803Y3586335I-1187J2735D01*
G02X245026Y3588139I1399J5193D01*
G01X238360Y3594795D01*
X298303D01*
G03X386356Y3572183I46930J0D01*
G01X419871D01*
G03X449609Y3572183I14869J0D01*
G01X557914D01*
X557958Y3269837D01*
G02X548871Y3263928I-5936J-814D01*
G03X549816Y3232452I-5639J-15921D01*
G02X557992Y3226854I2242J-5495D01*
G01X557984Y3208286D01*
X344994D01*
G03X266872Y3208286I-39061J0D01*
G01X161452D01*
G03X107427Y3192890I-24819J-15396D01*
G01X60834D01*
X60821Y3667885D01*
X60859Y3668196D01*
X60930Y3668507D01*
X61777Y3670747D01*
G02X66344Y3671929I2769J-1284D01*
G03X65889Y3721568I15184J24961D01*
G02X62627Y3721827I-1421J2779D01*
G02X60845Y3725425I3118J3784D01*
G01X60817Y4258333D01*
X60848Y4258644D01*
X61000Y4259266D01*
X61714Y4261256D01*
G02X65690Y4262811I2742J-1151D01*
G01X69751Y4260696D01*
G03X65832Y4312140I11775J26768D01*
G02X62399Y4312575I-1408J2654D01*
G02X60893Y4315623I4127J3935D01*
G01X60832Y4849091D01*
X60990Y4850086D01*
X61838Y4852014D01*
G02X65960Y4853321I2719J-1423D01*
G03X65899Y4902774I15539J24746D01*
G02X61633Y4904204I-1503J2593D01*
G01X60977Y4905822D01*
X60903Y4906133D01*
X60862Y4906444D01*
X60800Y5023637D01*
G02X60799Y5023727I6162J112D01*
G37*
G36*
X60808Y2332692D02*
G01X82988D01*
G03X137478Y2332692I27245J0D01*
G01X413688D01*
G03X468178Y2332692I27245J0D01*
G01X557897D01*
X557944Y2131895D01*
X273942D01*
G03X228420Y2131895I-22761J0D01*
G01X60844D01*
X60808Y2332692D01*
G37*
G36*
X60834Y3192890D02*
X107427D01*
G03X165839Y3192890I29206J0D01*
G01X270034D01*
G03X344994Y3208286I35899J15396D01*
G01X557984D01*
X557953Y3135351D01*
G02X548731Y3130125I-6020J-126D01*
G03X528315Y3121914I-5569J-15641D01*
G03X526707Y3117249I9784J-5982D01*
G03X539152Y3097717I16573J-3171D01*
G02X543080Y3090594I-1801J-5638D01*
G01X518376D01*
G03X453914Y3106301I-34145J-0D01*
G01X409939D01*
G03X351527Y3106301I-29206J0D01*
G01X260339D01*
G03X201927Y3106301I-29206J0D01*
G01X110683D01*
G03X65913Y3130996I-29189J13D01*
G02X62716Y3131245I-1416J2470D01*
G02X60836Y3134977I3319J4011D01*
G01X60834Y3192890D01*
G37*
G36*
X60841Y2981674D02*
X60845Y3004285D01*
X298303D01*
G03X304110Y2981674I46930J1D01*
G01X270609D01*
G03X240871Y2981674I-14869J0D01*
G01X60841D01*
G37*
G36*
X60842Y2602381D02*
X107427D01*
G03X165839Y2602381I29206J0D01*
G01X270008D01*
G03X344994Y2617714I35925J15333D01*
G01X557944D01*
X557950Y2544281D01*
G02X548489Y2539616I-6019J280D01*
G03X531865Y2535946I-5202J-15922D01*
G03X538927Y2507270I11400J-12400D01*
G02X543021Y2499992I-1618J-5700D01*
G01X518353D01*
G03X453940Y2515698I-34121J0D01*
G01X409962D01*
G03X351504Y2515698I-29229J0D01*
G01X260362D01*
G03X201904Y2515698I-29229J-1D01*
G01X110727D01*
G03X66170Y2540487I-29207J-59D01*
G02X61802Y2541855I-1606J2531D01*
G01X60925Y2543970D01*
X60858Y2544281D01*
X60842Y2602381D01*
G37*
G36*
X60844Y2131895D02*
X228420D01*
G03X273942Y2131895I22761J0D01*
G01X557944D01*
X557955Y2087637D01*
G02X548697Y2082847I-5995J246D01*
G03X536654Y2051371I-5456J-15954D01*
G03X550639Y2051620I6721J15375D01*
G02X557992Y2045711I1425J-5756D01*
G01X557984Y2027205D01*
X344994D01*
G03X266872Y2027205I-39061J0D01*
G01X161504D01*
G03X144031Y2040112I-24861J-15376D01*
G03X120081Y2035882I-7557J-27132D01*
G03X107822Y2016910I16522J-24123D01*
G02X103293Y2015168I-2941J888D01*
G01X101784Y2015852D01*
X101475Y2016039D01*
X101231Y2016225D01*
X63416Y2054046D01*
G02X60857Y2059893I4684J5533D01*
G01X60844Y2131895D01*
G37*
G36*
X60845Y3004285D02*
X60848Y3026959D01*
X241147D01*
G03X270884Y3026959I14869J0D01*
G01X304144D01*
G03X298303Y3004285I41089J-22674D01*
G01X60845D01*
G37*
G36*
X60848Y3026959D02*
X60857Y3077749D01*
X60922Y3078060D01*
X61831Y3080300D01*
G02X65953Y3081606I2701J-1368D01*
G03X110683Y3106301I15541J24708D01*
G01X201927D01*
G03X260339Y3106301I29206J0D01*
G01X351527D01*
G03X405356Y3090594I29206J0D01*
G01X450087D01*
G03X518376Y3090594I34144J0D01*
G01X543080D01*
G02X540881Y3087329I-5729J1485D01*
G01X530473Y3076940D01*
G03X526378Y3065868I12913J-11069D01*
G01X526534Y3041297D01*
G03X531665Y3031033I16714J1941D01*
G01X535751Y3026960D01*
X448884D01*
G03X419148Y3026960I-14868J0D01*
G01X386321D01*
G03X304144Y3026959I-41088J-22674D01*
G01X270884D01*
G03X241147Y3026959I-14868J0D01*
G01X60848D01*
G37*
G36*
X139565Y1980123D02*
G02X142417Y1983133I3014J0D01*
G03X158538Y1992463I-5823J28653D01*
G03X161504Y2027205I-21896J19367D01*
G01X266872D01*
G03X344994Y2027205I39061J0D01*
G01X557984D01*
X557956Y1954207D01*
G02X551315Y1948174I-5922J-153D01*
G02X548721Y1948982I978J7709D01*
G03X538811Y1916760I-5442J-15961D01*
G02X543017Y1909420I-1503J-5737D01*
G01X518353D01*
G03X453989Y1925220I-34121J0D01*
G01X409939D01*
G03X351527Y1925220I-29206J0D01*
G01X260321D01*
G03X201934Y1924474I-29199J31D01*
G02X198034Y1921425I-3074J-86D01*
G02X192408Y1925033I1156J7994D01*
G01X140708Y1976850D01*
X140393Y1977348D01*
X139687Y1979276D01*
G02X139565Y1980123I2893J849D01*
G37*
G36*
X161452Y3208286D02*
G01X266872D01*
G03X270034Y3192890I39061J-1D01*
G01X165839D01*
G03X161452Y3208286I-29206J1D01*
G37*
G36*
X161479Y846092D02*
G01X266895D01*
G03X270059Y830697I39038J0D01*
G01X165862D01*
G03X161479Y846092I-29229J-0D01*
G37*
G36*
X161490Y2617714D02*
G01X266872D01*
G03X270008Y2602381I39061J2D01*
G01X165839D01*
G03X161490Y2617714I-29206J-1D01*
G37*
G36*
X161509Y1436602D02*
G01X266895D01*
G03X270019Y1421300I39038J0D01*
G01X165839D01*
G03X161509Y1436602I-29206J-1D01*
G37*
G36*
X186716Y209458D02*
G01X453265D01*
G03X486971Y209458I16853J0D01*
G01X738522D01*
X738520Y167097D01*
X696178D01*
G03X641688Y167097I-27245J0D01*
G01X239705D01*
X231745Y179009D01*
X218444Y192321D01*
X202710Y202833D01*
X186716Y209458D01*
G37*
G36*
X198035Y4986066D02*
G02X199754Y4990296I6104J-16D01*
G01X228756Y5019310D01*
X589482D01*
G03X623179Y5019310I16849J0D01*
G01X652465D01*
G03X686122Y5019656I16827J346D01*
G01X715453D01*
G03X749114Y5019656I16831J0D01*
G01X778445D01*
G03X812106Y5019656I16831J0D01*
G01X841437D01*
G03X875098Y5019656I16831J0D01*
G01X904429D01*
G03X938090Y5019656I16831J0D01*
G01X967422D01*
G03X1001082Y5019656I16830J0D01*
G01X1030414D01*
G03X1064075Y5019656I16831J0D01*
G01X1093406D01*
G03X1127067Y5019656I16831J0D01*
G01X1156398D01*
G03X1190059Y5019656I16831J0D01*
G01X1219390D01*
G03X1253051Y5019656I16831J0D01*
G01X1282382D01*
G03X1316043Y5019656I16831J0D01*
G01X1345374D01*
G03X1379035Y5019656I16831J0D01*
G01X1408366D01*
G03X1442027Y5019656I16831J0D01*
G01X1471359D01*
G03X1505019Y5019656I16830J0D01*
G01X1660335D01*
G03X1693996Y5019656I16831J0D01*
G01X1723327D01*
G03X1756988Y5019656I16831J0D01*
G01X1786319D01*
G03X1819980Y5019656I16831J0D01*
G01X1849311D01*
G03X1882972Y5019656I16831J0D01*
G01X1912303D01*
G03X1945964Y5019656I16831J0D01*
G01X1975296D01*
G03X2008956Y5019656I16830J0D01*
G01X2038288D01*
G03X2071949Y5019656I16831J0D01*
G01X2101280D01*
G03X2134941Y5019656I16831J0D01*
G01X2164272D01*
G03X2197933Y5019656I16831J0D01*
G01X2227264D01*
G03X2260925Y5019656I16831J0D01*
G01X2290256D01*
G03X2323917Y5019656I16831J0D01*
G01X2353248D01*
G03X2386909Y5019656I16831J0D01*
G01X2416240D01*
G03X2449901Y5019656I16831J0D01*
G01X2479233D01*
G03X2512893Y5019656I16830J0D01*
G01X3060788D01*
Y4988181D01*
X533996D01*
G03X500335Y4988181I-16830J0D01*
G01X344085D01*
G03X266895Y4979907I-38152J-8273D01*
G01X198036D01*
X198035Y4986066D01*
G37*
G36*
X198036Y4979907D02*
X266895D01*
G03X344971Y4979907I39038J0D01*
G01X502509D01*
G03X533996Y4988181I14657J8273D01*
G01X3060788D01*
Y4888451D01*
X3006576D01*
G03X2986618Y4910051I-21668J-1D01*
G01X2692516D01*
G03X2672557Y4888453I1707J-21598D01*
G01X2596139D01*
G03X2602273Y4951542I-9552J32771D01*
G03X2570746Y4951418I-15647J-29712D01*
G03X2556008Y4936302I13415J-27822D01*
G01X2553249Y4928651D01*
G02X2552242Y4927407I-2751J1197D01*
G02X2545100Y4929957I-2470J4359D01*
G02X2544424Y4932259I5049J2733D01*
G01X2544405Y4956829D01*
G03X2510714Y4956892I-16846J-61D01*
G01X2510745Y4906941D01*
G02X2504104Y4900907I-5994J-75D01*
G02X2501026Y4901965I663J6935D01*
G03X2489892Y4901467I-4961J-13800D01*
G02X2481429Y4907625I-2543J5400D01*
G01X2481413Y4956829D01*
G03X2447722Y4956892I-16846J-65D01*
G01X2447753Y4906941D01*
G02X2441111Y4900907I-5994J-75D01*
G02X2438034Y4901965I664J6934D01*
G03X2426900Y4901467I-4961J-13800D01*
G02X2418437Y4907625I-2543J5400D01*
G01X2418421Y4956829D01*
G03X2384730Y4956892I-16846J-65D01*
G01X2384761Y4906941D01*
G02X2378119Y4900907I-5994J-75D01*
G02X2375042Y4901965I664J6934D01*
G03X2363908Y4901467I-4961J-13800D01*
G02X2355445Y4907625I-2543J5400D01*
G01X2355429Y4956829D01*
G03X2321737Y4956581I-16846J-74D01*
G01Y4907625D01*
G02X2312516Y4901778I-5943J-823D01*
G03X2300033Y4901156I-5503J-15128D01*
G03X2295700Y4898295I3944J-10684D01*
G03X2290487Y4888902I9729J-11543D01*
G03X2302934Y4869370I16571J-3172D01*
G02X2304728Y4859044I-1804J-5632D01*
G01X2298424Y4852761D01*
G03X2290709Y4841813I13573J-17757D01*
G01X2290191Y4838578D01*
X2290307Y4813012D01*
X2290676Y4810897D01*
X2291536Y4808285D01*
X2293257Y4805174D01*
X2293910Y4804303D01*
X2320024Y4778177D01*
G02X2321684Y4774010I-3955J-3990D01*
G01X2321731Y4450981D01*
G02X2312424Y4445071I-6034J-781D01*
G03X2295786Y4441525I-5368J-15620D01*
G03X2313576Y4413533I11296J-12470D01*
G02X2321720Y4407251I2210J-5555D01*
G01X2321762Y4316370D01*
G02X2312735Y4311082I-6011J-87D01*
G03X2300012Y4310522I-5731J-14614D01*
G03X2295636Y4307599I4260J-11115D01*
G03X2302706Y4278922I11400J-12399D01*
G02X2304706Y4268472I-1610J-5725D01*
G01X2294233Y4258022D01*
G03X2290669Y4251117I12921J-11042D01*
G01X2290185Y4247944D01*
X2290228Y4223436D01*
G03X2290820Y4219890I11936J170D01*
G03X2292244Y4216344I10242J2054D01*
G01X2292486Y4215847D01*
X2293873Y4213794D01*
X2319907Y4187730D01*
G02X2321687Y4183438I-4527J-4393D01*
G01X2321693Y3858792D01*
G02X2312477Y3854500I-5954J744D01*
G03X2300251Y3853940I-5414J-15538D01*
G03X2295628Y3850892I5611J-13540D01*
G03X2314415Y3823273I11423J-12429D01*
G02X2321771Y3817363I1438J-5743D01*
G01X2321706Y3726420D01*
G02X2312856Y3720511I-5920J-716D01*
G03X2295705Y3717089I-5792J-15661D01*
G03X2302589Y3688413I11346J-12441D01*
G02X2305169Y3678336I-1498J-5752D01*
G01X2294219Y3667450D01*
X2292959Y3665770D01*
X2292495Y3664962D01*
G03X2290908Y3661416I10410J-6787D01*
G01X2290277Y3658430D01*
X2290223Y3632988D01*
G03X2290825Y3629318I12316J136D01*
G01X2291498Y3627266D01*
X2292460Y3625337D01*
X2293944Y3623160D01*
X2320200Y3596848D01*
G02X2321691Y3592866I-3883J-3724D01*
G01X2321738Y3269837D01*
G02X2312650Y3263928I-5936J-814D01*
G03X2313596Y3232452I-5627J-15921D01*
G02X2321771Y3226854I2242J-5495D01*
G01X2321704Y3135911D01*
G02X2312511Y3130125I-5926J-780D01*
G03X2290487Y3117249I-5508J-15852D01*
G03X2302932Y3097717I16555J-3183D01*
G02X2304728Y3087391I-1802J-5633D01*
G01X2298425Y3081108D01*
G03X2290707Y3070160I13595J-17779D01*
G01X2290190Y3066925D01*
X2290314Y3041297D01*
X2290675Y3039244D01*
X2291535Y3036632D01*
X2293256Y3033522D01*
X2293909Y3032651D01*
X2320024Y3006525D01*
G02X2321684Y3002357I-3949J-3987D01*
G01X2321731Y2679328D01*
G02X2312422Y2673418I-6068J-729D01*
G03X2295787Y2669873I-5361J-15647D01*
G03X2313576Y2641881I11296J-12470D01*
G02X2321751Y2636220I2201J-5555D01*
G01X2321731Y2545463D01*
G02X2312614Y2539492I-5981J-814D01*
G03X2295636Y2535946I-5656J-15335D01*
G03X2302706Y2507270I11399J-12399D01*
G02X2304706Y2496819I-1613J-5725D01*
G01X2298404Y2490537D01*
G03X2290486Y2478593I12725J-17032D01*
G01X2290158Y2475296D01*
X2290257Y2451348D01*
G03X2290821Y2448237I11921J554D01*
G03X2292245Y2444692I10216J2045D01*
G01X2292487Y2444194D01*
X2293873Y2442141D01*
X2319968Y2416015D01*
G02X2321657Y2411163I-4550J-4304D01*
G01X2321693Y2087139D01*
G02X2312477Y2082847I-5954J744D01*
G03X2295556Y2079177I-5434J-15789D01*
G03X2314419Y2051620I11496J-12365D01*
G02X2321771Y2045711I1425J-5756D01*
G01X2321706Y1954767D01*
G02X2312853Y1948858I-5919J-719D01*
G03X2295709Y1945437I-5787J-15669D01*
G03X2302590Y1916760I11343J-12442D01*
G02X2305170Y1906683I-1499J-5753D01*
G01X2298386Y1899965D01*
G03X2292495Y1893309I15351J-19521D01*
G03X2290908Y1889763I10407J-6786D01*
G01X2290277Y1886777D01*
X2290223Y1861336D01*
G03X2290824Y1857666I12320J133D01*
G03X2292211Y1854182I10368J2109D01*
G01X2293241Y1852440D01*
X2293893Y1851570D01*
X2320200Y1825195D01*
G02X2321690Y1821214I-3881J-3722D01*
G01X2321738Y1498185D01*
G02X2312647Y1492275I-5937J-814D01*
G03X2295520Y1488667I-5618J-15786D01*
G03X2313596Y1460800I11479J-12350D01*
G02X2321771Y1455139I2241J-5497D01*
G01X2321704Y1364258D01*
G02X2312506Y1358473I-5926J-782D01*
G03X2290487Y1345596I-5452J-15942D01*
G03X2302930Y1326064I16540J-3192D01*
G02X2304729Y1315738I-1804J-5634D01*
G01X2295202Y1306283D01*
G03X2291098Y1299689I9768J-10653D01*
G01X2290469Y1297450D01*
X2290158Y1294215D01*
X2290307Y1269707D01*
X2290676Y1267592D01*
X2291536Y1264979D01*
X2293256Y1261869D01*
X2293909Y1260998D01*
X2320024Y1234872D01*
G02X2321683Y1230704I-3946J-3985D01*
G01X2321731Y907675D01*
G02X2312420Y901766I-6067J-731D01*
G03X2295788Y898220I-5352J-15677D01*
G03X2313440Y870166I11280J-12483D01*
G02X2321771Y864567I2354J-5495D01*
G01X2321741Y821211D01*
G03X2324249Y813870I16534J1550D01*
G01X2325796Y811631D01*
G02X2326603Y808521I-4052J-2711D01*
G01X2326613Y769456D01*
G02X2316299Y766035I-5959J706D01*
G03X2296923Y765413I-9261J-13621D01*
G03X2296209Y739038I10136J-13472D01*
G03X2301104Y736301I8833J10052D01*
G02X2303642Y726846I-2131J-5640D01*
G01X2303308Y726162D01*
X2303157Y725726D01*
G03X2302358Y721248I9157J-3944D01*
G01X2302345Y701466D01*
G02X2301530Y698418I-6064J-12D01*
G02X2299331Y695992I-9521J6420D01*
G01X2247949Y644487D01*
G02X2244068Y642496I-4492J3978D01*
G01X2192674Y642434D01*
G03X2185097Y638764I531J-10753D01*
G01X2075879Y529408D01*
G02X2068088Y528786I-4256J4207D01*
G03X2049010Y526174I-7754J-14342D01*
G03X2066016Y497808I11407J-12442D01*
G02X2073621Y491961I1489J-5933D01*
G01X2073557Y453394D01*
X2073497Y453083D01*
X2072823Y451155D01*
G02X2069308Y449413I-2765J1163D01*
G03X2047652Y447049I-8711J-20579D01*
G01X2047011Y446489D01*
G03X2069279Y410535I13440J-16549D01*
G02X2072927Y408669I833J-2870D01*
G01X2073518Y406678D01*
X2073569Y406367D01*
X2073558Y403444D01*
X2073497Y403133D01*
X2072916Y401329D01*
G02X2067867Y400022I-2951J995D01*
G03X2051853Y399525I-7422J-19103D01*
G01X2050733Y399027D01*
X2047555Y397037D01*
G03X2040941Y388639I12319J-16505D01*
G03X2069198Y360522I19501J-8659D01*
G02X2073498Y356852I820J-3394D01*
G01X2073588Y316544D01*
G02X2064846Y311318I-5973J67D01*
G03X2046194Y285877I-4397J-16334D01*
G03X2066018Y279034I13989J8390D01*
G02X2073622Y273187I1741J-5604D01*
G01X2073558Y193440D01*
X2073497Y193129D01*
X2072867Y191201D01*
G02X2071387Y189646I-2770J1155D01*
G02X2066968Y190330I-1452J5234D01*
G03X2069206Y150519I-6518J-20335D01*
G02X2071858Y150084I893J-2859D01*
G02X2072079Y140131I-7110J-5137D01*
G02X2067843Y140007I-2185J2214D01*
G03X2047453Y136896I-7293J-20575D01*
G03X2050002Y101377I12988J-16919D01*
G03X2069482Y100569I10520J18400D01*
G02X2072913Y98703I628J-2933D01*
G01X2073555Y96463D01*
X2073594Y59638D01*
G03X2077950Y50556I11895J120D01*
G01X2092048Y36498D01*
G02X2094250Y30029I-8293J-6432D01*
G03X2100959Y21009I14682J3915D01*
G03X2104939Y19018I7811J10641D01*
G02X2107443Y11305I-2542J-5088D01*
G02X2105618Y10123I-2432J1755D01*
G01X2096904Y10061D01*
Y10092D01*
X2023831D01*
X2023793Y10051D01*
X2015248Y10123D01*
G02X2012762Y13774I577J3065D01*
G02X2017936Y19889I6035J140D01*
G03X2012350Y51925I-7485J15200D01*
G02X2008891Y53480I77J4795D01*
G01X1999304Y62997D01*
G02X1997498Y67974I4467J4437D01*
G01X1997472Y96588D01*
X1997631Y97272D01*
X1998169Y98765D01*
G02X2002515Y100196I2806J-1206D01*
G03X2001698Y139509I7910J19829D01*
G02X1998094Y141375I-786J2895D01*
G01X1997485Y143428D01*
X1997445Y143739D01*
X1997443Y146227D01*
X1997481Y146538D01*
X1998123Y148653D01*
G02X2002520Y150208I2858J-1089D01*
G03X2001677Y189584I7872J19866D01*
G02X1998297Y190922I-816J2876D01*
G02X1997540Y192943I4500J2838D01*
G01X1997443Y233500D01*
G02X2006013Y238663I5951J-183D01*
G03X2021748Y242520I4445J15893D01*
G03X2023548Y265660I-11348J12523D01*
G02X2024297Y273125I5114J3257D01*
G03X2025771Y275675I-7069J5787D01*
G03X2004798Y298691I-15362J7065D01*
G02X1997439Y305160I-1467J5751D01*
G01X1997433Y355981D01*
X1997625Y357101D01*
X1998129Y358718D01*
G02X2002361Y360274I2815J-1122D01*
G03X2024039Y363633I8051J19673D01*
G03X2001662Y399525I-13618J16431D01*
G02X1998624Y400473I-751J2934D01*
G02X1997433Y404003I5395J3786D01*
G02X1997898Y408109I6679J1323D01*
G02X2001629Y410473I3038J-668D01*
G01X2003346Y409851D01*
G03X2019011Y410473I7065J19638D01*
G03X2024042Y413583I-6875J16746D01*
G03X2002031Y449600I-13601J16422D01*
G02X1998036Y451528I-1121J2780D01*
G01X1997528Y453145D01*
X1997467Y453456D01*
X1997461Y493827D01*
G02X2005950Y498679I5925J-515D01*
G03X2016857Y499363I4500J15542D01*
G03X2020843Y501665I-4638J12633D01*
G03X2015848Y530963I-10369J13307D01*
G02X2014609Y541227I2406J5497D01*
G01X2125792Y652387D01*
G02X2129483Y654253I4184J-3692D01*
G01X2162834Y654502D01*
G03X2169601Y658421I-2231J11655D01*
G01X2181737Y670675D01*
G03X2183256Y673225I-7434J6156D01*
G01X2183444Y673599D01*
X2183814Y674718D01*
G03X2184291Y677269I-8209J2855D01*
G01X2184300Y685915D01*
G02X2196277Y685729I5985J-335D01*
G03X2198564Y680503I12525J2368D01*
G03X2227487Y697921I14115J9284D01*
G03X2220298Y704888I-14322J-7586D01*
G03X2205333Y705012I-7606J-14836D01*
G02X2198910Y715089I-2960J5199D01*
G01X2222250Y738665D01*
G02X2232221Y739971I5434J-2772D01*
G03X2237841Y736301I10010J9191D01*
G03X2250277Y736239I6296J15623D01*
G03X2255425Y739411I-3344J11190D01*
G01X2256017Y739909D01*
G03X2234054Y765475I-11869J12021D01*
G02X2224521Y771011I-3631J4723D01*
G01X2224489Y808459D01*
G02X2226137Y812626I6147J-22D01*
G03X2229446Y822766I-13454J10000D01*
G01X2229468Y865314D01*
G02X2238400Y869979I5959J-526D01*
G03X2251609Y870663I5864J14633D01*
G03X2255532Y873338I-5776J12686D01*
G03X2237885Y901455I-11339J12480D01*
G02X2229439Y907551I-2525J5401D01*
G01X2229468Y1241092D01*
G03X2223565Y1252974I-18103J-1586D01*
G01X2220043Y1256457D01*
G02X2220723Y1265477I4167J4221D01*
G03X2227964Y1273314I-8468J15088D01*
G03X2217665Y1296517I-15382J7060D01*
G02X2217119Y1306470I2968J5154D01*
G01X2225750Y1315116D01*
X2227054Y1316982D01*
G03X2229474Y1323451I-13147J8605D01*
G02X2237373Y1327059I5628J-1870D01*
G03X2248433Y1326251I6591J14121D01*
G03X2253575Y1328614I-3177J13689D01*
G03X2237609Y1358037I-9512J13882D01*
G02X2229444Y1364320I-2320J5432D01*
G01X2229431Y1455139D01*
G02X2238289Y1460488I5936J180D01*
G03X2251683Y1461235I5857J15441D01*
G03X2237609Y1491902I-7528J15108D01*
G02X2229444Y1498185I-2335J5412D01*
G01X2229527Y1830607D01*
G03X2227324Y1838755I-17969J-486D01*
G03X2224034Y1842985I-10687J-4917D01*
G01X2219851Y1847215D01*
G02X2220912Y1856173I4361J4025D01*
G03X2228172Y1864384I-7295J13766D01*
G03X2218307Y1886715I-15570J6466D01*
G02X2217013Y1896917I2331J5479D01*
G01X2225773Y1905688D01*
X2227074Y1907554D01*
G03X2229494Y1914085I-14492J9084D01*
G02X2238307Y1917258I5592J-1707D01*
G01X2238900Y1917009D01*
X2239441Y1916885D01*
G03X2248282Y1916760I4604J12899D01*
G03X2255434Y1920617I-3019J14158D01*
G03X2237607Y1948609I-11278J12490D01*
G02X2229442Y1954892I-2305J5451D01*
G01X2229462Y2046395D01*
G02X2238493Y2051060I6039J-617D01*
G03X2237608Y2082474I5664J15879D01*
G02X2229443Y2088756I-2324J5427D01*
G01X2229527Y2421116D01*
G03X2223512Y2434117I-17927J-402D01*
G01X2220129Y2437476D01*
G02X2221907Y2447304I4117J4330D01*
G03X2218367Y2477225I-9302J14069D01*
G02X2217098Y2487551I2274J5520D01*
G01X2221493Y2491905D01*
G03X2229300Y2503848I-12955J16992D01*
G02X2237152Y2508265I5887J-1277D01*
G03X2255322Y2511126I6974J14835D01*
G03X2237912Y2539243I-11250J12482D01*
G02X2229447Y2545339I-2507J5444D01*
G01X2229468Y2636966D01*
G02X2238404Y2641632I5979J-561D01*
G03X2251604Y2642316I5803J15713D01*
G03X2237882Y2673107I-7411J15150D01*
G02X2229439Y2679203I-2527J5396D01*
G01X2229468Y3012745D01*
G03X2223565Y3024626I-18106J-1589D01*
G01X2220044Y3028110D01*
G02X2220722Y3037129I4167J4222D01*
G03X2227569Y3044159I-8019J14659D01*
G03X2217666Y3068170I-14984J7868D01*
G02X2217118Y3078122I2969J5155D01*
G01X2225748Y3086769D01*
X2227052Y3088635D01*
G03X2229473Y3095104I-13177J8619D01*
G02X2237375Y3098712I5629J-1870D01*
G03X2248432Y3097903I6594J14152D01*
G03X2253573Y3100267I-3201J13733D01*
G03X2237609Y3129690I-9511J13882D01*
G02X2229444Y3135973I-2317J5435D01*
G01X2229431Y3226792D01*
G02X2238289Y3232141I5937J178D01*
G03X2237609Y3263555I5851J15841D01*
G02X2229444Y3269837I-2331J5418D01*
G01X2229527Y3602259D01*
G03X2227325Y3610408I-17965J-482D01*
G03X2224217Y3614451I-10587J-4922D01*
G01X2219899Y3618806D01*
G02X2221882Y3628385I4355J4093D01*
G03X2218306Y3658368I-9297J14096D01*
G02X2217013Y3668570I2332J5478D01*
G01X2225772Y3677340D01*
X2227073Y3679207D01*
G03X2229494Y3685738I-14496J9088D01*
G02X2238309Y3688911I5594J-1709D01*
G01X2238903Y3688662D01*
X2239442Y3688537D01*
G03X2248282Y3688413I4602J12892D01*
G03X2255434Y3692270I-3026J14170D01*
G03X2237607Y3720262I-11279J12490D01*
G02X2229442Y3726544I-2293J5467D01*
G01X2229411Y3817488D01*
G02X2238350Y3822775I6000J57D01*
G03X2255229Y3851265I5845J15782D01*
G03X2251210Y3853877I-9181J-9729D01*
G03X2237608Y3854126I-7072J-14696D01*
G02X2229443Y3860409I-2321J5430D01*
G01X2229527Y4192769D01*
G03X2224023Y4205210I-17596J-346D01*
G01X2220544Y4208755D01*
G02X2221906Y4218957I3672J4702D01*
G03X2228148Y4226546I-7910J12868D01*
G03X2217907Y4249126I-15565J6553D01*
G02X2217097Y4259203I2729J5290D01*
G01X2221353Y4263433D01*
G03X2229498Y4276310I-11900J16542D01*
G02X2237833Y4279669I5688J-2094D01*
G03X2255364Y4282779I6299J15461D01*
G03X2236830Y4310522I-11279J12528D01*
G02X2229441Y4317178I-1500J5764D01*
G01Y4408122D01*
G02X2238407Y4413285I5978J-15D01*
G03X2260334Y4424170I5898J15647D01*
G03X2237049Y4444449I-16174J4937D01*
G02X2229438Y4450856I-1724J5676D01*
G01X2229468Y4784398D01*
G03X2224079Y4795719I-16516J-919D01*
G01X2220045Y4799763D01*
G02X2220721Y4808782I4167J4223D01*
G03X2228193Y4817180I-7527J14220D01*
G03X2217667Y4839822I-15613J6510D01*
G02X2217117Y4849775I2966J5156D01*
G01X2221371Y4854005D01*
G03X2229127Y4865202I-11910J16535D01*
G02X2237711Y4870303I5878J-118D01*
G01X2238961Y4869743D01*
G03X2255606Y4873475I5206J15765D01*
G03X2237759Y4901405I-11469J12338D01*
G02X2229410Y4907003I-2371J5489D01*
G01X2229439Y4958322D01*
G03X2195753Y4956829I-16804J-1620D01*
G01X2195784Y4906941D01*
G02X2189143Y4900907I-5994J-75D01*
G02X2186065Y4901965I663J6935D01*
G03X2174931Y4901467I-4961J-13800D01*
G02X2166469Y4907625I-2542J5399D01*
G01X2166452Y4956829D01*
G03X2132761Y4956892I-16846J-87D01*
G01X2132792Y4906941D01*
G02X2126151Y4900907I-5994J-75D01*
G02X2123073Y4901965I663J6935D01*
G03X2111939Y4901467I-4961J-13800D01*
G02X2103477Y4907625I-2542J5399D01*
G01X2103460Y4956829D01*
G03X2069769Y4956892I-16846J-65D01*
G01X2069800Y4906941D01*
G02X2063159Y4900907I-5994J-75D01*
G02X2060081Y4901965I663J6935D01*
G03X2048947Y4901467I-4961J-13800D01*
G02X2040484Y4907625I-2543J5400D01*
G01X2040468Y4956829D01*
G03X2006777Y4956892I-16846J-65D01*
G01X2006808Y4906941D01*
G02X2000167Y4900907I-5994J-75D01*
G02X1997089Y4901965I663J6935D01*
G03X1985955Y4901467I-4961J-13800D01*
G02X1977492Y4907625I-2543J5400D01*
G01X1977476Y4956829D01*
G03X1943785Y4956892I-16846J-65D01*
G01X1943816Y4906941D01*
G02X1937174Y4900907I-5994J-75D01*
G02X1934097Y4901965I664J6934D01*
G03X1922963Y4901467I-4961J-13800D01*
G02X1914500Y4907625I-2543J5400D01*
G01X1914484Y4956829D01*
G03X1880793Y4956892I-16846J-65D01*
G01X1880824Y4906941D01*
G02X1874182Y4900907I-5994J-75D01*
G02X1871105Y4901965I664J6934D01*
G03X1859971Y4901467I-4961J-13800D01*
G02X1851508Y4907625I-2543J5400D01*
G01X1851492Y4956829D01*
G03X1817800Y4956581I-16846J-65D01*
G01Y4907625D01*
G02X1808579Y4901778I-5943J-823D01*
G03X1786550Y4888902I-5482J-15904D01*
G03X1786249Y4885792I16572J-3173D01*
G01X1756988D01*
G03X1723327Y4885792I-16831J0D01*
G01X1693996D01*
G03X1660335Y4885792I-16830J0D01*
G01X1536598D01*
X1536528Y4956767D01*
G03X1502840Y4956518I-16844J-92D01*
G01X1502871Y4906941D01*
G02X1496230Y4900907I-5994J-75D01*
G02X1493152Y4901965I663J6935D01*
G03X1481384Y4901218I-5004J-14242D01*
G02X1473504Y4906941I-1999J5534D01*
G01X1473533Y4958322D01*
G03X1439848Y4956829I-16805J-1602D01*
G01X1439879Y4906941D01*
G02X1433237Y4900907I-5994J-75D01*
G02X1430160Y4901965I664J6934D01*
G03X1419026Y4901467I-4961J-13800D01*
G02X1410563Y4907625I-2543J5400D01*
G01X1410547Y4956829D01*
G03X1376856Y4956892I-16846J-87D01*
G01X1376887Y4906941D01*
G02X1370245Y4900907I-5994J-75D01*
G02X1367168Y4901965I664J6934D01*
G03X1356034Y4901467I-4961J-13800D01*
G02X1347571Y4907625I-2543J5400D01*
G01X1347555Y4956829D01*
G03X1313863Y4956892I-16846J-65D01*
G01X1313894Y4906941D01*
G02X1307253Y4900907I-5994J-75D01*
G02X1304175Y4901965I663J6935D01*
G03X1293042Y4901467I-4960J-13800D01*
G02X1284579Y4907625I-2543J5400D01*
G01X1284563Y4956829D01*
G03X1250871Y4956892I-16846J-65D01*
G01X1250902Y4906941D01*
G02X1244261Y4900907I-5994J-75D01*
G02X1241183Y4901965I663J6935D01*
G03X1230050Y4901467I-4960J-13800D01*
G02X1221587Y4907625I-2543J5400D01*
G01X1221571Y4956829D01*
G03X1187879Y4956892I-16846J-65D01*
G01X1187910Y4906941D01*
G02X1181269Y4900907I-5994J-75D01*
G02X1178191Y4901965I663J6935D01*
G03X1167057Y4901467I-4961J-13800D01*
G02X1158595Y4907625I-2542J5399D01*
G01X1158578Y4956829D01*
G03X1124887Y4956892I-16846J-65D01*
G01X1124918Y4906941D01*
G02X1118277Y4900907I-5994J-75D01*
G02X1115199Y4901965I663J6935D01*
G03X1104065Y4901467I-4961J-13800D01*
G02X1095603Y4907625I-2542J5400D01*
G01X1095586Y4956829D01*
G03X1061895Y4956892I-16846J-65D01*
G01X1061926Y4906941D01*
G02X1055285Y4900907I-5994J-75D01*
G02X1052207Y4901965I663J6935D01*
G03X1041073Y4901467I-4961J-13800D01*
G02X1032610Y4907625I-2543J5400D01*
G01X1032594Y4956829D01*
G03X998903Y4956892I-16846J-65D01*
G01X998934Y4906941D01*
G02X992293Y4900907I-5994J-75D01*
G02X989215Y4901965I663J6935D01*
G03X978081Y4901467I-4961J-13800D01*
G02X969618Y4907625I-2543J5400D01*
G01X969602Y4956829D01*
G03X935911Y4956892I-16846J-65D01*
G01X935942Y4906941D01*
G02X929300Y4900907I-5994J-75D01*
G02X926223Y4901965I664J6934D01*
G03X915089Y4901467I-4961J-13800D01*
G02X906626Y4907625I-2543J5400D01*
G01X906610Y4956829D01*
G03X872919Y4956892I-16846J-65D01*
G01X872950Y4906941D01*
G02X866308Y4900907I-5994J-75D01*
G02X863231Y4901965I664J6934D01*
G03X852097Y4901467I-4961J-13800D01*
G02X843634Y4907625I-2543J5400D01*
G01X843618Y4956829D01*
G03X809926Y4956892I-16846J-65D01*
G01X809957Y4906941D01*
G02X803316Y4900907I-5994J-75D01*
G02X800238Y4901965I663J6935D01*
G03X789105Y4901467I-4960J-13800D01*
G02X780642Y4907625I-2543J5400D01*
G01X780626Y4956829D01*
G03X746934Y4956892I-16846J-65D01*
G01X746965Y4906941D01*
G02X740324Y4900907I-5994J-75D01*
G02X737246Y4901965I663J6935D01*
G03X726113Y4901467I-4960J-13800D01*
G02X717650Y4907625I-2543J5400D01*
G01X717634Y4956829D01*
G03X683942Y4956892I-16846J-65D01*
G01X683973Y4906941D01*
G02X677332Y4900907I-5994J-75D01*
G02X674254Y4901965I663J6935D01*
G03X663120Y4901467I-4961J-13800D01*
G02X654658Y4907625I-2542J5399D01*
G01X654641Y4956829D01*
G03X620950Y4956892I-16846J-65D01*
G01X620981Y4906941D01*
G02X614340Y4900907I-5994J-75D01*
G02X611262Y4901965I663J6935D01*
G03X600128Y4901467I-4961J-13800D01*
G02X591666Y4907625I-2542J5400D01*
G01X591649Y4956829D01*
G03X557957Y4956767I-16846J-46D01*
G01X557989Y4906941D01*
G02X548737Y4901778I-6038J-51D01*
G03X536253Y4901156I-5504J-15129D01*
G03X527717Y4892385I6427J-14794D01*
G01X526780Y4889400D01*
G03X539155Y4869370I16488J-3651D01*
G02X543065Y4862216I-1804J-5632D01*
G01X518353D01*
G03X453989Y4878016I-34121J0D01*
G01X409939D01*
G03X351527Y4878016I-29206J0D01*
G01X260287D01*
G03X205270Y4891639I-29191J16D01*
G02X201832Y4890519I-2458J1709D01*
G02X198050Y4896242I2131J5520D01*
G01X198036Y4979907D01*
G37*
G36*
X198046Y4859949D02*
G02X203310Y4865513I5572J0D01*
G02X205340Y4864269I-424J-2971D01*
G03X247582Y4853943I25762J13822D01*
G03X260287Y4878016I-16486J24090D01*
G01X351527D01*
G03X405296Y4862216I29206J0D01*
G01X450110D01*
G03X518353Y4862216I34121J0D01*
G01X543065D01*
G02X540948Y4859044I-5715J1521D01*
G01X531151Y4849340D01*
G03X528965Y4846478I8415J-8693D01*
G01X527927Y4844612D01*
X526897Y4841688D01*
X526412Y4838578D01*
X526427Y4815251D01*
G03X531112Y4803184I16852J-400D01*
G01X535739Y4798581D01*
X448906D01*
G03X419125Y4798581I-14890J0D01*
G01X386296D01*
G03X304170Y4798581I-41063J-22674D01*
G01X270906D01*
G03X241125Y4798581I-14890J0D01*
G01X198054D01*
X198047Y4859852D01*
G02X198046Y4859949I5571J111D01*
G37*
G36*
X198047Y4269281D02*
G02X203424Y4274941I5768J-95D01*
G02X205267Y4273759I-587J-2943D01*
G03X247581Y4263309I25831J13700D01*
G03X260298Y4287382I-16471J24096D01*
G01X351527D01*
G03X405376Y4271707I29206J0D01*
G01X450110D01*
G03X518353Y4271707I34121J0D01*
G01X543038D01*
G02X542553Y4270463I-5727J1516D01*
G02X540359Y4267912I-7660J4369D01*
G01X530454Y4258022D01*
X528616Y4255409D01*
X527595Y4253294D01*
X526683Y4250184D01*
X526378Y4247011D01*
X526426Y4224742D01*
G03X531683Y4212114I16812J-409D01*
G01X535767Y4208041D01*
X448884D01*
G03X419148Y4208041I-14868J0D01*
G01X386312D01*
G03X304152Y4208040I-41080J-22643D01*
G01X270680D01*
G03X240942Y4208040I-14869J0D01*
G01X198049D01*
X198047Y4269281D01*
G37*
G36*
X198049Y4208040D02*
X240942D01*
G03X270680Y4208040I14869J0D01*
G01X304152D01*
G03X298326Y4185398I41081J-22641D01*
G01X198050D01*
X198049Y4208040D01*
G37*
G36*
X198050Y4185398D02*
X298326D01*
G03X304152Y4162755I46907J-2D01*
G01X270609D01*
G03X240871Y4162755I-14869J0D01*
G01X198050D01*
Y4185398D01*
G37*
G36*
Y4162755D02*
X240871D01*
G03X270609Y4162755I14869J0D01*
G01X304152D01*
G03X386313Y4162755I41081J22643D01*
G01X419871D01*
G03X449609Y4162755I14869J0D01*
G01X557911D01*
X557955Y3859289D01*
G02X548697Y3854500I-5995J246D01*
G03X536646Y3823024I-5464J-15953D01*
G03X550636Y3823273I6721J15493D01*
G02X557992Y3817363I1438J-5743D01*
G01X557984Y3798795D01*
X344994D01*
G03X266872Y3798795I-39061J0D01*
G01X198060D01*
X198050Y4162755D01*
G37*
G36*
X198051Y3670208D02*
G02X198088Y3670871I5963J-0D01*
G01X198070Y3679269D01*
G02X203530Y3684370I5513J-429D01*
G02X205303Y3683188I-670J-2925D01*
G01X208262Y3678709D01*
X208662Y3678274D01*
G03X214680Y3672800I18604J14407D01*
G01X215444Y3672240D01*
G03X260311Y3696903I15668J24640D01*
G01X351504D01*
G03X405324Y3681104I29229J0D01*
G01X450087D01*
G03X518376Y3681104I34144J0D01*
G01X543064D01*
G02X540906Y3677900I-5751J1545D01*
G01X530439Y3667450D01*
X528607Y3664837D01*
X527564Y3662660D01*
X526681Y3659612D01*
X526378Y3656440D01*
X526427Y3634108D01*
G03X531711Y3621543I16855J-305D01*
G01X535787Y3617469D01*
X448884D01*
G03X419148Y3617469I-14868J0D01*
G01X386321D01*
G03X298303Y3594795I-41088J-22674D01*
G01X238360D01*
X236865Y3596288D01*
G02X237112Y3605059I4112J4273D01*
G02X238514Y3605743I1970J-2259D01*
G02X244954Y3605992I3475J-6473D01*
G03X244839Y3628945I11040J11532D01*
G01X244324Y3628696D01*
X243890Y3628572D01*
X240411Y3628510D01*
G02X235596Y3630189I-621J5964D01*
G01X199897Y3665895D01*
G02X198051Y3670208I4117J4314D01*
G37*
G36*
X198054Y4798581D02*
G01X241125D01*
G03X270906Y4798581I14891J0D01*
G01X304170D01*
G03X298326Y4775907I41063J-22674D01*
G01X198056D01*
X198054Y4798581D01*
G37*
G36*
X198056Y4775907D02*
X298326D01*
G03X304118Y4753327I46907J-1D01*
G01X270609D01*
G03X240871Y4753327I-14869J0D01*
G01X198058D01*
X198056Y4775907D01*
G37*
G36*
X198058Y4753327D02*
X240871D01*
G03X270609Y4753327I14869J0D01*
G01X304118D01*
G03X386347Y4753327I41115J22580D01*
G01X419667D01*
G03X449404Y4753327I14869J0D01*
G01X557907D01*
X557952Y4450981D01*
G02X548645Y4445071I-6034J-781D01*
G03X531986Y4441525I-5345J-15794D01*
G03X549797Y4413533I11302J-12471D01*
G02X557972Y4407873I2204J-5550D01*
G01X557968Y4389398D01*
X344971D01*
G03X266895Y4389398I-39038J0D01*
G01X198096D01*
X198058Y4753327D01*
G37*
G36*
X198060Y3798795D02*
X266872D01*
G03X344994Y3798795I39061J0D01*
G01X557984D01*
X557956Y3725860D01*
G02X549928Y3720137I-5939J-161D01*
G03X535700Y3719702I-6658J-15124D01*
G03X528304Y3712362I6269J-13713D01*
G03X538810Y3688413I14973J-7711D01*
G02X543064Y3681104I-1497J-5764D01*
G01X518376D01*
G03X453962Y3696903I-34144J-0D01*
G01X409962D01*
G03X351504Y3696903I-29229J0D01*
G01X260311D01*
G03X205348Y3710620I-29199J-23D01*
G02X199992Y3710558I-2697J1622D01*
G02X198063Y3714539I3966J4380D01*
G01X198060Y3798795D01*
G37*
G36*
X198096Y4389398D02*
X266895D01*
G03X344971Y4389398I39038J0D01*
G01X557968D01*
X557952Y4317116D01*
G02X548664Y4311207I-6070J-714D01*
G03X531856Y4307599I-5471J-15469D01*
G03X538927Y4278922I11400J-12399D01*
G02X543038Y4271707I-1615J-5699D01*
G01X518353D01*
G03X453924Y4287382I-34121J0D01*
G01X409939D01*
G03X351527Y4287382I-29206J0D01*
G01X260298D01*
G03X205383Y4301192I-29188J23D01*
G02X199982Y4301129I-2724J1966D01*
G02X198104Y4304675I3965J4370D01*
G01X198096Y4389398D01*
G37*
G36*
X228756Y5019310D02*
X236129Y5026685D01*
G02X240047Y5028551I4316J-4016D01*
G01X560655Y5028614D01*
G03X567272Y5031288I316J8743D01*
G01X671844Y5135606D01*
G02X681892Y5134859I4763J-3878D01*
G01X683815Y5132931D01*
X686056Y5131438D01*
G02X690334Y5124658I-1646J-5778D01*
G03X706695Y5108982I14976J-745D01*
G02X711475Y5104441I-1085J-5929D01*
G03X714598Y5100025I10692J4249D01*
G03X735556Y5100274I10358J10266D01*
G02X744417Y5100149I4377J-3863D01*
G03X764664Y5097972I11270J9578D01*
G01X1005580D01*
G03X1035286Y5097972I14853J0D01*
G01X1115580D01*
G03X1145286Y5097972I14853J0D01*
G01X1225580D01*
G03X1255286Y5097972I14853J0D01*
G01X3060789D01*
X3060788Y5019656D01*
X2512893D01*
G03X2479233Y5019656I-16830J0D01*
G01X2449901D01*
G03X2416240Y5019656I-16831J0D01*
G01X2386909D01*
G03X2353248Y5019656I-16830J0D01*
G01X2323917D01*
G03X2290256Y5019656I-16831J0D01*
G01X2260925D01*
G03X2227264Y5019656I-16831J0D01*
G01X2197933D01*
G03X2164272Y5019656I-16830J0D01*
G01X2134941D01*
G03X2101280Y5019656I-16831J0D01*
G01X2071949D01*
G03X2038288Y5019656I-16831J0D01*
G01X2008956D01*
G03X1975296Y5019656I-16830J0D01*
G01X1945964D01*
G03X1912303Y5019656I-16831J0D01*
G01X1882972D01*
G03X1849311Y5019656I-16831J0D01*
G01X1819980D01*
G03X1786319Y5019656I-16831J0D01*
G01X1756988D01*
G03X1723327Y5019656I-16831J0D01*
G01X1693996D01*
G03X1660335Y5019656I-16830J0D01*
G01X1505019D01*
G03X1471359Y5019656I-16830J0D01*
G01X1442027D01*
G03X1408366Y5019656I-16830J0D01*
G01X1379035D01*
G03X1345374Y5019656I-16831J0D01*
G01X1316043D01*
G03X1282382Y5019656I-16831J0D01*
G01X1253051D01*
G03X1219390Y5019656I-16831J0D01*
G01X1190059D01*
G03X1156398Y5019656I-16830J0D01*
G01X1127067D01*
G03X1093406Y5019656I-16831J0D01*
G01X1064075D01*
G03X1030414Y5019656I-16831J0D01*
G01X1001082D01*
G03X967422Y5019656I-16830J0D01*
G01X938090D01*
G03X904429Y5019656I-16830J0D01*
G01X875098D01*
G03X841437Y5019656I-16831J0D01*
G01X812106D01*
G03X778445Y5019656I-16831J0D01*
G01X749114D01*
G03X715453Y5019656I-16831J0D01*
G01X686122D01*
G03X652461Y5019656I-16831J0D01*
G01X623175D01*
G03X589482Y5019310I-16845J-346D01*
G01X228756D01*
G37*
G36*
X229124Y5251433D02*
X231733Y5254044D01*
X242269Y5269906D01*
X249387Y5287074D01*
X253061Y5305549D01*
X412062D01*
G03X415089Y5290807I14116J-4783D01*
G03X423921Y5285955I11105J9750D01*
G03X430978Y5286644I2050J15486D01*
G01X667206D01*
G03X671207Y5276562I14705J1D01*
G03X679800Y5271959I10171J8665D01*
G03X689957Y5273949I2379J14771D01*
G03X692565Y5276002I-5122J9189D01*
G03X695227Y5279485I-6286J7563D01*
G01X695973Y5280978D01*
G02X699114Y5285395I8016J-2375D01*
G02X701221Y5285519I1218J-2731D01*
G01X702317Y5285208D01*
G03X714516Y5287137I4088J13683D01*
G01X716614Y5288692D01*
X717097Y5289189D01*
G03X718547Y5290744I-4219J5387D01*
G03X721917Y5298769I-9802J8836D01*
G03X722036Y5300709I-15764J1941D01*
G01X2784059D01*
G03X2805223Y5303123I9101J14189D01*
G01X2806865Y5305114D01*
G02X2818222Y5303559I5434J-2563D01*
G01X2821442Y5287261D01*
X2828701Y5269657D01*
X2834312Y5261259D01*
X1367263D01*
G03X1333603Y5261259I-16830J0D01*
G01X1257252D01*
G03X1223603Y5260637I-16819J-622D01*
G01X1147263D01*
G03X1113603Y5260637I-16830J0D01*
G01X1037268D01*
G03X1003586Y5259991I-16835J-647D01*
G01X660164D01*
G03X637305Y5258336I-10630J-11870D01*
G02X633728Y5257714I-2341J2866D01*
G02X629783Y5260824I2054J6662D01*
G03X607108Y5241416I-11063J-10024D01*
G02X605629Y5233267I-4994J-3302D01*
G03X601490Y5225989I8116J-9431D01*
G03X601939Y5217592I12575J-3538D01*
G03X604139Y5213548I9550J2575D01*
G02X603300Y5205088I-4758J-3800D01*
G01X602149Y5203471D01*
X601732Y5202663D01*
G03X600179Y5197811I10046J-5890D01*
G03X603283Y5186489I14803J-2028D01*
G02X601830Y5177407I-4503J-3937D01*
G01X600612Y5176723D01*
X598517Y5174981D01*
X597514Y5173862D01*
X597086Y5173240D01*
G03X594767Y5168512I7793J-6755D01*
G02X584139Y5166584I-5788J1650D01*
G03X560184Y5159706I-9757J-11173D01*
G01X392921D01*
G03X392538Y5162665I-11631J-1D01*
G03X390861Y5167144I-10530J-1389D01*
G01X390629Y5167579D01*
X390271Y5168077D01*
G03X387154Y5171436I-10421J-6544D01*
G02X383930Y5178403I2609J5437D01*
G01X384126Y5179274D01*
G03X384149Y5184810I-10648J2812D01*
G03X381822Y5190408I-11078J-1322D01*
G01X381547Y5190844D01*
X380404Y5192212D01*
X378915Y5193581D01*
G02X376316Y5200734I3051J5157D01*
G01X376392Y5201170D01*
G03X376285Y5208199I-12959J3318D01*
G03X375459Y5210563I-8366J-1597D01*
G03X374434Y5212491I-7104J-2540D01*
G03X371776Y5215663I-8824J-4695D01*
G02X369640Y5223128I3371J5003D01*
G01X369825Y5223937D01*
G03X369618Y5231588I-11356J3521D01*
G03X368184Y5234885I-9819J-2310D01*
G01X367769Y5235569D01*
X366007Y5237808D01*
X365133Y5238617D01*
G02X362699Y5245833I3145J5079D01*
G01X363275Y5247201D01*
X363391Y5247637D01*
G03X363950Y5251058I-9001J3227D01*
G02X371540Y5257527I5886J782D01*
G03X360573Y5272518I3874J14341D01*
G02X352933Y5266174I-5934J-626D01*
G03X334217Y5253422I-3890J-14401D01*
G03X334071Y5251433I13396J-1984D01*
G01X229124D01*
G37*
G36*
X239705Y167097D02*
X641688D01*
G03X696178Y167097I27245J0D01*
G01X738520D01*
X738517Y118142D01*
X293464D01*
G03X263694Y129121I-16910J-0D01*
G02X252550Y130178I-5367J2689D01*
G01X249392Y145978D01*
X242178Y163396D01*
X239705Y167097D01*
G37*
G36*
X242275Y5360009D02*
X513580D01*
G03X547286Y5360009I16853J0D01*
G01X793580D01*
G03X827286Y5360009I16853J0D01*
G01X1336884D01*
G03X1367263Y5369993I13549J9984D01*
G01X1413603D01*
G03X1447263Y5369993I16830J0D01*
G01X2835204D01*
X2828678Y5360227D01*
X2821470Y5342810D01*
X2818330Y5327134D01*
G02X2806555Y5325019I-6156J440D01*
G03X2799655Y5330555I-11735J-7558D01*
G03X2777587Y5321349I-6459J-15570D01*
G03X2776304Y5314898I15573J-6450D01*
G01X713374D01*
G03X711213Y5315751I-6115J-12329D01*
G03X701239Y5315813I-5062J-11967D01*
G03X695154Y5312205I3726J-13219D01*
G03X690991Y5305611I8604J-10043D01*
G01X690687Y5304678D01*
G02X686842Y5301381I-3143J-225D01*
G02X684954Y5301319I-1029J2559D01*
G03X675454Y5300322I-3434J-13034D01*
G01X441196D01*
G03X441055Y5302128I-11633J0D01*
G03X436381Y5311707I-14160J-979D01*
G01X436130Y5311894D01*
G03X425425Y5315688I-9946J-11063D01*
G01Y5315657D01*
G02X418839Y5323464I-969J5864D01*
G03X390490Y5329977I-13426J6513D01*
G01X251949D01*
X249433Y5342623D01*
X242275Y5360009D01*
G37*
G36*
X251949Y5329977D02*
X390490D01*
G03X391026Y5326014I14923J1D01*
G03X394953Y5319359I11558J2334D01*
G03X405633Y5315066I10469J10613D01*
G02X408400Y5315004I1188J-8736D01*
G02X412778Y5307291I-1227J-5795D01*
G03X412062Y5305549I13400J-6525D01*
G01X253061D01*
X253058Y5324397D01*
X251949Y5329977D01*
G37*
G36*
X344085Y4988181D02*
X500335D01*
G03X502509Y4979907I16830J-1D01*
G01X344971D01*
G03X344085Y4988181I-39038J4D01*
G37*
G36*
X386296Y4798581D02*
G01X419125D01*
G03X448906Y4798581I14891J0D01*
G01X535739D01*
X556245Y4778177D01*
G02X557639Y4775907I-3945J-3985D01*
G01X392140D01*
G03X386296Y4798581I-46907J0D01*
G37*
G36*
Y664766D02*
G01X419125D01*
G03X448906Y664766I14891J0D01*
G01X611824D01*
X634442Y642092D01*
X392140D01*
G03X386296Y664766I-46907J0D01*
G37*
G36*
X386312Y4208041D02*
G01X419148D01*
G03X448884Y4208041I14868J0D01*
G01X535767D01*
X556189Y4187668D01*
G02X557566Y4185398I-4556J-4317D01*
G01X392140D01*
G03X386312Y4208041I-46907J-1D01*
G37*
G36*
X386313Y2391164D02*
G03X392140Y2413807I-41080J22643D01*
G01X557540D01*
G02X557878Y2411163I-5914J-2100D01*
G01X557883Y2391164D01*
X449609D01*
G03X419871Y2391164I-14869J0D01*
G01X386313D01*
G37*
G36*
Y4162755D02*
G03X392140Y4185398I-41080J22643D01*
G01X557566D01*
G02X557908Y4183438I-5934J-2045D01*
G01X557911Y4162755D01*
X449609D01*
G03X419871Y4162755I-14869J0D01*
G01X386313D01*
G37*
G36*
X386321Y3026960D02*
X419148D01*
G03X448884Y3026960I14868J0D01*
G01X535751D01*
X556245Y3006525D01*
G02X557606Y3004285I-4262J-4123D01*
G01X392162D01*
G03X386321Y3026960I-46930J1D01*
G37*
G36*
Y3617469D02*
G01X419148D01*
G03X448884Y3617469I14868J0D01*
G01X535787D01*
X556421Y3596848D01*
G02X557652Y3594795I-3875J-3719D01*
G01X392162D01*
G03X386321Y3617469I-46930J-0D01*
G37*
G36*
Y1210021D02*
G03X392162Y1232695I-41089J22674D01*
G01X557608D01*
G02X557904Y1230704I-5300J-1806D01*
G01X557909Y1210021D01*
X449404D01*
G03X419667Y1210021I-14869J0D01*
G01X386321D01*
G37*
G36*
X386325Y2436428D02*
X419130D01*
G03X448901Y2436428I14886J0D01*
G01X535675D01*
X556189Y2416015D01*
G02X557540Y2413807I-4564J-4310D01*
G01X392140D01*
G03X386325Y2436428I-46907J-0D01*
G37*
G36*
X386347Y4753327D02*
G03X392140Y4775907I-41114J22581D01*
G01X557639D01*
G02X557904Y4774010I-5339J-1713D01*
G01X557907Y4753327D01*
X449404D01*
G03X419667Y4753327I-14869J0D01*
G01X386347D01*
G37*
G36*
X386348Y619512D02*
G03X392140Y642092I-41115J22579D01*
G01X634442D01*
X656968Y619512D01*
X449609D01*
G03X419871Y619512I-14869J0D01*
G01X386348D01*
G37*
G36*
X386355Y1255307D02*
X419148D01*
G03X448884Y1255307I14868J0D01*
G01X535750D01*
X556245Y1234872D01*
G02X557608Y1232695I-3937J-3980D01*
G01X392162D01*
G03X386355Y1255307I-46930J-0D01*
G37*
G36*
X386356Y2981674D02*
G03X392162Y3004285I-41123J22610D01*
G01X557606D01*
G02X557875Y3001735I-5623J-1882D01*
G01X557880Y2981674D01*
X449609D01*
G03X419871Y2981674I-14869J0D01*
G01X386356D01*
G37*
G36*
Y3572183D02*
G03X392162Y3594795I-41123J22610D01*
G01X557652D01*
G02X557911Y3592866I-5106J-1668D01*
G01X557914Y3572183D01*
X449609D01*
G03X419871Y3572183I-14869J0D01*
G01X386356D01*
G37*
G36*
X405296Y1909420D02*
G03X409939Y1925220I-24563J15800D01*
G01X453989D01*
G03X450110Y1909420I30243J-15801D01*
G01X405296D01*
G37*
G36*
Y4862216D02*
G03X409939Y4878016I-24563J15800D01*
G01X453989D01*
G03X450110Y4862216I30243J-15801D01*
G01X405296D01*
G37*
G36*
X405316Y728308D02*
G03X409939Y744077I-24583J15769D01*
G01X453947D01*
G03X450088Y728308I30286J-15768D01*
G01X405316D01*
G37*
G36*
X405324Y3681104D02*
G03X409962Y3696903I-24591J15799D01*
G01X453962D01*
G03X450087Y3681104I30270J-15799D01*
G01X405324D01*
G37*
G36*
X405356Y3090594D02*
G03X409939Y3106301I-24623J15707D01*
G01X453914D01*
G03X450087Y3090594I30318J-15707D01*
G01X405356D01*
G37*
G36*
X405376Y1318911D02*
G03X409939Y1334586I-24643J15675D01*
G01X453924D01*
G03X450110Y1318911I30307J-15676D01*
G01X405376D01*
G37*
G36*
Y4271707D02*
G03X409939Y4287382I-24643J15675D01*
G01X453924D01*
G03X450110Y4271707I30307J-15676D01*
G01X405376D01*
G37*
G36*
X405384Y2499992D02*
G03X409962Y2515698I-24651J15706D01*
G01X453940D01*
G03X450110Y2499992I30291J-15706D01*
G01X405384D01*
G37*
G36*
X430978Y5286644D02*
G03X436259Y5289687I-5009J14797D01*
G03X440247Y5295721I-7876J9541D01*
G03X441196Y5300322I-10685J4602D01*
G01X675454D01*
G03X672072Y5297898I6067J-12036D01*
G01X671739Y5297525D01*
G03X668140Y5291802I8756J-9500D01*
G03X667206Y5286644I13771J-5157D01*
G01X430978D01*
G37*
G36*
X623175Y5019656D02*
X652461D01*
G03X652465Y5019310I16830J19D01*
G01X623179D01*
G03X623175Y5019656I-16849J-24D01*
G37*
G36*
X660164Y5259991D02*
G01X1003586D01*
G03X1037280Y5259991I16847J0D01*
G01X1113615D01*
G03X1147263Y5260637I16818J647D01*
G01X1223603D01*
G03X1257263Y5260637I16830J0D01*
G01X1333614D01*
G03X1367263Y5261259I16819J622D01*
G01X2834312D01*
X2839133Y5254044D01*
X2852440Y5240732D01*
X2868085Y5230281D01*
X2885471Y5223066D01*
X2903571Y5219458D01*
X2923200D01*
X2941301Y5223066D01*
X2958687Y5230281D01*
X2974331Y5240732D01*
X2987639Y5254044D01*
X2998071Y5269657D01*
X3005293Y5287074D01*
X3008966Y5305549D01*
X3060789D01*
Y5097972D01*
X1255286D01*
G03X1225580Y5097972I-14853J0D01*
G01X1145286D01*
G03X1115580Y5097972I-14853J0D01*
G01X1035286D01*
G03X1005580Y5097972I-14853J0D01*
G01X764664D01*
G03X767864Y5101331I-8976J11755D01*
G03X770400Y5112092I-10834J8232D01*
G03X744818Y5120055I-14729J-2245D01*
G02X735620Y5121174I-4131J4408D01*
G03X723606Y5125653I-10384J-9501D01*
G02X718773Y5130132I992J5918D01*
G03X711713Y5137348I-12841J-5502D01*
G02X708245Y5144128I2500J5556D01*
G03X703886Y5154951I-14905J286D01*
G03X695506Y5159244I-9852J-8906D01*
G02X691325Y5164966I1770J5682D01*
G01X691232Y5213237D01*
X691103Y5213797D01*
G03X688184Y5219333I-8951J-1182D01*
G01X676763Y5230779D01*
G03X670402Y5234822I-9017J-7161D01*
G02X668298Y5235507I490J5079D01*
G01X664907Y5238057D01*
G02X664287Y5242100I1898J2360D01*
G03X665468Y5248121I-14753J6020D01*
G03X660164Y5259991I-15934J0D01*
G37*
G36*
X713374Y5314898D02*
G01X2776304D01*
G03X2784059Y5300709I16857J-0D01*
G01X722036D01*
G03X718490Y5310712I-15883J-0D01*
G01X717817Y5311521D01*
X717022Y5312267D01*
G03X713374Y5314898I-9767J-9698D01*
G37*
G36*
X824010Y5369993D02*
G01X1333603D01*
G03X1336884Y5360009I16830J-0D01*
G01X827286D01*
G03X824010Y5369993I-16853J-0D01*
G37*
G36*
X1037268Y5260637D02*
G01X1113603D01*
G03X1113615Y5259991I16830J-10D01*
G01X1037280D01*
G03X1037268Y5260637I-16847J10D01*
G37*
G36*
X1257252Y5261259D02*
G01X1333603D01*
G03X1333614Y5260637I16830J-13D01*
G01X1257263D01*
G03X1257252Y5261259I-16830J13D01*
G37*
G36*
X1521167Y3663256D02*
G02X1523603Y3668072I5979J0D01*
G01X1531969Y3676345D01*
G03X1535124Y3681135I-12487J11659D01*
G03X1536611Y3687791I-15499J6957D01*
G01Y3704679D01*
X1660312D01*
G03X1694019Y3704679I16854J0D01*
G01X1723304D01*
G03X1757011Y3704679I16854J0D01*
G01X1786277D01*
G03X1798652Y3688413I16834J-34D01*
G02X1801232Y3678336I-1498J-5752D01*
G01X1794449Y3671618D01*
G03X1786915Y3661043I12350J-16770D01*
G02X1777407Y3657559I-5870J1304D01*
G03X1781324Y3627825I-5778J-15886D01*
G02X1789198Y3624280I2114J-5822D01*
G01X1795985Y3617064D01*
X1816263Y3596848D01*
G02X1817754Y3592866I-3883J-3724D01*
G01X1817800Y3269837D01*
G02X1808713Y3263928I-5936J-814D01*
G03X1786147Y3248003I-5666J-15922D01*
G01X1756988D01*
G03X1723327Y3248003I-16831J0D01*
G01X1693996D01*
G03X1660335Y3248003I-16830J0D01*
G01X1536611D01*
X1536609Y3602322D01*
X1536415Y3603939D01*
G03X1534445Y3610408I-14013J-733D01*
G03X1531799Y3613954I-9981J-4688D01*
G01X1527569Y3618184D01*
G02X1529375Y3627950I4268J4261D01*
G01X1529951Y3628323D01*
G03X1525540Y3657497I-10252J13370D01*
G02X1521167Y3663256I1606J5759D01*
G37*
G36*
Y1891603D02*
G02X1523604Y1896419I5978J-0D01*
G01X1531969Y1904692D01*
G03X1536611Y1916138I-12468J11721D01*
G01Y1933027D01*
X1660312D01*
G03X1694019Y1933027I16854J0D01*
G01X1723304D01*
G03X1757011Y1933027I16854J0D01*
G01X1786282D01*
G03X1798653Y1916760I16835J-35D01*
G02X1801233Y1906683I-1499J-5753D01*
G01X1794449Y1899965D01*
G03X1786915Y1889390I12350J-16770D01*
G02X1777407Y1885907I-5870J1305D01*
G03X1781327Y1856173I-5778J-15887D01*
G02X1789197Y1852627I2217J-5587D01*
G01X1795985Y1845411D01*
X1816263Y1825195D01*
G02X1817754Y1821214I-3881J-3723D01*
G01X1817800Y1498185D01*
G02X1808710Y1492275I-5937J-814D01*
G03X1786150Y1476351I-5661J-15923D01*
G01X1756988D01*
G03X1723327Y1476351I-16831J0D01*
G01X1693996D01*
G03X1660335Y1476351I-16830J0D01*
G01X1536607D01*
X1536598Y1830980D01*
G03X1531105Y1843048I-17926J-875D01*
G01X1528222Y1845909D01*
G02X1529376Y1856297I3645J4853D01*
G01X1529952Y1856670D01*
G03X1525541Y1885844I-10253J13370D01*
G02X1521167Y1891603I1604J5759D01*
G37*
G36*
X1521179Y4253843D02*
G02X1523624Y4258644I5935J0D01*
G01X1531988Y4266917D01*
G03X1536613Y4278487I-12381J11659D01*
G01Y4295248D01*
X1660316D01*
G03X1694015Y4295248I16850J0D01*
G01X1723308D01*
G03X1757007Y4295248I16850J0D01*
G01X1786255D01*
G03X1798769Y4278922I16843J-48D01*
G02X1800769Y4268472I-1610J-5725D01*
G01X1794467Y4262189D01*
G03X1786880Y4251428I12144J-16617D01*
G02X1778670Y4247633I-5711J1577D01*
G03X1780571Y4218024I-7021J-15316D01*
G02X1789227Y4214789I2973J-5242D01*
G01X1795897Y4207698D01*
X1816578Y4187046D01*
G02X1817750Y4183438I-4066J-3315D01*
G01X1817756Y3858792D01*
G02X1808540Y3854500I-5954J744D01*
G03X1791619Y3850829I-5444J-15738D01*
G03X1786229Y3838544I11493J-12367D01*
G01X1757011D01*
G03X1723304Y3838544I-16853J0D01*
G01X1694019D01*
G03X1660312Y3838544I-16853J0D01*
G01X1536612D01*
X1536613Y4192769D01*
G03X1531094Y4205272I-17648J-320D01*
G01X1528268Y4208071D01*
G02X1529315Y4218397I3605J4851D01*
G03X1524521Y4248504I-9662J13897D01*
G02X1521179Y4253843I2593J5339D01*
G37*
G36*
X1521182Y3072741D02*
G02X1523645Y3077563I5951J0D01*
G01X1528267Y3082166D01*
G03X1536261Y3094047I-11731J16523D01*
G01X1536612Y3097219D01*
Y3114139D01*
X1660335D01*
G03X1693996Y3114139I16831J0D01*
G01X1723327D01*
G03X1756988Y3114139I16831J0D01*
G01X1786186D01*
G03X1798995Y3097717I16913J-15D01*
G02X1800791Y3087391I-1802J-5633D01*
G01X1794488Y3081108D01*
G03X1786828Y3070098I11596J-16237D01*
G02X1777824Y3066925I-5708J1835D01*
G03X1761930Y3065059I-6320J-14790D01*
G03X1779796Y3036445I9636J-13868D01*
G02X1789215Y3033708I3828J-4401D01*
G01X1795942Y3026555D01*
X1816518Y3006027D01*
G02X1817747Y3002357I-4240J-3461D01*
G01X1817794Y2679328D01*
G02X1808485Y2673418I-6068J-729D01*
G03X1791829Y2669873I-5331J-15855D01*
G03X1786294Y2657432I11294J-12476D01*
G01X1756988D01*
G03X1723327Y2657432I-16831J0D01*
G01X1693996D01*
G03X1660335Y2657432I-16830J0D01*
G01X1536613D01*
X1536611Y3011750D01*
G03X1531130Y3024129I-17971J-554D01*
G01X1528243Y3026990D01*
G02X1529160Y3037192I3627J4816D01*
G01X1531384Y3038996D01*
G03X1524341Y3067485I-11740J12213D01*
G02X1521182Y3072741I2793J5256D01*
G37*
G36*
X1521183Y1301088D02*
G02X1523645Y1305910I5952J0D01*
G01X1528267Y1310513D01*
G03X1535140Y1318973I-11915J16701D01*
G03X1536611Y1325815I-12471J6260D01*
G01Y1342486D01*
X1660335D01*
G03X1693996Y1342486I16831J0D01*
G01X1723327D01*
G03X1756988Y1342486I16831J0D01*
G01X1786249D01*
G03X1798993Y1326064I16872J-63D01*
G02X1800792Y1315738I-1804J-5634D01*
G01X1794488Y1309455D01*
G03X1786828Y1298445I11700J-16310D01*
G02X1778614Y1294900I-5662J1831D01*
G03X1755919Y1285818I-7099J-15158D01*
G03X1781252Y1265601I15726J-6274D01*
G02X1789214Y1262055I2373J-5384D01*
G01X1795691Y1255151D01*
X1816517Y1234374D01*
G02X1817746Y1230704I-4242J-3461D01*
G01X1817794Y907675D01*
G02X1808483Y901766I-6067J-731D01*
G03X1786258Y885779I-5361J-15990D01*
G01X1756988D01*
G03X1723327Y885779I-16831J0D01*
G01X1693996D01*
G03X1660335Y885779I-16830J0D01*
G01X1536531D01*
X1536550Y1241155D01*
G03X1531148Y1252476I-18088J-1681D01*
G01X1528246Y1255337D01*
G02X1529161Y1265539I3623J4817D01*
G01X1531575Y1267529D01*
G03X1524340Y1295833I-11928J12028D01*
G02X1521183Y1301088I2795J5255D01*
G37*
G36*
Y4844394D02*
G02X1523644Y4849215I5952J0D01*
G01X1531884Y4857364D01*
G03X1536614Y4869183I-12220J11746D01*
G01X1536598Y4885792D01*
X1660335D01*
G03X1693996Y4885792I16831J0D01*
G01X1723327D01*
G03X1756988Y4885792I16831J0D01*
G01X1786249D01*
G03X1798997Y4869370I16873J-61D01*
G02X1800791Y4859044I-1804J-5632D01*
G01X1794487Y4852761D01*
G03X1786852Y4841813I12115J-16585D01*
G02X1777827Y4838578I-5715J1736D01*
G03X1765866Y4838765I-6223J-15400D01*
G03X1779795Y4808098I5700J-15908D01*
G02X1789215Y4805361I3828J-4405D01*
G01X1795880Y4798270D01*
X1816518Y4777680D01*
G02X1817747Y4774010I-4236J-3459D01*
G01X1817794Y4450981D01*
G02X1808487Y4445071I-6034J-781D01*
G03X1791829Y4441525I-5344J-15795D01*
G03X1786294Y4429085I11294J-12476D01*
G01X1756988D01*
G03X1723327Y4429085I-16831J0D01*
G01X1693996D01*
G03X1660335Y4429085I-16830J0D01*
G01X1536613D01*
X1536611Y4783403D01*
G03X1531137Y4795781I-17974J-549D01*
G01X1528245Y4798643D01*
G02X1529159Y4808844I3625J4817D01*
G03X1524343Y4839138I-9479J14023D01*
G02X1521183Y4844394I2792J5257D01*
G37*
G36*
X1521185Y2482186D02*
G02X1523625Y2486991I5951J0D01*
G01X1532439Y2495762D01*
G03X1536613Y2506834I-12873J11176D01*
G01Y2523592D01*
X1660318D01*
G03X1694013Y2523592I16848J0D01*
G01X1723310D01*
G03X1757005Y2523592I16848J0D01*
G01X1786255D01*
G03X1798769Y2507270I16843J-45D01*
G02X1800769Y2496819I-1613J-5725D01*
G01X1794467Y2490537D01*
G03X1786651Y2479091I13636J-17703D01*
G02X1778025Y2476292I-5496J2248D01*
G03X1780571Y2446371I-6321J-15607D01*
G02X1789226Y2443137I2973J-5242D01*
G01X1795897Y2436045D01*
X1815970Y2416077D01*
G02X1817720Y2411163I-4529J-4381D01*
G01X1817756Y2087139D01*
G02X1808540Y2082847I-5954J744D01*
G03X1791621Y2079177I-5444J-15736D01*
G03X1786231Y2066891I11493J-12367D01*
G01X1757011D01*
G03X1723304Y2066891I-16853J0D01*
G01X1694019D01*
G03X1660312Y2066891I-16853J0D01*
G01X1536612D01*
X1536613Y2421116D01*
G03X1534367Y2429389I-28745J-3362D01*
G03X1531604Y2433059I-9880J-4563D01*
G01X1527521Y2437165D01*
G02X1529390Y2446869I4325J4199D01*
G01X1530136Y2447366D01*
G03X1524377Y2476914I-10483J13292D01*
G02X1521185Y2482186I2760J5273D01*
G37*
G36*
X1531606Y808521D02*
G02X1533060Y812502I6446J-98D01*
G01X1534673Y814990D01*
X1535867Y817851D01*
X1536527Y821148D01*
X1536531Y885779D01*
X1660335D01*
G03X1693996Y885779I16831J0D01*
G01X1723327D01*
G03X1756988Y885779I16831J0D01*
G01X1786258D01*
G03X1809503Y870166I16864J-3D01*
G02X1817834Y864567I2354J-5495D01*
G01X1817811Y821148D01*
G03X1821072Y812688I17945J2058D01*
G01X1821859Y811631D01*
G02X1822666Y808521I-4052J-2711D01*
G01X1822676Y769456D01*
G02X1812363Y766035I-5952J688D01*
G03X1791106Y763858I-9344J-13626D01*
G03X1786195Y751914I11990J-11912D01*
G01X1756988D01*
G03X1723327Y751914I-16831J0D01*
G01X1693996D01*
G03X1660336Y751914I-16830J0D01*
G01X1531744D01*
G02X1531622Y753656I6256J1313D01*
G01X1531606Y808521D01*
G37*
G36*
X1531744Y751914D02*
X1660336D01*
G03X1693996Y751914I16830J0D01*
G01X1723327D01*
G03X1756988Y751914I16831J0D01*
G01X1786195D01*
G03X1796855Y736239I16901J31D01*
G02X1800996Y727717I-1266J-5882D01*
G03X1800101Y724544I5439J-3247D01*
G01X1799899Y722678D01*
X1799969Y703084D01*
G02X1798873Y699538I-6573J89D01*
G01X1796225Y696801D01*
G02X1785958Y698045I-4770J3618D01*
G01X1785333Y698916D01*
G03X1782912Y701591I-8620J-5368D01*
G03X1763311Y674345I-11291J-12551D01*
G02X1764453Y664952I-3013J-5132D01*
G01X1676254Y576684D01*
G03X1673515Y569717I8230J-7258D01*
G01X1673559Y534758D01*
G02X1664984Y529968I-5970J616D01*
G01X1664251Y530217D01*
X1663132Y530403D01*
G03X1654455Y529533I-2800J-15779D01*
G03X1650056Y527044I3783J-11818D01*
G01X1649446Y526609D01*
G03X1643552Y515008I10956J-12864D01*
G01X1627286D01*
G03X1593580Y515008I-16853J0D01*
G01X1577283D01*
G03X1571464Y526609I-16908J-1221D01*
G01X1570857Y527044D01*
G03X1566508Y529533I-8177J-9243D01*
G03X1554270Y529595I-6199J-15796D01*
G02X1547433Y536562I-930J5925D01*
G01X1547461Y663646D01*
G02X1551163Y669804I7254J-169D01*
G01X1552151Y670986D01*
G03X1554367Y677082I-10344J7211D01*
G01X1554398Y723736D01*
X1554250Y724918D01*
X1553998Y725913D01*
G03X1553153Y728152I-7013J-1368D01*
G03X1551279Y730827I-6321J-2434D01*
G01X1533848Y748369D01*
G02X1531744Y751914I4153J4862D01*
G37*
G36*
X1536607Y1476351D02*
G01X1660335D01*
G03X1693996Y1476351I16831J0D01*
G01X1723327D01*
G03X1756988Y1476351I16831J0D01*
G01X1786150D01*
G03X1809659Y1460800I16899J2D01*
G02X1817834Y1455139I2241J-5497D01*
G01X1817767Y1364258D01*
G02X1808569Y1358473I-5926J-782D01*
G03X1786550Y1345596I-5513J-15838D01*
G03X1786249Y1342486I16572J-3173D01*
G01X1756988D01*
G03X1723327Y1342486I-16831J0D01*
G01X1693996D01*
G03X1660335Y1342486I-16830J0D01*
G01X1536611D01*
X1536607Y1476351D01*
G37*
G36*
X1536611Y3248003D02*
X1660335D01*
G03X1693996Y3248003I16831J0D01*
G01X1723327D01*
G03X1756988Y3248003I16831J0D01*
G01X1786147D01*
G03X1809659Y3232452I16900J2D01*
G02X1817834Y3226854I2242J-5495D01*
G01X1817767Y3135911D01*
G02X1808574Y3130125I-5926J-780D01*
G03X1786186Y3114139I-5475J-16002D01*
G01X1756988D01*
G03X1723327Y3114139I-16831J0D01*
G01X1693996D01*
G03X1660335Y3114139I-16830J0D01*
G01X1536612D01*
X1536611Y3248003D01*
G37*
G36*
Y3704679D02*
X1536612Y3838544D01*
X1660312D01*
G03X1694019Y3838544I16854J0D01*
G01X1723304D01*
G03X1757011Y3838544I16854J0D01*
G01X1786229D01*
G03X1810478Y3823273I16882J-81D01*
G02X1817834Y3817363I1438J-5743D01*
G01X1817769Y3726420D01*
G02X1808919Y3720511I-5920J-716D01*
G03X1791638Y3716965I-5789J-15671D01*
G03X1786277Y3704679I11473J-12319D01*
G01X1757011D01*
G03X1723304Y3704679I-16853J0D01*
G01X1694019D01*
G03X1660312Y3704679I-16853J0D01*
G01X1536611D01*
G37*
G36*
Y1933027D02*
X1536612Y2066891D01*
X1660312D01*
G03X1694019Y2066891I16854J0D01*
G01X1723304D01*
G03X1757011Y2066891I16854J0D01*
G01X1786231D01*
G03X1810482Y2051620I16882J-81D01*
G02X1817834Y2045711I1425J-5756D01*
G01X1817769Y1954767D01*
G02X1808916Y1948858I-5919J-719D01*
G03X1791643Y1945312I-5790J-15638D01*
G03X1786282Y1933027I11473J-12319D01*
G01X1757011D01*
G03X1723304Y1933027I-16853J0D01*
G01X1694019D01*
G03X1660312Y1933027I-16853J0D01*
G01X1536611D01*
G37*
G36*
X1536613Y2657432D02*
X1660335D01*
G03X1693996Y2657432I16831J0D01*
G01X1723327D01*
G03X1756988Y2657432I16831J0D01*
G01X1786294D01*
G03X1809639Y2641881I16829J-35D01*
G02X1817814Y2636220I2201J-5555D01*
G01X1817794Y2545463D01*
G02X1808677Y2539492I-5981J-814D01*
G03X1791699Y2535946I-5657J-15334D01*
G03X1786255Y2523592I11399J-12400D01*
G01X1757005D01*
G03X1723310Y2523592I-16847J0D01*
G01X1694013D01*
G03X1660318Y2523592I-16847J0D01*
G01X1536613D01*
Y2657432D01*
G37*
G36*
Y4429085D02*
X1660335D01*
G03X1693996Y4429085I16831J0D01*
G01X1723327D01*
G03X1756988Y4429085I16831J0D01*
G01X1786294D01*
G03X1809639Y4413533I16829J-35D01*
G02X1817814Y4407873I2205J-5550D01*
G01X1817794Y4317116D01*
G02X1808680Y4311144I-6053J-703D01*
G03X1791699Y4307599I-5653J-15364D01*
G03X1786255Y4295248I11400J-12400D01*
G01X1757007D01*
G03X1723308Y4295248I-16850J0D01*
G01X1694015D01*
G03X1660316Y4295248I-16849J0D01*
G01X1536613D01*
Y4429085D01*
G37*
G36*
X1547303Y405327D02*
G02X1547898Y408109I6809J-2D01*
G02X1551629Y410473I3038J-668D01*
G01X1553346Y409851D01*
G03X1569011Y410473I7065J19638D01*
G03X1574042Y413583I-6864J16728D01*
G03X1581764Y429974I-13600J16422D01*
G01X1589098D01*
G03X1631768Y429974I21335J0D01*
G01X1639152D01*
G03X1669279Y410535I21323J-19D01*
G02X1672927Y408669I833J-2870D01*
G01X1673518Y406678D01*
X1673569Y406367D01*
X1673558Y403444D01*
X1673497Y403133D01*
X1672916Y401329D01*
G02X1667867Y400022I-2951J995D01*
G03X1651853Y399525I-7422J-19103D01*
G01X1650733Y399027D01*
X1647555Y397037D01*
G03X1640941Y388639I12319J-16505D01*
G03X1639108Y380024I19507J-8653D01*
G01X1631768D01*
G03X1589098Y380024I-21335J0D01*
G01X1581755D01*
G03X1551662Y399525I-21343J35D01*
G02X1548624Y400473I-751J2934D01*
G02X1547433Y404003I5395J3786D01*
G02X1547303Y405327I6679J1324D01*
G37*
G36*
X1547404Y316734D02*
G02X1547404Y316792I5967J29D01*
G01X1547468Y356603D01*
G02X1551251Y360616I3996J23D01*
G02X1552361Y360274I-218J-2679D01*
G03X1574039Y363633I8072J19534D01*
G03X1581755Y380024I-13627J16426D01*
G01X1589098D01*
G03X1631768Y380024I21335J0D01*
G01X1639108D01*
G03X1669198Y360522I21340J-38D01*
G02X1671449Y360336I919J-2590D01*
G02X1673582Y352996I-5118J-5467D01*
G01X1673590Y317477D01*
G02X1665696Y310883I-5891J-970D01*
G03X1655577Y311256I-5580J-13944D01*
G03X1648640Y307400I2795J-13196D01*
G03X1643532Y298442I9769J-11506D01*
G03X1645807Y285939I16010J-3545D01*
G01X1647079Y284135D01*
G02X1647785Y282704I-5025J-3369D01*
G01X1627263D01*
G03X1593603Y282704I-16830J0D01*
G01X1572768D01*
G02X1574409Y285503I5826J-1535D01*
G03X1571872Y307400I-13778J9499D01*
G03X1566144Y310883I-9169J-8628D01*
G01X1565511Y311132D01*
X1564990Y311256D01*
G03X1555247Y311070I-4586J-15033D01*
G02X1547404Y316734I-1875J5665D01*
G37*
G36*
X1547425Y492047D02*
G02X1555906Y497435I5952J0D01*
G03X1577283Y515008I4470J16352D01*
G01X1593580D01*
G03X1627286Y515008I16853J0D01*
G01X1643552D01*
G03X1666016Y497808I16850J-1262D01*
G02X1673621Y491961I1488J-5933D01*
G01X1673557Y453394D01*
X1673497Y453083D01*
X1672823Y451155D01*
G02X1669308Y449413I-2765J1163D01*
G03X1647652Y447049I-8711J-20580D01*
G01X1647011Y446489D01*
G03X1639152Y429974I13464J-16534D01*
G01X1631768D01*
G03X1589098Y429974I-21335J0D01*
G01X1581764D01*
G03X1552031Y449600I-21323J31D01*
G02X1548036Y451528I-1121J2780D01*
G01X1547528Y453145D01*
X1547467Y453456D01*
X1547427Y491899D01*
G02X1547425Y492047I5950J153D01*
G37*
G36*
X1547441Y245755D02*
G02X1555930Y250980I5946J-152D01*
G03X1571681Y254837I4373J16233D01*
G03X1573484Y277977I-11355J12525D01*
G02X1572768Y282704I5110J3192D01*
G01X1593603D01*
G03X1627263Y282704I16830J0D01*
G01X1647785D01*
G02X1645992Y276173I-5731J-1938D01*
G03X1666014Y251415I14350J-8870D01*
G02X1673591Y245568I1706J-5622D01*
G01X1673558Y193440D01*
X1673497Y193129D01*
X1672867Y191201D01*
G02X1671387Y189646I-2770J1155D01*
G02X1666968Y190330I-1452J5234D01*
G03X1639085Y170020I-6526J-20335D01*
G01X1631768D01*
G03X1589098Y170020I-21335J0D01*
G01X1581760D01*
G03X1551677Y189584I-21368J53D01*
G02X1548297Y190922I-816J2876D01*
G02X1547541Y192943I4501J2836D01*
G01X1547441Y245755D01*
G37*
G36*
X1547443Y146227D02*
X1547481Y146538D01*
X1548123Y148653D01*
G02X1552520Y150208I2858J-1089D01*
G03X1581760Y170020I7872J19865D01*
G01X1589098D01*
G03X1631768Y170020I21335J0D01*
G01X1639085D01*
G03X1669206Y150519I21357J-25D01*
G02X1671858Y150084I893J-2859D01*
G02X1672079Y140131I-7110J-5137D01*
G02X1667843Y140007I-2185J2214D01*
G03X1647453Y136896I-7293J-20575D01*
G03X1639112Y120008I12988J-16919D01*
G01X1631768D01*
G03X1589098Y120008I-21335J0D01*
G01X1581778D01*
G03X1551698Y139509I-21350J17D01*
G02X1548094Y141375I-786J2895D01*
G01X1547485Y143428D01*
X1547445Y143739D01*
X1547443Y146227D01*
G37*
G36*
X1547472Y96588D02*
X1547631Y97272D01*
X1548169Y98765D01*
G02X1552515Y100196I2806J-1206D01*
G03X1581778Y120008I7913J19830D01*
G01X1589098D01*
G03X1631768Y120008I21335J0D01*
G01X1639112D01*
G03X1650002Y101377I21330J-31D01*
G03X1669482Y100569I10520J18399D01*
G02X1672913Y98703I628J-2933D01*
G01X1673555Y96463D01*
X1673594Y59638D01*
G03X1677950Y50556I11895J120D01*
G01X1692048Y36498D01*
G02X1694250Y30029I-8293J-6432D01*
G03X1700959Y21009I14682J3915D01*
G03X1704939Y19018I7811J10641D01*
G02X1707443Y11305I-2542J-5088D01*
G02X1705618Y10123I-2432J1755D01*
G01X1696904Y10061D01*
Y10092D01*
X1573831D01*
X1573793Y10051D01*
X1565248Y10123D01*
G02X1562762Y13774I577J3065D01*
G02X1567936Y19889I6035J140D01*
G03X1562350Y51925I-7485J15200D01*
G02X1558891Y53480I77J4795D01*
G01X1549304Y62997D01*
G02X1547498Y67974I4467J4437D01*
G01X1547472Y96588D01*
G37*
G36*
X2258169Y13823D02*
G02X2263913Y19765I5945J0D01*
G03X2268177Y21320I-2164J12558D01*
G03X2272155Y24119I-5376J11866D01*
G03X2277292Y34632I-11658J12208D01*
G02X2279240Y38177I5312J-611D01*
G01X2299828Y58829D01*
G03X2302354Y65361I-9413J7395D01*
G01Y118136D01*
X2776309D01*
G03X2781545Y105918I16874J0D01*
G03X2804601Y105732I11630J12505D01*
G03X2806907Y108344I-6255J7846D01*
G02X2818070Y107287I5382J-2636D01*
G01X2821474Y90243D01*
X2828688Y72825D01*
X2839172Y57150D01*
X2852421Y43900D01*
X2868168Y33388D01*
X2885425Y26234D01*
X2903477Y22626D01*
X2923295D01*
X2941347Y26234D01*
X2958604Y33388D01*
X2974350Y43900D01*
X2987651Y57212D01*
X2998084Y72825D01*
X3005298Y90243D01*
X3008969Y108718D01*
X3060775D01*
Y22066D01*
X3060606Y20822D01*
G02X3049072Y10123I-13656J3155D01*
G01X2260645D01*
G02X2258501Y11865I607J2938D01*
G02X2258169Y13823I5613J1959D01*
G37*
G36*
X2302324Y477748D02*
G02X2305235Y482568I5446J0D01*
G01X2443154Y620600D01*
G02X2447404Y622902I4692J-3589D01*
G01X2508419Y623026D01*
G03X2516153Y627132I-1300J11786D01*
G01X2542865Y653942D01*
X2672556D01*
G03X2680648Y637209I21621J132D01*
G03X2690454Y632730I12800J15049D01*
G01X2691737Y632544D01*
X2986779Y632481D01*
X2989328Y632855D01*
X2992544Y633788D01*
X2995818Y635343D01*
X2998328Y637085D01*
G03X3002682Y641688I-11188J14944D01*
G03X3006581Y653864I-17061J12176D01*
G01X3060776D01*
Y406305D01*
X2434354D01*
G03X2379912Y406305I-27221J0D01*
G01X2302350D01*
Y477218D01*
G02X2302324Y477748I5420J531D01*
G37*
G36*
X2302350Y406305D02*
G01X2379912D01*
G03X2434354Y406305I27221J0D01*
G01X3060776D01*
Y372060D01*
X2778504D01*
G03X2744803Y372060I-16850J0D01*
G01X2620732D01*
G03X2589091Y363975I-14787J-8086D01*
G01X2302351D01*
X2302350Y406305D01*
G37*
G36*
X2302351Y363975D02*
X2589091D01*
G03X2622799Y363975I16854J0D01*
G01X2746869D01*
G03X2778504Y372060I14784J8086D01*
G01X3060776D01*
X3060775Y265561D01*
X2622792D01*
G03X2589098Y265561I-16847J0D01*
G01X2302352D01*
X2302351Y363975D01*
G37*
G36*
X2302352Y265561D02*
X2589098D01*
G03X2622792Y265561I16847J0D01*
G01X3060775D01*
Y108718D01*
X3008969D01*
Y127503D01*
X3005298Y145978D01*
X2998083Y163396D01*
X2987651Y179009D01*
X2974350Y192321D01*
X2958615Y202833D01*
X2941345Y209987D01*
X2922980Y213657D01*
X2903791D01*
X2885426Y209987D01*
X2868156Y202833D01*
X2852422Y192321D01*
X2839121Y179009D01*
X2835775Y174001D01*
X2434378D01*
G03X2379888Y174001I-27245J0D01*
G01X2302353D01*
X2302352Y265561D01*
G37*
G36*
X2302353Y174001D02*
X2379888D01*
G03X2434378Y174001I27245J0D01*
G01X2835775D01*
X2828688Y163396D01*
X2821500Y146040D01*
X2818331Y130178D01*
G02X2807421Y127192I-5951J318D01*
G03X2776309Y118136I-14238J-9056D01*
G01X2302354D01*
X2302353Y174001D01*
G37*
G36*
X2529101Y3072801D02*
G02X2531581Y3077625I5932J-0D01*
G01X2539877Y3085836D01*
G03X2544488Y3097530I-12459J11669D01*
G01X2544402Y3138150D01*
G02X2550720Y3144028I5917J-25D01*
G02X2553229Y3142255I-231J-2989D01*
G01X2555510Y3135537D01*
G03X2553768Y3158802I31108J14027D01*
G01X2553263Y3156998D01*
G02X2551712Y3155443I-2752J1193D01*
G02X2544404Y3160917I-1630J5440D01*
G01X2544447Y3603441D01*
X2544119Y3605618D01*
G03X2543909Y3606738I-13943J-2035D01*
G01X2672556D01*
G03X2680675Y3589943I21541J53D01*
G03X2690580Y3585464I12710J14915D01*
G01X2691935Y3585277D01*
X2987198D01*
X2988553Y3585464D01*
X2992651Y3586584D01*
X2995887Y3588139D01*
X2998379Y3589881D01*
G03X3002709Y3594484I-13229J16782D01*
G03X3006581Y3606615I-17071J12132D01*
G01X3060784D01*
X3060783Y3016065D01*
X3006580D01*
G03X3006575Y3016540I-20950J16D01*
G01X3006577Y3116938D01*
G03X2986604Y3138399I-21666J-139D01*
G01X2692525D01*
G03X2672559Y3116503I1695J-21597D01*
G01X2672556Y3016166D01*
X2543914D01*
G03X2542448Y3019712I-11621J-2728D01*
G03X2539474Y3023631I-11083J-5323D01*
G01X2535227Y3027923D01*
G02X2537082Y3037378I4435J4039D01*
G03X2541019Y3041111I-7100J11431D01*
G03X2532400Y3067485I-13505J10182D01*
G02X2529101Y3072801I2633J5315D01*
G37*
G36*
X2529102Y4844454D02*
G02X2531580Y4849277I5933J-0D01*
G01X2539759Y4857364D01*
G03X2544488Y4869121I-12296J11775D01*
G01X2544415Y4910176D01*
G02X2551012Y4915650I5901J-399D01*
G02X2553259Y4913846I-525J-2956D01*
G03X2596139Y4888453I33328J7378D01*
G01X2672557D01*
G03X2672559Y4888155I21666J-6D01*
G01X2672562Y4787384D01*
G03X2679428Y4772144I21633J579D01*
G03X2692147Y4766359I14837J15746D01*
G01X2944954Y4766234D01*
G02X2946963Y4761071I-71J-3000D01*
G03X2937274Y4740201I17542J-20828D01*
G01X2661078D01*
G03X2606588Y4740201I-27245J0D01*
G01X2544349D01*
X2544343Y4785580D01*
G03X2539475Y4795284I-15752J-1829D01*
G01X2535227Y4799576D01*
G02X2537365Y4809218I4443J4073D01*
G03X2532401Y4839138I-9818J13743D01*
G02X2529102Y4844454I2633J5316D01*
G37*
G36*
X2529105Y3663326D02*
G02X2531540Y3668134I5965J-0D01*
G01X2539843Y3676345D01*
G03X2544487Y3688040I-12356J11676D01*
G01X2544402Y3728722D01*
G02X2550462Y3734600I5904J-24D01*
G02X2553268Y3732765I33J-3012D01*
G01X2555541Y3726109D01*
G03X2553739Y3749311I31086J14085D01*
G01X2553235Y3747507D01*
G02X2550969Y3745760I-2700J1159D01*
G02X2544419Y3751613I-643J5872D01*
G01X2544488Y4192893D01*
G03X2543874Y4197248I-16779J-145D01*
G01X2672556D01*
G03X2691750Y4175849I21673J133D01*
G01X2986761Y4175787D01*
G03X2995599Y4178524I-1840J21578D01*
G01X2999047Y4180950D01*
X3001711Y4183687D01*
G03X3006582Y4197127I-16105J13440D01*
G01X3060786D01*
X3060784Y3606615D01*
X3006581D01*
G03X3006575Y3607111I-20943J-5D01*
G01X3006578Y3707448D01*
G03X2987629Y3728846I-21668J-99D01*
G01X2692811Y3728970D01*
G03X2672559Y3707074I1410J-21618D01*
G01X2672556Y3606738D01*
X2543909D01*
G03X2539430Y3614203I-13731J-3162D01*
G01X2535180Y3618495D01*
G02X2537374Y3628074I4490J4012D01*
G03X2532960Y3657746I-9801J13706D01*
G02X2529105Y3663326I2110J5579D01*
G37*
G36*
X2529106Y2482246D02*
G02X2531561Y2487053I5934J-0D01*
G01X2539862Y2495264D01*
G03X2544488Y2506959I-12385J11661D01*
G01X2544402Y2547578D01*
G02X2550574Y2553488I5914J1D01*
G02X2553265Y2551684I-68J-3010D01*
G01X2555509Y2545090D01*
X2555781Y2544592D01*
G03X2569019Y2529912I27439J11434D01*
G03X2595984Y2526250I17616J28604D01*
G01X2672557D01*
G03X2672559Y2525931I21663J-26D01*
G01X2672631Y2423915D01*
G03X2691744Y2404196I21583J1797D01*
G01X2987390D01*
G03X3006394Y2422920I-2476J21520D01*
G01X3006578Y2526242D01*
X3060781D01*
X3060780Y1834963D01*
X3006581D01*
G03X3006575Y1835459I-20946J-6D01*
G01X3006578Y1935795D01*
G03X2987622Y1957193I-21666J-98D01*
G01X2692824Y1957318D01*
G03X2672559Y1935422I1395J-21617D01*
G01X2672556Y1835085D01*
X2543908D01*
G03X2539429Y1842550I-13734J-3164D01*
G01X2535179Y1846842D01*
G02X2537376Y1856422I4490J4012D01*
G03X2532819Y1886155I-9805J13713D01*
G02X2531541Y1896481I2249J5520D01*
G01X2539843Y1904692D01*
G03X2544487Y1916387I-12362J11678D01*
G01X2544402Y1957069D01*
G02X2550456Y1962947I5904J-24D01*
G02X2553268Y1961112I38J-3013D01*
G01X2555541Y1954456D01*
G03X2553741Y1977659I31059J14081D01*
G01X2553237Y1975855D01*
G02X2550969Y1974107I-2697J1154D01*
G02X2544417Y1979587I-651J5879D01*
G01X2544345Y2423355D01*
X2544103Y2424600D01*
G03X2539433Y2433122I-14007J-2135D01*
G01X2535636Y2436916D01*
G02X2536986Y2446682I4033J4419D01*
G01X2539480Y2448735D01*
G03X2532436Y2476914I-11946J11984D01*
G02X2529106Y2482246I2605J5333D01*
G37*
G36*
Y4253899D02*
G02X2531560Y4258706I5934J0D01*
G01X2539862Y4266917D01*
G03X2544488Y4278611I-12382J11660D01*
G01X2544422Y4319729D01*
G02X2551345Y4325016I5869J-508D01*
G02X2553250Y4323337I-845J-2880D01*
G01X2555509Y4316681D01*
X2555781Y4316183D01*
G03X2569019Y4301503I27424J11422D01*
G03X2604857Y4301876I17621J28834D01*
G03X2553259Y4338079I-18248J28863D01*
G02X2551697Y4336524I-2750J1200D01*
G02X2544405Y4342309I-1477J5626D01*
G01X2544377Y4539374D01*
X2752064D01*
G03X2797542Y4539374I22739J0D01*
G01X3060787D01*
X3060786Y4197127D01*
X3006582D01*
G03X3006575Y4197683I-20976J14D01*
G01X3006577Y4298019D01*
G03X2985960Y4319542I-21668J-120D01*
G01X2693174D01*
G03X2672559Y4297584I1044J-21636D01*
G01X2672556Y4197248D01*
X2543874D01*
G03X2539412Y4204774I-16165J-4498D01*
G01X2535570Y4208631D01*
G02X2536985Y4218335I4101J4357D01*
G03X2532437Y4248566I-9437J14038D01*
G02X2529106Y4253899I2604J5333D01*
G37*
G36*
X2529112Y1301128D02*
G02X2531519Y1305910I5954J-0D01*
G01X2539760Y1314059D01*
G03X2544488Y1325815I-12295J11773D01*
G01X2544402Y1366497D01*
G02X2551008Y1372344I5914J-27D01*
G02X2553238Y1370603I-513J-2956D01*
G01X2553822Y1368550D01*
G03X2568758Y1349018I32829J9628D01*
G03X2595767Y1345149I17724J27524D01*
G01X2672557D01*
G03X2672559Y1344850I21664J-7D01*
G01X2672645Y1242648D01*
X2672737Y1242212D01*
G03X2676465Y1232197I21513J2307D01*
G01X2676974Y1231575D01*
G03X2680700Y1227718I11429J7312D01*
G01X2681219Y1227283D01*
X2683660Y1225728D01*
G03X2692130Y1223053I10614J18860D01*
G01X2937279Y1222929D01*
G02X2939611Y1218139I-77J-3000D01*
G03X2933408Y1200815I21020J-17299D01*
G01X2657178D01*
G03X2602688Y1200815I-27245J0D01*
G01X2544363D01*
X2544359Y1242150D01*
X2544113Y1243456D01*
G03X2539474Y1251978I-13892J-2038D01*
G01X2535171Y1256333D01*
G02X2537082Y1265725I4491J3977D01*
G03X2532742Y1295646I-9481J13900D01*
G02X2529112Y1301128I2324J5482D01*
G37*
G36*
X2539451Y808521D02*
G02X2540937Y812564I6269J-10D01*
G01X2542515Y814990D01*
X2543757Y817976D01*
X2544401Y821211D01*
X2544389Y938000D01*
X2852241D01*
G03X2885948Y938000I16854J0D01*
G01X3060777D01*
Y787402D01*
X2620779D01*
G03X2552488Y787402I-34145J0D01*
G01X2539473D01*
X2539451Y808521D01*
G37*
G36*
X2539473Y787402D02*
X2552488D01*
G03X2620779Y787402I34146J0D01*
G01X3060777D01*
X3060776Y653864D01*
X3006581D01*
G03X3006575Y654377I-20961J11D01*
G01X3006577Y754714D01*
G03X2985926Y776237I-21665J-119D01*
G01X2693208D01*
G03X2672559Y754278I1012J-21639D01*
G01X2672556Y653942D01*
X2542865D01*
X2559661Y670800D01*
X2560608Y672168D01*
X2561382Y673723D01*
X2561913Y675340D01*
X2562241Y677393D01*
X2562307Y709366D01*
G03X2561081Y714529I-10942J129D01*
G03X2559455Y717080I-8303J-3499D01*
G01X2541365Y735181D01*
G02X2539524Y740220I4257J4411D01*
G01X2539473Y787402D01*
G37*
G36*
X2543908Y1835085D02*
X2672556D01*
G03X2680675Y1818290I21551J58D01*
G03X2690576Y1813811I12710J14914D01*
G01X2691928Y1813625D01*
X2987205D01*
X2988557Y1813811D01*
X2992652Y1814931D01*
X2995888Y1816486D01*
X2998379Y1818228D01*
G03X3002710Y1822831I-13245J16802D01*
G03X3006581Y1834963I-17075J12132D01*
G01X3060780D01*
X3060778Y1345285D01*
X3006577D01*
G03X2986604Y1366746I-21667J-140D01*
G01X2692525D01*
G03X2672557Y1345149I1695J-21597D01*
G01X2595767D01*
G03X2596216Y1345285I-9267J31399D01*
G03X2604551Y1349018I-7610J28164D01*
G03X2553218Y1385345I-17979J29027D01*
G02X2550870Y1383541I-2764J1168D01*
G02X2544404Y1389264I-550J5892D01*
G01X2544447Y1831788D01*
X2544119Y1833966D01*
G03X2543908Y1835085I-13943J-2050D01*
G37*
G36*
X2543914Y3016166D02*
G01X2672556D01*
X2672873Y3012745D01*
G03X2676183Y3004285I19000J2556D01*
G03X2680700Y2999371I15644J9847D01*
G03X2691692Y2994768I12934J15460D01*
G01X2986995Y2994706D01*
X2988430Y2994892D01*
X2992597Y2996012D01*
X2995852Y2997567D01*
X2998353Y2999309D01*
G03X3002695Y3003912I-11161J14878D01*
G03X3006580Y3016065I-17065J12153D01*
G01X3060783D01*
X3060782Y2746509D01*
X3008968D01*
X3008969Y2765295D01*
X3005299Y2783770D01*
X2998086Y2801187D01*
X2987603Y2816863D01*
X2974279Y2830174D01*
X2958625Y2840625D01*
X2941355Y2847778D01*
X2923000Y2851448D01*
X2903772D01*
X2885417Y2847778D01*
X2868147Y2840625D01*
X2852493Y2830174D01*
X2839168Y2816863D01*
X2828686Y2801187D01*
X2821473Y2783770D01*
X2818330Y2767970D01*
G02X2807253Y2765233I-5965J359D01*
G03X2776305Y2755936I-14078J-9297D01*
G01X2544384D01*
X2544343Y3013927D01*
X2544113Y3015109D01*
G03X2543914Y3016166I-11818J-1678D01*
G37*
G36*
X2544349Y4740201D02*
G01X2606588D01*
G03X2661078Y4740201I27245J0D01*
G01X2937274D01*
G03X2948675Y4718088I27230J44D01*
G03X2961171Y4713174I15904J22097D01*
G03X2985501Y4757588I3341J27041D01*
G01X2981985Y4761133D01*
G02X2983618Y4766234I2103J2139D01*
G03X2994143Y4768349I1438J20087D01*
G03X3006550Y4786824I-9214J19591D01*
G01X3006575Y4888218D01*
G03X3006576Y4888451I-21667J208D01*
G01X3060788D01*
X3060787Y4539374D01*
X2797542D01*
G03X2752064Y4539374I-22739J0D01*
G01X2544377D01*
X2544349Y4740201D01*
G37*
G36*
X2544363Y1200815D02*
X2602688D01*
G03X2657178Y1200815I27245J0D01*
G01X2933408D01*
G03X2944792Y1178701I27222J26D01*
G03X2957737Y1173725I15916J22080D01*
G03X2982762Y1216708I2911J27082D01*
G02X2981374Y1218823I3482J3798D01*
G02X2983694Y1222680I2860J906D01*
G01X2988214Y1223177D01*
G03X2995463Y1225790I-4518J23895D01*
G01X2995954Y1226039D01*
G03X3006575Y1244825I-11065J18651D01*
G01X3006577Y1345285D01*
X3060778D01*
X3060777Y999987D01*
X2793605D01*
G03X2748127Y999987I-22739J0D01*
G01X2544383D01*
X2544363Y1200815D01*
G37*
G36*
X2544383Y999987D02*
X2748127D01*
G03X2793605Y999987I22739J0D01*
G01X3060777D01*
Y938000D01*
X2885948D01*
G03X2852241Y938000I-16853J0D01*
G01X2544389D01*
X2544383Y999987D01*
G37*
G36*
X2544384Y2755936D02*
X2776305D01*
G03X2804601Y2743523I16871J-0D01*
G03X2806907Y2746136I-6370J7945D01*
G02X2818071Y2745078I5383J-2624D01*
G01X2821475Y2728034D01*
X2828691Y2710617D01*
X2839123Y2695003D01*
X2852425Y2681692D01*
X2868177Y2671179D01*
X2885435Y2664025D01*
X2903497Y2660418D01*
X2923275D01*
X2941337Y2664025D01*
X2958594Y2671179D01*
X2974346Y2681692D01*
X2987649Y2695003D01*
X2998081Y2710617D01*
X3005297Y2728034D01*
X3008968Y2746509D01*
X3060782D01*
X3060781Y2526242D01*
X3006578D01*
G03X2985943Y2547889I-21673J-1D01*
G01X2693191D01*
G03X2672557Y2526250I1030J-21639D01*
G01X2595984D01*
G03X2599654Y2527548I-9348J32267D01*
G01X2603911Y2529663D01*
G03X2553244Y2566426I-17302J29450D01*
G02X2550896Y2564665I-2690J1140D01*
G02X2544414Y2570159I-589J5875D01*
G01X2544384Y2755936D01*
G37*
G36*
X2620732Y372060D02*
X2744803D01*
G03X2746869Y363975I16851J-0D01*
G01X2622799D01*
G03X2620732Y372060I-16854J-2D01*
G37*
G36*
X11009Y745077D02*
G01X51327D01*
G02X51327Y743077I0J-1000D01*
G01X11009D01*
G02X11009Y745077I0J1000D01*
G37*
G36*
X111739D02*
G01X200927D01*
G02X200927Y743077I0J-1000D01*
G01X111739D01*
G02X111739Y745077I0J1000D01*
G37*
G36*
G01X200927D01*
G02X200927Y743077I0J-1000D01*
G01X111739D01*
G02X111739Y745077I0J1000D01*
G37*
G36*
X11007Y1335586D02*
G01X51327D01*
G02X51327Y1333586I0J-1000D01*
G01X11007D01*
G02X11007Y1335586I0J1000D01*
G37*
G36*
X111739D02*
G01X200927D01*
G02X200927Y1333586I0J-1000D01*
G01X111739D01*
G02X111739Y1335586I0J1000D01*
G37*
G36*
G01X200927D01*
G02X200927Y1333586I0J-1000D01*
G01X111739D01*
G02X111739Y1335586I0J1000D01*
G37*
G36*
X11023Y109718D02*
G01X60898D01*
G02X60898Y107718I0J-1000D01*
G01X11023D01*
G02X11023Y109718I0J1000D01*
G37*
G36*
X294464Y119142D02*
G01X737517D01*
G02X737517Y117142I0J-1000D01*
G01X294464D01*
G02X294464Y119142I0J1000D01*
G37*
G36*
X11070Y5306549D02*
G01X60900D01*
G02X60900Y5304549I0J-1000D01*
G01X11070D01*
G02X11070Y5306549I0J1000D01*
G37*
G36*
X254061D02*
G01X411010D01*
G02X411010Y5304549I0J-1000D01*
G01X254061D01*
G02X254061Y5306549I0J1000D01*
G37*
G36*
X61808Y2333692D02*
G01X81988D01*
G02X81988Y2331692I0J-1000D01*
G01X61808D01*
G02X61808Y2333692I0J1000D01*
G37*
G36*
X138478D02*
G01X412688D01*
G02X412688Y2331692I0J-1000D01*
G01X138478D01*
G02X138478Y2333692I0J1000D01*
G37*
G36*
G01X412688D01*
G02X412688Y2331692I0J-1000D01*
G01X138478D01*
G02X138478Y2333692I0J1000D01*
G37*
G36*
X11008Y1154290D02*
G01X83588D01*
G02X83588Y1152290I0J-1000D01*
G01X11008D01*
G02X11008Y1154290I0J1000D01*
G37*
G36*
X140078D02*
G01X414288D01*
G02X414288Y1152290I0J-1000D01*
G01X140078D01*
G02X140078Y1154290I0J1000D01*
G37*
G36*
G01X414288D01*
G02X414288Y1152290I0J-1000D01*
G01X140078D01*
G02X140078Y1154290I0J1000D01*
G37*
G36*
X11009Y831697D02*
G01X106404D01*
G02X106404Y829697I0J-1000D01*
G01X11009D01*
G02X11009Y831697I0J1000D01*
G37*
G36*
X166862D02*
G01X268973D01*
G02X268973Y829697I0J-1000D01*
G01X166862D01*
G02X166862Y831697I0J1000D01*
G37*
G36*
X11007Y1422300D02*
G01X106427D01*
G02X106427Y1420300I0J-1000D01*
G01X11007D01*
G02X11007Y1422300I0J1000D01*
G37*
G36*
X166839D02*
G01X268934D01*
G02X268934Y1420300I0J-1000D01*
G01X166839D01*
G02X166839Y1422300I0J1000D01*
G37*
G36*
X61842Y2603381D02*
G01X106427D01*
G02X106427Y2601381I0J-1000D01*
G01X61842D01*
G02X61842Y2603381I0J1000D01*
G37*
G36*
X166839D02*
G01X268923D01*
G02X268923Y2601381I0J-1000D01*
G01X166839D01*
G02X166839Y2603381I0J1000D01*
G37*
G36*
X61834Y3193890D02*
G01X106427D01*
G02X106427Y3191890I0J-1000D01*
G01X61834D01*
G02X61834Y3193890I0J1000D01*
G37*
G36*
X166839D02*
G01X268949D01*
G02X268949Y3191890I0J-1000D01*
G01X166839D01*
G02X166839Y3193890I0J1000D01*
G37*
G36*
X111727Y2516698D02*
G01X200904D01*
G02X200904Y2514698I0J-1000D01*
G01X111727D01*
G02X111727Y2516698I0J1000D01*
G37*
G36*
X261362D02*
G01X350504D01*
G02X350504Y2514698I0J-1000D01*
G01X261362D01*
G02X261362Y2516698I0J1000D01*
G37*
G36*
X261339Y745077D02*
G01X350527D01*
G02X350527Y743077I0J-1000D01*
G01X261339D01*
G02X261339Y745077I0J1000D01*
G37*
G36*
G01X350527D01*
G02X350527Y743077I0J-1000D01*
G01X261339D01*
G02X261339Y745077I0J1000D01*
G37*
G36*
Y1335586D02*
G01X350527D01*
G02X350527Y1333586I0J-1000D01*
G01X261339D01*
G02X261339Y1335586I0J1000D01*
G37*
G36*
G01X350527D01*
G02X350527Y1333586I0J-1000D01*
G01X261339D01*
G02X261339Y1335586I0J1000D01*
G37*
G36*
X111683Y3107301D02*
G01X200927D01*
G02X200927Y3105301I0J-1000D01*
G01X111683D01*
G02X111683Y3107301I0J1000D01*
G37*
G36*
X261339D02*
G01X350527D01*
G02X350527Y3105301I0J-1000D01*
G01X261339D01*
G02X261339Y3107301I0J1000D01*
G37*
G36*
G01X350527D01*
G02X350527Y3105301I0J-1000D01*
G01X261339D01*
G02X261339Y3107301I0J1000D01*
G37*
G36*
X61844Y2132895D02*
G01X227420D01*
G02X227420Y2130895I0J-1000D01*
G01X61844D01*
G02X61844Y2132895I0J1000D01*
G37*
G36*
X274942D02*
G01X556944D01*
G02X556944Y2130895I0J-1000D01*
G01X274942D01*
G02X274942Y2132895I0J1000D01*
G37*
G36*
X11008Y951783D02*
G01X227442D01*
G02X227442Y949783I0J-1000D01*
G01X11008D01*
G02X11008Y951783I0J1000D01*
G37*
G36*
X274920D02*
G01X556973D01*
G02X556973Y949783I0J-1000D01*
G01X274920D01*
G02X274920Y951783I0J1000D01*
G37*
G36*
X11009Y620512D02*
G01X239871D01*
G02X239871Y618512I0J-1000D01*
G01X11009D01*
G02X11009Y620512I0J1000D01*
G37*
G36*
X271609D02*
G01X302981D01*
G02X302981Y618512I0J-1000D01*
G01X271609D01*
G02X271609Y620512I0J1000D01*
G37*
G36*
X11007Y1211021D02*
G01X239871D01*
G02X239871Y1209021I0J-1000D01*
G01X11007D01*
G02X11007Y1211021I0J1000D01*
G37*
G36*
X271609D02*
G01X303005D01*
G02X303005Y1209021I0J-1000D01*
G01X271609D01*
G02X271609Y1211021I0J1000D01*
G37*
G36*
X61797Y2392164D02*
G01X239871D01*
G02X239871Y2390164I0J-1000D01*
G01X61797D01*
G02X61797Y2392164I0J1000D01*
G37*
G36*
X271609D02*
G01X303014D01*
G02X303014Y2390164I0J-1000D01*
G01X271609D01*
G02X271609Y2392164I0J1000D01*
G37*
G36*
X61841Y2982674D02*
G01X239871D01*
G02X239871Y2980674I0J-1000D01*
G01X61841D01*
G02X61841Y2982674I0J1000D01*
G37*
G36*
X271609D02*
G01X302972D01*
G02X302972Y2980674I0J-1000D01*
G01X271609D01*
G02X271609Y2982674I0J1000D01*
G37*
G36*
X199050Y4163755D02*
G01X239871D01*
G02X239871Y4161755I0J-1000D01*
G01X199050D01*
G02X199050Y4163755I0J1000D01*
G37*
G36*
X271609D02*
G01X303014D01*
G02X303014Y4161755I0J-1000D01*
G01X271609D01*
G02X271609Y4163755I0J1000D01*
G37*
G36*
X199058Y4754327D02*
G01X239871D01*
G02X239871Y4752327I0J-1000D01*
G01X199058D01*
G02X199058Y4754327I0J1000D01*
G37*
G36*
X271609D02*
G01X302981D01*
G02X302981Y4752327I0J-1000D01*
G01X271609D01*
G02X271609Y4754327I0J1000D01*
G37*
G36*
X199049Y4209040D02*
G01X239942D01*
G02X239942Y4207040I0J-1000D01*
G01X199049D01*
G02X199049Y4209040I0J1000D01*
G37*
G36*
X271680D02*
G01X303014D01*
G02X303014Y4207040I0J-1000D01*
G01X271680D01*
G02X271680Y4209040I0J1000D01*
G37*
G36*
X11009Y665766D02*
G01X240125D01*
G02X240125Y663766I0J-1000D01*
G01X11009D01*
G02X11009Y665766I0J1000D01*
G37*
G36*
X271906D02*
G01X303031D01*
G02X303031Y663766I0J-1000D01*
G01X271906D01*
G02X271906Y665766I0J1000D01*
G37*
G36*
X61789Y2437418D02*
G01X240125D01*
G02X240125Y2435418I0J-1000D01*
G01X61789D01*
G02X61789Y2437418I0J1000D01*
G37*
G36*
X271906D02*
G01X302998D01*
G02X302998Y2435418I0J-1000D01*
G01X271906D01*
G02X271906Y2437418I0J1000D01*
G37*
G36*
X199054Y4799581D02*
G01X240125D01*
G02X240125Y4797581I0J-1000D01*
G01X199054D01*
G02X199054Y4799581I0J1000D01*
G37*
G36*
X271906D02*
G01X303031D01*
G02X303031Y4797581I0J-1000D01*
G01X271906D01*
G02X271906Y4799581I0J1000D01*
G37*
G36*
X11007Y1256306D02*
G01X240147D01*
G02X240147Y1254306I0J-1000D01*
G01X11007D01*
G02X11007Y1256306I0J1000D01*
G37*
G36*
X271884D02*
G01X302972D01*
G02X302972Y1254306I0J-1000D01*
G01X271884D01*
G02X271884Y1256306I0J1000D01*
G37*
G36*
X61848Y3027959D02*
G01X240147D01*
G02X240147Y3025959I0J-1000D01*
G01X61848D01*
G02X61848Y3027959I0J1000D01*
G37*
G36*
X271884D02*
G01X303005D01*
G02X303005Y3025959I0J-1000D01*
G01X271884D01*
G02X271884Y3027959I0J1000D01*
G37*
G36*
X162672Y2028205D02*
G01X265872D01*
G02X265872Y2026205I0J-1000D01*
G01X162672D01*
G02X162672Y2028205I0J1000D01*
G37*
G36*
X345994D02*
G01X556984D01*
G02X556984Y2026205I0J-1000D01*
G01X345994D01*
G02X345994Y2028205I0J1000D01*
G37*
G36*
X162658Y2618714D02*
G01X265872D01*
G02X265872Y2616714I0J-1000D01*
G01X162658D01*
G02X162658Y2618714I0J1000D01*
G37*
G36*
X345994D02*
G01X556944D01*
G02X556944Y2616714I0J-1000D01*
G01X345994D01*
G02X345994Y2618714I0J1000D01*
G37*
G36*
X162621Y3209286D02*
G01X265872D01*
G02X265872Y3207286I0J-1000D01*
G01X162621D01*
G02X162621Y3209286I0J1000D01*
G37*
G36*
X345994D02*
G01X556984D01*
G02X556984Y3207286I0J-1000D01*
G01X345994D01*
G02X345994Y3209286I0J1000D01*
G37*
G36*
X199060Y3799795D02*
G01X265872D01*
G02X265872Y3797795I0J-1000D01*
G01X199060D01*
G02X199060Y3799795I0J1000D01*
G37*
G36*
X345994D02*
G01X556984D01*
G02X556984Y3797795I0J-1000D01*
G01X345994D01*
G02X345994Y3799795I0J1000D01*
G37*
G36*
X162648Y847092D02*
G01X265895D01*
G02X265895Y845092I0J-1000D01*
G01X162648D01*
G02X162648Y847092I0J1000D01*
G37*
G36*
X345971D02*
G01X556979D01*
G02X556979Y845092I0J-1000D01*
G01X345971D01*
G02X345971Y847092I0J1000D01*
G37*
G36*
X162676Y1437602D02*
G01X265895D01*
G02X265895Y1435602I0J-1000D01*
G01X162676D01*
G02X162676Y1437602I0J1000D01*
G37*
G36*
X345971D02*
G01X556984D01*
G02X556984Y1435602I0J-1000D01*
G01X345971D01*
G02X345971Y1437602I0J1000D01*
G37*
G36*
X199096Y4390398D02*
G01X265895D01*
G02X265895Y4388398I0J-1000D01*
G01X199096D01*
G02X199096Y4390398I0J1000D01*
G37*
G36*
X345971D02*
G01X556968D01*
G02X556968Y4388398I0J-1000D01*
G01X345971D01*
G02X345971Y4390398I0J1000D01*
G37*
G36*
X199036Y4980907D02*
G01X265895D01*
G02X265895Y4978907I0J-1000D01*
G01X199036D01*
G02X199036Y4980907I0J1000D01*
G37*
G36*
X345971D02*
G01X501370D01*
G02X501370Y4978907I0J-1000D01*
G01X345971D01*
G02X345971Y4980907I0J1000D01*
G37*
G36*
X11007Y1233695D02*
G01X297303D01*
G02X297303Y1231695I0J-1000D01*
G01X11007D01*
G02X11007Y1233695I0J1000D01*
G37*
G36*
X393162D02*
G01X556538D01*
G02X556538Y1231695I0J-1000D01*
G01X393162D01*
G02X393162Y1233695I0J1000D01*
G37*
G36*
X61845Y3005285D02*
G01X297303D01*
G02X297303Y3003285I0J-1000D01*
G01X61845D01*
G02X61845Y3005285I0J1000D01*
G37*
G36*
X393162D02*
G01X556539D01*
G02X556539Y3003285I0J-1000D01*
G01X393162D01*
G02X393162Y3005285I0J1000D01*
G37*
G36*
X239775Y3595795D02*
G01X297303D01*
G02X297303Y3593795I0J-1000D01*
G01X239775D01*
G02X239775Y3595795I0J1000D01*
G37*
G36*
X393162D02*
G01X556587D01*
G02X556587Y3593795I0J-1000D01*
G01X393162D01*
G02X393162Y3595795I0J1000D01*
G37*
G36*
X61793Y2414807D02*
G01X297326D01*
G02X297326Y2412807I0J-1000D01*
G01X61793D01*
G02X61793Y2414807I0J1000D01*
G37*
G36*
X393140D02*
G01X556466D01*
G02X556466Y2412807I0J-1000D01*
G01X393140D01*
G02X393140Y2414807I0J1000D01*
G37*
G36*
X199050Y4186398D02*
G01X297326D01*
G02X297326Y4184398I0J-1000D01*
G01X199050D01*
G02X199050Y4186398I0J1000D01*
G37*
G36*
X393140D02*
G01X556496D01*
G02X556496Y4184398I0J-1000D01*
G01X393140D01*
G02X393140Y4186398I0J1000D01*
G37*
G36*
X199056Y4776907D02*
G01X297326D01*
G02X297326Y4774907I0J-1000D01*
G01X199056D01*
G02X199056Y4776907I0J1000D01*
G37*
G36*
X393140D02*
G01X556576D01*
G02X556576Y4774907I0J-1000D01*
G01X393140D01*
G02X393140Y4776907I0J1000D01*
G37*
G36*
X11009Y643092D02*
G01X297326D01*
G02X297326Y641092I0J-1000D01*
G01X11009D01*
G02X11009Y643092I0J1000D01*
G37*
G36*
X393140D02*
G01X633030D01*
G02X633030Y641092I0J-1000D01*
G01X393140D01*
G02X393140Y643092I0J1000D01*
G37*
G36*
X11008Y373060D02*
G01X319551D01*
G02X319551Y371060I0J-1000D01*
G01X11008D01*
G02X11008Y373060I0J1000D01*
G37*
G36*
X355253D02*
G01X661936D01*
G02X661936Y371060I0J-1000D01*
G01X355253D01*
G02X355253Y373060I0J1000D01*
G37*
G36*
X675930D02*
G01X737532D01*
G02X737532Y371060I0J-1000D01*
G01X675930D01*
G02X675930Y373060I0J1000D01*
G37*
G36*
X230538Y5252433D02*
G01X333071D01*
G02X333071Y5250433I0J-1000D01*
G01X230538D01*
G02X230538Y5252433I0J1000D01*
G37*
G36*
X393921Y5160706D02*
G01X559142D01*
G02X559142Y5158706I0J-1000D01*
G01X393921D01*
G02X393921Y5160706I0J1000D01*
G37*
G36*
X261362Y2516698D02*
G01X350504D01*
G02X350504Y2514698I0J-1000D01*
G01X261362D01*
G02X261362Y2516698I0J1000D01*
G37*
G36*
X410962D02*
G01X452818D01*
G02X452818Y2514698I0J-1000D01*
G01X410962D01*
G02X410962Y2516698I0J1000D01*
G37*
G36*
X261311Y3697903D02*
G01X350504D01*
G02X350504Y3695903I0J-1000D01*
G01X261311D01*
G02X261311Y3697903I0J1000D01*
G37*
G36*
X410962D02*
G01X452838D01*
G02X452838Y3695903I0J-1000D01*
G01X410962D01*
G02X410962Y3697903I0J1000D01*
G37*
G36*
X410939Y745077D02*
G01X452824D01*
G02X452824Y743077I0J-1000D01*
G01X410939D01*
G02X410939Y745077I0J1000D01*
G37*
G36*
Y1335586D02*
G01X452803D01*
G02X452803Y1333586I0J-1000D01*
G01X410939D01*
G02X410939Y1335586I0J1000D01*
G37*
G36*
X261321Y1926220D02*
G01X350527D01*
G02X350527Y1924220I0J-1000D01*
G01X261321D01*
G02X261321Y1926220I0J1000D01*
G37*
G36*
X410939D02*
G01X452865D01*
G02X452865Y1924220I0J-1000D01*
G01X410939D01*
G02X410939Y1926220I0J1000D01*
G37*
G36*
Y3107301D02*
G01X452792D01*
G02X452792Y3105301I0J-1000D01*
G01X410939D01*
G02X410939Y3107301I0J1000D01*
G37*
G36*
X261298Y4288382D02*
G01X350527D01*
G02X350527Y4286382I0J-1000D01*
G01X261298D01*
G02X261298Y4288382I0J1000D01*
G37*
G36*
X410939D02*
G01X452803D01*
G02X452803Y4286382I0J-1000D01*
G01X410939D01*
G02X410939Y4288382I0J1000D01*
G37*
G36*
X261287Y4879016D02*
G01X350527D01*
G02X350527Y4877016I0J-1000D01*
G01X261287D01*
G02X261287Y4879016I0J1000D01*
G37*
G36*
X410939D02*
G01X452865D01*
G02X452865Y4877016I0J-1000D01*
G01X410939D01*
G02X410939Y4879016I0J1000D01*
G37*
G36*
X442196Y5301322D02*
G01X673473D01*
G02X673473Y5299322I0J-1000D01*
G01X442196D01*
G02X442196Y5301322I0J1000D01*
G37*
G36*
X252968Y5330977D02*
G01X389490D01*
G02X389490Y5328977I0J-1000D01*
G01X252968D01*
G02X252968Y5330977I0J1000D01*
G37*
G36*
X469178Y2333692D02*
G01X556897D01*
G02X556897Y2331692I0J-1000D01*
G01X469178D01*
G02X469178Y2333692I0J1000D01*
G37*
G36*
X470778Y1154290D02*
G01X556923D01*
G02X556923Y1152290I0J-1000D01*
G01X470778D01*
G02X470778Y1154290I0J1000D01*
G37*
G36*
X387435Y665766D02*
G01X418125D01*
G02X418125Y663766I0J-1000D01*
G01X387435D01*
G02X387435Y665766I0J1000D01*
G37*
G36*
X449906D02*
G01X610411D01*
G02X610411Y663766I0J-1000D01*
G01X449906D01*
G02X449906Y665766I0J1000D01*
G37*
G36*
X387434Y4799581D02*
G01X418125D01*
G02X418125Y4797581I0J-1000D01*
G01X387434D01*
G02X387434Y4799581I0J1000D01*
G37*
G36*
X449906D02*
G01X534321D01*
G02X534321Y4797581I0J-1000D01*
G01X449906D01*
G02X449906Y4799581I0J1000D01*
G37*
G36*
X387463Y2437428D02*
G01X418130D01*
G02X418130Y2435428I0J-1000D01*
G01X387463D01*
G02X387463Y2437428I0J1000D01*
G37*
G36*
X449901D02*
G01X534258D01*
G02X534258Y2435428I0J-1000D01*
G01X449901D01*
G02X449901Y2437428I0J1000D01*
G37*
G36*
X387385Y1846878D02*
G01X418147D01*
G02X418147Y1844878I0J-1000D01*
G01X387385D01*
G02X387385Y1846878I0J1000D01*
G37*
G36*
X449884D02*
G01X534310D01*
G02X534310Y1844878I0J-1000D01*
G01X449884D01*
G02X449884Y1846878I0J1000D01*
G37*
G36*
X387493Y1256307D02*
G01X418148D01*
G02X418148Y1254307I0J-1000D01*
G01X387493D01*
G02X387493Y1256307I0J1000D01*
G37*
G36*
X449884D02*
G01X534334D01*
G02X534334Y1254307I0J-1000D01*
G01X449884D01*
G02X449884Y1256307I0J1000D01*
G37*
G36*
X387459Y3027960D02*
G01X418148D01*
G02X418148Y3025960I0J-1000D01*
G01X387459D01*
G02X387459Y3027960I0J1000D01*
G37*
G36*
X449884D02*
G01X534334D01*
G02X534334Y3025960I0J-1000D01*
G01X449884D01*
G02X449884Y3027960I0J1000D01*
G37*
G36*
X387459Y3618469D02*
G01X418148D01*
G02X418148Y3616469I0J-1000D01*
G01X387459D01*
G02X387459Y3618469I0J1000D01*
G37*
G36*
X449884D02*
G01X534372D01*
G02X534372Y3616469I0J-1000D01*
G01X449884D01*
G02X449884Y3618469I0J1000D01*
G37*
G36*
X387451Y4209041D02*
G01X418148D01*
G02X418148Y4207041I0J-1000D01*
G01X387451D01*
G02X387451Y4209041I0J1000D01*
G37*
G36*
X449884D02*
G01X534351D01*
G02X534351Y4207041I0J-1000D01*
G01X449884D01*
G02X449884Y4209041I0J1000D01*
G37*
G36*
X387460Y1211021D02*
G01X418667D01*
G02X418667Y1209021I0J-1000D01*
G01X387460D01*
G02X387460Y1211021I0J1000D01*
G37*
G36*
X450404D02*
G01X556909D01*
G02X556909Y1209021I0J-1000D01*
G01X450404D01*
G02X450404Y1211021I0J1000D01*
G37*
G36*
X387484Y4754327D02*
G01X418667D01*
G02X418667Y4752327I0J-1000D01*
G01X387484D01*
G02X387484Y4754327I0J1000D01*
G37*
G36*
X450404D02*
G01X556907D01*
G02X556907Y4752327I0J-1000D01*
G01X450404D01*
G02X450404Y4754327I0J1000D01*
G37*
G36*
X387485Y620512D02*
G01X418871D01*
G02X418871Y618512I0J-1000D01*
G01X387485D01*
G02X387485Y620512I0J1000D01*
G37*
G36*
X450609D02*
G01X655555D01*
G02X655555Y618512I0J-1000D01*
G01X450609D01*
G02X450609Y620512I0J1000D01*
G37*
G36*
X387451Y2392164D02*
G01X418871D01*
G02X418871Y2390164I0J-1000D01*
G01X387451D01*
G02X387451Y2392164I0J1000D01*
G37*
G36*
X450609D02*
G01X556883D01*
G02X556883Y2390164I0J-1000D01*
G01X450609D01*
G02X450609Y2392164I0J1000D01*
G37*
G36*
X387493Y2982674D02*
G01X418871D01*
G02X418871Y2980674I0J-1000D01*
G01X387493D01*
G02X387493Y2982674I0J1000D01*
G37*
G36*
X450609D02*
G01X556880D01*
G02X556880Y2980674I0J-1000D01*
G01X450609D01*
G02X450609Y2982674I0J1000D01*
G37*
G36*
X387493Y3573183D02*
G01X418871D01*
G02X418871Y3571183I0J-1000D01*
G01X387493D01*
G02X387493Y3573183I0J1000D01*
G37*
G36*
X450609D02*
G01X556914D01*
G02X556914Y3571183I0J-1000D01*
G01X450609D01*
G02X450609Y3573183I0J1000D01*
G37*
G36*
X387451Y4163755D02*
G01X418871D01*
G02X418871Y4161755I0J-1000D01*
G01X387451D01*
G02X387451Y4163755I0J1000D01*
G37*
G36*
X450609D02*
G01X556911D01*
G02X556911Y4161755I0J-1000D01*
G01X450609D01*
G02X450609Y4163755I0J1000D01*
G37*
G36*
X406534Y3091594D02*
G01X449087D01*
G02X449087Y3089594I0J-1000D01*
G01X406534D01*
G02X406534Y3091594I0J1000D01*
G37*
G36*
X519376D02*
G01X542040D01*
G02X542040Y3089594I0J-1000D01*
G01X519376D01*
G02X519376Y3091594I0J1000D01*
G37*
G36*
X406505Y3682104D02*
G01X449087D01*
G02X449087Y3680104I0J-1000D01*
G01X406505D01*
G02X406505Y3682104I0J1000D01*
G37*
G36*
X519376D02*
G01X542020D01*
G02X542020Y3680104I0J-1000D01*
G01X519376D01*
G02X519376Y3682104I0J1000D01*
G37*
G36*
X406496Y729308D02*
G01X449088D01*
G02X449088Y727308I0J-1000D01*
G01X406496D01*
G02X406496Y729308I0J1000D01*
G37*
G36*
X519379D02*
G01X574029D01*
G02X574029Y727308I0J-1000D01*
G01X519379D01*
G02X519379Y729308I0J1000D01*
G37*
G36*
X406477Y1910420D02*
G01X449110D01*
G02X449110Y1908420I0J-1000D01*
G01X406477D01*
G02X406477Y1910420I0J1000D01*
G37*
G36*
X519353D02*
G01X541970D01*
G02X541970Y1908420I0J-1000D01*
G01X519353D01*
G02X519353Y1910420I0J1000D01*
G37*
G36*
X406562Y2500992D02*
G01X449110D01*
G02X449110Y2498992I0J-1000D01*
G01X406562D01*
G02X406562Y2500992I0J1000D01*
G37*
G36*
X519353D02*
G01X541976D01*
G02X541976Y2498992I0J-1000D01*
G01X519353D01*
G02X519353Y2500992I0J1000D01*
G37*
G36*
X406553Y1319911D02*
G01X449110D01*
G02X449110Y1317911I0J-1000D01*
G01X406553D01*
G02X406553Y1319911I0J1000D01*
G37*
G36*
X519353D02*
G01X541983D01*
G02X541983Y1317911I0J-1000D01*
G01X519353D01*
G02X519353Y1319911I0J1000D01*
G37*
G36*
X406553Y4272707D02*
G01X449110D01*
G02X449110Y4270707I0J-1000D01*
G01X406553D01*
G02X406553Y4272707I0J1000D01*
G37*
G36*
X519353D02*
G01X541997D01*
G02X541997Y4270707I0J-1000D01*
G01X519353D01*
G02X519353Y4272707I0J1000D01*
G37*
G36*
X406477Y4863216D02*
G01X449110D01*
G02X449110Y4861216I0J-1000D01*
G01X406477D01*
G02X406477Y4863216I0J1000D01*
G37*
G36*
X519353D02*
G01X542023D01*
G02X542023Y4861216I0J-1000D01*
G01X519353D01*
G02X519353Y4863216I0J1000D01*
G37*
G36*
X11011Y308866D02*
G01X451281D01*
G02X451281Y306866I0J-1000D01*
G01X11011D01*
G02X11011Y308866I0J1000D01*
G37*
G36*
X486987D02*
G01X737528D01*
G02X737528Y306866I0J-1000D01*
G01X486987D01*
G02X486987Y308866I0J1000D01*
G37*
G36*
X189329Y210458D02*
G01X452265D01*
G02X452265Y208458I0J-1000D01*
G01X189329D01*
G02X189329Y210458I0J1000D01*
G37*
G36*
X487971D02*
G01X737522D01*
G02X737522Y208458I0J-1000D01*
G01X487971D01*
G02X487971Y210458I0J1000D01*
G37*
G36*
X345107Y4989181D02*
G01X499335D01*
G02X499335Y4987181I0J-1000D01*
G01X345107D01*
G02X345107Y4989181I0J1000D01*
G37*
G36*
X534996D02*
G01X3059788D01*
G02X3059788Y4987181I0J-1000D01*
G01X534996D01*
G02X534996Y4989181I0J1000D01*
G37*
G36*
X243357Y5361009D02*
G01X512580D01*
G02X512580Y5359009I0J-1000D01*
G01X243357D01*
G02X243357Y5361009I0J1000D01*
G37*
G36*
X548286D02*
G01X792580D01*
G02X792580Y5359009I0J-1000D01*
G01X548286D01*
G02X548286Y5361009I0J1000D01*
G37*
G36*
G01X792580D01*
G02X792580Y5359009I0J-1000D01*
G01X548286D01*
G02X548286Y5361009I0J1000D01*
G37*
G36*
X230170Y5020310D02*
G01X298825D01*
G02X298825Y5018310I0J-1000D01*
G01X230170D01*
G02X230170Y5020310I0J1000D01*
G37*
G36*
X313041D02*
G01X588482D01*
G02X588482Y5018310I0J-1000D01*
G01X313041D01*
G02X313041Y5020310I0J1000D01*
G37*
G36*
X624179D02*
G01X651464D01*
G02X651464Y5018310I0J-1000D01*
G01X624179D01*
G02X624179Y5020310I0J1000D01*
G37*
G36*
X240907Y168097D02*
G01X640688D01*
G02X640688Y166097I0J-1000D01*
G01X240907D01*
G02X240907Y168097I0J1000D01*
G37*
G36*
X697178D02*
G01X737520D01*
G02X737520Y166097I0J-1000D01*
G01X697178D01*
G02X697178Y168097I0J1000D01*
G37*
G36*
X11006Y400400D02*
G01X640712D01*
G02X640712Y398400I0J-1000D01*
G01X11006D01*
G02X11006Y400400I0J1000D01*
G37*
G36*
X697154D02*
G01X737533D01*
G02X737533Y398400I0J-1000D01*
G01X697154D01*
G02X697154Y400400I0J1000D01*
G37*
G36*
X624176Y5020656D02*
G01X651461D01*
G02X651461Y5018656I0J-1000D01*
G01X624176D01*
G02X624176Y5020656I0J1000D01*
G37*
G36*
X687122D02*
G01X714453D01*
G02X714453Y5018656I0J-1000D01*
G01X687122D01*
G02X687122Y5020656I0J1000D01*
G37*
G36*
G01X714453D01*
G02X714453Y5018656I0J-1000D01*
G01X687122D01*
G02X687122Y5020656I0J1000D01*
G37*
G36*
X433541Y5287644D02*
G01X666206D01*
G02X666206Y5285644I0J-1000D01*
G01X433541D01*
G02X433541Y5287644I0J1000D01*
G37*
G36*
X723036Y5301709D02*
G01X2782319D01*
G02X2782319Y5299709I0J-1000D01*
G01X723036D01*
G02X723036Y5301709I0J1000D01*
G37*
G36*
X750114Y5020656D02*
G01X777445D01*
G02X777445Y5018656I0J-1000D01*
G01X750114D01*
G02X750114Y5020656I0J1000D01*
G37*
G36*
G01X777445D01*
G02X777445Y5018656I0J-1000D01*
G01X750114D01*
G02X750114Y5020656I0J1000D01*
G37*
G36*
X813106D02*
G01X840437D01*
G02X840437Y5018656I0J-1000D01*
G01X813106D01*
G02X813106Y5020656I0J1000D01*
G37*
G36*
G01X840437D01*
G02X840437Y5018656I0J-1000D01*
G01X813106D01*
G02X813106Y5020656I0J1000D01*
G37*
G36*
X828286Y5361009D02*
G01X1335660D01*
G02X1335660Y5359009I0J-1000D01*
G01X828286D01*
G02X828286Y5361009I0J1000D01*
G37*
G36*
X876098Y5020656D02*
G01X903429D01*
G02X903429Y5018656I0J-1000D01*
G01X876098D01*
G02X876098Y5020656I0J1000D01*
G37*
G36*
G01X903429D01*
G02X903429Y5018656I0J-1000D01*
G01X876098D01*
G02X876098Y5020656I0J1000D01*
G37*
G36*
X939090D02*
G01X966422D01*
G02X966422Y5018656I0J-1000D01*
G01X939090D01*
G02X939090Y5020656I0J1000D01*
G37*
G36*
G01X966422D01*
G02X966422Y5018656I0J-1000D01*
G01X939090D01*
G02X939090Y5020656I0J1000D01*
G37*
G36*
X1002082D02*
G01X1029414D01*
G02X1029414Y5018656I0J-1000D01*
G01X1002082D01*
G02X1002082Y5020656I0J1000D01*
G37*
G36*
G01X1029414D01*
G02X1029414Y5018656I0J-1000D01*
G01X1002082D01*
G02X1002082Y5020656I0J1000D01*
G37*
G36*
X661611Y5260991D02*
G01X1002586D01*
G02X1002586Y5258991I0J-1000D01*
G01X661611D01*
G02X661611Y5260991I0J1000D01*
G37*
G36*
X1038280D02*
G01X1112614D01*
G02X1112614Y5258991I0J-1000D01*
G01X1038280D01*
G02X1038280Y5260991I0J1000D01*
G37*
G36*
X766231Y5098972D02*
G01X1004580D01*
G02X1004580Y5096972I0J-1000D01*
G01X766231D01*
G02X766231Y5098972I0J1000D01*
G37*
G36*
X1036286D02*
G01X1114580D01*
G02X1114580Y5096972I0J-1000D01*
G01X1036286D01*
G02X1036286Y5098972I0J1000D01*
G37*
G36*
G01X1114580D01*
G02X1114580Y5096972I0J-1000D01*
G01X1036286D01*
G02X1036286Y5098972I0J1000D01*
G37*
G36*
X1065075Y5020656D02*
G01X1092406D01*
G02X1092406Y5018656I0J-1000D01*
G01X1065075D01*
G02X1065075Y5020656I0J1000D01*
G37*
G36*
G01X1092406D01*
G02X1092406Y5018656I0J-1000D01*
G01X1065075D01*
G02X1065075Y5020656I0J1000D01*
G37*
G36*
X1128067D02*
G01X1155398D01*
G02X1155398Y5018656I0J-1000D01*
G01X1128067D01*
G02X1128067Y5020656I0J1000D01*
G37*
G36*
G01X1155398D01*
G02X1155398Y5018656I0J-1000D01*
G01X1128067D01*
G02X1128067Y5020656I0J1000D01*
G37*
G36*
X1038268Y5261637D02*
G01X1112603D01*
G02X1112603Y5259637I0J-1000D01*
G01X1038268D01*
G02X1038268Y5261637I0J1000D01*
G37*
G36*
X1148263D02*
G01X1222603D01*
G02X1222603Y5259637I0J-1000D01*
G01X1148263D01*
G02X1148263Y5261637I0J1000D01*
G37*
G36*
G01X1222603D01*
G02X1222603Y5259637I0J-1000D01*
G01X1148263D01*
G02X1148263Y5261637I0J1000D01*
G37*
G36*
X1146286Y5098972D02*
G01X1224580D01*
G02X1224580Y5096972I0J-1000D01*
G01X1146286D01*
G02X1146286Y5098972I0J1000D01*
G37*
G36*
G01X1224580D01*
G02X1224580Y5096972I0J-1000D01*
G01X1146286D01*
G02X1146286Y5098972I0J1000D01*
G37*
G36*
X1191059Y5020656D02*
G01X1218390D01*
G02X1218390Y5018656I0J-1000D01*
G01X1191059D01*
G02X1191059Y5020656I0J1000D01*
G37*
G36*
G01X1218390D01*
G02X1218390Y5018656I0J-1000D01*
G01X1191059D01*
G02X1191059Y5020656I0J1000D01*
G37*
G36*
X1254051D02*
G01X1281382D01*
G02X1281382Y5018656I0J-1000D01*
G01X1254051D01*
G02X1254051Y5020656I0J1000D01*
G37*
G36*
G01X1281382D01*
G02X1281382Y5018656I0J-1000D01*
G01X1254051D01*
G02X1254051Y5020656I0J1000D01*
G37*
G36*
X1258263Y5261637D02*
G01X1332614D01*
G02X1332614Y5259637I0J-1000D01*
G01X1258263D01*
G02X1258263Y5261637I0J1000D01*
G37*
G36*
X1256286Y5098972D02*
G01X3059789D01*
G02X3059789Y5096972I0J-1000D01*
G01X1256286D01*
G02X1256286Y5098972I0J1000D01*
G37*
G36*
X1317043Y5020656D02*
G01X1344374D01*
G02X1344374Y5018656I0J-1000D01*
G01X1317043D01*
G02X1317043Y5020656I0J1000D01*
G37*
G36*
G01X1344374D01*
G02X1344374Y5018656I0J-1000D01*
G01X1317043D01*
G02X1317043Y5020656I0J1000D01*
G37*
G36*
X825233Y5370993D02*
G01X1332603D01*
G02X1332603Y5368993I0J-1000D01*
G01X825233D01*
G02X825233Y5370993I0J1000D01*
G37*
G36*
X1368263D02*
G01X1412603D01*
G02X1412603Y5368993I0J-1000D01*
G01X1368263D01*
G02X1368263Y5370993I0J1000D01*
G37*
G36*
G01X1412603D01*
G02X1412603Y5368993I0J-1000D01*
G01X1368263D01*
G02X1368263Y5370993I0J1000D01*
G37*
G36*
X1258252Y5262259D02*
G01X1332603D01*
G02X1332603Y5260259I0J-1000D01*
G01X1258252D01*
G02X1258252Y5262259I0J1000D01*
G37*
G36*
X1368263D02*
G01X2833109D01*
G02X2833109Y5260259I0J-1000D01*
G01X1368263D01*
G02X1368263Y5262259I0J1000D01*
G37*
G36*
X1380035Y5020656D02*
G01X1407366D01*
G02X1407366Y5018656I0J-1000D01*
G01X1380035D01*
G02X1380035Y5020656I0J1000D01*
G37*
G36*
G01X1407366D01*
G02X1407366Y5018656I0J-1000D01*
G01X1380035D01*
G02X1380035Y5020656I0J1000D01*
G37*
G36*
X1443027D02*
G01X1470359D01*
G02X1470359Y5018656I0J-1000D01*
G01X1443027D01*
G02X1443027Y5020656I0J1000D01*
G37*
G36*
G01X1470359D01*
G02X1470359Y5018656I0J-1000D01*
G01X1443027D01*
G02X1443027Y5020656I0J1000D01*
G37*
G36*
X1448263Y5370993D02*
G01X2834002D01*
G02X2834002Y5368993I0J-1000D01*
G01X1448263D01*
G02X1448263Y5370993I0J1000D01*
G37*
G36*
X1506019Y5020656D02*
G01X1659335D01*
G02X1659335Y5018656I0J-1000D01*
G01X1506019D01*
G02X1506019Y5020656I0J1000D01*
G37*
G36*
G01X1659335D01*
G02X1659335Y5018656I0J-1000D01*
G01X1506019D01*
G02X1506019Y5020656I0J1000D01*
G37*
G36*
X1582778Y121008D02*
G01X1588098D01*
G02X1588098Y119008I0J-1000D01*
G01X1582778D01*
G02X1582778Y121008I0J1000D01*
G37*
G36*
X1632768D02*
G01X1638112D01*
G02X1638112Y119008I0J-1000D01*
G01X1632768D01*
G02X1632768Y121008I0J1000D01*
G37*
G36*
X1582760Y171020D02*
G01X1588098D01*
G02X1588098Y169020I0J-1000D01*
G01X1582760D01*
G02X1582760Y171020I0J1000D01*
G37*
G36*
X1632768D02*
G01X1638085D01*
G02X1638085Y169020I0J-1000D01*
G01X1632768D01*
G02X1632768Y171020I0J1000D01*
G37*
G36*
X1582755Y381024D02*
G01X1588098D01*
G02X1588098Y379024I0J-1000D01*
G01X1582755D01*
G02X1582755Y381024I0J1000D01*
G37*
G36*
X1632768D02*
G01X1638108D01*
G02X1638108Y379024I0J-1000D01*
G01X1632768D01*
G02X1632768Y381024I0J1000D01*
G37*
G36*
X1582764Y430974D02*
G01X1588098D01*
G02X1588098Y428974I0J-1000D01*
G01X1582764D01*
G02X1582764Y430974I0J1000D01*
G37*
G36*
X1632768D02*
G01X1638152D01*
G02X1638152Y428974I0J-1000D01*
G01X1632768D01*
G02X1632768Y430974I0J1000D01*
G37*
G36*
X1578286Y516008D02*
G01X1592580D01*
G02X1592580Y514008I0J-1000D01*
G01X1578286D01*
G02X1578286Y516008I0J1000D01*
G37*
G36*
X1628286D02*
G01X1642550D01*
G02X1642550Y514008I0J-1000D01*
G01X1628286D01*
G02X1628286Y516008I0J1000D01*
G37*
G36*
X1573809Y283704D02*
G01X1592603D01*
G02X1592603Y281704I0J-1000D01*
G01X1573809D01*
G02X1573809Y283704I0J1000D01*
G37*
G36*
X1628263D02*
G01X1646717D01*
G02X1646717Y281704I0J-1000D01*
G01X1628263D01*
G02X1628263Y283704I0J1000D01*
G37*
G36*
X1537611Y1934027D02*
G01X1659312D01*
G02X1659312Y1932027I0J-1000D01*
G01X1537611D01*
G02X1537611Y1934027I0J1000D01*
G37*
G36*
X1695019D02*
G01X1722304D01*
G02X1722304Y1932027I0J-1000D01*
G01X1695019D01*
G02X1695019Y1934027I0J1000D01*
G37*
G36*
G01X1722304D01*
G02X1722304Y1932027I0J-1000D01*
G01X1695019D01*
G02X1695019Y1934027I0J1000D01*
G37*
G36*
X1537612Y2067891D02*
G01X1659312D01*
G02X1659312Y2065891I0J-1000D01*
G01X1537612D01*
G02X1537612Y2067891I0J1000D01*
G37*
G36*
X1695019D02*
G01X1722304D01*
G02X1722304Y2065891I0J-1000D01*
G01X1695019D01*
G02X1695019Y2067891I0J1000D01*
G37*
G36*
G01X1722304D01*
G02X1722304Y2065891I0J-1000D01*
G01X1695019D01*
G02X1695019Y2067891I0J1000D01*
G37*
G36*
X1537612Y3839544D02*
G01X1659312D01*
G02X1659312Y3837544I0J-1000D01*
G01X1537612D01*
G02X1537612Y3839544I0J1000D01*
G37*
G36*
X1695019D02*
G01X1722304D01*
G02X1722304Y3837544I0J-1000D01*
G01X1695019D01*
G02X1695019Y3839544I0J1000D01*
G37*
G36*
G01X1722304D01*
G02X1722304Y3837544I0J-1000D01*
G01X1695019D01*
G02X1695019Y3839544I0J1000D01*
G37*
G36*
X1537611Y3705679D02*
G01X1659312D01*
G02X1659312Y3703679I0J-1000D01*
G01X1537611D01*
G02X1537611Y3705679I0J1000D01*
G37*
G36*
X1695019D02*
G01X1722304D01*
G02X1722304Y3703679I0J-1000D01*
G01X1695019D01*
G02X1695019Y3705679I0J1000D01*
G37*
G36*
G01X1722304D01*
G02X1722304Y3703679I0J-1000D01*
G01X1695019D01*
G02X1695019Y3705679I0J1000D01*
G37*
G36*
X1537613Y4296248D02*
G01X1659316D01*
G02X1659316Y4294248I0J-1000D01*
G01X1537613D01*
G02X1537613Y4296248I0J1000D01*
G37*
G36*
X1695015D02*
G01X1722308D01*
G02X1722308Y4294248I0J-1000D01*
G01X1695015D01*
G02X1695015Y4296248I0J1000D01*
G37*
G36*
G01X1722308D01*
G02X1722308Y4294248I0J-1000D01*
G01X1695015D01*
G02X1695015Y4296248I0J1000D01*
G37*
G36*
X1537613Y2524592D02*
G01X1659318D01*
G02X1659318Y2522592I0J-1000D01*
G01X1537613D01*
G02X1537613Y2524592I0J1000D01*
G37*
G36*
X1695013D02*
G01X1722310D01*
G02X1722310Y2522592I0J-1000D01*
G01X1695013D01*
G02X1695013Y2524592I0J1000D01*
G37*
G36*
G01X1722310D01*
G02X1722310Y2522592I0J-1000D01*
G01X1695013D01*
G02X1695013Y2524592I0J1000D01*
G37*
G36*
X1537531Y886779D02*
G01X1659335D01*
G02X1659335Y884779I0J-1000D01*
G01X1537531D01*
G02X1537531Y886779I0J1000D01*
G37*
G36*
X1694996D02*
G01X1722327D01*
G02X1722327Y884779I0J-1000D01*
G01X1694996D01*
G02X1694996Y886779I0J1000D01*
G37*
G36*
G01X1722327D01*
G02X1722327Y884779I0J-1000D01*
G01X1694996D01*
G02X1694996Y886779I0J1000D01*
G37*
G36*
X1537611Y1343486D02*
G01X1659335D01*
G02X1659335Y1341486I0J-1000D01*
G01X1537611D01*
G02X1537611Y1343486I0J1000D01*
G37*
G36*
X1694996D02*
G01X1722327D01*
G02X1722327Y1341486I0J-1000D01*
G01X1694996D01*
G02X1694996Y1343486I0J1000D01*
G37*
G36*
G01X1722327D01*
G02X1722327Y1341486I0J-1000D01*
G01X1694996D01*
G02X1694996Y1343486I0J1000D01*
G37*
G36*
X1537607Y1477351D02*
G01X1659335D01*
G02X1659335Y1475351I0J-1000D01*
G01X1537607D01*
G02X1537607Y1477351I0J1000D01*
G37*
G36*
X1694996D02*
G01X1722327D01*
G02X1722327Y1475351I0J-1000D01*
G01X1694996D01*
G02X1694996Y1477351I0J1000D01*
G37*
G36*
G01X1722327D01*
G02X1722327Y1475351I0J-1000D01*
G01X1694996D01*
G02X1694996Y1477351I0J1000D01*
G37*
G36*
X1537613Y2658432D02*
G01X1659335D01*
G02X1659335Y2656432I0J-1000D01*
G01X1537613D01*
G02X1537613Y2658432I0J1000D01*
G37*
G36*
X1694996D02*
G01X1722327D01*
G02X1722327Y2656432I0J-1000D01*
G01X1694996D01*
G02X1694996Y2658432I0J1000D01*
G37*
G36*
G01X1722327D01*
G02X1722327Y2656432I0J-1000D01*
G01X1694996D01*
G02X1694996Y2658432I0J1000D01*
G37*
G36*
X1537612Y3115139D02*
G01X1659335D01*
G02X1659335Y3113139I0J-1000D01*
G01X1537612D01*
G02X1537612Y3115139I0J1000D01*
G37*
G36*
X1694996D02*
G01X1722327D01*
G02X1722327Y3113139I0J-1000D01*
G01X1694996D01*
G02X1694996Y3115139I0J1000D01*
G37*
G36*
G01X1722327D01*
G02X1722327Y3113139I0J-1000D01*
G01X1694996D01*
G02X1694996Y3115139I0J1000D01*
G37*
G36*
X1537611Y3249003D02*
G01X1659335D01*
G02X1659335Y3247003I0J-1000D01*
G01X1537611D01*
G02X1537611Y3249003I0J1000D01*
G37*
G36*
X1694996D02*
G01X1722327D01*
G02X1722327Y3247003I0J-1000D01*
G01X1694996D01*
G02X1694996Y3249003I0J1000D01*
G37*
G36*
G01X1722327D01*
G02X1722327Y3247003I0J-1000D01*
G01X1694996D01*
G02X1694996Y3249003I0J1000D01*
G37*
G36*
X1537613Y4430085D02*
G01X1659335D01*
G02X1659335Y4428085I0J-1000D01*
G01X1537613D01*
G02X1537613Y4430085I0J1000D01*
G37*
G36*
X1694996D02*
G01X1722327D01*
G02X1722327Y4428085I0J-1000D01*
G01X1694996D01*
G02X1694996Y4430085I0J1000D01*
G37*
G36*
G01X1722327D01*
G02X1722327Y4428085I0J-1000D01*
G01X1694996D01*
G02X1694996Y4430085I0J1000D01*
G37*
G36*
X1537598Y4886792D02*
G01X1659335D01*
G02X1659335Y4884792I0J-1000D01*
G01X1537598D01*
G02X1537598Y4886792I0J1000D01*
G37*
G36*
X1694996D02*
G01X1722327D01*
G02X1722327Y4884792I0J-1000D01*
G01X1694996D01*
G02X1694996Y4886792I0J1000D01*
G37*
G36*
G01X1722327D01*
G02X1722327Y4884792I0J-1000D01*
G01X1694996D01*
G02X1694996Y4886792I0J1000D01*
G37*
G36*
Y5020656D02*
G01X1722327D01*
G02X1722327Y5018656I0J-1000D01*
G01X1694996D01*
G02X1694996Y5020656I0J1000D01*
G37*
G36*
G01X1722327D01*
G02X1722327Y5018656I0J-1000D01*
G01X1694996D01*
G02X1694996Y5020656I0J1000D01*
G37*
G36*
X1532770Y752914D02*
G01X1659336D01*
G02X1659336Y750914I0J-1000D01*
G01X1532770D01*
G02X1532770Y752914I0J1000D01*
G37*
G36*
X1694996D02*
G01X1722327D01*
G02X1722327Y750914I0J-1000D01*
G01X1694996D01*
G02X1694996Y752914I0J1000D01*
G37*
G36*
G01X1722327D01*
G02X1722327Y750914I0J-1000D01*
G01X1694996D01*
G02X1694996Y752914I0J1000D01*
G37*
G36*
X1758011Y1934027D02*
G01X1785282D01*
G02X1785282Y1932027I0J-1000D01*
G01X1758011D01*
G02X1758011Y1934027I0J1000D01*
G37*
G36*
Y2067891D02*
G01X1785231D01*
G02X1785231Y2065891I0J-1000D01*
G01X1758011D01*
G02X1758011Y2067891I0J1000D01*
G37*
G36*
Y3839544D02*
G01X1785229D01*
G02X1785229Y3837544I0J-1000D01*
G01X1758011D01*
G02X1758011Y3839544I0J1000D01*
G37*
G36*
Y3705679D02*
G01X1785277D01*
G02X1785277Y3703679I0J-1000D01*
G01X1758011D01*
G02X1758011Y3705679I0J1000D01*
G37*
G36*
X1758007Y4296248D02*
G01X1785255D01*
G02X1785255Y4294248I0J-1000D01*
G01X1758007D01*
G02X1758007Y4296248I0J1000D01*
G37*
G36*
X1758005Y2524592D02*
G01X1785255D01*
G02X1785255Y2522592I0J-1000D01*
G01X1758005D01*
G02X1758005Y2524592I0J1000D01*
G37*
G36*
X1757988Y752914D02*
G01X1785195D01*
G02X1785195Y750914I0J-1000D01*
G01X1757988D01*
G02X1757988Y752914I0J1000D01*
G37*
G36*
Y886779D02*
G01X1785258D01*
G02X1785258Y884779I0J-1000D01*
G01X1757988D01*
G02X1757988Y886779I0J1000D01*
G37*
G36*
Y1343486D02*
G01X1785249D01*
G02X1785249Y1341486I0J-1000D01*
G01X1757988D01*
G02X1757988Y1343486I0J1000D01*
G37*
G36*
Y1477351D02*
G01X1785150D01*
G02X1785150Y1475351I0J-1000D01*
G01X1757988D01*
G02X1757988Y1477351I0J1000D01*
G37*
G36*
Y2658432D02*
G01X1785294D01*
G02X1785294Y2656432I0J-1000D01*
G01X1757988D01*
G02X1757988Y2658432I0J1000D01*
G37*
G36*
Y3115139D02*
G01X1785186D01*
G02X1785186Y3113139I0J-1000D01*
G01X1757988D01*
G02X1757988Y3115139I0J1000D01*
G37*
G36*
Y3249003D02*
G01X1785147D01*
G02X1785147Y3247003I0J-1000D01*
G01X1757988D01*
G02X1757988Y3249003I0J1000D01*
G37*
G36*
Y4430085D02*
G01X1785294D01*
G02X1785294Y4428085I0J-1000D01*
G01X1757988D01*
G02X1757988Y4430085I0J1000D01*
G37*
G36*
Y4886792D02*
G01X1785249D01*
G02X1785249Y4884792I0J-1000D01*
G01X1757988D01*
G02X1757988Y4886792I0J1000D01*
G37*
G36*
Y5020656D02*
G01X1785319D01*
G02X1785319Y5018656I0J-1000D01*
G01X1757988D01*
G02X1757988Y5020656I0J1000D01*
G37*
G36*
G01X1785319D01*
G02X1785319Y5018656I0J-1000D01*
G01X1757988D01*
G02X1757988Y5020656I0J1000D01*
G37*
G36*
X1820980D02*
G01X1848311D01*
G02X1848311Y5018656I0J-1000D01*
G01X1820980D01*
G02X1820980Y5020656I0J1000D01*
G37*
G36*
G01X1848311D01*
G02X1848311Y5018656I0J-1000D01*
G01X1820980D01*
G02X1820980Y5020656I0J1000D01*
G37*
G36*
X1883972D02*
G01X1911303D01*
G02X1911303Y5018656I0J-1000D01*
G01X1883972D01*
G02X1883972Y5020656I0J1000D01*
G37*
G36*
G01X1911303D01*
G02X1911303Y5018656I0J-1000D01*
G01X1883972D01*
G02X1883972Y5020656I0J1000D01*
G37*
G36*
X1946964D02*
G01X1974296D01*
G02X1974296Y5018656I0J-1000D01*
G01X1946964D01*
G02X1946964Y5020656I0J1000D01*
G37*
G36*
G01X1974296D01*
G02X1974296Y5018656I0J-1000D01*
G01X1946964D01*
G02X1946964Y5020656I0J1000D01*
G37*
G36*
X2009956D02*
G01X2037288D01*
G02X2037288Y5018656I0J-1000D01*
G01X2009956D01*
G02X2009956Y5020656I0J1000D01*
G37*
G36*
G01X2037288D01*
G02X2037288Y5018656I0J-1000D01*
G01X2009956D01*
G02X2009956Y5020656I0J1000D01*
G37*
G36*
X2072949D02*
G01X2100280D01*
G02X2100280Y5018656I0J-1000D01*
G01X2072949D01*
G02X2072949Y5020656I0J1000D01*
G37*
G36*
G01X2100280D01*
G02X2100280Y5018656I0J-1000D01*
G01X2072949D01*
G02X2072949Y5020656I0J1000D01*
G37*
G36*
X2135941D02*
G01X2163272D01*
G02X2163272Y5018656I0J-1000D01*
G01X2135941D01*
G02X2135941Y5020656I0J1000D01*
G37*
G36*
G01X2163272D01*
G02X2163272Y5018656I0J-1000D01*
G01X2135941D01*
G02X2135941Y5020656I0J1000D01*
G37*
G36*
X2198933D02*
G01X2226264D01*
G02X2226264Y5018656I0J-1000D01*
G01X2198933D01*
G02X2198933Y5020656I0J1000D01*
G37*
G36*
G01X2226264D01*
G02X2226264Y5018656I0J-1000D01*
G01X2198933D01*
G02X2198933Y5020656I0J1000D01*
G37*
G36*
X2261925D02*
G01X2289256D01*
G02X2289256Y5018656I0J-1000D01*
G01X2261925D01*
G02X2261925Y5020656I0J1000D01*
G37*
G36*
G01X2289256D01*
G02X2289256Y5018656I0J-1000D01*
G01X2261925D01*
G02X2261925Y5020656I0J1000D01*
G37*
G36*
X2324917D02*
G01X2352248D01*
G02X2352248Y5018656I0J-1000D01*
G01X2324917D01*
G02X2324917Y5020656I0J1000D01*
G37*
G36*
G01X2352248D01*
G02X2352248Y5018656I0J-1000D01*
G01X2324917D01*
G02X2324917Y5020656I0J1000D01*
G37*
G36*
X2387909D02*
G01X2415240D01*
G02X2415240Y5018656I0J-1000D01*
G01X2387909D01*
G02X2387909Y5020656I0J1000D01*
G37*
G36*
G01X2415240D01*
G02X2415240Y5018656I0J-1000D01*
G01X2387909D01*
G02X2387909Y5020656I0J1000D01*
G37*
G36*
X2303353Y175001D02*
G01X2378888D01*
G02X2378888Y173001I0J-1000D01*
G01X2303353D01*
G02X2303353Y175001I0J1000D01*
G37*
G36*
X2435378D02*
G01X2834572D01*
G02X2834572Y173001I0J-1000D01*
G01X2435378D01*
G02X2435378Y175001I0J1000D01*
G37*
G36*
X2303350Y407305D02*
G01X2378912D01*
G02X2378912Y405305I0J-1000D01*
G01X2303350D01*
G02X2303350Y407305I0J1000D01*
G37*
G36*
X2435354D02*
G01X3059776D01*
G02X3059776Y405305I0J-1000D01*
G01X2435354D01*
G02X2435354Y407305I0J1000D01*
G37*
G36*
X2450901Y5020656D02*
G01X2478233D01*
G02X2478233Y5018656I0J-1000D01*
G01X2450901D01*
G02X2450901Y5020656I0J1000D01*
G37*
G36*
G01X2478233D01*
G02X2478233Y5018656I0J-1000D01*
G01X2450901D01*
G02X2450901Y5020656I0J1000D01*
G37*
G36*
X2513893D02*
G01X3059788D01*
G02X3059788Y5018656I0J-1000D01*
G01X2513893D01*
G02X2513893Y5020656I0J1000D01*
G37*
G36*
X2540473Y788402D02*
G01X2551488D01*
G02X2551488Y786402I0J-1000D01*
G01X2540473D01*
G02X2540473Y788402I0J1000D01*
G37*
G36*
X2621779D02*
G01X3059777D01*
G02X3059777Y786402I0J-1000D01*
G01X2621779D01*
G02X2621779Y788402I0J1000D01*
G37*
G36*
X2303351Y364975D02*
G01X2588091D01*
G02X2588091Y362975I0J-1000D01*
G01X2303351D01*
G02X2303351Y364975I0J1000D01*
G37*
G36*
X2623799D02*
G01X2745739D01*
G02X2745739Y362975I0J-1000D01*
G01X2623799D01*
G02X2623799Y364975I0J1000D01*
G37*
G36*
X2303352Y266561D02*
G01X2588098D01*
G02X2588098Y264561I0J-1000D01*
G01X2303352D01*
G02X2303352Y266561I0J1000D01*
G37*
G36*
X2623792D02*
G01X3059775D01*
G02X3059775Y264561I0J-1000D01*
G01X2623792D01*
G02X2623792Y266561I0J1000D01*
G37*
G36*
X2545363Y1201815D02*
G01X2601688D01*
G02X2601688Y1199815I0J-1000D01*
G01X2545363D01*
G02X2545363Y1201815I0J1000D01*
G37*
G36*
X2658178D02*
G01X2932408D01*
G02X2932408Y1199815I0J-1000D01*
G01X2658178D01*
G02X2658178Y1201815I0J1000D01*
G37*
G36*
X2545349Y4741201D02*
G01X2605588D01*
G02X2605588Y4739201I0J-1000D01*
G01X2545349D01*
G02X2545349Y4741201I0J1000D01*
G37*
G36*
X2662078D02*
G01X2936274D01*
G02X2936274Y4739201I0J-1000D01*
G01X2662078D01*
G02X2662078Y4741201I0J1000D01*
G37*
G36*
X2544933Y1836085D02*
G01X2671556D01*
G02X2671556Y1834085I0J-1000D01*
G01X2544933D01*
G02X2544933Y1836085I0J1000D01*
G37*
G36*
X3007581Y1835963D02*
G01X3059780D01*
G02X3059780Y1833963I0J-1000D01*
G01X3007581D01*
G02X3007581Y1835963I0J1000D01*
G37*
G36*
X2544933Y3607738D02*
G01X2671556D01*
G02X2671556Y3605738I0J-1000D01*
G01X2544933D01*
G02X2544933Y3607738I0J1000D01*
G37*
G36*
X3007581Y3607615D02*
G01X3059784D01*
G02X3059784Y3605615I0J-1000D01*
G01X3007581D01*
G02X3007581Y3607615I0J1000D01*
G37*
G36*
X2544277Y654942D02*
G01X2671556D01*
G02X2671556Y652942I0J-1000D01*
G01X2544277D01*
G02X2544277Y654942I0J1000D01*
G37*
G36*
X3007581Y654864D02*
G01X3059776D01*
G02X3059776Y652864I0J-1000D01*
G01X3007581D01*
G02X3007581Y654864I0J1000D01*
G37*
G36*
X2544939Y3017166D02*
G01X2671556D01*
G02X2671556Y3015166I0J-1000D01*
G01X2544939D01*
G02X2544939Y3017166I0J1000D01*
G37*
G36*
X3007580Y3017065D02*
G01X3059783D01*
G02X3059783Y3015065I0J-1000D01*
G01X3007580D01*
G02X3007580Y3017065I0J1000D01*
G37*
G36*
X2544910Y4198248D02*
G01X2671556D01*
G02X2671556Y4196248I0J-1000D01*
G01X2544910D01*
G02X2544910Y4198248I0J1000D01*
G37*
G36*
X3007582Y4198126D02*
G01X3059786D01*
G02X3059786Y4196126I0J-1000D01*
G01X3007582D01*
G02X3007582Y4198126I0J1000D01*
G37*
G36*
X3007577Y1346285D02*
G01X3059778D01*
G02X3059778Y1344285I0J-1000D01*
G01X3007577D01*
G02X3007577Y1346285I0J1000D01*
G37*
G36*
X2599073Y1346149D02*
G01X2671557D01*
G02X2671557Y1344149I0J-1000D01*
G01X2599073D01*
G02X2599073Y1346149I0J1000D01*
G37*
G36*
X3007578Y2527242D02*
G01X3059781D01*
G02X3059781Y2525242I0J-1000D01*
G01X3007578D01*
G02X3007578Y2527242I0J1000D01*
G37*
G36*
X2599109Y2527250D02*
G01X2671557D01*
G02X2671557Y2525250I0J-1000D01*
G01X2599109D01*
G02X2599109Y2527250I0J1000D01*
G37*
G36*
X3007576Y4889451D02*
G01X3059788D01*
G02X3059788Y4887451I0J-1000D01*
G01X3007576D01*
G02X3007576Y4889451I0J1000D01*
G37*
G36*
X2599256Y4889453D02*
G01X2671557D01*
G02X2671557Y4887453I0J-1000D01*
G01X2599256D01*
G02X2599256Y4889453I0J1000D01*
G37*
G36*
X2621863Y373060D02*
G01X2743803D01*
G02X2743803Y371060I0J-1000D01*
G01X2621863D01*
G02X2621863Y373060I0J1000D01*
G37*
G36*
X2779504D02*
G01X3059776D01*
G02X3059776Y371060I0J-1000D01*
G01X2779504D01*
G02X2779504Y373060I0J1000D01*
G37*
G36*
X2545383Y1000987D02*
G01X2747127D01*
G02X2747127Y998987I0J-1000D01*
G01X2545383D01*
G02X2545383Y1000987I0J1000D01*
G37*
G36*
X2794605D02*
G01X3059777D01*
G02X3059777Y998987I0J-1000D01*
G01X2794605D01*
G02X2794605Y1000987I0J1000D01*
G37*
G36*
X2545377Y4540374D02*
G01X2751064D01*
G02X2751064Y4538374I0J-1000D01*
G01X2545377D01*
G02X2545377Y4540374I0J1000D01*
G37*
G36*
X2798542D02*
G01X3059787D01*
G02X3059787Y4538374I0J-1000D01*
G01X2798542D01*
G02X2798542Y4540374I0J1000D01*
G37*
G36*
X715378Y5315898D02*
G01X2775304D01*
G02X2775304Y5313898I0J-1000D01*
G01X715378D01*
G02X715378Y5315898I0J1000D01*
G37*
G36*
X3009966Y5306549D02*
G01X3059789D01*
G02X3059789Y5304549I0J-1000D01*
G01X3009966D01*
G02X3009966Y5306549I0J1000D01*
G37*
G36*
X3009969Y109718D02*
G01X3059775D01*
G02X3059775Y107718I0J-1000D01*
G01X3009969D01*
G02X3009969Y109718I0J1000D01*
G37*
G36*
X2303354Y119136D02*
G01X2775309D01*
G02X2775309Y117136I0J-1000D01*
G01X2303354D01*
G02X2303354Y119136I0J1000D01*
G37*
G36*
X3009968Y2747509D02*
G01X3059782D01*
G02X3059782Y2745509I0J-1000D01*
G01X3009968D01*
G02X3009968Y2747509I0J1000D01*
G37*
G36*
X2545384Y2756936D02*
G01X2775305D01*
G02X2775305Y2754936I0J-1000D01*
G01X2545384D01*
G02X2545384Y2756936I0J1000D01*
G37*
G36*
X2545389Y939000D02*
G01X2851241D01*
G02X2851241Y937000I0J-1000D01*
G01X2545389D01*
G02X2545389Y939000I0J1000D01*
G37*
G36*
X2886948D02*
G01X3059777D01*
G02X3059777Y937000I0J-1000D01*
G01X2886948D01*
G02X2886948Y939000I0J1000D01*
G37*
G54D10*
X2527559Y822874D03*
Y1413425D03*
Y2003976D03*
Y2594528D03*
Y3185079D03*
Y3775630D03*
Y4366181D03*
Y4956732D03*
X2260433Y36261D03*
X810433Y35000D03*
X574803Y822874D03*
Y1413425D03*
Y2003976D03*
Y2594528D03*
Y3185079D03*
Y3775630D03*
Y4366181D03*
Y4956732D03*
X860433Y35000D03*
X637795Y822874D03*
Y1413425D03*
Y2003976D03*
Y2594528D03*
Y3185079D03*
Y3775630D03*
Y4366181D03*
Y4956732D03*
X2210433Y35000D03*
X2464567Y822874D03*
Y1413425D03*
Y2003976D03*
Y2594528D03*
Y3185079D03*
Y3775630D03*
Y4366181D03*
Y4956732D03*
X1510433Y35000D03*
X1456693Y822795D03*
Y1413346D03*
Y2003898D03*
Y2594449D03*
Y3185000D03*
Y3775551D03*
Y4366102D03*
Y4956654D03*
X1460433Y35000D03*
X1393701Y822874D03*
Y1413425D03*
Y2003976D03*
Y2594528D03*
Y3185079D03*
Y3775630D03*
Y4366181D03*
Y4956732D03*
X1410433Y35000D03*
X1330709Y822874D03*
Y1413425D03*
Y2003976D03*
Y2594528D03*
Y3185079D03*
Y3775630D03*
Y4366181D03*
Y4956732D03*
X1360433Y35000D03*
X1267717Y822874D03*
Y1413425D03*
Y2003976D03*
Y2594528D03*
Y3185079D03*
Y3775630D03*
Y4366181D03*
Y4956732D03*
X1310433Y35000D03*
X1204724Y822874D03*
Y1413425D03*
Y2003976D03*
Y2594528D03*
Y3185079D03*
Y3775630D03*
Y4366181D03*
Y4956732D03*
X1260433Y35000D03*
X1141732Y822874D03*
Y1413425D03*
Y2003976D03*
Y2594528D03*
Y3185079D03*
Y3775630D03*
Y4366181D03*
Y4956732D03*
X1210433Y35000D03*
X1078740Y822874D03*
Y1413425D03*
Y2003976D03*
Y2594528D03*
Y3185079D03*
Y3775630D03*
Y4366181D03*
Y4956732D03*
X1160433Y35000D03*
X1015748Y4956732D03*
Y822874D03*
Y1413425D03*
Y2003976D03*
Y2594528D03*
Y3185079D03*
Y3775630D03*
Y4366181D03*
X1110433Y35000D03*
X952756Y822874D03*
Y1413425D03*
Y2003976D03*
Y2594528D03*
Y3185079D03*
Y3775630D03*
Y4366181D03*
Y4956732D03*
X1060433Y35000D03*
X889764Y822874D03*
Y1413425D03*
Y2003976D03*
Y2594528D03*
Y3185079D03*
Y3775630D03*
Y4366181D03*
Y4956732D03*
X1010433Y35000D03*
X826772Y822874D03*
Y1413425D03*
Y2003976D03*
Y2594528D03*
Y3185079D03*
Y3775630D03*
Y4366181D03*
Y4956732D03*
X960433Y35000D03*
X763780Y822874D03*
Y1413425D03*
Y2003976D03*
Y2594528D03*
Y3185079D03*
Y3775630D03*
Y4366181D03*
Y4956732D03*
X910433Y35000D03*
X700787Y822874D03*
Y1413425D03*
Y2003976D03*
Y2594528D03*
Y3185079D03*
Y3775630D03*
Y4366181D03*
Y4956732D03*
X2160433Y35000D03*
X2401575Y822874D03*
Y1413425D03*
Y2003976D03*
Y2594528D03*
Y3185079D03*
Y3775630D03*
Y4366181D03*
Y4956732D03*
X2110433Y35000D03*
X2338583Y822874D03*
Y1413425D03*
Y2003976D03*
Y2594528D03*
Y3185079D03*
Y3775630D03*
Y4366181D03*
Y4956732D03*
X2010433Y35000D03*
X2212598Y822795D03*
Y1413346D03*
Y2003898D03*
Y2594449D03*
Y3185000D03*
Y3775551D03*
Y4366102D03*
Y4956654D03*
X1960433Y35000D03*
X2149606Y822874D03*
Y1413425D03*
Y2003976D03*
Y2594528D03*
Y3185079D03*
Y3775630D03*
Y4366181D03*
Y4956732D03*
X1910433Y35000D03*
X2086614Y822874D03*
Y1413425D03*
Y2003976D03*
Y2594528D03*
Y3185079D03*
Y3775630D03*
Y4366181D03*
Y4956732D03*
X1860433Y35000D03*
X2023622Y822874D03*
Y1413425D03*
Y2003976D03*
Y2594528D03*
Y3185079D03*
Y3775630D03*
Y4366181D03*
Y4956732D03*
X1810433Y35000D03*
X1960630Y822874D03*
Y1413425D03*
Y2003976D03*
Y2594528D03*
Y3185079D03*
Y3775630D03*
Y4366181D03*
Y4956732D03*
X1760433Y35381D03*
X1897638Y822874D03*
Y1413425D03*
Y2003976D03*
Y2594528D03*
Y3185079D03*
Y3775630D03*
Y4366181D03*
Y4956732D03*
X1710433Y35000D03*
X1834646Y822874D03*
Y1413425D03*
Y2003976D03*
Y2594528D03*
Y3185079D03*
Y3775630D03*
Y4366181D03*
Y4956732D03*
X1560433Y35000D03*
X1519685Y822795D03*
Y1413346D03*
Y2003898D03*
Y2594449D03*
Y3185000D03*
Y3775551D03*
Y4366102D03*
Y4956654D03*
G54D11*
X255733Y1800600D03*
X256033Y3617500D03*
Y1845900D03*
X256533Y3572200D03*
X434733Y1800600D03*
X440833Y5108900D03*
X463133Y5097300D03*
X496833Y5103000D03*
X649533Y5248100D03*
X657133Y5224100D03*
G54D10*
X2496063Y1271614D02*
G01X2527559Y1240118D01*
Y822874D01*
Y1325787D02*
Y1413346D01*
X2496063Y1271614D02*
Y1294252D01*
X2527559Y1325787D01*
X2496063Y1862165D02*
X2527559Y1830669D01*
Y1413425D01*
Y3011772D02*
Y2594528D01*
Y1916339D02*
Y2003898D01*
X2496063Y1884803D02*
X2527559Y1916339D01*
X2496063Y1862165D02*
Y1884803D01*
X2527559Y2421220D02*
Y2003976D01*
Y2506890D02*
Y2594449D01*
X2496063Y2452717D02*
Y2475354D01*
X2527559Y2506890D01*
X2496063Y2452717D02*
X2527559Y2421220D01*
X2496063Y3043268D02*
X2527559Y3011772D01*
X2496063Y3043268D02*
Y3065906D01*
X2527559Y3097441D02*
Y3185000D01*
X2496063Y3065906D02*
X2527559Y3097441D01*
X2496063Y4837559D02*
X2527559Y4869094D01*
X2496063Y4814921D02*
X2527559Y4783425D01*
X2496063Y4814921D02*
Y4837559D01*
X2527559Y4869094D02*
Y4956654D01*
Y4783425D02*
Y4366181D01*
Y4192874D02*
Y3775630D01*
X2496063Y4224370D02*
X2527559Y4192874D01*
X2496063Y4224370D02*
Y4247008D01*
X2527559Y4278543D02*
Y4366102D01*
X2496063Y4247008D02*
X2527559Y4278543D01*
Y3602323D02*
Y3185079D01*
X2496063Y3633819D02*
X2527559Y3602323D01*
X2496063Y3633819D02*
Y3656457D01*
X2527559Y3687992D02*
Y3775551D01*
X2496063Y3656457D02*
X2527559Y3687992D01*
G54D12*
X2290433Y485000D02*
Y66261D01*
X2260433Y36261D01*
X2506990Y634874D02*
X2440559D01*
X2550323Y709362D02*
Y678207D01*
X2506990Y634874D01*
X2527559Y732126D02*
X2550323Y709362D01*
X2527559Y822874D02*
Y732126D01*
X2290685Y485000D02*
X2440559Y634874D01*
X2290433Y485000D02*
X2290685D01*
G54D10*
X574803Y1325787D02*
Y1413346D01*
X543307Y1271614D02*
Y1294252D01*
Y1271614D02*
X574803Y1240118D01*
X543307Y1294252D02*
X574803Y1325787D01*
Y1240118D02*
Y822874D01*
X543307Y3043268D02*
X574803Y3011772D01*
X543307Y3065906D02*
X574803Y3097441D01*
Y3185000D01*
X543307Y3043268D02*
Y3065906D01*
X574803Y2421220D02*
Y2003976D01*
Y1830669D02*
Y1413425D01*
X543307Y2452717D02*
X574803Y2421220D01*
Y2506890D02*
Y2594449D01*
X543307Y2475354D02*
X574803Y2506890D01*
X543307Y2452717D02*
Y2475354D01*
X574803Y1916339D02*
Y2003898D01*
X543307Y1862165D02*
X574803Y1830669D01*
X543307Y1862165D02*
Y1884803D01*
X574803Y1916339D01*
Y3011772D02*
Y2594528D01*
X543307Y4224370D02*
X574803Y4192874D01*
X543307Y4247008D02*
X574803Y4278543D01*
Y4366102D01*
X543307Y4224370D02*
Y4247008D01*
X574803Y4192874D02*
Y3775630D01*
X543307Y3633819D02*
X574803Y3602323D01*
X543307Y3656457D02*
X574803Y3687992D01*
Y3775551D01*
X543307Y3633819D02*
Y3656457D01*
X574803Y3602323D02*
Y3185079D01*
Y4869094D02*
Y4956654D01*
X543307Y4837559D02*
X574803Y4869094D01*
X543307Y4814921D02*
Y4837559D01*
Y4814921D02*
X574803Y4783425D01*
Y4366181D01*
G54D12*
Y822874D02*
Y745630D01*
X810433Y35000D02*
X750433Y95000D01*
X610433Y710000D02*
X574803Y745630D01*
X610433Y682688D02*
Y710000D01*
X750433Y542688D02*
X610433Y682688D01*
X750433Y95000D02*
Y542688D01*
X637795Y822874D02*
Y745630D01*
G54D10*
X606299Y1294252D02*
X637795Y1325787D01*
Y1413346D01*
X606299Y1271614D02*
X637795Y1240118D01*
X606299Y1271614D02*
Y1294252D01*
X637795Y1240118D02*
Y822874D01*
Y3097441D02*
Y3185000D01*
X606299Y3065906D02*
X637795Y3097441D01*
X606299Y3043268D02*
Y3065906D01*
Y3043268D02*
X637795Y3011772D01*
Y2421220D02*
Y2003976D01*
Y1830669D02*
Y1413425D01*
X606299Y2475354D02*
X637795Y2506890D01*
X606299Y2452717D02*
Y2475354D01*
X637795Y2506890D02*
Y2594449D01*
X606299Y2452717D02*
X637795Y2421220D01*
X606299Y1884803D02*
X637795Y1916339D01*
Y2003898D01*
X606299Y1862165D02*
X637795Y1830669D01*
X606299Y1862165D02*
Y1884803D01*
X637795Y3011772D02*
Y2594528D01*
Y4278543D02*
Y4366102D01*
X606299Y4247008D02*
X637795Y4278543D01*
X606299Y4224370D02*
Y4247008D01*
Y4224370D02*
X637795Y4192874D01*
Y3775630D01*
Y3687992D02*
Y3775551D01*
X606299Y3656457D02*
X637795Y3687992D01*
X606299Y3633819D02*
Y3656457D01*
Y3633819D02*
X637795Y3602323D01*
Y3185079D01*
X606299Y4837559D02*
X637795Y4869094D01*
X606299Y4814921D02*
Y4837559D01*
X637795Y4869094D02*
Y4956654D01*
X606299Y4814921D02*
X637795Y4783425D01*
Y4366181D01*
G54D12*
X846514Y35000D02*
X770433Y111081D01*
X860433Y35000D02*
X846514D01*
X660433Y722992D02*
X637795Y745630D01*
X660433Y695680D02*
Y722992D01*
X770433Y585680D02*
X660433Y695680D01*
X770433Y111081D02*
Y585680D01*
X2210433Y35000D02*
X2185512Y59921D01*
X2464567Y822874D02*
Y745630D01*
G54D10*
Y1240118D02*
Y822874D01*
X2433071Y1294252D02*
X2464567Y1325787D01*
Y1413346D01*
X2433071Y1271614D02*
Y1294252D01*
Y1271614D02*
X2464567Y1240118D01*
Y1830669D02*
Y1413425D01*
X2433071Y1884803D02*
X2464567Y1916339D01*
Y3011772D02*
Y2594528D01*
Y1916339D02*
Y2003898D01*
X2433071Y2452717D02*
Y2475354D01*
Y1862165D02*
Y1884803D01*
Y1862165D02*
X2464567Y1830669D01*
Y2421220D02*
Y2003976D01*
X2433071Y2452717D02*
X2464567Y2421220D01*
X2433071Y2475354D02*
X2464567Y2506890D01*
Y2594449D01*
X2433071Y3065906D02*
X2464567Y3097441D01*
Y3185000D01*
X2433071Y3043268D02*
X2464567Y3011772D01*
X2433071Y3043268D02*
Y3065906D01*
Y4837559D02*
X2464567Y4869094D01*
X2433071Y4814921D02*
X2464567Y4783425D01*
Y4869094D02*
Y4956654D01*
X2433071Y4814921D02*
Y4837559D01*
X2464567Y4783425D02*
Y4366181D01*
Y4192874D02*
Y3775630D01*
X2433071Y4247008D02*
X2464567Y4278543D01*
Y4366102D01*
X2433071Y4224370D02*
X2464567Y4192874D01*
X2433071Y4224370D02*
Y4247008D01*
X2464567Y3602323D02*
Y3185079D01*
X2433071Y3656457D02*
X2464567Y3687992D01*
Y3775551D01*
X2433071Y3633819D02*
X2464567Y3602323D01*
X2433071Y3633819D02*
Y3656457D01*
G54D12*
X2185512Y523769D02*
X2226743Y565000D01*
X2185512Y489921D02*
Y523769D01*
Y59921D02*
Y489921D01*
Y511575D01*
X2441803Y722866D02*
X2464567Y745630D01*
X2441803Y686370D02*
Y722866D01*
X2320433Y565000D02*
X2441803Y686370D01*
X2226743Y565000D02*
X2320433D01*
X1510433Y35000D02*
X1485512Y59921D01*
X1456693Y822874D02*
Y745630D01*
G54D10*
X1425197Y1294252D02*
X1456693Y1325787D01*
Y1413346D01*
X1425197Y1271614D02*
Y1294252D01*
X1456693Y1240118D02*
Y822874D01*
X1425197Y1271614D02*
X1456693Y1240118D01*
X1425197Y3043268D02*
Y3065906D01*
X1456693Y3097441D02*
Y3185000D01*
X1425197Y3065906D02*
X1456693Y3097441D01*
X1425197Y3043268D02*
X1456693Y3011772D01*
Y1830669D02*
Y1413425D01*
X1425197Y1862165D02*
X1456693Y1830669D01*
Y3011772D02*
Y2594528D01*
X1425197Y2475354D02*
X1456693Y2506890D01*
X1425197Y2452717D02*
Y2475354D01*
X1456693Y2506890D02*
Y2594449D01*
X1425197Y2452717D02*
X1456693Y2421220D01*
Y2003976D01*
X1425197Y1884803D02*
X1456693Y1916339D01*
X1425197Y1862165D02*
Y1884803D01*
X1456693Y1916339D02*
Y2003898D01*
X1425197Y4224370D02*
Y4247008D01*
X1456693Y4278543D02*
Y4366102D01*
X1425197Y4247008D02*
X1456693Y4278543D01*
X1425197Y4224370D02*
X1456693Y4192874D01*
Y3775630D01*
X1425197Y3633819D02*
Y3656457D01*
X1456693Y3687992D02*
Y3775551D01*
X1425197Y3656457D02*
X1456693Y3687992D01*
X1425197Y3633819D02*
X1456693Y3602323D01*
Y3185079D01*
Y4783425D02*
Y4366181D01*
Y4869094D02*
Y4956654D01*
X1425197Y4837559D02*
X1456693Y4869094D01*
X1425197Y4814921D02*
Y4837559D01*
Y4814921D02*
X1456693Y4783425D01*
Y4366102D03*
Y4956654D03*
Y3775551D03*
Y2003898D03*
Y2594449D03*
Y3185000D03*
Y1413346D03*
G54D12*
X1485512Y716811D02*
X1456693Y745630D01*
X1485512Y470079D02*
Y716811D01*
Y59921D02*
Y470079D01*
Y511575D01*
X1460433Y35000D02*
X1435512Y59921D01*
X1393701Y822874D02*
Y745630D01*
G54D10*
X1362205Y1294252D02*
X1393701Y1325787D01*
Y1413346D01*
X1362205Y1271614D02*
Y1294252D01*
Y1271614D02*
X1393701Y1240118D01*
Y822874D01*
X1362205Y3065906D02*
X1393701Y3097441D01*
X1362205Y3043268D02*
X1393701Y3011772D01*
X1362205Y3043268D02*
Y3065906D01*
X1393701Y3097441D02*
Y3185000D01*
Y1830669D02*
Y1413425D01*
X1362205Y2452717D02*
X1393701Y2421220D01*
Y2506890D02*
Y2594449D01*
X1362205Y2475354D02*
X1393701Y2506890D01*
X1362205Y2452717D02*
Y2475354D01*
X1393701Y2421220D02*
Y2003976D01*
X1362205Y1884803D02*
X1393701Y1916339D01*
Y2003898D01*
X1362205Y1862165D02*
X1393701Y1830669D01*
X1362205Y1862165D02*
Y1884803D01*
X1393701Y3011772D02*
Y2594528D01*
X1362205Y4247008D02*
X1393701Y4278543D01*
X1362205Y4224370D02*
X1393701Y4192874D01*
X1362205Y4224370D02*
Y4247008D01*
X1393701Y4278543D02*
Y4366102D01*
Y4192874D02*
Y3775630D01*
X1362205Y3656457D02*
X1393701Y3687992D01*
X1362205Y3633819D02*
X1393701Y3602323D01*
X1362205Y3633819D02*
Y3656457D01*
X1393701Y3687992D02*
Y3775551D01*
Y3602323D02*
Y3185079D01*
Y4783425D02*
Y4366181D01*
Y4869094D02*
Y4956654D01*
X1362205Y4837559D02*
X1393701Y4869094D01*
X1362205Y4814921D02*
Y4837559D01*
Y4814921D02*
X1393701Y4783425D01*
G54D12*
X1435512Y619921D02*
X1416465Y638969D01*
X1435512Y439921D02*
Y619921D01*
Y59921D02*
Y439921D01*
Y511575D01*
X1416465Y722866D02*
X1393701Y745630D01*
X1416465Y668969D02*
Y722866D01*
Y638969D02*
Y668969D01*
Y718969D01*
X1410433Y35000D02*
X1385512Y59921D01*
X1330709Y822874D02*
Y745630D01*
G54D10*
X1299213Y1271614D02*
Y1294252D01*
X1330709Y1325787D02*
Y1413346D01*
X1299213Y1271614D02*
X1330709Y1240118D01*
X1299213Y1294252D02*
X1330709Y1325787D01*
Y1240118D02*
Y822874D01*
X1299213Y3065906D02*
X1330709Y3097441D01*
X1299213Y3043268D02*
X1330709Y3011772D01*
Y3097441D02*
Y3185000D01*
X1299213Y3043268D02*
Y3065906D01*
X1330709Y1830669D02*
Y1413425D01*
X1299213Y2452717D02*
Y2475354D01*
X1330709Y2506890D01*
Y2594449D01*
X1299213Y2452717D02*
X1330709Y2421220D01*
Y2003976D01*
Y3011772D02*
Y2594528D01*
X1299213Y1862165D02*
Y1884803D01*
X1330709Y1916339D02*
Y2003898D01*
X1299213Y1862165D02*
X1330709Y1830669D01*
X1299213Y1884803D02*
X1330709Y1916339D01*
X1299213Y4247008D02*
X1330709Y4278543D01*
X1299213Y4224370D02*
X1330709Y4192874D01*
Y4278543D02*
Y4366102D01*
X1299213Y4224370D02*
Y4247008D01*
X1330709Y4192874D02*
Y3775630D01*
X1299213Y3656457D02*
X1330709Y3687992D01*
X1299213Y3633819D02*
X1330709Y3602323D01*
Y3687992D02*
Y3775551D01*
X1299213Y3633819D02*
Y3656457D01*
X1330709Y3602323D02*
Y3185079D01*
Y4783425D02*
Y4366181D01*
Y4869094D02*
Y4956654D01*
X1299213Y4837559D02*
X1330709Y4869094D01*
X1299213Y4814921D02*
Y4837559D01*
Y4814921D02*
X1330709Y4783425D01*
G54D12*
X1385512Y659921D02*
X1353472Y691961D01*
Y722866D02*
X1330709Y745630D01*
X1385512Y469921D02*
Y659921D01*
X1353472Y691961D02*
Y722866D01*
X1385512Y59921D02*
Y469921D01*
Y511575D01*
X1360433Y35000D02*
X1335512Y59921D01*
X1267717Y822874D02*
Y745630D01*
G54D10*
X1236220Y1271614D02*
Y1294252D01*
X1267717Y1325787D02*
Y1413346D01*
X1236220Y1271614D02*
X1267717Y1240118D01*
X1236220Y1294252D02*
X1267717Y1325787D01*
Y1240118D02*
Y822874D01*
X1236220Y3043268D02*
Y3065906D01*
Y3043268D02*
X1267717Y3011772D01*
Y3097441D02*
Y3185000D01*
X1236220Y3065906D02*
X1267717Y3097441D01*
Y1830669D02*
Y1413425D01*
Y2506890D02*
Y2594449D01*
Y3011772D02*
Y2594528D01*
X1236220Y2452717D02*
X1267717Y2421220D01*
X1236220Y2475354D02*
X1267717Y2506890D01*
X1236220Y2452717D02*
Y2475354D01*
X1267717Y2421220D02*
Y2003976D01*
X1236220Y1862165D02*
Y1884803D01*
X1267717Y1916339D02*
Y2003898D01*
X1236220Y1862165D02*
X1267717Y1830669D01*
X1236220Y1884803D02*
X1267717Y1916339D01*
X1236220Y4224370D02*
Y4247008D01*
Y4224370D02*
X1267717Y4192874D01*
Y4278543D02*
Y4366102D01*
X1236220Y4247008D02*
X1267717Y4278543D01*
Y4192874D02*
Y3775630D01*
X1236220Y3633819D02*
Y3656457D01*
Y3633819D02*
X1267717Y3602323D01*
Y3687992D02*
Y3775551D01*
X1236220Y3656457D02*
X1267717Y3687992D01*
Y3602323D02*
Y3185079D01*
Y4783425D02*
Y4366181D01*
X1236220Y4837559D02*
X1267717Y4869094D01*
Y4956654D01*
X1236220Y4814921D02*
X1267717Y4783425D01*
X1236220Y4814921D02*
Y4837559D01*
G54D12*
X1290480Y722866D02*
X1267717Y745630D01*
X1290480Y678089D02*
Y722866D01*
X1335512Y439921D02*
Y633058D01*
Y59921D02*
Y439921D01*
Y633058D02*
X1290480Y678089D01*
X1335512Y439921D02*
Y511575D01*
X1310433Y35000D02*
X1285512Y59921D01*
X1204724Y822874D02*
Y745630D01*
G54D10*
X1173228Y1271614D02*
X1204724Y1240118D01*
Y1325787D02*
Y1413346D01*
X1173228Y1271614D02*
Y1294252D01*
X1204724Y1240118D02*
Y822874D01*
X1173228Y1294252D02*
X1204724Y1325787D01*
Y3097441D02*
Y3185000D01*
X1173228Y3043268D02*
Y3065906D01*
Y3043268D02*
X1204724Y3011772D01*
X1173228Y3065906D02*
X1204724Y3097441D01*
Y1830669D02*
Y1413425D01*
X1173228Y1884803D02*
X1204724Y1916339D01*
Y2506890D02*
Y2594449D01*
X1173228Y2452717D02*
X1204724Y2421220D01*
X1173228Y2452717D02*
Y2475354D01*
X1204724Y2506890D01*
Y2421220D02*
Y2003976D01*
X1173228Y1862165D02*
X1204724Y1830669D01*
Y1916339D02*
Y2003898D01*
X1173228Y1862165D02*
Y1884803D01*
X1204724Y3011772D02*
Y2594528D01*
Y4278543D02*
Y4366102D01*
X1173228Y4224370D02*
Y4247008D01*
Y4224370D02*
X1204724Y4192874D01*
X1173228Y4247008D02*
X1204724Y4278543D01*
Y4192874D02*
Y3775630D01*
Y3687992D02*
Y3775551D01*
X1173228Y3633819D02*
Y3656457D01*
Y3633819D02*
X1204724Y3602323D01*
X1173228Y3656457D02*
X1204724Y3687992D01*
Y3602323D02*
Y3185079D01*
Y4783425D02*
Y4366181D01*
Y4869094D02*
Y4956654D01*
X1173228Y4837559D02*
X1204724Y4869094D01*
X1173228Y4814921D02*
Y4837559D01*
Y4814921D02*
X1204724Y4783425D01*
G54D12*
X1226503Y723851D02*
X1204724Y745630D01*
X1226503Y657795D02*
Y723851D01*
X1285512Y598786D02*
X1226503Y657795D01*
X1285512Y470079D02*
Y598786D01*
Y59921D02*
Y470079D01*
Y511575D01*
X1260433Y35000D02*
X1235512Y59921D01*
X1141732Y822874D02*
Y745630D01*
G54D10*
X1110236Y1294252D02*
X1141732Y1325787D01*
X1110236Y1271614D02*
X1141732Y1240118D01*
Y1325787D02*
Y1413346D01*
X1110236Y1271614D02*
Y1294252D01*
X1141732Y1240118D02*
Y822874D01*
X1110236Y3043268D02*
X1141732Y3011772D01*
X1110236Y3043268D02*
Y3065906D01*
X1141732Y3097441D02*
Y3185000D01*
X1110236Y3065906D02*
X1141732Y3097441D01*
Y1830669D02*
Y1413425D01*
X1110236Y2452717D02*
Y2475354D01*
X1141732Y2506890D01*
X1110236Y2452717D02*
X1141732Y2421220D01*
Y2506890D02*
Y2594449D01*
Y2421220D02*
Y2003976D01*
X1110236Y1884803D02*
X1141732Y1916339D01*
X1110236Y1862165D02*
X1141732Y1830669D01*
Y1916339D02*
Y2003898D01*
Y3011772D02*
Y2594528D01*
X1110236Y1862165D02*
Y1884803D01*
Y4224370D02*
X1141732Y4192874D01*
X1110236Y4224370D02*
Y4247008D01*
X1141732Y4278543D02*
Y4366102D01*
X1110236Y4247008D02*
X1141732Y4278543D01*
Y4192874D02*
Y3775630D01*
X1110236Y3633819D02*
X1141732Y3602323D01*
X1110236Y3633819D02*
Y3656457D01*
X1141732Y3687992D02*
Y3775551D01*
X1110236Y3656457D02*
X1141732Y3687992D01*
Y3602323D02*
Y3185079D01*
Y4783425D02*
Y4366181D01*
Y4869094D02*
Y4956654D01*
X1110236Y4837559D02*
X1141732Y4869094D01*
X1110236Y4814921D02*
Y4837559D01*
Y4814921D02*
X1141732Y4783425D01*
G54D12*
X1164496Y694569D02*
Y722866D01*
X1235512Y623553D02*
X1164496Y694569D01*
X1235512Y450079D02*
Y623553D01*
Y59921D02*
Y450079D01*
X1164496Y722866D02*
X1141732Y745630D01*
X1235512Y450079D02*
Y511575D01*
X1210433Y35000D02*
X1185512Y59921D01*
X1078740Y822874D02*
Y745630D01*
G54D10*
X1047244Y1294252D02*
X1078740Y1325787D01*
X1047244Y1271614D02*
X1078740Y1240118D01*
X1047244Y1271614D02*
Y1294252D01*
X1078740Y1325787D02*
Y1413346D01*
Y1240118D02*
Y822874D01*
X1047244Y3065906D02*
X1078740Y3097441D01*
X1047244Y3043268D02*
X1078740Y3011772D01*
X1047244Y3043268D02*
Y3065906D01*
X1078740Y3097441D02*
Y3185000D01*
Y1830669D02*
Y1413425D01*
Y3011772D02*
Y2594528D01*
X1047244Y2452717D02*
X1078740Y2421220D01*
X1047244Y2452717D02*
Y2475354D01*
X1078740Y2506890D01*
Y2594449D01*
Y2421220D02*
Y2003976D01*
X1047244Y1884803D02*
X1078740Y1916339D01*
X1047244Y1862165D02*
X1078740Y1830669D01*
X1047244Y1862165D02*
Y1884803D01*
X1078740Y1916339D02*
Y2003898D01*
X1047244Y4247008D02*
X1078740Y4278543D01*
X1047244Y4224370D02*
X1078740Y4192874D01*
X1047244Y4224370D02*
Y4247008D01*
X1078740Y4278543D02*
Y4366102D01*
Y4192874D02*
Y3775630D01*
X1047244Y3656457D02*
X1078740Y3687992D01*
X1047244Y3633819D02*
X1078740Y3602323D01*
X1047244Y3633819D02*
Y3656457D01*
X1078740Y3687992D02*
Y3775551D01*
Y3602323D02*
Y3185079D01*
Y4783425D02*
Y4366181D01*
Y4869094D02*
Y4956654D01*
X1047244Y4837559D02*
X1078740Y4869094D01*
X1047244Y4814921D02*
Y4837559D01*
Y4814921D02*
X1078740Y4783425D01*
G54D12*
X1100519Y694914D02*
Y723851D01*
X1185512Y459921D02*
Y609921D01*
X1100519Y723851D02*
X1078740Y745630D01*
X1185512Y609921D02*
X1100519Y694914D01*
X1185512Y59921D02*
Y459921D01*
Y511575D01*
X1160433Y35000D02*
X1135512Y59921D01*
X1015748Y822874D02*
Y745630D01*
G54D10*
X984252Y1271614D02*
Y1294252D01*
X1015748Y1325787D01*
Y1413346D01*
X984252Y1271614D02*
X1015748Y1240118D01*
Y822874D01*
Y3097441D02*
Y3185000D01*
X984252Y3043268D02*
Y3065906D01*
X1015748Y3097441D01*
X984252Y3043268D02*
X1015748Y3011772D01*
Y1830669D02*
Y1413425D01*
Y3011772D02*
Y2594528D01*
Y2506890D02*
Y2594449D01*
X984252Y2475354D02*
X1015748Y2506890D01*
X984252Y2452717D02*
X1015748Y2421220D01*
X984252Y2452717D02*
Y2475354D01*
X1015748Y2421220D02*
Y2003976D01*
X984252Y1862165D02*
Y1884803D01*
X1015748Y1916339D01*
Y2003898D01*
X984252Y1862165D02*
X1015748Y1830669D01*
Y4278543D02*
Y4366102D01*
X984252Y4224370D02*
Y4247008D01*
X1015748Y4278543D01*
X984252Y4224370D02*
X1015748Y4192874D01*
Y3775630D01*
Y3687992D02*
Y3775551D01*
X984252Y3633819D02*
Y3656457D01*
X1015748Y3687992D01*
X984252Y3633819D02*
X1015748Y3602323D01*
Y3185079D01*
Y4783425D02*
Y4366181D01*
X984252Y4837559D02*
X1015748Y4869094D01*
X984252Y4814921D02*
X1015748Y4783425D01*
X984252Y4814921D02*
Y4837559D01*
X1015748Y4869094D02*
Y4956654D01*
G54D12*
X1038512Y722866D02*
X1015748Y745630D01*
X1038512Y620612D02*
Y722866D01*
X1135512Y479921D02*
Y523612D01*
Y59921D02*
Y479921D01*
Y523612D02*
X1038512Y620612D01*
X1135512Y479921D02*
Y511575D01*
X1110433Y35000D02*
X1085512Y59921D01*
X952756Y822874D02*
Y745630D01*
G54D10*
X921260Y1294252D02*
X952756Y1325787D01*
Y1413346D01*
X921260Y1271614D02*
Y1294252D01*
Y1271614D02*
X952756Y1240118D01*
Y822874D01*
X921260Y3065906D02*
X952756Y3097441D01*
Y3185000D01*
X921260Y3043268D02*
Y3065906D01*
Y3043268D02*
X952756Y3011772D01*
Y1830669D02*
Y1413425D01*
Y2506890D02*
Y2594449D01*
X921260Y2452717D02*
Y2475354D01*
Y2452717D02*
X952756Y2421220D01*
X921260Y2475354D02*
X952756Y2506890D01*
Y2421220D02*
Y2003976D01*
Y3011772D02*
Y2594528D01*
X921260Y1884803D02*
X952756Y1916339D01*
Y2003898D01*
X921260Y1862165D02*
Y1884803D01*
Y1862165D02*
X952756Y1830669D01*
X921260Y4247008D02*
X952756Y4278543D01*
Y4366102D01*
X921260Y4224370D02*
Y4247008D01*
Y4224370D02*
X952756Y4192874D01*
Y3775630D01*
X921260Y3656457D02*
X952756Y3687992D01*
Y3775551D01*
X921260Y3633819D02*
Y3656457D01*
Y3633819D02*
X952756Y3602323D01*
Y3185079D01*
Y4783425D02*
Y4366181D01*
Y4869094D02*
Y4956654D01*
X921260Y4837559D02*
X952756Y4869094D01*
X921260Y4814921D02*
Y4837559D01*
Y4814921D02*
X952756Y4783425D01*
G54D12*
X1085512Y522351D02*
X974535Y633328D01*
X1085512Y460079D02*
Y522351D01*
Y59921D02*
Y460079D01*
Y511575D01*
X974535Y723851D02*
X952756Y745630D01*
X974535Y679102D02*
Y723851D01*
Y633328D02*
Y679102D01*
Y720898D01*
X1060433Y35000D02*
X1035512Y59921D01*
X889764Y822874D02*
Y745630D01*
G54D10*
X858268Y1294252D02*
X889764Y1325787D01*
Y1413346D01*
X858268Y1271614D02*
Y1294252D01*
Y1271614D02*
X889764Y1240118D01*
Y822874D01*
X858268Y3043268D02*
Y3065906D01*
Y3043268D02*
X889764Y3011772D01*
X858268Y3065906D02*
X889764Y3097441D01*
Y3185000D01*
Y1830669D02*
Y1413425D01*
X858268Y2475354D02*
X889764Y2506890D01*
X858268Y2452717D02*
X889764Y2421220D01*
Y2506890D02*
Y2594449D01*
X858268Y2452717D02*
Y2475354D01*
X889764Y2421220D02*
Y2003976D01*
Y3011772D02*
Y2594528D01*
X858268Y1884803D02*
X889764Y1916339D01*
X858268Y1862165D02*
Y1884803D01*
X889764Y1916339D02*
Y2003898D01*
X858268Y1862165D02*
X889764Y1830669D01*
X858268Y4224370D02*
Y4247008D01*
Y4224370D02*
X889764Y4192874D01*
X858268Y4247008D02*
X889764Y4278543D01*
Y4366102D01*
Y4192874D02*
Y3775630D01*
X858268Y3633819D02*
Y3656457D01*
Y3633819D02*
X889764Y3602323D01*
X858268Y3656457D02*
X889764Y3687992D01*
Y3775551D01*
Y3602323D02*
Y3185079D01*
Y4783425D02*
Y4366181D01*
Y4869094D02*
Y4956654D01*
X858268Y4837559D02*
X889764Y4869094D01*
X858268Y4814921D02*
Y4837559D01*
Y4814921D02*
X889764Y4783425D01*
G54D12*
X912528Y722866D02*
X889764Y745630D01*
X912528Y646596D02*
Y722866D01*
X1035512Y523612D02*
X912528Y646596D01*
X1035512Y459921D02*
Y523612D01*
Y59921D02*
Y459921D01*
Y511575D01*
X1010433Y35000D02*
X985512Y59921D01*
X826772Y822874D02*
Y745630D01*
G54D10*
X795276Y1271614D02*
Y1294252D01*
X826772Y1325787D01*
X795276Y1271614D02*
X826772Y1240118D01*
Y1325787D02*
Y1413346D01*
Y1240118D02*
Y822874D01*
X795276Y3065906D02*
X826772Y3097441D01*
Y3185000D01*
X795276Y3043268D02*
Y3065906D01*
Y3043268D02*
X826772Y3011772D01*
Y1830669D02*
Y1413425D01*
Y3011772D02*
Y2594528D01*
X795276Y2452717D02*
X826772Y2421220D01*
Y2506890D02*
Y2594449D01*
X795276Y2475354D02*
X826772Y2506890D01*
X795276Y2452717D02*
Y2475354D01*
X826772Y2421220D02*
Y2003976D01*
X795276Y1862165D02*
Y1884803D01*
X826772Y1916339D01*
Y2003898D01*
X795276Y1862165D02*
X826772Y1830669D01*
X795276Y4247008D02*
X826772Y4278543D01*
Y4366102D01*
X795276Y4224370D02*
Y4247008D01*
Y4224370D02*
X826772Y4192874D01*
Y3775630D01*
X795276Y3656457D02*
X826772Y3687992D01*
Y3775551D01*
X795276Y3633819D02*
Y3656457D01*
Y3633819D02*
X826772Y3602323D01*
Y3185079D01*
Y4783425D02*
Y4366181D01*
Y4869094D02*
Y4956654D01*
X795276Y4837559D02*
X826772Y4869094D01*
X795276Y4814921D02*
Y4837559D01*
Y4814921D02*
X826772Y4783425D01*
G54D12*
X848550Y723851D02*
X826772Y745630D01*
X848550Y659312D02*
Y723851D01*
X985512Y522351D02*
X848550Y659312D01*
X985512Y460079D02*
Y522351D01*
Y59921D02*
Y460079D01*
Y511575D01*
X960433Y35000D02*
X935512Y59921D01*
X763780Y822874D02*
Y745630D01*
G54D10*
X732283Y1271614D02*
Y1294252D01*
X763780Y1325787D01*
Y1413346D01*
X732283Y1271614D02*
X763780Y1240118D01*
Y822874D01*
X732283Y3065906D02*
X763780Y3097441D01*
Y3185000D01*
X732283Y3043268D02*
X763780Y3011772D01*
X732283Y3043268D02*
Y3065906D01*
X763780Y1830669D02*
Y1413425D01*
Y3011772D02*
Y2594528D01*
X732283Y2452717D02*
Y2475354D01*
X763780Y2506890D01*
X732283Y2452717D02*
X763780Y2421220D01*
Y2506890D02*
Y2594449D01*
Y2421220D02*
Y2003976D01*
X732283Y1884803D02*
X763780Y1916339D01*
X732283Y1862165D02*
Y1884803D01*
X763780Y1916339D02*
Y2003898D01*
X732283Y1862165D02*
X763780Y1830669D01*
X732283Y4247008D02*
X763780Y4278543D01*
Y4366102D01*
X732283Y4224370D02*
X763780Y4192874D01*
X732283Y4224370D02*
Y4247008D01*
X763780Y4192874D02*
Y3775630D01*
X732283Y3656457D02*
X763780Y3687992D01*
Y3775551D01*
X732283Y3633819D02*
X763780Y3602323D01*
X732283Y3633819D02*
Y3656457D01*
X763780Y3602323D02*
Y3185079D01*
Y4783425D02*
Y4366181D01*
Y4869094D02*
Y4956654D01*
X732283Y4837559D02*
X763780Y4869094D01*
X732283Y4814921D02*
Y4837559D01*
Y4814921D02*
X763780Y4783425D01*
G54D12*
X786543Y722866D02*
X763780Y745630D01*
X786543Y672580D02*
Y722866D01*
X935512Y523612D02*
X786543Y672580D01*
X935512Y480079D02*
Y523612D01*
Y59921D02*
Y480079D01*
Y511575D01*
X700787Y822874D02*
Y745630D01*
G54D10*
X669291Y1271614D02*
X700787Y1240118D01*
X669291Y1271614D02*
Y1294252D01*
X700787Y1325787D02*
Y1413346D01*
X669291Y1294252D02*
X700787Y1325787D01*
Y1240118D02*
Y822874D01*
X669291Y3043268D02*
Y3065906D01*
X700787Y3097441D02*
Y3185000D01*
X669291Y3043268D02*
X700787Y3011772D01*
X669291Y3065906D02*
X700787Y3097441D01*
X669291Y1884803D02*
X700787Y1916339D01*
Y1830669D02*
Y1413425D01*
Y2506890D02*
Y2594449D01*
X669291Y2452717D02*
Y2475354D01*
Y2452717D02*
X700787Y2421220D01*
X669291Y2475354D02*
X700787Y2506890D01*
Y3011772D02*
Y2594528D01*
Y2421220D02*
Y2003976D01*
X669291Y1862165D02*
X700787Y1830669D01*
X669291Y1862165D02*
Y1884803D01*
X700787Y1916339D02*
Y2003898D01*
X669291Y4224370D02*
Y4247008D01*
X700787Y4278543D02*
Y4366102D01*
X669291Y4224370D02*
X700787Y4192874D01*
X669291Y4247008D02*
X700787Y4278543D01*
Y4192874D02*
Y3775630D01*
X669291Y3633819D02*
Y3656457D01*
X700787Y3687992D02*
Y3775551D01*
X669291Y3633819D02*
X700787Y3602323D01*
X669291Y3656457D02*
X700787Y3687992D01*
Y3602323D02*
Y3185079D01*
Y4783425D02*
Y4366181D01*
Y4869094D02*
Y4956654D01*
X669291Y4837559D02*
X700787Y4869094D01*
X669291Y4814921D02*
Y4837559D01*
Y4814921D02*
X700787Y4783425D01*
G54D12*
X885512Y511575D02*
X883197Y513890D01*
X910433Y35000D02*
X885512Y59921D01*
X723551Y722866D02*
X700787Y745630D01*
X723551Y684311D02*
Y722866D01*
X885512Y522351D02*
X723551Y684311D01*
X885512Y479921D02*
Y522351D01*
Y59921D02*
Y479921D01*
Y511575D01*
G54D10*
X2370079Y1271614D02*
Y1294252D01*
X2401575Y1240118D02*
Y822874D01*
X2370079Y1271614D02*
X2401575Y1240118D01*
X2370079Y1294252D02*
X2401575Y1325787D01*
Y1413346D01*
Y2421220D02*
Y2003976D01*
X2370079Y1862165D02*
Y1884803D01*
X2401575Y1830669D02*
Y1413425D01*
X2370079Y2452717D02*
Y2475354D01*
Y1862165D02*
X2401575Y1830669D01*
Y1916339D02*
Y2003898D01*
X2370079Y1884803D02*
X2401575Y1916339D01*
Y2506890D02*
Y2594449D01*
X2370079Y2475354D02*
X2401575Y2506890D01*
X2370079Y2452717D02*
X2401575Y2421220D01*
X2370079Y3043268D02*
X2401575Y3011772D01*
X2370079Y3065906D02*
X2401575Y3097441D01*
Y3185000D01*
X2370079Y3043268D02*
Y3065906D01*
X2401575Y3011772D02*
Y2594528D01*
X2370079Y4814921D02*
Y4837559D01*
Y4814921D02*
X2401575Y4783425D01*
Y4869094D02*
Y4956654D01*
X2370079Y4837559D02*
X2401575Y4869094D01*
Y4783425D02*
Y4366181D01*
X2370079Y4224370D02*
X2401575Y4192874D01*
X2370079Y4247008D02*
X2401575Y4278543D01*
Y4366102D01*
X2370079Y4224370D02*
Y4247008D01*
X2401575Y4192874D02*
Y3775630D01*
X2370079Y3633819D02*
X2401575Y3602323D01*
X2370079Y3656457D02*
X2401575Y3687992D01*
Y3775551D01*
X2370079Y3633819D02*
Y3656457D01*
X2401575Y3602323D02*
Y3185079D01*
G54D12*
Y745630D02*
Y822874D01*
X2378864Y722919D02*
X2401575Y745630D01*
X2378864Y697002D02*
Y722919D01*
X2294586Y612723D02*
X2378864Y697002D01*
X2218156Y612723D02*
X2294586D01*
X2135512Y530079D02*
X2218156Y612723D01*
X2135512Y59921D02*
Y530079D01*
X2160433Y35000D02*
X2135512Y59921D01*
X2110433Y35000D02*
X2085512Y59921D01*
X2338583Y822874D02*
Y745630D01*
G54D10*
Y1240118D02*
Y822874D01*
X2307087Y1271614D02*
Y1294252D01*
X2338583Y1325787D02*
Y1413346D01*
X2307087Y1294252D02*
X2338583Y1325787D01*
X2307087Y1271614D02*
X2338583Y1240118D01*
X2307087Y2475354D02*
X2338583Y2506890D01*
Y3011772D02*
Y2594528D01*
Y1830669D02*
Y1413425D01*
X2307087Y1862165D02*
Y1884803D01*
X2338583Y1916339D02*
Y2003898D01*
X2307087Y1884803D02*
X2338583Y1916339D01*
X2307087Y1862165D02*
X2338583Y1830669D01*
Y2421220D02*
Y2003976D01*
Y2506890D02*
Y2594449D01*
X2307087Y2452717D02*
Y2475354D01*
Y2452717D02*
X2338583Y2421220D01*
Y3097441D02*
Y3185000D01*
X2307087Y3043268D02*
Y3065906D01*
Y3043268D02*
X2338583Y3011772D01*
X2307087Y3065906D02*
X2338583Y3097441D01*
Y4869094D02*
Y4956654D01*
X2307087Y4814921D02*
Y4837559D01*
Y4814921D02*
X2338583Y4783425D01*
X2307087Y4837559D02*
X2338583Y4869094D01*
Y4783425D02*
Y4366181D01*
Y4192874D02*
Y3775630D01*
Y4278543D02*
Y4366102D01*
X2307087Y4224370D02*
Y4247008D01*
Y4224370D02*
X2338583Y4192874D01*
X2307087Y4247008D02*
X2338583Y4278543D01*
Y3602323D02*
Y3185079D01*
Y3687992D02*
Y3775551D01*
X2307087Y3633819D02*
Y3656457D01*
Y3633819D02*
X2338583Y3602323D01*
X2307087Y3656457D02*
X2338583Y3687992D01*
G54D12*
X2314282Y721329D02*
X2338583Y745630D01*
X2314282Y694016D02*
Y721329D01*
X2250831Y630566D02*
X2314282Y694016D01*
X2193756Y630566D02*
X2250831D01*
X2085512Y522322D02*
X2193756Y630566D01*
X2085512Y470079D02*
Y522322D01*
Y59921D02*
Y470079D01*
Y511575D01*
X2010433Y35000D02*
X1985512Y59921D01*
X2212598Y822874D02*
Y745630D01*
G54D10*
Y1325787D02*
Y1413346D01*
X2181102Y1271614D02*
Y1294252D01*
X2212598Y1325787D01*
Y1240118D02*
Y822874D01*
X2181102Y1271614D02*
X2212598Y1240118D01*
Y2421220D02*
Y2003976D01*
X2181102Y1862165D02*
Y1884803D01*
X2212598Y1916339D02*
Y2003898D01*
X2181102Y1884803D02*
X2212598Y1916339D01*
Y1830669D02*
Y1413425D01*
X2181102Y1862165D02*
X2212598Y1830669D01*
Y2506890D02*
Y2594449D01*
X2181102Y2452717D02*
X2212598Y2421220D01*
X2181102Y2475354D02*
X2212598Y2506890D01*
X2181102Y2452717D02*
Y2475354D01*
Y3043268D02*
Y3065906D01*
X2212598Y3097441D02*
Y3185000D01*
X2181102Y3043268D02*
X2212598Y3011772D01*
X2181102Y3065906D02*
X2212598Y3097441D01*
Y3011772D02*
Y2594528D01*
X2181102Y4837559D02*
X2212598Y4869094D01*
X2181102Y4814921D02*
X2212598Y4783425D01*
X2181102Y4814921D02*
Y4837559D01*
X2212598Y4869094D02*
Y4956654D01*
Y4783425D02*
Y4366181D01*
X2181102Y4224370D02*
Y4247008D01*
X2212598Y4278543D02*
Y4366102D01*
X2181102Y4224370D02*
X2212598Y4192874D01*
X2181102Y4247008D02*
X2212598Y4278543D01*
Y4192874D02*
Y3775630D01*
X2181102Y3633819D02*
Y3656457D01*
X2212598Y3687992D02*
Y3775551D01*
X2181102Y3633819D02*
X2212598Y3602323D01*
X2181102Y3656457D02*
X2212598Y3687992D01*
Y3602323D02*
Y3185079D01*
G54D12*
X2160533Y666252D02*
X2172370Y678089D01*
X2122774Y666252D02*
X2160533D01*
X1985512Y528989D02*
X2122774Y666252D01*
X1985512Y469921D02*
Y528989D01*
X2172370Y678089D02*
Y705402D01*
X1985512Y59921D02*
Y469921D01*
X2172370Y705402D02*
X2212598Y745630D01*
X1985512Y469921D02*
Y511575D01*
X1960433Y35000D02*
X1935512Y59921D01*
X2149606Y822874D02*
Y745630D01*
G54D10*
X2118110Y1294252D02*
X2149606Y1325787D01*
Y1413346D01*
X2118110Y1271614D02*
Y1294252D01*
X2149606Y1240118D02*
Y822874D01*
X2118110Y1271614D02*
X2149606Y1240118D01*
Y2421220D02*
Y2003976D01*
Y1916339D02*
Y2003898D01*
X2118110Y1884803D02*
X2149606Y1916339D01*
X2118110Y1862165D02*
Y1884803D01*
X2149606Y1830669D02*
Y1413425D01*
X2118110Y1862165D02*
X2149606Y1830669D01*
Y2506890D02*
Y2594449D01*
X2118110Y2475354D02*
X2149606Y2506890D01*
X2118110Y2452717D02*
Y2475354D01*
Y2452717D02*
X2149606Y2421220D01*
Y3097441D02*
Y3185000D01*
X2118110Y3065906D02*
X2149606Y3097441D01*
X2118110Y3043268D02*
Y3065906D01*
Y3043268D02*
X2149606Y3011772D01*
Y2594528D01*
Y4869094D02*
Y4956654D01*
X2118110Y4814921D02*
Y4837559D01*
X2149606Y4869094D01*
X2118110Y4814921D02*
X2149606Y4783425D01*
Y4366181D01*
Y4278543D02*
Y4366102D01*
X2118110Y4247008D02*
X2149606Y4278543D01*
X2118110Y4224370D02*
Y4247008D01*
Y4224370D02*
X2149606Y4192874D01*
Y3775630D01*
Y3687992D02*
Y3775551D01*
X2118110Y3656457D02*
X2149606Y3687992D01*
X2118110Y3633819D02*
Y3656457D01*
Y3633819D02*
X2149606Y3602323D01*
Y3185079D01*
G54D12*
X2126843Y695554D02*
Y722866D01*
X2097541Y666252D02*
X2126843Y695554D01*
X2079256Y666252D02*
X2097541D01*
X1935512Y459921D02*
Y522508D01*
Y59921D02*
Y459921D01*
X2126843Y722866D02*
X2149606Y745630D01*
X1935512Y522508D02*
X2079256Y666252D01*
X1935512Y459921D02*
Y511575D01*
X1910433Y35000D02*
X1885512Y59921D01*
X2086614Y822874D02*
Y745630D01*
G54D10*
Y1240118D02*
Y822874D01*
Y1325787D02*
Y1413346D01*
X2055118Y1271614D02*
X2086614Y1240118D01*
X2055118Y1294252D02*
X2086614Y1325787D01*
X2055118Y1271614D02*
Y1294252D01*
X2086614Y1830669D02*
Y1413425D01*
Y3011772D02*
Y2594528D01*
Y1916339D02*
Y2003898D01*
X2055118Y2452717D02*
Y2475354D01*
Y2452717D02*
X2086614Y2421220D01*
X2055118Y1862165D02*
X2086614Y1830669D01*
X2055118Y1884803D02*
X2086614Y1916339D01*
X2055118Y1862165D02*
Y1884803D01*
X2086614Y2421220D02*
Y2003976D01*
Y2506890D02*
Y2594449D01*
X2055118Y2475354D02*
X2086614Y2506890D01*
Y3097441D02*
Y3185000D01*
X2055118Y3065906D02*
X2086614Y3097441D01*
X2055118Y3043268D02*
Y3065906D01*
Y3043268D02*
X2086614Y3011772D01*
X2055118Y4837559D02*
X2086614Y4869094D01*
Y4956654D01*
X2055118Y4814921D02*
Y4837559D01*
Y4814921D02*
X2086614Y4783425D01*
Y4366181D01*
Y4192874D02*
Y3775630D01*
Y4278543D02*
Y4366102D01*
X2055118Y4247008D02*
X2086614Y4278543D01*
X2055118Y4224370D02*
Y4247008D01*
Y4224370D02*
X2086614Y4192874D01*
Y3602323D02*
Y3185079D01*
Y3687992D02*
Y3775551D01*
X2055118Y3656457D02*
X2086614Y3687992D01*
X2055118Y3633819D02*
Y3656457D01*
Y3633819D02*
X2086614Y3602323D01*
G54D12*
X2063850Y722866D02*
X2086614Y745630D01*
X2063850Y695554D02*
Y722866D01*
X2012695Y666252D02*
X2034549D01*
X1885512Y539068D02*
X2012695Y666252D01*
X1885512Y59921D02*
Y470079D01*
X2034549Y666252D02*
X2063850Y695554D01*
X1885512Y470079D02*
Y539068D01*
Y470079D02*
Y511575D01*
X1860433Y35000D02*
X1835512Y59921D01*
X2023622Y822874D02*
Y745630D01*
G54D10*
Y1325787D02*
Y1413346D01*
Y1240118D02*
Y822874D01*
X1992126Y1271614D02*
X2023622Y1240118D01*
X1992126Y1294252D02*
X2023622Y1325787D01*
X1992126Y1271614D02*
Y1294252D01*
X2023622Y3011772D02*
Y2594528D01*
Y1916339D02*
Y2003898D01*
Y1830669D02*
Y1413425D01*
X1992126Y1862165D02*
X2023622Y1830669D01*
X1992126Y1884803D02*
X2023622Y1916339D01*
X1992126Y1862165D02*
Y1884803D01*
X2023622Y2421220D02*
Y2003976D01*
X1992126Y2452717D02*
X2023622Y2421220D01*
X1992126Y2452717D02*
Y2475354D01*
X2023622Y2506890D02*
Y2594449D01*
X1992126Y2475354D02*
X2023622Y2506890D01*
Y3097441D02*
Y3185000D01*
X1992126Y3043268D02*
X2023622Y3011772D01*
X1992126Y3043268D02*
Y3065906D01*
X2023622Y3097441D01*
X1992126Y4814921D02*
Y4837559D01*
Y4814921D02*
X2023622Y4783425D01*
X1992126Y4837559D02*
X2023622Y4869094D01*
Y4956654D01*
Y4783425D02*
Y4366181D01*
Y4192874D02*
Y3775630D01*
Y4278543D02*
Y4366102D01*
X1992126Y4224370D02*
X2023622Y4192874D01*
X1992126Y4224370D02*
Y4247008D01*
X2023622Y4278543D01*
Y3602323D02*
Y3185079D01*
Y3687992D02*
Y3775551D01*
X1992126Y3633819D02*
X2023622Y3602323D01*
X1992126Y3633819D02*
Y3656457D01*
X2023622Y3687992D01*
G54D12*
X2000858Y722866D02*
X2023622Y745630D01*
X2000858Y687855D02*
Y722866D01*
X1835512Y449921D02*
Y522508D01*
Y59921D02*
Y449921D01*
Y522508D02*
X2000858Y687855D01*
X1835512Y449921D02*
Y511575D01*
X1810433Y35000D02*
X1785512Y59921D01*
X1960630Y822874D02*
Y745630D01*
G54D10*
X1929134Y1271614D02*
Y1294252D01*
Y1271614D02*
X1960630Y1240118D01*
X1929134Y1294252D02*
X1960630Y1325787D01*
Y1413346D01*
Y1240118D02*
Y822874D01*
Y2421220D02*
Y2003976D01*
X1929134Y1862165D02*
Y1884803D01*
Y1862165D02*
X1960630Y1830669D01*
X1929134Y1884803D02*
X1960630Y1916339D01*
Y2003898D01*
Y1830669D02*
Y1413425D01*
X1929134Y2452717D02*
X1960630Y2421220D01*
X1929134Y2475354D02*
X1960630Y2506890D01*
X1929134Y2452717D02*
Y2475354D01*
X1960630Y2506890D02*
Y2594449D01*
X1929134Y3043268D02*
X1960630Y3011772D01*
X1929134Y3065906D02*
X1960630Y3097441D01*
X1929134Y3043268D02*
Y3065906D01*
X1960630Y3097441D02*
Y3185000D01*
Y3011772D02*
Y2594528D01*
X1929134Y4837559D02*
X1960630Y4869094D01*
Y4956654D01*
X1929134Y4814921D02*
Y4837559D01*
Y4814921D02*
X1960630Y4783425D01*
Y4366181D01*
X1929134Y4224370D02*
X1960630Y4192874D01*
X1929134Y4247008D02*
X1960630Y4278543D01*
X1929134Y4224370D02*
Y4247008D01*
X1960630Y4278543D02*
Y4366102D01*
Y4192874D02*
Y3775630D01*
X1929134Y3633819D02*
X1960630Y3602323D01*
X1929134Y3656457D02*
X1960630Y3687992D01*
X1929134Y3633819D02*
Y3656457D01*
X1960630Y3687992D02*
Y3775551D01*
Y3602323D02*
Y3185079D01*
G54D12*
X1937866Y676124D02*
Y722866D01*
X1785512Y523769D02*
X1937866Y676124D01*
Y722866D02*
X1960630Y745630D01*
X1785512Y489921D02*
Y523769D01*
Y59921D02*
Y489921D01*
Y511575D01*
X1760433Y35000D02*
X1735512Y59921D01*
X1897638Y822874D02*
Y745630D01*
G54D10*
X1866142Y1294252D02*
X1897638Y1325787D01*
X1866142Y1271614D02*
X1897638Y1240118D01*
Y822874D01*
X1866142Y1271614D02*
Y1294252D01*
X1897638Y1325787D02*
Y1413346D01*
Y2421220D02*
Y2003976D01*
X1866142Y1884803D02*
X1897638Y1916339D01*
X1866142Y1862165D02*
X1897638Y1830669D01*
Y1413425D01*
X1866142Y1862165D02*
Y1884803D01*
X1897638Y1916339D02*
Y2003898D01*
Y2506890D02*
Y2594449D01*
X1866142Y2452717D02*
X1897638Y2421220D01*
X1866142Y2452717D02*
Y2475354D01*
X1897638Y2506890D01*
X1866142Y3065906D02*
X1897638Y3097441D01*
X1866142Y3043268D02*
X1897638Y3011772D01*
Y3097441D02*
Y3185000D01*
X1866142Y3043268D02*
Y3065906D01*
X1897638Y3011772D02*
Y2594528D01*
X1866142Y4837559D02*
X1897638Y4869094D01*
Y4956654D01*
X1866142Y4814921D02*
X1897638Y4783425D01*
X1866142Y4814921D02*
Y4837559D01*
X1897638Y4783425D02*
Y4366181D01*
X1866142Y4247008D02*
X1897638Y4278543D01*
X1866142Y4224370D02*
X1897638Y4192874D01*
Y4278543D02*
Y4366102D01*
X1866142Y4224370D02*
Y4247008D01*
X1897638Y4192874D02*
Y3775630D01*
X1866142Y3656457D02*
X1897638Y3687992D01*
X1866142Y3633819D02*
X1897638Y3602323D01*
Y3687992D02*
Y3775551D01*
X1866142Y3633819D02*
Y3656457D01*
X1897638Y3602323D02*
Y3185079D01*
G54D12*
X1874874Y722866D02*
X1897638Y745630D01*
X1874874Y661870D02*
Y722866D01*
X1735512Y522508D02*
X1874874Y661870D01*
X1735512Y459921D02*
Y522508D01*
Y59921D02*
Y459921D01*
Y511575D01*
X1710433Y35000D02*
X1685512Y59921D01*
X1834646Y822874D02*
Y745630D01*
G54D10*
Y1325787D02*
Y1413346D01*
X1803150Y1294252D02*
X1834646Y1325787D01*
X1803150Y1271614D02*
Y1294252D01*
X1834646Y1240118D02*
Y822874D01*
X1803150Y1271614D02*
X1834646Y1240118D01*
Y2421220D02*
Y2003976D01*
X1803150Y2475354D02*
X1834646Y2506890D01*
Y1916339D02*
Y2003898D01*
X1803150Y1884803D02*
X1834646Y1916339D01*
X1803150Y1862165D02*
Y1884803D01*
Y2452717D02*
X1834646Y2421220D01*
X1803150Y1862165D02*
X1834646Y1830669D01*
Y2506890D02*
Y2594449D01*
Y1830669D02*
Y1413425D01*
X1803150Y2452717D02*
Y2475354D01*
Y3043268D02*
Y3065906D01*
X1834646Y3097441D02*
Y3185000D01*
X1803150Y3043268D02*
X1834646Y3011772D01*
X1803150Y3065906D02*
X1834646Y3097441D01*
Y3011772D02*
Y2594528D01*
X1803150Y4814921D02*
Y4837559D01*
X1834646Y4869094D02*
Y4956654D01*
X1803150Y4814921D02*
X1834646Y4783425D01*
X1803150Y4837559D02*
X1834646Y4869094D01*
Y4783425D02*
Y4366181D01*
X1803150Y4224370D02*
Y4247008D01*
X1834646Y4278543D02*
Y4366102D01*
X1803150Y4224370D02*
X1834646Y4192874D01*
X1803150Y4247008D02*
X1834646Y4278543D01*
Y4192874D02*
Y3775630D01*
X1803150Y3633819D02*
Y3656457D01*
X1834646Y3687992D02*
Y3775551D01*
X1803150Y3633819D02*
X1834646Y3602323D01*
X1803150Y3656457D02*
X1834646Y3687992D01*
Y3602323D02*
Y3185079D01*
G54D12*
X1811882Y722866D02*
X1834646Y745630D01*
X1685512Y569183D02*
X1811882Y695554D01*
X1685512Y469921D02*
Y569183D01*
Y59921D02*
Y469921D01*
X1811882Y695554D02*
Y722866D01*
X1685512Y469921D02*
Y511575D01*
X1560433Y35000D02*
X1535512Y59921D01*
X1519685Y822874D02*
Y745630D01*
G54D10*
X1488189Y1294252D02*
X1519685Y1325787D01*
X1488189Y1271614D02*
Y1294252D01*
Y1271614D02*
X1519685Y1240118D01*
Y1325787D02*
Y1413346D01*
Y1240118D02*
Y822874D01*
X1488189Y3043268D02*
X1519685Y3011772D01*
Y3097441D02*
Y3185000D01*
X1488189Y3065906D02*
X1519685Y3097441D01*
X1488189Y3043268D02*
Y3065906D01*
X1519685Y1830669D02*
Y1413425D01*
X1488189Y2452717D02*
Y2475354D01*
X1519685Y2506890D01*
X1488189Y2452717D02*
X1519685Y2421220D01*
Y2506890D02*
Y2594449D01*
Y3011772D02*
Y2594528D01*
Y2421220D02*
Y2003976D01*
X1488189Y1884803D02*
X1519685Y1916339D01*
X1488189Y1862165D02*
X1519685Y1830669D01*
X1488189Y1862165D02*
Y1884803D01*
X1519685Y1916339D02*
Y2003898D01*
X1488189Y4224370D02*
X1519685Y4192874D01*
Y4278543D02*
Y4366102D01*
X1488189Y4247008D02*
X1519685Y4278543D01*
X1488189Y4224370D02*
Y4247008D01*
X1519685Y4192874D02*
Y3775630D01*
X1488189Y3633819D02*
X1519685Y3602323D01*
Y3687992D02*
Y3775551D01*
X1488189Y3656457D02*
X1519685Y3687992D01*
X1488189Y3633819D02*
Y3656457D01*
X1519685Y3602323D02*
Y3185079D01*
Y4783425D02*
Y4366181D01*
X1488189Y4837559D02*
X1519685Y4869094D01*
X1488189Y4814921D02*
X1519685Y4783425D01*
X1488189Y4814921D02*
Y4837559D01*
X1519685Y4869094D02*
Y4956654D01*
G54D12*
X1542449Y722866D02*
X1519685Y745630D01*
X1535512Y479921D02*
Y671073D01*
X1542449Y678010D01*
X1535512Y59921D02*
Y479921D01*
X1542449Y678010D02*
Y722866D01*
X1535512Y479921D02*
Y511575D01*
G54D13*
X15151Y1821118D02*
Y5050535D01*
X73542Y5108925D02*
X440863D01*
X15151Y5050535D02*
X73542Y5108925D01*
X74656Y1761614D02*
X15151Y1821118D01*
X395764Y1761614D02*
X74656D01*
X434740Y1800591D02*
X395764Y1761614D01*
X31219Y2025112D02*
X255740Y1800591D01*
X75741Y5088497D02*
X31219Y5043975D01*
Y2025112D01*
X454279Y5088497D02*
X75741D01*
X463127Y5097345D02*
X454279Y5088497D01*
X49811Y2052071D02*
X256016Y1845866D01*
X49811Y5030677D02*
Y2052071D01*
X91630Y5072496D02*
X49811Y5030677D01*
X466385Y5072496D02*
X91630D01*
X496858Y5102969D02*
X466385Y5072496D01*
X637047Y5235653D02*
X649514Y5248120D01*
X533504Y5056496D02*
X637047Y5160039D01*
Y5235653D01*
X170512Y5021063D02*
X205945Y5056496D01*
X170512Y3647093D02*
Y5021063D01*
X205945Y5056496D02*
X533504D01*
X245400Y3572205D02*
X170512Y3647093D01*
X256535Y3572205D02*
X245400D01*
X680354Y5159646D02*
Y5211614D01*
X667904Y5224065D01*
X233504Y5039567D02*
X560276D01*
X680354Y5159646D01*
X187047Y3663189D02*
Y4993110D01*
X667904Y5224065D02*
X657127D01*
X187047Y4993110D02*
X233504Y5039567D01*
X232756Y3617480D02*
X187047Y3663189D01*
X256016Y3617480D02*
X232756D01*
%LPC*%
G01*
G75*
X232756Y3617480D02*
G54D14*
X2694213Y1232953D02*
X2690869Y1233443D01*
X2687806Y1234872D01*
X2685283Y1237119D01*
X2683510Y1239996D01*
X2682637Y1243261D01*
X2682559Y1244606D01*
X2694213Y1232953D02*
X2984921D01*
X2996575Y1244606D02*
X2996085Y1241263D01*
X2994656Y1238200D01*
X2992409Y1235676D01*
X2989531Y1233903D01*
X2986267Y1233031D01*
X2984921Y1232953D01*
X2996575Y4787913D02*
Y4888465D01*
X2984921Y4900118D02*
X2988265Y4899628D01*
X2991328Y4898199D01*
X2993851Y4895952D01*
X2995624Y4893075D01*
X2996497Y4889810D01*
X2996575Y4888465D01*
X2694213Y4900118D02*
X2984921D01*
X2682559Y4888465D02*
X2683049Y4891808D01*
X2684478Y4894871D01*
X2686725Y4897395D01*
X2689602Y4899167D01*
X2692867Y4900040D01*
X2694213Y4900118D01*
X2996575Y4787913D02*
X2996085Y4784570D01*
X2994656Y4781507D01*
X2992409Y4778983D01*
X2989531Y4777211D01*
X2986267Y4776338D01*
X2984921Y4776260D01*
X2694213D02*
X2984921D01*
X2694213D02*
X2690869Y4776750D01*
X2687806Y4778179D01*
X2685283Y4780426D01*
X2683510Y4783303D01*
X2682637Y4786568D01*
X2682559Y4787913D01*
Y4888465D01*
X2996575Y4197362D02*
Y4297913D01*
X2984921Y4309567D02*
X2988265Y4309077D01*
X2991328Y4307648D01*
X2993851Y4305401D01*
X2995624Y4302524D01*
X2996497Y4299259D01*
X2996575Y4297913D01*
X2694213Y4309567D02*
X2984921D01*
X2682559Y4297913D02*
X2683049Y4301257D01*
X2684478Y4304320D01*
X2686725Y4306843D01*
X2689602Y4308616D01*
X2692867Y4309489D01*
X2694213Y4309567D01*
X2996575Y4197362D02*
X2996085Y4194019D01*
X2994656Y4190956D01*
X2992409Y4188432D01*
X2989531Y4186659D01*
X2986267Y4185787D01*
X2984921Y4185709D01*
X2694213D02*
X2984921D01*
X2694213D02*
X2690869Y4186199D01*
X2687806Y4187627D01*
X2685283Y4189875D01*
X2683510Y4192752D01*
X2682637Y4196017D01*
X2682559Y4197362D01*
Y4297913D01*
X2996575Y3606811D02*
Y3707362D01*
X2984921Y3719016D02*
X2988265Y3718526D01*
X2991328Y3717097D01*
X2993851Y3714850D01*
X2995624Y3711972D01*
X2996497Y3708708D01*
X2996575Y3707362D01*
X2694213Y3719016D02*
X2984921D01*
X2682559Y3707362D02*
X2683049Y3710706D01*
X2684478Y3713769D01*
X2686725Y3716292D01*
X2689602Y3718065D01*
X2692867Y3718938D01*
X2694213Y3719016D01*
X2996575Y3606811D02*
X2996085Y3603467D01*
X2994656Y3600405D01*
X2992409Y3597881D01*
X2989531Y3596108D01*
X2986267Y3595235D01*
X2984921Y3595157D01*
X2694213D02*
X2984921D01*
X2694213D02*
X2690869Y3595647D01*
X2687806Y3597076D01*
X2685283Y3599324D01*
X2683510Y3602201D01*
X2682637Y3605466D01*
X2682559Y3606811D01*
Y3707362D01*
X2996575Y3016260D02*
Y3116811D01*
X2984921Y3128465D02*
X2988265Y3127975D01*
X2991328Y3126546D01*
X2993851Y3124298D01*
X2995624Y3121421D01*
X2996497Y3118156D01*
X2996575Y3116811D01*
X2694213Y3128465D02*
X2984921D01*
X2682559Y3116811D02*
X2683049Y3120155D01*
X2684478Y3123217D01*
X2686725Y3125741D01*
X2689602Y3127514D01*
X2692867Y3128387D01*
X2694213Y3128465D01*
X2996575Y3016260D02*
X2996085Y3012916D01*
X2994656Y3009854D01*
X2992409Y3007330D01*
X2989531Y3005557D01*
X2986267Y3004684D01*
X2984921Y3004606D01*
X2694213D02*
X2984921D01*
X2694213D02*
X2690869Y3005096D01*
X2687806Y3006525D01*
X2685283Y3008773D01*
X2683510Y3011650D01*
X2682637Y3014914D01*
X2682559Y3016260D01*
Y3116811D01*
X2996575Y2425709D02*
Y2526260D01*
X2984921Y2537913D02*
X2988265Y2537423D01*
X2991328Y2535995D01*
X2993851Y2533747D01*
X2995624Y2530870D01*
X2996497Y2527605D01*
X2996575Y2526260D01*
X2694213Y2537913D02*
X2984921D01*
X2682559Y2526260D02*
X2683049Y2529604D01*
X2684478Y2532666D01*
X2686725Y2535190D01*
X2689602Y2536963D01*
X2692867Y2537835D01*
X2694213Y2537913D01*
X2996575Y2425709D02*
X2996085Y2422365D01*
X2994656Y2419302D01*
X2992409Y2416779D01*
X2989531Y2415006D01*
X2986267Y2414133D01*
X2984921Y2414055D01*
X2694213D02*
X2984921D01*
X2694213D02*
X2690869Y2414545D01*
X2687806Y2415974D01*
X2685283Y2418221D01*
X2683510Y2421099D01*
X2682637Y2424363D01*
X2682559Y2425709D01*
Y2526260D01*
X2996575Y1835157D02*
Y1935709D01*
X2984921Y1947362D02*
X2988265Y1946872D01*
X2991328Y1945443D01*
X2993851Y1943196D01*
X2995624Y1940319D01*
X2996497Y1937054D01*
X2996575Y1935709D01*
X2694213Y1947362D02*
X2984921D01*
X2682559Y1935709D02*
X2683049Y1939052D01*
X2684478Y1942115D01*
X2686725Y1944639D01*
X2689602Y1946412D01*
X2692867Y1947284D01*
X2694213Y1947362D01*
X2996575Y1835157D02*
X2996085Y1831814D01*
X2994656Y1828751D01*
X2992409Y1826227D01*
X2989531Y1824455D01*
X2986267Y1823582D01*
X2984921Y1823504D01*
X2694213D02*
X2984921D01*
X2694213D02*
X2690869Y1823994D01*
X2687806Y1825423D01*
X2685283Y1827670D01*
X2683510Y1830547D01*
X2682637Y1833812D01*
X2682559Y1835157D01*
Y1935709D01*
X2996575Y1244606D02*
Y1345157D01*
X2984921Y1356811D02*
X2988265Y1356321D01*
X2991328Y1354892D01*
X2993851Y1352645D01*
X2995624Y1349768D01*
X2996497Y1346503D01*
X2996575Y1345157D01*
X2694213Y1356811D02*
X2984921D01*
X2682559Y1345157D02*
X2683049Y1348501D01*
X2684478Y1351564D01*
X2686725Y1354088D01*
X2689602Y1355860D01*
X2692867Y1356733D01*
X2694213Y1356811D01*
X2682559Y1244606D02*
Y1345157D01*
X2694213Y766260D02*
X2984921D01*
X2682559Y754606D02*
X2683049Y757950D01*
X2684478Y761013D01*
X2686725Y763536D01*
X2689602Y765309D01*
X2692867Y766182D01*
X2694213Y766260D01*
X2984921D02*
X2988265Y765770D01*
X2991328Y764341D01*
X2993851Y762094D01*
X2995624Y759216D01*
X2996497Y755952D01*
X2996575Y754606D01*
Y654055D02*
Y754606D01*
Y654055D02*
X2996085Y650711D01*
X2994656Y647649D01*
X2992409Y645125D01*
X2989531Y643352D01*
X2986267Y642480D01*
X2984921Y642402D01*
X2694213D02*
X2690869Y642892D01*
X2687806Y644320D01*
X2685283Y646568D01*
X2683510Y649445D01*
X2682637Y652710D01*
X2682559Y654055D01*
Y754606D01*
X2694213Y642402D02*
X2984921D01*
X3070866Y5409449D02*
X3070374Y5414244D01*
X3068920Y5418839D01*
X3066562Y5423043D01*
X3063401Y5426682D01*
X3059566Y5429602D01*
X3055219Y5431684D01*
X3050539Y5432840D01*
X3047244Y5433071D01*
X0Y5409449D02*
X492Y5414244D01*
X1947Y5418839D01*
X4304Y5423043D01*
X7466Y5426682D01*
X11300Y5429602D01*
X15647Y5431684D01*
X20327Y5432840D01*
X23622Y5433071D01*
X3047244D02*
X23622D01*
X3070866Y23622D02*
X3070374Y18827D01*
X3068920Y14232D01*
X3066562Y10028D01*
X3063401Y6389D01*
X3059566Y3469D01*
X3055219Y1387D01*
X3050539Y231D01*
X3047244Y0D01*
X3070866Y23622D02*
Y5409449D01*
X0Y23622D02*
X492Y18827D01*
X1947Y14232D01*
X4304Y10028D01*
X7466Y6389D01*
X11300Y3469D01*
X15647Y1387D01*
X20327Y231D01*
X23622Y0D01*
X0Y23622D02*
Y5409449D01*
X23622Y0D02*
X3047244D01*
G54D15*
X472082Y5091633D02*
X468800Y5088351D01*
M02*
