%TF.GenerationSoftware,KiCad,Pcbnew,(5.1.9)-1*%
%TF.CreationDate,2021-12-19T11:00:55-05:00*%
%TF.ProjectId,backplane-rbf,6261636b-706c-4616-9e65-2d7262662e6b,rev?*%
%TF.SameCoordinates,Original*%
%TF.FileFunction,Paste,Bot*%
%TF.FilePolarity,Positive*%
%FSLAX46Y46*%
G04 Gerber Fmt 4.6, Leading zero omitted, Abs format (unit mm)*
G04 Created by KiCad (PCBNEW (5.1.9)-1) date 2021-12-19 11:00:55*
%MOMM*%
%LPD*%
G01*
G04 APERTURE LIST*
%ADD10R,0.280000X1.350000*%
G04 APERTURE END LIST*
D10*
X153750000Y-97950000D03*
X153750000Y-92050000D03*
X153250000Y-97950000D03*
X153250000Y-92050000D03*
X152750000Y-97950000D03*
X152750000Y-92050000D03*
X152250000Y-97950000D03*
X152250000Y-92050000D03*
X151750000Y-97950000D03*
X151750000Y-92050000D03*
X151250000Y-97950000D03*
X151250000Y-92050000D03*
X150750000Y-97950000D03*
X150750000Y-92050000D03*
X150250000Y-97950000D03*
X150250000Y-92050000D03*
X149750000Y-97950000D03*
X149750000Y-92050000D03*
X149250000Y-97950000D03*
X149250000Y-92050000D03*
X148750000Y-97950000D03*
X148750000Y-92050000D03*
X148250000Y-97950000D03*
X148250000Y-92050000D03*
X147750000Y-97950000D03*
X147750000Y-92050000D03*
X147250000Y-97950000D03*
X147250000Y-92050000D03*
X146750000Y-97950000D03*
X146750000Y-92050000D03*
X145250000Y-97950000D03*
X145250000Y-92050000D03*
X144750000Y-97950000D03*
X144750000Y-92050000D03*
X144250000Y-97950000D03*
X144250000Y-92050000D03*
X143750000Y-97950000D03*
X143750000Y-92050000D03*
X143250000Y-97950000D03*
X143250000Y-92050000D03*
X142750000Y-97950000D03*
X142750000Y-92050000D03*
X142250000Y-97950000D03*
X142250000Y-92050000D03*
X141750000Y-97950000D03*
X141750000Y-92050000D03*
X141250000Y-97950000D03*
X141250000Y-92050000D03*
X140750000Y-97950000D03*
X140750000Y-92050000D03*
X140250000Y-97950000D03*
X140250000Y-92050000D03*
X139750000Y-97950000D03*
X139750000Y-92050000D03*
X139250000Y-97950000D03*
X139250000Y-92050000D03*
X138750000Y-97950000D03*
X138750000Y-92050000D03*
X138250000Y-97950000D03*
X138250000Y-92050000D03*
X132750000Y-97950000D03*
X132750000Y-92050000D03*
X132250000Y-97950000D03*
X132250000Y-92050000D03*
X131750000Y-97950000D03*
X131750000Y-92050000D03*
X131250000Y-97950000D03*
X131250000Y-92050000D03*
X130750000Y-97950000D03*
X130750000Y-92050000D03*
X130250000Y-97950000D03*
X130250000Y-92050000D03*
X129750000Y-97950000D03*
X129750000Y-92050000D03*
X129250000Y-97950000D03*
X129250000Y-92050000D03*
X128750000Y-97950000D03*
X128750000Y-92050000D03*
X128250000Y-97950000D03*
X128250000Y-92050000D03*
X127750000Y-97950000D03*
X127750000Y-92050000D03*
X127250000Y-97950000D03*
X127250000Y-92050000D03*
X126750000Y-97950000D03*
X126750000Y-92050000D03*
X126250000Y-97950000D03*
X126250000Y-92050000D03*
X125750000Y-97950000D03*
X125750000Y-92050000D03*
X124250000Y-97950000D03*
X124250000Y-92050000D03*
X123750000Y-97950000D03*
X123750000Y-92050000D03*
X123250000Y-97950000D03*
X123250000Y-92050000D03*
X122750000Y-97950000D03*
X122750000Y-92050000D03*
X122250000Y-97950000D03*
X122250000Y-92050000D03*
X121750000Y-97950000D03*
X121750000Y-92050000D03*
X121250000Y-97950000D03*
X121250000Y-92050000D03*
X120750000Y-97950000D03*
X120750000Y-92050000D03*
X120250000Y-97950000D03*
X120250000Y-92050000D03*
X119750000Y-97950000D03*
X119750000Y-92050000D03*
X119250000Y-97950000D03*
X119250000Y-92050000D03*
X118750000Y-97950000D03*
X118750000Y-92050000D03*
X118250000Y-97950000D03*
X118250000Y-92050000D03*
X117750000Y-97950000D03*
X117750000Y-92050000D03*
X117250000Y-97950000D03*
X117250000Y-92050000D03*
M02*
