G04 #@! TF.GenerationSoftware,KiCad,Pcbnew,(5.1.10)-1*
G04 #@! TF.CreationDate,2021-12-22T09:51:40-05:00*
G04 #@! TF.ProjectId,backplane-rbf,6261636b-706c-4616-9e65-2d7262662e6b,rev?*
G04 #@! TF.SameCoordinates,Original*
G04 #@! TF.FileFunction,Legend,Bot*
G04 #@! TF.FilePolarity,Positive*
%FSLAX46Y46*%
G04 Gerber Fmt 4.6, Leading zero omitted, Abs format (unit mm)*
G04 Created by KiCad (PCBNEW (5.1.10)-1) date 2021-12-22 09:51:40*
%MOMM*%
%LPD*%
G01*
G04 APERTURE LIST*
%ADD10C,0.120000*%
%ADD11C,0.150000*%
%ADD12C,0.400000*%
G04 APERTURE END LIST*
D10*
X159000000Y-90000000D02*
X157000000Y-90000000D01*
X158000000Y-89000000D02*
X159000000Y-90000000D01*
X158000000Y-89000000D02*
X157000000Y-90000000D01*
X158000000Y-90000000D02*
X158000000Y-95000000D01*
X131446718Y-92212135D02*
G75*
G03*
X130858007Y-91841236I-376872J54475D01*
G01*
X131208501Y-92316210D02*
G75*
G03*
X130874880Y-92090666I-206735J53716D01*
G01*
X130913374Y-92514095D02*
G75*
G03*
X130913374Y-92514095I-75000J0D01*
G01*
X130410851Y-92713404D02*
X130838374Y-92514095D01*
X130830186Y-92985723D02*
X130838374Y-92514095D01*
X130280707Y-92271178D02*
G75*
G03*
X131287113Y-92924746I693827J-33249D01*
G01*
X130484359Y-93059231D02*
X130593287Y-92891497D01*
X129931469Y-93585187D02*
G75*
G03*
X129931469Y-93585187I-50990J0D01*
G01*
X130300484Y-93824828D02*
G75*
G03*
X130300484Y-93824828I-50990J0D01*
G01*
X129384225Y-93835249D02*
G75*
G03*
X130222895Y-94379889I419335J-272320D01*
G01*
X126930865Y-91645837D02*
X128608206Y-92735116D01*
X128063567Y-93573786D02*
X128199727Y-93364118D01*
X126522386Y-92274840D02*
X126658545Y-92065173D01*
X128199727Y-93364118D02*
X126522386Y-92274840D01*
X126794705Y-91855505D02*
X126930865Y-91645837D01*
X128472046Y-92944783D02*
X126794705Y-91855505D01*
X126658545Y-92065173D02*
X128335886Y-93154451D01*
X128325030Y-92253128D02*
X127905695Y-91980809D01*
X126669401Y-92966495D02*
X127486360Y-91708489D01*
X127088737Y-93238815D02*
X126669401Y-92966495D01*
X127508072Y-93511134D02*
X128325030Y-92253128D01*
X127905695Y-91980809D02*
X127088737Y-93238815D01*
X127927407Y-93783454D02*
X126250066Y-92694176D01*
X128335886Y-93154451D02*
X127927407Y-93783454D01*
X128744366Y-92525448D02*
X128335886Y-93154451D01*
X127067025Y-91436170D02*
X128744366Y-92525448D01*
X126250066Y-92694176D02*
X127067025Y-91436170D01*
X126386226Y-92484508D02*
X128063567Y-93573786D01*
X132937719Y-95248643D02*
X132120760Y-96506649D01*
X132518383Y-94976324D02*
X132937719Y-95248643D01*
X131701425Y-96234329D02*
X132518383Y-94976324D01*
X131282089Y-95962010D02*
X131701425Y-96234329D01*
X132099048Y-94704004D02*
X131282089Y-95962010D01*
X132676255Y-96569301D02*
X130998914Y-95480023D01*
X132812415Y-96359633D02*
X132676255Y-96569301D01*
X131135074Y-95270355D02*
X132812415Y-96359633D01*
X132948575Y-96149965D02*
X131271233Y-95060687D01*
X133084734Y-95940298D02*
X132948575Y-96149965D01*
X131407393Y-94851020D02*
X133084734Y-95940298D01*
X131543553Y-94641352D02*
X131407393Y-94851020D01*
X133220894Y-95730630D02*
X131543553Y-94641352D01*
X130862754Y-95689690D02*
X131271233Y-95060687D01*
X132540095Y-96778968D02*
X130862754Y-95689690D01*
X133357054Y-95520963D02*
X132540095Y-96778968D01*
X131679713Y-94431684D02*
X133357054Y-95520963D01*
X131271233Y-95060687D02*
X131679713Y-94431684D01*
X128755222Y-93426770D02*
X128335886Y-93154451D01*
X130851898Y-94788368D02*
X131271233Y-95060687D01*
X128755222Y-93426770D02*
X129122761Y-95155907D01*
X128755222Y-93426770D02*
X130484359Y-93059231D01*
X130484359Y-93059231D02*
X130851898Y-94788368D01*
X129122761Y-95155907D02*
X130851898Y-94788368D01*
D11*
X157707127Y-98785714D02*
X157832127Y-99785714D01*
X157713080Y-98833333D02*
X157611889Y-98785714D01*
X157421413Y-98785714D01*
X157332127Y-98833333D01*
X157290461Y-98880952D01*
X157254747Y-98976190D01*
X157290461Y-99261904D01*
X157349985Y-99357142D01*
X157403556Y-99404761D01*
X157504747Y-99452380D01*
X157695223Y-99452380D01*
X157784508Y-99404761D01*
X156742842Y-99452380D02*
X156832127Y-99404761D01*
X156867842Y-99309523D01*
X156760699Y-98452380D01*
X155974985Y-99404761D02*
X156076175Y-99452380D01*
X156266651Y-99452380D01*
X156355937Y-99404761D01*
X156391651Y-99309523D01*
X156344032Y-98928571D01*
X156284508Y-98833333D01*
X156183318Y-98785714D01*
X155992842Y-98785714D01*
X155903556Y-98833333D01*
X155867842Y-98928571D01*
X155879747Y-99023809D01*
X156367842Y-99119047D01*
X155076175Y-99452380D02*
X155010699Y-98928571D01*
X155046413Y-98833333D01*
X155135699Y-98785714D01*
X155326175Y-98785714D01*
X155427366Y-98833333D01*
X155070223Y-99404761D02*
X155171413Y-99452380D01*
X155409508Y-99452380D01*
X155498794Y-99404761D01*
X155534508Y-99309523D01*
X155522604Y-99214285D01*
X155463080Y-99119047D01*
X155361889Y-99071428D01*
X155123794Y-99071428D01*
X155022604Y-99023809D01*
X154641651Y-99404761D02*
X154552366Y-99452380D01*
X154361889Y-99452380D01*
X154260699Y-99404761D01*
X154201175Y-99309523D01*
X154195223Y-99261904D01*
X154230937Y-99166666D01*
X154320223Y-99119047D01*
X154463080Y-99119047D01*
X154552366Y-99071428D01*
X154588080Y-98976190D01*
X154582127Y-98928571D01*
X154522604Y-98833333D01*
X154421413Y-98785714D01*
X154278556Y-98785714D01*
X154189270Y-98833333D01*
X153403556Y-99404761D02*
X153504747Y-99452380D01*
X153695223Y-99452380D01*
X153784508Y-99404761D01*
X153820223Y-99309523D01*
X153772604Y-98928571D01*
X153713080Y-98833333D01*
X153611889Y-98785714D01*
X153421413Y-98785714D01*
X153332127Y-98833333D01*
X153296413Y-98928571D01*
X153308318Y-99023809D01*
X153796413Y-99119047D01*
D12*
X156428571Y-102404761D02*
X157095238Y-101452380D01*
X157571428Y-102404761D02*
X157571428Y-100404761D01*
X156809523Y-100404761D01*
X156619047Y-100500000D01*
X156523809Y-100595238D01*
X156428571Y-100785714D01*
X156428571Y-101071428D01*
X156523809Y-101261904D01*
X156619047Y-101357142D01*
X156809523Y-101452380D01*
X157571428Y-101452380D01*
X155571428Y-101357142D02*
X154904761Y-101357142D01*
X154619047Y-102404761D02*
X155571428Y-102404761D01*
X155571428Y-100404761D01*
X154619047Y-100404761D01*
X153761904Y-102404761D02*
X153761904Y-100404761D01*
X153095238Y-101833333D01*
X152428571Y-100404761D01*
X152428571Y-102404761D01*
X151095238Y-100404761D02*
X150714285Y-100404761D01*
X150523809Y-100500000D01*
X150333333Y-100690476D01*
X150238095Y-101071428D01*
X150238095Y-101738095D01*
X150333333Y-102119047D01*
X150523809Y-102309523D01*
X150714285Y-102404761D01*
X151095238Y-102404761D01*
X151285714Y-102309523D01*
X151476190Y-102119047D01*
X151571428Y-101738095D01*
X151571428Y-101071428D01*
X151476190Y-100690476D01*
X151285714Y-100500000D01*
X151095238Y-100404761D01*
X149666666Y-100404761D02*
X149000000Y-102404761D01*
X148333333Y-100404761D01*
X147666666Y-101357142D02*
X147000000Y-101357142D01*
X146714285Y-102404761D02*
X147666666Y-102404761D01*
X147666666Y-100404761D01*
X146714285Y-100404761D01*
X143666666Y-101357142D02*
X143380952Y-101452380D01*
X143285714Y-101547619D01*
X143190476Y-101738095D01*
X143190476Y-102023809D01*
X143285714Y-102214285D01*
X143380952Y-102309523D01*
X143571428Y-102404761D01*
X144333333Y-102404761D01*
X144333333Y-100404761D01*
X143666666Y-100404761D01*
X143476190Y-100500000D01*
X143380952Y-100595238D01*
X143285714Y-100785714D01*
X143285714Y-100976190D01*
X143380952Y-101166666D01*
X143476190Y-101261904D01*
X143666666Y-101357142D01*
X144333333Y-101357142D01*
X142333333Y-101357142D02*
X141666666Y-101357142D01*
X141380952Y-102404761D02*
X142333333Y-102404761D01*
X142333333Y-100404761D01*
X141380952Y-100404761D01*
X139857142Y-101357142D02*
X140523809Y-101357142D01*
X140523809Y-102404761D02*
X140523809Y-100404761D01*
X139571428Y-100404761D01*
X138428571Y-100404761D02*
X138047619Y-100404761D01*
X137857142Y-100500000D01*
X137666666Y-100690476D01*
X137571428Y-101071428D01*
X137571428Y-101738095D01*
X137666666Y-102119047D01*
X137857142Y-102309523D01*
X138047619Y-102404761D01*
X138428571Y-102404761D01*
X138619047Y-102309523D01*
X138809523Y-102119047D01*
X138904761Y-101738095D01*
X138904761Y-101071428D01*
X138809523Y-100690476D01*
X138619047Y-100500000D01*
X138428571Y-100404761D01*
X135571428Y-102404761D02*
X136238095Y-101452380D01*
X136714285Y-102404761D02*
X136714285Y-100404761D01*
X135952380Y-100404761D01*
X135761904Y-100500000D01*
X135666666Y-100595238D01*
X135571428Y-100785714D01*
X135571428Y-101071428D01*
X135666666Y-101261904D01*
X135761904Y-101357142D01*
X135952380Y-101452380D01*
X136714285Y-101452380D01*
X134714285Y-101357142D02*
X134047619Y-101357142D01*
X133761904Y-102404761D02*
X134714285Y-102404761D01*
X134714285Y-100404761D01*
X133761904Y-100404761D01*
X130714285Y-101357142D02*
X131380952Y-101357142D01*
X131380952Y-102404761D02*
X131380952Y-100404761D01*
X130428571Y-100404761D01*
X128714285Y-102404761D02*
X129666666Y-102404761D01*
X129666666Y-100404761D01*
X128047619Y-102404761D02*
X128047619Y-100404761D01*
X126047619Y-100500000D02*
X126238095Y-100404761D01*
X126523809Y-100404761D01*
X126809523Y-100500000D01*
X127000000Y-100690476D01*
X127095238Y-100880952D01*
X127190476Y-101261904D01*
X127190476Y-101547619D01*
X127095238Y-101928571D01*
X127000000Y-102119047D01*
X126809523Y-102309523D01*
X126523809Y-102404761D01*
X126333333Y-102404761D01*
X126047619Y-102309523D01*
X125952380Y-102214285D01*
X125952380Y-101547619D01*
X126333333Y-101547619D01*
X125095238Y-102404761D02*
X125095238Y-100404761D01*
X125095238Y-101357142D02*
X123952380Y-101357142D01*
X123952380Y-102404761D02*
X123952380Y-100404761D01*
X123285714Y-100404761D02*
X122142857Y-100404761D01*
X122714285Y-102404761D02*
X122714285Y-100404761D01*
X141238095Y-92904761D02*
X141904761Y-91952380D01*
X142380952Y-92904761D02*
X142380952Y-90904761D01*
X141619047Y-90904761D01*
X141428571Y-91000000D01*
X141333333Y-91095238D01*
X141238095Y-91285714D01*
X141238095Y-91571428D01*
X141333333Y-91761904D01*
X141428571Y-91857142D01*
X141619047Y-91952380D01*
X142380952Y-91952380D01*
X139714285Y-91857142D02*
X139428571Y-91952380D01*
X139333333Y-92047619D01*
X139238095Y-92238095D01*
X139238095Y-92523809D01*
X139333333Y-92714285D01*
X139428571Y-92809523D01*
X139619047Y-92904761D01*
X140380952Y-92904761D01*
X140380952Y-90904761D01*
X139714285Y-90904761D01*
X139523809Y-91000000D01*
X139428571Y-91095238D01*
X139333333Y-91285714D01*
X139333333Y-91476190D01*
X139428571Y-91666666D01*
X139523809Y-91761904D01*
X139714285Y-91857142D01*
X140380952Y-91857142D01*
X137714285Y-91857142D02*
X138380952Y-91857142D01*
X138380952Y-92904761D02*
X138380952Y-90904761D01*
X137428571Y-90904761D01*
M02*
