G04 #@! TF.GenerationSoftware,KiCad,Pcbnew,(5.1.9)-1*
G04 #@! TF.CreationDate,2021-12-19T15:25:51-05:00*
G04 #@! TF.ProjectId,backplane-rbf,6261636b-706c-4616-9e65-2d7262662e6b,rev?*
G04 #@! TF.SameCoordinates,Original*
G04 #@! TF.FileFunction,Legend,Top*
G04 #@! TF.FilePolarity,Positive*
%FSLAX46Y46*%
G04 Gerber Fmt 4.6, Leading zero omitted, Abs format (unit mm)*
G04 Created by KiCad (PCBNEW (5.1.9)-1) date 2021-12-19 15:25:51*
%MOMM*%
%LPD*%
G01*
G04 APERTURE LIST*
%ADD10C,0.120000*%
%ADD11C,0.150000*%
%ADD12C,0.400000*%
G04 APERTURE END LIST*
D10*
X149053282Y-91212135D02*
G75*
G02*
X149641993Y-90841236I376872J54475D01*
G01*
X149291499Y-91316210D02*
G75*
G02*
X149625120Y-91090666I206735J53716D01*
G01*
X149736626Y-91514095D02*
G75*
G03*
X149736626Y-91514095I-75000J0D01*
G01*
X150089149Y-91713404D02*
X149661626Y-91514095D01*
X149669814Y-91985723D02*
X149661626Y-91514095D01*
X150219293Y-91271178D02*
G75*
G02*
X149212887Y-91924746I-693827J-33249D01*
G01*
X150015641Y-92059231D02*
X149906713Y-91891497D01*
X150670511Y-92585187D02*
G75*
G03*
X150670511Y-92585187I-50990J0D01*
G01*
X150301496Y-92824828D02*
G75*
G03*
X150301496Y-92824828I-50990J0D01*
G01*
X151115775Y-92835249D02*
G75*
G02*
X150277105Y-93379889I-419335J-272320D01*
G01*
X153569135Y-90645837D02*
X151891794Y-91735116D01*
X152436433Y-92573786D02*
X152300273Y-92364118D01*
X153977614Y-91274840D02*
X153841455Y-91065173D01*
X152300273Y-92364118D02*
X153977614Y-91274840D01*
X153705295Y-90855505D02*
X153569135Y-90645837D01*
X152027954Y-91944783D02*
X153705295Y-90855505D01*
X153841455Y-91065173D02*
X152164114Y-92154451D01*
X152174970Y-91253128D02*
X152594305Y-90980809D01*
X153830599Y-91966495D02*
X153013640Y-90708489D01*
X153411263Y-92238815D02*
X153830599Y-91966495D01*
X152991928Y-92511134D02*
X152174970Y-91253128D01*
X152594305Y-90980809D02*
X153411263Y-92238815D01*
X152572593Y-92783454D02*
X154249934Y-91694176D01*
X152164114Y-92154451D02*
X152572593Y-92783454D01*
X151755634Y-91525448D02*
X152164114Y-92154451D01*
X153432975Y-90436170D02*
X151755634Y-91525448D01*
X154249934Y-91694176D02*
X153432975Y-90436170D01*
X154113774Y-91484508D02*
X152436433Y-92573786D01*
X147562281Y-94248643D02*
X148379240Y-95506649D01*
X147981617Y-93976324D02*
X147562281Y-94248643D01*
X148798575Y-95234329D02*
X147981617Y-93976324D01*
X149217911Y-94962010D02*
X148798575Y-95234329D01*
X148400952Y-93704004D02*
X149217911Y-94962010D01*
X147823745Y-95569301D02*
X149501086Y-94480023D01*
X147687585Y-95359633D02*
X147823745Y-95569301D01*
X149364926Y-94270355D02*
X147687585Y-95359633D01*
X147551425Y-95149965D02*
X149228767Y-94060687D01*
X147415266Y-94940298D02*
X147551425Y-95149965D01*
X149092607Y-93851020D02*
X147415266Y-94940298D01*
X148956447Y-93641352D02*
X149092607Y-93851020D01*
X147279106Y-94730630D02*
X148956447Y-93641352D01*
X149637246Y-94689690D02*
X149228767Y-94060687D01*
X147959905Y-95778968D02*
X149637246Y-94689690D01*
X147142946Y-94520963D02*
X147959905Y-95778968D01*
X148820287Y-93431684D02*
X147142946Y-94520963D01*
X149228767Y-94060687D02*
X148820287Y-93431684D01*
X151744778Y-92426770D02*
X152164114Y-92154451D01*
X149648102Y-93788368D02*
X149228767Y-94060687D01*
X151744778Y-92426770D02*
X151377239Y-94155907D01*
X151744778Y-92426770D02*
X150015641Y-92059231D01*
X150015641Y-92059231D02*
X149648102Y-93788368D01*
X151377239Y-94155907D02*
X149648102Y-93788368D01*
D11*
X117992872Y-94685714D02*
X117867872Y-95685714D01*
X117986919Y-94733333D02*
X118088110Y-94685714D01*
X118278586Y-94685714D01*
X118367872Y-94733333D01*
X118409538Y-94780952D01*
X118445252Y-94876190D01*
X118409538Y-95161904D01*
X118350014Y-95257142D01*
X118296443Y-95304761D01*
X118195252Y-95352380D01*
X118004776Y-95352380D01*
X117915491Y-95304761D01*
X118957157Y-95352380D02*
X118867872Y-95304761D01*
X118832157Y-95209523D01*
X118939300Y-94352380D01*
X119725014Y-95304761D02*
X119623824Y-95352380D01*
X119433348Y-95352380D01*
X119344062Y-95304761D01*
X119308348Y-95209523D01*
X119355967Y-94828571D01*
X119415491Y-94733333D01*
X119516681Y-94685714D01*
X119707157Y-94685714D01*
X119796443Y-94733333D01*
X119832157Y-94828571D01*
X119820252Y-94923809D01*
X119332157Y-95019047D01*
X120623824Y-95352380D02*
X120689300Y-94828571D01*
X120653586Y-94733333D01*
X120564300Y-94685714D01*
X120373824Y-94685714D01*
X120272633Y-94733333D01*
X120629776Y-95304761D02*
X120528586Y-95352380D01*
X120290491Y-95352380D01*
X120201205Y-95304761D01*
X120165491Y-95209523D01*
X120177395Y-95114285D01*
X120236919Y-95019047D01*
X120338110Y-94971428D01*
X120576205Y-94971428D01*
X120677395Y-94923809D01*
X121058348Y-95304761D02*
X121147633Y-95352380D01*
X121338110Y-95352380D01*
X121439300Y-95304761D01*
X121498824Y-95209523D01*
X121504776Y-95161904D01*
X121469062Y-95066666D01*
X121379776Y-95019047D01*
X121236919Y-95019047D01*
X121147633Y-94971428D01*
X121111919Y-94876190D01*
X121117872Y-94828571D01*
X121177395Y-94733333D01*
X121278586Y-94685714D01*
X121421443Y-94685714D01*
X121510729Y-94733333D01*
X122296443Y-95304761D02*
X122195252Y-95352380D01*
X122004776Y-95352380D01*
X121915491Y-95304761D01*
X121879776Y-95209523D01*
X121927395Y-94828571D01*
X121986919Y-94733333D01*
X122088110Y-94685714D01*
X122278586Y-94685714D01*
X122367872Y-94733333D01*
X122403586Y-94828571D01*
X122391681Y-94923809D01*
X121903586Y-95019047D01*
D12*
X118971428Y-98604761D02*
X118304761Y-97652380D01*
X117828571Y-98604761D02*
X117828571Y-96604761D01*
X118590476Y-96604761D01*
X118780952Y-96700000D01*
X118876190Y-96795238D01*
X118971428Y-96985714D01*
X118971428Y-97271428D01*
X118876190Y-97461904D01*
X118780952Y-97557142D01*
X118590476Y-97652380D01*
X117828571Y-97652380D01*
X119828571Y-97557142D02*
X120495238Y-97557142D01*
X120780952Y-98604761D02*
X119828571Y-98604761D01*
X119828571Y-96604761D01*
X120780952Y-96604761D01*
X121638095Y-98604761D02*
X121638095Y-96604761D01*
X122304761Y-98033333D01*
X122971428Y-96604761D01*
X122971428Y-98604761D01*
X124304761Y-96604761D02*
X124685714Y-96604761D01*
X124876190Y-96700000D01*
X125066666Y-96890476D01*
X125161904Y-97271428D01*
X125161904Y-97938095D01*
X125066666Y-98319047D01*
X124876190Y-98509523D01*
X124685714Y-98604761D01*
X124304761Y-98604761D01*
X124114285Y-98509523D01*
X123923809Y-98319047D01*
X123828571Y-97938095D01*
X123828571Y-97271428D01*
X123923809Y-96890476D01*
X124114285Y-96700000D01*
X124304761Y-96604761D01*
X125733333Y-96604761D02*
X126400000Y-98604761D01*
X127066666Y-96604761D01*
X127733333Y-97557142D02*
X128400000Y-97557142D01*
X128685714Y-98604761D02*
X127733333Y-98604761D01*
X127733333Y-96604761D01*
X128685714Y-96604761D01*
X131733333Y-97557142D02*
X132019047Y-97652380D01*
X132114285Y-97747619D01*
X132209523Y-97938095D01*
X132209523Y-98223809D01*
X132114285Y-98414285D01*
X132019047Y-98509523D01*
X131828571Y-98604761D01*
X131066666Y-98604761D01*
X131066666Y-96604761D01*
X131733333Y-96604761D01*
X131923809Y-96700000D01*
X132019047Y-96795238D01*
X132114285Y-96985714D01*
X132114285Y-97176190D01*
X132019047Y-97366666D01*
X131923809Y-97461904D01*
X131733333Y-97557142D01*
X131066666Y-97557142D01*
X133066666Y-97557142D02*
X133733333Y-97557142D01*
X134019047Y-98604761D02*
X133066666Y-98604761D01*
X133066666Y-96604761D01*
X134019047Y-96604761D01*
X135542857Y-97557142D02*
X134876190Y-97557142D01*
X134876190Y-98604761D02*
X134876190Y-96604761D01*
X135828571Y-96604761D01*
X136971428Y-96604761D02*
X137352380Y-96604761D01*
X137542857Y-96700000D01*
X137733333Y-96890476D01*
X137828571Y-97271428D01*
X137828571Y-97938095D01*
X137733333Y-98319047D01*
X137542857Y-98509523D01*
X137352380Y-98604761D01*
X136971428Y-98604761D01*
X136780952Y-98509523D01*
X136590476Y-98319047D01*
X136495238Y-97938095D01*
X136495238Y-97271428D01*
X136590476Y-96890476D01*
X136780952Y-96700000D01*
X136971428Y-96604761D01*
X139828571Y-98604761D02*
X139161904Y-97652380D01*
X138685714Y-98604761D02*
X138685714Y-96604761D01*
X139447619Y-96604761D01*
X139638095Y-96700000D01*
X139733333Y-96795238D01*
X139828571Y-96985714D01*
X139828571Y-97271428D01*
X139733333Y-97461904D01*
X139638095Y-97557142D01*
X139447619Y-97652380D01*
X138685714Y-97652380D01*
X140685714Y-97557142D02*
X141352380Y-97557142D01*
X141638095Y-98604761D02*
X140685714Y-98604761D01*
X140685714Y-96604761D01*
X141638095Y-96604761D01*
X144685714Y-97557142D02*
X144019047Y-97557142D01*
X144019047Y-98604761D02*
X144019047Y-96604761D01*
X144971428Y-96604761D01*
X146685714Y-98604761D02*
X145733333Y-98604761D01*
X145733333Y-96604761D01*
X147352380Y-98604761D02*
X147352380Y-96604761D01*
X149352380Y-96700000D02*
X149161904Y-96604761D01*
X148876190Y-96604761D01*
X148590476Y-96700000D01*
X148400000Y-96890476D01*
X148304761Y-97080952D01*
X148209523Y-97461904D01*
X148209523Y-97747619D01*
X148304761Y-98128571D01*
X148400000Y-98319047D01*
X148590476Y-98509523D01*
X148876190Y-98604761D01*
X149066666Y-98604761D01*
X149352380Y-98509523D01*
X149447619Y-98414285D01*
X149447619Y-97747619D01*
X149066666Y-97747619D01*
X150304761Y-98604761D02*
X150304761Y-96604761D01*
X150304761Y-97557142D02*
X151447619Y-97557142D01*
X151447619Y-98604761D02*
X151447619Y-96604761D01*
X152114285Y-96604761D02*
X153257142Y-96604761D01*
X152685714Y-98604761D02*
X152685714Y-96604761D01*
X134261904Y-93204761D02*
X133595238Y-92252380D01*
X133119047Y-93204761D02*
X133119047Y-91204761D01*
X133880952Y-91204761D01*
X134071428Y-91300000D01*
X134166666Y-91395238D01*
X134261904Y-91585714D01*
X134261904Y-91871428D01*
X134166666Y-92061904D01*
X134071428Y-92157142D01*
X133880952Y-92252380D01*
X133119047Y-92252380D01*
X135785714Y-92157142D02*
X136071428Y-92252380D01*
X136166666Y-92347619D01*
X136261904Y-92538095D01*
X136261904Y-92823809D01*
X136166666Y-93014285D01*
X136071428Y-93109523D01*
X135880952Y-93204761D01*
X135119047Y-93204761D01*
X135119047Y-91204761D01*
X135785714Y-91204761D01*
X135976190Y-91300000D01*
X136071428Y-91395238D01*
X136166666Y-91585714D01*
X136166666Y-91776190D01*
X136071428Y-91966666D01*
X135976190Y-92061904D01*
X135785714Y-92157142D01*
X135119047Y-92157142D01*
X137785714Y-92157142D02*
X137119047Y-92157142D01*
X137119047Y-93204761D02*
X137119047Y-91204761D01*
X138071428Y-91204761D01*
M02*
