%TF.GenerationSoftware,KiCad,Pcbnew,7.0.1*%
%TF.CreationDate,2023-06-01T09:09:50-04:00*%
%TF.ProjectId,backplane,6261636b-706c-4616-9e65-2e6b69636164,C*%
%TF.SameCoordinates,Original*%
%TF.FileFunction,Drillmap*%
%TF.FilePolarity,Positive*%
%FSLAX45Y45*%
G04 Gerber Fmt 4.5, Leading zero omitted, Abs format (unit mm)*
G04 Created by KiCad (PCBNEW 7.0.1) date 2023-06-01 09:09:50*
%MOMM*%
%LPD*%
G01*
G04 APERTURE LIST*
%ADD10C,0.050000*%
%ADD11C,0.200000*%
%ADD12C,0.020000*%
%ADD13C,0.215900*%
%ADD14C,0.304800*%
G04 APERTURE END LIST*
D10*
X13600000Y-17530000D02*
X13600000Y-3850000D01*
X13540000Y-17590000D02*
G75*
G03*
X13600000Y-17530000I0J60000D01*
G01*
X13540000Y-3790000D02*
X5860000Y-3790000D01*
X5860000Y-3790000D02*
G75*
G03*
X5800000Y-3850000I0J-60000D01*
G01*
X13600000Y-3850000D02*
G75*
G03*
X13540000Y-3790000I-60000J0D01*
G01*
X12643300Y-15958300D02*
X13381700Y-15958300D01*
X13381700Y-15958300D02*
G75*
G03*
X13411300Y-15928700I0J29600D01*
G01*
X13411300Y-15928700D02*
X13411300Y-15673300D01*
X13411300Y-15673300D02*
G75*
G03*
X13381700Y-15643700I-29600J0D01*
G01*
X12643300Y-15643700D02*
G75*
G03*
X12613700Y-15673300I0J-29600D01*
G01*
X12643300Y-15643700D02*
X13381700Y-15643700D01*
X12613700Y-5428700D02*
X12613700Y-5173300D01*
X12613700Y-5428700D02*
G75*
G03*
X12643300Y-5458300I29600J0D01*
G01*
X12643300Y-5458300D02*
X13381700Y-5458300D01*
X13381700Y-5458300D02*
G75*
G03*
X13411300Y-5428700I0J29600D01*
G01*
X12643300Y-5143700D02*
G75*
G03*
X12613700Y-5173300I0J-29600D01*
G01*
X12643300Y-5143700D02*
X13381700Y-5143700D01*
X13411300Y-5173300D02*
G75*
G03*
X13381700Y-5143700I-29600J0D01*
G01*
X13411300Y-5428700D02*
X13411300Y-5173300D01*
X13381700Y-14458300D02*
G75*
G03*
X13411300Y-14428700I0J29600D01*
G01*
X12643300Y-14458300D02*
X13381700Y-14458300D01*
X12613700Y-14428700D02*
G75*
G03*
X12643300Y-14458300I29600J0D01*
G01*
X12613700Y-9928700D02*
G75*
G03*
X12643300Y-9958300I29600J0D01*
G01*
X13411300Y-11173300D02*
G75*
G03*
X13381700Y-11143700I-29600J0D01*
G01*
X13411300Y-14173300D02*
G75*
G03*
X13381700Y-14143700I-29600J0D01*
G01*
X12613700Y-11428700D02*
X12613700Y-11173300D01*
X12643300Y-6643700D02*
G75*
G03*
X12613700Y-6673300I0J-29600D01*
G01*
X12643300Y-9643700D02*
X13381700Y-9643700D01*
X12643300Y-8143700D02*
G75*
G03*
X12613700Y-8173300I0J-29600D01*
G01*
X12643300Y-11143700D02*
G75*
G03*
X12613700Y-11173300I0J-29600D01*
G01*
X12643300Y-11458300D02*
X13381700Y-11458300D01*
X12613700Y-12928700D02*
X12613700Y-12673300D01*
X13381700Y-6958300D02*
G75*
G03*
X13411300Y-6928700I0J29600D01*
G01*
X12643300Y-8143700D02*
X13381700Y-8143700D01*
X13381700Y-11458300D02*
G75*
G03*
X13411300Y-11428700I0J29600D01*
G01*
X13411300Y-6928700D02*
X13411300Y-6673300D01*
X12613700Y-6928700D02*
X12613700Y-6673300D01*
X13411300Y-14428700D02*
X13411300Y-14173300D01*
X12613700Y-14428700D02*
X12613700Y-14173300D01*
X12643300Y-6643700D02*
X13381700Y-6643700D01*
X12613700Y-8428700D02*
X12613700Y-8173300D01*
X13381700Y-12958300D02*
G75*
G03*
X13411300Y-12928700I0J29600D01*
G01*
X13411300Y-9928700D02*
X13411300Y-9673300D01*
X12613700Y-11428700D02*
G75*
G03*
X12643300Y-11458300I29600J0D01*
G01*
X13411300Y-12673300D02*
G75*
G03*
X13381700Y-12643700I-29600J0D01*
G01*
X13411300Y-9673300D02*
G75*
G03*
X13381700Y-9643700I-29600J0D01*
G01*
X12613700Y-15928700D02*
G75*
G03*
X12643300Y-15958300I29600J0D01*
G01*
X5800000Y-17530000D02*
X5800000Y-3850000D01*
X5800000Y-17530000D02*
G75*
G03*
X5860000Y-17590000I60000J0D01*
G01*
X12613700Y-8428700D02*
G75*
G03*
X12643300Y-8458300I29600J0D01*
G01*
X5860000Y-17590000D02*
X13540000Y-17590000D01*
X12643300Y-8458300D02*
X13381700Y-8458300D01*
X13411300Y-8173300D02*
G75*
G03*
X13381700Y-8143700I-29600J0D01*
G01*
X12643300Y-12643700D02*
G75*
G03*
X12613700Y-12673300I0J-29600D01*
G01*
X13411300Y-12928700D02*
X13411300Y-12673300D01*
X12643300Y-12643700D02*
X13381700Y-12643700D01*
X13411300Y-11428700D02*
X13411300Y-11173300D01*
X13411300Y-8428700D02*
X13411300Y-8173300D01*
X13381700Y-8458300D02*
G75*
G03*
X13411300Y-8428700I0J29600D01*
G01*
X12613700Y-6928700D02*
G75*
G03*
X12643300Y-6958300I29600J0D01*
G01*
X12643300Y-12958300D02*
X13381700Y-12958300D01*
X12643300Y-9958300D02*
X13381700Y-9958300D01*
X12643300Y-14143700D02*
X13381700Y-14143700D01*
X12613700Y-9928700D02*
X12613700Y-9673300D01*
X12613700Y-12928700D02*
G75*
G03*
X12643300Y-12958300I29600J0D01*
G01*
X13411300Y-6673300D02*
G75*
G03*
X13381700Y-6643700I-29600J0D01*
G01*
X13381700Y-9958300D02*
G75*
G03*
X13411300Y-9928700I0J29600D01*
G01*
X12643300Y-14143700D02*
G75*
G03*
X12613700Y-14173300I0J-29600D01*
G01*
X12643300Y-6958300D02*
X13381700Y-6958300D01*
X12613700Y-15928700D02*
X12613700Y-15673300D01*
X12643300Y-9643700D02*
G75*
G03*
X12613700Y-9673300I0J-29600D01*
G01*
X12643300Y-11143700D02*
X13381700Y-11143700D01*
D11*
D12*
X5937400Y-15881500D02*
X5957400Y-15901500D01*
X5957400Y-15881500D02*
X5937400Y-15901500D01*
X5971700Y-16474600D02*
X5991700Y-16494600D01*
X5991700Y-16474600D02*
X5971700Y-16494600D01*
X5971700Y-16779400D02*
X5991700Y-16799400D01*
X5991700Y-16779400D02*
X5971700Y-16799400D01*
X6005800Y-16064200D02*
X6025800Y-16084200D01*
X6025800Y-16064200D02*
X6005800Y-16084200D01*
X6097770Y-15310530D02*
X6117770Y-15330530D01*
X6117770Y-15310530D02*
X6097770Y-15330530D01*
X6098700Y-14396500D02*
X6118700Y-14416500D01*
X6118700Y-14396500D02*
X6098700Y-14416500D01*
X6124100Y-12895400D02*
X6144100Y-12915400D01*
X6144100Y-12895400D02*
X6124100Y-12915400D01*
X6124500Y-11395000D02*
X6144500Y-11415000D01*
X6144500Y-11395000D02*
X6124500Y-11415000D01*
X6136800Y-8397400D02*
X6156800Y-8417400D01*
X6156800Y-8397400D02*
X6136800Y-8417400D01*
X6137300Y-9896500D02*
X6157300Y-9916500D01*
X6157300Y-9896500D02*
X6137300Y-9916500D01*
X6137480Y-5400200D02*
X6157480Y-5420200D01*
X6157480Y-5400200D02*
X6137480Y-5420200D01*
X6139980Y-6911500D02*
X6159980Y-6931500D01*
X6159980Y-6911500D02*
X6139980Y-6931500D01*
X6149500Y-14471500D02*
X6169500Y-14491500D01*
X6169500Y-14471500D02*
X6149500Y-14491500D01*
X6157230Y-15310530D02*
X6177230Y-15330530D01*
X6177230Y-15310530D02*
X6157230Y-15330530D01*
X6161600Y-16635000D02*
X6181600Y-16655000D01*
X6181600Y-16635000D02*
X6161600Y-16655000D01*
X6197770Y-12255260D02*
X6217770Y-12275260D01*
X6217770Y-12255260D02*
X6197770Y-12275260D01*
X6197770Y-15237260D02*
X6217770Y-15257260D01*
X6217770Y-15237260D02*
X6197770Y-15257260D01*
X6225700Y-5565300D02*
X6245700Y-5585300D01*
X6245700Y-5565300D02*
X6225700Y-5585300D01*
X6225700Y-7076600D02*
X6245700Y-7096600D01*
X6245700Y-7076600D02*
X6225700Y-7096600D01*
X6225700Y-8575200D02*
X6245700Y-8595200D01*
X6245700Y-8575200D02*
X6225700Y-8595200D01*
X6225700Y-10061100D02*
X6245700Y-10081100D01*
X6245700Y-10061100D02*
X6225700Y-10081100D01*
X6225700Y-11572400D02*
X6245700Y-11592400D01*
X6245700Y-11572400D02*
X6225700Y-11592400D01*
X6225700Y-13071000D02*
X6245700Y-13091000D01*
X6245700Y-13071000D02*
X6225700Y-13091000D01*
X6225700Y-16068200D02*
X6245700Y-16088200D01*
X6245700Y-16068200D02*
X6225700Y-16088200D01*
X6257230Y-12255260D02*
X6277230Y-12275260D01*
X6277230Y-12255260D02*
X6257230Y-12275260D01*
X6257230Y-15237260D02*
X6277230Y-15257260D01*
X6277230Y-15237260D02*
X6257230Y-15257260D01*
X6327500Y-12255260D02*
X6347500Y-12275260D01*
X6347500Y-12255260D02*
X6327500Y-12275260D01*
X6397770Y-12255260D02*
X6417770Y-12275260D01*
X6417770Y-12255260D02*
X6397770Y-12275260D01*
X6397770Y-15237260D02*
X6417770Y-15257260D01*
X6417770Y-15237260D02*
X6397770Y-15257260D01*
X6416200Y-15395100D02*
X6436200Y-15415100D01*
X6436200Y-15395100D02*
X6416200Y-15415100D01*
X6457230Y-12255260D02*
X6477230Y-12275260D01*
X6477230Y-12255260D02*
X6457230Y-12275260D01*
X6457230Y-15237260D02*
X6477230Y-15257260D01*
X6477230Y-15237260D02*
X6457230Y-15257260D01*
X6497770Y-15310530D02*
X6517770Y-15330530D01*
X6517770Y-15310530D02*
X6497770Y-15330530D01*
X6557230Y-15310530D02*
X6577230Y-15330530D01*
X6577230Y-15310530D02*
X6557230Y-15330530D01*
X6588400Y-16825000D02*
X6608400Y-16845000D01*
X6608400Y-16825000D02*
X6588400Y-16845000D01*
X6597770Y-12255260D02*
X6617770Y-12275260D01*
X6617770Y-12255260D02*
X6597770Y-12275260D01*
X6597770Y-15237260D02*
X6617770Y-15257260D01*
X6617770Y-15237260D02*
X6597770Y-15257260D01*
X6623300Y-4066700D02*
X6643300Y-4086700D01*
X6643300Y-4066700D02*
X6623300Y-4086700D01*
X6638450Y-15972950D02*
X6658450Y-15992950D01*
X6658450Y-15972950D02*
X6638450Y-15992950D01*
X6642300Y-10590000D02*
X6662300Y-10610000D01*
X6662300Y-10590000D02*
X6642300Y-10610000D01*
X6657230Y-12255260D02*
X6677230Y-12275260D01*
X6677230Y-12255260D02*
X6657230Y-12275260D01*
X6657230Y-15237260D02*
X6677230Y-15257260D01*
X6677230Y-15237260D02*
X6657230Y-15257260D01*
X6670300Y-5779270D02*
X6690300Y-5799270D01*
X6690300Y-5779270D02*
X6670300Y-5799270D01*
X6670300Y-5857400D02*
X6690300Y-5877400D01*
X6690300Y-5857400D02*
X6670300Y-5877400D01*
X6670300Y-5938730D02*
X6690300Y-5958730D01*
X6690300Y-5938730D02*
X6670300Y-5958730D01*
X6673000Y-16082500D02*
X6693000Y-16102500D01*
X6693000Y-16082500D02*
X6673000Y-16102500D01*
X6675850Y-16423800D02*
X6695850Y-16443800D01*
X6695850Y-16423800D02*
X6675850Y-16443800D01*
X6677160Y-16345670D02*
X6697160Y-16365670D01*
X6697160Y-16345670D02*
X6677160Y-16365670D01*
X6677160Y-16505130D02*
X6697160Y-16525130D01*
X6697160Y-16505130D02*
X6677160Y-16525130D01*
X6711100Y-5562500D02*
X6731100Y-5582500D01*
X6731100Y-5562500D02*
X6711100Y-5582500D01*
X6711100Y-7073800D02*
X6731100Y-7093800D01*
X6731100Y-7073800D02*
X6711100Y-7093800D01*
X6711100Y-8559700D02*
X6731100Y-8579700D01*
X6731100Y-8559700D02*
X6711100Y-8579700D01*
X6711100Y-10071000D02*
X6731100Y-10091000D01*
X6731100Y-10071000D02*
X6711100Y-10091000D01*
X6711100Y-11569600D02*
X6731100Y-11589600D01*
X6731100Y-11569600D02*
X6711100Y-11589600D01*
X6711100Y-13068200D02*
X6731100Y-13088200D01*
X6731100Y-13068200D02*
X6711100Y-13088200D01*
X6723800Y-14554100D02*
X6743800Y-14574100D01*
X6743800Y-14554100D02*
X6723800Y-14574100D01*
X6809900Y-5324000D02*
X6829900Y-5344000D01*
X6829900Y-5324000D02*
X6809900Y-5344000D01*
X6809900Y-6835300D02*
X6829900Y-6855300D01*
X6829900Y-6835300D02*
X6809900Y-6855300D01*
X6809900Y-8321200D02*
X6829900Y-8341200D01*
X6829900Y-8321200D02*
X6809900Y-8341200D01*
X6809900Y-9819800D02*
X6829900Y-9839800D01*
X6829900Y-9819800D02*
X6809900Y-9839800D01*
X6809900Y-11331100D02*
X6829900Y-11351100D01*
X6829900Y-11331100D02*
X6809900Y-11351100D01*
X6809900Y-12829700D02*
X6829900Y-12849700D01*
X6829900Y-12829700D02*
X6809900Y-12849700D01*
X6815800Y-4066700D02*
X6835800Y-4086700D01*
X6835800Y-4066700D02*
X6815800Y-4086700D01*
X6822600Y-14315600D02*
X6842600Y-14335600D01*
X6842600Y-14315600D02*
X6822600Y-14335600D01*
X6834800Y-10590000D02*
X6854800Y-10610000D01*
X6854800Y-10590000D02*
X6834800Y-10610000D01*
X6848000Y-16148800D02*
X6868000Y-16168800D01*
X6868000Y-16148800D02*
X6848000Y-16168800D01*
X6860700Y-5489100D02*
X6880700Y-5509100D01*
X6880700Y-5489100D02*
X6860700Y-5509100D01*
X6860700Y-7000400D02*
X6880700Y-7020400D01*
X6880700Y-7000400D02*
X6860700Y-7020400D01*
X6860700Y-8486300D02*
X6880700Y-8506300D01*
X6880700Y-8486300D02*
X6860700Y-8506300D01*
X6860700Y-9997600D02*
X6880700Y-10017600D01*
X6880700Y-9997600D02*
X6860700Y-10017600D01*
X6860700Y-11496200D02*
X6880700Y-11516200D01*
X6880700Y-11496200D02*
X6860700Y-11516200D01*
X6860700Y-12994800D02*
X6880700Y-13014800D01*
X6880700Y-12994800D02*
X6860700Y-13014800D01*
X6873400Y-14480700D02*
X6893400Y-14500700D01*
X6893400Y-14480700D02*
X6873400Y-14500700D01*
X6979330Y-17333870D02*
X6999330Y-17353870D01*
X6999330Y-17333870D02*
X6979330Y-17353870D01*
X6979330Y-17393330D02*
X6999330Y-17413330D01*
X6999330Y-17393330D02*
X6979330Y-17413330D01*
X7089300Y-15268100D02*
X7109300Y-15288100D01*
X7109300Y-15268100D02*
X7089300Y-15288100D01*
X7170000Y-5170100D02*
X7190000Y-5190100D01*
X7190000Y-5170100D02*
X7170000Y-5190100D01*
X7170000Y-6330100D02*
X7190000Y-6350100D01*
X7190000Y-6330100D02*
X7170000Y-6350100D01*
X7170000Y-6670100D02*
X7190000Y-6690100D01*
X7190000Y-6670100D02*
X7170000Y-6690100D01*
X7170000Y-7830100D02*
X7190000Y-7850100D01*
X7190000Y-7830100D02*
X7170000Y-7850100D01*
X7170000Y-8170100D02*
X7190000Y-8190100D01*
X7190000Y-8170100D02*
X7170000Y-8190100D01*
X7170000Y-9330100D02*
X7190000Y-9350100D01*
X7190000Y-9330100D02*
X7170000Y-9350100D01*
X7170000Y-9670100D02*
X7190000Y-9690100D01*
X7190000Y-9670100D02*
X7170000Y-9690100D01*
X7170000Y-10830100D02*
X7190000Y-10850100D01*
X7190000Y-10830100D02*
X7170000Y-10850100D01*
X7170000Y-11170100D02*
X7190000Y-11190100D01*
X7190000Y-11170100D02*
X7170000Y-11190100D01*
X7170000Y-12330100D02*
X7190000Y-12350100D01*
X7190000Y-12330100D02*
X7170000Y-12350100D01*
X7170000Y-12670100D02*
X7190000Y-12690100D01*
X7190000Y-12670100D02*
X7170000Y-12690100D01*
X7170000Y-13830100D02*
X7190000Y-13850100D01*
X7190000Y-13830100D02*
X7170000Y-13850100D01*
X7170000Y-14170100D02*
X7190000Y-14190100D01*
X7190000Y-14170100D02*
X7170000Y-14190100D01*
X7170000Y-15330100D02*
X7190000Y-15350100D01*
X7190000Y-15330100D02*
X7170000Y-15350100D01*
X7170000Y-15670100D02*
X7190000Y-15690100D01*
X7190000Y-15670100D02*
X7170000Y-15690100D01*
X7170079Y-4820981D02*
X7190079Y-4840981D01*
X7190079Y-4820981D02*
X7170079Y-4840981D01*
X7250000Y-4989900D02*
X7270000Y-5009900D01*
X7270000Y-4989900D02*
X7250000Y-5009900D01*
X7250000Y-5329900D02*
X7270000Y-5349900D01*
X7270000Y-5329900D02*
X7250000Y-5349900D01*
X7250000Y-6489900D02*
X7270000Y-6509900D01*
X7270000Y-6489900D02*
X7250000Y-6509900D01*
X7250000Y-6829900D02*
X7270000Y-6849900D01*
X7270000Y-6829900D02*
X7250000Y-6849900D01*
X7250000Y-7989900D02*
X7270000Y-8009900D01*
X7270000Y-7989900D02*
X7250000Y-8009900D01*
X7250000Y-8329900D02*
X7270000Y-8349900D01*
X7270000Y-8329900D02*
X7250000Y-8349900D01*
X7250000Y-9489900D02*
X7270000Y-9509900D01*
X7270000Y-9489900D02*
X7250000Y-9509900D01*
X7250000Y-9829900D02*
X7270000Y-9849900D01*
X7270000Y-9829900D02*
X7250000Y-9849900D01*
X7250000Y-10989900D02*
X7270000Y-11009900D01*
X7270000Y-10989900D02*
X7250000Y-11009900D01*
X7250000Y-11329900D02*
X7270000Y-11349900D01*
X7270000Y-11329900D02*
X7250000Y-11349900D01*
X7250000Y-12489900D02*
X7270000Y-12509900D01*
X7270000Y-12489900D02*
X7250000Y-12509900D01*
X7250000Y-12829900D02*
X7270000Y-12849900D01*
X7270000Y-12829900D02*
X7250000Y-12849900D01*
X7250000Y-13989900D02*
X7270000Y-14009900D01*
X7270000Y-13989900D02*
X7250000Y-14009900D01*
X7250000Y-14329900D02*
X7270000Y-14349900D01*
X7270000Y-14329900D02*
X7250000Y-14349900D01*
X7250000Y-15489900D02*
X7270000Y-15509900D01*
X7270000Y-15489900D02*
X7250000Y-15509900D01*
X7250000Y-15829900D02*
X7270000Y-15849900D01*
X7270000Y-15829900D02*
X7250000Y-15849900D01*
X7330000Y-5170100D02*
X7350000Y-5190100D01*
X7350000Y-5170100D02*
X7330000Y-5190100D01*
X7330000Y-6330100D02*
X7350000Y-6350100D01*
X7350000Y-6330100D02*
X7330000Y-6350100D01*
X7330000Y-6670100D02*
X7350000Y-6690100D01*
X7350000Y-6670100D02*
X7330000Y-6690100D01*
X7330000Y-7830100D02*
X7350000Y-7850100D01*
X7350000Y-7830100D02*
X7330000Y-7850100D01*
X7330000Y-8170100D02*
X7350000Y-8190100D01*
X7350000Y-8170100D02*
X7330000Y-8190100D01*
X7330000Y-9330100D02*
X7350000Y-9350100D01*
X7350000Y-9330100D02*
X7330000Y-9350100D01*
X7330000Y-9670100D02*
X7350000Y-9690100D01*
X7350000Y-9670100D02*
X7330000Y-9690100D01*
X7330000Y-10830100D02*
X7350000Y-10850100D01*
X7350000Y-10830100D02*
X7330000Y-10850100D01*
X7330000Y-11170100D02*
X7350000Y-11190100D01*
X7350000Y-11170100D02*
X7330000Y-11190100D01*
X7330000Y-12330100D02*
X7350000Y-12350100D01*
X7350000Y-12330100D02*
X7330000Y-12350100D01*
X7330000Y-12670100D02*
X7350000Y-12690100D01*
X7350000Y-12670100D02*
X7330000Y-12690100D01*
X7330000Y-13830100D02*
X7350000Y-13850100D01*
X7350000Y-13830100D02*
X7330000Y-13850100D01*
X7330000Y-14170100D02*
X7350000Y-14190100D01*
X7350000Y-14170100D02*
X7330000Y-14190100D01*
X7330000Y-15330100D02*
X7350000Y-15350100D01*
X7350000Y-15330100D02*
X7330000Y-15350100D01*
X7330000Y-15670100D02*
X7350000Y-15690100D01*
X7350000Y-15670100D02*
X7330000Y-15690100D01*
X7330079Y-4830981D02*
X7350079Y-4850981D01*
X7350079Y-4830981D02*
X7330079Y-4850981D01*
X7410000Y-4989900D02*
X7430000Y-5009900D01*
X7430000Y-4989900D02*
X7410000Y-5009900D01*
X7410000Y-5329900D02*
X7430000Y-5349900D01*
X7430000Y-5329900D02*
X7410000Y-5349900D01*
X7410000Y-6489900D02*
X7430000Y-6509900D01*
X7430000Y-6489900D02*
X7410000Y-6509900D01*
X7410000Y-6829900D02*
X7430000Y-6849900D01*
X7430000Y-6829900D02*
X7410000Y-6849900D01*
X7410000Y-7989900D02*
X7430000Y-8009900D01*
X7430000Y-7989900D02*
X7410000Y-8009900D01*
X7410000Y-8329900D02*
X7430000Y-8349900D01*
X7430000Y-8329900D02*
X7410000Y-8349900D01*
X7410000Y-9489900D02*
X7430000Y-9509900D01*
X7430000Y-9489900D02*
X7410000Y-9509900D01*
X7410000Y-9829900D02*
X7430000Y-9849900D01*
X7430000Y-9829900D02*
X7410000Y-9849900D01*
X7410000Y-10989900D02*
X7430000Y-11009900D01*
X7430000Y-10989900D02*
X7410000Y-11009900D01*
X7410000Y-11329900D02*
X7430000Y-11349900D01*
X7430000Y-11329900D02*
X7410000Y-11349900D01*
X7410000Y-12489900D02*
X7430000Y-12509900D01*
X7430000Y-12489900D02*
X7410000Y-12509900D01*
X7410000Y-12829900D02*
X7430000Y-12849900D01*
X7430000Y-12829900D02*
X7410000Y-12849900D01*
X7410000Y-13989900D02*
X7430000Y-14009900D01*
X7430000Y-13989900D02*
X7410000Y-14009900D01*
X7410000Y-14329900D02*
X7430000Y-14349900D01*
X7430000Y-14329900D02*
X7410000Y-14349900D01*
X7410000Y-15489900D02*
X7430000Y-15509900D01*
X7430000Y-15489900D02*
X7410000Y-15509900D01*
X7410000Y-15829900D02*
X7430000Y-15849900D01*
X7430000Y-15829900D02*
X7410000Y-15849900D01*
X7490000Y-4830100D02*
X7510000Y-4850100D01*
X7510000Y-4830100D02*
X7490000Y-4850100D01*
X7490000Y-5170100D02*
X7510000Y-5190100D01*
X7510000Y-5170100D02*
X7490000Y-5190100D01*
X7490000Y-6330100D02*
X7510000Y-6350100D01*
X7510000Y-6330100D02*
X7490000Y-6350100D01*
X7490000Y-6670100D02*
X7510000Y-6690100D01*
X7510000Y-6670100D02*
X7490000Y-6690100D01*
X7490000Y-7830100D02*
X7510000Y-7850100D01*
X7510000Y-7830100D02*
X7490000Y-7850100D01*
X7490000Y-8170100D02*
X7510000Y-8190100D01*
X7510000Y-8170100D02*
X7490000Y-8190100D01*
X7490000Y-9330100D02*
X7510000Y-9350100D01*
X7510000Y-9330100D02*
X7490000Y-9350100D01*
X7490000Y-9670100D02*
X7510000Y-9690100D01*
X7510000Y-9670100D02*
X7490000Y-9690100D01*
X7490000Y-10830100D02*
X7510000Y-10850100D01*
X7510000Y-10830100D02*
X7490000Y-10850100D01*
X7490000Y-11170100D02*
X7510000Y-11190100D01*
X7510000Y-11170100D02*
X7490000Y-11190100D01*
X7490000Y-12330100D02*
X7510000Y-12350100D01*
X7510000Y-12330100D02*
X7490000Y-12350100D01*
X7490000Y-12670100D02*
X7510000Y-12690100D01*
X7510000Y-12670100D02*
X7490000Y-12690100D01*
X7490000Y-13830100D02*
X7510000Y-13850100D01*
X7510000Y-13830100D02*
X7490000Y-13850100D01*
X7490000Y-14170100D02*
X7510000Y-14190100D01*
X7510000Y-14170100D02*
X7490000Y-14190100D01*
X7490000Y-15330100D02*
X7510000Y-15350100D01*
X7510000Y-15330100D02*
X7490000Y-15350100D01*
X7490000Y-15670100D02*
X7510000Y-15690100D01*
X7510000Y-15670100D02*
X7490000Y-15690100D01*
X7566160Y-16445670D02*
X7586160Y-16465670D01*
X7586160Y-16445670D02*
X7566160Y-16465670D01*
X7566160Y-16505130D02*
X7586160Y-16525130D01*
X7586160Y-16505130D02*
X7566160Y-16525130D01*
X7566160Y-16645670D02*
X7586160Y-16665670D01*
X7586160Y-16645670D02*
X7566160Y-16665670D01*
X7566160Y-16705130D02*
X7586160Y-16725130D01*
X7586160Y-16705130D02*
X7566160Y-16725130D01*
X7570000Y-4989900D02*
X7590000Y-5009900D01*
X7590000Y-4989900D02*
X7570000Y-5009900D01*
X7570000Y-5329900D02*
X7590000Y-5349900D01*
X7590000Y-5329900D02*
X7570000Y-5349900D01*
X7570000Y-6489900D02*
X7590000Y-6509900D01*
X7590000Y-6489900D02*
X7570000Y-6509900D01*
X7570000Y-6829900D02*
X7590000Y-6849900D01*
X7590000Y-6829900D02*
X7570000Y-6849900D01*
X7570000Y-7989900D02*
X7590000Y-8009900D01*
X7590000Y-7989900D02*
X7570000Y-8009900D01*
X7570000Y-8329900D02*
X7590000Y-8349900D01*
X7590000Y-8329900D02*
X7570000Y-8349900D01*
X7570000Y-9489900D02*
X7590000Y-9509900D01*
X7590000Y-9489900D02*
X7570000Y-9509900D01*
X7570000Y-9829900D02*
X7590000Y-9849900D01*
X7590000Y-9829900D02*
X7570000Y-9849900D01*
X7570000Y-10989900D02*
X7590000Y-11009900D01*
X7590000Y-10989900D02*
X7570000Y-11009900D01*
X7570000Y-11329900D02*
X7590000Y-11349900D01*
X7590000Y-11329900D02*
X7570000Y-11349900D01*
X7570000Y-12489900D02*
X7590000Y-12509900D01*
X7590000Y-12489900D02*
X7570000Y-12509900D01*
X7570000Y-12829900D02*
X7590000Y-12849900D01*
X7590000Y-12829900D02*
X7570000Y-12849900D01*
X7570000Y-13989900D02*
X7590000Y-14009900D01*
X7590000Y-13989900D02*
X7570000Y-14009900D01*
X7570000Y-14329900D02*
X7590000Y-14349900D01*
X7590000Y-14329900D02*
X7570000Y-14349900D01*
X7570000Y-15489900D02*
X7590000Y-15509900D01*
X7590000Y-15489900D02*
X7570000Y-15509900D01*
X7570000Y-15829900D02*
X7590000Y-15849900D01*
X7590000Y-15829900D02*
X7570000Y-15849900D01*
X7639430Y-16345670D02*
X7659430Y-16365670D01*
X7659430Y-16345670D02*
X7639430Y-16365670D01*
X7639430Y-16405130D02*
X7659430Y-16425130D01*
X7659430Y-16405130D02*
X7639430Y-16425130D01*
X7639430Y-16545670D02*
X7659430Y-16565670D01*
X7659430Y-16545670D02*
X7639430Y-16565670D01*
X7639430Y-16605130D02*
X7659430Y-16625130D01*
X7659430Y-16605130D02*
X7639430Y-16625130D01*
X7650000Y-4820100D02*
X7670000Y-4840100D01*
X7670000Y-4820100D02*
X7650000Y-4840100D01*
X7650000Y-5170100D02*
X7670000Y-5190100D01*
X7670000Y-5170100D02*
X7650000Y-5190100D01*
X7650000Y-6320100D02*
X7670000Y-6340100D01*
X7670000Y-6320100D02*
X7650000Y-6340100D01*
X7650000Y-6670100D02*
X7670000Y-6690100D01*
X7670000Y-6670100D02*
X7650000Y-6690100D01*
X7650000Y-7820100D02*
X7670000Y-7840100D01*
X7670000Y-7820100D02*
X7650000Y-7840100D01*
X7650000Y-8170100D02*
X7670000Y-8190100D01*
X7670000Y-8170100D02*
X7650000Y-8190100D01*
X7650000Y-9320100D02*
X7670000Y-9340100D01*
X7670000Y-9320100D02*
X7650000Y-9340100D01*
X7650000Y-9670100D02*
X7670000Y-9690100D01*
X7670000Y-9670100D02*
X7650000Y-9690100D01*
X7650000Y-10820100D02*
X7670000Y-10840100D01*
X7670000Y-10820100D02*
X7650000Y-10840100D01*
X7650000Y-11170100D02*
X7670000Y-11190100D01*
X7670000Y-11170100D02*
X7650000Y-11190100D01*
X7650000Y-12320100D02*
X7670000Y-12340100D01*
X7670000Y-12320100D02*
X7650000Y-12340100D01*
X7650000Y-12670100D02*
X7670000Y-12690100D01*
X7670000Y-12670100D02*
X7650000Y-12690100D01*
X7650000Y-13820100D02*
X7670000Y-13840100D01*
X7670000Y-13820100D02*
X7650000Y-13840100D01*
X7650000Y-14170100D02*
X7670000Y-14190100D01*
X7670000Y-14170100D02*
X7650000Y-14190100D01*
X7650000Y-15670100D02*
X7670000Y-15690100D01*
X7670000Y-15670100D02*
X7650000Y-15690100D01*
X7650001Y-15320099D02*
X7670001Y-15340099D01*
X7670001Y-15320099D02*
X7650001Y-15340099D01*
X7730000Y-4569200D02*
X7750000Y-4589200D01*
X7750000Y-4569200D02*
X7730000Y-4589200D01*
X7730000Y-5329900D02*
X7750000Y-5349900D01*
X7750000Y-5329900D02*
X7730000Y-5349900D01*
X7730000Y-6489900D02*
X7750000Y-6509900D01*
X7750000Y-6489900D02*
X7730000Y-6509900D01*
X7730000Y-6829900D02*
X7750000Y-6849900D01*
X7750000Y-6829900D02*
X7730000Y-6849900D01*
X7730000Y-7989900D02*
X7750000Y-8009900D01*
X7750000Y-7989900D02*
X7730000Y-8009900D01*
X7730000Y-8329900D02*
X7750000Y-8349900D01*
X7750000Y-8329900D02*
X7730000Y-8349900D01*
X7730000Y-9489900D02*
X7750000Y-9509900D01*
X7750000Y-9489900D02*
X7730000Y-9509900D01*
X7730000Y-9829900D02*
X7750000Y-9849900D01*
X7750000Y-9829900D02*
X7730000Y-9849900D01*
X7730000Y-10989900D02*
X7750000Y-11009900D01*
X7750000Y-10989900D02*
X7730000Y-11009900D01*
X7730000Y-11329900D02*
X7750000Y-11349900D01*
X7750000Y-11329900D02*
X7730000Y-11349900D01*
X7730000Y-12489900D02*
X7750000Y-12509900D01*
X7750000Y-12489900D02*
X7730000Y-12509900D01*
X7730000Y-12829900D02*
X7750000Y-12849900D01*
X7750000Y-12829900D02*
X7730000Y-12849900D01*
X7730000Y-13989900D02*
X7750000Y-14009900D01*
X7750000Y-13989900D02*
X7730000Y-14009900D01*
X7730000Y-14329900D02*
X7750000Y-14349900D01*
X7750000Y-14329900D02*
X7730000Y-14349900D01*
X7730000Y-15489900D02*
X7750000Y-15509900D01*
X7750000Y-15489900D02*
X7730000Y-15509900D01*
X7730000Y-15829900D02*
X7750000Y-15849900D01*
X7750000Y-15829900D02*
X7730000Y-15849900D01*
X7810000Y-4830100D02*
X7830000Y-4850100D01*
X7830000Y-4830100D02*
X7810000Y-4850100D01*
X7810000Y-5170100D02*
X7830000Y-5190100D01*
X7830000Y-5170100D02*
X7810000Y-5190100D01*
X7810000Y-6330100D02*
X7830000Y-6350100D01*
X7830000Y-6330100D02*
X7810000Y-6350100D01*
X7810000Y-6670100D02*
X7830000Y-6690100D01*
X7830000Y-6670100D02*
X7810000Y-6690100D01*
X7810000Y-7830100D02*
X7830000Y-7850100D01*
X7830000Y-7830100D02*
X7810000Y-7850100D01*
X7810000Y-8170100D02*
X7830000Y-8190100D01*
X7830000Y-8170100D02*
X7810000Y-8190100D01*
X7810000Y-9330100D02*
X7830000Y-9350100D01*
X7830000Y-9330100D02*
X7810000Y-9350100D01*
X7810000Y-9670100D02*
X7830000Y-9690100D01*
X7830000Y-9670100D02*
X7810000Y-9690100D01*
X7810000Y-10830100D02*
X7830000Y-10850100D01*
X7830000Y-10830100D02*
X7810000Y-10850100D01*
X7810000Y-11170100D02*
X7830000Y-11190100D01*
X7830000Y-11170100D02*
X7810000Y-11190100D01*
X7810000Y-12330100D02*
X7830000Y-12350100D01*
X7830000Y-12330100D02*
X7810000Y-12350100D01*
X7810000Y-12670100D02*
X7830000Y-12690100D01*
X7830000Y-12670100D02*
X7810000Y-12690100D01*
X7810000Y-13830100D02*
X7830000Y-13850100D01*
X7830000Y-13830100D02*
X7810000Y-13850100D01*
X7810000Y-14170100D02*
X7830000Y-14190100D01*
X7830000Y-14170100D02*
X7810000Y-14190100D01*
X7810000Y-15330100D02*
X7830000Y-15350100D01*
X7830000Y-15330100D02*
X7810000Y-15350100D01*
X7810000Y-15670100D02*
X7830000Y-15690100D01*
X7830000Y-15670100D02*
X7810000Y-15690100D01*
X7848500Y-16275103D02*
X7868500Y-16295103D01*
X7868500Y-16275103D02*
X7848500Y-16295103D01*
X7848500Y-16861900D02*
X7868500Y-16881900D01*
X7868500Y-16861900D02*
X7848500Y-16881900D01*
X7848500Y-16935503D02*
X7868500Y-16955503D01*
X7868500Y-16935503D02*
X7848500Y-16955503D01*
X7848500Y-17491100D02*
X7868500Y-17511100D01*
X7868500Y-17491100D02*
X7848500Y-17511100D01*
X7887498Y-15829900D02*
X7907498Y-15849900D01*
X7907498Y-15829900D02*
X7887498Y-15849900D01*
X7890000Y-4989900D02*
X7910000Y-5009900D01*
X7910000Y-4989900D02*
X7890000Y-5009900D01*
X7890000Y-5329900D02*
X7910000Y-5349900D01*
X7910000Y-5329900D02*
X7890000Y-5349900D01*
X7890000Y-6489900D02*
X7910000Y-6509900D01*
X7910000Y-6489900D02*
X7890000Y-6509900D01*
X7890000Y-6829900D02*
X7910000Y-6849900D01*
X7910000Y-6829900D02*
X7890000Y-6849900D01*
X7890000Y-7989900D02*
X7910000Y-8009900D01*
X7910000Y-7989900D02*
X7890000Y-8009900D01*
X7890000Y-8329900D02*
X7910000Y-8349900D01*
X7910000Y-8329900D02*
X7890000Y-8349900D01*
X7890000Y-9489900D02*
X7910000Y-9509900D01*
X7910000Y-9489900D02*
X7890000Y-9509900D01*
X7890000Y-9829900D02*
X7910000Y-9849900D01*
X7910000Y-9829900D02*
X7890000Y-9849900D01*
X7890000Y-10989900D02*
X7910000Y-11009900D01*
X7910000Y-10989900D02*
X7890000Y-11009900D01*
X7890000Y-11329900D02*
X7910000Y-11349900D01*
X7910000Y-11329900D02*
X7890000Y-11349900D01*
X7890000Y-12489900D02*
X7910000Y-12509900D01*
X7910000Y-12489900D02*
X7890000Y-12509900D01*
X7890000Y-12829900D02*
X7910000Y-12849900D01*
X7910000Y-12829900D02*
X7890000Y-12849900D01*
X7890000Y-13989900D02*
X7910000Y-14009900D01*
X7910000Y-13989900D02*
X7890000Y-14009900D01*
X7890000Y-14329900D02*
X7910000Y-14349900D01*
X7910000Y-14329900D02*
X7890000Y-14349900D01*
X7890000Y-15489900D02*
X7910000Y-15509900D01*
X7910000Y-15489900D02*
X7890000Y-15509900D01*
X7970000Y-4830100D02*
X7990000Y-4850100D01*
X7990000Y-4830100D02*
X7970000Y-4850100D01*
X7970000Y-5170100D02*
X7990000Y-5190100D01*
X7990000Y-5170100D02*
X7970000Y-5190100D01*
X7970000Y-6330100D02*
X7990000Y-6350100D01*
X7990000Y-6330100D02*
X7970000Y-6350100D01*
X7970000Y-6670100D02*
X7990000Y-6690100D01*
X7990000Y-6670100D02*
X7970000Y-6690100D01*
X7970000Y-7830100D02*
X7990000Y-7850100D01*
X7990000Y-7830100D02*
X7970000Y-7850100D01*
X7970000Y-8170100D02*
X7990000Y-8190100D01*
X7990000Y-8170100D02*
X7970000Y-8190100D01*
X7970000Y-9330100D02*
X7990000Y-9350100D01*
X7990000Y-9330100D02*
X7970000Y-9350100D01*
X7970000Y-9670100D02*
X7990000Y-9690100D01*
X7990000Y-9670100D02*
X7970000Y-9690100D01*
X7970000Y-10830100D02*
X7990000Y-10850100D01*
X7990000Y-10830100D02*
X7970000Y-10850100D01*
X7970000Y-11170100D02*
X7990000Y-11190100D01*
X7990000Y-11170100D02*
X7970000Y-11190100D01*
X7970000Y-12330100D02*
X7990000Y-12350100D01*
X7990000Y-12330100D02*
X7970000Y-12350100D01*
X7970000Y-12670100D02*
X7990000Y-12690100D01*
X7990000Y-12670100D02*
X7970000Y-12690100D01*
X7970000Y-13830100D02*
X7990000Y-13850100D01*
X7990000Y-13830100D02*
X7970000Y-13850100D01*
X7970000Y-14170100D02*
X7990000Y-14190100D01*
X7990000Y-14170100D02*
X7970000Y-14190100D01*
X7970000Y-15330100D02*
X7990000Y-15350100D01*
X7990000Y-15330100D02*
X7970000Y-15350100D01*
X7970000Y-15670100D02*
X7990000Y-15690100D01*
X7990000Y-15670100D02*
X7970000Y-15690100D01*
X7975321Y-16901021D02*
X7995321Y-16921021D01*
X7995321Y-16901021D02*
X7975321Y-16921021D01*
X7975500Y-16275103D02*
X7995500Y-16295103D01*
X7995500Y-16275103D02*
X7975500Y-16295103D01*
X7975500Y-16830700D02*
X7995500Y-16850700D01*
X7995500Y-16830700D02*
X7975500Y-16850700D01*
X7975500Y-17491100D02*
X7995500Y-17511100D01*
X7995500Y-17491100D02*
X7975500Y-17511100D01*
X8050000Y-4989900D02*
X8070000Y-5009900D01*
X8070000Y-4989900D02*
X8050000Y-5009900D01*
X8050000Y-5329900D02*
X8070000Y-5349900D01*
X8070000Y-5329900D02*
X8050000Y-5349900D01*
X8050000Y-6489900D02*
X8070000Y-6509900D01*
X8070000Y-6489900D02*
X8050000Y-6509900D01*
X8050000Y-6829900D02*
X8070000Y-6849900D01*
X8070000Y-6829900D02*
X8050000Y-6849900D01*
X8050000Y-7989900D02*
X8070000Y-8009900D01*
X8070000Y-7989900D02*
X8050000Y-8009900D01*
X8050000Y-8329900D02*
X8070000Y-8349900D01*
X8070000Y-8329900D02*
X8050000Y-8349900D01*
X8050000Y-9489900D02*
X8070000Y-9509900D01*
X8070000Y-9489900D02*
X8050000Y-9509900D01*
X8050000Y-9829900D02*
X8070000Y-9849900D01*
X8070000Y-9829900D02*
X8050000Y-9849900D01*
X8050000Y-10989900D02*
X8070000Y-11009900D01*
X8070000Y-10989900D02*
X8050000Y-11009900D01*
X8050000Y-11329900D02*
X8070000Y-11349900D01*
X8070000Y-11329900D02*
X8050000Y-11349900D01*
X8050000Y-12489900D02*
X8070000Y-12509900D01*
X8070000Y-12489900D02*
X8050000Y-12509900D01*
X8050000Y-12829900D02*
X8070000Y-12849900D01*
X8070000Y-12829900D02*
X8050000Y-12849900D01*
X8050000Y-13989900D02*
X8070000Y-14009900D01*
X8070000Y-13989900D02*
X8050000Y-14009900D01*
X8050000Y-14329900D02*
X8070000Y-14349900D01*
X8070000Y-14329900D02*
X8050000Y-14349900D01*
X8050000Y-15489900D02*
X8070000Y-15509900D01*
X8070000Y-15489900D02*
X8050000Y-15509900D01*
X8050000Y-15829900D02*
X8070000Y-15849900D01*
X8070000Y-15829900D02*
X8050000Y-15849900D01*
X8102500Y-16271900D02*
X8122500Y-16291900D01*
X8122500Y-16271900D02*
X8102500Y-16291900D01*
X8102500Y-16861900D02*
X8122500Y-16881900D01*
X8122500Y-16861900D02*
X8102500Y-16881900D01*
X8102500Y-16932300D02*
X8122500Y-16952300D01*
X8122500Y-16932300D02*
X8102500Y-16952300D01*
X8102500Y-17491100D02*
X8122500Y-17511100D01*
X8122500Y-17491100D02*
X8102500Y-17511100D01*
X8130000Y-4830100D02*
X8150000Y-4850100D01*
X8150000Y-4830100D02*
X8130000Y-4850100D01*
X8130000Y-5170100D02*
X8150000Y-5190100D01*
X8150000Y-5170100D02*
X8130000Y-5190100D01*
X8130000Y-6330100D02*
X8150000Y-6350100D01*
X8150000Y-6330100D02*
X8130000Y-6350100D01*
X8130000Y-6670100D02*
X8150000Y-6690100D01*
X8150000Y-6670100D02*
X8130000Y-6690100D01*
X8130000Y-7830100D02*
X8150000Y-7850100D01*
X8150000Y-7830100D02*
X8130000Y-7850100D01*
X8130000Y-8170100D02*
X8150000Y-8190100D01*
X8150000Y-8170100D02*
X8130000Y-8190100D01*
X8130000Y-9330100D02*
X8150000Y-9350100D01*
X8150000Y-9330100D02*
X8130000Y-9350100D01*
X8130000Y-9670100D02*
X8150000Y-9690100D01*
X8150000Y-9670100D02*
X8130000Y-9690100D01*
X8130000Y-10830100D02*
X8150000Y-10850100D01*
X8150000Y-10830100D02*
X8130000Y-10850100D01*
X8130000Y-11170100D02*
X8150000Y-11190100D01*
X8150000Y-11170100D02*
X8130000Y-11190100D01*
X8130000Y-12330100D02*
X8150000Y-12350100D01*
X8150000Y-12330100D02*
X8130000Y-12350100D01*
X8130000Y-12670100D02*
X8150000Y-12690100D01*
X8150000Y-12670100D02*
X8130000Y-12690100D01*
X8130000Y-13830100D02*
X8150000Y-13850100D01*
X8150000Y-13830100D02*
X8130000Y-13850100D01*
X8130000Y-14170100D02*
X8150000Y-14190100D01*
X8150000Y-14170100D02*
X8130000Y-14190100D01*
X8130000Y-15330100D02*
X8150000Y-15350100D01*
X8150000Y-15330100D02*
X8130000Y-15350100D01*
X8130000Y-15670100D02*
X8150000Y-15690100D01*
X8150000Y-15670100D02*
X8130000Y-15690100D01*
X8207498Y-15829900D02*
X8227498Y-15849900D01*
X8227498Y-15829900D02*
X8207498Y-15849900D01*
X8210000Y-4989900D02*
X8230000Y-5009900D01*
X8230000Y-4989900D02*
X8210000Y-5009900D01*
X8210000Y-5329900D02*
X8230000Y-5349900D01*
X8230000Y-5329900D02*
X8210000Y-5349900D01*
X8210000Y-6489900D02*
X8230000Y-6509900D01*
X8230000Y-6489900D02*
X8210000Y-6509900D01*
X8210000Y-6829900D02*
X8230000Y-6849900D01*
X8230000Y-6829900D02*
X8210000Y-6849900D01*
X8210000Y-7989900D02*
X8230000Y-8009900D01*
X8230000Y-7989900D02*
X8210000Y-8009900D01*
X8210000Y-8329900D02*
X8230000Y-8349900D01*
X8230000Y-8329900D02*
X8210000Y-8349900D01*
X8210000Y-9489900D02*
X8230000Y-9509900D01*
X8230000Y-9489900D02*
X8210000Y-9509900D01*
X8210000Y-9829900D02*
X8230000Y-9849900D01*
X8230000Y-9829900D02*
X8210000Y-9849900D01*
X8210000Y-10989900D02*
X8230000Y-11009900D01*
X8230000Y-10989900D02*
X8210000Y-11009900D01*
X8210000Y-11329900D02*
X8230000Y-11349900D01*
X8230000Y-11329900D02*
X8210000Y-11349900D01*
X8210000Y-12489900D02*
X8230000Y-12509900D01*
X8230000Y-12489900D02*
X8210000Y-12509900D01*
X8210000Y-12829900D02*
X8230000Y-12849900D01*
X8230000Y-12829900D02*
X8210000Y-12849900D01*
X8210000Y-13989900D02*
X8230000Y-14009900D01*
X8230000Y-13989900D02*
X8210000Y-14009900D01*
X8210000Y-14329900D02*
X8230000Y-14349900D01*
X8230000Y-14329900D02*
X8210000Y-14349900D01*
X8210000Y-15489900D02*
X8230000Y-15509900D01*
X8230000Y-15489900D02*
X8210000Y-15509900D01*
X8229321Y-16901021D02*
X8249321Y-16921021D01*
X8249321Y-16901021D02*
X8229321Y-16921021D01*
X8229500Y-16275103D02*
X8249500Y-16295103D01*
X8249500Y-16275103D02*
X8229500Y-16295103D01*
X8229500Y-16830700D02*
X8249500Y-16850700D01*
X8249500Y-16830700D02*
X8229500Y-16850700D01*
X8229500Y-17491100D02*
X8249500Y-17511100D01*
X8249500Y-17491100D02*
X8229500Y-17511100D01*
X8290000Y-4830100D02*
X8310000Y-4850100D01*
X8310000Y-4830100D02*
X8290000Y-4850100D01*
X8290000Y-5170100D02*
X8310000Y-5190100D01*
X8310000Y-5170100D02*
X8290000Y-5190100D01*
X8290000Y-6330100D02*
X8310000Y-6350100D01*
X8310000Y-6330100D02*
X8290000Y-6350100D01*
X8290000Y-6670100D02*
X8310000Y-6690100D01*
X8310000Y-6670100D02*
X8290000Y-6690100D01*
X8290000Y-7830100D02*
X8310000Y-7850100D01*
X8310000Y-7830100D02*
X8290000Y-7850100D01*
X8290000Y-8170100D02*
X8310000Y-8190100D01*
X8310000Y-8170100D02*
X8290000Y-8190100D01*
X8290000Y-9330100D02*
X8310000Y-9350100D01*
X8310000Y-9330100D02*
X8290000Y-9350100D01*
X8290000Y-9670100D02*
X8310000Y-9690100D01*
X8310000Y-9670100D02*
X8290000Y-9690100D01*
X8290000Y-10830100D02*
X8310000Y-10850100D01*
X8310000Y-10830100D02*
X8290000Y-10850100D01*
X8290000Y-11170100D02*
X8310000Y-11190100D01*
X8310000Y-11170100D02*
X8290000Y-11190100D01*
X8290000Y-12330100D02*
X8310000Y-12350100D01*
X8310000Y-12330100D02*
X8290000Y-12350100D01*
X8290000Y-12670100D02*
X8310000Y-12690100D01*
X8310000Y-12670100D02*
X8290000Y-12690100D01*
X8290000Y-13830100D02*
X8310000Y-13850100D01*
X8310000Y-13830100D02*
X8290000Y-13850100D01*
X8290000Y-14170100D02*
X8310000Y-14190100D01*
X8310000Y-14170100D02*
X8290000Y-14190100D01*
X8290000Y-15330100D02*
X8310000Y-15350100D01*
X8310000Y-15330100D02*
X8290000Y-15350100D01*
X8290000Y-15670100D02*
X8310000Y-15690100D01*
X8310000Y-15670100D02*
X8290000Y-15690100D01*
X8356500Y-16271900D02*
X8376500Y-16291900D01*
X8376500Y-16271900D02*
X8356500Y-16291900D01*
X8356500Y-16861900D02*
X8376500Y-16881900D01*
X8376500Y-16861900D02*
X8356500Y-16881900D01*
X8356500Y-16932300D02*
X8376500Y-16952300D01*
X8376500Y-16932300D02*
X8356500Y-16952300D01*
X8356500Y-17491100D02*
X8376500Y-17511100D01*
X8376500Y-17491100D02*
X8356500Y-17511100D01*
X8370000Y-4989900D02*
X8390000Y-5009900D01*
X8390000Y-4989900D02*
X8370000Y-5009900D01*
X8370000Y-5329900D02*
X8390000Y-5349900D01*
X8390000Y-5329900D02*
X8370000Y-5349900D01*
X8370000Y-6489900D02*
X8390000Y-6509900D01*
X8390000Y-6489900D02*
X8370000Y-6509900D01*
X8370000Y-6829900D02*
X8390000Y-6849900D01*
X8390000Y-6829900D02*
X8370000Y-6849900D01*
X8370000Y-7989900D02*
X8390000Y-8009900D01*
X8390000Y-7989900D02*
X8370000Y-8009900D01*
X8370000Y-8329900D02*
X8390000Y-8349900D01*
X8390000Y-8329900D02*
X8370000Y-8349900D01*
X8370000Y-9489900D02*
X8390000Y-9509900D01*
X8390000Y-9489900D02*
X8370000Y-9509900D01*
X8370000Y-9829900D02*
X8390000Y-9849900D01*
X8390000Y-9829900D02*
X8370000Y-9849900D01*
X8370000Y-10989900D02*
X8390000Y-11009900D01*
X8390000Y-10989900D02*
X8370000Y-11009900D01*
X8370000Y-11329900D02*
X8390000Y-11349900D01*
X8390000Y-11329900D02*
X8370000Y-11349900D01*
X8370000Y-12489900D02*
X8390000Y-12509900D01*
X8390000Y-12489900D02*
X8370000Y-12509900D01*
X8370000Y-12829900D02*
X8390000Y-12849900D01*
X8390000Y-12829900D02*
X8370000Y-12849900D01*
X8370000Y-13989900D02*
X8390000Y-14009900D01*
X8390000Y-13989900D02*
X8370000Y-14009900D01*
X8370000Y-14329900D02*
X8390000Y-14349900D01*
X8390000Y-14329900D02*
X8370000Y-14349900D01*
X8370000Y-15489900D02*
X8390000Y-15509900D01*
X8390000Y-15489900D02*
X8370000Y-15509900D01*
X8370000Y-15829900D02*
X8390000Y-15849900D01*
X8390000Y-15829900D02*
X8370000Y-15849900D01*
X8450000Y-4830100D02*
X8470000Y-4850100D01*
X8470000Y-4830100D02*
X8450000Y-4850100D01*
X8450000Y-5170100D02*
X8470000Y-5190100D01*
X8470000Y-5170100D02*
X8450000Y-5190100D01*
X8450000Y-6330100D02*
X8470000Y-6350100D01*
X8470000Y-6330100D02*
X8450000Y-6350100D01*
X8450000Y-6670100D02*
X8470000Y-6690100D01*
X8470000Y-6670100D02*
X8450000Y-6690100D01*
X8450000Y-7830100D02*
X8470000Y-7850100D01*
X8470000Y-7830100D02*
X8450000Y-7850100D01*
X8450000Y-8170100D02*
X8470000Y-8190100D01*
X8470000Y-8170100D02*
X8450000Y-8190100D01*
X8450000Y-9330100D02*
X8470000Y-9350100D01*
X8470000Y-9330100D02*
X8450000Y-9350100D01*
X8450000Y-9670100D02*
X8470000Y-9690100D01*
X8470000Y-9670100D02*
X8450000Y-9690100D01*
X8450000Y-10830100D02*
X8470000Y-10850100D01*
X8470000Y-10830100D02*
X8450000Y-10850100D01*
X8450000Y-11170100D02*
X8470000Y-11190100D01*
X8470000Y-11170100D02*
X8450000Y-11190100D01*
X8450000Y-12330100D02*
X8470000Y-12350100D01*
X8470000Y-12330100D02*
X8450000Y-12350100D01*
X8450000Y-12670100D02*
X8470000Y-12690100D01*
X8470000Y-12670100D02*
X8450000Y-12690100D01*
X8450000Y-13830100D02*
X8470000Y-13850100D01*
X8470000Y-13830100D02*
X8450000Y-13850100D01*
X8450000Y-14170100D02*
X8470000Y-14190100D01*
X8470000Y-14170100D02*
X8450000Y-14190100D01*
X8450000Y-15330100D02*
X8470000Y-15350100D01*
X8470000Y-15330100D02*
X8450000Y-15350100D01*
X8450000Y-15670100D02*
X8470000Y-15690100D01*
X8470000Y-15670100D02*
X8450000Y-15690100D01*
X8483321Y-16901021D02*
X8503321Y-16921021D01*
X8503321Y-16901021D02*
X8483321Y-16921021D01*
X8483500Y-16275103D02*
X8503500Y-16295103D01*
X8503500Y-16275103D02*
X8483500Y-16295103D01*
X8483500Y-16830700D02*
X8503500Y-16850700D01*
X8503500Y-16830700D02*
X8483500Y-16850700D01*
X8483500Y-17491100D02*
X8503500Y-17511100D01*
X8503500Y-17491100D02*
X8483500Y-17511100D01*
X8527498Y-15829900D02*
X8547498Y-15849900D01*
X8547498Y-15829900D02*
X8527498Y-15849900D01*
X8530000Y-4989900D02*
X8550000Y-5009900D01*
X8550000Y-4989900D02*
X8530000Y-5009900D01*
X8530000Y-5329900D02*
X8550000Y-5349900D01*
X8550000Y-5329900D02*
X8530000Y-5349900D01*
X8530000Y-6489900D02*
X8550000Y-6509900D01*
X8550000Y-6489900D02*
X8530000Y-6509900D01*
X8530000Y-6829900D02*
X8550000Y-6849900D01*
X8550000Y-6829900D02*
X8530000Y-6849900D01*
X8530000Y-7989900D02*
X8550000Y-8009900D01*
X8550000Y-7989900D02*
X8530000Y-8009900D01*
X8530000Y-8329900D02*
X8550000Y-8349900D01*
X8550000Y-8329900D02*
X8530000Y-8349900D01*
X8530000Y-9489900D02*
X8550000Y-9509900D01*
X8550000Y-9489900D02*
X8530000Y-9509900D01*
X8530000Y-9829900D02*
X8550000Y-9849900D01*
X8550000Y-9829900D02*
X8530000Y-9849900D01*
X8530000Y-10989900D02*
X8550000Y-11009900D01*
X8550000Y-10989900D02*
X8530000Y-11009900D01*
X8530000Y-11329900D02*
X8550000Y-11349900D01*
X8550000Y-11329900D02*
X8530000Y-11349900D01*
X8530000Y-12489900D02*
X8550000Y-12509900D01*
X8550000Y-12489900D02*
X8530000Y-12509900D01*
X8530000Y-12829900D02*
X8550000Y-12849900D01*
X8550000Y-12829900D02*
X8530000Y-12849900D01*
X8530000Y-13989900D02*
X8550000Y-14009900D01*
X8550000Y-13989900D02*
X8530000Y-14009900D01*
X8530000Y-14329900D02*
X8550000Y-14349900D01*
X8550000Y-14329900D02*
X8530000Y-14349900D01*
X8530000Y-15489900D02*
X8550000Y-15509900D01*
X8550000Y-15489900D02*
X8530000Y-15509900D01*
X8610000Y-4830100D02*
X8630000Y-4850100D01*
X8630000Y-4830100D02*
X8610000Y-4850100D01*
X8610000Y-5170100D02*
X8630000Y-5190100D01*
X8630000Y-5170100D02*
X8610000Y-5190100D01*
X8610000Y-6330100D02*
X8630000Y-6350100D01*
X8630000Y-6330100D02*
X8610000Y-6350100D01*
X8610000Y-6670100D02*
X8630000Y-6690100D01*
X8630000Y-6670100D02*
X8610000Y-6690100D01*
X8610000Y-7830100D02*
X8630000Y-7850100D01*
X8630000Y-7830100D02*
X8610000Y-7850100D01*
X8610000Y-8170100D02*
X8630000Y-8190100D01*
X8630000Y-8170100D02*
X8610000Y-8190100D01*
X8610000Y-9330100D02*
X8630000Y-9350100D01*
X8630000Y-9330100D02*
X8610000Y-9350100D01*
X8610000Y-9670100D02*
X8630000Y-9690100D01*
X8630000Y-9670100D02*
X8610000Y-9690100D01*
X8610000Y-10830100D02*
X8630000Y-10850100D01*
X8630000Y-10830100D02*
X8610000Y-10850100D01*
X8610000Y-11170100D02*
X8630000Y-11190100D01*
X8630000Y-11170100D02*
X8610000Y-11190100D01*
X8610000Y-12330100D02*
X8630000Y-12350100D01*
X8630000Y-12330100D02*
X8610000Y-12350100D01*
X8610000Y-12670100D02*
X8630000Y-12690100D01*
X8630000Y-12670100D02*
X8610000Y-12690100D01*
X8610000Y-13830100D02*
X8630000Y-13850100D01*
X8630000Y-13830100D02*
X8610000Y-13850100D01*
X8610000Y-14170100D02*
X8630000Y-14190100D01*
X8630000Y-14170100D02*
X8610000Y-14190100D01*
X8610000Y-15330100D02*
X8630000Y-15350100D01*
X8630000Y-15330100D02*
X8610000Y-15350100D01*
X8610000Y-15670100D02*
X8630000Y-15690100D01*
X8630000Y-15670100D02*
X8610000Y-15690100D01*
X8610500Y-16271900D02*
X8630500Y-16291900D01*
X8630500Y-16271900D02*
X8610500Y-16291900D01*
X8610500Y-16861900D02*
X8630500Y-16881900D01*
X8630500Y-16861900D02*
X8610500Y-16881900D01*
X8610500Y-16932300D02*
X8630500Y-16952300D01*
X8630500Y-16932300D02*
X8610500Y-16952300D01*
X8610500Y-17491100D02*
X8630500Y-17511100D01*
X8630500Y-17491100D02*
X8610500Y-17511100D01*
X8690000Y-4989900D02*
X8710000Y-5009900D01*
X8710000Y-4989900D02*
X8690000Y-5009900D01*
X8690000Y-5329900D02*
X8710000Y-5349900D01*
X8710000Y-5329900D02*
X8690000Y-5349900D01*
X8690000Y-6489900D02*
X8710000Y-6509900D01*
X8710000Y-6489900D02*
X8690000Y-6509900D01*
X8690000Y-6829900D02*
X8710000Y-6849900D01*
X8710000Y-6829900D02*
X8690000Y-6849900D01*
X8690000Y-7989900D02*
X8710000Y-8009900D01*
X8710000Y-7989900D02*
X8690000Y-8009900D01*
X8690000Y-8329900D02*
X8710000Y-8349900D01*
X8710000Y-8329900D02*
X8690000Y-8349900D01*
X8690000Y-9489900D02*
X8710000Y-9509900D01*
X8710000Y-9489900D02*
X8690000Y-9509900D01*
X8690000Y-9829900D02*
X8710000Y-9849900D01*
X8710000Y-9829900D02*
X8690000Y-9849900D01*
X8690000Y-10989900D02*
X8710000Y-11009900D01*
X8710000Y-10989900D02*
X8690000Y-11009900D01*
X8690000Y-11329900D02*
X8710000Y-11349900D01*
X8710000Y-11329900D02*
X8690000Y-11349900D01*
X8690000Y-12489900D02*
X8710000Y-12509900D01*
X8710000Y-12489900D02*
X8690000Y-12509900D01*
X8690000Y-12829900D02*
X8710000Y-12849900D01*
X8710000Y-12829900D02*
X8690000Y-12849900D01*
X8690000Y-13989900D02*
X8710000Y-14009900D01*
X8710000Y-13989900D02*
X8690000Y-14009900D01*
X8690000Y-14329900D02*
X8710000Y-14349900D01*
X8710000Y-14329900D02*
X8690000Y-14349900D01*
X8690000Y-15489900D02*
X8710000Y-15509900D01*
X8710000Y-15489900D02*
X8690000Y-15509900D01*
X8690000Y-15829900D02*
X8710000Y-15849900D01*
X8710000Y-15829900D02*
X8690000Y-15849900D01*
X8737321Y-16901021D02*
X8757321Y-16921021D01*
X8757321Y-16901021D02*
X8737321Y-16921021D01*
X8737500Y-16275103D02*
X8757500Y-16295103D01*
X8757500Y-16275103D02*
X8737500Y-16295103D01*
X8737500Y-16830700D02*
X8757500Y-16850700D01*
X8757500Y-16830700D02*
X8737500Y-16850700D01*
X8737500Y-17491100D02*
X8757500Y-17511100D01*
X8757500Y-17491100D02*
X8737500Y-17511100D01*
X8770000Y-4830100D02*
X8790000Y-4850100D01*
X8790000Y-4830100D02*
X8770000Y-4850100D01*
X8770000Y-5170100D02*
X8790000Y-5190100D01*
X8790000Y-5170100D02*
X8770000Y-5190100D01*
X8770000Y-6330100D02*
X8790000Y-6350100D01*
X8790000Y-6330100D02*
X8770000Y-6350100D01*
X8770000Y-6670100D02*
X8790000Y-6690100D01*
X8790000Y-6670100D02*
X8770000Y-6690100D01*
X8770000Y-7830100D02*
X8790000Y-7850100D01*
X8790000Y-7830100D02*
X8770000Y-7850100D01*
X8770000Y-8170100D02*
X8790000Y-8190100D01*
X8790000Y-8170100D02*
X8770000Y-8190100D01*
X8770000Y-9330100D02*
X8790000Y-9350100D01*
X8790000Y-9330100D02*
X8770000Y-9350100D01*
X8770000Y-9670100D02*
X8790000Y-9690100D01*
X8790000Y-9670100D02*
X8770000Y-9690100D01*
X8770000Y-10830100D02*
X8790000Y-10850100D01*
X8790000Y-10830100D02*
X8770000Y-10850100D01*
X8770000Y-11170100D02*
X8790000Y-11190100D01*
X8790000Y-11170100D02*
X8770000Y-11190100D01*
X8770000Y-12330100D02*
X8790000Y-12350100D01*
X8790000Y-12330100D02*
X8770000Y-12350100D01*
X8770000Y-12670100D02*
X8790000Y-12690100D01*
X8790000Y-12670100D02*
X8770000Y-12690100D01*
X8770000Y-13830100D02*
X8790000Y-13850100D01*
X8790000Y-13830100D02*
X8770000Y-13850100D01*
X8770000Y-14170100D02*
X8790000Y-14190100D01*
X8790000Y-14170100D02*
X8770000Y-14190100D01*
X8770000Y-15330100D02*
X8790000Y-15350100D01*
X8790000Y-15330100D02*
X8770000Y-15350100D01*
X8770000Y-15670100D02*
X8790000Y-15690100D01*
X8790000Y-15670100D02*
X8770000Y-15690100D01*
X8847498Y-15829900D02*
X8867498Y-15849900D01*
X8867498Y-15829900D02*
X8847498Y-15849900D01*
X8850000Y-4989900D02*
X8870000Y-5009900D01*
X8870000Y-4989900D02*
X8850000Y-5009900D01*
X8850000Y-5329900D02*
X8870000Y-5349900D01*
X8870000Y-5329900D02*
X8850000Y-5349900D01*
X8850000Y-6489900D02*
X8870000Y-6509900D01*
X8870000Y-6489900D02*
X8850000Y-6509900D01*
X8850000Y-6829900D02*
X8870000Y-6849900D01*
X8870000Y-6829900D02*
X8850000Y-6849900D01*
X8850000Y-7989900D02*
X8870000Y-8009900D01*
X8870000Y-7989900D02*
X8850000Y-8009900D01*
X8850000Y-8329900D02*
X8870000Y-8349900D01*
X8870000Y-8329900D02*
X8850000Y-8349900D01*
X8850000Y-9489900D02*
X8870000Y-9509900D01*
X8870000Y-9489900D02*
X8850000Y-9509900D01*
X8850000Y-9829900D02*
X8870000Y-9849900D01*
X8870000Y-9829900D02*
X8850000Y-9849900D01*
X8850000Y-10989900D02*
X8870000Y-11009900D01*
X8870000Y-10989900D02*
X8850000Y-11009900D01*
X8850000Y-11329900D02*
X8870000Y-11349900D01*
X8870000Y-11329900D02*
X8850000Y-11349900D01*
X8850000Y-12489900D02*
X8870000Y-12509900D01*
X8870000Y-12489900D02*
X8850000Y-12509900D01*
X8850000Y-12829900D02*
X8870000Y-12849900D01*
X8870000Y-12829900D02*
X8850000Y-12849900D01*
X8850000Y-13989900D02*
X8870000Y-14009900D01*
X8870000Y-13989900D02*
X8850000Y-14009900D01*
X8850000Y-14329900D02*
X8870000Y-14349900D01*
X8870000Y-14329900D02*
X8850000Y-14349900D01*
X8850000Y-15489900D02*
X8870000Y-15509900D01*
X8870000Y-15489900D02*
X8850000Y-15509900D01*
X8864500Y-16271900D02*
X8884500Y-16291900D01*
X8884500Y-16271900D02*
X8864500Y-16291900D01*
X8864500Y-16861900D02*
X8884500Y-16881900D01*
X8884500Y-16861900D02*
X8864500Y-16881900D01*
X8864500Y-16932300D02*
X8884500Y-16952300D01*
X8884500Y-16932300D02*
X8864500Y-16952300D01*
X8864500Y-17491100D02*
X8884500Y-17511100D01*
X8884500Y-17491100D02*
X8864500Y-17511100D01*
X8930000Y-4830100D02*
X8950000Y-4850100D01*
X8950000Y-4830100D02*
X8930000Y-4850100D01*
X8930000Y-5170100D02*
X8950000Y-5190100D01*
X8950000Y-5170100D02*
X8930000Y-5190100D01*
X8930000Y-6330100D02*
X8950000Y-6350100D01*
X8950000Y-6330100D02*
X8930000Y-6350100D01*
X8930000Y-6670100D02*
X8950000Y-6690100D01*
X8950000Y-6670100D02*
X8930000Y-6690100D01*
X8930000Y-7830100D02*
X8950000Y-7850100D01*
X8950000Y-7830100D02*
X8930000Y-7850100D01*
X8930000Y-8170100D02*
X8950000Y-8190100D01*
X8950000Y-8170100D02*
X8930000Y-8190100D01*
X8930000Y-9330100D02*
X8950000Y-9350100D01*
X8950000Y-9330100D02*
X8930000Y-9350100D01*
X8930000Y-9670100D02*
X8950000Y-9690100D01*
X8950000Y-9670100D02*
X8930000Y-9690100D01*
X8930000Y-10830100D02*
X8950000Y-10850100D01*
X8950000Y-10830100D02*
X8930000Y-10850100D01*
X8930000Y-11170100D02*
X8950000Y-11190100D01*
X8950000Y-11170100D02*
X8930000Y-11190100D01*
X8930000Y-12330100D02*
X8950000Y-12350100D01*
X8950000Y-12330100D02*
X8930000Y-12350100D01*
X8930000Y-12670100D02*
X8950000Y-12690100D01*
X8950000Y-12670100D02*
X8930000Y-12690100D01*
X8930000Y-13830100D02*
X8950000Y-13850100D01*
X8950000Y-13830100D02*
X8930000Y-13850100D01*
X8930000Y-14170100D02*
X8950000Y-14190100D01*
X8950000Y-14170100D02*
X8930000Y-14190100D01*
X8930000Y-15330100D02*
X8950000Y-15350100D01*
X8950000Y-15330100D02*
X8930000Y-15350100D01*
X8930000Y-15670100D02*
X8950000Y-15690100D01*
X8950000Y-15670100D02*
X8930000Y-15690100D01*
X8991321Y-16901021D02*
X9011321Y-16921021D01*
X9011321Y-16901021D02*
X8991321Y-16921021D01*
X8991500Y-16275103D02*
X9011500Y-16295103D01*
X9011500Y-16275103D02*
X8991500Y-16295103D01*
X8991500Y-16830700D02*
X9011500Y-16850700D01*
X9011500Y-16830700D02*
X8991500Y-16850700D01*
X8991500Y-17491100D02*
X9011500Y-17511100D01*
X9011500Y-17491100D02*
X8991500Y-17511100D01*
X9010000Y-4989900D02*
X9030000Y-5009900D01*
X9030000Y-4989900D02*
X9010000Y-5009900D01*
X9010000Y-5329900D02*
X9030000Y-5349900D01*
X9030000Y-5329900D02*
X9010000Y-5349900D01*
X9010000Y-6489900D02*
X9030000Y-6509900D01*
X9030000Y-6489900D02*
X9010000Y-6509900D01*
X9010000Y-6829900D02*
X9030000Y-6849900D01*
X9030000Y-6829900D02*
X9010000Y-6849900D01*
X9010000Y-7989900D02*
X9030000Y-8009900D01*
X9030000Y-7989900D02*
X9010000Y-8009900D01*
X9010000Y-8329900D02*
X9030000Y-8349900D01*
X9030000Y-8329900D02*
X9010000Y-8349900D01*
X9010000Y-9489900D02*
X9030000Y-9509900D01*
X9030000Y-9489900D02*
X9010000Y-9509900D01*
X9010000Y-9829900D02*
X9030000Y-9849900D01*
X9030000Y-9829900D02*
X9010000Y-9849900D01*
X9010000Y-10989900D02*
X9030000Y-11009900D01*
X9030000Y-10989900D02*
X9010000Y-11009900D01*
X9010000Y-11329900D02*
X9030000Y-11349900D01*
X9030000Y-11329900D02*
X9010000Y-11349900D01*
X9010000Y-12489900D02*
X9030000Y-12509900D01*
X9030000Y-12489900D02*
X9010000Y-12509900D01*
X9010000Y-12829900D02*
X9030000Y-12849900D01*
X9030000Y-12829900D02*
X9010000Y-12849900D01*
X9010000Y-13989900D02*
X9030000Y-14009900D01*
X9030000Y-13989900D02*
X9010000Y-14009900D01*
X9010000Y-14329900D02*
X9030000Y-14349900D01*
X9030000Y-14329900D02*
X9010000Y-14349900D01*
X9010000Y-15489900D02*
X9030000Y-15509900D01*
X9030000Y-15489900D02*
X9010000Y-15509900D01*
X9010000Y-15829900D02*
X9030000Y-15849900D01*
X9030000Y-15829900D02*
X9010000Y-15849900D01*
X9090000Y-4830100D02*
X9110000Y-4850100D01*
X9110000Y-4830100D02*
X9090000Y-4850100D01*
X9090000Y-5170100D02*
X9110000Y-5190100D01*
X9110000Y-5170100D02*
X9090000Y-5190100D01*
X9090000Y-6330100D02*
X9110000Y-6350100D01*
X9110000Y-6330100D02*
X9090000Y-6350100D01*
X9090000Y-6670100D02*
X9110000Y-6690100D01*
X9110000Y-6670100D02*
X9090000Y-6690100D01*
X9090000Y-7830100D02*
X9110000Y-7850100D01*
X9110000Y-7830100D02*
X9090000Y-7850100D01*
X9090000Y-8170100D02*
X9110000Y-8190100D01*
X9110000Y-8170100D02*
X9090000Y-8190100D01*
X9090000Y-9330100D02*
X9110000Y-9350100D01*
X9110000Y-9330100D02*
X9090000Y-9350100D01*
X9090000Y-9670100D02*
X9110000Y-9690100D01*
X9110000Y-9670100D02*
X9090000Y-9690100D01*
X9090000Y-10830100D02*
X9110000Y-10850100D01*
X9110000Y-10830100D02*
X9090000Y-10850100D01*
X9090000Y-11170100D02*
X9110000Y-11190100D01*
X9110000Y-11170100D02*
X9090000Y-11190100D01*
X9090000Y-12330100D02*
X9110000Y-12350100D01*
X9110000Y-12330100D02*
X9090000Y-12350100D01*
X9090000Y-12670100D02*
X9110000Y-12690100D01*
X9110000Y-12670100D02*
X9090000Y-12690100D01*
X9090000Y-13830100D02*
X9110000Y-13850100D01*
X9110000Y-13830100D02*
X9090000Y-13850100D01*
X9090000Y-14170100D02*
X9110000Y-14190100D01*
X9110000Y-14170100D02*
X9090000Y-14190100D01*
X9090000Y-15330100D02*
X9110000Y-15350100D01*
X9110000Y-15330100D02*
X9090000Y-15350100D01*
X9090000Y-15670100D02*
X9110000Y-15690100D01*
X9110000Y-15670100D02*
X9090000Y-15690100D01*
X9118500Y-16272867D02*
X9138500Y-16292867D01*
X9138500Y-16272867D02*
X9118500Y-16292867D01*
X9118500Y-16861900D02*
X9138500Y-16881900D01*
X9138500Y-16861900D02*
X9118500Y-16881900D01*
X9118500Y-16933267D02*
X9138500Y-16953267D01*
X9138500Y-16933267D02*
X9118500Y-16953267D01*
X9118500Y-17491100D02*
X9138500Y-17511100D01*
X9138500Y-17491100D02*
X9118500Y-17511100D01*
X9170000Y-4989900D02*
X9190000Y-5009900D01*
X9190000Y-4989900D02*
X9170000Y-5009900D01*
X9170000Y-5329900D02*
X9190000Y-5349900D01*
X9190000Y-5329900D02*
X9170000Y-5349900D01*
X9170000Y-6489900D02*
X9190000Y-6509900D01*
X9190000Y-6489900D02*
X9170000Y-6509900D01*
X9170000Y-6829900D02*
X9190000Y-6849900D01*
X9190000Y-6829900D02*
X9170000Y-6849900D01*
X9170000Y-7989900D02*
X9190000Y-8009900D01*
X9190000Y-7989900D02*
X9170000Y-8009900D01*
X9170000Y-8329900D02*
X9190000Y-8349900D01*
X9190000Y-8329900D02*
X9170000Y-8349900D01*
X9170000Y-9489900D02*
X9190000Y-9509900D01*
X9190000Y-9489900D02*
X9170000Y-9509900D01*
X9170000Y-9829900D02*
X9190000Y-9849900D01*
X9190000Y-9829900D02*
X9170000Y-9849900D01*
X9170000Y-10989900D02*
X9190000Y-11009900D01*
X9190000Y-10989900D02*
X9170000Y-11009900D01*
X9170000Y-11329900D02*
X9190000Y-11349900D01*
X9190000Y-11329900D02*
X9170000Y-11349900D01*
X9170000Y-12489900D02*
X9190000Y-12509900D01*
X9190000Y-12489900D02*
X9170000Y-12509900D01*
X9170000Y-12829900D02*
X9190000Y-12849900D01*
X9190000Y-12829900D02*
X9170000Y-12849900D01*
X9170000Y-13989900D02*
X9190000Y-14009900D01*
X9190000Y-13989900D02*
X9170000Y-14009900D01*
X9170000Y-14329900D02*
X9190000Y-14349900D01*
X9190000Y-14329900D02*
X9170000Y-14349900D01*
X9170000Y-15489900D02*
X9190000Y-15509900D01*
X9190000Y-15489900D02*
X9170000Y-15509900D01*
X9170000Y-15829900D02*
X9190000Y-15849900D01*
X9190000Y-15829900D02*
X9170000Y-15849900D01*
X9245321Y-16901021D02*
X9265321Y-16921021D01*
X9265321Y-16901021D02*
X9245321Y-16921021D01*
X9245500Y-16275103D02*
X9265500Y-16295103D01*
X9265500Y-16275103D02*
X9245500Y-16295103D01*
X9245500Y-16830700D02*
X9265500Y-16850700D01*
X9265500Y-16830700D02*
X9245500Y-16850700D01*
X9245500Y-17491100D02*
X9265500Y-17511100D01*
X9265500Y-17491100D02*
X9245500Y-17511100D01*
X9250000Y-4830100D02*
X9270000Y-4850100D01*
X9270000Y-4830100D02*
X9250000Y-4850100D01*
X9250000Y-5170100D02*
X9270000Y-5190100D01*
X9270000Y-5170100D02*
X9250000Y-5190100D01*
X9250000Y-6330100D02*
X9270000Y-6350100D01*
X9270000Y-6330100D02*
X9250000Y-6350100D01*
X9250000Y-6670100D02*
X9270000Y-6690100D01*
X9270000Y-6670100D02*
X9250000Y-6690100D01*
X9250000Y-7830100D02*
X9270000Y-7850100D01*
X9270000Y-7830100D02*
X9250000Y-7850100D01*
X9250000Y-8170100D02*
X9270000Y-8190100D01*
X9270000Y-8170100D02*
X9250000Y-8190100D01*
X9250000Y-9330100D02*
X9270000Y-9350100D01*
X9270000Y-9330100D02*
X9250000Y-9350100D01*
X9250000Y-9670100D02*
X9270000Y-9690100D01*
X9270000Y-9670100D02*
X9250000Y-9690100D01*
X9250000Y-10830100D02*
X9270000Y-10850100D01*
X9270000Y-10830100D02*
X9250000Y-10850100D01*
X9250000Y-11170100D02*
X9270000Y-11190100D01*
X9270000Y-11170100D02*
X9250000Y-11190100D01*
X9250000Y-12330100D02*
X9270000Y-12350100D01*
X9270000Y-12330100D02*
X9250000Y-12350100D01*
X9250000Y-12670100D02*
X9270000Y-12690100D01*
X9270000Y-12670100D02*
X9250000Y-12690100D01*
X9250000Y-13830100D02*
X9270000Y-13850100D01*
X9270000Y-13830100D02*
X9250000Y-13850100D01*
X9250000Y-14170100D02*
X9270000Y-14190100D01*
X9270000Y-14170100D02*
X9250000Y-14190100D01*
X9250000Y-15330100D02*
X9270000Y-15350100D01*
X9270000Y-15330100D02*
X9250000Y-15350100D01*
X9250000Y-15670100D02*
X9270000Y-15690100D01*
X9270000Y-15670100D02*
X9250000Y-15690100D01*
X9330000Y-4989900D02*
X9350000Y-5009900D01*
X9350000Y-4989900D02*
X9330000Y-5009900D01*
X9330000Y-5330100D02*
X9350000Y-5350100D01*
X9350000Y-5330100D02*
X9330000Y-5350100D01*
X9330000Y-6489900D02*
X9350000Y-6509900D01*
X9350000Y-6489900D02*
X9330000Y-6509900D01*
X9330000Y-6830100D02*
X9350000Y-6850100D01*
X9350000Y-6830100D02*
X9330000Y-6850100D01*
X9330000Y-7989900D02*
X9350000Y-8009900D01*
X9350000Y-7989900D02*
X9330000Y-8009900D01*
X9330000Y-8330100D02*
X9350000Y-8350100D01*
X9350000Y-8330100D02*
X9330000Y-8350100D01*
X9330000Y-9489900D02*
X9350000Y-9509900D01*
X9350000Y-9489900D02*
X9330000Y-9509900D01*
X9330000Y-9830100D02*
X9350000Y-9850100D01*
X9350000Y-9830100D02*
X9330000Y-9850100D01*
X9330000Y-10989900D02*
X9350000Y-11009900D01*
X9350000Y-10989900D02*
X9330000Y-11009900D01*
X9330000Y-11330100D02*
X9350000Y-11350100D01*
X9350000Y-11330100D02*
X9330000Y-11350100D01*
X9330000Y-12489900D02*
X9350000Y-12509900D01*
X9350000Y-12489900D02*
X9330000Y-12509900D01*
X9330000Y-12830100D02*
X9350000Y-12850100D01*
X9350000Y-12830100D02*
X9330000Y-12850100D01*
X9330000Y-13989900D02*
X9350000Y-14009900D01*
X9350000Y-13989900D02*
X9330000Y-14009900D01*
X9330000Y-14330100D02*
X9350000Y-14350100D01*
X9350000Y-14330100D02*
X9330000Y-14350100D01*
X9330000Y-15489900D02*
X9350000Y-15509900D01*
X9350000Y-15489900D02*
X9330000Y-15509900D01*
X9330000Y-15830100D02*
X9350000Y-15850100D01*
X9350000Y-15830100D02*
X9330000Y-15850100D01*
X9372500Y-16271900D02*
X9392500Y-16291900D01*
X9392500Y-16271900D02*
X9372500Y-16291900D01*
X9372500Y-16861900D02*
X9392500Y-16881900D01*
X9392500Y-16861900D02*
X9372500Y-16881900D01*
X9372500Y-16932300D02*
X9392500Y-16952300D01*
X9392500Y-16932300D02*
X9372500Y-16952300D01*
X9372500Y-17491100D02*
X9392500Y-17511100D01*
X9392500Y-17491100D02*
X9372500Y-17511100D01*
X9410000Y-4830100D02*
X9430000Y-4850100D01*
X9430000Y-4830100D02*
X9410000Y-4850100D01*
X9410000Y-5170100D02*
X9430000Y-5190100D01*
X9430000Y-5170100D02*
X9410000Y-5190100D01*
X9410000Y-6330100D02*
X9430000Y-6350100D01*
X9430000Y-6330100D02*
X9410000Y-6350100D01*
X9410000Y-6670100D02*
X9430000Y-6690100D01*
X9430000Y-6670100D02*
X9410000Y-6690100D01*
X9410000Y-7830100D02*
X9430000Y-7850100D01*
X9430000Y-7830100D02*
X9410000Y-7850100D01*
X9410000Y-8170100D02*
X9430000Y-8190100D01*
X9430000Y-8170100D02*
X9410000Y-8190100D01*
X9410000Y-9330100D02*
X9430000Y-9350100D01*
X9430000Y-9330100D02*
X9410000Y-9350100D01*
X9410000Y-9670100D02*
X9430000Y-9690100D01*
X9430000Y-9670100D02*
X9410000Y-9690100D01*
X9410000Y-10830100D02*
X9430000Y-10850100D01*
X9430000Y-10830100D02*
X9410000Y-10850100D01*
X9410000Y-11170100D02*
X9430000Y-11190100D01*
X9430000Y-11170100D02*
X9410000Y-11190100D01*
X9410000Y-12330100D02*
X9430000Y-12350100D01*
X9430000Y-12330100D02*
X9410000Y-12350100D01*
X9410000Y-12670100D02*
X9430000Y-12690100D01*
X9430000Y-12670100D02*
X9410000Y-12690100D01*
X9410000Y-13830100D02*
X9430000Y-13850100D01*
X9430000Y-13830100D02*
X9410000Y-13850100D01*
X9410000Y-14170100D02*
X9430000Y-14190100D01*
X9430000Y-14170100D02*
X9410000Y-14190100D01*
X9410000Y-15330100D02*
X9430000Y-15350100D01*
X9430000Y-15330100D02*
X9410000Y-15350100D01*
X9410000Y-15670100D02*
X9430000Y-15690100D01*
X9430000Y-15670100D02*
X9410000Y-15690100D01*
X9490000Y-4990100D02*
X9510000Y-5010100D01*
X9510000Y-4990100D02*
X9490000Y-5010100D01*
X9490000Y-5330100D02*
X9510000Y-5350100D01*
X9510000Y-5330100D02*
X9490000Y-5350100D01*
X9490000Y-6490100D02*
X9510000Y-6510100D01*
X9510000Y-6490100D02*
X9490000Y-6510100D01*
X9490000Y-6830100D02*
X9510000Y-6850100D01*
X9510000Y-6830100D02*
X9490000Y-6850100D01*
X9490000Y-7990100D02*
X9510000Y-8010100D01*
X9510000Y-7990100D02*
X9490000Y-8010100D01*
X9490000Y-8330100D02*
X9510000Y-8350100D01*
X9510000Y-8330100D02*
X9490000Y-8350100D01*
X9490000Y-9490100D02*
X9510000Y-9510100D01*
X9510000Y-9490100D02*
X9490000Y-9510100D01*
X9490000Y-9830100D02*
X9510000Y-9850100D01*
X9510000Y-9830100D02*
X9490000Y-9850100D01*
X9490000Y-10990100D02*
X9510000Y-11010100D01*
X9510000Y-10990100D02*
X9490000Y-11010100D01*
X9490000Y-11330100D02*
X9510000Y-11350100D01*
X9510000Y-11330100D02*
X9490000Y-11350100D01*
X9490000Y-12490100D02*
X9510000Y-12510100D01*
X9510000Y-12490100D02*
X9490000Y-12510100D01*
X9490000Y-12830100D02*
X9510000Y-12850100D01*
X9510000Y-12830100D02*
X9490000Y-12850100D01*
X9490000Y-13990100D02*
X9510000Y-14010100D01*
X9510000Y-13990100D02*
X9490000Y-14010100D01*
X9490000Y-14330100D02*
X9510000Y-14350100D01*
X9510000Y-14330100D02*
X9490000Y-14350100D01*
X9490000Y-15490100D02*
X9510000Y-15510100D01*
X9510000Y-15490100D02*
X9490000Y-15510100D01*
X9490000Y-15830100D02*
X9510000Y-15850100D01*
X9510000Y-15830100D02*
X9490000Y-15850100D01*
X9499321Y-16901021D02*
X9519321Y-16921021D01*
X9519321Y-16901021D02*
X9499321Y-16921021D01*
X9499500Y-16275103D02*
X9519500Y-16295103D01*
X9519500Y-16275103D02*
X9499500Y-16295103D01*
X9499500Y-16830700D02*
X9519500Y-16850700D01*
X9519500Y-16830700D02*
X9499500Y-16850700D01*
X9499500Y-17491100D02*
X9519500Y-17511100D01*
X9519500Y-17491100D02*
X9499500Y-17511100D01*
X9570000Y-4830100D02*
X9590000Y-4850100D01*
X9590000Y-4830100D02*
X9570000Y-4850100D01*
X9570000Y-5170100D02*
X9590000Y-5190100D01*
X9590000Y-5170100D02*
X9570000Y-5190100D01*
X9570000Y-6330100D02*
X9590000Y-6350100D01*
X9590000Y-6330100D02*
X9570000Y-6350100D01*
X9570000Y-6670100D02*
X9590000Y-6690100D01*
X9590000Y-6670100D02*
X9570000Y-6690100D01*
X9570000Y-7830100D02*
X9590000Y-7850100D01*
X9590000Y-7830100D02*
X9570000Y-7850100D01*
X9570000Y-8170100D02*
X9590000Y-8190100D01*
X9590000Y-8170100D02*
X9570000Y-8190100D01*
X9570000Y-9330100D02*
X9590000Y-9350100D01*
X9590000Y-9330100D02*
X9570000Y-9350100D01*
X9570000Y-9670100D02*
X9590000Y-9690100D01*
X9590000Y-9670100D02*
X9570000Y-9690100D01*
X9570000Y-10830100D02*
X9590000Y-10850100D01*
X9590000Y-10830100D02*
X9570000Y-10850100D01*
X9570000Y-11170100D02*
X9590000Y-11190100D01*
X9590000Y-11170100D02*
X9570000Y-11190100D01*
X9570000Y-12330100D02*
X9590000Y-12350100D01*
X9590000Y-12330100D02*
X9570000Y-12350100D01*
X9570000Y-12670100D02*
X9590000Y-12690100D01*
X9590000Y-12670100D02*
X9570000Y-12690100D01*
X9570000Y-13830100D02*
X9590000Y-13850100D01*
X9590000Y-13830100D02*
X9570000Y-13850100D01*
X9570000Y-14170100D02*
X9590000Y-14190100D01*
X9590000Y-14170100D02*
X9570000Y-14190100D01*
X9570000Y-15330100D02*
X9590000Y-15350100D01*
X9590000Y-15330100D02*
X9570000Y-15350100D01*
X9570000Y-15670100D02*
X9590000Y-15690100D01*
X9590000Y-15670100D02*
X9570000Y-15690100D01*
X9626500Y-16271900D02*
X9646500Y-16291900D01*
X9646500Y-16271900D02*
X9626500Y-16291900D01*
X9626500Y-16861900D02*
X9646500Y-16881900D01*
X9646500Y-16861900D02*
X9626500Y-16881900D01*
X9626500Y-16932300D02*
X9646500Y-16952300D01*
X9646500Y-16932300D02*
X9626500Y-16952300D01*
X9626500Y-17491100D02*
X9646500Y-17511100D01*
X9646500Y-17491100D02*
X9626500Y-17511100D01*
X9650000Y-4990100D02*
X9670000Y-5010100D01*
X9670000Y-4990100D02*
X9650000Y-5010100D01*
X9650000Y-5330100D02*
X9670000Y-5350100D01*
X9670000Y-5330100D02*
X9650000Y-5350100D01*
X9650000Y-6490100D02*
X9670000Y-6510100D01*
X9670000Y-6490100D02*
X9650000Y-6510100D01*
X9650000Y-6830100D02*
X9670000Y-6850100D01*
X9670000Y-6830100D02*
X9650000Y-6850100D01*
X9650000Y-7990100D02*
X9670000Y-8010100D01*
X9670000Y-7990100D02*
X9650000Y-8010100D01*
X9650000Y-8330100D02*
X9670000Y-8350100D01*
X9670000Y-8330100D02*
X9650000Y-8350100D01*
X9650000Y-9490100D02*
X9670000Y-9510100D01*
X9670000Y-9490100D02*
X9650000Y-9510100D01*
X9650000Y-9830100D02*
X9670000Y-9850100D01*
X9670000Y-9830100D02*
X9650000Y-9850100D01*
X9650000Y-10990100D02*
X9670000Y-11010100D01*
X9670000Y-10990100D02*
X9650000Y-11010100D01*
X9650000Y-11330100D02*
X9670000Y-11350100D01*
X9670000Y-11330100D02*
X9650000Y-11350100D01*
X9650000Y-12490100D02*
X9670000Y-12510100D01*
X9670000Y-12490100D02*
X9650000Y-12510100D01*
X9650000Y-12830100D02*
X9670000Y-12850100D01*
X9670000Y-12830100D02*
X9650000Y-12850100D01*
X9650000Y-13990100D02*
X9670000Y-14010100D01*
X9670000Y-13990100D02*
X9650000Y-14010100D01*
X9650000Y-14330100D02*
X9670000Y-14350100D01*
X9670000Y-14330100D02*
X9650000Y-14350100D01*
X9650000Y-15490100D02*
X9670000Y-15510100D01*
X9670000Y-15490100D02*
X9650000Y-15510100D01*
X9650000Y-15830100D02*
X9670000Y-15850100D01*
X9670000Y-15830100D02*
X9650000Y-15850100D01*
X9753321Y-16901021D02*
X9773321Y-16921021D01*
X9773321Y-16901021D02*
X9753321Y-16921021D01*
X9753500Y-16275103D02*
X9773500Y-16295103D01*
X9773500Y-16275103D02*
X9753500Y-16295103D01*
X9753500Y-16830700D02*
X9773500Y-16850700D01*
X9773500Y-16830700D02*
X9753500Y-16850700D01*
X9753500Y-17491100D02*
X9773500Y-17511100D01*
X9773500Y-17491100D02*
X9753500Y-17511100D01*
X9880500Y-16271900D02*
X9900500Y-16291900D01*
X9900500Y-16271900D02*
X9880500Y-16291900D01*
X9880500Y-16861900D02*
X9900500Y-16881900D01*
X9900500Y-16861900D02*
X9880500Y-16881900D01*
X9880500Y-16932300D02*
X9900500Y-16952300D01*
X9900500Y-16932300D02*
X9880500Y-16952300D01*
X9880500Y-17491100D02*
X9900500Y-17511100D01*
X9900500Y-17491100D02*
X9880500Y-17511100D01*
X10006599Y-16830700D02*
X10026599Y-16850700D01*
X10026599Y-16830700D02*
X10006599Y-16850700D01*
X10007321Y-16901021D02*
X10027321Y-16921021D01*
X10027321Y-16901021D02*
X10007321Y-16921021D01*
X10007500Y-16275103D02*
X10027500Y-16295103D01*
X10027500Y-16275103D02*
X10007500Y-16295103D01*
X10007500Y-17491100D02*
X10027500Y-17511100D01*
X10027500Y-17491100D02*
X10007500Y-17511100D01*
X10050000Y-4830100D02*
X10070000Y-4850100D01*
X10070000Y-4830100D02*
X10050000Y-4850100D01*
X10050000Y-5170100D02*
X10070000Y-5190100D01*
X10070000Y-5170100D02*
X10050000Y-5190100D01*
X10050000Y-6330100D02*
X10070000Y-6350100D01*
X10070000Y-6330100D02*
X10050000Y-6350100D01*
X10050000Y-6670100D02*
X10070000Y-6690100D01*
X10070000Y-6670100D02*
X10050000Y-6690100D01*
X10050000Y-7830100D02*
X10070000Y-7850100D01*
X10070000Y-7830100D02*
X10050000Y-7850100D01*
X10050000Y-8170100D02*
X10070000Y-8190100D01*
X10070000Y-8170100D02*
X10050000Y-8190100D01*
X10050000Y-9330100D02*
X10070000Y-9350100D01*
X10070000Y-9330100D02*
X10050000Y-9350100D01*
X10050000Y-9670100D02*
X10070000Y-9690100D01*
X10070000Y-9670100D02*
X10050000Y-9690100D01*
X10050000Y-10830100D02*
X10070000Y-10850100D01*
X10070000Y-10830100D02*
X10050000Y-10850100D01*
X10050000Y-11170100D02*
X10070000Y-11190100D01*
X10070000Y-11170100D02*
X10050000Y-11190100D01*
X10050000Y-12330100D02*
X10070000Y-12350100D01*
X10070000Y-12330100D02*
X10050000Y-12350100D01*
X10050000Y-12670100D02*
X10070000Y-12690100D01*
X10070000Y-12670100D02*
X10050000Y-12690100D01*
X10050000Y-13830100D02*
X10070000Y-13850100D01*
X10070000Y-13830100D02*
X10050000Y-13850100D01*
X10050000Y-14170100D02*
X10070000Y-14190100D01*
X10070000Y-14170100D02*
X10050000Y-14190100D01*
X10050000Y-15330100D02*
X10070000Y-15350100D01*
X10070000Y-15330100D02*
X10050000Y-15350100D01*
X10050000Y-15670100D02*
X10070000Y-15690100D01*
X10070000Y-15670100D02*
X10050000Y-15690100D01*
X10130000Y-4989900D02*
X10150000Y-5009900D01*
X10150000Y-4989900D02*
X10130000Y-5009900D01*
X10130000Y-5329900D02*
X10150000Y-5349900D01*
X10150000Y-5329900D02*
X10130000Y-5349900D01*
X10130000Y-6489900D02*
X10150000Y-6509900D01*
X10150000Y-6489900D02*
X10130000Y-6509900D01*
X10130000Y-6829900D02*
X10150000Y-6849900D01*
X10150000Y-6829900D02*
X10130000Y-6849900D01*
X10130000Y-7989900D02*
X10150000Y-8009900D01*
X10150000Y-7989900D02*
X10130000Y-8009900D01*
X10130000Y-8329900D02*
X10150000Y-8349900D01*
X10150000Y-8329900D02*
X10130000Y-8349900D01*
X10130000Y-9489900D02*
X10150000Y-9509900D01*
X10150000Y-9489900D02*
X10130000Y-9509900D01*
X10130000Y-9829900D02*
X10150000Y-9849900D01*
X10150000Y-9829900D02*
X10130000Y-9849900D01*
X10130000Y-10989900D02*
X10150000Y-11009900D01*
X10150000Y-10989900D02*
X10130000Y-11009900D01*
X10130000Y-11329900D02*
X10150000Y-11349900D01*
X10150000Y-11329900D02*
X10130000Y-11349900D01*
X10130000Y-12489900D02*
X10150000Y-12509900D01*
X10150000Y-12489900D02*
X10130000Y-12509900D01*
X10130000Y-12829900D02*
X10150000Y-12849900D01*
X10150000Y-12829900D02*
X10130000Y-12849900D01*
X10130000Y-13989900D02*
X10150000Y-14009900D01*
X10150000Y-13989900D02*
X10130000Y-14009900D01*
X10130000Y-14329900D02*
X10150000Y-14349900D01*
X10150000Y-14329900D02*
X10130000Y-14349900D01*
X10130000Y-15489900D02*
X10150000Y-15509900D01*
X10150000Y-15489900D02*
X10130000Y-15509900D01*
X10130000Y-15829900D02*
X10150000Y-15849900D01*
X10150000Y-15829900D02*
X10130000Y-15849900D01*
X10134500Y-16271900D02*
X10154500Y-16291900D01*
X10154500Y-16271900D02*
X10134500Y-16291900D01*
X10134500Y-16861900D02*
X10154500Y-16881900D01*
X10154500Y-16861900D02*
X10134500Y-16881900D01*
X10134500Y-16932300D02*
X10154500Y-16952300D01*
X10154500Y-16932300D02*
X10134500Y-16952300D01*
X10134500Y-17491100D02*
X10154500Y-17511100D01*
X10154500Y-17491100D02*
X10134500Y-17511100D01*
X10210000Y-4830100D02*
X10230000Y-4850100D01*
X10230000Y-4830100D02*
X10210000Y-4850100D01*
X10210000Y-5170100D02*
X10230000Y-5190100D01*
X10230000Y-5170100D02*
X10210000Y-5190100D01*
X10210000Y-6330100D02*
X10230000Y-6350100D01*
X10230000Y-6330100D02*
X10210000Y-6350100D01*
X10210000Y-6670100D02*
X10230000Y-6690100D01*
X10230000Y-6670100D02*
X10210000Y-6690100D01*
X10210000Y-7830100D02*
X10230000Y-7850100D01*
X10230000Y-7830100D02*
X10210000Y-7850100D01*
X10210000Y-8170100D02*
X10230000Y-8190100D01*
X10230000Y-8170100D02*
X10210000Y-8190100D01*
X10210000Y-9330100D02*
X10230000Y-9350100D01*
X10230000Y-9330100D02*
X10210000Y-9350100D01*
X10210000Y-9670100D02*
X10230000Y-9690100D01*
X10230000Y-9670100D02*
X10210000Y-9690100D01*
X10210000Y-10830100D02*
X10230000Y-10850100D01*
X10230000Y-10830100D02*
X10210000Y-10850100D01*
X10210000Y-11170100D02*
X10230000Y-11190100D01*
X10230000Y-11170100D02*
X10210000Y-11190100D01*
X10210000Y-12330100D02*
X10230000Y-12350100D01*
X10230000Y-12330100D02*
X10210000Y-12350100D01*
X10210000Y-12670100D02*
X10230000Y-12690100D01*
X10230000Y-12670100D02*
X10210000Y-12690100D01*
X10210000Y-13830100D02*
X10230000Y-13850100D01*
X10230000Y-13830100D02*
X10210000Y-13850100D01*
X10210000Y-14170100D02*
X10230000Y-14190100D01*
X10230000Y-14170100D02*
X10210000Y-14190100D01*
X10210000Y-15330100D02*
X10230000Y-15350100D01*
X10230000Y-15330100D02*
X10210000Y-15350100D01*
X10210000Y-15670100D02*
X10230000Y-15690100D01*
X10230000Y-15670100D02*
X10210000Y-15690100D01*
X10261321Y-16901021D02*
X10281321Y-16921021D01*
X10281321Y-16901021D02*
X10261321Y-16921021D01*
X10261500Y-16275103D02*
X10281500Y-16295103D01*
X10281500Y-16275103D02*
X10261500Y-16295103D01*
X10261500Y-16829733D02*
X10281500Y-16849733D01*
X10281500Y-16829733D02*
X10261500Y-16849733D01*
X10261500Y-17490133D02*
X10281500Y-17510133D01*
X10281500Y-17490133D02*
X10261500Y-17510133D01*
X10290000Y-4989900D02*
X10310000Y-5009900D01*
X10310000Y-4989900D02*
X10290000Y-5009900D01*
X10290000Y-5329900D02*
X10310000Y-5349900D01*
X10310000Y-5329900D02*
X10290000Y-5349900D01*
X10290000Y-6489900D02*
X10310000Y-6509900D01*
X10310000Y-6489900D02*
X10290000Y-6509900D01*
X10290000Y-6829900D02*
X10310000Y-6849900D01*
X10310000Y-6829900D02*
X10290000Y-6849900D01*
X10290000Y-7989900D02*
X10310000Y-8009900D01*
X10310000Y-7989900D02*
X10290000Y-8009900D01*
X10290000Y-8329900D02*
X10310000Y-8349900D01*
X10310000Y-8329900D02*
X10290000Y-8349900D01*
X10290000Y-9489900D02*
X10310000Y-9509900D01*
X10310000Y-9489900D02*
X10290000Y-9509900D01*
X10290000Y-9829900D02*
X10310000Y-9849900D01*
X10310000Y-9829900D02*
X10290000Y-9849900D01*
X10290000Y-10989900D02*
X10310000Y-11009900D01*
X10310000Y-10989900D02*
X10290000Y-11009900D01*
X10290000Y-11329900D02*
X10310000Y-11349900D01*
X10310000Y-11329900D02*
X10290000Y-11349900D01*
X10290000Y-12489900D02*
X10310000Y-12509900D01*
X10310000Y-12489900D02*
X10290000Y-12509900D01*
X10290000Y-12829900D02*
X10310000Y-12849900D01*
X10310000Y-12829900D02*
X10290000Y-12849900D01*
X10290000Y-13989900D02*
X10310000Y-14009900D01*
X10310000Y-13989900D02*
X10290000Y-14009900D01*
X10290000Y-14329900D02*
X10310000Y-14349900D01*
X10310000Y-14329900D02*
X10290000Y-14349900D01*
X10290000Y-15489900D02*
X10310000Y-15509900D01*
X10310000Y-15489900D02*
X10290000Y-15509900D01*
X10290000Y-15829900D02*
X10310000Y-15849900D01*
X10310000Y-15829900D02*
X10290000Y-15849900D01*
X10370000Y-4830100D02*
X10390000Y-4850100D01*
X10390000Y-4830100D02*
X10370000Y-4850100D01*
X10370000Y-5170100D02*
X10390000Y-5190100D01*
X10390000Y-5170100D02*
X10370000Y-5190100D01*
X10370000Y-6330100D02*
X10390000Y-6350100D01*
X10390000Y-6330100D02*
X10370000Y-6350100D01*
X10370000Y-6670100D02*
X10390000Y-6690100D01*
X10390000Y-6670100D02*
X10370000Y-6690100D01*
X10370000Y-7830100D02*
X10390000Y-7850100D01*
X10390000Y-7830100D02*
X10370000Y-7850100D01*
X10370000Y-8170100D02*
X10390000Y-8190100D01*
X10390000Y-8170100D02*
X10370000Y-8190100D01*
X10370000Y-9330100D02*
X10390000Y-9350100D01*
X10390000Y-9330100D02*
X10370000Y-9350100D01*
X10370000Y-9670100D02*
X10390000Y-9690100D01*
X10390000Y-9670100D02*
X10370000Y-9690100D01*
X10370000Y-10830100D02*
X10390000Y-10850100D01*
X10390000Y-10830100D02*
X10370000Y-10850100D01*
X10370000Y-11170100D02*
X10390000Y-11190100D01*
X10390000Y-11170100D02*
X10370000Y-11190100D01*
X10370000Y-12330100D02*
X10390000Y-12350100D01*
X10390000Y-12330100D02*
X10370000Y-12350100D01*
X10370000Y-12670100D02*
X10390000Y-12690100D01*
X10390000Y-12670100D02*
X10370000Y-12690100D01*
X10370000Y-13830100D02*
X10390000Y-13850100D01*
X10390000Y-13830100D02*
X10370000Y-13850100D01*
X10370000Y-14170100D02*
X10390000Y-14190100D01*
X10390000Y-14170100D02*
X10370000Y-14190100D01*
X10370000Y-15330100D02*
X10390000Y-15350100D01*
X10390000Y-15330100D02*
X10370000Y-15350100D01*
X10370000Y-15670100D02*
X10390000Y-15690100D01*
X10390000Y-15670100D02*
X10370000Y-15690100D01*
X10388500Y-16271900D02*
X10408500Y-16291900D01*
X10408500Y-16271900D02*
X10388500Y-16291900D01*
X10388500Y-16861900D02*
X10408500Y-16881900D01*
X10408500Y-16861900D02*
X10388500Y-16881900D01*
X10388500Y-16932300D02*
X10408500Y-16952300D01*
X10408500Y-16932300D02*
X10388500Y-16952300D01*
X10388500Y-17491100D02*
X10408500Y-17511100D01*
X10408500Y-17491100D02*
X10388500Y-17511100D01*
X10450000Y-4989900D02*
X10470000Y-5009900D01*
X10470000Y-4989900D02*
X10450000Y-5009900D01*
X10450000Y-5329900D02*
X10470000Y-5349900D01*
X10470000Y-5329900D02*
X10450000Y-5349900D01*
X10450000Y-6489900D02*
X10470000Y-6509900D01*
X10470000Y-6489900D02*
X10450000Y-6509900D01*
X10450000Y-6829900D02*
X10470000Y-6849900D01*
X10470000Y-6829900D02*
X10450000Y-6849900D01*
X10450000Y-7989900D02*
X10470000Y-8009900D01*
X10470000Y-7989900D02*
X10450000Y-8009900D01*
X10450000Y-8329900D02*
X10470000Y-8349900D01*
X10470000Y-8329900D02*
X10450000Y-8349900D01*
X10450000Y-9489900D02*
X10470000Y-9509900D01*
X10470000Y-9489900D02*
X10450000Y-9509900D01*
X10450000Y-9829900D02*
X10470000Y-9849900D01*
X10470000Y-9829900D02*
X10450000Y-9849900D01*
X10450000Y-10989900D02*
X10470000Y-11009900D01*
X10470000Y-10989900D02*
X10450000Y-11009900D01*
X10450000Y-11329900D02*
X10470000Y-11349900D01*
X10470000Y-11329900D02*
X10450000Y-11349900D01*
X10450000Y-12489900D02*
X10470000Y-12509900D01*
X10470000Y-12489900D02*
X10450000Y-12509900D01*
X10450000Y-12829900D02*
X10470000Y-12849900D01*
X10470000Y-12829900D02*
X10450000Y-12849900D01*
X10450000Y-13989900D02*
X10470000Y-14009900D01*
X10470000Y-13989900D02*
X10450000Y-14009900D01*
X10450000Y-14329900D02*
X10470000Y-14349900D01*
X10470000Y-14329900D02*
X10450000Y-14349900D01*
X10450000Y-15489900D02*
X10470000Y-15509900D01*
X10470000Y-15489900D02*
X10450000Y-15509900D01*
X10450000Y-15829900D02*
X10470000Y-15849900D01*
X10470000Y-15829900D02*
X10450000Y-15849900D01*
X10515321Y-16901021D02*
X10535321Y-16921021D01*
X10535321Y-16901021D02*
X10515321Y-16921021D01*
X10515500Y-16275103D02*
X10535500Y-16295103D01*
X10535500Y-16275103D02*
X10515500Y-16295103D01*
X10515500Y-16830700D02*
X10535500Y-16850700D01*
X10535500Y-16830700D02*
X10515500Y-16850700D01*
X10515500Y-17491100D02*
X10535500Y-17511100D01*
X10535500Y-17491100D02*
X10515500Y-17511100D01*
X10530000Y-4830100D02*
X10550000Y-4850100D01*
X10550000Y-4830100D02*
X10530000Y-4850100D01*
X10530000Y-5170100D02*
X10550000Y-5190100D01*
X10550000Y-5170100D02*
X10530000Y-5190100D01*
X10530000Y-6330100D02*
X10550000Y-6350100D01*
X10550000Y-6330100D02*
X10530000Y-6350100D01*
X10530000Y-6670100D02*
X10550000Y-6690100D01*
X10550000Y-6670100D02*
X10530000Y-6690100D01*
X10530000Y-7830100D02*
X10550000Y-7850100D01*
X10550000Y-7830100D02*
X10530000Y-7850100D01*
X10530000Y-8170100D02*
X10550000Y-8190100D01*
X10550000Y-8170100D02*
X10530000Y-8190100D01*
X10530000Y-9330100D02*
X10550000Y-9350100D01*
X10550000Y-9330100D02*
X10530000Y-9350100D01*
X10530000Y-9670100D02*
X10550000Y-9690100D01*
X10550000Y-9670100D02*
X10530000Y-9690100D01*
X10530000Y-10830100D02*
X10550000Y-10850100D01*
X10550000Y-10830100D02*
X10530000Y-10850100D01*
X10530000Y-11170100D02*
X10550000Y-11190100D01*
X10550000Y-11170100D02*
X10530000Y-11190100D01*
X10530000Y-12330100D02*
X10550000Y-12350100D01*
X10550000Y-12330100D02*
X10530000Y-12350100D01*
X10530000Y-12670100D02*
X10550000Y-12690100D01*
X10550000Y-12670100D02*
X10530000Y-12690100D01*
X10530000Y-13830100D02*
X10550000Y-13850100D01*
X10550000Y-13830100D02*
X10530000Y-13850100D01*
X10530000Y-14170100D02*
X10550000Y-14190100D01*
X10550000Y-14170100D02*
X10530000Y-14190100D01*
X10530000Y-15330100D02*
X10550000Y-15350100D01*
X10550000Y-15330100D02*
X10530000Y-15350100D01*
X10530000Y-15670100D02*
X10550000Y-15690100D01*
X10550000Y-15670100D02*
X10530000Y-15690100D01*
X10610000Y-4989900D02*
X10630000Y-5009900D01*
X10630000Y-4989900D02*
X10610000Y-5009900D01*
X10610000Y-5329900D02*
X10630000Y-5349900D01*
X10630000Y-5329900D02*
X10610000Y-5349900D01*
X10610000Y-6489900D02*
X10630000Y-6509900D01*
X10630000Y-6489900D02*
X10610000Y-6509900D01*
X10610000Y-6829900D02*
X10630000Y-6849900D01*
X10630000Y-6829900D02*
X10610000Y-6849900D01*
X10610000Y-7989900D02*
X10630000Y-8009900D01*
X10630000Y-7989900D02*
X10610000Y-8009900D01*
X10610000Y-8329900D02*
X10630000Y-8349900D01*
X10630000Y-8329900D02*
X10610000Y-8349900D01*
X10610000Y-9489900D02*
X10630000Y-9509900D01*
X10630000Y-9489900D02*
X10610000Y-9509900D01*
X10610000Y-9829900D02*
X10630000Y-9849900D01*
X10630000Y-9829900D02*
X10610000Y-9849900D01*
X10610000Y-10989900D02*
X10630000Y-11009900D01*
X10630000Y-10989900D02*
X10610000Y-11009900D01*
X10610000Y-11329900D02*
X10630000Y-11349900D01*
X10630000Y-11329900D02*
X10610000Y-11349900D01*
X10610000Y-12489900D02*
X10630000Y-12509900D01*
X10630000Y-12489900D02*
X10610000Y-12509900D01*
X10610000Y-12829900D02*
X10630000Y-12849900D01*
X10630000Y-12829900D02*
X10610000Y-12849900D01*
X10610000Y-13989900D02*
X10630000Y-14009900D01*
X10630000Y-13989900D02*
X10610000Y-14009900D01*
X10610000Y-14329900D02*
X10630000Y-14349900D01*
X10630000Y-14329900D02*
X10610000Y-14349900D01*
X10610000Y-15489900D02*
X10630000Y-15509900D01*
X10630000Y-15489900D02*
X10610000Y-15509900D01*
X10610000Y-15829900D02*
X10630000Y-15849900D01*
X10630000Y-15829900D02*
X10610000Y-15849900D01*
X10642500Y-16271900D02*
X10662500Y-16291900D01*
X10662500Y-16271900D02*
X10642500Y-16291900D01*
X10642500Y-16861900D02*
X10662500Y-16881900D01*
X10662500Y-16861900D02*
X10642500Y-16881900D01*
X10642500Y-16932300D02*
X10662500Y-16952300D01*
X10662500Y-16932300D02*
X10642500Y-16952300D01*
X10642500Y-17491100D02*
X10662500Y-17511100D01*
X10662500Y-17491100D02*
X10642500Y-17511100D01*
X10690000Y-4830100D02*
X10710000Y-4850100D01*
X10710000Y-4830100D02*
X10690000Y-4850100D01*
X10690000Y-5170100D02*
X10710000Y-5190100D01*
X10710000Y-5170100D02*
X10690000Y-5190100D01*
X10690000Y-6330100D02*
X10710000Y-6350100D01*
X10710000Y-6330100D02*
X10690000Y-6350100D01*
X10690000Y-6670100D02*
X10710000Y-6690100D01*
X10710000Y-6670100D02*
X10690000Y-6690100D01*
X10690000Y-7830100D02*
X10710000Y-7850100D01*
X10710000Y-7830100D02*
X10690000Y-7850100D01*
X10690000Y-8170100D02*
X10710000Y-8190100D01*
X10710000Y-8170100D02*
X10690000Y-8190100D01*
X10690000Y-9330100D02*
X10710000Y-9350100D01*
X10710000Y-9330100D02*
X10690000Y-9350100D01*
X10690000Y-9670100D02*
X10710000Y-9690100D01*
X10710000Y-9670100D02*
X10690000Y-9690100D01*
X10690000Y-10830100D02*
X10710000Y-10850100D01*
X10710000Y-10830100D02*
X10690000Y-10850100D01*
X10690000Y-11170100D02*
X10710000Y-11190100D01*
X10710000Y-11170100D02*
X10690000Y-11190100D01*
X10690000Y-12330100D02*
X10710000Y-12350100D01*
X10710000Y-12330100D02*
X10690000Y-12350100D01*
X10690000Y-12670100D02*
X10710000Y-12690100D01*
X10710000Y-12670100D02*
X10690000Y-12690100D01*
X10690000Y-13830100D02*
X10710000Y-13850100D01*
X10710000Y-13830100D02*
X10690000Y-13850100D01*
X10690000Y-14170100D02*
X10710000Y-14190100D01*
X10710000Y-14170100D02*
X10690000Y-14190100D01*
X10690000Y-15330100D02*
X10710000Y-15350100D01*
X10710000Y-15330100D02*
X10690000Y-15350100D01*
X10690000Y-15670100D02*
X10710000Y-15690100D01*
X10710000Y-15670100D02*
X10690000Y-15690100D01*
X10769321Y-16901021D02*
X10789321Y-16921021D01*
X10789321Y-16901021D02*
X10769321Y-16921021D01*
X10769500Y-16275103D02*
X10789500Y-16295103D01*
X10789500Y-16275103D02*
X10769500Y-16295103D01*
X10769500Y-16830700D02*
X10789500Y-16850700D01*
X10789500Y-16830700D02*
X10769500Y-16850700D01*
X10769500Y-17491100D02*
X10789500Y-17511100D01*
X10789500Y-17491100D02*
X10769500Y-17511100D01*
X10770000Y-4989900D02*
X10790000Y-5009900D01*
X10790000Y-4989900D02*
X10770000Y-5009900D01*
X10770000Y-5329900D02*
X10790000Y-5349900D01*
X10790000Y-5329900D02*
X10770000Y-5349900D01*
X10770000Y-6489900D02*
X10790000Y-6509900D01*
X10790000Y-6489900D02*
X10770000Y-6509900D01*
X10770000Y-6829900D02*
X10790000Y-6849900D01*
X10790000Y-6829900D02*
X10770000Y-6849900D01*
X10770000Y-7989900D02*
X10790000Y-8009900D01*
X10790000Y-7989900D02*
X10770000Y-8009900D01*
X10770000Y-8329900D02*
X10790000Y-8349900D01*
X10790000Y-8329900D02*
X10770000Y-8349900D01*
X10770000Y-9489900D02*
X10790000Y-9509900D01*
X10790000Y-9489900D02*
X10770000Y-9509900D01*
X10770000Y-9829900D02*
X10790000Y-9849900D01*
X10790000Y-9829900D02*
X10770000Y-9849900D01*
X10770000Y-10989900D02*
X10790000Y-11009900D01*
X10790000Y-10989900D02*
X10770000Y-11009900D01*
X10770000Y-11329900D02*
X10790000Y-11349900D01*
X10790000Y-11329900D02*
X10770000Y-11349900D01*
X10770000Y-12489900D02*
X10790000Y-12509900D01*
X10790000Y-12489900D02*
X10770000Y-12509900D01*
X10770000Y-12829900D02*
X10790000Y-12849900D01*
X10790000Y-12829900D02*
X10770000Y-12849900D01*
X10770000Y-13989900D02*
X10790000Y-14009900D01*
X10790000Y-13989900D02*
X10770000Y-14009900D01*
X10770000Y-14329900D02*
X10790000Y-14349900D01*
X10790000Y-14329900D02*
X10770000Y-14349900D01*
X10770000Y-15489900D02*
X10790000Y-15509900D01*
X10790000Y-15489900D02*
X10770000Y-15509900D01*
X10770000Y-15829900D02*
X10790000Y-15849900D01*
X10790000Y-15829900D02*
X10770000Y-15849900D01*
X10850000Y-4830100D02*
X10870000Y-4850100D01*
X10870000Y-4830100D02*
X10850000Y-4850100D01*
X10850000Y-5170100D02*
X10870000Y-5190100D01*
X10870000Y-5170100D02*
X10850000Y-5190100D01*
X10850000Y-6330100D02*
X10870000Y-6350100D01*
X10870000Y-6330100D02*
X10850000Y-6350100D01*
X10850000Y-6670100D02*
X10870000Y-6690100D01*
X10870000Y-6670100D02*
X10850000Y-6690100D01*
X10850000Y-7830100D02*
X10870000Y-7850100D01*
X10870000Y-7830100D02*
X10850000Y-7850100D01*
X10850000Y-8170100D02*
X10870000Y-8190100D01*
X10870000Y-8170100D02*
X10850000Y-8190100D01*
X10850000Y-9330100D02*
X10870000Y-9350100D01*
X10870000Y-9330100D02*
X10850000Y-9350100D01*
X10850000Y-9670100D02*
X10870000Y-9690100D01*
X10870000Y-9670100D02*
X10850000Y-9690100D01*
X10850000Y-10830100D02*
X10870000Y-10850100D01*
X10870000Y-10830100D02*
X10850000Y-10850100D01*
X10850000Y-11170100D02*
X10870000Y-11190100D01*
X10870000Y-11170100D02*
X10850000Y-11190100D01*
X10850000Y-12330100D02*
X10870000Y-12350100D01*
X10870000Y-12330100D02*
X10850000Y-12350100D01*
X10850000Y-12670100D02*
X10870000Y-12690100D01*
X10870000Y-12670100D02*
X10850000Y-12690100D01*
X10850000Y-13830100D02*
X10870000Y-13850100D01*
X10870000Y-13830100D02*
X10850000Y-13850100D01*
X10850000Y-14170100D02*
X10870000Y-14190100D01*
X10870000Y-14170100D02*
X10850000Y-14190100D01*
X10850000Y-15330100D02*
X10870000Y-15350100D01*
X10870000Y-15330100D02*
X10850000Y-15350100D01*
X10850000Y-15670100D02*
X10870000Y-15690100D01*
X10870000Y-15670100D02*
X10850000Y-15690100D01*
X10896500Y-16271900D02*
X10916500Y-16291900D01*
X10916500Y-16271900D02*
X10896500Y-16291900D01*
X10896500Y-16861900D02*
X10916500Y-16881900D01*
X10916500Y-16861900D02*
X10896500Y-16881900D01*
X10896500Y-16932300D02*
X10916500Y-16952300D01*
X10916500Y-16932300D02*
X10896500Y-16952300D01*
X10896500Y-17491100D02*
X10916500Y-17511100D01*
X10916500Y-17491100D02*
X10896500Y-17511100D01*
X10930000Y-4989900D02*
X10950000Y-5009900D01*
X10950000Y-4989900D02*
X10930000Y-5009900D01*
X10930000Y-5329900D02*
X10950000Y-5349900D01*
X10950000Y-5329900D02*
X10930000Y-5349900D01*
X10930000Y-6489900D02*
X10950000Y-6509900D01*
X10950000Y-6489900D02*
X10930000Y-6509900D01*
X10930000Y-6829900D02*
X10950000Y-6849900D01*
X10950000Y-6829900D02*
X10930000Y-6849900D01*
X10930000Y-7989900D02*
X10950000Y-8009900D01*
X10950000Y-7989900D02*
X10930000Y-8009900D01*
X10930000Y-8329900D02*
X10950000Y-8349900D01*
X10950000Y-8329900D02*
X10930000Y-8349900D01*
X10930000Y-9489900D02*
X10950000Y-9509900D01*
X10950000Y-9489900D02*
X10930000Y-9509900D01*
X10930000Y-9829900D02*
X10950000Y-9849900D01*
X10950000Y-9829900D02*
X10930000Y-9849900D01*
X10930000Y-10989900D02*
X10950000Y-11009900D01*
X10950000Y-10989900D02*
X10930000Y-11009900D01*
X10930000Y-11329900D02*
X10950000Y-11349900D01*
X10950000Y-11329900D02*
X10930000Y-11349900D01*
X10930000Y-12489900D02*
X10950000Y-12509900D01*
X10950000Y-12489900D02*
X10930000Y-12509900D01*
X10930000Y-12829900D02*
X10950000Y-12849900D01*
X10950000Y-12829900D02*
X10930000Y-12849900D01*
X10930000Y-13989900D02*
X10950000Y-14009900D01*
X10950000Y-13989900D02*
X10930000Y-14009900D01*
X10930000Y-14329900D02*
X10950000Y-14349900D01*
X10950000Y-14329900D02*
X10930000Y-14349900D01*
X10930000Y-15489900D02*
X10950000Y-15509900D01*
X10950000Y-15489900D02*
X10930000Y-15509900D01*
X10930000Y-15829900D02*
X10950000Y-15849900D01*
X10950000Y-15829900D02*
X10930000Y-15849900D01*
X11010000Y-4830100D02*
X11030000Y-4850100D01*
X11030000Y-4830100D02*
X11010000Y-4850100D01*
X11010000Y-5170100D02*
X11030000Y-5190100D01*
X11030000Y-5170100D02*
X11010000Y-5190100D01*
X11010000Y-6330100D02*
X11030000Y-6350100D01*
X11030000Y-6330100D02*
X11010000Y-6350100D01*
X11010000Y-6670100D02*
X11030000Y-6690100D01*
X11030000Y-6670100D02*
X11010000Y-6690100D01*
X11010000Y-7830100D02*
X11030000Y-7850100D01*
X11030000Y-7830100D02*
X11010000Y-7850100D01*
X11010000Y-8170100D02*
X11030000Y-8190100D01*
X11030000Y-8170100D02*
X11010000Y-8190100D01*
X11010000Y-9330100D02*
X11030000Y-9350100D01*
X11030000Y-9330100D02*
X11010000Y-9350100D01*
X11010000Y-9670100D02*
X11030000Y-9690100D01*
X11030000Y-9670100D02*
X11010000Y-9690100D01*
X11010000Y-10830100D02*
X11030000Y-10850100D01*
X11030000Y-10830100D02*
X11010000Y-10850100D01*
X11010000Y-11170100D02*
X11030000Y-11190100D01*
X11030000Y-11170100D02*
X11010000Y-11190100D01*
X11010000Y-12330100D02*
X11030000Y-12350100D01*
X11030000Y-12330100D02*
X11010000Y-12350100D01*
X11010000Y-12670100D02*
X11030000Y-12690100D01*
X11030000Y-12670100D02*
X11010000Y-12690100D01*
X11010000Y-13830100D02*
X11030000Y-13850100D01*
X11030000Y-13830100D02*
X11010000Y-13850100D01*
X11010000Y-14170100D02*
X11030000Y-14190100D01*
X11030000Y-14170100D02*
X11010000Y-14190100D01*
X11010000Y-15330100D02*
X11030000Y-15350100D01*
X11030000Y-15330100D02*
X11010000Y-15350100D01*
X11010000Y-15670100D02*
X11030000Y-15690100D01*
X11030000Y-15670100D02*
X11010000Y-15690100D01*
X11023321Y-16901021D02*
X11043321Y-16921021D01*
X11043321Y-16901021D02*
X11023321Y-16921021D01*
X11023500Y-16275103D02*
X11043500Y-16295103D01*
X11043500Y-16275103D02*
X11023500Y-16295103D01*
X11023500Y-16830700D02*
X11043500Y-16850700D01*
X11043500Y-16830700D02*
X11023500Y-16850700D01*
X11023500Y-17491100D02*
X11043500Y-17511100D01*
X11043500Y-17491100D02*
X11023500Y-17511100D01*
X11090000Y-4989900D02*
X11110000Y-5009900D01*
X11110000Y-4989900D02*
X11090000Y-5009900D01*
X11090000Y-5329900D02*
X11110000Y-5349900D01*
X11110000Y-5329900D02*
X11090000Y-5349900D01*
X11090000Y-6489900D02*
X11110000Y-6509900D01*
X11110000Y-6489900D02*
X11090000Y-6509900D01*
X11090000Y-6829900D02*
X11110000Y-6849900D01*
X11110000Y-6829900D02*
X11090000Y-6849900D01*
X11090000Y-7989900D02*
X11110000Y-8009900D01*
X11110000Y-7989900D02*
X11090000Y-8009900D01*
X11090000Y-8329900D02*
X11110000Y-8349900D01*
X11110000Y-8329900D02*
X11090000Y-8349900D01*
X11090000Y-9489900D02*
X11110000Y-9509900D01*
X11110000Y-9489900D02*
X11090000Y-9509900D01*
X11090000Y-9829900D02*
X11110000Y-9849900D01*
X11110000Y-9829900D02*
X11090000Y-9849900D01*
X11090000Y-10989900D02*
X11110000Y-11009900D01*
X11110000Y-10989900D02*
X11090000Y-11009900D01*
X11090000Y-11329900D02*
X11110000Y-11349900D01*
X11110000Y-11329900D02*
X11090000Y-11349900D01*
X11090000Y-12489900D02*
X11110000Y-12509900D01*
X11110000Y-12489900D02*
X11090000Y-12509900D01*
X11090000Y-12829900D02*
X11110000Y-12849900D01*
X11110000Y-12829900D02*
X11090000Y-12849900D01*
X11090000Y-13989900D02*
X11110000Y-14009900D01*
X11110000Y-13989900D02*
X11090000Y-14009900D01*
X11090000Y-14329900D02*
X11110000Y-14349900D01*
X11110000Y-14329900D02*
X11090000Y-14349900D01*
X11090000Y-15489900D02*
X11110000Y-15509900D01*
X11110000Y-15489900D02*
X11090000Y-15509900D01*
X11090000Y-15829900D02*
X11110000Y-15849900D01*
X11110000Y-15829900D02*
X11090000Y-15849900D01*
X11150500Y-16861900D02*
X11170500Y-16881900D01*
X11170500Y-16861900D02*
X11150500Y-16881900D01*
X11150500Y-17491100D02*
X11170500Y-17511100D01*
X11170500Y-17491100D02*
X11150500Y-17511100D01*
X11153441Y-16272635D02*
X11173441Y-16292635D01*
X11173441Y-16272635D02*
X11153441Y-16292635D01*
X11154988Y-16932300D02*
X11174988Y-16952300D01*
X11174988Y-16932300D02*
X11154988Y-16952300D01*
X11170000Y-4830100D02*
X11190000Y-4850100D01*
X11190000Y-4830100D02*
X11170000Y-4850100D01*
X11170000Y-5170100D02*
X11190000Y-5190100D01*
X11190000Y-5170100D02*
X11170000Y-5190100D01*
X11170000Y-6330100D02*
X11190000Y-6350100D01*
X11190000Y-6330100D02*
X11170000Y-6350100D01*
X11170000Y-6670100D02*
X11190000Y-6690100D01*
X11190000Y-6670100D02*
X11170000Y-6690100D01*
X11170000Y-7830100D02*
X11190000Y-7850100D01*
X11190000Y-7830100D02*
X11170000Y-7850100D01*
X11170000Y-8170100D02*
X11190000Y-8190100D01*
X11190000Y-8170100D02*
X11170000Y-8190100D01*
X11170000Y-9330100D02*
X11190000Y-9350100D01*
X11190000Y-9330100D02*
X11170000Y-9350100D01*
X11170000Y-9670100D02*
X11190000Y-9690100D01*
X11190000Y-9670100D02*
X11170000Y-9690100D01*
X11170000Y-10830100D02*
X11190000Y-10850100D01*
X11190000Y-10830100D02*
X11170000Y-10850100D01*
X11170000Y-11170100D02*
X11190000Y-11190100D01*
X11190000Y-11170100D02*
X11170000Y-11190100D01*
X11170000Y-12330100D02*
X11190000Y-12350100D01*
X11190000Y-12330100D02*
X11170000Y-12350100D01*
X11170000Y-12670100D02*
X11190000Y-12690100D01*
X11190000Y-12670100D02*
X11170000Y-12690100D01*
X11170000Y-13830100D02*
X11190000Y-13850100D01*
X11190000Y-13830100D02*
X11170000Y-13850100D01*
X11170000Y-14170100D02*
X11190000Y-14190100D01*
X11190000Y-14170100D02*
X11170000Y-14190100D01*
X11170000Y-15330100D02*
X11190000Y-15350100D01*
X11190000Y-15330100D02*
X11170000Y-15350100D01*
X11170000Y-15670100D02*
X11190000Y-15690100D01*
X11190000Y-15670100D02*
X11170000Y-15690100D01*
X11250000Y-4989900D02*
X11270000Y-5009900D01*
X11270000Y-4989900D02*
X11250000Y-5009900D01*
X11250000Y-5329900D02*
X11270000Y-5349900D01*
X11270000Y-5329900D02*
X11250000Y-5349900D01*
X11250000Y-6489900D02*
X11270000Y-6509900D01*
X11270000Y-6489900D02*
X11250000Y-6509900D01*
X11250000Y-6829900D02*
X11270000Y-6849900D01*
X11270000Y-6829900D02*
X11250000Y-6849900D01*
X11250000Y-7989900D02*
X11270000Y-8009900D01*
X11270000Y-7989900D02*
X11250000Y-8009900D01*
X11250000Y-8329900D02*
X11270000Y-8349900D01*
X11270000Y-8329900D02*
X11250000Y-8349900D01*
X11250000Y-9489900D02*
X11270000Y-9509900D01*
X11270000Y-9489900D02*
X11250000Y-9509900D01*
X11250000Y-9829900D02*
X11270000Y-9849900D01*
X11270000Y-9829900D02*
X11250000Y-9849900D01*
X11250000Y-10989900D02*
X11270000Y-11009900D01*
X11270000Y-10989900D02*
X11250000Y-11009900D01*
X11250000Y-11329900D02*
X11270000Y-11349900D01*
X11270000Y-11329900D02*
X11250000Y-11349900D01*
X11250000Y-12489900D02*
X11270000Y-12509900D01*
X11270000Y-12489900D02*
X11250000Y-12509900D01*
X11250000Y-12829900D02*
X11270000Y-12849900D01*
X11270000Y-12829900D02*
X11250000Y-12849900D01*
X11250000Y-13989900D02*
X11270000Y-14009900D01*
X11270000Y-13989900D02*
X11250000Y-14009900D01*
X11250000Y-14329900D02*
X11270000Y-14349900D01*
X11270000Y-14329900D02*
X11250000Y-14349900D01*
X11250000Y-15489900D02*
X11270000Y-15509900D01*
X11270000Y-15489900D02*
X11250000Y-15509900D01*
X11250000Y-15829900D02*
X11270000Y-15849900D01*
X11270000Y-15829900D02*
X11250000Y-15849900D01*
X11277321Y-16901021D02*
X11297321Y-16921021D01*
X11297321Y-16901021D02*
X11277321Y-16921021D01*
X11277500Y-16275103D02*
X11297500Y-16295103D01*
X11297500Y-16275103D02*
X11277500Y-16295103D01*
X11277500Y-16830700D02*
X11297500Y-16850700D01*
X11297500Y-16830700D02*
X11277500Y-16850700D01*
X11277500Y-17491100D02*
X11297500Y-17511100D01*
X11297500Y-17491100D02*
X11277500Y-17511100D01*
X11330000Y-4830100D02*
X11350000Y-4850100D01*
X11350000Y-4830100D02*
X11330000Y-4850100D01*
X11330000Y-5170100D02*
X11350000Y-5190100D01*
X11350000Y-5170100D02*
X11330000Y-5190100D01*
X11330000Y-6330100D02*
X11350000Y-6350100D01*
X11350000Y-6330100D02*
X11330000Y-6350100D01*
X11330000Y-6670100D02*
X11350000Y-6690100D01*
X11350000Y-6670100D02*
X11330000Y-6690100D01*
X11330000Y-7830100D02*
X11350000Y-7850100D01*
X11350000Y-7830100D02*
X11330000Y-7850100D01*
X11330000Y-8170100D02*
X11350000Y-8190100D01*
X11350000Y-8170100D02*
X11330000Y-8190100D01*
X11330000Y-9330100D02*
X11350000Y-9350100D01*
X11350000Y-9330100D02*
X11330000Y-9350100D01*
X11330000Y-9670100D02*
X11350000Y-9690100D01*
X11350000Y-9670100D02*
X11330000Y-9690100D01*
X11330000Y-10830100D02*
X11350000Y-10850100D01*
X11350000Y-10830100D02*
X11330000Y-10850100D01*
X11330000Y-11170100D02*
X11350000Y-11190100D01*
X11350000Y-11170100D02*
X11330000Y-11190100D01*
X11330000Y-12330100D02*
X11350000Y-12350100D01*
X11350000Y-12330100D02*
X11330000Y-12350100D01*
X11330000Y-12670100D02*
X11350000Y-12690100D01*
X11350000Y-12670100D02*
X11330000Y-12690100D01*
X11330000Y-13830100D02*
X11350000Y-13850100D01*
X11350000Y-13830100D02*
X11330000Y-13850100D01*
X11330000Y-14170100D02*
X11350000Y-14190100D01*
X11350000Y-14170100D02*
X11330000Y-14190100D01*
X11330000Y-15330100D02*
X11350000Y-15350100D01*
X11350000Y-15330100D02*
X11330000Y-15350100D01*
X11330000Y-15670100D02*
X11350000Y-15690100D01*
X11350000Y-15670100D02*
X11330000Y-15690100D01*
X11404500Y-16271900D02*
X11424500Y-16291900D01*
X11424500Y-16271900D02*
X11404500Y-16291900D01*
X11404500Y-16861900D02*
X11424500Y-16881900D01*
X11424500Y-16861900D02*
X11404500Y-16881900D01*
X11404500Y-16932300D02*
X11424500Y-16952300D01*
X11424500Y-16932300D02*
X11404500Y-16952300D01*
X11404500Y-17491100D02*
X11424500Y-17511100D01*
X11424500Y-17491100D02*
X11404500Y-17511100D01*
X11410000Y-4990100D02*
X11430000Y-5010100D01*
X11430000Y-4990100D02*
X11410000Y-5010100D01*
X11410000Y-5328000D02*
X11430000Y-5348000D01*
X11430000Y-5328000D02*
X11410000Y-5348000D01*
X11410000Y-6490100D02*
X11430000Y-6510100D01*
X11430000Y-6490100D02*
X11410000Y-6510100D01*
X11410000Y-6828000D02*
X11430000Y-6848000D01*
X11430000Y-6828000D02*
X11410000Y-6848000D01*
X11410000Y-7990100D02*
X11430000Y-8010100D01*
X11430000Y-7990100D02*
X11410000Y-8010100D01*
X11410000Y-8328000D02*
X11430000Y-8348000D01*
X11430000Y-8328000D02*
X11410000Y-8348000D01*
X11410000Y-9490100D02*
X11430000Y-9510100D01*
X11430000Y-9490100D02*
X11410000Y-9510100D01*
X11410000Y-9828000D02*
X11430000Y-9848000D01*
X11430000Y-9828000D02*
X11410000Y-9848000D01*
X11410000Y-10990100D02*
X11430000Y-11010100D01*
X11430000Y-10990100D02*
X11410000Y-11010100D01*
X11410000Y-11328000D02*
X11430000Y-11348000D01*
X11430000Y-11328000D02*
X11410000Y-11348000D01*
X11410000Y-12490100D02*
X11430000Y-12510100D01*
X11430000Y-12490100D02*
X11410000Y-12510100D01*
X11410000Y-12828000D02*
X11430000Y-12848000D01*
X11430000Y-12828000D02*
X11410000Y-12848000D01*
X11410000Y-13990100D02*
X11430000Y-14010100D01*
X11430000Y-13990100D02*
X11410000Y-14010100D01*
X11410000Y-14328000D02*
X11430000Y-14348000D01*
X11430000Y-14328000D02*
X11410000Y-14348000D01*
X11410000Y-15490100D02*
X11430000Y-15510100D01*
X11430000Y-15490100D02*
X11410000Y-15510100D01*
X11410000Y-15828000D02*
X11430000Y-15848000D01*
X11430000Y-15828000D02*
X11410000Y-15848000D01*
X11490000Y-4830100D02*
X11510000Y-4850100D01*
X11510000Y-4830100D02*
X11490000Y-4850100D01*
X11490000Y-5170100D02*
X11510000Y-5190100D01*
X11510000Y-5170100D02*
X11490000Y-5190100D01*
X11490000Y-6330100D02*
X11510000Y-6350100D01*
X11510000Y-6330100D02*
X11490000Y-6350100D01*
X11490000Y-6670100D02*
X11510000Y-6690100D01*
X11510000Y-6670100D02*
X11490000Y-6690100D01*
X11490000Y-7830100D02*
X11510000Y-7850100D01*
X11510000Y-7830100D02*
X11490000Y-7850100D01*
X11490000Y-8170100D02*
X11510000Y-8190100D01*
X11510000Y-8170100D02*
X11490000Y-8190100D01*
X11490000Y-9330100D02*
X11510000Y-9350100D01*
X11510000Y-9330100D02*
X11490000Y-9350100D01*
X11490000Y-9670100D02*
X11510000Y-9690100D01*
X11510000Y-9670100D02*
X11490000Y-9690100D01*
X11490000Y-10830100D02*
X11510000Y-10850100D01*
X11510000Y-10830100D02*
X11490000Y-10850100D01*
X11490000Y-11170100D02*
X11510000Y-11190100D01*
X11510000Y-11170100D02*
X11490000Y-11190100D01*
X11490000Y-12330100D02*
X11510000Y-12350100D01*
X11510000Y-12330100D02*
X11490000Y-12350100D01*
X11490000Y-12670100D02*
X11510000Y-12690100D01*
X11510000Y-12670100D02*
X11490000Y-12690100D01*
X11490000Y-13830100D02*
X11510000Y-13850100D01*
X11510000Y-13830100D02*
X11490000Y-13850100D01*
X11490000Y-14170100D02*
X11510000Y-14190100D01*
X11510000Y-14170100D02*
X11490000Y-14190100D01*
X11490000Y-15330100D02*
X11510000Y-15350100D01*
X11510000Y-15330100D02*
X11490000Y-15350100D01*
X11490000Y-15670100D02*
X11510000Y-15690100D01*
X11510000Y-15670100D02*
X11490000Y-15690100D01*
X11531321Y-16901021D02*
X11551321Y-16921021D01*
X11551321Y-16901021D02*
X11531321Y-16921021D01*
X11531500Y-16271900D02*
X11551500Y-16291900D01*
X11551500Y-16271900D02*
X11531500Y-16291900D01*
X11531500Y-16827497D02*
X11551500Y-16847497D01*
X11551500Y-16827497D02*
X11531500Y-16847497D01*
X11531500Y-17487897D02*
X11551500Y-17507897D01*
X11551500Y-17487897D02*
X11531500Y-17507897D01*
X11570000Y-4989900D02*
X11590000Y-5009900D01*
X11590000Y-4989900D02*
X11570000Y-5009900D01*
X11570000Y-5329900D02*
X11590000Y-5349900D01*
X11590000Y-5329900D02*
X11570000Y-5349900D01*
X11570000Y-6489900D02*
X11590000Y-6509900D01*
X11590000Y-6489900D02*
X11570000Y-6509900D01*
X11570000Y-6829900D02*
X11590000Y-6849900D01*
X11590000Y-6829900D02*
X11570000Y-6849900D01*
X11570000Y-7989900D02*
X11590000Y-8009900D01*
X11590000Y-7989900D02*
X11570000Y-8009900D01*
X11570000Y-8329900D02*
X11590000Y-8349900D01*
X11590000Y-8329900D02*
X11570000Y-8349900D01*
X11570000Y-9489900D02*
X11590000Y-9509900D01*
X11590000Y-9489900D02*
X11570000Y-9509900D01*
X11570000Y-9829900D02*
X11590000Y-9849900D01*
X11590000Y-9829900D02*
X11570000Y-9849900D01*
X11570000Y-10989900D02*
X11590000Y-11009900D01*
X11590000Y-10989900D02*
X11570000Y-11009900D01*
X11570000Y-11329900D02*
X11590000Y-11349900D01*
X11590000Y-11329900D02*
X11570000Y-11349900D01*
X11570000Y-12489900D02*
X11590000Y-12509900D01*
X11590000Y-12489900D02*
X11570000Y-12509900D01*
X11570000Y-12829900D02*
X11590000Y-12849900D01*
X11590000Y-12829900D02*
X11570000Y-12849900D01*
X11570000Y-13989900D02*
X11590000Y-14009900D01*
X11590000Y-13989900D02*
X11570000Y-14009900D01*
X11570000Y-14329900D02*
X11590000Y-14349900D01*
X11590000Y-14329900D02*
X11570000Y-14349900D01*
X11570000Y-15489900D02*
X11590000Y-15509900D01*
X11590000Y-15489900D02*
X11570000Y-15509900D01*
X11570000Y-15829900D02*
X11590000Y-15849900D01*
X11590000Y-15829900D02*
X11570000Y-15849900D01*
X11650000Y-4830100D02*
X11670000Y-4850100D01*
X11670000Y-4830100D02*
X11650000Y-4850100D01*
X11650000Y-5170100D02*
X11670000Y-5190100D01*
X11670000Y-5170100D02*
X11650000Y-5190100D01*
X11650000Y-6330100D02*
X11670000Y-6350100D01*
X11670000Y-6330100D02*
X11650000Y-6350100D01*
X11650000Y-6670100D02*
X11670000Y-6690100D01*
X11670000Y-6670100D02*
X11650000Y-6690100D01*
X11650000Y-7830100D02*
X11670000Y-7850100D01*
X11670000Y-7830100D02*
X11650000Y-7850100D01*
X11650000Y-8170100D02*
X11670000Y-8190100D01*
X11670000Y-8170100D02*
X11650000Y-8190100D01*
X11650000Y-9330100D02*
X11670000Y-9350100D01*
X11670000Y-9330100D02*
X11650000Y-9350100D01*
X11650000Y-9670100D02*
X11670000Y-9690100D01*
X11670000Y-9670100D02*
X11650000Y-9690100D01*
X11650000Y-10830100D02*
X11670000Y-10850100D01*
X11670000Y-10830100D02*
X11650000Y-10850100D01*
X11650000Y-11170100D02*
X11670000Y-11190100D01*
X11670000Y-11170100D02*
X11650000Y-11190100D01*
X11650000Y-12330100D02*
X11670000Y-12350100D01*
X11670000Y-12330100D02*
X11650000Y-12350100D01*
X11650000Y-12670100D02*
X11670000Y-12690100D01*
X11670000Y-12670100D02*
X11650000Y-12690100D01*
X11650000Y-13830100D02*
X11670000Y-13850100D01*
X11670000Y-13830100D02*
X11650000Y-13850100D01*
X11650000Y-14170100D02*
X11670000Y-14190100D01*
X11670000Y-14170100D02*
X11650000Y-14190100D01*
X11650000Y-15330100D02*
X11670000Y-15350100D01*
X11670000Y-15330100D02*
X11650000Y-15350100D01*
X11650000Y-15670100D02*
X11670000Y-15690100D01*
X11670000Y-15670100D02*
X11650000Y-15690100D01*
X11726096Y-15830262D02*
X11746096Y-15850262D01*
X11746096Y-15830262D02*
X11726096Y-15850262D01*
X11730000Y-4989900D02*
X11750000Y-5009900D01*
X11750000Y-4989900D02*
X11730000Y-5009900D01*
X11730000Y-5329900D02*
X11750000Y-5349900D01*
X11750000Y-5329900D02*
X11730000Y-5349900D01*
X11730000Y-6489900D02*
X11750000Y-6509900D01*
X11750000Y-6489900D02*
X11730000Y-6509900D01*
X11730000Y-6829900D02*
X11750000Y-6849900D01*
X11750000Y-6829900D02*
X11730000Y-6849900D01*
X11730000Y-7989900D02*
X11750000Y-8009900D01*
X11750000Y-7989900D02*
X11730000Y-8009900D01*
X11730000Y-8329900D02*
X11750000Y-8349900D01*
X11750000Y-8329900D02*
X11730000Y-8349900D01*
X11730000Y-9489900D02*
X11750000Y-9509900D01*
X11750000Y-9489900D02*
X11730000Y-9509900D01*
X11730000Y-9829900D02*
X11750000Y-9849900D01*
X11750000Y-9829900D02*
X11730000Y-9849900D01*
X11730000Y-10989900D02*
X11750000Y-11009900D01*
X11750000Y-10989900D02*
X11730000Y-11009900D01*
X11730000Y-11329900D02*
X11750000Y-11349900D01*
X11750000Y-11329900D02*
X11730000Y-11349900D01*
X11730000Y-12489900D02*
X11750000Y-12509900D01*
X11750000Y-12489900D02*
X11730000Y-12509900D01*
X11730000Y-12829900D02*
X11750000Y-12849900D01*
X11750000Y-12829900D02*
X11730000Y-12849900D01*
X11730000Y-13989900D02*
X11750000Y-14009900D01*
X11750000Y-13989900D02*
X11730000Y-14009900D01*
X11730000Y-14329900D02*
X11750000Y-14349900D01*
X11750000Y-14329900D02*
X11730000Y-14349900D01*
X11730000Y-15489900D02*
X11750000Y-15509900D01*
X11750000Y-15489900D02*
X11730000Y-15509900D01*
X11750200Y-16525400D02*
X11770200Y-16545400D01*
X11770200Y-16525400D02*
X11750200Y-16545400D01*
X11750200Y-16601600D02*
X11770200Y-16621600D01*
X11770200Y-16601600D02*
X11750200Y-16621600D01*
X11750200Y-17160400D02*
X11770200Y-17180400D01*
X11770200Y-17160400D02*
X11750200Y-17180400D01*
X11750200Y-17236600D02*
X11770200Y-17256600D01*
X11770200Y-17236600D02*
X11750200Y-17256600D01*
X11810000Y-4830100D02*
X11830000Y-4850100D01*
X11830000Y-4830100D02*
X11810000Y-4850100D01*
X11810000Y-5170100D02*
X11830000Y-5190100D01*
X11830000Y-5170100D02*
X11810000Y-5190100D01*
X11810000Y-6330100D02*
X11830000Y-6350100D01*
X11830000Y-6330100D02*
X11810000Y-6350100D01*
X11810000Y-6670100D02*
X11830000Y-6690100D01*
X11830000Y-6670100D02*
X11810000Y-6690100D01*
X11810000Y-7830100D02*
X11830000Y-7850100D01*
X11830000Y-7830100D02*
X11810000Y-7850100D01*
X11810000Y-8170100D02*
X11830000Y-8190100D01*
X11830000Y-8170100D02*
X11810000Y-8190100D01*
X11810000Y-9330100D02*
X11830000Y-9350100D01*
X11830000Y-9330100D02*
X11810000Y-9350100D01*
X11810000Y-9670100D02*
X11830000Y-9690100D01*
X11830000Y-9670100D02*
X11810000Y-9690100D01*
X11810000Y-10830100D02*
X11830000Y-10850100D01*
X11830000Y-10830100D02*
X11810000Y-10850100D01*
X11810000Y-11170100D02*
X11830000Y-11190100D01*
X11830000Y-11170100D02*
X11810000Y-11190100D01*
X11810000Y-12330100D02*
X11830000Y-12350100D01*
X11830000Y-12330100D02*
X11810000Y-12350100D01*
X11810000Y-12670100D02*
X11830000Y-12690100D01*
X11830000Y-12670100D02*
X11810000Y-12690100D01*
X11810000Y-13830100D02*
X11830000Y-13850100D01*
X11830000Y-13830100D02*
X11810000Y-13850100D01*
X11810000Y-14170100D02*
X11830000Y-14190100D01*
X11830000Y-14170100D02*
X11810000Y-14190100D01*
X11810000Y-15330100D02*
X11830000Y-15350100D01*
X11830000Y-15330100D02*
X11810000Y-15350100D01*
X11810000Y-15670100D02*
X11830000Y-15690100D01*
X11830000Y-15670100D02*
X11810000Y-15690100D01*
X11890000Y-4989900D02*
X11910000Y-5009900D01*
X11910000Y-4989900D02*
X11890000Y-5009900D01*
X11890000Y-5329900D02*
X11910000Y-5349900D01*
X11910000Y-5329900D02*
X11890000Y-5349900D01*
X11890000Y-6489900D02*
X11910000Y-6509900D01*
X11910000Y-6489900D02*
X11890000Y-6509900D01*
X11890000Y-6829900D02*
X11910000Y-6849900D01*
X11910000Y-6829900D02*
X11890000Y-6849900D01*
X11890000Y-7989900D02*
X11910000Y-8009900D01*
X11910000Y-7989900D02*
X11890000Y-8009900D01*
X11890000Y-8329900D02*
X11910000Y-8349900D01*
X11910000Y-8329900D02*
X11890000Y-8349900D01*
X11890000Y-9489900D02*
X11910000Y-9509900D01*
X11910000Y-9489900D02*
X11890000Y-9509900D01*
X11890000Y-9829900D02*
X11910000Y-9849900D01*
X11910000Y-9829900D02*
X11890000Y-9849900D01*
X11890000Y-10989900D02*
X11910000Y-11009900D01*
X11910000Y-10989900D02*
X11890000Y-11009900D01*
X11890000Y-11329900D02*
X11910000Y-11349900D01*
X11910000Y-11329900D02*
X11890000Y-11349900D01*
X11890000Y-12489900D02*
X11910000Y-12509900D01*
X11910000Y-12489900D02*
X11890000Y-12509900D01*
X11890000Y-12829900D02*
X11910000Y-12849900D01*
X11910000Y-12829900D02*
X11890000Y-12849900D01*
X11890000Y-13989900D02*
X11910000Y-14009900D01*
X11910000Y-13989900D02*
X11890000Y-14009900D01*
X11890000Y-14329900D02*
X11910000Y-14349900D01*
X11910000Y-14329900D02*
X11890000Y-14349900D01*
X11890000Y-15489900D02*
X11910000Y-15509900D01*
X11910000Y-15489900D02*
X11890000Y-15509900D01*
X11890136Y-15829764D02*
X11910136Y-15849764D01*
X11910136Y-15829764D02*
X11890136Y-15849764D01*
X11940700Y-16207900D02*
X11960700Y-16227900D01*
X11960700Y-16207900D02*
X11940700Y-16227900D01*
X11970000Y-4830100D02*
X11990000Y-4850100D01*
X11990000Y-4830100D02*
X11970000Y-4850100D01*
X11970000Y-5170100D02*
X11990000Y-5190100D01*
X11990000Y-5170100D02*
X11970000Y-5190100D01*
X11970000Y-6330100D02*
X11990000Y-6350100D01*
X11990000Y-6330100D02*
X11970000Y-6350100D01*
X11970000Y-6670100D02*
X11990000Y-6690100D01*
X11990000Y-6670100D02*
X11970000Y-6690100D01*
X11970000Y-7830100D02*
X11990000Y-7850100D01*
X11990000Y-7830100D02*
X11970000Y-7850100D01*
X11970000Y-8170100D02*
X11990000Y-8190100D01*
X11990000Y-8170100D02*
X11970000Y-8190100D01*
X11970000Y-9330100D02*
X11990000Y-9350100D01*
X11990000Y-9330100D02*
X11970000Y-9350100D01*
X11970000Y-9670100D02*
X11990000Y-9690100D01*
X11990000Y-9670100D02*
X11970000Y-9690100D01*
X11970000Y-10830100D02*
X11990000Y-10850100D01*
X11990000Y-10830100D02*
X11970000Y-10850100D01*
X11970000Y-11170100D02*
X11990000Y-11190100D01*
X11990000Y-11170100D02*
X11970000Y-11190100D01*
X11970000Y-12330100D02*
X11990000Y-12350100D01*
X11990000Y-12330100D02*
X11970000Y-12350100D01*
X11970000Y-12670100D02*
X11990000Y-12690100D01*
X11990000Y-12670100D02*
X11970000Y-12690100D01*
X11970000Y-13830100D02*
X11990000Y-13850100D01*
X11990000Y-13830100D02*
X11970000Y-13850100D01*
X11970000Y-14170100D02*
X11990000Y-14190100D01*
X11990000Y-14170100D02*
X11970000Y-14190100D01*
X11970000Y-15330100D02*
X11990000Y-15350100D01*
X11990000Y-15330100D02*
X11970000Y-15350100D01*
X11970000Y-15670100D02*
X11990000Y-15690100D01*
X11990000Y-15670100D02*
X11970000Y-15690100D01*
X12050000Y-4989900D02*
X12070000Y-5009900D01*
X12070000Y-4989900D02*
X12050000Y-5009900D01*
X12050000Y-5329900D02*
X12070000Y-5349900D01*
X12070000Y-5329900D02*
X12050000Y-5349900D01*
X12050000Y-6489900D02*
X12070000Y-6509900D01*
X12070000Y-6489900D02*
X12050000Y-6509900D01*
X12050000Y-6829900D02*
X12070000Y-6849900D01*
X12070000Y-6829900D02*
X12050000Y-6849900D01*
X12050000Y-7989900D02*
X12070000Y-8009900D01*
X12070000Y-7989900D02*
X12050000Y-8009900D01*
X12050000Y-8329900D02*
X12070000Y-8349900D01*
X12070000Y-8329900D02*
X12050000Y-8349900D01*
X12050000Y-9489900D02*
X12070000Y-9509900D01*
X12070000Y-9489900D02*
X12050000Y-9509900D01*
X12050000Y-9829900D02*
X12070000Y-9849900D01*
X12070000Y-9829900D02*
X12050000Y-9849900D01*
X12050000Y-10989900D02*
X12070000Y-11009900D01*
X12070000Y-10989900D02*
X12050000Y-11009900D01*
X12050000Y-11329900D02*
X12070000Y-11349900D01*
X12070000Y-11329900D02*
X12050000Y-11349900D01*
X12050000Y-12489900D02*
X12070000Y-12509900D01*
X12070000Y-12489900D02*
X12050000Y-12509900D01*
X12050000Y-12829900D02*
X12070000Y-12849900D01*
X12070000Y-12829900D02*
X12050000Y-12849900D01*
X12050000Y-13989900D02*
X12070000Y-14009900D01*
X12070000Y-13989900D02*
X12050000Y-14009900D01*
X12050000Y-14329900D02*
X12070000Y-14349900D01*
X12070000Y-14329900D02*
X12050000Y-14349900D01*
X12050000Y-15489900D02*
X12070000Y-15509900D01*
X12070000Y-15489900D02*
X12050000Y-15509900D01*
X12050000Y-15829900D02*
X12070000Y-15849900D01*
X12070000Y-15829900D02*
X12050000Y-15849900D01*
X12130000Y-4830100D02*
X12150000Y-4850100D01*
X12150000Y-4830100D02*
X12130000Y-4850100D01*
X12130000Y-5170100D02*
X12150000Y-5190100D01*
X12150000Y-5170100D02*
X12130000Y-5190100D01*
X12130000Y-6330100D02*
X12150000Y-6350100D01*
X12150000Y-6330100D02*
X12130000Y-6350100D01*
X12130000Y-6670100D02*
X12150000Y-6690100D01*
X12150000Y-6670100D02*
X12130000Y-6690100D01*
X12130000Y-7830100D02*
X12150000Y-7850100D01*
X12150000Y-7830100D02*
X12130000Y-7850100D01*
X12130000Y-8170100D02*
X12150000Y-8190100D01*
X12150000Y-8170100D02*
X12130000Y-8190100D01*
X12130000Y-9330100D02*
X12150000Y-9350100D01*
X12150000Y-9330100D02*
X12130000Y-9350100D01*
X12130000Y-9670100D02*
X12150000Y-9690100D01*
X12150000Y-9670100D02*
X12130000Y-9690100D01*
X12130000Y-10830100D02*
X12150000Y-10850100D01*
X12150000Y-10830100D02*
X12130000Y-10850100D01*
X12130000Y-11170100D02*
X12150000Y-11190100D01*
X12150000Y-11170100D02*
X12130000Y-11190100D01*
X12130000Y-12330100D02*
X12150000Y-12350100D01*
X12150000Y-12330100D02*
X12130000Y-12350100D01*
X12130000Y-12670100D02*
X12150000Y-12690100D01*
X12150000Y-12670100D02*
X12130000Y-12690100D01*
X12130000Y-13830100D02*
X12150000Y-13850100D01*
X12150000Y-13830100D02*
X12130000Y-13850100D01*
X12130000Y-14170100D02*
X12150000Y-14190100D01*
X12150000Y-14170100D02*
X12130000Y-14190100D01*
X12130000Y-15330100D02*
X12150000Y-15350100D01*
X12150000Y-15330100D02*
X12130000Y-15350100D01*
X12130000Y-15670100D02*
X12150000Y-15690100D01*
X12150000Y-15670100D02*
X12130000Y-15690100D01*
X12130000Y-15909600D02*
X12150000Y-15929600D01*
X12150000Y-15909600D02*
X12130000Y-15929600D01*
X12210000Y-4989900D02*
X12230000Y-5009900D01*
X12230000Y-4989900D02*
X12210000Y-5009900D01*
X12210000Y-5329900D02*
X12230000Y-5349900D01*
X12230000Y-5329900D02*
X12210000Y-5349900D01*
X12210000Y-6489900D02*
X12230000Y-6509900D01*
X12230000Y-6489900D02*
X12210000Y-6509900D01*
X12210000Y-6829900D02*
X12230000Y-6849900D01*
X12230000Y-6829900D02*
X12210000Y-6849900D01*
X12210000Y-7989900D02*
X12230000Y-8009900D01*
X12230000Y-7989900D02*
X12210000Y-8009900D01*
X12210000Y-8329900D02*
X12230000Y-8349900D01*
X12230000Y-8329900D02*
X12210000Y-8349900D01*
X12210000Y-9489900D02*
X12230000Y-9509900D01*
X12230000Y-9489900D02*
X12210000Y-9509900D01*
X12210000Y-9829900D02*
X12230000Y-9849900D01*
X12230000Y-9829900D02*
X12210000Y-9849900D01*
X12210000Y-10989900D02*
X12230000Y-11009900D01*
X12230000Y-10989900D02*
X12210000Y-11009900D01*
X12210000Y-11329900D02*
X12230000Y-11349900D01*
X12230000Y-11329900D02*
X12210000Y-11349900D01*
X12210000Y-12489900D02*
X12230000Y-12509900D01*
X12230000Y-12489900D02*
X12210000Y-12509900D01*
X12210000Y-12829900D02*
X12230000Y-12849900D01*
X12230000Y-12829900D02*
X12210000Y-12849900D01*
X12210000Y-13989900D02*
X12230000Y-14009900D01*
X12230000Y-13989900D02*
X12210000Y-14009900D01*
X12210000Y-14329900D02*
X12230000Y-14349900D01*
X12230000Y-14329900D02*
X12210000Y-14349900D01*
X12210000Y-15489900D02*
X12230000Y-15509900D01*
X12230000Y-15489900D02*
X12210000Y-15509900D01*
X12210000Y-15829900D02*
X12230000Y-15849900D01*
X12230000Y-15829900D02*
X12210000Y-15849900D01*
X12330370Y-16445670D02*
X12350370Y-16465670D01*
X12350370Y-16445670D02*
X12330370Y-16465670D01*
X12330370Y-16505130D02*
X12350370Y-16525130D01*
X12350370Y-16505130D02*
X12330370Y-16525130D01*
X12330370Y-16645670D02*
X12350370Y-16665670D01*
X12350370Y-16645670D02*
X12330370Y-16665670D01*
X12330370Y-16705130D02*
X12350370Y-16725130D01*
X12350370Y-16705130D02*
X12330370Y-16725130D01*
X12359800Y-6124100D02*
X12379800Y-6144100D01*
X12379800Y-6124100D02*
X12359800Y-6144100D01*
X12359800Y-6255300D02*
X12379800Y-6275300D01*
X12379800Y-6255300D02*
X12359800Y-6275300D01*
X12381745Y-15403460D02*
X12401745Y-15423460D01*
X12401745Y-15403460D02*
X12381745Y-15423460D01*
X12403640Y-16345670D02*
X12423640Y-16365670D01*
X12423640Y-16345670D02*
X12403640Y-16365670D01*
X12403640Y-16405130D02*
X12423640Y-16425130D01*
X12423640Y-16405130D02*
X12403640Y-16425130D01*
X12403640Y-16545670D02*
X12423640Y-16565670D01*
X12423640Y-16545670D02*
X12403640Y-16565670D01*
X12403640Y-16605130D02*
X12423640Y-16625130D01*
X12423640Y-16605130D02*
X12403640Y-16625130D01*
X12567300Y-10590000D02*
X12587300Y-10610000D01*
X12587300Y-10590000D02*
X12567300Y-10610000D01*
X12567300Y-17415000D02*
X12587300Y-17435000D01*
X12587300Y-17415000D02*
X12567300Y-17435000D01*
X12579600Y-4070200D02*
X12599600Y-4090200D01*
X12599600Y-4070200D02*
X12579600Y-4090200D01*
X12665400Y-7528670D02*
X12685400Y-7548670D01*
X12685400Y-7528670D02*
X12665400Y-7548670D01*
X12665400Y-7588130D02*
X12685400Y-7608130D01*
X12685400Y-7588130D02*
X12665400Y-7608130D01*
X12665400Y-9027270D02*
X12685400Y-9047270D01*
X12685400Y-9027270D02*
X12665400Y-9047270D01*
X12665400Y-9086730D02*
X12685400Y-9106730D01*
X12685400Y-9086730D02*
X12665400Y-9106730D01*
X12665400Y-12024470D02*
X12685400Y-12044470D01*
X12685400Y-12024470D02*
X12665400Y-12044470D01*
X12665400Y-12083930D02*
X12685400Y-12103930D01*
X12685400Y-12083930D02*
X12665400Y-12103930D01*
X12665400Y-13538310D02*
X12685400Y-13558310D01*
X12685400Y-13538310D02*
X12665400Y-13558310D01*
X12665400Y-13597770D02*
X12685400Y-13617770D01*
X12685400Y-13597770D02*
X12665400Y-13617770D01*
X12722770Y-6328570D02*
X12742770Y-6348570D01*
X12742770Y-6328570D02*
X12722770Y-6348570D01*
X12722770Y-15328530D02*
X12742770Y-15348530D01*
X12742770Y-15328530D02*
X12722770Y-15348530D01*
X12759800Y-10590000D02*
X12779800Y-10610000D01*
X12779800Y-10590000D02*
X12759800Y-10610000D01*
X12759800Y-17415000D02*
X12779800Y-17435000D01*
X12779800Y-17415000D02*
X12759800Y-17435000D01*
X12772100Y-4070200D02*
X12792100Y-4090200D01*
X12792100Y-4070200D02*
X12772100Y-4090200D01*
X12782230Y-6328570D02*
X12802230Y-6348570D01*
X12802230Y-6328570D02*
X12782230Y-6348570D01*
X12782230Y-15328530D02*
X12802230Y-15348530D01*
X12802230Y-15328530D02*
X12782230Y-15348530D01*
X12822770Y-6255300D02*
X12842770Y-6275300D01*
X12842770Y-6255300D02*
X12822770Y-6275300D01*
X12822770Y-15255260D02*
X12842770Y-15275260D01*
X12842770Y-15255260D02*
X12822770Y-15275260D01*
X12882230Y-6255300D02*
X12902230Y-6275300D01*
X12902230Y-6255300D02*
X12882230Y-6275300D01*
X12882230Y-15255260D02*
X12902230Y-15275260D01*
X12902230Y-15255260D02*
X12882230Y-15275260D01*
X12952500Y-6403500D02*
X12972500Y-6423500D01*
X12972500Y-6403500D02*
X12952500Y-6423500D01*
X12952500Y-15403460D02*
X12972500Y-15423460D01*
X12972500Y-15403460D02*
X12952500Y-15423460D01*
X13022770Y-6255300D02*
X13042770Y-6275300D01*
X13042770Y-6255300D02*
X13022770Y-6275300D01*
X13022770Y-15255260D02*
X13042770Y-15275260D01*
X13042770Y-15255260D02*
X13022770Y-15275260D01*
X13082230Y-6255300D02*
X13102230Y-6275300D01*
X13102230Y-6255300D02*
X13082230Y-6275300D01*
X13082230Y-15255260D02*
X13102230Y-15275260D01*
X13102230Y-15255260D02*
X13082230Y-15275260D01*
X13122770Y-6328570D02*
X13142770Y-6348570D01*
X13142770Y-6328570D02*
X13122770Y-6348570D01*
X13122770Y-15328530D02*
X13142770Y-15348530D01*
X13142770Y-15328530D02*
X13122770Y-15348530D01*
X13182230Y-6328570D02*
X13202230Y-6348570D01*
X13202230Y-6328570D02*
X13182230Y-6348570D01*
X13182230Y-15328530D02*
X13202230Y-15348530D01*
X13202230Y-15328530D02*
X13182230Y-15348530D01*
X13218400Y-16635000D02*
X13238400Y-16655000D01*
X13238400Y-16635000D02*
X13218400Y-16655000D01*
X13218400Y-16825000D02*
X13238400Y-16845000D01*
X13238400Y-16825000D02*
X13218400Y-16845000D01*
X13222770Y-6255300D02*
X13242770Y-6275300D01*
X13242770Y-6255300D02*
X13222770Y-6275300D01*
X13222770Y-15255260D02*
X13242770Y-15275260D01*
X13242770Y-15255260D02*
X13222770Y-15275260D01*
X13282230Y-6255300D02*
X13302230Y-6275300D01*
X13302230Y-6255300D02*
X13282230Y-6275300D01*
X13282230Y-15255260D02*
X13302230Y-15275260D01*
X13302230Y-15255260D02*
X13282230Y-15275260D01*
X13413900Y-16487300D02*
X13433900Y-16507300D01*
X13433900Y-16487300D02*
X13413900Y-16507300D01*
D13*
X12122150Y-16573500D02*
G75*
G03*
X12122150Y-16573500I-107950J0D01*
G01*
X12122150Y-17208500D02*
G75*
G03*
X12122150Y-17208500I-107950J0D01*
G01*
D14*
X6200000Y-3937600D02*
X6200000Y-4242400D01*
X6047600Y-4090000D02*
X6352400Y-4090000D01*
X6200000Y-10437600D02*
X6200000Y-10742400D01*
X6047600Y-10590000D02*
X6352400Y-10590000D01*
X6200000Y-17137600D02*
X6200000Y-17442400D01*
X6047600Y-17290000D02*
X6352400Y-17290000D01*
X13200000Y-3937600D02*
X13200000Y-4242400D01*
X13047600Y-4090000D02*
X13352400Y-4090000D01*
X13200000Y-10437600D02*
X13200000Y-10742400D01*
X13047600Y-10590000D02*
X13352400Y-10590000D01*
X13200000Y-17137600D02*
X13200000Y-17442400D01*
X13047600Y-17290000D02*
X13352400Y-17290000D01*
D11*
X6045119Y-17905024D02*
X6045119Y-17705024D01*
X6045119Y-17705024D02*
X6092738Y-17705024D01*
X6092738Y-17705024D02*
X6121309Y-17714548D01*
X6121309Y-17714548D02*
X6140357Y-17733595D01*
X6140357Y-17733595D02*
X6149881Y-17752643D01*
X6149881Y-17752643D02*
X6159405Y-17790738D01*
X6159405Y-17790738D02*
X6159405Y-17819310D01*
X6159405Y-17819310D02*
X6149881Y-17857405D01*
X6149881Y-17857405D02*
X6140357Y-17876452D01*
X6140357Y-17876452D02*
X6121309Y-17895500D01*
X6121309Y-17895500D02*
X6092738Y-17905024D01*
X6092738Y-17905024D02*
X6045119Y-17905024D01*
X6245119Y-17905024D02*
X6245119Y-17771690D01*
X6245119Y-17809786D02*
X6254643Y-17790738D01*
X6254643Y-17790738D02*
X6264167Y-17781214D01*
X6264167Y-17781214D02*
X6283214Y-17771690D01*
X6283214Y-17771690D02*
X6302262Y-17771690D01*
X6368928Y-17905024D02*
X6368928Y-17771690D01*
X6368928Y-17705024D02*
X6359405Y-17714548D01*
X6359405Y-17714548D02*
X6368928Y-17724071D01*
X6368928Y-17724071D02*
X6378452Y-17714548D01*
X6378452Y-17714548D02*
X6368928Y-17705024D01*
X6368928Y-17705024D02*
X6368928Y-17724071D01*
X6492738Y-17905024D02*
X6473690Y-17895500D01*
X6473690Y-17895500D02*
X6464167Y-17876452D01*
X6464167Y-17876452D02*
X6464167Y-17705024D01*
X6597500Y-17905024D02*
X6578452Y-17895500D01*
X6578452Y-17895500D02*
X6568928Y-17876452D01*
X6568928Y-17876452D02*
X6568928Y-17705024D01*
X6826071Y-17905024D02*
X6826071Y-17705024D01*
X6826071Y-17705024D02*
X6892738Y-17847881D01*
X6892738Y-17847881D02*
X6959405Y-17705024D01*
X6959405Y-17705024D02*
X6959405Y-17905024D01*
X7140357Y-17905024D02*
X7140357Y-17800262D01*
X7140357Y-17800262D02*
X7130833Y-17781214D01*
X7130833Y-17781214D02*
X7111786Y-17771690D01*
X7111786Y-17771690D02*
X7073690Y-17771690D01*
X7073690Y-17771690D02*
X7054643Y-17781214D01*
X7140357Y-17895500D02*
X7121309Y-17905024D01*
X7121309Y-17905024D02*
X7073690Y-17905024D01*
X7073690Y-17905024D02*
X7054643Y-17895500D01*
X7054643Y-17895500D02*
X7045119Y-17876452D01*
X7045119Y-17876452D02*
X7045119Y-17857405D01*
X7045119Y-17857405D02*
X7054643Y-17838357D01*
X7054643Y-17838357D02*
X7073690Y-17828833D01*
X7073690Y-17828833D02*
X7121309Y-17828833D01*
X7121309Y-17828833D02*
X7140357Y-17819310D01*
X7235595Y-17771690D02*
X7235595Y-17971690D01*
X7235595Y-17781214D02*
X7254643Y-17771690D01*
X7254643Y-17771690D02*
X7292738Y-17771690D01*
X7292738Y-17771690D02*
X7311786Y-17781214D01*
X7311786Y-17781214D02*
X7321309Y-17790738D01*
X7321309Y-17790738D02*
X7330833Y-17809786D01*
X7330833Y-17809786D02*
X7330833Y-17866929D01*
X7330833Y-17866929D02*
X7321309Y-17885976D01*
X7321309Y-17885976D02*
X7311786Y-17895500D01*
X7311786Y-17895500D02*
X7292738Y-17905024D01*
X7292738Y-17905024D02*
X7254643Y-17905024D01*
X7254643Y-17905024D02*
X7235595Y-17895500D01*
X7416548Y-17885976D02*
X7426071Y-17895500D01*
X7426071Y-17895500D02*
X7416548Y-17905024D01*
X7416548Y-17905024D02*
X7407024Y-17895500D01*
X7407024Y-17895500D02*
X7416548Y-17885976D01*
X7416548Y-17885976D02*
X7416548Y-17905024D01*
X7416548Y-17781214D02*
X7426071Y-17790738D01*
X7426071Y-17790738D02*
X7416548Y-17800262D01*
X7416548Y-17800262D02*
X7407024Y-17790738D01*
X7407024Y-17790738D02*
X7416548Y-17781214D01*
X7416548Y-17781214D02*
X7416548Y-17800262D01*
D12*
X5777500Y-18222500D02*
X5797500Y-18242500D01*
X5797500Y-18222500D02*
X5777500Y-18242500D01*
D11*
X6083214Y-18125024D02*
X6102262Y-18125024D01*
X6102262Y-18125024D02*
X6121309Y-18134548D01*
X6121309Y-18134548D02*
X6130833Y-18144071D01*
X6130833Y-18144071D02*
X6140357Y-18163119D01*
X6140357Y-18163119D02*
X6149881Y-18201214D01*
X6149881Y-18201214D02*
X6149881Y-18248833D01*
X6149881Y-18248833D02*
X6140357Y-18286929D01*
X6140357Y-18286929D02*
X6130833Y-18305976D01*
X6130833Y-18305976D02*
X6121309Y-18315500D01*
X6121309Y-18315500D02*
X6102262Y-18325024D01*
X6102262Y-18325024D02*
X6083214Y-18325024D01*
X6083214Y-18325024D02*
X6064167Y-18315500D01*
X6064167Y-18315500D02*
X6054643Y-18305976D01*
X6054643Y-18305976D02*
X6045119Y-18286929D01*
X6045119Y-18286929D02*
X6035595Y-18248833D01*
X6035595Y-18248833D02*
X6035595Y-18201214D01*
X6035595Y-18201214D02*
X6045119Y-18163119D01*
X6045119Y-18163119D02*
X6054643Y-18144071D01*
X6054643Y-18144071D02*
X6064167Y-18134548D01*
X6064167Y-18134548D02*
X6083214Y-18125024D01*
X6235595Y-18305976D02*
X6245119Y-18315500D01*
X6245119Y-18315500D02*
X6235595Y-18325024D01*
X6235595Y-18325024D02*
X6226071Y-18315500D01*
X6226071Y-18315500D02*
X6235595Y-18305976D01*
X6235595Y-18305976D02*
X6235595Y-18325024D01*
X6321309Y-18144071D02*
X6330833Y-18134548D01*
X6330833Y-18134548D02*
X6349881Y-18125024D01*
X6349881Y-18125024D02*
X6397500Y-18125024D01*
X6397500Y-18125024D02*
X6416548Y-18134548D01*
X6416548Y-18134548D02*
X6426071Y-18144071D01*
X6426071Y-18144071D02*
X6435595Y-18163119D01*
X6435595Y-18163119D02*
X6435595Y-18182167D01*
X6435595Y-18182167D02*
X6426071Y-18210738D01*
X6426071Y-18210738D02*
X6311786Y-18325024D01*
X6311786Y-18325024D02*
X6435595Y-18325024D01*
X6559405Y-18125024D02*
X6578452Y-18125024D01*
X6578452Y-18125024D02*
X6597500Y-18134548D01*
X6597500Y-18134548D02*
X6607024Y-18144071D01*
X6607024Y-18144071D02*
X6616548Y-18163119D01*
X6616548Y-18163119D02*
X6626071Y-18201214D01*
X6626071Y-18201214D02*
X6626071Y-18248833D01*
X6626071Y-18248833D02*
X6616548Y-18286929D01*
X6616548Y-18286929D02*
X6607024Y-18305976D01*
X6607024Y-18305976D02*
X6597500Y-18315500D01*
X6597500Y-18315500D02*
X6578452Y-18325024D01*
X6578452Y-18325024D02*
X6559405Y-18325024D01*
X6559405Y-18325024D02*
X6540357Y-18315500D01*
X6540357Y-18315500D02*
X6530833Y-18305976D01*
X6530833Y-18305976D02*
X6521309Y-18286929D01*
X6521309Y-18286929D02*
X6511786Y-18248833D01*
X6511786Y-18248833D02*
X6511786Y-18201214D01*
X6511786Y-18201214D02*
X6521309Y-18163119D01*
X6521309Y-18163119D02*
X6530833Y-18144071D01*
X6530833Y-18144071D02*
X6540357Y-18134548D01*
X6540357Y-18134548D02*
X6559405Y-18125024D01*
X6749881Y-18125024D02*
X6768929Y-18125024D01*
X6768929Y-18125024D02*
X6787976Y-18134548D01*
X6787976Y-18134548D02*
X6797500Y-18144071D01*
X6797500Y-18144071D02*
X6807024Y-18163119D01*
X6807024Y-18163119D02*
X6816548Y-18201214D01*
X6816548Y-18201214D02*
X6816548Y-18248833D01*
X6816548Y-18248833D02*
X6807024Y-18286929D01*
X6807024Y-18286929D02*
X6797500Y-18305976D01*
X6797500Y-18305976D02*
X6787976Y-18315500D01*
X6787976Y-18315500D02*
X6768929Y-18325024D01*
X6768929Y-18325024D02*
X6749881Y-18325024D01*
X6749881Y-18325024D02*
X6730833Y-18315500D01*
X6730833Y-18315500D02*
X6721309Y-18305976D01*
X6721309Y-18305976D02*
X6711786Y-18286929D01*
X6711786Y-18286929D02*
X6702262Y-18248833D01*
X6702262Y-18248833D02*
X6702262Y-18201214D01*
X6702262Y-18201214D02*
X6711786Y-18163119D01*
X6711786Y-18163119D02*
X6721309Y-18144071D01*
X6721309Y-18144071D02*
X6730833Y-18134548D01*
X6730833Y-18134548D02*
X6749881Y-18125024D01*
X6902262Y-18325024D02*
X6902262Y-18191690D01*
X6902262Y-18210738D02*
X6911786Y-18201214D01*
X6911786Y-18201214D02*
X6930833Y-18191690D01*
X6930833Y-18191690D02*
X6959405Y-18191690D01*
X6959405Y-18191690D02*
X6978452Y-18201214D01*
X6978452Y-18201214D02*
X6987976Y-18220262D01*
X6987976Y-18220262D02*
X6987976Y-18325024D01*
X6987976Y-18220262D02*
X6997500Y-18201214D01*
X6997500Y-18201214D02*
X7016548Y-18191690D01*
X7016548Y-18191690D02*
X7045119Y-18191690D01*
X7045119Y-18191690D02*
X7064167Y-18201214D01*
X7064167Y-18201214D02*
X7073690Y-18220262D01*
X7073690Y-18220262D02*
X7073690Y-18325024D01*
X7168929Y-18325024D02*
X7168929Y-18191690D01*
X7168929Y-18210738D02*
X7178452Y-18201214D01*
X7178452Y-18201214D02*
X7197500Y-18191690D01*
X7197500Y-18191690D02*
X7226071Y-18191690D01*
X7226071Y-18191690D02*
X7245119Y-18201214D01*
X7245119Y-18201214D02*
X7254643Y-18220262D01*
X7254643Y-18220262D02*
X7254643Y-18325024D01*
X7254643Y-18220262D02*
X7264167Y-18201214D01*
X7264167Y-18201214D02*
X7283214Y-18191690D01*
X7283214Y-18191690D02*
X7311786Y-18191690D01*
X7311786Y-18191690D02*
X7330833Y-18201214D01*
X7330833Y-18201214D02*
X7340357Y-18220262D01*
X7340357Y-18220262D02*
X7340357Y-18325024D01*
X7730833Y-18115500D02*
X7559405Y-18372643D01*
X7987976Y-18125024D02*
X8007024Y-18125024D01*
X8007024Y-18125024D02*
X8026072Y-18134548D01*
X8026072Y-18134548D02*
X8035595Y-18144071D01*
X8035595Y-18144071D02*
X8045119Y-18163119D01*
X8045119Y-18163119D02*
X8054643Y-18201214D01*
X8054643Y-18201214D02*
X8054643Y-18248833D01*
X8054643Y-18248833D02*
X8045119Y-18286929D01*
X8045119Y-18286929D02*
X8035595Y-18305976D01*
X8035595Y-18305976D02*
X8026072Y-18315500D01*
X8026072Y-18315500D02*
X8007024Y-18325024D01*
X8007024Y-18325024D02*
X7987976Y-18325024D01*
X7987976Y-18325024D02*
X7968929Y-18315500D01*
X7968929Y-18315500D02*
X7959405Y-18305976D01*
X7959405Y-18305976D02*
X7949881Y-18286929D01*
X7949881Y-18286929D02*
X7940357Y-18248833D01*
X7940357Y-18248833D02*
X7940357Y-18201214D01*
X7940357Y-18201214D02*
X7949881Y-18163119D01*
X7949881Y-18163119D02*
X7959405Y-18144071D01*
X7959405Y-18144071D02*
X7968929Y-18134548D01*
X7968929Y-18134548D02*
X7987976Y-18125024D01*
X8140357Y-18305976D02*
X8149881Y-18315500D01*
X8149881Y-18315500D02*
X8140357Y-18325024D01*
X8140357Y-18325024D02*
X8130833Y-18315500D01*
X8130833Y-18315500D02*
X8140357Y-18305976D01*
X8140357Y-18305976D02*
X8140357Y-18325024D01*
X8273691Y-18125024D02*
X8292738Y-18125024D01*
X8292738Y-18125024D02*
X8311786Y-18134548D01*
X8311786Y-18134548D02*
X8321310Y-18144071D01*
X8321310Y-18144071D02*
X8330833Y-18163119D01*
X8330833Y-18163119D02*
X8340357Y-18201214D01*
X8340357Y-18201214D02*
X8340357Y-18248833D01*
X8340357Y-18248833D02*
X8330833Y-18286929D01*
X8330833Y-18286929D02*
X8321310Y-18305976D01*
X8321310Y-18305976D02*
X8311786Y-18315500D01*
X8311786Y-18315500D02*
X8292738Y-18325024D01*
X8292738Y-18325024D02*
X8273691Y-18325024D01*
X8273691Y-18325024D02*
X8254643Y-18315500D01*
X8254643Y-18315500D02*
X8245119Y-18305976D01*
X8245119Y-18305976D02*
X8235595Y-18286929D01*
X8235595Y-18286929D02*
X8226072Y-18248833D01*
X8226072Y-18248833D02*
X8226072Y-18201214D01*
X8226072Y-18201214D02*
X8235595Y-18163119D01*
X8235595Y-18163119D02*
X8245119Y-18144071D01*
X8245119Y-18144071D02*
X8254643Y-18134548D01*
X8254643Y-18134548D02*
X8273691Y-18125024D01*
X8464167Y-18125024D02*
X8483215Y-18125024D01*
X8483215Y-18125024D02*
X8502262Y-18134548D01*
X8502262Y-18134548D02*
X8511786Y-18144071D01*
X8511786Y-18144071D02*
X8521310Y-18163119D01*
X8521310Y-18163119D02*
X8530834Y-18201214D01*
X8530834Y-18201214D02*
X8530834Y-18248833D01*
X8530834Y-18248833D02*
X8521310Y-18286929D01*
X8521310Y-18286929D02*
X8511786Y-18305976D01*
X8511786Y-18305976D02*
X8502262Y-18315500D01*
X8502262Y-18315500D02*
X8483215Y-18325024D01*
X8483215Y-18325024D02*
X8464167Y-18325024D01*
X8464167Y-18325024D02*
X8445119Y-18315500D01*
X8445119Y-18315500D02*
X8435595Y-18305976D01*
X8435595Y-18305976D02*
X8426072Y-18286929D01*
X8426072Y-18286929D02*
X8416548Y-18248833D01*
X8416548Y-18248833D02*
X8416548Y-18201214D01*
X8416548Y-18201214D02*
X8426072Y-18163119D01*
X8426072Y-18163119D02*
X8435595Y-18144071D01*
X8435595Y-18144071D02*
X8445119Y-18134548D01*
X8445119Y-18134548D02*
X8464167Y-18125024D01*
X8597500Y-18125024D02*
X8730834Y-18125024D01*
X8730834Y-18125024D02*
X8645119Y-18325024D01*
X8816548Y-18325024D02*
X8854643Y-18325024D01*
X8854643Y-18325024D02*
X8873691Y-18315500D01*
X8873691Y-18315500D02*
X8883215Y-18305976D01*
X8883215Y-18305976D02*
X8902262Y-18277405D01*
X8902262Y-18277405D02*
X8911786Y-18239310D01*
X8911786Y-18239310D02*
X8911786Y-18163119D01*
X8911786Y-18163119D02*
X8902262Y-18144071D01*
X8902262Y-18144071D02*
X8892738Y-18134548D01*
X8892738Y-18134548D02*
X8873691Y-18125024D01*
X8873691Y-18125024D02*
X8835595Y-18125024D01*
X8835595Y-18125024D02*
X8816548Y-18134548D01*
X8816548Y-18134548D02*
X8807024Y-18144071D01*
X8807024Y-18144071D02*
X8797500Y-18163119D01*
X8797500Y-18163119D02*
X8797500Y-18210738D01*
X8797500Y-18210738D02*
X8807024Y-18229786D01*
X8807024Y-18229786D02*
X8816548Y-18239310D01*
X8816548Y-18239310D02*
X8835595Y-18248833D01*
X8835595Y-18248833D02*
X8873691Y-18248833D01*
X8873691Y-18248833D02*
X8892738Y-18239310D01*
X8892738Y-18239310D02*
X8902262Y-18229786D01*
X8902262Y-18229786D02*
X8911786Y-18210738D01*
X8987976Y-18125024D02*
X8987976Y-18163119D01*
X9064167Y-18125024D02*
X9064167Y-18163119D01*
X9359405Y-18401214D02*
X9349881Y-18391690D01*
X9349881Y-18391690D02*
X9330834Y-18363119D01*
X9330834Y-18363119D02*
X9321310Y-18344071D01*
X9321310Y-18344071D02*
X9311786Y-18315500D01*
X9311786Y-18315500D02*
X9302262Y-18267881D01*
X9302262Y-18267881D02*
X9302262Y-18229786D01*
X9302262Y-18229786D02*
X9311786Y-18182167D01*
X9311786Y-18182167D02*
X9321310Y-18153595D01*
X9321310Y-18153595D02*
X9330834Y-18134548D01*
X9330834Y-18134548D02*
X9349881Y-18105976D01*
X9349881Y-18105976D02*
X9359405Y-18096452D01*
X9540357Y-18325024D02*
X9426072Y-18325024D01*
X9483215Y-18325024D02*
X9483215Y-18125024D01*
X9483215Y-18125024D02*
X9464167Y-18153595D01*
X9464167Y-18153595D02*
X9445119Y-18172643D01*
X9445119Y-18172643D02*
X9426072Y-18182167D01*
X9616548Y-18144071D02*
X9626072Y-18134548D01*
X9626072Y-18134548D02*
X9645119Y-18125024D01*
X9645119Y-18125024D02*
X9692738Y-18125024D01*
X9692738Y-18125024D02*
X9711786Y-18134548D01*
X9711786Y-18134548D02*
X9721310Y-18144071D01*
X9721310Y-18144071D02*
X9730834Y-18163119D01*
X9730834Y-18163119D02*
X9730834Y-18182167D01*
X9730834Y-18182167D02*
X9721310Y-18210738D01*
X9721310Y-18210738D02*
X9607024Y-18325024D01*
X9607024Y-18325024D02*
X9730834Y-18325024D01*
X9807024Y-18144071D02*
X9816548Y-18134548D01*
X9816548Y-18134548D02*
X9835596Y-18125024D01*
X9835596Y-18125024D02*
X9883215Y-18125024D01*
X9883215Y-18125024D02*
X9902262Y-18134548D01*
X9902262Y-18134548D02*
X9911786Y-18144071D01*
X9911786Y-18144071D02*
X9921310Y-18163119D01*
X9921310Y-18163119D02*
X9921310Y-18182167D01*
X9921310Y-18182167D02*
X9911786Y-18210738D01*
X9911786Y-18210738D02*
X9797500Y-18325024D01*
X9797500Y-18325024D02*
X9921310Y-18325024D01*
X10045119Y-18125024D02*
X10064167Y-18125024D01*
X10064167Y-18125024D02*
X10083215Y-18134548D01*
X10083215Y-18134548D02*
X10092738Y-18144071D01*
X10092738Y-18144071D02*
X10102262Y-18163119D01*
X10102262Y-18163119D02*
X10111786Y-18201214D01*
X10111786Y-18201214D02*
X10111786Y-18248833D01*
X10111786Y-18248833D02*
X10102262Y-18286929D01*
X10102262Y-18286929D02*
X10092738Y-18305976D01*
X10092738Y-18305976D02*
X10083215Y-18315500D01*
X10083215Y-18315500D02*
X10064167Y-18325024D01*
X10064167Y-18325024D02*
X10045119Y-18325024D01*
X10045119Y-18325024D02*
X10026072Y-18315500D01*
X10026072Y-18315500D02*
X10016548Y-18305976D01*
X10016548Y-18305976D02*
X10007024Y-18286929D01*
X10007024Y-18286929D02*
X9997500Y-18248833D01*
X9997500Y-18248833D02*
X9997500Y-18201214D01*
X9997500Y-18201214D02*
X10007024Y-18163119D01*
X10007024Y-18163119D02*
X10016548Y-18144071D01*
X10016548Y-18144071D02*
X10026072Y-18134548D01*
X10026072Y-18134548D02*
X10045119Y-18125024D01*
X10349881Y-18325024D02*
X10349881Y-18125024D01*
X10435596Y-18325024D02*
X10435596Y-18220262D01*
X10435596Y-18220262D02*
X10426072Y-18201214D01*
X10426072Y-18201214D02*
X10407024Y-18191690D01*
X10407024Y-18191690D02*
X10378453Y-18191690D01*
X10378453Y-18191690D02*
X10359405Y-18201214D01*
X10359405Y-18201214D02*
X10349881Y-18210738D01*
X10559405Y-18325024D02*
X10540358Y-18315500D01*
X10540358Y-18315500D02*
X10530834Y-18305976D01*
X10530834Y-18305976D02*
X10521310Y-18286929D01*
X10521310Y-18286929D02*
X10521310Y-18229786D01*
X10521310Y-18229786D02*
X10530834Y-18210738D01*
X10530834Y-18210738D02*
X10540358Y-18201214D01*
X10540358Y-18201214D02*
X10559405Y-18191690D01*
X10559405Y-18191690D02*
X10587977Y-18191690D01*
X10587977Y-18191690D02*
X10607024Y-18201214D01*
X10607024Y-18201214D02*
X10616548Y-18210738D01*
X10616548Y-18210738D02*
X10626072Y-18229786D01*
X10626072Y-18229786D02*
X10626072Y-18286929D01*
X10626072Y-18286929D02*
X10616548Y-18305976D01*
X10616548Y-18305976D02*
X10607024Y-18315500D01*
X10607024Y-18315500D02*
X10587977Y-18325024D01*
X10587977Y-18325024D02*
X10559405Y-18325024D01*
X10740358Y-18325024D02*
X10721310Y-18315500D01*
X10721310Y-18315500D02*
X10711786Y-18296452D01*
X10711786Y-18296452D02*
X10711786Y-18125024D01*
X10892739Y-18315500D02*
X10873691Y-18325024D01*
X10873691Y-18325024D02*
X10835596Y-18325024D01*
X10835596Y-18325024D02*
X10816548Y-18315500D01*
X10816548Y-18315500D02*
X10807024Y-18296452D01*
X10807024Y-18296452D02*
X10807024Y-18220262D01*
X10807024Y-18220262D02*
X10816548Y-18201214D01*
X10816548Y-18201214D02*
X10835596Y-18191690D01*
X10835596Y-18191690D02*
X10873691Y-18191690D01*
X10873691Y-18191690D02*
X10892739Y-18201214D01*
X10892739Y-18201214D02*
X10902262Y-18220262D01*
X10902262Y-18220262D02*
X10902262Y-18239310D01*
X10902262Y-18239310D02*
X10807024Y-18258357D01*
X10978453Y-18315500D02*
X10997500Y-18325024D01*
X10997500Y-18325024D02*
X11035596Y-18325024D01*
X11035596Y-18325024D02*
X11054643Y-18315500D01*
X11054643Y-18315500D02*
X11064167Y-18296452D01*
X11064167Y-18296452D02*
X11064167Y-18286929D01*
X11064167Y-18286929D02*
X11054643Y-18267881D01*
X11054643Y-18267881D02*
X11035596Y-18258357D01*
X11035596Y-18258357D02*
X11007024Y-18258357D01*
X11007024Y-18258357D02*
X10987977Y-18248833D01*
X10987977Y-18248833D02*
X10978453Y-18229786D01*
X10978453Y-18229786D02*
X10978453Y-18220262D01*
X10978453Y-18220262D02*
X10987977Y-18201214D01*
X10987977Y-18201214D02*
X11007024Y-18191690D01*
X11007024Y-18191690D02*
X11035596Y-18191690D01*
X11035596Y-18191690D02*
X11054643Y-18201214D01*
X11130834Y-18401214D02*
X11140358Y-18391690D01*
X11140358Y-18391690D02*
X11159405Y-18363119D01*
X11159405Y-18363119D02*
X11168929Y-18344071D01*
X11168929Y-18344071D02*
X11178453Y-18315500D01*
X11178453Y-18315500D02*
X11187977Y-18267881D01*
X11187977Y-18267881D02*
X11187977Y-18229786D01*
X11187977Y-18229786D02*
X11178453Y-18182167D01*
X11178453Y-18182167D02*
X11168929Y-18153595D01*
X11168929Y-18153595D02*
X11159405Y-18134548D01*
X11159405Y-18134548D02*
X11140358Y-18105976D01*
X11140358Y-18105976D02*
X11130834Y-18096452D01*
X5797500Y-18496500D02*
G75*
G03*
X5797500Y-18496500I-100000J0D01*
G01*
X6035595Y-18408071D02*
X6045119Y-18398548D01*
X6045119Y-18398548D02*
X6064167Y-18389024D01*
X6064167Y-18389024D02*
X6111786Y-18389024D01*
X6111786Y-18389024D02*
X6130833Y-18398548D01*
X6130833Y-18398548D02*
X6140357Y-18408071D01*
X6140357Y-18408071D02*
X6149881Y-18427119D01*
X6149881Y-18427119D02*
X6149881Y-18446167D01*
X6149881Y-18446167D02*
X6140357Y-18474738D01*
X6140357Y-18474738D02*
X6026071Y-18589024D01*
X6026071Y-18589024D02*
X6149881Y-18589024D01*
X6235595Y-18569976D02*
X6245119Y-18579500D01*
X6245119Y-18579500D02*
X6235595Y-18589024D01*
X6235595Y-18589024D02*
X6226071Y-18579500D01*
X6226071Y-18579500D02*
X6235595Y-18569976D01*
X6235595Y-18569976D02*
X6235595Y-18589024D01*
X6435595Y-18589024D02*
X6321309Y-18589024D01*
X6378452Y-18589024D02*
X6378452Y-18389024D01*
X6378452Y-18389024D02*
X6359405Y-18417595D01*
X6359405Y-18417595D02*
X6340357Y-18436643D01*
X6340357Y-18436643D02*
X6321309Y-18446167D01*
X6616548Y-18389024D02*
X6521309Y-18389024D01*
X6521309Y-18389024D02*
X6511786Y-18484262D01*
X6511786Y-18484262D02*
X6521309Y-18474738D01*
X6521309Y-18474738D02*
X6540357Y-18465214D01*
X6540357Y-18465214D02*
X6587976Y-18465214D01*
X6587976Y-18465214D02*
X6607024Y-18474738D01*
X6607024Y-18474738D02*
X6616548Y-18484262D01*
X6616548Y-18484262D02*
X6626071Y-18503310D01*
X6626071Y-18503310D02*
X6626071Y-18550929D01*
X6626071Y-18550929D02*
X6616548Y-18569976D01*
X6616548Y-18569976D02*
X6607024Y-18579500D01*
X6607024Y-18579500D02*
X6587976Y-18589024D01*
X6587976Y-18589024D02*
X6540357Y-18589024D01*
X6540357Y-18589024D02*
X6521309Y-18579500D01*
X6521309Y-18579500D02*
X6511786Y-18569976D01*
X6721309Y-18589024D02*
X6759405Y-18589024D01*
X6759405Y-18589024D02*
X6778452Y-18579500D01*
X6778452Y-18579500D02*
X6787976Y-18569976D01*
X6787976Y-18569976D02*
X6807024Y-18541405D01*
X6807024Y-18541405D02*
X6816548Y-18503310D01*
X6816548Y-18503310D02*
X6816548Y-18427119D01*
X6816548Y-18427119D02*
X6807024Y-18408071D01*
X6807024Y-18408071D02*
X6797500Y-18398548D01*
X6797500Y-18398548D02*
X6778452Y-18389024D01*
X6778452Y-18389024D02*
X6740357Y-18389024D01*
X6740357Y-18389024D02*
X6721309Y-18398548D01*
X6721309Y-18398548D02*
X6711786Y-18408071D01*
X6711786Y-18408071D02*
X6702262Y-18427119D01*
X6702262Y-18427119D02*
X6702262Y-18474738D01*
X6702262Y-18474738D02*
X6711786Y-18493786D01*
X6711786Y-18493786D02*
X6721309Y-18503310D01*
X6721309Y-18503310D02*
X6740357Y-18512833D01*
X6740357Y-18512833D02*
X6778452Y-18512833D01*
X6778452Y-18512833D02*
X6797500Y-18503310D01*
X6797500Y-18503310D02*
X6807024Y-18493786D01*
X6807024Y-18493786D02*
X6816548Y-18474738D01*
X6902262Y-18589024D02*
X6902262Y-18455690D01*
X6902262Y-18474738D02*
X6911786Y-18465214D01*
X6911786Y-18465214D02*
X6930833Y-18455690D01*
X6930833Y-18455690D02*
X6959405Y-18455690D01*
X6959405Y-18455690D02*
X6978452Y-18465214D01*
X6978452Y-18465214D02*
X6987976Y-18484262D01*
X6987976Y-18484262D02*
X6987976Y-18589024D01*
X6987976Y-18484262D02*
X6997500Y-18465214D01*
X6997500Y-18465214D02*
X7016548Y-18455690D01*
X7016548Y-18455690D02*
X7045119Y-18455690D01*
X7045119Y-18455690D02*
X7064167Y-18465214D01*
X7064167Y-18465214D02*
X7073690Y-18484262D01*
X7073690Y-18484262D02*
X7073690Y-18589024D01*
X7168929Y-18589024D02*
X7168929Y-18455690D01*
X7168929Y-18474738D02*
X7178452Y-18465214D01*
X7178452Y-18465214D02*
X7197500Y-18455690D01*
X7197500Y-18455690D02*
X7226071Y-18455690D01*
X7226071Y-18455690D02*
X7245119Y-18465214D01*
X7245119Y-18465214D02*
X7254643Y-18484262D01*
X7254643Y-18484262D02*
X7254643Y-18589024D01*
X7254643Y-18484262D02*
X7264167Y-18465214D01*
X7264167Y-18465214D02*
X7283214Y-18455690D01*
X7283214Y-18455690D02*
X7311786Y-18455690D01*
X7311786Y-18455690D02*
X7330833Y-18465214D01*
X7330833Y-18465214D02*
X7340357Y-18484262D01*
X7340357Y-18484262D02*
X7340357Y-18589024D01*
X7730833Y-18379500D02*
X7559405Y-18636643D01*
X7987976Y-18389024D02*
X8007024Y-18389024D01*
X8007024Y-18389024D02*
X8026072Y-18398548D01*
X8026072Y-18398548D02*
X8035595Y-18408071D01*
X8035595Y-18408071D02*
X8045119Y-18427119D01*
X8045119Y-18427119D02*
X8054643Y-18465214D01*
X8054643Y-18465214D02*
X8054643Y-18512833D01*
X8054643Y-18512833D02*
X8045119Y-18550929D01*
X8045119Y-18550929D02*
X8035595Y-18569976D01*
X8035595Y-18569976D02*
X8026072Y-18579500D01*
X8026072Y-18579500D02*
X8007024Y-18589024D01*
X8007024Y-18589024D02*
X7987976Y-18589024D01*
X7987976Y-18589024D02*
X7968929Y-18579500D01*
X7968929Y-18579500D02*
X7959405Y-18569976D01*
X7959405Y-18569976D02*
X7949881Y-18550929D01*
X7949881Y-18550929D02*
X7940357Y-18512833D01*
X7940357Y-18512833D02*
X7940357Y-18465214D01*
X7940357Y-18465214D02*
X7949881Y-18427119D01*
X7949881Y-18427119D02*
X7959405Y-18408071D01*
X7959405Y-18408071D02*
X7968929Y-18398548D01*
X7968929Y-18398548D02*
X7987976Y-18389024D01*
X8140357Y-18569976D02*
X8149881Y-18579500D01*
X8149881Y-18579500D02*
X8140357Y-18589024D01*
X8140357Y-18589024D02*
X8130833Y-18579500D01*
X8130833Y-18579500D02*
X8140357Y-18569976D01*
X8140357Y-18569976D02*
X8140357Y-18589024D01*
X8273691Y-18389024D02*
X8292738Y-18389024D01*
X8292738Y-18389024D02*
X8311786Y-18398548D01*
X8311786Y-18398548D02*
X8321310Y-18408071D01*
X8321310Y-18408071D02*
X8330833Y-18427119D01*
X8330833Y-18427119D02*
X8340357Y-18465214D01*
X8340357Y-18465214D02*
X8340357Y-18512833D01*
X8340357Y-18512833D02*
X8330833Y-18550929D01*
X8330833Y-18550929D02*
X8321310Y-18569976D01*
X8321310Y-18569976D02*
X8311786Y-18579500D01*
X8311786Y-18579500D02*
X8292738Y-18589024D01*
X8292738Y-18589024D02*
X8273691Y-18589024D01*
X8273691Y-18589024D02*
X8254643Y-18579500D01*
X8254643Y-18579500D02*
X8245119Y-18569976D01*
X8245119Y-18569976D02*
X8235595Y-18550929D01*
X8235595Y-18550929D02*
X8226072Y-18512833D01*
X8226072Y-18512833D02*
X8226072Y-18465214D01*
X8226072Y-18465214D02*
X8235595Y-18427119D01*
X8235595Y-18427119D02*
X8245119Y-18408071D01*
X8245119Y-18408071D02*
X8254643Y-18398548D01*
X8254643Y-18398548D02*
X8273691Y-18389024D01*
X8454643Y-18474738D02*
X8435595Y-18465214D01*
X8435595Y-18465214D02*
X8426072Y-18455690D01*
X8426072Y-18455690D02*
X8416548Y-18436643D01*
X8416548Y-18436643D02*
X8416548Y-18427119D01*
X8416548Y-18427119D02*
X8426072Y-18408071D01*
X8426072Y-18408071D02*
X8435595Y-18398548D01*
X8435595Y-18398548D02*
X8454643Y-18389024D01*
X8454643Y-18389024D02*
X8492738Y-18389024D01*
X8492738Y-18389024D02*
X8511786Y-18398548D01*
X8511786Y-18398548D02*
X8521310Y-18408071D01*
X8521310Y-18408071D02*
X8530834Y-18427119D01*
X8530834Y-18427119D02*
X8530834Y-18436643D01*
X8530834Y-18436643D02*
X8521310Y-18455690D01*
X8521310Y-18455690D02*
X8511786Y-18465214D01*
X8511786Y-18465214D02*
X8492738Y-18474738D01*
X8492738Y-18474738D02*
X8454643Y-18474738D01*
X8454643Y-18474738D02*
X8435595Y-18484262D01*
X8435595Y-18484262D02*
X8426072Y-18493786D01*
X8426072Y-18493786D02*
X8416548Y-18512833D01*
X8416548Y-18512833D02*
X8416548Y-18550929D01*
X8416548Y-18550929D02*
X8426072Y-18569976D01*
X8426072Y-18569976D02*
X8435595Y-18579500D01*
X8435595Y-18579500D02*
X8454643Y-18589024D01*
X8454643Y-18589024D02*
X8492738Y-18589024D01*
X8492738Y-18589024D02*
X8511786Y-18579500D01*
X8511786Y-18579500D02*
X8521310Y-18569976D01*
X8521310Y-18569976D02*
X8530834Y-18550929D01*
X8530834Y-18550929D02*
X8530834Y-18512833D01*
X8530834Y-18512833D02*
X8521310Y-18493786D01*
X8521310Y-18493786D02*
X8511786Y-18484262D01*
X8511786Y-18484262D02*
X8492738Y-18474738D01*
X8711786Y-18389024D02*
X8616548Y-18389024D01*
X8616548Y-18389024D02*
X8607024Y-18484262D01*
X8607024Y-18484262D02*
X8616548Y-18474738D01*
X8616548Y-18474738D02*
X8635595Y-18465214D01*
X8635595Y-18465214D02*
X8683215Y-18465214D01*
X8683215Y-18465214D02*
X8702262Y-18474738D01*
X8702262Y-18474738D02*
X8711786Y-18484262D01*
X8711786Y-18484262D02*
X8721310Y-18503310D01*
X8721310Y-18503310D02*
X8721310Y-18550929D01*
X8721310Y-18550929D02*
X8711786Y-18569976D01*
X8711786Y-18569976D02*
X8702262Y-18579500D01*
X8702262Y-18579500D02*
X8683215Y-18589024D01*
X8683215Y-18589024D02*
X8635595Y-18589024D01*
X8635595Y-18589024D02*
X8616548Y-18579500D01*
X8616548Y-18579500D02*
X8607024Y-18569976D01*
X8845119Y-18389024D02*
X8864167Y-18389024D01*
X8864167Y-18389024D02*
X8883215Y-18398548D01*
X8883215Y-18398548D02*
X8892738Y-18408071D01*
X8892738Y-18408071D02*
X8902262Y-18427119D01*
X8902262Y-18427119D02*
X8911786Y-18465214D01*
X8911786Y-18465214D02*
X8911786Y-18512833D01*
X8911786Y-18512833D02*
X8902262Y-18550929D01*
X8902262Y-18550929D02*
X8892738Y-18569976D01*
X8892738Y-18569976D02*
X8883215Y-18579500D01*
X8883215Y-18579500D02*
X8864167Y-18589024D01*
X8864167Y-18589024D02*
X8845119Y-18589024D01*
X8845119Y-18589024D02*
X8826072Y-18579500D01*
X8826072Y-18579500D02*
X8816548Y-18569976D01*
X8816548Y-18569976D02*
X8807024Y-18550929D01*
X8807024Y-18550929D02*
X8797500Y-18512833D01*
X8797500Y-18512833D02*
X8797500Y-18465214D01*
X8797500Y-18465214D02*
X8807024Y-18427119D01*
X8807024Y-18427119D02*
X8816548Y-18408071D01*
X8816548Y-18408071D02*
X8826072Y-18398548D01*
X8826072Y-18398548D02*
X8845119Y-18389024D01*
X8987976Y-18389024D02*
X8987976Y-18427119D01*
X9064167Y-18389024D02*
X9064167Y-18427119D01*
X9359405Y-18665214D02*
X9349881Y-18655690D01*
X9349881Y-18655690D02*
X9330834Y-18627119D01*
X9330834Y-18627119D02*
X9321310Y-18608071D01*
X9321310Y-18608071D02*
X9311786Y-18579500D01*
X9311786Y-18579500D02*
X9302262Y-18531881D01*
X9302262Y-18531881D02*
X9302262Y-18493786D01*
X9302262Y-18493786D02*
X9311786Y-18446167D01*
X9311786Y-18446167D02*
X9321310Y-18417595D01*
X9321310Y-18417595D02*
X9330834Y-18398548D01*
X9330834Y-18398548D02*
X9349881Y-18369976D01*
X9349881Y-18369976D02*
X9359405Y-18360452D01*
X9426072Y-18408071D02*
X9435596Y-18398548D01*
X9435596Y-18398548D02*
X9454643Y-18389024D01*
X9454643Y-18389024D02*
X9502262Y-18389024D01*
X9502262Y-18389024D02*
X9521310Y-18398548D01*
X9521310Y-18398548D02*
X9530834Y-18408071D01*
X9530834Y-18408071D02*
X9540357Y-18427119D01*
X9540357Y-18427119D02*
X9540357Y-18446167D01*
X9540357Y-18446167D02*
X9530834Y-18474738D01*
X9530834Y-18474738D02*
X9416548Y-18589024D01*
X9416548Y-18589024D02*
X9540357Y-18589024D01*
X9778453Y-18589024D02*
X9778453Y-18389024D01*
X9864167Y-18589024D02*
X9864167Y-18484262D01*
X9864167Y-18484262D02*
X9854643Y-18465214D01*
X9854643Y-18465214D02*
X9835596Y-18455690D01*
X9835596Y-18455690D02*
X9807024Y-18455690D01*
X9807024Y-18455690D02*
X9787977Y-18465214D01*
X9787977Y-18465214D02*
X9778453Y-18474738D01*
X9987977Y-18589024D02*
X9968929Y-18579500D01*
X9968929Y-18579500D02*
X9959405Y-18569976D01*
X9959405Y-18569976D02*
X9949881Y-18550929D01*
X9949881Y-18550929D02*
X9949881Y-18493786D01*
X9949881Y-18493786D02*
X9959405Y-18474738D01*
X9959405Y-18474738D02*
X9968929Y-18465214D01*
X9968929Y-18465214D02*
X9987977Y-18455690D01*
X9987977Y-18455690D02*
X10016548Y-18455690D01*
X10016548Y-18455690D02*
X10035596Y-18465214D01*
X10035596Y-18465214D02*
X10045119Y-18474738D01*
X10045119Y-18474738D02*
X10054643Y-18493786D01*
X10054643Y-18493786D02*
X10054643Y-18550929D01*
X10054643Y-18550929D02*
X10045119Y-18569976D01*
X10045119Y-18569976D02*
X10035596Y-18579500D01*
X10035596Y-18579500D02*
X10016548Y-18589024D01*
X10016548Y-18589024D02*
X9987977Y-18589024D01*
X10168929Y-18589024D02*
X10149881Y-18579500D01*
X10149881Y-18579500D02*
X10140358Y-18560452D01*
X10140358Y-18560452D02*
X10140358Y-18389024D01*
X10321310Y-18579500D02*
X10302262Y-18589024D01*
X10302262Y-18589024D02*
X10264167Y-18589024D01*
X10264167Y-18589024D02*
X10245119Y-18579500D01*
X10245119Y-18579500D02*
X10235596Y-18560452D01*
X10235596Y-18560452D02*
X10235596Y-18484262D01*
X10235596Y-18484262D02*
X10245119Y-18465214D01*
X10245119Y-18465214D02*
X10264167Y-18455690D01*
X10264167Y-18455690D02*
X10302262Y-18455690D01*
X10302262Y-18455690D02*
X10321310Y-18465214D01*
X10321310Y-18465214D02*
X10330834Y-18484262D01*
X10330834Y-18484262D02*
X10330834Y-18503310D01*
X10330834Y-18503310D02*
X10235596Y-18522357D01*
X10407024Y-18579500D02*
X10426072Y-18589024D01*
X10426072Y-18589024D02*
X10464167Y-18589024D01*
X10464167Y-18589024D02*
X10483215Y-18579500D01*
X10483215Y-18579500D02*
X10492739Y-18560452D01*
X10492739Y-18560452D02*
X10492739Y-18550929D01*
X10492739Y-18550929D02*
X10483215Y-18531881D01*
X10483215Y-18531881D02*
X10464167Y-18522357D01*
X10464167Y-18522357D02*
X10435596Y-18522357D01*
X10435596Y-18522357D02*
X10416548Y-18512833D01*
X10416548Y-18512833D02*
X10407024Y-18493786D01*
X10407024Y-18493786D02*
X10407024Y-18484262D01*
X10407024Y-18484262D02*
X10416548Y-18465214D01*
X10416548Y-18465214D02*
X10435596Y-18455690D01*
X10435596Y-18455690D02*
X10464167Y-18455690D01*
X10464167Y-18455690D02*
X10483215Y-18465214D01*
X10559405Y-18665214D02*
X10568929Y-18655690D01*
X10568929Y-18655690D02*
X10587977Y-18627119D01*
X10587977Y-18627119D02*
X10597500Y-18608071D01*
X10597500Y-18608071D02*
X10607024Y-18579500D01*
X10607024Y-18579500D02*
X10616548Y-18531881D01*
X10616548Y-18531881D02*
X10616548Y-18493786D01*
X10616548Y-18493786D02*
X10607024Y-18446167D01*
X10607024Y-18446167D02*
X10597500Y-18417595D01*
X10597500Y-18417595D02*
X10587977Y-18398548D01*
X10587977Y-18398548D02*
X10568929Y-18369976D01*
X10568929Y-18369976D02*
X10559405Y-18360452D01*
X5697500Y-18716500D02*
X5697500Y-18916500D01*
X5597500Y-18816500D02*
X5797500Y-18816500D01*
X6026071Y-18709024D02*
X6149881Y-18709024D01*
X6149881Y-18709024D02*
X6083214Y-18785214D01*
X6083214Y-18785214D02*
X6111786Y-18785214D01*
X6111786Y-18785214D02*
X6130833Y-18794738D01*
X6130833Y-18794738D02*
X6140357Y-18804262D01*
X6140357Y-18804262D02*
X6149881Y-18823310D01*
X6149881Y-18823310D02*
X6149881Y-18870929D01*
X6149881Y-18870929D02*
X6140357Y-18889976D01*
X6140357Y-18889976D02*
X6130833Y-18899500D01*
X6130833Y-18899500D02*
X6111786Y-18909024D01*
X6111786Y-18909024D02*
X6054643Y-18909024D01*
X6054643Y-18909024D02*
X6035595Y-18899500D01*
X6035595Y-18899500D02*
X6026071Y-18889976D01*
X6235595Y-18889976D02*
X6245119Y-18899500D01*
X6245119Y-18899500D02*
X6235595Y-18909024D01*
X6235595Y-18909024D02*
X6226071Y-18899500D01*
X6226071Y-18899500D02*
X6235595Y-18889976D01*
X6235595Y-18889976D02*
X6235595Y-18909024D01*
X6368928Y-18709024D02*
X6387976Y-18709024D01*
X6387976Y-18709024D02*
X6407024Y-18718548D01*
X6407024Y-18718548D02*
X6416548Y-18728071D01*
X6416548Y-18728071D02*
X6426071Y-18747119D01*
X6426071Y-18747119D02*
X6435595Y-18785214D01*
X6435595Y-18785214D02*
X6435595Y-18832833D01*
X6435595Y-18832833D02*
X6426071Y-18870929D01*
X6426071Y-18870929D02*
X6416548Y-18889976D01*
X6416548Y-18889976D02*
X6407024Y-18899500D01*
X6407024Y-18899500D02*
X6387976Y-18909024D01*
X6387976Y-18909024D02*
X6368928Y-18909024D01*
X6368928Y-18909024D02*
X6349881Y-18899500D01*
X6349881Y-18899500D02*
X6340357Y-18889976D01*
X6340357Y-18889976D02*
X6330833Y-18870929D01*
X6330833Y-18870929D02*
X6321309Y-18832833D01*
X6321309Y-18832833D02*
X6321309Y-18785214D01*
X6321309Y-18785214D02*
X6330833Y-18747119D01*
X6330833Y-18747119D02*
X6340357Y-18728071D01*
X6340357Y-18728071D02*
X6349881Y-18718548D01*
X6349881Y-18718548D02*
X6368928Y-18709024D01*
X6607024Y-18775690D02*
X6607024Y-18909024D01*
X6559405Y-18699500D02*
X6511786Y-18842357D01*
X6511786Y-18842357D02*
X6635595Y-18842357D01*
X6740357Y-18794738D02*
X6721309Y-18785214D01*
X6721309Y-18785214D02*
X6711786Y-18775690D01*
X6711786Y-18775690D02*
X6702262Y-18756643D01*
X6702262Y-18756643D02*
X6702262Y-18747119D01*
X6702262Y-18747119D02*
X6711786Y-18728071D01*
X6711786Y-18728071D02*
X6721309Y-18718548D01*
X6721309Y-18718548D02*
X6740357Y-18709024D01*
X6740357Y-18709024D02*
X6778452Y-18709024D01*
X6778452Y-18709024D02*
X6797500Y-18718548D01*
X6797500Y-18718548D02*
X6807024Y-18728071D01*
X6807024Y-18728071D02*
X6816548Y-18747119D01*
X6816548Y-18747119D02*
X6816548Y-18756643D01*
X6816548Y-18756643D02*
X6807024Y-18775690D01*
X6807024Y-18775690D02*
X6797500Y-18785214D01*
X6797500Y-18785214D02*
X6778452Y-18794738D01*
X6778452Y-18794738D02*
X6740357Y-18794738D01*
X6740357Y-18794738D02*
X6721309Y-18804262D01*
X6721309Y-18804262D02*
X6711786Y-18813786D01*
X6711786Y-18813786D02*
X6702262Y-18832833D01*
X6702262Y-18832833D02*
X6702262Y-18870929D01*
X6702262Y-18870929D02*
X6711786Y-18889976D01*
X6711786Y-18889976D02*
X6721309Y-18899500D01*
X6721309Y-18899500D02*
X6740357Y-18909024D01*
X6740357Y-18909024D02*
X6778452Y-18909024D01*
X6778452Y-18909024D02*
X6797500Y-18899500D01*
X6797500Y-18899500D02*
X6807024Y-18889976D01*
X6807024Y-18889976D02*
X6816548Y-18870929D01*
X6816548Y-18870929D02*
X6816548Y-18832833D01*
X6816548Y-18832833D02*
X6807024Y-18813786D01*
X6807024Y-18813786D02*
X6797500Y-18804262D01*
X6797500Y-18804262D02*
X6778452Y-18794738D01*
X6902262Y-18909024D02*
X6902262Y-18775690D01*
X6902262Y-18794738D02*
X6911786Y-18785214D01*
X6911786Y-18785214D02*
X6930833Y-18775690D01*
X6930833Y-18775690D02*
X6959405Y-18775690D01*
X6959405Y-18775690D02*
X6978452Y-18785214D01*
X6978452Y-18785214D02*
X6987976Y-18804262D01*
X6987976Y-18804262D02*
X6987976Y-18909024D01*
X6987976Y-18804262D02*
X6997500Y-18785214D01*
X6997500Y-18785214D02*
X7016548Y-18775690D01*
X7016548Y-18775690D02*
X7045119Y-18775690D01*
X7045119Y-18775690D02*
X7064167Y-18785214D01*
X7064167Y-18785214D02*
X7073690Y-18804262D01*
X7073690Y-18804262D02*
X7073690Y-18909024D01*
X7168929Y-18909024D02*
X7168929Y-18775690D01*
X7168929Y-18794738D02*
X7178452Y-18785214D01*
X7178452Y-18785214D02*
X7197500Y-18775690D01*
X7197500Y-18775690D02*
X7226071Y-18775690D01*
X7226071Y-18775690D02*
X7245119Y-18785214D01*
X7245119Y-18785214D02*
X7254643Y-18804262D01*
X7254643Y-18804262D02*
X7254643Y-18909024D01*
X7254643Y-18804262D02*
X7264167Y-18785214D01*
X7264167Y-18785214D02*
X7283214Y-18775690D01*
X7283214Y-18775690D02*
X7311786Y-18775690D01*
X7311786Y-18775690D02*
X7330833Y-18785214D01*
X7330833Y-18785214D02*
X7340357Y-18804262D01*
X7340357Y-18804262D02*
X7340357Y-18909024D01*
X7730833Y-18699500D02*
X7559405Y-18956643D01*
X7987976Y-18709024D02*
X8007024Y-18709024D01*
X8007024Y-18709024D02*
X8026072Y-18718548D01*
X8026072Y-18718548D02*
X8035595Y-18728071D01*
X8035595Y-18728071D02*
X8045119Y-18747119D01*
X8045119Y-18747119D02*
X8054643Y-18785214D01*
X8054643Y-18785214D02*
X8054643Y-18832833D01*
X8054643Y-18832833D02*
X8045119Y-18870929D01*
X8045119Y-18870929D02*
X8035595Y-18889976D01*
X8035595Y-18889976D02*
X8026072Y-18899500D01*
X8026072Y-18899500D02*
X8007024Y-18909024D01*
X8007024Y-18909024D02*
X7987976Y-18909024D01*
X7987976Y-18909024D02*
X7968929Y-18899500D01*
X7968929Y-18899500D02*
X7959405Y-18889976D01*
X7959405Y-18889976D02*
X7949881Y-18870929D01*
X7949881Y-18870929D02*
X7940357Y-18832833D01*
X7940357Y-18832833D02*
X7940357Y-18785214D01*
X7940357Y-18785214D02*
X7949881Y-18747119D01*
X7949881Y-18747119D02*
X7959405Y-18728071D01*
X7959405Y-18728071D02*
X7968929Y-18718548D01*
X7968929Y-18718548D02*
X7987976Y-18709024D01*
X8140357Y-18889976D02*
X8149881Y-18899500D01*
X8149881Y-18899500D02*
X8140357Y-18909024D01*
X8140357Y-18909024D02*
X8130833Y-18899500D01*
X8130833Y-18899500D02*
X8140357Y-18889976D01*
X8140357Y-18889976D02*
X8140357Y-18909024D01*
X8340357Y-18909024D02*
X8226072Y-18909024D01*
X8283214Y-18909024D02*
X8283214Y-18709024D01*
X8283214Y-18709024D02*
X8264167Y-18737595D01*
X8264167Y-18737595D02*
X8245119Y-18756643D01*
X8245119Y-18756643D02*
X8226072Y-18766167D01*
X8416548Y-18728071D02*
X8426072Y-18718548D01*
X8426072Y-18718548D02*
X8445119Y-18709024D01*
X8445119Y-18709024D02*
X8492738Y-18709024D01*
X8492738Y-18709024D02*
X8511786Y-18718548D01*
X8511786Y-18718548D02*
X8521310Y-18728071D01*
X8521310Y-18728071D02*
X8530834Y-18747119D01*
X8530834Y-18747119D02*
X8530834Y-18766167D01*
X8530834Y-18766167D02*
X8521310Y-18794738D01*
X8521310Y-18794738D02*
X8407024Y-18909024D01*
X8407024Y-18909024D02*
X8530834Y-18909024D01*
X8654643Y-18709024D02*
X8673691Y-18709024D01*
X8673691Y-18709024D02*
X8692738Y-18718548D01*
X8692738Y-18718548D02*
X8702262Y-18728071D01*
X8702262Y-18728071D02*
X8711786Y-18747119D01*
X8711786Y-18747119D02*
X8721310Y-18785214D01*
X8721310Y-18785214D02*
X8721310Y-18832833D01*
X8721310Y-18832833D02*
X8711786Y-18870929D01*
X8711786Y-18870929D02*
X8702262Y-18889976D01*
X8702262Y-18889976D02*
X8692738Y-18899500D01*
X8692738Y-18899500D02*
X8673691Y-18909024D01*
X8673691Y-18909024D02*
X8654643Y-18909024D01*
X8654643Y-18909024D02*
X8635595Y-18899500D01*
X8635595Y-18899500D02*
X8626072Y-18889976D01*
X8626072Y-18889976D02*
X8616548Y-18870929D01*
X8616548Y-18870929D02*
X8607024Y-18832833D01*
X8607024Y-18832833D02*
X8607024Y-18785214D01*
X8607024Y-18785214D02*
X8616548Y-18747119D01*
X8616548Y-18747119D02*
X8626072Y-18728071D01*
X8626072Y-18728071D02*
X8635595Y-18718548D01*
X8635595Y-18718548D02*
X8654643Y-18709024D01*
X8845119Y-18709024D02*
X8864167Y-18709024D01*
X8864167Y-18709024D02*
X8883215Y-18718548D01*
X8883215Y-18718548D02*
X8892738Y-18728071D01*
X8892738Y-18728071D02*
X8902262Y-18747119D01*
X8902262Y-18747119D02*
X8911786Y-18785214D01*
X8911786Y-18785214D02*
X8911786Y-18832833D01*
X8911786Y-18832833D02*
X8902262Y-18870929D01*
X8902262Y-18870929D02*
X8892738Y-18889976D01*
X8892738Y-18889976D02*
X8883215Y-18899500D01*
X8883215Y-18899500D02*
X8864167Y-18909024D01*
X8864167Y-18909024D02*
X8845119Y-18909024D01*
X8845119Y-18909024D02*
X8826072Y-18899500D01*
X8826072Y-18899500D02*
X8816548Y-18889976D01*
X8816548Y-18889976D02*
X8807024Y-18870929D01*
X8807024Y-18870929D02*
X8797500Y-18832833D01*
X8797500Y-18832833D02*
X8797500Y-18785214D01*
X8797500Y-18785214D02*
X8807024Y-18747119D01*
X8807024Y-18747119D02*
X8816548Y-18728071D01*
X8816548Y-18728071D02*
X8826072Y-18718548D01*
X8826072Y-18718548D02*
X8845119Y-18709024D01*
X8987976Y-18709024D02*
X8987976Y-18747119D01*
X9064167Y-18709024D02*
X9064167Y-18747119D01*
X9359405Y-18985214D02*
X9349881Y-18975690D01*
X9349881Y-18975690D02*
X9330834Y-18947119D01*
X9330834Y-18947119D02*
X9321310Y-18928071D01*
X9321310Y-18928071D02*
X9311786Y-18899500D01*
X9311786Y-18899500D02*
X9302262Y-18851881D01*
X9302262Y-18851881D02*
X9302262Y-18813786D01*
X9302262Y-18813786D02*
X9311786Y-18766167D01*
X9311786Y-18766167D02*
X9321310Y-18737595D01*
X9321310Y-18737595D02*
X9330834Y-18718548D01*
X9330834Y-18718548D02*
X9349881Y-18689976D01*
X9349881Y-18689976D02*
X9359405Y-18680452D01*
X9521310Y-18709024D02*
X9483215Y-18709024D01*
X9483215Y-18709024D02*
X9464167Y-18718548D01*
X9464167Y-18718548D02*
X9454643Y-18728071D01*
X9454643Y-18728071D02*
X9435596Y-18756643D01*
X9435596Y-18756643D02*
X9426072Y-18794738D01*
X9426072Y-18794738D02*
X9426072Y-18870929D01*
X9426072Y-18870929D02*
X9435596Y-18889976D01*
X9435596Y-18889976D02*
X9445119Y-18899500D01*
X9445119Y-18899500D02*
X9464167Y-18909024D01*
X9464167Y-18909024D02*
X9502262Y-18909024D01*
X9502262Y-18909024D02*
X9521310Y-18899500D01*
X9521310Y-18899500D02*
X9530834Y-18889976D01*
X9530834Y-18889976D02*
X9540357Y-18870929D01*
X9540357Y-18870929D02*
X9540357Y-18823310D01*
X9540357Y-18823310D02*
X9530834Y-18804262D01*
X9530834Y-18804262D02*
X9521310Y-18794738D01*
X9521310Y-18794738D02*
X9502262Y-18785214D01*
X9502262Y-18785214D02*
X9464167Y-18785214D01*
X9464167Y-18785214D02*
X9445119Y-18794738D01*
X9445119Y-18794738D02*
X9435596Y-18804262D01*
X9435596Y-18804262D02*
X9426072Y-18823310D01*
X9778453Y-18909024D02*
X9778453Y-18709024D01*
X9864167Y-18909024D02*
X9864167Y-18804262D01*
X9864167Y-18804262D02*
X9854643Y-18785214D01*
X9854643Y-18785214D02*
X9835596Y-18775690D01*
X9835596Y-18775690D02*
X9807024Y-18775690D01*
X9807024Y-18775690D02*
X9787977Y-18785214D01*
X9787977Y-18785214D02*
X9778453Y-18794738D01*
X9987977Y-18909024D02*
X9968929Y-18899500D01*
X9968929Y-18899500D02*
X9959405Y-18889976D01*
X9959405Y-18889976D02*
X9949881Y-18870929D01*
X9949881Y-18870929D02*
X9949881Y-18813786D01*
X9949881Y-18813786D02*
X9959405Y-18794738D01*
X9959405Y-18794738D02*
X9968929Y-18785214D01*
X9968929Y-18785214D02*
X9987977Y-18775690D01*
X9987977Y-18775690D02*
X10016548Y-18775690D01*
X10016548Y-18775690D02*
X10035596Y-18785214D01*
X10035596Y-18785214D02*
X10045119Y-18794738D01*
X10045119Y-18794738D02*
X10054643Y-18813786D01*
X10054643Y-18813786D02*
X10054643Y-18870929D01*
X10054643Y-18870929D02*
X10045119Y-18889976D01*
X10045119Y-18889976D02*
X10035596Y-18899500D01*
X10035596Y-18899500D02*
X10016548Y-18909024D01*
X10016548Y-18909024D02*
X9987977Y-18909024D01*
X10168929Y-18909024D02*
X10149881Y-18899500D01*
X10149881Y-18899500D02*
X10140358Y-18880452D01*
X10140358Y-18880452D02*
X10140358Y-18709024D01*
X10321310Y-18899500D02*
X10302262Y-18909024D01*
X10302262Y-18909024D02*
X10264167Y-18909024D01*
X10264167Y-18909024D02*
X10245119Y-18899500D01*
X10245119Y-18899500D02*
X10235596Y-18880452D01*
X10235596Y-18880452D02*
X10235596Y-18804262D01*
X10235596Y-18804262D02*
X10245119Y-18785214D01*
X10245119Y-18785214D02*
X10264167Y-18775690D01*
X10264167Y-18775690D02*
X10302262Y-18775690D01*
X10302262Y-18775690D02*
X10321310Y-18785214D01*
X10321310Y-18785214D02*
X10330834Y-18804262D01*
X10330834Y-18804262D02*
X10330834Y-18823310D01*
X10330834Y-18823310D02*
X10235596Y-18842357D01*
X10407024Y-18899500D02*
X10426072Y-18909024D01*
X10426072Y-18909024D02*
X10464167Y-18909024D01*
X10464167Y-18909024D02*
X10483215Y-18899500D01*
X10483215Y-18899500D02*
X10492739Y-18880452D01*
X10492739Y-18880452D02*
X10492739Y-18870929D01*
X10492739Y-18870929D02*
X10483215Y-18851881D01*
X10483215Y-18851881D02*
X10464167Y-18842357D01*
X10464167Y-18842357D02*
X10435596Y-18842357D01*
X10435596Y-18842357D02*
X10416548Y-18832833D01*
X10416548Y-18832833D02*
X10407024Y-18813786D01*
X10407024Y-18813786D02*
X10407024Y-18804262D01*
X10407024Y-18804262D02*
X10416548Y-18785214D01*
X10416548Y-18785214D02*
X10435596Y-18775690D01*
X10435596Y-18775690D02*
X10464167Y-18775690D01*
X10464167Y-18775690D02*
X10483215Y-18785214D01*
X10559405Y-18985214D02*
X10568929Y-18975690D01*
X10568929Y-18975690D02*
X10587977Y-18947119D01*
X10587977Y-18947119D02*
X10597500Y-18928071D01*
X10597500Y-18928071D02*
X10607024Y-18899500D01*
X10607024Y-18899500D02*
X10616548Y-18851881D01*
X10616548Y-18851881D02*
X10616548Y-18813786D01*
X10616548Y-18813786D02*
X10607024Y-18766167D01*
X10607024Y-18766167D02*
X10597500Y-18737595D01*
X10597500Y-18737595D02*
X10587977Y-18718548D01*
X10587977Y-18718548D02*
X10568929Y-18689976D01*
X10568929Y-18689976D02*
X10559405Y-18680452D01*
M02*
