%TF.GenerationSoftware,KiCad,Pcbnew,7.0.1*%
%TF.CreationDate,2023-06-01T09:09:50-04:00*%
%TF.ProjectId,backplane,6261636b-706c-4616-9e65-2e6b69636164,C*%
%TF.SameCoordinates,Original*%
%TF.FileFunction,Drillmap*%
%TF.FilePolarity,Positive*%
%FSLAX45Y45*%
G04 Gerber Fmt 4.5, Leading zero omitted, Abs format (unit mm)*
G04 Created by KiCad (PCBNEW 7.0.1) date 2023-06-01 09:09:50*
%MOMM*%
%LPD*%
G01*
G04 APERTURE LIST*
%ADD10C,0.050000*%
%ADD11C,0.200000*%
%ADD12C,0.060960*%
%ADD13C,0.074000*%
%ADD14C,0.100000*%
%ADD15C,0.127000*%
%ADD16C,0.150000*%
G04 APERTURE END LIST*
D10*
X13600000Y-17530000D02*
X13600000Y-3850000D01*
X13540000Y-17590000D02*
G75*
G03*
X13600000Y-17530000I0J60000D01*
G01*
X13540000Y-3790000D02*
X5860000Y-3790000D01*
X5860000Y-3790000D02*
G75*
G03*
X5800000Y-3850000I0J-60000D01*
G01*
X13600000Y-3850000D02*
G75*
G03*
X13540000Y-3790000I-60000J0D01*
G01*
X12643300Y-15958300D02*
X13381700Y-15958300D01*
X13381700Y-15958300D02*
G75*
G03*
X13411300Y-15928700I0J29600D01*
G01*
X13411300Y-15928700D02*
X13411300Y-15673300D01*
X13411300Y-15673300D02*
G75*
G03*
X13381700Y-15643700I-29600J0D01*
G01*
X12643300Y-15643700D02*
G75*
G03*
X12613700Y-15673300I0J-29600D01*
G01*
X12643300Y-15643700D02*
X13381700Y-15643700D01*
X12613700Y-5428700D02*
X12613700Y-5173300D01*
X12613700Y-5428700D02*
G75*
G03*
X12643300Y-5458300I29600J0D01*
G01*
X12643300Y-5458300D02*
X13381700Y-5458300D01*
X13381700Y-5458300D02*
G75*
G03*
X13411300Y-5428700I0J29600D01*
G01*
X12643300Y-5143700D02*
G75*
G03*
X12613700Y-5173300I0J-29600D01*
G01*
X12643300Y-5143700D02*
X13381700Y-5143700D01*
X13411300Y-5173300D02*
G75*
G03*
X13381700Y-5143700I-29600J0D01*
G01*
X13411300Y-5428700D02*
X13411300Y-5173300D01*
X13381700Y-14458300D02*
G75*
G03*
X13411300Y-14428700I0J29600D01*
G01*
X12643300Y-14458300D02*
X13381700Y-14458300D01*
X12613700Y-14428700D02*
G75*
G03*
X12643300Y-14458300I29600J0D01*
G01*
X12613700Y-9928700D02*
G75*
G03*
X12643300Y-9958300I29600J0D01*
G01*
X13411300Y-11173300D02*
G75*
G03*
X13381700Y-11143700I-29600J0D01*
G01*
X13411300Y-14173300D02*
G75*
G03*
X13381700Y-14143700I-29600J0D01*
G01*
X12613700Y-11428700D02*
X12613700Y-11173300D01*
X12643300Y-6643700D02*
G75*
G03*
X12613700Y-6673300I0J-29600D01*
G01*
X12643300Y-9643700D02*
X13381700Y-9643700D01*
X12643300Y-8143700D02*
G75*
G03*
X12613700Y-8173300I0J-29600D01*
G01*
X12643300Y-11143700D02*
G75*
G03*
X12613700Y-11173300I0J-29600D01*
G01*
X12643300Y-11458300D02*
X13381700Y-11458300D01*
X12613700Y-12928700D02*
X12613700Y-12673300D01*
X13381700Y-6958300D02*
G75*
G03*
X13411300Y-6928700I0J29600D01*
G01*
X12643300Y-8143700D02*
X13381700Y-8143700D01*
X13381700Y-11458300D02*
G75*
G03*
X13411300Y-11428700I0J29600D01*
G01*
X13411300Y-6928700D02*
X13411300Y-6673300D01*
X12613700Y-6928700D02*
X12613700Y-6673300D01*
X13411300Y-14428700D02*
X13411300Y-14173300D01*
X12613700Y-14428700D02*
X12613700Y-14173300D01*
X12643300Y-6643700D02*
X13381700Y-6643700D01*
X12613700Y-8428700D02*
X12613700Y-8173300D01*
X13381700Y-12958300D02*
G75*
G03*
X13411300Y-12928700I0J29600D01*
G01*
X13411300Y-9928700D02*
X13411300Y-9673300D01*
X12613700Y-11428700D02*
G75*
G03*
X12643300Y-11458300I29600J0D01*
G01*
X13411300Y-12673300D02*
G75*
G03*
X13381700Y-12643700I-29600J0D01*
G01*
X13411300Y-9673300D02*
G75*
G03*
X13381700Y-9643700I-29600J0D01*
G01*
X12613700Y-15928700D02*
G75*
G03*
X12643300Y-15958300I29600J0D01*
G01*
X5800000Y-17530000D02*
X5800000Y-3850000D01*
X5800000Y-17530000D02*
G75*
G03*
X5860000Y-17590000I60000J0D01*
G01*
X12613700Y-8428700D02*
G75*
G03*
X12643300Y-8458300I29600J0D01*
G01*
X5860000Y-17590000D02*
X13540000Y-17590000D01*
X12643300Y-8458300D02*
X13381700Y-8458300D01*
X13411300Y-8173300D02*
G75*
G03*
X13381700Y-8143700I-29600J0D01*
G01*
X12643300Y-12643700D02*
G75*
G03*
X12613700Y-12673300I0J-29600D01*
G01*
X13411300Y-12928700D02*
X13411300Y-12673300D01*
X12643300Y-12643700D02*
X13381700Y-12643700D01*
X13411300Y-11428700D02*
X13411300Y-11173300D01*
X13411300Y-8428700D02*
X13411300Y-8173300D01*
X13381700Y-8458300D02*
G75*
G03*
X13411300Y-8428700I0J29600D01*
G01*
X12613700Y-6928700D02*
G75*
G03*
X12643300Y-6958300I29600J0D01*
G01*
X12643300Y-12958300D02*
X13381700Y-12958300D01*
X12643300Y-9958300D02*
X13381700Y-9958300D01*
X12643300Y-14143700D02*
X13381700Y-14143700D01*
X12613700Y-9928700D02*
X12613700Y-9673300D01*
X12613700Y-12928700D02*
G75*
G03*
X12643300Y-12958300I29600J0D01*
G01*
X13411300Y-6673300D02*
G75*
G03*
X13381700Y-6643700I-29600J0D01*
G01*
X13381700Y-9958300D02*
G75*
G03*
X13411300Y-9928700I0J29600D01*
G01*
X12643300Y-14143700D02*
G75*
G03*
X12613700Y-14173300I0J-29600D01*
G01*
X12643300Y-6958300D02*
X13381700Y-6958300D01*
X12613700Y-15928700D02*
X12613700Y-15673300D01*
X12643300Y-9643700D02*
G75*
G03*
X12613700Y-9673300I0J-29600D01*
G01*
X12643300Y-11143700D02*
X13381700Y-11143700D01*
D11*
D12*
X7828020Y-16467320D02*
X7888980Y-16528280D01*
X7888980Y-16467320D02*
X7828020Y-16528280D01*
X7828020Y-16594320D02*
X7888980Y-16655280D01*
X7888980Y-16594320D02*
X7828020Y-16655280D01*
X7828020Y-17127720D02*
X7888980Y-17188680D01*
X7888980Y-17127720D02*
X7828020Y-17188680D01*
X7828020Y-17254720D02*
X7888980Y-17315680D01*
X7888980Y-17254720D02*
X7828020Y-17315680D01*
X7955020Y-16467320D02*
X8015980Y-16528280D01*
X8015980Y-16467320D02*
X7955020Y-16528280D01*
X7955020Y-16594320D02*
X8015980Y-16655280D01*
X8015980Y-16594320D02*
X7955020Y-16655280D01*
X7955020Y-17127720D02*
X8015980Y-17188680D01*
X8015980Y-17127720D02*
X7955020Y-17188680D01*
X7955020Y-17254720D02*
X8015980Y-17315680D01*
X8015980Y-17254720D02*
X7955020Y-17315680D01*
X8082020Y-16467320D02*
X8142980Y-16528280D01*
X8142980Y-16467320D02*
X8082020Y-16528280D01*
X8082020Y-16594320D02*
X8142980Y-16655280D01*
X8142980Y-16594320D02*
X8082020Y-16655280D01*
X8082020Y-17127720D02*
X8142980Y-17188680D01*
X8142980Y-17127720D02*
X8082020Y-17188680D01*
X8082020Y-17254720D02*
X8142980Y-17315680D01*
X8142980Y-17254720D02*
X8082020Y-17315680D01*
X8209020Y-16467320D02*
X8269980Y-16528280D01*
X8269980Y-16467320D02*
X8209020Y-16528280D01*
X8209020Y-16594320D02*
X8269980Y-16655280D01*
X8269980Y-16594320D02*
X8209020Y-16655280D01*
X8209020Y-17127720D02*
X8269980Y-17188680D01*
X8269980Y-17127720D02*
X8209020Y-17188680D01*
X8209020Y-17254720D02*
X8269980Y-17315680D01*
X8269980Y-17254720D02*
X8209020Y-17315680D01*
X8336020Y-16467320D02*
X8396980Y-16528280D01*
X8396980Y-16467320D02*
X8336020Y-16528280D01*
X8336020Y-16594320D02*
X8396980Y-16655280D01*
X8396980Y-16594320D02*
X8336020Y-16655280D01*
X8336020Y-17127720D02*
X8396980Y-17188680D01*
X8396980Y-17127720D02*
X8336020Y-17188680D01*
X8336020Y-17254720D02*
X8396980Y-17315680D01*
X8396980Y-17254720D02*
X8336020Y-17315680D01*
X8463020Y-16467320D02*
X8523980Y-16528280D01*
X8523980Y-16467320D02*
X8463020Y-16528280D01*
X8463020Y-16594320D02*
X8523980Y-16655280D01*
X8523980Y-16594320D02*
X8463020Y-16655280D01*
X8463020Y-17127720D02*
X8523980Y-17188680D01*
X8523980Y-17127720D02*
X8463020Y-17188680D01*
X8463020Y-17254720D02*
X8523980Y-17315680D01*
X8523980Y-17254720D02*
X8463020Y-17315680D01*
X8590020Y-16467320D02*
X8650980Y-16528280D01*
X8650980Y-16467320D02*
X8590020Y-16528280D01*
X8590020Y-16594320D02*
X8650980Y-16655280D01*
X8650980Y-16594320D02*
X8590020Y-16655280D01*
X8590020Y-17127720D02*
X8650980Y-17188680D01*
X8650980Y-17127720D02*
X8590020Y-17188680D01*
X8590020Y-17254720D02*
X8650980Y-17315680D01*
X8650980Y-17254720D02*
X8590020Y-17315680D01*
X8717020Y-16467320D02*
X8777980Y-16528280D01*
X8777980Y-16467320D02*
X8717020Y-16528280D01*
X8717020Y-16594320D02*
X8777980Y-16655280D01*
X8777980Y-16594320D02*
X8717020Y-16655280D01*
X8717020Y-17127720D02*
X8777980Y-17188680D01*
X8777980Y-17127720D02*
X8717020Y-17188680D01*
X8717020Y-17254720D02*
X8777980Y-17315680D01*
X8777980Y-17254720D02*
X8717020Y-17315680D01*
X8844020Y-16467320D02*
X8904980Y-16528280D01*
X8904980Y-16467320D02*
X8844020Y-16528280D01*
X8844020Y-16594320D02*
X8904980Y-16655280D01*
X8904980Y-16594320D02*
X8844020Y-16655280D01*
X8844020Y-17127720D02*
X8904980Y-17188680D01*
X8904980Y-17127720D02*
X8844020Y-17188680D01*
X8844020Y-17254720D02*
X8904980Y-17315680D01*
X8904980Y-17254720D02*
X8844020Y-17315680D01*
X8971020Y-16467320D02*
X9031980Y-16528280D01*
X9031980Y-16467320D02*
X8971020Y-16528280D01*
X8971020Y-16594320D02*
X9031980Y-16655280D01*
X9031980Y-16594320D02*
X8971020Y-16655280D01*
X8971020Y-17127720D02*
X9031980Y-17188680D01*
X9031980Y-17127720D02*
X8971020Y-17188680D01*
X8971020Y-17254720D02*
X9031980Y-17315680D01*
X9031980Y-17254720D02*
X8971020Y-17315680D01*
X9098020Y-16467320D02*
X9158980Y-16528280D01*
X9158980Y-16467320D02*
X9098020Y-16528280D01*
X9098020Y-16594320D02*
X9158980Y-16655280D01*
X9158980Y-16594320D02*
X9098020Y-16655280D01*
X9098020Y-17127720D02*
X9158980Y-17188680D01*
X9158980Y-17127720D02*
X9098020Y-17188680D01*
X9098020Y-17254720D02*
X9158980Y-17315680D01*
X9158980Y-17254720D02*
X9098020Y-17315680D01*
X9225020Y-16467320D02*
X9285980Y-16528280D01*
X9285980Y-16467320D02*
X9225020Y-16528280D01*
X9225020Y-16594320D02*
X9285980Y-16655280D01*
X9285980Y-16594320D02*
X9225020Y-16655280D01*
X9225020Y-17127720D02*
X9285980Y-17188680D01*
X9285980Y-17127720D02*
X9225020Y-17188680D01*
X9225020Y-17254720D02*
X9285980Y-17315680D01*
X9285980Y-17254720D02*
X9225020Y-17315680D01*
X9352020Y-16467320D02*
X9412980Y-16528280D01*
X9412980Y-16467320D02*
X9352020Y-16528280D01*
X9352020Y-16594320D02*
X9412980Y-16655280D01*
X9412980Y-16594320D02*
X9352020Y-16655280D01*
X9352020Y-17127720D02*
X9412980Y-17188680D01*
X9412980Y-17127720D02*
X9352020Y-17188680D01*
X9352020Y-17254720D02*
X9412980Y-17315680D01*
X9412980Y-17254720D02*
X9352020Y-17315680D01*
X9479020Y-16467320D02*
X9539980Y-16528280D01*
X9539980Y-16467320D02*
X9479020Y-16528280D01*
X9479020Y-16594320D02*
X9539980Y-16655280D01*
X9539980Y-16594320D02*
X9479020Y-16655280D01*
X9479020Y-17127720D02*
X9539980Y-17188680D01*
X9539980Y-17127720D02*
X9479020Y-17188680D01*
X9479020Y-17254720D02*
X9539980Y-17315680D01*
X9539980Y-17254720D02*
X9479020Y-17315680D01*
X9606020Y-16467320D02*
X9666980Y-16528280D01*
X9666980Y-16467320D02*
X9606020Y-16528280D01*
X9606020Y-16594320D02*
X9666980Y-16655280D01*
X9666980Y-16594320D02*
X9606020Y-16655280D01*
X9606020Y-17127720D02*
X9666980Y-17188680D01*
X9666980Y-17127720D02*
X9606020Y-17188680D01*
X9606020Y-17254720D02*
X9666980Y-17315680D01*
X9666980Y-17254720D02*
X9606020Y-17315680D01*
X9733020Y-16467320D02*
X9793980Y-16528280D01*
X9793980Y-16467320D02*
X9733020Y-16528280D01*
X9733020Y-16594320D02*
X9793980Y-16655280D01*
X9793980Y-16594320D02*
X9733020Y-16655280D01*
X9733020Y-17127720D02*
X9793980Y-17188680D01*
X9793980Y-17127720D02*
X9733020Y-17188680D01*
X9733020Y-17254720D02*
X9793980Y-17315680D01*
X9793980Y-17254720D02*
X9733020Y-17315680D01*
X9860020Y-16467320D02*
X9920980Y-16528280D01*
X9920980Y-16467320D02*
X9860020Y-16528280D01*
X9860020Y-16594320D02*
X9920980Y-16655280D01*
X9920980Y-16594320D02*
X9860020Y-16655280D01*
X9860020Y-17127720D02*
X9920980Y-17188680D01*
X9920980Y-17127720D02*
X9860020Y-17188680D01*
X9860020Y-17254720D02*
X9920980Y-17315680D01*
X9920980Y-17254720D02*
X9860020Y-17315680D01*
X9987020Y-16467320D02*
X10047980Y-16528280D01*
X10047980Y-16467320D02*
X9987020Y-16528280D01*
X9987020Y-16594320D02*
X10047980Y-16655280D01*
X10047980Y-16594320D02*
X9987020Y-16655280D01*
X9987020Y-17127720D02*
X10047980Y-17188680D01*
X10047980Y-17127720D02*
X9987020Y-17188680D01*
X9987020Y-17254720D02*
X10047980Y-17315680D01*
X10047980Y-17254720D02*
X9987020Y-17315680D01*
X10114020Y-16467320D02*
X10174980Y-16528280D01*
X10174980Y-16467320D02*
X10114020Y-16528280D01*
X10114020Y-16594320D02*
X10174980Y-16655280D01*
X10174980Y-16594320D02*
X10114020Y-16655280D01*
X10114020Y-17127720D02*
X10174980Y-17188680D01*
X10174980Y-17127720D02*
X10114020Y-17188680D01*
X10114020Y-17254720D02*
X10174980Y-17315680D01*
X10174980Y-17254720D02*
X10114020Y-17315680D01*
X10241020Y-16467320D02*
X10301980Y-16528280D01*
X10301980Y-16467320D02*
X10241020Y-16528280D01*
X10241020Y-16594320D02*
X10301980Y-16655280D01*
X10301980Y-16594320D02*
X10241020Y-16655280D01*
X10241020Y-17127720D02*
X10301980Y-17188680D01*
X10301980Y-17127720D02*
X10241020Y-17188680D01*
X10241020Y-17254720D02*
X10301980Y-17315680D01*
X10301980Y-17254720D02*
X10241020Y-17315680D01*
X10368020Y-16467320D02*
X10428980Y-16528280D01*
X10428980Y-16467320D02*
X10368020Y-16528280D01*
X10368020Y-16594320D02*
X10428980Y-16655280D01*
X10428980Y-16594320D02*
X10368020Y-16655280D01*
X10368020Y-17127720D02*
X10428980Y-17188680D01*
X10428980Y-17127720D02*
X10368020Y-17188680D01*
X10368020Y-17254720D02*
X10428980Y-17315680D01*
X10428980Y-17254720D02*
X10368020Y-17315680D01*
X10495020Y-16467320D02*
X10555980Y-16528280D01*
X10555980Y-16467320D02*
X10495020Y-16528280D01*
X10495020Y-16594320D02*
X10555980Y-16655280D01*
X10555980Y-16594320D02*
X10495020Y-16655280D01*
X10495020Y-17127720D02*
X10555980Y-17188680D01*
X10555980Y-17127720D02*
X10495020Y-17188680D01*
X10495020Y-17254720D02*
X10555980Y-17315680D01*
X10555980Y-17254720D02*
X10495020Y-17315680D01*
X10622020Y-16467320D02*
X10682980Y-16528280D01*
X10682980Y-16467320D02*
X10622020Y-16528280D01*
X10622020Y-16594320D02*
X10682980Y-16655280D01*
X10682980Y-16594320D02*
X10622020Y-16655280D01*
X10622020Y-17127720D02*
X10682980Y-17188680D01*
X10682980Y-17127720D02*
X10622020Y-17188680D01*
X10622020Y-17254720D02*
X10682980Y-17315680D01*
X10682980Y-17254720D02*
X10622020Y-17315680D01*
X10749020Y-16467320D02*
X10809980Y-16528280D01*
X10809980Y-16467320D02*
X10749020Y-16528280D01*
X10749020Y-16594320D02*
X10809980Y-16655280D01*
X10809980Y-16594320D02*
X10749020Y-16655280D01*
X10749020Y-17127720D02*
X10809980Y-17188680D01*
X10809980Y-17127720D02*
X10749020Y-17188680D01*
X10749020Y-17254720D02*
X10809980Y-17315680D01*
X10809980Y-17254720D02*
X10749020Y-17315680D01*
X10876020Y-16467320D02*
X10936980Y-16528280D01*
X10936980Y-16467320D02*
X10876020Y-16528280D01*
X10876020Y-16594320D02*
X10936980Y-16655280D01*
X10936980Y-16594320D02*
X10876020Y-16655280D01*
X10876020Y-17127720D02*
X10936980Y-17188680D01*
X10936980Y-17127720D02*
X10876020Y-17188680D01*
X10876020Y-17254720D02*
X10936980Y-17315680D01*
X10936980Y-17254720D02*
X10876020Y-17315680D01*
X11003020Y-16467320D02*
X11063980Y-16528280D01*
X11063980Y-16467320D02*
X11003020Y-16528280D01*
X11003020Y-16594320D02*
X11063980Y-16655280D01*
X11063980Y-16594320D02*
X11003020Y-16655280D01*
X11003020Y-17127720D02*
X11063980Y-17188680D01*
X11063980Y-17127720D02*
X11003020Y-17188680D01*
X11003020Y-17254720D02*
X11063980Y-17315680D01*
X11063980Y-17254720D02*
X11003020Y-17315680D01*
X11130020Y-16467320D02*
X11190980Y-16528280D01*
X11190980Y-16467320D02*
X11130020Y-16528280D01*
X11130020Y-16594320D02*
X11190980Y-16655280D01*
X11190980Y-16594320D02*
X11130020Y-16655280D01*
X11130020Y-17127720D02*
X11190980Y-17188680D01*
X11190980Y-17127720D02*
X11130020Y-17188680D01*
X11130020Y-17254720D02*
X11190980Y-17315680D01*
X11190980Y-17254720D02*
X11130020Y-17315680D01*
X11257020Y-16467320D02*
X11317980Y-16528280D01*
X11317980Y-16467320D02*
X11257020Y-16528280D01*
X11257020Y-16594320D02*
X11317980Y-16655280D01*
X11317980Y-16594320D02*
X11257020Y-16655280D01*
X11257020Y-17127720D02*
X11317980Y-17188680D01*
X11317980Y-17127720D02*
X11257020Y-17188680D01*
X11257020Y-17254720D02*
X11317980Y-17315680D01*
X11317980Y-17254720D02*
X11257020Y-17315680D01*
X11384020Y-16467320D02*
X11444980Y-16528280D01*
X11444980Y-16467320D02*
X11384020Y-16528280D01*
X11384020Y-16594320D02*
X11444980Y-16655280D01*
X11444980Y-16594320D02*
X11384020Y-16655280D01*
X11384020Y-17127720D02*
X11444980Y-17188680D01*
X11444980Y-17127720D02*
X11384020Y-17188680D01*
X11384020Y-17254720D02*
X11444980Y-17315680D01*
X11444980Y-17254720D02*
X11384020Y-17315680D01*
X11511020Y-16467320D02*
X11571980Y-16528280D01*
X11571980Y-16467320D02*
X11511020Y-16528280D01*
X11511020Y-16594320D02*
X11571980Y-16655280D01*
X11571980Y-16594320D02*
X11511020Y-16655280D01*
X11511020Y-17127720D02*
X11571980Y-17188680D01*
X11571980Y-17127720D02*
X11511020Y-17188680D01*
X11511020Y-17254720D02*
X11571980Y-17315680D01*
X11571980Y-17254720D02*
X11511020Y-17315680D01*
D13*
X7959000Y-16561300D02*
G75*
G03*
X7959000Y-16561300I-37000J0D01*
G01*
X7959000Y-17221700D02*
G75*
G03*
X7959000Y-17221700I-37000J0D01*
G01*
X11515000Y-16561300D02*
G75*
G03*
X11515000Y-16561300I-37000J0D01*
G01*
X11515000Y-17221700D02*
G75*
G03*
X11515000Y-17221700I-37000J0D01*
G01*
D14*
X6007000Y-5150000D02*
X6007000Y-5250000D01*
X5957000Y-5200000D02*
X6057000Y-5200000D01*
X6007000Y-6650000D02*
X6007000Y-6750000D01*
X5957000Y-6700000D02*
X6057000Y-6700000D01*
X6007000Y-8150000D02*
X6007000Y-8250000D01*
X5957000Y-8200000D02*
X6057000Y-8200000D01*
X6007000Y-9650000D02*
X6007000Y-9750000D01*
X5957000Y-9700000D02*
X6057000Y-9700000D01*
X6007000Y-11150000D02*
X6007000Y-11250000D01*
X5957000Y-11200000D02*
X6057000Y-11200000D01*
X6007000Y-12650000D02*
X6007000Y-12750000D01*
X5957000Y-12700000D02*
X6057000Y-12700000D01*
X6007000Y-14150000D02*
X6007000Y-14250000D01*
X5957000Y-14200000D02*
X6057000Y-14200000D01*
X6007001Y-15649999D02*
X6007001Y-15749999D01*
X5957001Y-15699999D02*
X6057001Y-15699999D01*
X6147000Y-4930000D02*
X6147000Y-5030000D01*
X6097000Y-4980000D02*
X6197000Y-4980000D01*
X6147000Y-6430000D02*
X6147000Y-6530000D01*
X6097000Y-6480000D02*
X6197000Y-6480000D01*
X6147000Y-7930000D02*
X6147000Y-8030000D01*
X6097000Y-7980000D02*
X6197000Y-7980000D01*
X6147000Y-9430000D02*
X6147000Y-9530000D01*
X6097000Y-9480000D02*
X6197000Y-9480000D01*
X6147000Y-10930000D02*
X6147000Y-11030000D01*
X6097000Y-10980000D02*
X6197000Y-10980000D01*
X6147000Y-12430000D02*
X6147000Y-12530000D01*
X6097000Y-12480000D02*
X6197000Y-12480000D01*
X6147000Y-13930000D02*
X6147000Y-14030000D01*
X6097000Y-13980000D02*
X6197000Y-13980000D01*
X6147001Y-15429999D02*
X6147001Y-15529999D01*
X6097001Y-15479999D02*
X6197001Y-15479999D01*
X6387000Y-5150000D02*
X6387000Y-5250000D01*
X6337000Y-5200000D02*
X6437000Y-5200000D01*
X6387000Y-6650000D02*
X6387000Y-6750000D01*
X6337000Y-6700000D02*
X6437000Y-6700000D01*
X6387000Y-8150000D02*
X6387000Y-8250000D01*
X6337000Y-8200000D02*
X6437000Y-8200000D01*
X6387000Y-9650000D02*
X6387000Y-9750000D01*
X6337000Y-9700000D02*
X6437000Y-9700000D01*
X6387000Y-11150000D02*
X6387000Y-11250000D01*
X6337000Y-11200000D02*
X6437000Y-11200000D01*
X6387000Y-12650000D02*
X6387000Y-12750000D01*
X6337000Y-12700000D02*
X6437000Y-12700000D01*
X6387000Y-14150000D02*
X6387000Y-14250000D01*
X6337000Y-14200000D02*
X6437000Y-14200000D01*
X6387001Y-15649999D02*
X6387001Y-15749999D01*
X6337001Y-15699999D02*
X6437001Y-15699999D01*
X6767000Y-5150000D02*
X6767000Y-5250000D01*
X6717000Y-5200000D02*
X6817000Y-5200000D01*
X6767000Y-6650000D02*
X6767000Y-6750000D01*
X6717000Y-6700000D02*
X6817000Y-6700000D01*
X6767000Y-8150000D02*
X6767000Y-8250000D01*
X6717000Y-8200000D02*
X6817000Y-8200000D01*
X6767000Y-9650000D02*
X6767000Y-9750000D01*
X6717000Y-9700000D02*
X6817000Y-9700000D01*
X6767000Y-11150000D02*
X6767000Y-11250000D01*
X6717000Y-11200000D02*
X6817000Y-11200000D01*
X6767000Y-12650000D02*
X6767000Y-12750000D01*
X6717000Y-12700000D02*
X6817000Y-12700000D01*
X6767000Y-14150000D02*
X6767000Y-14250000D01*
X6717000Y-14200000D02*
X6817000Y-14200000D01*
X6767001Y-15649999D02*
X6767001Y-15749999D01*
X6717001Y-15699999D02*
X6817001Y-15699999D01*
D15*
X7074902Y-5284902D02*
X7074902Y-5195098D01*
X6985098Y-5195098D01*
X6985098Y-5284902D01*
X7074902Y-5284902D01*
X7074902Y-6784902D02*
X7074902Y-6695098D01*
X6985098Y-6695098D01*
X6985098Y-6784902D01*
X7074902Y-6784902D01*
X7074902Y-8284902D02*
X7074902Y-8195098D01*
X6985098Y-8195098D01*
X6985098Y-8284902D01*
X7074902Y-8284902D01*
X7074902Y-9784902D02*
X7074902Y-9695098D01*
X6985098Y-9695098D01*
X6985098Y-9784902D01*
X7074902Y-9784902D01*
X7074902Y-11284902D02*
X7074902Y-11195098D01*
X6985098Y-11195098D01*
X6985098Y-11284902D01*
X7074902Y-11284902D01*
X7074902Y-12784902D02*
X7074902Y-12695098D01*
X6985098Y-12695098D01*
X6985098Y-12784902D01*
X7074902Y-12784902D01*
X7074902Y-14284902D02*
X7074902Y-14195098D01*
X6985098Y-14195098D01*
X6985098Y-14284902D01*
X7074902Y-14284902D01*
X7074903Y-15784901D02*
X7074903Y-15695098D01*
X6985099Y-15695098D01*
X6985099Y-15784901D01*
X7074903Y-15784901D01*
X12414902Y-5134902D02*
X12414902Y-5045098D01*
X12325098Y-5045098D01*
X12325098Y-5134902D01*
X12414902Y-5134902D01*
X12414902Y-6634902D02*
X12414902Y-6545098D01*
X12325098Y-6545098D01*
X12325098Y-6634902D01*
X12414902Y-6634902D01*
X12414902Y-8134902D02*
X12414902Y-8045098D01*
X12325098Y-8045098D01*
X12325098Y-8134902D01*
X12414902Y-8134902D01*
X12414902Y-9634902D02*
X12414902Y-9545098D01*
X12325098Y-9545098D01*
X12325098Y-9634902D01*
X12414902Y-9634902D01*
X12414902Y-11134902D02*
X12414902Y-11045098D01*
X12325098Y-11045098D01*
X12325098Y-11134902D01*
X12414902Y-11134902D01*
X12414902Y-12634902D02*
X12414902Y-12545098D01*
X12325098Y-12545098D01*
X12325098Y-12634902D01*
X12414902Y-12634902D01*
X12414902Y-14134902D02*
X12414902Y-14045098D01*
X12325098Y-14045098D01*
X12325098Y-14134902D01*
X12414902Y-14134902D01*
X12414903Y-15634901D02*
X12414903Y-15545098D01*
X12325099Y-15545098D01*
X12325099Y-15634901D01*
X12414903Y-15634901D01*
D16*
X6577000Y-5016000D02*
X6652000Y-4941000D01*
X6577000Y-4866000D01*
X6502000Y-4941000D01*
X6577000Y-5016000D01*
X6577000Y-6516000D02*
X6652000Y-6441000D01*
X6577000Y-6366000D01*
X6502000Y-6441000D01*
X6577000Y-6516000D01*
X6577000Y-8016000D02*
X6652000Y-7941000D01*
X6577000Y-7866000D01*
X6502000Y-7941000D01*
X6577000Y-8016000D01*
X6577000Y-9516000D02*
X6652000Y-9441000D01*
X6577000Y-9366000D01*
X6502000Y-9441000D01*
X6577000Y-9516000D01*
X6577000Y-11016000D02*
X6652000Y-10941000D01*
X6577000Y-10866000D01*
X6502000Y-10941000D01*
X6577000Y-11016000D01*
X6577000Y-12516000D02*
X6652000Y-12441000D01*
X6577000Y-12366000D01*
X6502000Y-12441000D01*
X6577000Y-12516000D01*
X6577000Y-14016000D02*
X6652000Y-13941000D01*
X6577000Y-13866000D01*
X6502000Y-13941000D01*
X6577000Y-14016000D01*
X6577001Y-15515999D02*
X6652001Y-15440999D01*
X6577001Y-15365999D01*
X6502001Y-15440999D01*
X6577001Y-15515999D01*
D11*
X6045119Y-17905024D02*
X6045119Y-17705024D01*
X6045119Y-17705024D02*
X6092738Y-17705024D01*
X6092738Y-17705024D02*
X6121309Y-17714548D01*
X6121309Y-17714548D02*
X6140357Y-17733595D01*
X6140357Y-17733595D02*
X6149881Y-17752643D01*
X6149881Y-17752643D02*
X6159405Y-17790738D01*
X6159405Y-17790738D02*
X6159405Y-17819310D01*
X6159405Y-17819310D02*
X6149881Y-17857405D01*
X6149881Y-17857405D02*
X6140357Y-17876452D01*
X6140357Y-17876452D02*
X6121309Y-17895500D01*
X6121309Y-17895500D02*
X6092738Y-17905024D01*
X6092738Y-17905024D02*
X6045119Y-17905024D01*
X6245119Y-17905024D02*
X6245119Y-17771690D01*
X6245119Y-17809786D02*
X6254643Y-17790738D01*
X6254643Y-17790738D02*
X6264167Y-17781214D01*
X6264167Y-17781214D02*
X6283214Y-17771690D01*
X6283214Y-17771690D02*
X6302262Y-17771690D01*
X6368928Y-17905024D02*
X6368928Y-17771690D01*
X6368928Y-17705024D02*
X6359405Y-17714548D01*
X6359405Y-17714548D02*
X6368928Y-17724071D01*
X6368928Y-17724071D02*
X6378452Y-17714548D01*
X6378452Y-17714548D02*
X6368928Y-17705024D01*
X6368928Y-17705024D02*
X6368928Y-17724071D01*
X6492738Y-17905024D02*
X6473690Y-17895500D01*
X6473690Y-17895500D02*
X6464167Y-17876452D01*
X6464167Y-17876452D02*
X6464167Y-17705024D01*
X6597500Y-17905024D02*
X6578452Y-17895500D01*
X6578452Y-17895500D02*
X6568928Y-17876452D01*
X6568928Y-17876452D02*
X6568928Y-17705024D01*
X6826071Y-17905024D02*
X6826071Y-17705024D01*
X6826071Y-17705024D02*
X6892738Y-17847881D01*
X6892738Y-17847881D02*
X6959405Y-17705024D01*
X6959405Y-17705024D02*
X6959405Y-17905024D01*
X7140357Y-17905024D02*
X7140357Y-17800262D01*
X7140357Y-17800262D02*
X7130833Y-17781214D01*
X7130833Y-17781214D02*
X7111786Y-17771690D01*
X7111786Y-17771690D02*
X7073690Y-17771690D01*
X7073690Y-17771690D02*
X7054643Y-17781214D01*
X7140357Y-17895500D02*
X7121309Y-17905024D01*
X7121309Y-17905024D02*
X7073690Y-17905024D01*
X7073690Y-17905024D02*
X7054643Y-17895500D01*
X7054643Y-17895500D02*
X7045119Y-17876452D01*
X7045119Y-17876452D02*
X7045119Y-17857405D01*
X7045119Y-17857405D02*
X7054643Y-17838357D01*
X7054643Y-17838357D02*
X7073690Y-17828833D01*
X7073690Y-17828833D02*
X7121309Y-17828833D01*
X7121309Y-17828833D02*
X7140357Y-17819310D01*
X7235595Y-17771690D02*
X7235595Y-17971690D01*
X7235595Y-17781214D02*
X7254643Y-17771690D01*
X7254643Y-17771690D02*
X7292738Y-17771690D01*
X7292738Y-17771690D02*
X7311786Y-17781214D01*
X7311786Y-17781214D02*
X7321309Y-17790738D01*
X7321309Y-17790738D02*
X7330833Y-17809786D01*
X7330833Y-17809786D02*
X7330833Y-17866929D01*
X7330833Y-17866929D02*
X7321309Y-17885976D01*
X7321309Y-17885976D02*
X7311786Y-17895500D01*
X7311786Y-17895500D02*
X7292738Y-17905024D01*
X7292738Y-17905024D02*
X7254643Y-17905024D01*
X7254643Y-17905024D02*
X7235595Y-17895500D01*
X7416548Y-17885976D02*
X7426071Y-17895500D01*
X7426071Y-17895500D02*
X7416548Y-17905024D01*
X7416548Y-17905024D02*
X7407024Y-17895500D01*
X7407024Y-17895500D02*
X7416548Y-17885976D01*
X7416548Y-17885976D02*
X7416548Y-17905024D01*
X7416548Y-17781214D02*
X7426071Y-17790738D01*
X7426071Y-17790738D02*
X7416548Y-17800262D01*
X7416548Y-17800262D02*
X7407024Y-17790738D01*
X7407024Y-17790738D02*
X7416548Y-17781214D01*
X7416548Y-17781214D02*
X7416548Y-17800262D01*
D12*
X5736540Y-18202020D02*
X5797500Y-18262980D01*
X5797500Y-18202020D02*
X5736540Y-18262980D01*
D11*
X6083214Y-18125024D02*
X6102262Y-18125024D01*
X6102262Y-18125024D02*
X6121309Y-18134548D01*
X6121309Y-18134548D02*
X6130833Y-18144071D01*
X6130833Y-18144071D02*
X6140357Y-18163119D01*
X6140357Y-18163119D02*
X6149881Y-18201214D01*
X6149881Y-18201214D02*
X6149881Y-18248833D01*
X6149881Y-18248833D02*
X6140357Y-18286929D01*
X6140357Y-18286929D02*
X6130833Y-18305976D01*
X6130833Y-18305976D02*
X6121309Y-18315500D01*
X6121309Y-18315500D02*
X6102262Y-18325024D01*
X6102262Y-18325024D02*
X6083214Y-18325024D01*
X6083214Y-18325024D02*
X6064167Y-18315500D01*
X6064167Y-18315500D02*
X6054643Y-18305976D01*
X6054643Y-18305976D02*
X6045119Y-18286929D01*
X6045119Y-18286929D02*
X6035595Y-18248833D01*
X6035595Y-18248833D02*
X6035595Y-18201214D01*
X6035595Y-18201214D02*
X6045119Y-18163119D01*
X6045119Y-18163119D02*
X6054643Y-18144071D01*
X6054643Y-18144071D02*
X6064167Y-18134548D01*
X6064167Y-18134548D02*
X6083214Y-18125024D01*
X6235595Y-18305976D02*
X6245119Y-18315500D01*
X6245119Y-18315500D02*
X6235595Y-18325024D01*
X6235595Y-18325024D02*
X6226071Y-18315500D01*
X6226071Y-18315500D02*
X6235595Y-18305976D01*
X6235595Y-18305976D02*
X6235595Y-18325024D01*
X6416548Y-18125024D02*
X6378452Y-18125024D01*
X6378452Y-18125024D02*
X6359405Y-18134548D01*
X6359405Y-18134548D02*
X6349881Y-18144071D01*
X6349881Y-18144071D02*
X6330833Y-18172643D01*
X6330833Y-18172643D02*
X6321309Y-18210738D01*
X6321309Y-18210738D02*
X6321309Y-18286929D01*
X6321309Y-18286929D02*
X6330833Y-18305976D01*
X6330833Y-18305976D02*
X6340357Y-18315500D01*
X6340357Y-18315500D02*
X6359405Y-18325024D01*
X6359405Y-18325024D02*
X6397500Y-18325024D01*
X6397500Y-18325024D02*
X6416548Y-18315500D01*
X6416548Y-18315500D02*
X6426071Y-18305976D01*
X6426071Y-18305976D02*
X6435595Y-18286929D01*
X6435595Y-18286929D02*
X6435595Y-18239310D01*
X6435595Y-18239310D02*
X6426071Y-18220262D01*
X6426071Y-18220262D02*
X6416548Y-18210738D01*
X6416548Y-18210738D02*
X6397500Y-18201214D01*
X6397500Y-18201214D02*
X6359405Y-18201214D01*
X6359405Y-18201214D02*
X6340357Y-18210738D01*
X6340357Y-18210738D02*
X6330833Y-18220262D01*
X6330833Y-18220262D02*
X6321309Y-18239310D01*
X6626071Y-18325024D02*
X6511786Y-18325024D01*
X6568928Y-18325024D02*
X6568928Y-18125024D01*
X6568928Y-18125024D02*
X6549881Y-18153595D01*
X6549881Y-18153595D02*
X6530833Y-18172643D01*
X6530833Y-18172643D02*
X6511786Y-18182167D01*
X6749881Y-18125024D02*
X6768929Y-18125024D01*
X6768929Y-18125024D02*
X6787976Y-18134548D01*
X6787976Y-18134548D02*
X6797500Y-18144071D01*
X6797500Y-18144071D02*
X6807024Y-18163119D01*
X6807024Y-18163119D02*
X6816548Y-18201214D01*
X6816548Y-18201214D02*
X6816548Y-18248833D01*
X6816548Y-18248833D02*
X6807024Y-18286929D01*
X6807024Y-18286929D02*
X6797500Y-18305976D01*
X6797500Y-18305976D02*
X6787976Y-18315500D01*
X6787976Y-18315500D02*
X6768929Y-18325024D01*
X6768929Y-18325024D02*
X6749881Y-18325024D01*
X6749881Y-18325024D02*
X6730833Y-18315500D01*
X6730833Y-18315500D02*
X6721309Y-18305976D01*
X6721309Y-18305976D02*
X6711786Y-18286929D01*
X6711786Y-18286929D02*
X6702262Y-18248833D01*
X6702262Y-18248833D02*
X6702262Y-18201214D01*
X6702262Y-18201214D02*
X6711786Y-18163119D01*
X6711786Y-18163119D02*
X6721309Y-18144071D01*
X6721309Y-18144071D02*
X6730833Y-18134548D01*
X6730833Y-18134548D02*
X6749881Y-18125024D01*
X6902262Y-18325024D02*
X6902262Y-18191690D01*
X6902262Y-18210738D02*
X6911786Y-18201214D01*
X6911786Y-18201214D02*
X6930833Y-18191690D01*
X6930833Y-18191690D02*
X6959405Y-18191690D01*
X6959405Y-18191690D02*
X6978452Y-18201214D01*
X6978452Y-18201214D02*
X6987976Y-18220262D01*
X6987976Y-18220262D02*
X6987976Y-18325024D01*
X6987976Y-18220262D02*
X6997500Y-18201214D01*
X6997500Y-18201214D02*
X7016548Y-18191690D01*
X7016548Y-18191690D02*
X7045119Y-18191690D01*
X7045119Y-18191690D02*
X7064167Y-18201214D01*
X7064167Y-18201214D02*
X7073690Y-18220262D01*
X7073690Y-18220262D02*
X7073690Y-18325024D01*
X7168929Y-18325024D02*
X7168929Y-18191690D01*
X7168929Y-18210738D02*
X7178452Y-18201214D01*
X7178452Y-18201214D02*
X7197500Y-18191690D01*
X7197500Y-18191690D02*
X7226071Y-18191690D01*
X7226071Y-18191690D02*
X7245119Y-18201214D01*
X7245119Y-18201214D02*
X7254643Y-18220262D01*
X7254643Y-18220262D02*
X7254643Y-18325024D01*
X7254643Y-18220262D02*
X7264167Y-18201214D01*
X7264167Y-18201214D02*
X7283214Y-18191690D01*
X7283214Y-18191690D02*
X7311786Y-18191690D01*
X7311786Y-18191690D02*
X7330833Y-18201214D01*
X7330833Y-18201214D02*
X7340357Y-18220262D01*
X7340357Y-18220262D02*
X7340357Y-18325024D01*
X7730833Y-18115500D02*
X7559405Y-18372643D01*
X7987976Y-18125024D02*
X8007024Y-18125024D01*
X8007024Y-18125024D02*
X8026072Y-18134548D01*
X8026072Y-18134548D02*
X8035595Y-18144071D01*
X8035595Y-18144071D02*
X8045119Y-18163119D01*
X8045119Y-18163119D02*
X8054643Y-18201214D01*
X8054643Y-18201214D02*
X8054643Y-18248833D01*
X8054643Y-18248833D02*
X8045119Y-18286929D01*
X8045119Y-18286929D02*
X8035595Y-18305976D01*
X8035595Y-18305976D02*
X8026072Y-18315500D01*
X8026072Y-18315500D02*
X8007024Y-18325024D01*
X8007024Y-18325024D02*
X7987976Y-18325024D01*
X7987976Y-18325024D02*
X7968929Y-18315500D01*
X7968929Y-18315500D02*
X7959405Y-18305976D01*
X7959405Y-18305976D02*
X7949881Y-18286929D01*
X7949881Y-18286929D02*
X7940357Y-18248833D01*
X7940357Y-18248833D02*
X7940357Y-18201214D01*
X7940357Y-18201214D02*
X7949881Y-18163119D01*
X7949881Y-18163119D02*
X7959405Y-18144071D01*
X7959405Y-18144071D02*
X7968929Y-18134548D01*
X7968929Y-18134548D02*
X7987976Y-18125024D01*
X8140357Y-18305976D02*
X8149881Y-18315500D01*
X8149881Y-18315500D02*
X8140357Y-18325024D01*
X8140357Y-18325024D02*
X8130833Y-18315500D01*
X8130833Y-18315500D02*
X8140357Y-18305976D01*
X8140357Y-18305976D02*
X8140357Y-18325024D01*
X8273691Y-18125024D02*
X8292738Y-18125024D01*
X8292738Y-18125024D02*
X8311786Y-18134548D01*
X8311786Y-18134548D02*
X8321310Y-18144071D01*
X8321310Y-18144071D02*
X8330833Y-18163119D01*
X8330833Y-18163119D02*
X8340357Y-18201214D01*
X8340357Y-18201214D02*
X8340357Y-18248833D01*
X8340357Y-18248833D02*
X8330833Y-18286929D01*
X8330833Y-18286929D02*
X8321310Y-18305976D01*
X8321310Y-18305976D02*
X8311786Y-18315500D01*
X8311786Y-18315500D02*
X8292738Y-18325024D01*
X8292738Y-18325024D02*
X8273691Y-18325024D01*
X8273691Y-18325024D02*
X8254643Y-18315500D01*
X8254643Y-18315500D02*
X8245119Y-18305976D01*
X8245119Y-18305976D02*
X8235595Y-18286929D01*
X8235595Y-18286929D02*
X8226072Y-18248833D01*
X8226072Y-18248833D02*
X8226072Y-18201214D01*
X8226072Y-18201214D02*
X8235595Y-18163119D01*
X8235595Y-18163119D02*
X8245119Y-18144071D01*
X8245119Y-18144071D02*
X8254643Y-18134548D01*
X8254643Y-18134548D02*
X8273691Y-18125024D01*
X8416548Y-18144071D02*
X8426072Y-18134548D01*
X8426072Y-18134548D02*
X8445119Y-18125024D01*
X8445119Y-18125024D02*
X8492738Y-18125024D01*
X8492738Y-18125024D02*
X8511786Y-18134548D01*
X8511786Y-18134548D02*
X8521310Y-18144071D01*
X8521310Y-18144071D02*
X8530834Y-18163119D01*
X8530834Y-18163119D02*
X8530834Y-18182167D01*
X8530834Y-18182167D02*
X8521310Y-18210738D01*
X8521310Y-18210738D02*
X8407024Y-18325024D01*
X8407024Y-18325024D02*
X8530834Y-18325024D01*
X8702262Y-18191690D02*
X8702262Y-18325024D01*
X8654643Y-18115500D02*
X8607024Y-18258357D01*
X8607024Y-18258357D02*
X8730834Y-18258357D01*
X8845119Y-18125024D02*
X8864167Y-18125024D01*
X8864167Y-18125024D02*
X8883215Y-18134548D01*
X8883215Y-18134548D02*
X8892738Y-18144071D01*
X8892738Y-18144071D02*
X8902262Y-18163119D01*
X8902262Y-18163119D02*
X8911786Y-18201214D01*
X8911786Y-18201214D02*
X8911786Y-18248833D01*
X8911786Y-18248833D02*
X8902262Y-18286929D01*
X8902262Y-18286929D02*
X8892738Y-18305976D01*
X8892738Y-18305976D02*
X8883215Y-18315500D01*
X8883215Y-18315500D02*
X8864167Y-18325024D01*
X8864167Y-18325024D02*
X8845119Y-18325024D01*
X8845119Y-18325024D02*
X8826072Y-18315500D01*
X8826072Y-18315500D02*
X8816548Y-18305976D01*
X8816548Y-18305976D02*
X8807024Y-18286929D01*
X8807024Y-18286929D02*
X8797500Y-18248833D01*
X8797500Y-18248833D02*
X8797500Y-18201214D01*
X8797500Y-18201214D02*
X8807024Y-18163119D01*
X8807024Y-18163119D02*
X8816548Y-18144071D01*
X8816548Y-18144071D02*
X8826072Y-18134548D01*
X8826072Y-18134548D02*
X8845119Y-18125024D01*
X8987976Y-18125024D02*
X8987976Y-18163119D01*
X9064167Y-18125024D02*
X9064167Y-18163119D01*
X9359405Y-18401214D02*
X9349881Y-18391690D01*
X9349881Y-18391690D02*
X9330834Y-18363119D01*
X9330834Y-18363119D02*
X9321310Y-18344071D01*
X9321310Y-18344071D02*
X9311786Y-18315500D01*
X9311786Y-18315500D02*
X9302262Y-18267881D01*
X9302262Y-18267881D02*
X9302262Y-18229786D01*
X9302262Y-18229786D02*
X9311786Y-18182167D01*
X9311786Y-18182167D02*
X9321310Y-18153595D01*
X9321310Y-18153595D02*
X9330834Y-18134548D01*
X9330834Y-18134548D02*
X9349881Y-18105976D01*
X9349881Y-18105976D02*
X9359405Y-18096452D01*
X9540357Y-18325024D02*
X9426072Y-18325024D01*
X9483215Y-18325024D02*
X9483215Y-18125024D01*
X9483215Y-18125024D02*
X9464167Y-18153595D01*
X9464167Y-18153595D02*
X9445119Y-18172643D01*
X9445119Y-18172643D02*
X9426072Y-18182167D01*
X9616548Y-18144071D02*
X9626072Y-18134548D01*
X9626072Y-18134548D02*
X9645119Y-18125024D01*
X9645119Y-18125024D02*
X9692738Y-18125024D01*
X9692738Y-18125024D02*
X9711786Y-18134548D01*
X9711786Y-18134548D02*
X9721310Y-18144071D01*
X9721310Y-18144071D02*
X9730834Y-18163119D01*
X9730834Y-18163119D02*
X9730834Y-18182167D01*
X9730834Y-18182167D02*
X9721310Y-18210738D01*
X9721310Y-18210738D02*
X9607024Y-18325024D01*
X9607024Y-18325024D02*
X9730834Y-18325024D01*
X9854643Y-18125024D02*
X9873691Y-18125024D01*
X9873691Y-18125024D02*
X9892738Y-18134548D01*
X9892738Y-18134548D02*
X9902262Y-18144071D01*
X9902262Y-18144071D02*
X9911786Y-18163119D01*
X9911786Y-18163119D02*
X9921310Y-18201214D01*
X9921310Y-18201214D02*
X9921310Y-18248833D01*
X9921310Y-18248833D02*
X9911786Y-18286929D01*
X9911786Y-18286929D02*
X9902262Y-18305976D01*
X9902262Y-18305976D02*
X9892738Y-18315500D01*
X9892738Y-18315500D02*
X9873691Y-18325024D01*
X9873691Y-18325024D02*
X9854643Y-18325024D01*
X9854643Y-18325024D02*
X9835596Y-18315500D01*
X9835596Y-18315500D02*
X9826072Y-18305976D01*
X9826072Y-18305976D02*
X9816548Y-18286929D01*
X9816548Y-18286929D02*
X9807024Y-18248833D01*
X9807024Y-18248833D02*
X9807024Y-18201214D01*
X9807024Y-18201214D02*
X9816548Y-18163119D01*
X9816548Y-18163119D02*
X9826072Y-18144071D01*
X9826072Y-18144071D02*
X9835596Y-18134548D01*
X9835596Y-18134548D02*
X9854643Y-18125024D01*
X10159405Y-18325024D02*
X10159405Y-18125024D01*
X10245119Y-18325024D02*
X10245119Y-18220262D01*
X10245119Y-18220262D02*
X10235596Y-18201214D01*
X10235596Y-18201214D02*
X10216548Y-18191690D01*
X10216548Y-18191690D02*
X10187977Y-18191690D01*
X10187977Y-18191690D02*
X10168929Y-18201214D01*
X10168929Y-18201214D02*
X10159405Y-18210738D01*
X10368929Y-18325024D02*
X10349881Y-18315500D01*
X10349881Y-18315500D02*
X10340358Y-18305976D01*
X10340358Y-18305976D02*
X10330834Y-18286929D01*
X10330834Y-18286929D02*
X10330834Y-18229786D01*
X10330834Y-18229786D02*
X10340358Y-18210738D01*
X10340358Y-18210738D02*
X10349881Y-18201214D01*
X10349881Y-18201214D02*
X10368929Y-18191690D01*
X10368929Y-18191690D02*
X10397500Y-18191690D01*
X10397500Y-18191690D02*
X10416548Y-18201214D01*
X10416548Y-18201214D02*
X10426072Y-18210738D01*
X10426072Y-18210738D02*
X10435596Y-18229786D01*
X10435596Y-18229786D02*
X10435596Y-18286929D01*
X10435596Y-18286929D02*
X10426072Y-18305976D01*
X10426072Y-18305976D02*
X10416548Y-18315500D01*
X10416548Y-18315500D02*
X10397500Y-18325024D01*
X10397500Y-18325024D02*
X10368929Y-18325024D01*
X10549881Y-18325024D02*
X10530834Y-18315500D01*
X10530834Y-18315500D02*
X10521310Y-18296452D01*
X10521310Y-18296452D02*
X10521310Y-18125024D01*
X10702262Y-18315500D02*
X10683215Y-18325024D01*
X10683215Y-18325024D02*
X10645119Y-18325024D01*
X10645119Y-18325024D02*
X10626072Y-18315500D01*
X10626072Y-18315500D02*
X10616548Y-18296452D01*
X10616548Y-18296452D02*
X10616548Y-18220262D01*
X10616548Y-18220262D02*
X10626072Y-18201214D01*
X10626072Y-18201214D02*
X10645119Y-18191690D01*
X10645119Y-18191690D02*
X10683215Y-18191690D01*
X10683215Y-18191690D02*
X10702262Y-18201214D01*
X10702262Y-18201214D02*
X10711786Y-18220262D01*
X10711786Y-18220262D02*
X10711786Y-18239310D01*
X10711786Y-18239310D02*
X10616548Y-18258357D01*
X10787977Y-18315500D02*
X10807024Y-18325024D01*
X10807024Y-18325024D02*
X10845119Y-18325024D01*
X10845119Y-18325024D02*
X10864167Y-18315500D01*
X10864167Y-18315500D02*
X10873691Y-18296452D01*
X10873691Y-18296452D02*
X10873691Y-18286929D01*
X10873691Y-18286929D02*
X10864167Y-18267881D01*
X10864167Y-18267881D02*
X10845119Y-18258357D01*
X10845119Y-18258357D02*
X10816548Y-18258357D01*
X10816548Y-18258357D02*
X10797500Y-18248833D01*
X10797500Y-18248833D02*
X10787977Y-18229786D01*
X10787977Y-18229786D02*
X10787977Y-18220262D01*
X10787977Y-18220262D02*
X10797500Y-18201214D01*
X10797500Y-18201214D02*
X10816548Y-18191690D01*
X10816548Y-18191690D02*
X10845119Y-18191690D01*
X10845119Y-18191690D02*
X10864167Y-18201214D01*
X10940358Y-18401214D02*
X10949881Y-18391690D01*
X10949881Y-18391690D02*
X10968929Y-18363119D01*
X10968929Y-18363119D02*
X10978453Y-18344071D01*
X10978453Y-18344071D02*
X10987977Y-18315500D01*
X10987977Y-18315500D02*
X10997500Y-18267881D01*
X10997500Y-18267881D02*
X10997500Y-18229786D01*
X10997500Y-18229786D02*
X10987977Y-18182167D01*
X10987977Y-18182167D02*
X10978453Y-18153595D01*
X10978453Y-18153595D02*
X10968929Y-18134548D01*
X10968929Y-18134548D02*
X10949881Y-18105976D01*
X10949881Y-18105976D02*
X10940358Y-18096452D01*
X11302262Y-18401214D02*
X11292738Y-18391690D01*
X11292738Y-18391690D02*
X11273691Y-18363119D01*
X11273691Y-18363119D02*
X11264167Y-18344071D01*
X11264167Y-18344071D02*
X11254643Y-18315500D01*
X11254643Y-18315500D02*
X11245119Y-18267881D01*
X11245119Y-18267881D02*
X11245119Y-18229786D01*
X11245119Y-18229786D02*
X11254643Y-18182167D01*
X11254643Y-18182167D02*
X11264167Y-18153595D01*
X11264167Y-18153595D02*
X11273691Y-18134548D01*
X11273691Y-18134548D02*
X11292738Y-18105976D01*
X11292738Y-18105976D02*
X11302262Y-18096452D01*
X11378453Y-18191690D02*
X11378453Y-18325024D01*
X11378453Y-18210738D02*
X11387977Y-18201214D01*
X11387977Y-18201214D02*
X11407024Y-18191690D01*
X11407024Y-18191690D02*
X11435596Y-18191690D01*
X11435596Y-18191690D02*
X11454643Y-18201214D01*
X11454643Y-18201214D02*
X11464167Y-18220262D01*
X11464167Y-18220262D02*
X11464167Y-18325024D01*
X11587977Y-18325024D02*
X11568929Y-18315500D01*
X11568929Y-18315500D02*
X11559405Y-18305976D01*
X11559405Y-18305976D02*
X11549881Y-18286929D01*
X11549881Y-18286929D02*
X11549881Y-18229786D01*
X11549881Y-18229786D02*
X11559405Y-18210738D01*
X11559405Y-18210738D02*
X11568929Y-18201214D01*
X11568929Y-18201214D02*
X11587977Y-18191690D01*
X11587977Y-18191690D02*
X11616548Y-18191690D01*
X11616548Y-18191690D02*
X11635596Y-18201214D01*
X11635596Y-18201214D02*
X11645119Y-18210738D01*
X11645119Y-18210738D02*
X11654643Y-18229786D01*
X11654643Y-18229786D02*
X11654643Y-18286929D01*
X11654643Y-18286929D02*
X11645119Y-18305976D01*
X11645119Y-18305976D02*
X11635596Y-18315500D01*
X11635596Y-18315500D02*
X11616548Y-18325024D01*
X11616548Y-18325024D02*
X11587977Y-18325024D01*
X11711786Y-18191690D02*
X11787977Y-18191690D01*
X11740358Y-18125024D02*
X11740358Y-18296452D01*
X11740358Y-18296452D02*
X11749881Y-18315500D01*
X11749881Y-18315500D02*
X11768929Y-18325024D01*
X11768929Y-18325024D02*
X11787977Y-18325024D01*
X12007024Y-18191690D02*
X12007024Y-18391690D01*
X12007024Y-18201214D02*
X12026072Y-18191690D01*
X12026072Y-18191690D02*
X12064167Y-18191690D01*
X12064167Y-18191690D02*
X12083215Y-18201214D01*
X12083215Y-18201214D02*
X12092739Y-18210738D01*
X12092739Y-18210738D02*
X12102262Y-18229786D01*
X12102262Y-18229786D02*
X12102262Y-18286929D01*
X12102262Y-18286929D02*
X12092739Y-18305976D01*
X12092739Y-18305976D02*
X12083215Y-18315500D01*
X12083215Y-18315500D02*
X12064167Y-18325024D01*
X12064167Y-18325024D02*
X12026072Y-18325024D01*
X12026072Y-18325024D02*
X12007024Y-18315500D01*
X12216548Y-18325024D02*
X12197500Y-18315500D01*
X12197500Y-18315500D02*
X12187977Y-18296452D01*
X12187977Y-18296452D02*
X12187977Y-18125024D01*
X12378453Y-18325024D02*
X12378453Y-18220262D01*
X12378453Y-18220262D02*
X12368929Y-18201214D01*
X12368929Y-18201214D02*
X12349881Y-18191690D01*
X12349881Y-18191690D02*
X12311786Y-18191690D01*
X12311786Y-18191690D02*
X12292739Y-18201214D01*
X12378453Y-18315500D02*
X12359405Y-18325024D01*
X12359405Y-18325024D02*
X12311786Y-18325024D01*
X12311786Y-18325024D02*
X12292739Y-18315500D01*
X12292739Y-18315500D02*
X12283215Y-18296452D01*
X12283215Y-18296452D02*
X12283215Y-18277405D01*
X12283215Y-18277405D02*
X12292739Y-18258357D01*
X12292739Y-18258357D02*
X12311786Y-18248833D01*
X12311786Y-18248833D02*
X12359405Y-18248833D01*
X12359405Y-18248833D02*
X12378453Y-18239310D01*
X12445120Y-18191690D02*
X12521310Y-18191690D01*
X12473691Y-18125024D02*
X12473691Y-18296452D01*
X12473691Y-18296452D02*
X12483215Y-18315500D01*
X12483215Y-18315500D02*
X12502262Y-18325024D01*
X12502262Y-18325024D02*
X12521310Y-18325024D01*
X12664167Y-18315500D02*
X12645120Y-18325024D01*
X12645120Y-18325024D02*
X12607024Y-18325024D01*
X12607024Y-18325024D02*
X12587977Y-18315500D01*
X12587977Y-18315500D02*
X12578453Y-18296452D01*
X12578453Y-18296452D02*
X12578453Y-18220262D01*
X12578453Y-18220262D02*
X12587977Y-18201214D01*
X12587977Y-18201214D02*
X12607024Y-18191690D01*
X12607024Y-18191690D02*
X12645120Y-18191690D01*
X12645120Y-18191690D02*
X12664167Y-18201214D01*
X12664167Y-18201214D02*
X12673691Y-18220262D01*
X12673691Y-18220262D02*
X12673691Y-18239310D01*
X12673691Y-18239310D02*
X12578453Y-18258357D01*
X12845120Y-18325024D02*
X12845120Y-18125024D01*
X12845120Y-18315500D02*
X12826072Y-18325024D01*
X12826072Y-18325024D02*
X12787977Y-18325024D01*
X12787977Y-18325024D02*
X12768929Y-18315500D01*
X12768929Y-18315500D02*
X12759405Y-18305976D01*
X12759405Y-18305976D02*
X12749881Y-18286929D01*
X12749881Y-18286929D02*
X12749881Y-18229786D01*
X12749881Y-18229786D02*
X12759405Y-18210738D01*
X12759405Y-18210738D02*
X12768929Y-18201214D01*
X12768929Y-18201214D02*
X12787977Y-18191690D01*
X12787977Y-18191690D02*
X12826072Y-18191690D01*
X12826072Y-18191690D02*
X12845120Y-18201214D01*
X12921310Y-18401214D02*
X12930834Y-18391690D01*
X12930834Y-18391690D02*
X12949881Y-18363119D01*
X12949881Y-18363119D02*
X12959405Y-18344071D01*
X12959405Y-18344071D02*
X12968929Y-18315500D01*
X12968929Y-18315500D02*
X12978453Y-18267881D01*
X12978453Y-18267881D02*
X12978453Y-18229786D01*
X12978453Y-18229786D02*
X12968929Y-18182167D01*
X12968929Y-18182167D02*
X12959405Y-18153595D01*
X12959405Y-18153595D02*
X12949881Y-18134548D01*
X12949881Y-18134548D02*
X12930834Y-18105976D01*
X12930834Y-18105976D02*
X12921310Y-18096452D01*
D13*
X5797500Y-18496500D02*
G75*
G03*
X5797500Y-18496500I-37000J0D01*
G01*
D11*
X6083214Y-18389024D02*
X6102262Y-18389024D01*
X6102262Y-18389024D02*
X6121309Y-18398548D01*
X6121309Y-18398548D02*
X6130833Y-18408071D01*
X6130833Y-18408071D02*
X6140357Y-18427119D01*
X6140357Y-18427119D02*
X6149881Y-18465214D01*
X6149881Y-18465214D02*
X6149881Y-18512833D01*
X6149881Y-18512833D02*
X6140357Y-18550929D01*
X6140357Y-18550929D02*
X6130833Y-18569976D01*
X6130833Y-18569976D02*
X6121309Y-18579500D01*
X6121309Y-18579500D02*
X6102262Y-18589024D01*
X6102262Y-18589024D02*
X6083214Y-18589024D01*
X6083214Y-18589024D02*
X6064167Y-18579500D01*
X6064167Y-18579500D02*
X6054643Y-18569976D01*
X6054643Y-18569976D02*
X6045119Y-18550929D01*
X6045119Y-18550929D02*
X6035595Y-18512833D01*
X6035595Y-18512833D02*
X6035595Y-18465214D01*
X6035595Y-18465214D02*
X6045119Y-18427119D01*
X6045119Y-18427119D02*
X6054643Y-18408071D01*
X6054643Y-18408071D02*
X6064167Y-18398548D01*
X6064167Y-18398548D02*
X6083214Y-18389024D01*
X6235595Y-18569976D02*
X6245119Y-18579500D01*
X6245119Y-18579500D02*
X6235595Y-18589024D01*
X6235595Y-18589024D02*
X6226071Y-18579500D01*
X6226071Y-18579500D02*
X6235595Y-18569976D01*
X6235595Y-18569976D02*
X6235595Y-18589024D01*
X6311786Y-18389024D02*
X6445119Y-18389024D01*
X6445119Y-18389024D02*
X6359405Y-18589024D01*
X6607024Y-18455690D02*
X6607024Y-18589024D01*
X6559405Y-18379500D02*
X6511786Y-18522357D01*
X6511786Y-18522357D02*
X6635595Y-18522357D01*
X6749881Y-18389024D02*
X6768929Y-18389024D01*
X6768929Y-18389024D02*
X6787976Y-18398548D01*
X6787976Y-18398548D02*
X6797500Y-18408071D01*
X6797500Y-18408071D02*
X6807024Y-18427119D01*
X6807024Y-18427119D02*
X6816548Y-18465214D01*
X6816548Y-18465214D02*
X6816548Y-18512833D01*
X6816548Y-18512833D02*
X6807024Y-18550929D01*
X6807024Y-18550929D02*
X6797500Y-18569976D01*
X6797500Y-18569976D02*
X6787976Y-18579500D01*
X6787976Y-18579500D02*
X6768929Y-18589024D01*
X6768929Y-18589024D02*
X6749881Y-18589024D01*
X6749881Y-18589024D02*
X6730833Y-18579500D01*
X6730833Y-18579500D02*
X6721309Y-18569976D01*
X6721309Y-18569976D02*
X6711786Y-18550929D01*
X6711786Y-18550929D02*
X6702262Y-18512833D01*
X6702262Y-18512833D02*
X6702262Y-18465214D01*
X6702262Y-18465214D02*
X6711786Y-18427119D01*
X6711786Y-18427119D02*
X6721309Y-18408071D01*
X6721309Y-18408071D02*
X6730833Y-18398548D01*
X6730833Y-18398548D02*
X6749881Y-18389024D01*
X6902262Y-18589024D02*
X6902262Y-18455690D01*
X6902262Y-18474738D02*
X6911786Y-18465214D01*
X6911786Y-18465214D02*
X6930833Y-18455690D01*
X6930833Y-18455690D02*
X6959405Y-18455690D01*
X6959405Y-18455690D02*
X6978452Y-18465214D01*
X6978452Y-18465214D02*
X6987976Y-18484262D01*
X6987976Y-18484262D02*
X6987976Y-18589024D01*
X6987976Y-18484262D02*
X6997500Y-18465214D01*
X6997500Y-18465214D02*
X7016548Y-18455690D01*
X7016548Y-18455690D02*
X7045119Y-18455690D01*
X7045119Y-18455690D02*
X7064167Y-18465214D01*
X7064167Y-18465214D02*
X7073690Y-18484262D01*
X7073690Y-18484262D02*
X7073690Y-18589024D01*
X7168929Y-18589024D02*
X7168929Y-18455690D01*
X7168929Y-18474738D02*
X7178452Y-18465214D01*
X7178452Y-18465214D02*
X7197500Y-18455690D01*
X7197500Y-18455690D02*
X7226071Y-18455690D01*
X7226071Y-18455690D02*
X7245119Y-18465214D01*
X7245119Y-18465214D02*
X7254643Y-18484262D01*
X7254643Y-18484262D02*
X7254643Y-18589024D01*
X7254643Y-18484262D02*
X7264167Y-18465214D01*
X7264167Y-18465214D02*
X7283214Y-18455690D01*
X7283214Y-18455690D02*
X7311786Y-18455690D01*
X7311786Y-18455690D02*
X7330833Y-18465214D01*
X7330833Y-18465214D02*
X7340357Y-18484262D01*
X7340357Y-18484262D02*
X7340357Y-18589024D01*
X7730833Y-18379500D02*
X7559405Y-18636643D01*
X7987976Y-18389024D02*
X8007024Y-18389024D01*
X8007024Y-18389024D02*
X8026072Y-18398548D01*
X8026072Y-18398548D02*
X8035595Y-18408071D01*
X8035595Y-18408071D02*
X8045119Y-18427119D01*
X8045119Y-18427119D02*
X8054643Y-18465214D01*
X8054643Y-18465214D02*
X8054643Y-18512833D01*
X8054643Y-18512833D02*
X8045119Y-18550929D01*
X8045119Y-18550929D02*
X8035595Y-18569976D01*
X8035595Y-18569976D02*
X8026072Y-18579500D01*
X8026072Y-18579500D02*
X8007024Y-18589024D01*
X8007024Y-18589024D02*
X7987976Y-18589024D01*
X7987976Y-18589024D02*
X7968929Y-18579500D01*
X7968929Y-18579500D02*
X7959405Y-18569976D01*
X7959405Y-18569976D02*
X7949881Y-18550929D01*
X7949881Y-18550929D02*
X7940357Y-18512833D01*
X7940357Y-18512833D02*
X7940357Y-18465214D01*
X7940357Y-18465214D02*
X7949881Y-18427119D01*
X7949881Y-18427119D02*
X7959405Y-18408071D01*
X7959405Y-18408071D02*
X7968929Y-18398548D01*
X7968929Y-18398548D02*
X7987976Y-18389024D01*
X8140357Y-18569976D02*
X8149881Y-18579500D01*
X8149881Y-18579500D02*
X8140357Y-18589024D01*
X8140357Y-18589024D02*
X8130833Y-18579500D01*
X8130833Y-18579500D02*
X8140357Y-18569976D01*
X8140357Y-18569976D02*
X8140357Y-18589024D01*
X8273691Y-18389024D02*
X8292738Y-18389024D01*
X8292738Y-18389024D02*
X8311786Y-18398548D01*
X8311786Y-18398548D02*
X8321310Y-18408071D01*
X8321310Y-18408071D02*
X8330833Y-18427119D01*
X8330833Y-18427119D02*
X8340357Y-18465214D01*
X8340357Y-18465214D02*
X8340357Y-18512833D01*
X8340357Y-18512833D02*
X8330833Y-18550929D01*
X8330833Y-18550929D02*
X8321310Y-18569976D01*
X8321310Y-18569976D02*
X8311786Y-18579500D01*
X8311786Y-18579500D02*
X8292738Y-18589024D01*
X8292738Y-18589024D02*
X8273691Y-18589024D01*
X8273691Y-18589024D02*
X8254643Y-18579500D01*
X8254643Y-18579500D02*
X8245119Y-18569976D01*
X8245119Y-18569976D02*
X8235595Y-18550929D01*
X8235595Y-18550929D02*
X8226072Y-18512833D01*
X8226072Y-18512833D02*
X8226072Y-18465214D01*
X8226072Y-18465214D02*
X8235595Y-18427119D01*
X8235595Y-18427119D02*
X8245119Y-18408071D01*
X8245119Y-18408071D02*
X8254643Y-18398548D01*
X8254643Y-18398548D02*
X8273691Y-18389024D01*
X8416548Y-18408071D02*
X8426072Y-18398548D01*
X8426072Y-18398548D02*
X8445119Y-18389024D01*
X8445119Y-18389024D02*
X8492738Y-18389024D01*
X8492738Y-18389024D02*
X8511786Y-18398548D01*
X8511786Y-18398548D02*
X8521310Y-18408071D01*
X8521310Y-18408071D02*
X8530834Y-18427119D01*
X8530834Y-18427119D02*
X8530834Y-18446167D01*
X8530834Y-18446167D02*
X8521310Y-18474738D01*
X8521310Y-18474738D02*
X8407024Y-18589024D01*
X8407024Y-18589024D02*
X8530834Y-18589024D01*
X8626072Y-18589024D02*
X8664167Y-18589024D01*
X8664167Y-18589024D02*
X8683215Y-18579500D01*
X8683215Y-18579500D02*
X8692738Y-18569976D01*
X8692738Y-18569976D02*
X8711786Y-18541405D01*
X8711786Y-18541405D02*
X8721310Y-18503310D01*
X8721310Y-18503310D02*
X8721310Y-18427119D01*
X8721310Y-18427119D02*
X8711786Y-18408071D01*
X8711786Y-18408071D02*
X8702262Y-18398548D01*
X8702262Y-18398548D02*
X8683215Y-18389024D01*
X8683215Y-18389024D02*
X8645119Y-18389024D01*
X8645119Y-18389024D02*
X8626072Y-18398548D01*
X8626072Y-18398548D02*
X8616548Y-18408071D01*
X8616548Y-18408071D02*
X8607024Y-18427119D01*
X8607024Y-18427119D02*
X8607024Y-18474738D01*
X8607024Y-18474738D02*
X8616548Y-18493786D01*
X8616548Y-18493786D02*
X8626072Y-18503310D01*
X8626072Y-18503310D02*
X8645119Y-18512833D01*
X8645119Y-18512833D02*
X8683215Y-18512833D01*
X8683215Y-18512833D02*
X8702262Y-18503310D01*
X8702262Y-18503310D02*
X8711786Y-18493786D01*
X8711786Y-18493786D02*
X8721310Y-18474738D01*
X8911786Y-18589024D02*
X8797500Y-18589024D01*
X8854643Y-18589024D02*
X8854643Y-18389024D01*
X8854643Y-18389024D02*
X8835595Y-18417595D01*
X8835595Y-18417595D02*
X8816548Y-18436643D01*
X8816548Y-18436643D02*
X8797500Y-18446167D01*
X8987976Y-18389024D02*
X8987976Y-18427119D01*
X9064167Y-18389024D02*
X9064167Y-18427119D01*
X9359405Y-18665214D02*
X9349881Y-18655690D01*
X9349881Y-18655690D02*
X9330834Y-18627119D01*
X9330834Y-18627119D02*
X9321310Y-18608071D01*
X9321310Y-18608071D02*
X9311786Y-18579500D01*
X9311786Y-18579500D02*
X9302262Y-18531881D01*
X9302262Y-18531881D02*
X9302262Y-18493786D01*
X9302262Y-18493786D02*
X9311786Y-18446167D01*
X9311786Y-18446167D02*
X9321310Y-18417595D01*
X9321310Y-18417595D02*
X9330834Y-18398548D01*
X9330834Y-18398548D02*
X9349881Y-18369976D01*
X9349881Y-18369976D02*
X9359405Y-18360452D01*
X9521310Y-18455690D02*
X9521310Y-18589024D01*
X9473691Y-18379500D02*
X9426072Y-18522357D01*
X9426072Y-18522357D02*
X9549881Y-18522357D01*
X9778453Y-18589024D02*
X9778453Y-18389024D01*
X9864167Y-18589024D02*
X9864167Y-18484262D01*
X9864167Y-18484262D02*
X9854643Y-18465214D01*
X9854643Y-18465214D02*
X9835596Y-18455690D01*
X9835596Y-18455690D02*
X9807024Y-18455690D01*
X9807024Y-18455690D02*
X9787977Y-18465214D01*
X9787977Y-18465214D02*
X9778453Y-18474738D01*
X9987977Y-18589024D02*
X9968929Y-18579500D01*
X9968929Y-18579500D02*
X9959405Y-18569976D01*
X9959405Y-18569976D02*
X9949881Y-18550929D01*
X9949881Y-18550929D02*
X9949881Y-18493786D01*
X9949881Y-18493786D02*
X9959405Y-18474738D01*
X9959405Y-18474738D02*
X9968929Y-18465214D01*
X9968929Y-18465214D02*
X9987977Y-18455690D01*
X9987977Y-18455690D02*
X10016548Y-18455690D01*
X10016548Y-18455690D02*
X10035596Y-18465214D01*
X10035596Y-18465214D02*
X10045119Y-18474738D01*
X10045119Y-18474738D02*
X10054643Y-18493786D01*
X10054643Y-18493786D02*
X10054643Y-18550929D01*
X10054643Y-18550929D02*
X10045119Y-18569976D01*
X10045119Y-18569976D02*
X10035596Y-18579500D01*
X10035596Y-18579500D02*
X10016548Y-18589024D01*
X10016548Y-18589024D02*
X9987977Y-18589024D01*
X10168929Y-18589024D02*
X10149881Y-18579500D01*
X10149881Y-18579500D02*
X10140358Y-18560452D01*
X10140358Y-18560452D02*
X10140358Y-18389024D01*
X10321310Y-18579500D02*
X10302262Y-18589024D01*
X10302262Y-18589024D02*
X10264167Y-18589024D01*
X10264167Y-18589024D02*
X10245119Y-18579500D01*
X10245119Y-18579500D02*
X10235596Y-18560452D01*
X10235596Y-18560452D02*
X10235596Y-18484262D01*
X10235596Y-18484262D02*
X10245119Y-18465214D01*
X10245119Y-18465214D02*
X10264167Y-18455690D01*
X10264167Y-18455690D02*
X10302262Y-18455690D01*
X10302262Y-18455690D02*
X10321310Y-18465214D01*
X10321310Y-18465214D02*
X10330834Y-18484262D01*
X10330834Y-18484262D02*
X10330834Y-18503310D01*
X10330834Y-18503310D02*
X10235596Y-18522357D01*
X10407024Y-18579500D02*
X10426072Y-18589024D01*
X10426072Y-18589024D02*
X10464167Y-18589024D01*
X10464167Y-18589024D02*
X10483215Y-18579500D01*
X10483215Y-18579500D02*
X10492739Y-18560452D01*
X10492739Y-18560452D02*
X10492739Y-18550929D01*
X10492739Y-18550929D02*
X10483215Y-18531881D01*
X10483215Y-18531881D02*
X10464167Y-18522357D01*
X10464167Y-18522357D02*
X10435596Y-18522357D01*
X10435596Y-18522357D02*
X10416548Y-18512833D01*
X10416548Y-18512833D02*
X10407024Y-18493786D01*
X10407024Y-18493786D02*
X10407024Y-18484262D01*
X10407024Y-18484262D02*
X10416548Y-18465214D01*
X10416548Y-18465214D02*
X10435596Y-18455690D01*
X10435596Y-18455690D02*
X10464167Y-18455690D01*
X10464167Y-18455690D02*
X10483215Y-18465214D01*
X10559405Y-18665214D02*
X10568929Y-18655690D01*
X10568929Y-18655690D02*
X10587977Y-18627119D01*
X10587977Y-18627119D02*
X10597500Y-18608071D01*
X10597500Y-18608071D02*
X10607024Y-18579500D01*
X10607024Y-18579500D02*
X10616548Y-18531881D01*
X10616548Y-18531881D02*
X10616548Y-18493786D01*
X10616548Y-18493786D02*
X10607024Y-18446167D01*
X10607024Y-18446167D02*
X10597500Y-18417595D01*
X10597500Y-18417595D02*
X10587977Y-18398548D01*
X10587977Y-18398548D02*
X10568929Y-18369976D01*
X10568929Y-18369976D02*
X10559405Y-18360452D01*
X10921310Y-18665214D02*
X10911786Y-18655690D01*
X10911786Y-18655690D02*
X10892739Y-18627119D01*
X10892739Y-18627119D02*
X10883215Y-18608071D01*
X10883215Y-18608071D02*
X10873691Y-18579500D01*
X10873691Y-18579500D02*
X10864167Y-18531881D01*
X10864167Y-18531881D02*
X10864167Y-18493786D01*
X10864167Y-18493786D02*
X10873691Y-18446167D01*
X10873691Y-18446167D02*
X10883215Y-18417595D01*
X10883215Y-18417595D02*
X10892739Y-18398548D01*
X10892739Y-18398548D02*
X10911786Y-18369976D01*
X10911786Y-18369976D02*
X10921310Y-18360452D01*
X10997500Y-18455690D02*
X10997500Y-18589024D01*
X10997500Y-18474738D02*
X11007024Y-18465214D01*
X11007024Y-18465214D02*
X11026072Y-18455690D01*
X11026072Y-18455690D02*
X11054643Y-18455690D01*
X11054643Y-18455690D02*
X11073691Y-18465214D01*
X11073691Y-18465214D02*
X11083215Y-18484262D01*
X11083215Y-18484262D02*
X11083215Y-18589024D01*
X11207024Y-18589024D02*
X11187977Y-18579500D01*
X11187977Y-18579500D02*
X11178453Y-18569976D01*
X11178453Y-18569976D02*
X11168929Y-18550929D01*
X11168929Y-18550929D02*
X11168929Y-18493786D01*
X11168929Y-18493786D02*
X11178453Y-18474738D01*
X11178453Y-18474738D02*
X11187977Y-18465214D01*
X11187977Y-18465214D02*
X11207024Y-18455690D01*
X11207024Y-18455690D02*
X11235596Y-18455690D01*
X11235596Y-18455690D02*
X11254643Y-18465214D01*
X11254643Y-18465214D02*
X11264167Y-18474738D01*
X11264167Y-18474738D02*
X11273691Y-18493786D01*
X11273691Y-18493786D02*
X11273691Y-18550929D01*
X11273691Y-18550929D02*
X11264167Y-18569976D01*
X11264167Y-18569976D02*
X11254643Y-18579500D01*
X11254643Y-18579500D02*
X11235596Y-18589024D01*
X11235596Y-18589024D02*
X11207024Y-18589024D01*
X11330834Y-18455690D02*
X11407024Y-18455690D01*
X11359405Y-18389024D02*
X11359405Y-18560452D01*
X11359405Y-18560452D02*
X11368929Y-18579500D01*
X11368929Y-18579500D02*
X11387977Y-18589024D01*
X11387977Y-18589024D02*
X11407024Y-18589024D01*
X11626072Y-18455690D02*
X11626072Y-18655690D01*
X11626072Y-18465214D02*
X11645119Y-18455690D01*
X11645119Y-18455690D02*
X11683215Y-18455690D01*
X11683215Y-18455690D02*
X11702262Y-18465214D01*
X11702262Y-18465214D02*
X11711786Y-18474738D01*
X11711786Y-18474738D02*
X11721310Y-18493786D01*
X11721310Y-18493786D02*
X11721310Y-18550929D01*
X11721310Y-18550929D02*
X11711786Y-18569976D01*
X11711786Y-18569976D02*
X11702262Y-18579500D01*
X11702262Y-18579500D02*
X11683215Y-18589024D01*
X11683215Y-18589024D02*
X11645119Y-18589024D01*
X11645119Y-18589024D02*
X11626072Y-18579500D01*
X11835596Y-18589024D02*
X11816548Y-18579500D01*
X11816548Y-18579500D02*
X11807024Y-18560452D01*
X11807024Y-18560452D02*
X11807024Y-18389024D01*
X11997500Y-18589024D02*
X11997500Y-18484262D01*
X11997500Y-18484262D02*
X11987977Y-18465214D01*
X11987977Y-18465214D02*
X11968929Y-18455690D01*
X11968929Y-18455690D02*
X11930834Y-18455690D01*
X11930834Y-18455690D02*
X11911786Y-18465214D01*
X11997500Y-18579500D02*
X11978453Y-18589024D01*
X11978453Y-18589024D02*
X11930834Y-18589024D01*
X11930834Y-18589024D02*
X11911786Y-18579500D01*
X11911786Y-18579500D02*
X11902262Y-18560452D01*
X11902262Y-18560452D02*
X11902262Y-18541405D01*
X11902262Y-18541405D02*
X11911786Y-18522357D01*
X11911786Y-18522357D02*
X11930834Y-18512833D01*
X11930834Y-18512833D02*
X11978453Y-18512833D01*
X11978453Y-18512833D02*
X11997500Y-18503310D01*
X12064167Y-18455690D02*
X12140358Y-18455690D01*
X12092739Y-18389024D02*
X12092739Y-18560452D01*
X12092739Y-18560452D02*
X12102262Y-18579500D01*
X12102262Y-18579500D02*
X12121310Y-18589024D01*
X12121310Y-18589024D02*
X12140358Y-18589024D01*
X12283215Y-18579500D02*
X12264167Y-18589024D01*
X12264167Y-18589024D02*
X12226072Y-18589024D01*
X12226072Y-18589024D02*
X12207024Y-18579500D01*
X12207024Y-18579500D02*
X12197500Y-18560452D01*
X12197500Y-18560452D02*
X12197500Y-18484262D01*
X12197500Y-18484262D02*
X12207024Y-18465214D01*
X12207024Y-18465214D02*
X12226072Y-18455690D01*
X12226072Y-18455690D02*
X12264167Y-18455690D01*
X12264167Y-18455690D02*
X12283215Y-18465214D01*
X12283215Y-18465214D02*
X12292739Y-18484262D01*
X12292739Y-18484262D02*
X12292739Y-18503310D01*
X12292739Y-18503310D02*
X12197500Y-18522357D01*
X12464167Y-18589024D02*
X12464167Y-18389024D01*
X12464167Y-18579500D02*
X12445120Y-18589024D01*
X12445120Y-18589024D02*
X12407024Y-18589024D01*
X12407024Y-18589024D02*
X12387977Y-18579500D01*
X12387977Y-18579500D02*
X12378453Y-18569976D01*
X12378453Y-18569976D02*
X12368929Y-18550929D01*
X12368929Y-18550929D02*
X12368929Y-18493786D01*
X12368929Y-18493786D02*
X12378453Y-18474738D01*
X12378453Y-18474738D02*
X12387977Y-18465214D01*
X12387977Y-18465214D02*
X12407024Y-18455690D01*
X12407024Y-18455690D02*
X12445120Y-18455690D01*
X12445120Y-18455690D02*
X12464167Y-18465214D01*
X12540358Y-18665214D02*
X12549881Y-18655690D01*
X12549881Y-18655690D02*
X12568929Y-18627119D01*
X12568929Y-18627119D02*
X12578453Y-18608071D01*
X12578453Y-18608071D02*
X12587977Y-18579500D01*
X12587977Y-18579500D02*
X12597500Y-18531881D01*
X12597500Y-18531881D02*
X12597500Y-18493786D01*
X12597500Y-18493786D02*
X12587977Y-18446167D01*
X12587977Y-18446167D02*
X12578453Y-18417595D01*
X12578453Y-18417595D02*
X12568929Y-18398548D01*
X12568929Y-18398548D02*
X12549881Y-18369976D01*
X12549881Y-18369976D02*
X12540358Y-18360452D01*
D14*
X5747500Y-18710500D02*
X5747500Y-18810500D01*
X5697500Y-18760500D02*
X5797500Y-18760500D01*
D11*
X6149881Y-18853024D02*
X6035595Y-18853024D01*
X6092738Y-18853024D02*
X6092738Y-18653024D01*
X6092738Y-18653024D02*
X6073690Y-18681595D01*
X6073690Y-18681595D02*
X6054643Y-18700643D01*
X6054643Y-18700643D02*
X6035595Y-18710167D01*
X6235595Y-18833976D02*
X6245119Y-18843500D01*
X6245119Y-18843500D02*
X6235595Y-18853024D01*
X6235595Y-18853024D02*
X6226071Y-18843500D01*
X6226071Y-18843500D02*
X6235595Y-18833976D01*
X6235595Y-18833976D02*
X6235595Y-18853024D01*
X6368928Y-18653024D02*
X6387976Y-18653024D01*
X6387976Y-18653024D02*
X6407024Y-18662548D01*
X6407024Y-18662548D02*
X6416548Y-18672071D01*
X6416548Y-18672071D02*
X6426071Y-18691119D01*
X6426071Y-18691119D02*
X6435595Y-18729214D01*
X6435595Y-18729214D02*
X6435595Y-18776833D01*
X6435595Y-18776833D02*
X6426071Y-18814929D01*
X6426071Y-18814929D02*
X6416548Y-18833976D01*
X6416548Y-18833976D02*
X6407024Y-18843500D01*
X6407024Y-18843500D02*
X6387976Y-18853024D01*
X6387976Y-18853024D02*
X6368928Y-18853024D01*
X6368928Y-18853024D02*
X6349881Y-18843500D01*
X6349881Y-18843500D02*
X6340357Y-18833976D01*
X6340357Y-18833976D02*
X6330833Y-18814929D01*
X6330833Y-18814929D02*
X6321309Y-18776833D01*
X6321309Y-18776833D02*
X6321309Y-18729214D01*
X6321309Y-18729214D02*
X6330833Y-18691119D01*
X6330833Y-18691119D02*
X6340357Y-18672071D01*
X6340357Y-18672071D02*
X6349881Y-18662548D01*
X6349881Y-18662548D02*
X6368928Y-18653024D01*
X6559405Y-18653024D02*
X6578452Y-18653024D01*
X6578452Y-18653024D02*
X6597500Y-18662548D01*
X6597500Y-18662548D02*
X6607024Y-18672071D01*
X6607024Y-18672071D02*
X6616548Y-18691119D01*
X6616548Y-18691119D02*
X6626071Y-18729214D01*
X6626071Y-18729214D02*
X6626071Y-18776833D01*
X6626071Y-18776833D02*
X6616548Y-18814929D01*
X6616548Y-18814929D02*
X6607024Y-18833976D01*
X6607024Y-18833976D02*
X6597500Y-18843500D01*
X6597500Y-18843500D02*
X6578452Y-18853024D01*
X6578452Y-18853024D02*
X6559405Y-18853024D01*
X6559405Y-18853024D02*
X6540357Y-18843500D01*
X6540357Y-18843500D02*
X6530833Y-18833976D01*
X6530833Y-18833976D02*
X6521309Y-18814929D01*
X6521309Y-18814929D02*
X6511786Y-18776833D01*
X6511786Y-18776833D02*
X6511786Y-18729214D01*
X6511786Y-18729214D02*
X6521309Y-18691119D01*
X6521309Y-18691119D02*
X6530833Y-18672071D01*
X6530833Y-18672071D02*
X6540357Y-18662548D01*
X6540357Y-18662548D02*
X6559405Y-18653024D01*
X6749881Y-18653024D02*
X6768929Y-18653024D01*
X6768929Y-18653024D02*
X6787976Y-18662548D01*
X6787976Y-18662548D02*
X6797500Y-18672071D01*
X6797500Y-18672071D02*
X6807024Y-18691119D01*
X6807024Y-18691119D02*
X6816548Y-18729214D01*
X6816548Y-18729214D02*
X6816548Y-18776833D01*
X6816548Y-18776833D02*
X6807024Y-18814929D01*
X6807024Y-18814929D02*
X6797500Y-18833976D01*
X6797500Y-18833976D02*
X6787976Y-18843500D01*
X6787976Y-18843500D02*
X6768929Y-18853024D01*
X6768929Y-18853024D02*
X6749881Y-18853024D01*
X6749881Y-18853024D02*
X6730833Y-18843500D01*
X6730833Y-18843500D02*
X6721309Y-18833976D01*
X6721309Y-18833976D02*
X6711786Y-18814929D01*
X6711786Y-18814929D02*
X6702262Y-18776833D01*
X6702262Y-18776833D02*
X6702262Y-18729214D01*
X6702262Y-18729214D02*
X6711786Y-18691119D01*
X6711786Y-18691119D02*
X6721309Y-18672071D01*
X6721309Y-18672071D02*
X6730833Y-18662548D01*
X6730833Y-18662548D02*
X6749881Y-18653024D01*
X6902262Y-18853024D02*
X6902262Y-18719690D01*
X6902262Y-18738738D02*
X6911786Y-18729214D01*
X6911786Y-18729214D02*
X6930833Y-18719690D01*
X6930833Y-18719690D02*
X6959405Y-18719690D01*
X6959405Y-18719690D02*
X6978452Y-18729214D01*
X6978452Y-18729214D02*
X6987976Y-18748262D01*
X6987976Y-18748262D02*
X6987976Y-18853024D01*
X6987976Y-18748262D02*
X6997500Y-18729214D01*
X6997500Y-18729214D02*
X7016548Y-18719690D01*
X7016548Y-18719690D02*
X7045119Y-18719690D01*
X7045119Y-18719690D02*
X7064167Y-18729214D01*
X7064167Y-18729214D02*
X7073690Y-18748262D01*
X7073690Y-18748262D02*
X7073690Y-18853024D01*
X7168929Y-18853024D02*
X7168929Y-18719690D01*
X7168929Y-18738738D02*
X7178452Y-18729214D01*
X7178452Y-18729214D02*
X7197500Y-18719690D01*
X7197500Y-18719690D02*
X7226071Y-18719690D01*
X7226071Y-18719690D02*
X7245119Y-18729214D01*
X7245119Y-18729214D02*
X7254643Y-18748262D01*
X7254643Y-18748262D02*
X7254643Y-18853024D01*
X7254643Y-18748262D02*
X7264167Y-18729214D01*
X7264167Y-18729214D02*
X7283214Y-18719690D01*
X7283214Y-18719690D02*
X7311786Y-18719690D01*
X7311786Y-18719690D02*
X7330833Y-18729214D01*
X7330833Y-18729214D02*
X7340357Y-18748262D01*
X7340357Y-18748262D02*
X7340357Y-18853024D01*
X7730833Y-18643500D02*
X7559405Y-18900643D01*
X7987976Y-18653024D02*
X8007024Y-18653024D01*
X8007024Y-18653024D02*
X8026072Y-18662548D01*
X8026072Y-18662548D02*
X8035595Y-18672071D01*
X8035595Y-18672071D02*
X8045119Y-18691119D01*
X8045119Y-18691119D02*
X8054643Y-18729214D01*
X8054643Y-18729214D02*
X8054643Y-18776833D01*
X8054643Y-18776833D02*
X8045119Y-18814929D01*
X8045119Y-18814929D02*
X8035595Y-18833976D01*
X8035595Y-18833976D02*
X8026072Y-18843500D01*
X8026072Y-18843500D02*
X8007024Y-18853024D01*
X8007024Y-18853024D02*
X7987976Y-18853024D01*
X7987976Y-18853024D02*
X7968929Y-18843500D01*
X7968929Y-18843500D02*
X7959405Y-18833976D01*
X7959405Y-18833976D02*
X7949881Y-18814929D01*
X7949881Y-18814929D02*
X7940357Y-18776833D01*
X7940357Y-18776833D02*
X7940357Y-18729214D01*
X7940357Y-18729214D02*
X7949881Y-18691119D01*
X7949881Y-18691119D02*
X7959405Y-18672071D01*
X7959405Y-18672071D02*
X7968929Y-18662548D01*
X7968929Y-18662548D02*
X7987976Y-18653024D01*
X8140357Y-18833976D02*
X8149881Y-18843500D01*
X8149881Y-18843500D02*
X8140357Y-18853024D01*
X8140357Y-18853024D02*
X8130833Y-18843500D01*
X8130833Y-18843500D02*
X8140357Y-18833976D01*
X8140357Y-18833976D02*
X8140357Y-18853024D01*
X8273691Y-18653024D02*
X8292738Y-18653024D01*
X8292738Y-18653024D02*
X8311786Y-18662548D01*
X8311786Y-18662548D02*
X8321310Y-18672071D01*
X8321310Y-18672071D02*
X8330833Y-18691119D01*
X8330833Y-18691119D02*
X8340357Y-18729214D01*
X8340357Y-18729214D02*
X8340357Y-18776833D01*
X8340357Y-18776833D02*
X8330833Y-18814929D01*
X8330833Y-18814929D02*
X8321310Y-18833976D01*
X8321310Y-18833976D02*
X8311786Y-18843500D01*
X8311786Y-18843500D02*
X8292738Y-18853024D01*
X8292738Y-18853024D02*
X8273691Y-18853024D01*
X8273691Y-18853024D02*
X8254643Y-18843500D01*
X8254643Y-18843500D02*
X8245119Y-18833976D01*
X8245119Y-18833976D02*
X8235595Y-18814929D01*
X8235595Y-18814929D02*
X8226072Y-18776833D01*
X8226072Y-18776833D02*
X8226072Y-18729214D01*
X8226072Y-18729214D02*
X8235595Y-18691119D01*
X8235595Y-18691119D02*
X8245119Y-18672071D01*
X8245119Y-18672071D02*
X8254643Y-18662548D01*
X8254643Y-18662548D02*
X8273691Y-18653024D01*
X8407024Y-18653024D02*
X8530834Y-18653024D01*
X8530834Y-18653024D02*
X8464167Y-18729214D01*
X8464167Y-18729214D02*
X8492738Y-18729214D01*
X8492738Y-18729214D02*
X8511786Y-18738738D01*
X8511786Y-18738738D02*
X8521310Y-18748262D01*
X8521310Y-18748262D02*
X8530834Y-18767310D01*
X8530834Y-18767310D02*
X8530834Y-18814929D01*
X8530834Y-18814929D02*
X8521310Y-18833976D01*
X8521310Y-18833976D02*
X8511786Y-18843500D01*
X8511786Y-18843500D02*
X8492738Y-18853024D01*
X8492738Y-18853024D02*
X8435595Y-18853024D01*
X8435595Y-18853024D02*
X8416548Y-18843500D01*
X8416548Y-18843500D02*
X8407024Y-18833976D01*
X8626072Y-18853024D02*
X8664167Y-18853024D01*
X8664167Y-18853024D02*
X8683215Y-18843500D01*
X8683215Y-18843500D02*
X8692738Y-18833976D01*
X8692738Y-18833976D02*
X8711786Y-18805405D01*
X8711786Y-18805405D02*
X8721310Y-18767310D01*
X8721310Y-18767310D02*
X8721310Y-18691119D01*
X8721310Y-18691119D02*
X8711786Y-18672071D01*
X8711786Y-18672071D02*
X8702262Y-18662548D01*
X8702262Y-18662548D02*
X8683215Y-18653024D01*
X8683215Y-18653024D02*
X8645119Y-18653024D01*
X8645119Y-18653024D02*
X8626072Y-18662548D01*
X8626072Y-18662548D02*
X8616548Y-18672071D01*
X8616548Y-18672071D02*
X8607024Y-18691119D01*
X8607024Y-18691119D02*
X8607024Y-18738738D01*
X8607024Y-18738738D02*
X8616548Y-18757786D01*
X8616548Y-18757786D02*
X8626072Y-18767310D01*
X8626072Y-18767310D02*
X8645119Y-18776833D01*
X8645119Y-18776833D02*
X8683215Y-18776833D01*
X8683215Y-18776833D02*
X8702262Y-18767310D01*
X8702262Y-18767310D02*
X8711786Y-18757786D01*
X8711786Y-18757786D02*
X8721310Y-18738738D01*
X8892738Y-18719690D02*
X8892738Y-18853024D01*
X8845119Y-18643500D02*
X8797500Y-18786357D01*
X8797500Y-18786357D02*
X8921310Y-18786357D01*
X8987976Y-18653024D02*
X8987976Y-18691119D01*
X9064167Y-18653024D02*
X9064167Y-18691119D01*
X9359405Y-18929214D02*
X9349881Y-18919690D01*
X9349881Y-18919690D02*
X9330834Y-18891119D01*
X9330834Y-18891119D02*
X9321310Y-18872071D01*
X9321310Y-18872071D02*
X9311786Y-18843500D01*
X9311786Y-18843500D02*
X9302262Y-18795881D01*
X9302262Y-18795881D02*
X9302262Y-18757786D01*
X9302262Y-18757786D02*
X9311786Y-18710167D01*
X9311786Y-18710167D02*
X9321310Y-18681595D01*
X9321310Y-18681595D02*
X9330834Y-18662548D01*
X9330834Y-18662548D02*
X9349881Y-18633976D01*
X9349881Y-18633976D02*
X9359405Y-18624452D01*
X9416548Y-18653024D02*
X9540357Y-18653024D01*
X9540357Y-18653024D02*
X9473691Y-18729214D01*
X9473691Y-18729214D02*
X9502262Y-18729214D01*
X9502262Y-18729214D02*
X9521310Y-18738738D01*
X9521310Y-18738738D02*
X9530834Y-18748262D01*
X9530834Y-18748262D02*
X9540357Y-18767310D01*
X9540357Y-18767310D02*
X9540357Y-18814929D01*
X9540357Y-18814929D02*
X9530834Y-18833976D01*
X9530834Y-18833976D02*
X9521310Y-18843500D01*
X9521310Y-18843500D02*
X9502262Y-18853024D01*
X9502262Y-18853024D02*
X9445119Y-18853024D01*
X9445119Y-18853024D02*
X9426072Y-18843500D01*
X9426072Y-18843500D02*
X9416548Y-18833976D01*
X9616548Y-18672071D02*
X9626072Y-18662548D01*
X9626072Y-18662548D02*
X9645119Y-18653024D01*
X9645119Y-18653024D02*
X9692738Y-18653024D01*
X9692738Y-18653024D02*
X9711786Y-18662548D01*
X9711786Y-18662548D02*
X9721310Y-18672071D01*
X9721310Y-18672071D02*
X9730834Y-18691119D01*
X9730834Y-18691119D02*
X9730834Y-18710167D01*
X9730834Y-18710167D02*
X9721310Y-18738738D01*
X9721310Y-18738738D02*
X9607024Y-18853024D01*
X9607024Y-18853024D02*
X9730834Y-18853024D01*
X9968929Y-18853024D02*
X9968929Y-18653024D01*
X10054643Y-18853024D02*
X10054643Y-18748262D01*
X10054643Y-18748262D02*
X10045119Y-18729214D01*
X10045119Y-18729214D02*
X10026072Y-18719690D01*
X10026072Y-18719690D02*
X9997500Y-18719690D01*
X9997500Y-18719690D02*
X9978453Y-18729214D01*
X9978453Y-18729214D02*
X9968929Y-18738738D01*
X10178453Y-18853024D02*
X10159405Y-18843500D01*
X10159405Y-18843500D02*
X10149881Y-18833976D01*
X10149881Y-18833976D02*
X10140358Y-18814929D01*
X10140358Y-18814929D02*
X10140358Y-18757786D01*
X10140358Y-18757786D02*
X10149881Y-18738738D01*
X10149881Y-18738738D02*
X10159405Y-18729214D01*
X10159405Y-18729214D02*
X10178453Y-18719690D01*
X10178453Y-18719690D02*
X10207024Y-18719690D01*
X10207024Y-18719690D02*
X10226072Y-18729214D01*
X10226072Y-18729214D02*
X10235596Y-18738738D01*
X10235596Y-18738738D02*
X10245119Y-18757786D01*
X10245119Y-18757786D02*
X10245119Y-18814929D01*
X10245119Y-18814929D02*
X10235596Y-18833976D01*
X10235596Y-18833976D02*
X10226072Y-18843500D01*
X10226072Y-18843500D02*
X10207024Y-18853024D01*
X10207024Y-18853024D02*
X10178453Y-18853024D01*
X10359405Y-18853024D02*
X10340358Y-18843500D01*
X10340358Y-18843500D02*
X10330834Y-18824452D01*
X10330834Y-18824452D02*
X10330834Y-18653024D01*
X10511786Y-18843500D02*
X10492739Y-18853024D01*
X10492739Y-18853024D02*
X10454643Y-18853024D01*
X10454643Y-18853024D02*
X10435596Y-18843500D01*
X10435596Y-18843500D02*
X10426072Y-18824452D01*
X10426072Y-18824452D02*
X10426072Y-18748262D01*
X10426072Y-18748262D02*
X10435596Y-18729214D01*
X10435596Y-18729214D02*
X10454643Y-18719690D01*
X10454643Y-18719690D02*
X10492739Y-18719690D01*
X10492739Y-18719690D02*
X10511786Y-18729214D01*
X10511786Y-18729214D02*
X10521310Y-18748262D01*
X10521310Y-18748262D02*
X10521310Y-18767310D01*
X10521310Y-18767310D02*
X10426072Y-18786357D01*
X10597500Y-18843500D02*
X10616548Y-18853024D01*
X10616548Y-18853024D02*
X10654643Y-18853024D01*
X10654643Y-18853024D02*
X10673691Y-18843500D01*
X10673691Y-18843500D02*
X10683215Y-18824452D01*
X10683215Y-18824452D02*
X10683215Y-18814929D01*
X10683215Y-18814929D02*
X10673691Y-18795881D01*
X10673691Y-18795881D02*
X10654643Y-18786357D01*
X10654643Y-18786357D02*
X10626072Y-18786357D01*
X10626072Y-18786357D02*
X10607024Y-18776833D01*
X10607024Y-18776833D02*
X10597500Y-18757786D01*
X10597500Y-18757786D02*
X10597500Y-18748262D01*
X10597500Y-18748262D02*
X10607024Y-18729214D01*
X10607024Y-18729214D02*
X10626072Y-18719690D01*
X10626072Y-18719690D02*
X10654643Y-18719690D01*
X10654643Y-18719690D02*
X10673691Y-18729214D01*
X10749881Y-18929214D02*
X10759405Y-18919690D01*
X10759405Y-18919690D02*
X10778453Y-18891119D01*
X10778453Y-18891119D02*
X10787977Y-18872071D01*
X10787977Y-18872071D02*
X10797500Y-18843500D01*
X10797500Y-18843500D02*
X10807024Y-18795881D01*
X10807024Y-18795881D02*
X10807024Y-18757786D01*
X10807024Y-18757786D02*
X10797500Y-18710167D01*
X10797500Y-18710167D02*
X10787977Y-18681595D01*
X10787977Y-18681595D02*
X10778453Y-18662548D01*
X10778453Y-18662548D02*
X10759405Y-18633976D01*
X10759405Y-18633976D02*
X10749881Y-18624452D01*
X11111786Y-18929214D02*
X11102262Y-18919690D01*
X11102262Y-18919690D02*
X11083215Y-18891119D01*
X11083215Y-18891119D02*
X11073691Y-18872071D01*
X11073691Y-18872071D02*
X11064167Y-18843500D01*
X11064167Y-18843500D02*
X11054643Y-18795881D01*
X11054643Y-18795881D02*
X11054643Y-18757786D01*
X11054643Y-18757786D02*
X11064167Y-18710167D01*
X11064167Y-18710167D02*
X11073691Y-18681595D01*
X11073691Y-18681595D02*
X11083215Y-18662548D01*
X11083215Y-18662548D02*
X11102262Y-18633976D01*
X11102262Y-18633976D02*
X11111786Y-18624452D01*
X11187977Y-18719690D02*
X11187977Y-18853024D01*
X11187977Y-18738738D02*
X11197500Y-18729214D01*
X11197500Y-18729214D02*
X11216548Y-18719690D01*
X11216548Y-18719690D02*
X11245119Y-18719690D01*
X11245119Y-18719690D02*
X11264167Y-18729214D01*
X11264167Y-18729214D02*
X11273691Y-18748262D01*
X11273691Y-18748262D02*
X11273691Y-18853024D01*
X11397500Y-18853024D02*
X11378453Y-18843500D01*
X11378453Y-18843500D02*
X11368929Y-18833976D01*
X11368929Y-18833976D02*
X11359405Y-18814929D01*
X11359405Y-18814929D02*
X11359405Y-18757786D01*
X11359405Y-18757786D02*
X11368929Y-18738738D01*
X11368929Y-18738738D02*
X11378453Y-18729214D01*
X11378453Y-18729214D02*
X11397500Y-18719690D01*
X11397500Y-18719690D02*
X11426072Y-18719690D01*
X11426072Y-18719690D02*
X11445119Y-18729214D01*
X11445119Y-18729214D02*
X11454643Y-18738738D01*
X11454643Y-18738738D02*
X11464167Y-18757786D01*
X11464167Y-18757786D02*
X11464167Y-18814929D01*
X11464167Y-18814929D02*
X11454643Y-18833976D01*
X11454643Y-18833976D02*
X11445119Y-18843500D01*
X11445119Y-18843500D02*
X11426072Y-18853024D01*
X11426072Y-18853024D02*
X11397500Y-18853024D01*
X11521310Y-18719690D02*
X11597500Y-18719690D01*
X11549881Y-18653024D02*
X11549881Y-18824452D01*
X11549881Y-18824452D02*
X11559405Y-18843500D01*
X11559405Y-18843500D02*
X11578453Y-18853024D01*
X11578453Y-18853024D02*
X11597500Y-18853024D01*
X11816548Y-18719690D02*
X11816548Y-18919690D01*
X11816548Y-18729214D02*
X11835596Y-18719690D01*
X11835596Y-18719690D02*
X11873691Y-18719690D01*
X11873691Y-18719690D02*
X11892739Y-18729214D01*
X11892739Y-18729214D02*
X11902262Y-18738738D01*
X11902262Y-18738738D02*
X11911786Y-18757786D01*
X11911786Y-18757786D02*
X11911786Y-18814929D01*
X11911786Y-18814929D02*
X11902262Y-18833976D01*
X11902262Y-18833976D02*
X11892739Y-18843500D01*
X11892739Y-18843500D02*
X11873691Y-18853024D01*
X11873691Y-18853024D02*
X11835596Y-18853024D01*
X11835596Y-18853024D02*
X11816548Y-18843500D01*
X12026072Y-18853024D02*
X12007024Y-18843500D01*
X12007024Y-18843500D02*
X11997500Y-18824452D01*
X11997500Y-18824452D02*
X11997500Y-18653024D01*
X12187977Y-18853024D02*
X12187977Y-18748262D01*
X12187977Y-18748262D02*
X12178453Y-18729214D01*
X12178453Y-18729214D02*
X12159405Y-18719690D01*
X12159405Y-18719690D02*
X12121310Y-18719690D01*
X12121310Y-18719690D02*
X12102262Y-18729214D01*
X12187977Y-18843500D02*
X12168929Y-18853024D01*
X12168929Y-18853024D02*
X12121310Y-18853024D01*
X12121310Y-18853024D02*
X12102262Y-18843500D01*
X12102262Y-18843500D02*
X12092739Y-18824452D01*
X12092739Y-18824452D02*
X12092739Y-18805405D01*
X12092739Y-18805405D02*
X12102262Y-18786357D01*
X12102262Y-18786357D02*
X12121310Y-18776833D01*
X12121310Y-18776833D02*
X12168929Y-18776833D01*
X12168929Y-18776833D02*
X12187977Y-18767310D01*
X12254643Y-18719690D02*
X12330834Y-18719690D01*
X12283215Y-18653024D02*
X12283215Y-18824452D01*
X12283215Y-18824452D02*
X12292739Y-18843500D01*
X12292739Y-18843500D02*
X12311786Y-18853024D01*
X12311786Y-18853024D02*
X12330834Y-18853024D01*
X12473691Y-18843500D02*
X12454643Y-18853024D01*
X12454643Y-18853024D02*
X12416548Y-18853024D01*
X12416548Y-18853024D02*
X12397500Y-18843500D01*
X12397500Y-18843500D02*
X12387977Y-18824452D01*
X12387977Y-18824452D02*
X12387977Y-18748262D01*
X12387977Y-18748262D02*
X12397500Y-18729214D01*
X12397500Y-18729214D02*
X12416548Y-18719690D01*
X12416548Y-18719690D02*
X12454643Y-18719690D01*
X12454643Y-18719690D02*
X12473691Y-18729214D01*
X12473691Y-18729214D02*
X12483215Y-18748262D01*
X12483215Y-18748262D02*
X12483215Y-18767310D01*
X12483215Y-18767310D02*
X12387977Y-18786357D01*
X12654643Y-18853024D02*
X12654643Y-18653024D01*
X12654643Y-18843500D02*
X12635596Y-18853024D01*
X12635596Y-18853024D02*
X12597500Y-18853024D01*
X12597500Y-18853024D02*
X12578453Y-18843500D01*
X12578453Y-18843500D02*
X12568929Y-18833976D01*
X12568929Y-18833976D02*
X12559405Y-18814929D01*
X12559405Y-18814929D02*
X12559405Y-18757786D01*
X12559405Y-18757786D02*
X12568929Y-18738738D01*
X12568929Y-18738738D02*
X12578453Y-18729214D01*
X12578453Y-18729214D02*
X12597500Y-18719690D01*
X12597500Y-18719690D02*
X12635596Y-18719690D01*
X12635596Y-18719690D02*
X12654643Y-18729214D01*
X12730834Y-18929214D02*
X12740358Y-18919690D01*
X12740358Y-18919690D02*
X12759405Y-18891119D01*
X12759405Y-18891119D02*
X12768929Y-18872071D01*
X12768929Y-18872071D02*
X12778453Y-18843500D01*
X12778453Y-18843500D02*
X12787977Y-18795881D01*
X12787977Y-18795881D02*
X12787977Y-18757786D01*
X12787977Y-18757786D02*
X12778453Y-18710167D01*
X12778453Y-18710167D02*
X12768929Y-18681595D01*
X12768929Y-18681595D02*
X12759405Y-18662548D01*
X12759405Y-18662548D02*
X12740358Y-18633976D01*
X12740358Y-18633976D02*
X12730834Y-18624452D01*
D15*
X5778902Y-19069402D02*
X5778902Y-18979598D01*
X5689098Y-18979598D01*
X5689098Y-19069402D01*
X5778902Y-19069402D01*
D11*
X6149881Y-19117024D02*
X6035595Y-19117024D01*
X6092738Y-19117024D02*
X6092738Y-18917024D01*
X6092738Y-18917024D02*
X6073690Y-18945595D01*
X6073690Y-18945595D02*
X6054643Y-18964643D01*
X6054643Y-18964643D02*
X6035595Y-18974167D01*
X6235595Y-19097976D02*
X6245119Y-19107500D01*
X6245119Y-19107500D02*
X6235595Y-19117024D01*
X6235595Y-19117024D02*
X6226071Y-19107500D01*
X6226071Y-19107500D02*
X6235595Y-19097976D01*
X6235595Y-19097976D02*
X6235595Y-19117024D01*
X6321309Y-18936071D02*
X6330833Y-18926548D01*
X6330833Y-18926548D02*
X6349881Y-18917024D01*
X6349881Y-18917024D02*
X6397500Y-18917024D01*
X6397500Y-18917024D02*
X6416548Y-18926548D01*
X6416548Y-18926548D02*
X6426071Y-18936071D01*
X6426071Y-18936071D02*
X6435595Y-18955119D01*
X6435595Y-18955119D02*
X6435595Y-18974167D01*
X6435595Y-18974167D02*
X6426071Y-19002738D01*
X6426071Y-19002738D02*
X6311786Y-19117024D01*
X6311786Y-19117024D02*
X6435595Y-19117024D01*
X6502262Y-18917024D02*
X6635595Y-18917024D01*
X6635595Y-18917024D02*
X6549881Y-19117024D01*
X6749881Y-18917024D02*
X6768929Y-18917024D01*
X6768929Y-18917024D02*
X6787976Y-18926548D01*
X6787976Y-18926548D02*
X6797500Y-18936071D01*
X6797500Y-18936071D02*
X6807024Y-18955119D01*
X6807024Y-18955119D02*
X6816548Y-18993214D01*
X6816548Y-18993214D02*
X6816548Y-19040833D01*
X6816548Y-19040833D02*
X6807024Y-19078929D01*
X6807024Y-19078929D02*
X6797500Y-19097976D01*
X6797500Y-19097976D02*
X6787976Y-19107500D01*
X6787976Y-19107500D02*
X6768929Y-19117024D01*
X6768929Y-19117024D02*
X6749881Y-19117024D01*
X6749881Y-19117024D02*
X6730833Y-19107500D01*
X6730833Y-19107500D02*
X6721309Y-19097976D01*
X6721309Y-19097976D02*
X6711786Y-19078929D01*
X6711786Y-19078929D02*
X6702262Y-19040833D01*
X6702262Y-19040833D02*
X6702262Y-18993214D01*
X6702262Y-18993214D02*
X6711786Y-18955119D01*
X6711786Y-18955119D02*
X6721309Y-18936071D01*
X6721309Y-18936071D02*
X6730833Y-18926548D01*
X6730833Y-18926548D02*
X6749881Y-18917024D01*
X6902262Y-19117024D02*
X6902262Y-18983690D01*
X6902262Y-19002738D02*
X6911786Y-18993214D01*
X6911786Y-18993214D02*
X6930833Y-18983690D01*
X6930833Y-18983690D02*
X6959405Y-18983690D01*
X6959405Y-18983690D02*
X6978452Y-18993214D01*
X6978452Y-18993214D02*
X6987976Y-19012262D01*
X6987976Y-19012262D02*
X6987976Y-19117024D01*
X6987976Y-19012262D02*
X6997500Y-18993214D01*
X6997500Y-18993214D02*
X7016548Y-18983690D01*
X7016548Y-18983690D02*
X7045119Y-18983690D01*
X7045119Y-18983690D02*
X7064167Y-18993214D01*
X7064167Y-18993214D02*
X7073690Y-19012262D01*
X7073690Y-19012262D02*
X7073690Y-19117024D01*
X7168929Y-19117024D02*
X7168929Y-18983690D01*
X7168929Y-19002738D02*
X7178452Y-18993214D01*
X7178452Y-18993214D02*
X7197500Y-18983690D01*
X7197500Y-18983690D02*
X7226071Y-18983690D01*
X7226071Y-18983690D02*
X7245119Y-18993214D01*
X7245119Y-18993214D02*
X7254643Y-19012262D01*
X7254643Y-19012262D02*
X7254643Y-19117024D01*
X7254643Y-19012262D02*
X7264167Y-18993214D01*
X7264167Y-18993214D02*
X7283214Y-18983690D01*
X7283214Y-18983690D02*
X7311786Y-18983690D01*
X7311786Y-18983690D02*
X7330833Y-18993214D01*
X7330833Y-18993214D02*
X7340357Y-19012262D01*
X7340357Y-19012262D02*
X7340357Y-19117024D01*
X7730833Y-18907500D02*
X7559405Y-19164643D01*
X7987976Y-18917024D02*
X8007024Y-18917024D01*
X8007024Y-18917024D02*
X8026072Y-18926548D01*
X8026072Y-18926548D02*
X8035595Y-18936071D01*
X8035595Y-18936071D02*
X8045119Y-18955119D01*
X8045119Y-18955119D02*
X8054643Y-18993214D01*
X8054643Y-18993214D02*
X8054643Y-19040833D01*
X8054643Y-19040833D02*
X8045119Y-19078929D01*
X8045119Y-19078929D02*
X8035595Y-19097976D01*
X8035595Y-19097976D02*
X8026072Y-19107500D01*
X8026072Y-19107500D02*
X8007024Y-19117024D01*
X8007024Y-19117024D02*
X7987976Y-19117024D01*
X7987976Y-19117024D02*
X7968929Y-19107500D01*
X7968929Y-19107500D02*
X7959405Y-19097976D01*
X7959405Y-19097976D02*
X7949881Y-19078929D01*
X7949881Y-19078929D02*
X7940357Y-19040833D01*
X7940357Y-19040833D02*
X7940357Y-18993214D01*
X7940357Y-18993214D02*
X7949881Y-18955119D01*
X7949881Y-18955119D02*
X7959405Y-18936071D01*
X7959405Y-18936071D02*
X7968929Y-18926548D01*
X7968929Y-18926548D02*
X7987976Y-18917024D01*
X8140357Y-19097976D02*
X8149881Y-19107500D01*
X8149881Y-19107500D02*
X8140357Y-19117024D01*
X8140357Y-19117024D02*
X8130833Y-19107500D01*
X8130833Y-19107500D02*
X8140357Y-19097976D01*
X8140357Y-19097976D02*
X8140357Y-19117024D01*
X8273691Y-18917024D02*
X8292738Y-18917024D01*
X8292738Y-18917024D02*
X8311786Y-18926548D01*
X8311786Y-18926548D02*
X8321310Y-18936071D01*
X8321310Y-18936071D02*
X8330833Y-18955119D01*
X8330833Y-18955119D02*
X8340357Y-18993214D01*
X8340357Y-18993214D02*
X8340357Y-19040833D01*
X8340357Y-19040833D02*
X8330833Y-19078929D01*
X8330833Y-19078929D02*
X8321310Y-19097976D01*
X8321310Y-19097976D02*
X8311786Y-19107500D01*
X8311786Y-19107500D02*
X8292738Y-19117024D01*
X8292738Y-19117024D02*
X8273691Y-19117024D01*
X8273691Y-19117024D02*
X8254643Y-19107500D01*
X8254643Y-19107500D02*
X8245119Y-19097976D01*
X8245119Y-19097976D02*
X8235595Y-19078929D01*
X8235595Y-19078929D02*
X8226072Y-19040833D01*
X8226072Y-19040833D02*
X8226072Y-18993214D01*
X8226072Y-18993214D02*
X8235595Y-18955119D01*
X8235595Y-18955119D02*
X8245119Y-18936071D01*
X8245119Y-18936071D02*
X8254643Y-18926548D01*
X8254643Y-18926548D02*
X8273691Y-18917024D01*
X8521310Y-18917024D02*
X8426072Y-18917024D01*
X8426072Y-18917024D02*
X8416548Y-19012262D01*
X8416548Y-19012262D02*
X8426072Y-19002738D01*
X8426072Y-19002738D02*
X8445119Y-18993214D01*
X8445119Y-18993214D02*
X8492738Y-18993214D01*
X8492738Y-18993214D02*
X8511786Y-19002738D01*
X8511786Y-19002738D02*
X8521310Y-19012262D01*
X8521310Y-19012262D02*
X8530834Y-19031310D01*
X8530834Y-19031310D02*
X8530834Y-19078929D01*
X8530834Y-19078929D02*
X8521310Y-19097976D01*
X8521310Y-19097976D02*
X8511786Y-19107500D01*
X8511786Y-19107500D02*
X8492738Y-19117024D01*
X8492738Y-19117024D02*
X8445119Y-19117024D01*
X8445119Y-19117024D02*
X8426072Y-19107500D01*
X8426072Y-19107500D02*
X8416548Y-19097976D01*
X8654643Y-18917024D02*
X8673691Y-18917024D01*
X8673691Y-18917024D02*
X8692738Y-18926548D01*
X8692738Y-18926548D02*
X8702262Y-18936071D01*
X8702262Y-18936071D02*
X8711786Y-18955119D01*
X8711786Y-18955119D02*
X8721310Y-18993214D01*
X8721310Y-18993214D02*
X8721310Y-19040833D01*
X8721310Y-19040833D02*
X8711786Y-19078929D01*
X8711786Y-19078929D02*
X8702262Y-19097976D01*
X8702262Y-19097976D02*
X8692738Y-19107500D01*
X8692738Y-19107500D02*
X8673691Y-19117024D01*
X8673691Y-19117024D02*
X8654643Y-19117024D01*
X8654643Y-19117024D02*
X8635595Y-19107500D01*
X8635595Y-19107500D02*
X8626072Y-19097976D01*
X8626072Y-19097976D02*
X8616548Y-19078929D01*
X8616548Y-19078929D02*
X8607024Y-19040833D01*
X8607024Y-19040833D02*
X8607024Y-18993214D01*
X8607024Y-18993214D02*
X8616548Y-18955119D01*
X8616548Y-18955119D02*
X8626072Y-18936071D01*
X8626072Y-18936071D02*
X8635595Y-18926548D01*
X8635595Y-18926548D02*
X8654643Y-18917024D01*
X8845119Y-18917024D02*
X8864167Y-18917024D01*
X8864167Y-18917024D02*
X8883215Y-18926548D01*
X8883215Y-18926548D02*
X8892738Y-18936071D01*
X8892738Y-18936071D02*
X8902262Y-18955119D01*
X8902262Y-18955119D02*
X8911786Y-18993214D01*
X8911786Y-18993214D02*
X8911786Y-19040833D01*
X8911786Y-19040833D02*
X8902262Y-19078929D01*
X8902262Y-19078929D02*
X8892738Y-19097976D01*
X8892738Y-19097976D02*
X8883215Y-19107500D01*
X8883215Y-19107500D02*
X8864167Y-19117024D01*
X8864167Y-19117024D02*
X8845119Y-19117024D01*
X8845119Y-19117024D02*
X8826072Y-19107500D01*
X8826072Y-19107500D02*
X8816548Y-19097976D01*
X8816548Y-19097976D02*
X8807024Y-19078929D01*
X8807024Y-19078929D02*
X8797500Y-19040833D01*
X8797500Y-19040833D02*
X8797500Y-18993214D01*
X8797500Y-18993214D02*
X8807024Y-18955119D01*
X8807024Y-18955119D02*
X8816548Y-18936071D01*
X8816548Y-18936071D02*
X8826072Y-18926548D01*
X8826072Y-18926548D02*
X8845119Y-18917024D01*
X8987976Y-18917024D02*
X8987976Y-18955119D01*
X9064167Y-18917024D02*
X9064167Y-18955119D01*
X9359405Y-19193214D02*
X9349881Y-19183690D01*
X9349881Y-19183690D02*
X9330834Y-19155119D01*
X9330834Y-19155119D02*
X9321310Y-19136071D01*
X9321310Y-19136071D02*
X9311786Y-19107500D01*
X9311786Y-19107500D02*
X9302262Y-19059881D01*
X9302262Y-19059881D02*
X9302262Y-19021786D01*
X9302262Y-19021786D02*
X9311786Y-18974167D01*
X9311786Y-18974167D02*
X9321310Y-18945595D01*
X9321310Y-18945595D02*
X9330834Y-18926548D01*
X9330834Y-18926548D02*
X9349881Y-18897976D01*
X9349881Y-18897976D02*
X9359405Y-18888452D01*
X9540357Y-19117024D02*
X9426072Y-19117024D01*
X9483215Y-19117024D02*
X9483215Y-18917024D01*
X9483215Y-18917024D02*
X9464167Y-18945595D01*
X9464167Y-18945595D02*
X9445119Y-18964643D01*
X9445119Y-18964643D02*
X9426072Y-18974167D01*
X9711786Y-18917024D02*
X9673691Y-18917024D01*
X9673691Y-18917024D02*
X9654643Y-18926548D01*
X9654643Y-18926548D02*
X9645119Y-18936071D01*
X9645119Y-18936071D02*
X9626072Y-18964643D01*
X9626072Y-18964643D02*
X9616548Y-19002738D01*
X9616548Y-19002738D02*
X9616548Y-19078929D01*
X9616548Y-19078929D02*
X9626072Y-19097976D01*
X9626072Y-19097976D02*
X9635596Y-19107500D01*
X9635596Y-19107500D02*
X9654643Y-19117024D01*
X9654643Y-19117024D02*
X9692738Y-19117024D01*
X9692738Y-19117024D02*
X9711786Y-19107500D01*
X9711786Y-19107500D02*
X9721310Y-19097976D01*
X9721310Y-19097976D02*
X9730834Y-19078929D01*
X9730834Y-19078929D02*
X9730834Y-19031310D01*
X9730834Y-19031310D02*
X9721310Y-19012262D01*
X9721310Y-19012262D02*
X9711786Y-19002738D01*
X9711786Y-19002738D02*
X9692738Y-18993214D01*
X9692738Y-18993214D02*
X9654643Y-18993214D01*
X9654643Y-18993214D02*
X9635596Y-19002738D01*
X9635596Y-19002738D02*
X9626072Y-19012262D01*
X9626072Y-19012262D02*
X9616548Y-19031310D01*
X9968929Y-19117024D02*
X9968929Y-18917024D01*
X10054643Y-19117024D02*
X10054643Y-19012262D01*
X10054643Y-19012262D02*
X10045119Y-18993214D01*
X10045119Y-18993214D02*
X10026072Y-18983690D01*
X10026072Y-18983690D02*
X9997500Y-18983690D01*
X9997500Y-18983690D02*
X9978453Y-18993214D01*
X9978453Y-18993214D02*
X9968929Y-19002738D01*
X10178453Y-19117024D02*
X10159405Y-19107500D01*
X10159405Y-19107500D02*
X10149881Y-19097976D01*
X10149881Y-19097976D02*
X10140358Y-19078929D01*
X10140358Y-19078929D02*
X10140358Y-19021786D01*
X10140358Y-19021786D02*
X10149881Y-19002738D01*
X10149881Y-19002738D02*
X10159405Y-18993214D01*
X10159405Y-18993214D02*
X10178453Y-18983690D01*
X10178453Y-18983690D02*
X10207024Y-18983690D01*
X10207024Y-18983690D02*
X10226072Y-18993214D01*
X10226072Y-18993214D02*
X10235596Y-19002738D01*
X10235596Y-19002738D02*
X10245119Y-19021786D01*
X10245119Y-19021786D02*
X10245119Y-19078929D01*
X10245119Y-19078929D02*
X10235596Y-19097976D01*
X10235596Y-19097976D02*
X10226072Y-19107500D01*
X10226072Y-19107500D02*
X10207024Y-19117024D01*
X10207024Y-19117024D02*
X10178453Y-19117024D01*
X10359405Y-19117024D02*
X10340358Y-19107500D01*
X10340358Y-19107500D02*
X10330834Y-19088452D01*
X10330834Y-19088452D02*
X10330834Y-18917024D01*
X10511786Y-19107500D02*
X10492739Y-19117024D01*
X10492739Y-19117024D02*
X10454643Y-19117024D01*
X10454643Y-19117024D02*
X10435596Y-19107500D01*
X10435596Y-19107500D02*
X10426072Y-19088452D01*
X10426072Y-19088452D02*
X10426072Y-19012262D01*
X10426072Y-19012262D02*
X10435596Y-18993214D01*
X10435596Y-18993214D02*
X10454643Y-18983690D01*
X10454643Y-18983690D02*
X10492739Y-18983690D01*
X10492739Y-18983690D02*
X10511786Y-18993214D01*
X10511786Y-18993214D02*
X10521310Y-19012262D01*
X10521310Y-19012262D02*
X10521310Y-19031310D01*
X10521310Y-19031310D02*
X10426072Y-19050357D01*
X10597500Y-19107500D02*
X10616548Y-19117024D01*
X10616548Y-19117024D02*
X10654643Y-19117024D01*
X10654643Y-19117024D02*
X10673691Y-19107500D01*
X10673691Y-19107500D02*
X10683215Y-19088452D01*
X10683215Y-19088452D02*
X10683215Y-19078929D01*
X10683215Y-19078929D02*
X10673691Y-19059881D01*
X10673691Y-19059881D02*
X10654643Y-19050357D01*
X10654643Y-19050357D02*
X10626072Y-19050357D01*
X10626072Y-19050357D02*
X10607024Y-19040833D01*
X10607024Y-19040833D02*
X10597500Y-19021786D01*
X10597500Y-19021786D02*
X10597500Y-19012262D01*
X10597500Y-19012262D02*
X10607024Y-18993214D01*
X10607024Y-18993214D02*
X10626072Y-18983690D01*
X10626072Y-18983690D02*
X10654643Y-18983690D01*
X10654643Y-18983690D02*
X10673691Y-18993214D01*
X10749881Y-19193214D02*
X10759405Y-19183690D01*
X10759405Y-19183690D02*
X10778453Y-19155119D01*
X10778453Y-19155119D02*
X10787977Y-19136071D01*
X10787977Y-19136071D02*
X10797500Y-19107500D01*
X10797500Y-19107500D02*
X10807024Y-19059881D01*
X10807024Y-19059881D02*
X10807024Y-19021786D01*
X10807024Y-19021786D02*
X10797500Y-18974167D01*
X10797500Y-18974167D02*
X10787977Y-18945595D01*
X10787977Y-18945595D02*
X10778453Y-18926548D01*
X10778453Y-18926548D02*
X10759405Y-18897976D01*
X10759405Y-18897976D02*
X10749881Y-18888452D01*
X11111786Y-19193214D02*
X11102262Y-19183690D01*
X11102262Y-19183690D02*
X11083215Y-19155119D01*
X11083215Y-19155119D02*
X11073691Y-19136071D01*
X11073691Y-19136071D02*
X11064167Y-19107500D01*
X11064167Y-19107500D02*
X11054643Y-19059881D01*
X11054643Y-19059881D02*
X11054643Y-19021786D01*
X11054643Y-19021786D02*
X11064167Y-18974167D01*
X11064167Y-18974167D02*
X11073691Y-18945595D01*
X11073691Y-18945595D02*
X11083215Y-18926548D01*
X11083215Y-18926548D02*
X11102262Y-18897976D01*
X11102262Y-18897976D02*
X11111786Y-18888452D01*
X11187977Y-18983690D02*
X11187977Y-19117024D01*
X11187977Y-19002738D02*
X11197500Y-18993214D01*
X11197500Y-18993214D02*
X11216548Y-18983690D01*
X11216548Y-18983690D02*
X11245119Y-18983690D01*
X11245119Y-18983690D02*
X11264167Y-18993214D01*
X11264167Y-18993214D02*
X11273691Y-19012262D01*
X11273691Y-19012262D02*
X11273691Y-19117024D01*
X11397500Y-19117024D02*
X11378453Y-19107500D01*
X11378453Y-19107500D02*
X11368929Y-19097976D01*
X11368929Y-19097976D02*
X11359405Y-19078929D01*
X11359405Y-19078929D02*
X11359405Y-19021786D01*
X11359405Y-19021786D02*
X11368929Y-19002738D01*
X11368929Y-19002738D02*
X11378453Y-18993214D01*
X11378453Y-18993214D02*
X11397500Y-18983690D01*
X11397500Y-18983690D02*
X11426072Y-18983690D01*
X11426072Y-18983690D02*
X11445119Y-18993214D01*
X11445119Y-18993214D02*
X11454643Y-19002738D01*
X11454643Y-19002738D02*
X11464167Y-19021786D01*
X11464167Y-19021786D02*
X11464167Y-19078929D01*
X11464167Y-19078929D02*
X11454643Y-19097976D01*
X11454643Y-19097976D02*
X11445119Y-19107500D01*
X11445119Y-19107500D02*
X11426072Y-19117024D01*
X11426072Y-19117024D02*
X11397500Y-19117024D01*
X11521310Y-18983690D02*
X11597500Y-18983690D01*
X11549881Y-18917024D02*
X11549881Y-19088452D01*
X11549881Y-19088452D02*
X11559405Y-19107500D01*
X11559405Y-19107500D02*
X11578453Y-19117024D01*
X11578453Y-19117024D02*
X11597500Y-19117024D01*
X11816548Y-18983690D02*
X11816548Y-19183690D01*
X11816548Y-18993214D02*
X11835596Y-18983690D01*
X11835596Y-18983690D02*
X11873691Y-18983690D01*
X11873691Y-18983690D02*
X11892739Y-18993214D01*
X11892739Y-18993214D02*
X11902262Y-19002738D01*
X11902262Y-19002738D02*
X11911786Y-19021786D01*
X11911786Y-19021786D02*
X11911786Y-19078929D01*
X11911786Y-19078929D02*
X11902262Y-19097976D01*
X11902262Y-19097976D02*
X11892739Y-19107500D01*
X11892739Y-19107500D02*
X11873691Y-19117024D01*
X11873691Y-19117024D02*
X11835596Y-19117024D01*
X11835596Y-19117024D02*
X11816548Y-19107500D01*
X12026072Y-19117024D02*
X12007024Y-19107500D01*
X12007024Y-19107500D02*
X11997500Y-19088452D01*
X11997500Y-19088452D02*
X11997500Y-18917024D01*
X12187977Y-19117024D02*
X12187977Y-19012262D01*
X12187977Y-19012262D02*
X12178453Y-18993214D01*
X12178453Y-18993214D02*
X12159405Y-18983690D01*
X12159405Y-18983690D02*
X12121310Y-18983690D01*
X12121310Y-18983690D02*
X12102262Y-18993214D01*
X12187977Y-19107500D02*
X12168929Y-19117024D01*
X12168929Y-19117024D02*
X12121310Y-19117024D01*
X12121310Y-19117024D02*
X12102262Y-19107500D01*
X12102262Y-19107500D02*
X12092739Y-19088452D01*
X12092739Y-19088452D02*
X12092739Y-19069405D01*
X12092739Y-19069405D02*
X12102262Y-19050357D01*
X12102262Y-19050357D02*
X12121310Y-19040833D01*
X12121310Y-19040833D02*
X12168929Y-19040833D01*
X12168929Y-19040833D02*
X12187977Y-19031310D01*
X12254643Y-18983690D02*
X12330834Y-18983690D01*
X12283215Y-18917024D02*
X12283215Y-19088452D01*
X12283215Y-19088452D02*
X12292739Y-19107500D01*
X12292739Y-19107500D02*
X12311786Y-19117024D01*
X12311786Y-19117024D02*
X12330834Y-19117024D01*
X12473691Y-19107500D02*
X12454643Y-19117024D01*
X12454643Y-19117024D02*
X12416548Y-19117024D01*
X12416548Y-19117024D02*
X12397500Y-19107500D01*
X12397500Y-19107500D02*
X12387977Y-19088452D01*
X12387977Y-19088452D02*
X12387977Y-19012262D01*
X12387977Y-19012262D02*
X12397500Y-18993214D01*
X12397500Y-18993214D02*
X12416548Y-18983690D01*
X12416548Y-18983690D02*
X12454643Y-18983690D01*
X12454643Y-18983690D02*
X12473691Y-18993214D01*
X12473691Y-18993214D02*
X12483215Y-19012262D01*
X12483215Y-19012262D02*
X12483215Y-19031310D01*
X12483215Y-19031310D02*
X12387977Y-19050357D01*
X12654643Y-19117024D02*
X12654643Y-18917024D01*
X12654643Y-19107500D02*
X12635596Y-19117024D01*
X12635596Y-19117024D02*
X12597500Y-19117024D01*
X12597500Y-19117024D02*
X12578453Y-19107500D01*
X12578453Y-19107500D02*
X12568929Y-19097976D01*
X12568929Y-19097976D02*
X12559405Y-19078929D01*
X12559405Y-19078929D02*
X12559405Y-19021786D01*
X12559405Y-19021786D02*
X12568929Y-19002738D01*
X12568929Y-19002738D02*
X12578453Y-18993214D01*
X12578453Y-18993214D02*
X12597500Y-18983690D01*
X12597500Y-18983690D02*
X12635596Y-18983690D01*
X12635596Y-18983690D02*
X12654643Y-18993214D01*
X12730834Y-19193214D02*
X12740358Y-19183690D01*
X12740358Y-19183690D02*
X12759405Y-19155119D01*
X12759405Y-19155119D02*
X12768929Y-19136071D01*
X12768929Y-19136071D02*
X12778453Y-19107500D01*
X12778453Y-19107500D02*
X12787977Y-19059881D01*
X12787977Y-19059881D02*
X12787977Y-19021786D01*
X12787977Y-19021786D02*
X12778453Y-18974167D01*
X12778453Y-18974167D02*
X12768929Y-18945595D01*
X12768929Y-18945595D02*
X12759405Y-18926548D01*
X12759405Y-18926548D02*
X12740358Y-18897976D01*
X12740358Y-18897976D02*
X12730834Y-18888452D01*
D16*
X5722500Y-19363500D02*
X5797500Y-19288500D01*
X5722500Y-19213500D01*
X5647500Y-19288500D01*
X5722500Y-19363500D01*
D11*
X6149881Y-19381024D02*
X6035595Y-19381024D01*
X6092738Y-19381024D02*
X6092738Y-19181024D01*
X6092738Y-19181024D02*
X6073690Y-19209595D01*
X6073690Y-19209595D02*
X6054643Y-19228643D01*
X6054643Y-19228643D02*
X6035595Y-19238167D01*
X6235595Y-19361976D02*
X6245119Y-19371500D01*
X6245119Y-19371500D02*
X6235595Y-19381024D01*
X6235595Y-19381024D02*
X6226071Y-19371500D01*
X6226071Y-19371500D02*
X6235595Y-19361976D01*
X6235595Y-19361976D02*
X6235595Y-19381024D01*
X6426071Y-19181024D02*
X6330833Y-19181024D01*
X6330833Y-19181024D02*
X6321309Y-19276262D01*
X6321309Y-19276262D02*
X6330833Y-19266738D01*
X6330833Y-19266738D02*
X6349881Y-19257214D01*
X6349881Y-19257214D02*
X6397500Y-19257214D01*
X6397500Y-19257214D02*
X6416548Y-19266738D01*
X6416548Y-19266738D02*
X6426071Y-19276262D01*
X6426071Y-19276262D02*
X6435595Y-19295310D01*
X6435595Y-19295310D02*
X6435595Y-19342929D01*
X6435595Y-19342929D02*
X6426071Y-19361976D01*
X6426071Y-19361976D02*
X6416548Y-19371500D01*
X6416548Y-19371500D02*
X6397500Y-19381024D01*
X6397500Y-19381024D02*
X6349881Y-19381024D01*
X6349881Y-19381024D02*
X6330833Y-19371500D01*
X6330833Y-19371500D02*
X6321309Y-19361976D01*
X6559405Y-19181024D02*
X6578452Y-19181024D01*
X6578452Y-19181024D02*
X6597500Y-19190548D01*
X6597500Y-19190548D02*
X6607024Y-19200071D01*
X6607024Y-19200071D02*
X6616548Y-19219119D01*
X6616548Y-19219119D02*
X6626071Y-19257214D01*
X6626071Y-19257214D02*
X6626071Y-19304833D01*
X6626071Y-19304833D02*
X6616548Y-19342929D01*
X6616548Y-19342929D02*
X6607024Y-19361976D01*
X6607024Y-19361976D02*
X6597500Y-19371500D01*
X6597500Y-19371500D02*
X6578452Y-19381024D01*
X6578452Y-19381024D02*
X6559405Y-19381024D01*
X6559405Y-19381024D02*
X6540357Y-19371500D01*
X6540357Y-19371500D02*
X6530833Y-19361976D01*
X6530833Y-19361976D02*
X6521309Y-19342929D01*
X6521309Y-19342929D02*
X6511786Y-19304833D01*
X6511786Y-19304833D02*
X6511786Y-19257214D01*
X6511786Y-19257214D02*
X6521309Y-19219119D01*
X6521309Y-19219119D02*
X6530833Y-19200071D01*
X6530833Y-19200071D02*
X6540357Y-19190548D01*
X6540357Y-19190548D02*
X6559405Y-19181024D01*
X6749881Y-19181024D02*
X6768929Y-19181024D01*
X6768929Y-19181024D02*
X6787976Y-19190548D01*
X6787976Y-19190548D02*
X6797500Y-19200071D01*
X6797500Y-19200071D02*
X6807024Y-19219119D01*
X6807024Y-19219119D02*
X6816548Y-19257214D01*
X6816548Y-19257214D02*
X6816548Y-19304833D01*
X6816548Y-19304833D02*
X6807024Y-19342929D01*
X6807024Y-19342929D02*
X6797500Y-19361976D01*
X6797500Y-19361976D02*
X6787976Y-19371500D01*
X6787976Y-19371500D02*
X6768929Y-19381024D01*
X6768929Y-19381024D02*
X6749881Y-19381024D01*
X6749881Y-19381024D02*
X6730833Y-19371500D01*
X6730833Y-19371500D02*
X6721309Y-19361976D01*
X6721309Y-19361976D02*
X6711786Y-19342929D01*
X6711786Y-19342929D02*
X6702262Y-19304833D01*
X6702262Y-19304833D02*
X6702262Y-19257214D01*
X6702262Y-19257214D02*
X6711786Y-19219119D01*
X6711786Y-19219119D02*
X6721309Y-19200071D01*
X6721309Y-19200071D02*
X6730833Y-19190548D01*
X6730833Y-19190548D02*
X6749881Y-19181024D01*
X6902262Y-19381024D02*
X6902262Y-19247690D01*
X6902262Y-19266738D02*
X6911786Y-19257214D01*
X6911786Y-19257214D02*
X6930833Y-19247690D01*
X6930833Y-19247690D02*
X6959405Y-19247690D01*
X6959405Y-19247690D02*
X6978452Y-19257214D01*
X6978452Y-19257214D02*
X6987976Y-19276262D01*
X6987976Y-19276262D02*
X6987976Y-19381024D01*
X6987976Y-19276262D02*
X6997500Y-19257214D01*
X6997500Y-19257214D02*
X7016548Y-19247690D01*
X7016548Y-19247690D02*
X7045119Y-19247690D01*
X7045119Y-19247690D02*
X7064167Y-19257214D01*
X7064167Y-19257214D02*
X7073690Y-19276262D01*
X7073690Y-19276262D02*
X7073690Y-19381024D01*
X7168929Y-19381024D02*
X7168929Y-19247690D01*
X7168929Y-19266738D02*
X7178452Y-19257214D01*
X7178452Y-19257214D02*
X7197500Y-19247690D01*
X7197500Y-19247690D02*
X7226071Y-19247690D01*
X7226071Y-19247690D02*
X7245119Y-19257214D01*
X7245119Y-19257214D02*
X7254643Y-19276262D01*
X7254643Y-19276262D02*
X7254643Y-19381024D01*
X7254643Y-19276262D02*
X7264167Y-19257214D01*
X7264167Y-19257214D02*
X7283214Y-19247690D01*
X7283214Y-19247690D02*
X7311786Y-19247690D01*
X7311786Y-19247690D02*
X7330833Y-19257214D01*
X7330833Y-19257214D02*
X7340357Y-19276262D01*
X7340357Y-19276262D02*
X7340357Y-19381024D01*
X7730833Y-19171500D02*
X7559405Y-19428643D01*
X7987976Y-19181024D02*
X8007024Y-19181024D01*
X8007024Y-19181024D02*
X8026072Y-19190548D01*
X8026072Y-19190548D02*
X8035595Y-19200071D01*
X8035595Y-19200071D02*
X8045119Y-19219119D01*
X8045119Y-19219119D02*
X8054643Y-19257214D01*
X8054643Y-19257214D02*
X8054643Y-19304833D01*
X8054643Y-19304833D02*
X8045119Y-19342929D01*
X8045119Y-19342929D02*
X8035595Y-19361976D01*
X8035595Y-19361976D02*
X8026072Y-19371500D01*
X8026072Y-19371500D02*
X8007024Y-19381024D01*
X8007024Y-19381024D02*
X7987976Y-19381024D01*
X7987976Y-19381024D02*
X7968929Y-19371500D01*
X7968929Y-19371500D02*
X7959405Y-19361976D01*
X7959405Y-19361976D02*
X7949881Y-19342929D01*
X7949881Y-19342929D02*
X7940357Y-19304833D01*
X7940357Y-19304833D02*
X7940357Y-19257214D01*
X7940357Y-19257214D02*
X7949881Y-19219119D01*
X7949881Y-19219119D02*
X7959405Y-19200071D01*
X7959405Y-19200071D02*
X7968929Y-19190548D01*
X7968929Y-19190548D02*
X7987976Y-19181024D01*
X8140357Y-19361976D02*
X8149881Y-19371500D01*
X8149881Y-19371500D02*
X8140357Y-19381024D01*
X8140357Y-19381024D02*
X8130833Y-19371500D01*
X8130833Y-19371500D02*
X8140357Y-19361976D01*
X8140357Y-19361976D02*
X8140357Y-19381024D01*
X8273691Y-19181024D02*
X8292738Y-19181024D01*
X8292738Y-19181024D02*
X8311786Y-19190548D01*
X8311786Y-19190548D02*
X8321310Y-19200071D01*
X8321310Y-19200071D02*
X8330833Y-19219119D01*
X8330833Y-19219119D02*
X8340357Y-19257214D01*
X8340357Y-19257214D02*
X8340357Y-19304833D01*
X8340357Y-19304833D02*
X8330833Y-19342929D01*
X8330833Y-19342929D02*
X8321310Y-19361976D01*
X8321310Y-19361976D02*
X8311786Y-19371500D01*
X8311786Y-19371500D02*
X8292738Y-19381024D01*
X8292738Y-19381024D02*
X8273691Y-19381024D01*
X8273691Y-19381024D02*
X8254643Y-19371500D01*
X8254643Y-19371500D02*
X8245119Y-19361976D01*
X8245119Y-19361976D02*
X8235595Y-19342929D01*
X8235595Y-19342929D02*
X8226072Y-19304833D01*
X8226072Y-19304833D02*
X8226072Y-19257214D01*
X8226072Y-19257214D02*
X8235595Y-19219119D01*
X8235595Y-19219119D02*
X8245119Y-19200071D01*
X8245119Y-19200071D02*
X8254643Y-19190548D01*
X8254643Y-19190548D02*
X8273691Y-19181024D01*
X8521310Y-19181024D02*
X8426072Y-19181024D01*
X8426072Y-19181024D02*
X8416548Y-19276262D01*
X8416548Y-19276262D02*
X8426072Y-19266738D01*
X8426072Y-19266738D02*
X8445119Y-19257214D01*
X8445119Y-19257214D02*
X8492738Y-19257214D01*
X8492738Y-19257214D02*
X8511786Y-19266738D01*
X8511786Y-19266738D02*
X8521310Y-19276262D01*
X8521310Y-19276262D02*
X8530834Y-19295310D01*
X8530834Y-19295310D02*
X8530834Y-19342929D01*
X8530834Y-19342929D02*
X8521310Y-19361976D01*
X8521310Y-19361976D02*
X8511786Y-19371500D01*
X8511786Y-19371500D02*
X8492738Y-19381024D01*
X8492738Y-19381024D02*
X8445119Y-19381024D01*
X8445119Y-19381024D02*
X8426072Y-19371500D01*
X8426072Y-19371500D02*
X8416548Y-19361976D01*
X8626072Y-19381024D02*
X8664167Y-19381024D01*
X8664167Y-19381024D02*
X8683215Y-19371500D01*
X8683215Y-19371500D02*
X8692738Y-19361976D01*
X8692738Y-19361976D02*
X8711786Y-19333405D01*
X8711786Y-19333405D02*
X8721310Y-19295310D01*
X8721310Y-19295310D02*
X8721310Y-19219119D01*
X8721310Y-19219119D02*
X8711786Y-19200071D01*
X8711786Y-19200071D02*
X8702262Y-19190548D01*
X8702262Y-19190548D02*
X8683215Y-19181024D01*
X8683215Y-19181024D02*
X8645119Y-19181024D01*
X8645119Y-19181024D02*
X8626072Y-19190548D01*
X8626072Y-19190548D02*
X8616548Y-19200071D01*
X8616548Y-19200071D02*
X8607024Y-19219119D01*
X8607024Y-19219119D02*
X8607024Y-19266738D01*
X8607024Y-19266738D02*
X8616548Y-19285786D01*
X8616548Y-19285786D02*
X8626072Y-19295310D01*
X8626072Y-19295310D02*
X8645119Y-19304833D01*
X8645119Y-19304833D02*
X8683215Y-19304833D01*
X8683215Y-19304833D02*
X8702262Y-19295310D01*
X8702262Y-19295310D02*
X8711786Y-19285786D01*
X8711786Y-19285786D02*
X8721310Y-19266738D01*
X8911786Y-19381024D02*
X8797500Y-19381024D01*
X8854643Y-19381024D02*
X8854643Y-19181024D01*
X8854643Y-19181024D02*
X8835595Y-19209595D01*
X8835595Y-19209595D02*
X8816548Y-19228643D01*
X8816548Y-19228643D02*
X8797500Y-19238167D01*
X8987976Y-19181024D02*
X8987976Y-19219119D01*
X9064167Y-19181024D02*
X9064167Y-19219119D01*
X9359405Y-19457214D02*
X9349881Y-19447690D01*
X9349881Y-19447690D02*
X9330834Y-19419119D01*
X9330834Y-19419119D02*
X9321310Y-19400071D01*
X9321310Y-19400071D02*
X9311786Y-19371500D01*
X9311786Y-19371500D02*
X9302262Y-19323881D01*
X9302262Y-19323881D02*
X9302262Y-19285786D01*
X9302262Y-19285786D02*
X9311786Y-19238167D01*
X9311786Y-19238167D02*
X9321310Y-19209595D01*
X9321310Y-19209595D02*
X9330834Y-19190548D01*
X9330834Y-19190548D02*
X9349881Y-19161976D01*
X9349881Y-19161976D02*
X9359405Y-19152452D01*
X9464167Y-19266738D02*
X9445119Y-19257214D01*
X9445119Y-19257214D02*
X9435596Y-19247690D01*
X9435596Y-19247690D02*
X9426072Y-19228643D01*
X9426072Y-19228643D02*
X9426072Y-19219119D01*
X9426072Y-19219119D02*
X9435596Y-19200071D01*
X9435596Y-19200071D02*
X9445119Y-19190548D01*
X9445119Y-19190548D02*
X9464167Y-19181024D01*
X9464167Y-19181024D02*
X9502262Y-19181024D01*
X9502262Y-19181024D02*
X9521310Y-19190548D01*
X9521310Y-19190548D02*
X9530834Y-19200071D01*
X9530834Y-19200071D02*
X9540357Y-19219119D01*
X9540357Y-19219119D02*
X9540357Y-19228643D01*
X9540357Y-19228643D02*
X9530834Y-19247690D01*
X9530834Y-19247690D02*
X9521310Y-19257214D01*
X9521310Y-19257214D02*
X9502262Y-19266738D01*
X9502262Y-19266738D02*
X9464167Y-19266738D01*
X9464167Y-19266738D02*
X9445119Y-19276262D01*
X9445119Y-19276262D02*
X9435596Y-19285786D01*
X9435596Y-19285786D02*
X9426072Y-19304833D01*
X9426072Y-19304833D02*
X9426072Y-19342929D01*
X9426072Y-19342929D02*
X9435596Y-19361976D01*
X9435596Y-19361976D02*
X9445119Y-19371500D01*
X9445119Y-19371500D02*
X9464167Y-19381024D01*
X9464167Y-19381024D02*
X9502262Y-19381024D01*
X9502262Y-19381024D02*
X9521310Y-19371500D01*
X9521310Y-19371500D02*
X9530834Y-19361976D01*
X9530834Y-19361976D02*
X9540357Y-19342929D01*
X9540357Y-19342929D02*
X9540357Y-19304833D01*
X9540357Y-19304833D02*
X9530834Y-19285786D01*
X9530834Y-19285786D02*
X9521310Y-19276262D01*
X9521310Y-19276262D02*
X9502262Y-19266738D01*
X9778453Y-19381024D02*
X9778453Y-19181024D01*
X9864167Y-19381024D02*
X9864167Y-19276262D01*
X9864167Y-19276262D02*
X9854643Y-19257214D01*
X9854643Y-19257214D02*
X9835596Y-19247690D01*
X9835596Y-19247690D02*
X9807024Y-19247690D01*
X9807024Y-19247690D02*
X9787977Y-19257214D01*
X9787977Y-19257214D02*
X9778453Y-19266738D01*
X9987977Y-19381024D02*
X9968929Y-19371500D01*
X9968929Y-19371500D02*
X9959405Y-19361976D01*
X9959405Y-19361976D02*
X9949881Y-19342929D01*
X9949881Y-19342929D02*
X9949881Y-19285786D01*
X9949881Y-19285786D02*
X9959405Y-19266738D01*
X9959405Y-19266738D02*
X9968929Y-19257214D01*
X9968929Y-19257214D02*
X9987977Y-19247690D01*
X9987977Y-19247690D02*
X10016548Y-19247690D01*
X10016548Y-19247690D02*
X10035596Y-19257214D01*
X10035596Y-19257214D02*
X10045119Y-19266738D01*
X10045119Y-19266738D02*
X10054643Y-19285786D01*
X10054643Y-19285786D02*
X10054643Y-19342929D01*
X10054643Y-19342929D02*
X10045119Y-19361976D01*
X10045119Y-19361976D02*
X10035596Y-19371500D01*
X10035596Y-19371500D02*
X10016548Y-19381024D01*
X10016548Y-19381024D02*
X9987977Y-19381024D01*
X10168929Y-19381024D02*
X10149881Y-19371500D01*
X10149881Y-19371500D02*
X10140358Y-19352452D01*
X10140358Y-19352452D02*
X10140358Y-19181024D01*
X10321310Y-19371500D02*
X10302262Y-19381024D01*
X10302262Y-19381024D02*
X10264167Y-19381024D01*
X10264167Y-19381024D02*
X10245119Y-19371500D01*
X10245119Y-19371500D02*
X10235596Y-19352452D01*
X10235596Y-19352452D02*
X10235596Y-19276262D01*
X10235596Y-19276262D02*
X10245119Y-19257214D01*
X10245119Y-19257214D02*
X10264167Y-19247690D01*
X10264167Y-19247690D02*
X10302262Y-19247690D01*
X10302262Y-19247690D02*
X10321310Y-19257214D01*
X10321310Y-19257214D02*
X10330834Y-19276262D01*
X10330834Y-19276262D02*
X10330834Y-19295310D01*
X10330834Y-19295310D02*
X10235596Y-19314357D01*
X10407024Y-19371500D02*
X10426072Y-19381024D01*
X10426072Y-19381024D02*
X10464167Y-19381024D01*
X10464167Y-19381024D02*
X10483215Y-19371500D01*
X10483215Y-19371500D02*
X10492739Y-19352452D01*
X10492739Y-19352452D02*
X10492739Y-19342929D01*
X10492739Y-19342929D02*
X10483215Y-19323881D01*
X10483215Y-19323881D02*
X10464167Y-19314357D01*
X10464167Y-19314357D02*
X10435596Y-19314357D01*
X10435596Y-19314357D02*
X10416548Y-19304833D01*
X10416548Y-19304833D02*
X10407024Y-19285786D01*
X10407024Y-19285786D02*
X10407024Y-19276262D01*
X10407024Y-19276262D02*
X10416548Y-19257214D01*
X10416548Y-19257214D02*
X10435596Y-19247690D01*
X10435596Y-19247690D02*
X10464167Y-19247690D01*
X10464167Y-19247690D02*
X10483215Y-19257214D01*
X10559405Y-19457214D02*
X10568929Y-19447690D01*
X10568929Y-19447690D02*
X10587977Y-19419119D01*
X10587977Y-19419119D02*
X10597500Y-19400071D01*
X10597500Y-19400071D02*
X10607024Y-19371500D01*
X10607024Y-19371500D02*
X10616548Y-19323881D01*
X10616548Y-19323881D02*
X10616548Y-19285786D01*
X10616548Y-19285786D02*
X10607024Y-19238167D01*
X10607024Y-19238167D02*
X10597500Y-19209595D01*
X10597500Y-19209595D02*
X10587977Y-19190548D01*
X10587977Y-19190548D02*
X10568929Y-19161976D01*
X10568929Y-19161976D02*
X10559405Y-19152452D01*
X10921310Y-19457214D02*
X10911786Y-19447690D01*
X10911786Y-19447690D02*
X10892739Y-19419119D01*
X10892739Y-19419119D02*
X10883215Y-19400071D01*
X10883215Y-19400071D02*
X10873691Y-19371500D01*
X10873691Y-19371500D02*
X10864167Y-19323881D01*
X10864167Y-19323881D02*
X10864167Y-19285786D01*
X10864167Y-19285786D02*
X10873691Y-19238167D01*
X10873691Y-19238167D02*
X10883215Y-19209595D01*
X10883215Y-19209595D02*
X10892739Y-19190548D01*
X10892739Y-19190548D02*
X10911786Y-19161976D01*
X10911786Y-19161976D02*
X10921310Y-19152452D01*
X10997500Y-19247690D02*
X10997500Y-19381024D01*
X10997500Y-19266738D02*
X11007024Y-19257214D01*
X11007024Y-19257214D02*
X11026072Y-19247690D01*
X11026072Y-19247690D02*
X11054643Y-19247690D01*
X11054643Y-19247690D02*
X11073691Y-19257214D01*
X11073691Y-19257214D02*
X11083215Y-19276262D01*
X11083215Y-19276262D02*
X11083215Y-19381024D01*
X11207024Y-19381024D02*
X11187977Y-19371500D01*
X11187977Y-19371500D02*
X11178453Y-19361976D01*
X11178453Y-19361976D02*
X11168929Y-19342929D01*
X11168929Y-19342929D02*
X11168929Y-19285786D01*
X11168929Y-19285786D02*
X11178453Y-19266738D01*
X11178453Y-19266738D02*
X11187977Y-19257214D01*
X11187977Y-19257214D02*
X11207024Y-19247690D01*
X11207024Y-19247690D02*
X11235596Y-19247690D01*
X11235596Y-19247690D02*
X11254643Y-19257214D01*
X11254643Y-19257214D02*
X11264167Y-19266738D01*
X11264167Y-19266738D02*
X11273691Y-19285786D01*
X11273691Y-19285786D02*
X11273691Y-19342929D01*
X11273691Y-19342929D02*
X11264167Y-19361976D01*
X11264167Y-19361976D02*
X11254643Y-19371500D01*
X11254643Y-19371500D02*
X11235596Y-19381024D01*
X11235596Y-19381024D02*
X11207024Y-19381024D01*
X11330834Y-19247690D02*
X11407024Y-19247690D01*
X11359405Y-19181024D02*
X11359405Y-19352452D01*
X11359405Y-19352452D02*
X11368929Y-19371500D01*
X11368929Y-19371500D02*
X11387977Y-19381024D01*
X11387977Y-19381024D02*
X11407024Y-19381024D01*
X11626072Y-19247690D02*
X11626072Y-19447690D01*
X11626072Y-19257214D02*
X11645119Y-19247690D01*
X11645119Y-19247690D02*
X11683215Y-19247690D01*
X11683215Y-19247690D02*
X11702262Y-19257214D01*
X11702262Y-19257214D02*
X11711786Y-19266738D01*
X11711786Y-19266738D02*
X11721310Y-19285786D01*
X11721310Y-19285786D02*
X11721310Y-19342929D01*
X11721310Y-19342929D02*
X11711786Y-19361976D01*
X11711786Y-19361976D02*
X11702262Y-19371500D01*
X11702262Y-19371500D02*
X11683215Y-19381024D01*
X11683215Y-19381024D02*
X11645119Y-19381024D01*
X11645119Y-19381024D02*
X11626072Y-19371500D01*
X11835596Y-19381024D02*
X11816548Y-19371500D01*
X11816548Y-19371500D02*
X11807024Y-19352452D01*
X11807024Y-19352452D02*
X11807024Y-19181024D01*
X11997500Y-19381024D02*
X11997500Y-19276262D01*
X11997500Y-19276262D02*
X11987977Y-19257214D01*
X11987977Y-19257214D02*
X11968929Y-19247690D01*
X11968929Y-19247690D02*
X11930834Y-19247690D01*
X11930834Y-19247690D02*
X11911786Y-19257214D01*
X11997500Y-19371500D02*
X11978453Y-19381024D01*
X11978453Y-19381024D02*
X11930834Y-19381024D01*
X11930834Y-19381024D02*
X11911786Y-19371500D01*
X11911786Y-19371500D02*
X11902262Y-19352452D01*
X11902262Y-19352452D02*
X11902262Y-19333405D01*
X11902262Y-19333405D02*
X11911786Y-19314357D01*
X11911786Y-19314357D02*
X11930834Y-19304833D01*
X11930834Y-19304833D02*
X11978453Y-19304833D01*
X11978453Y-19304833D02*
X11997500Y-19295310D01*
X12064167Y-19247690D02*
X12140358Y-19247690D01*
X12092739Y-19181024D02*
X12092739Y-19352452D01*
X12092739Y-19352452D02*
X12102262Y-19371500D01*
X12102262Y-19371500D02*
X12121310Y-19381024D01*
X12121310Y-19381024D02*
X12140358Y-19381024D01*
X12283215Y-19371500D02*
X12264167Y-19381024D01*
X12264167Y-19381024D02*
X12226072Y-19381024D01*
X12226072Y-19381024D02*
X12207024Y-19371500D01*
X12207024Y-19371500D02*
X12197500Y-19352452D01*
X12197500Y-19352452D02*
X12197500Y-19276262D01*
X12197500Y-19276262D02*
X12207024Y-19257214D01*
X12207024Y-19257214D02*
X12226072Y-19247690D01*
X12226072Y-19247690D02*
X12264167Y-19247690D01*
X12264167Y-19247690D02*
X12283215Y-19257214D01*
X12283215Y-19257214D02*
X12292739Y-19276262D01*
X12292739Y-19276262D02*
X12292739Y-19295310D01*
X12292739Y-19295310D02*
X12197500Y-19314357D01*
X12464167Y-19381024D02*
X12464167Y-19181024D01*
X12464167Y-19371500D02*
X12445120Y-19381024D01*
X12445120Y-19381024D02*
X12407024Y-19381024D01*
X12407024Y-19381024D02*
X12387977Y-19371500D01*
X12387977Y-19371500D02*
X12378453Y-19361976D01*
X12378453Y-19361976D02*
X12368929Y-19342929D01*
X12368929Y-19342929D02*
X12368929Y-19285786D01*
X12368929Y-19285786D02*
X12378453Y-19266738D01*
X12378453Y-19266738D02*
X12387977Y-19257214D01*
X12387977Y-19257214D02*
X12407024Y-19247690D01*
X12407024Y-19247690D02*
X12445120Y-19247690D01*
X12445120Y-19247690D02*
X12464167Y-19257214D01*
X12540358Y-19457214D02*
X12549881Y-19447690D01*
X12549881Y-19447690D02*
X12568929Y-19419119D01*
X12568929Y-19419119D02*
X12578453Y-19400071D01*
X12578453Y-19400071D02*
X12587977Y-19371500D01*
X12587977Y-19371500D02*
X12597500Y-19323881D01*
X12597500Y-19323881D02*
X12597500Y-19285786D01*
X12597500Y-19285786D02*
X12587977Y-19238167D01*
X12587977Y-19238167D02*
X12578453Y-19209595D01*
X12578453Y-19209595D02*
X12568929Y-19190548D01*
X12568929Y-19190548D02*
X12549881Y-19161976D01*
X12549881Y-19161976D02*
X12540358Y-19152452D01*
M02*
