M48
INCH,TZ
T1C0.0240
T2C0.0291
T3C0.0394
T4C0.0500
T5C0.0591
%
G90
G05
T1
X30939Y-64952
X30939Y-65452
X30939Y-67552
X30939Y-68052
X31439Y-64952
X31439Y-65452
X31439Y-67552
X31439Y-68052
X31939Y-64952
X31939Y-65452
X31939Y-67552
X31939Y-68052
X32439Y-64952
X32439Y-65452
X32439Y-67552
X32439Y-68052
X32939Y-64952
X32939Y-65452
X32939Y-67552
X32939Y-68052
X33439Y-64952
X33439Y-65452
X33439Y-67552
X33439Y-68052
X33939Y-64952
X33939Y-65452
X33939Y-67552
X33939Y-68052
X34439Y-64952
X34439Y-65452
X34439Y-67552
X34439Y-68052
X34939Y-64952
X34939Y-65452
X34939Y-67552
X34939Y-68052
X35439Y-64952
X35439Y-65452
X35439Y-67552
X35439Y-68052
X35939Y-64952
X35939Y-65452
X35939Y-67552
X35939Y-68052
X36439Y-64952
X36439Y-65452
X36439Y-67552
X36439Y-68052
X36939Y-64952
X36939Y-65452
X36939Y-67552
X36939Y-68052
X37439Y-64952
X37439Y-65452
X37439Y-67552
X37439Y-68052
X37939Y-64952
X37939Y-65452
X37939Y-67552
X37939Y-68052
X38439Y-64952
X38439Y-65452
X38439Y-67552
X38439Y-68052
X38939Y-64952
X38939Y-65452
X38939Y-67552
X38939Y-68052
X39439Y-64952
X39439Y-65452
X39439Y-67552
X39439Y-68052
X39939Y-64952
X39939Y-65452
X39939Y-67552
X39939Y-68052
X40439Y-64952
X40439Y-65452
X40439Y-67552
X40439Y-68052
X40939Y-64952
X40939Y-65452
X40939Y-67552
X40939Y-68052
X41439Y-64952
X41439Y-65452
X41439Y-67552
X41439Y-68052
X41939Y-64952
X41939Y-65452
X41939Y-67552
X41939Y-68052
X42439Y-64952
X42439Y-65452
X42439Y-67552
X42439Y-68052
X42939Y-64952
X42939Y-65452
X42939Y-67552
X42939Y-68052
X43439Y-64952
X43439Y-65452
X43439Y-67552
X43439Y-68052
X43939Y-64952
X43939Y-65452
X43939Y-67552
X43939Y-68052
X44439Y-64952
X44439Y-65452
X44439Y-67552
X44439Y-68052
X44939Y-64952
X44939Y-65452
X44939Y-67552
X44939Y-68052
X45439Y-64952
X45439Y-65452
X45439Y-67552
X45439Y-68052
T2
X31189Y-65202
X31189Y-67802
X45189Y-65202
X45189Y-67802
T3
X23650Y-20472
X23650Y-26378
X23650Y-32283
X23650Y-38189
X23650Y-44094
X23650Y-50000
X23650Y-55906
X23650Y-61811
X24201Y-19606
X24201Y-25512
X24201Y-31417
X24201Y-37323
X24201Y-43228
X24201Y-49134
X24201Y-55039
X24201Y-60945
X25146Y-20472
X25146Y-26378
X25146Y-32283
X25146Y-38189
X25146Y-44094
X25146Y-50000
X25146Y-55906
X25146Y-61811
X26642Y-20472
X26642Y-26378
X26642Y-32283
X26642Y-38189
X26642Y-44094
X26642Y-50000
X26642Y-55906
X26642Y-61811
T4
X27677Y-20630
X27677Y-26535
X27677Y-32441
X27677Y-38346
X27677Y-44252
X27677Y-50157
X27677Y-56063
X27677Y-61969
X48701Y-20039
X48701Y-25945
X48701Y-31850
X48701Y-37756
X48701Y-43661
X48701Y-49567
X48701Y-55472
X48701Y-61378
T5
X25894Y-19453
X25894Y-25358
X25894Y-31264
X25894Y-37169
X25894Y-43075
X25894Y-48980
X25894Y-54886
X25894Y-60791
T0
M30
