G04 #@! TF.GenerationSoftware,KiCad,Pcbnew,(6.0.5)*
G04 #@! TF.CreationDate,2022-05-19T10:27:32-04:00*
G04 #@! TF.ProjectId,backplane,6261636b-706c-4616-9e65-2e6b69636164,C*
G04 #@! TF.SameCoordinates,Original*
G04 #@! TF.FileFunction,Soldermask,Top*
G04 #@! TF.FilePolarity,Negative*
%FSLAX46Y46*%
G04 Gerber Fmt 4.6, Leading zero omitted, Abs format (unit mm)*
G04 Created by KiCad (PCBNEW (6.0.5)) date 2022-05-19 10:27:32*
%MOMM*%
%LPD*%
G01*
G04 APERTURE LIST*
G04 Aperture macros list*
%AMRoundRect*
0 Rectangle with rounded corners*
0 $1 Rounding radius*
0 $2 $3 $4 $5 $6 $7 $8 $9 X,Y pos of 4 corners*
0 Add a 4 corners polygon primitive as box body*
4,1,4,$2,$3,$4,$5,$6,$7,$8,$9,$2,$3,0*
0 Add four circle primitives for the rounded corners*
1,1,$1+$1,$2,$3*
1,1,$1+$1,$4,$5*
1,1,$1+$1,$6,$7*
1,1,$1+$1,$8,$9*
0 Add four rect primitives between the rounded corners*
20,1,$1+$1,$2,$3,$4,$5,0*
20,1,$1+$1,$4,$5,$6,$7,0*
20,1,$1+$1,$6,$7,$8,$9,0*
20,1,$1+$1,$8,$9,$2,$3,0*%
G04 Aperture macros list end*
%ADD10C,0.100000*%
%ADD11C,0.150000*%
%ADD12C,0.300000*%
%ADD13C,0.400000*%
%ADD14C,0.125000*%
%ADD15RoundRect,0.140000X0.170000X-0.140000X0.170000X0.140000X-0.170000X0.140000X-0.170000X-0.140000X0*%
%ADD16RoundRect,0.140000X0.140000X0.170000X-0.140000X0.170000X-0.140000X-0.170000X0.140000X-0.170000X0*%
%ADD17RoundRect,0.140000X-0.140000X-0.170000X0.140000X-0.170000X0.140000X0.170000X-0.140000X0.170000X0*%
%ADD18C,1.270000*%
%ADD19C,1.000000*%
%ADD20C,1.500000*%
%ADD21R,0.500000X1.200000*%
%ADD22C,5.334000*%
%ADD23RoundRect,0.200000X-0.275000X0.200000X-0.275000X-0.200000X0.275000X-0.200000X0.275000X0.200000X0*%
%ADD24C,0.609600*%
%ADD25C,0.740000*%
%ADD26R,0.740000X1.470000*%
%ADD27R,0.700000X0.450000*%
%ADD28RoundRect,0.135000X-0.135000X-0.185000X0.135000X-0.185000X0.135000X0.185000X-0.135000X0.185000X0*%
%ADD29RoundRect,0.135000X0.135000X0.185000X-0.135000X0.185000X-0.135000X-0.185000X0.135000X-0.185000X0*%
%ADD30RoundRect,0.187500X0.237500X0.187500X-0.237500X0.187500X-0.237500X-0.187500X0.237500X-0.187500X0*%
%ADD31RoundRect,0.225000X-0.250000X0.225000X-0.250000X-0.225000X0.250000X-0.225000X0.250000X0.225000X0*%
%ADD32R,0.600000X2.025000*%
%ADD33R,0.800000X2.275000*%
%ADD34R,2.025000X0.600000*%
%ADD35R,2.275000X0.800000*%
G04 APERTURE END LIST*
D10*
D11*
X159400000Y-171900000D02*
X159400000Y-203900000D01*
X267400000Y-203900000D01*
X267400000Y-171900000D01*
X159400000Y-171900000D01*
D10*
D11*
X10000000Y-10000000D02*
X10000000Y-205900000D01*
X269400000Y-205900000D01*
X269400000Y-10000000D01*
X10000000Y-10000000D01*
D10*
D11*
X12000000Y-12000000D02*
X12000000Y-203900000D01*
X267400000Y-203900000D01*
X267400000Y-12000000D01*
X12000000Y-12000000D01*
D10*
D11*
X60000000Y-12000000D02*
X60000000Y-10000000D01*
D10*
D11*
X110000000Y-12000000D02*
X110000000Y-10000000D01*
D10*
D11*
X160000000Y-12000000D02*
X160000000Y-10000000D01*
D10*
D11*
X210000000Y-12000000D02*
X210000000Y-10000000D01*
D10*
D11*
X260000000Y-12000000D02*
X260000000Y-10000000D01*
D10*
D11*
X36065476Y-11588095D02*
X35322619Y-11588095D01*
X35694047Y-11588095D02*
X35694047Y-10288095D01*
X35570238Y-10473809D01*
X35446428Y-10597619D01*
X35322619Y-10659523D01*
D10*
D11*
X85322619Y-10411904D02*
X85384523Y-10350000D01*
X85508333Y-10288095D01*
X85817857Y-10288095D01*
X85941666Y-10350000D01*
X86003571Y-10411904D01*
X86065476Y-10535714D01*
X86065476Y-10659523D01*
X86003571Y-10845238D01*
X85260714Y-11588095D01*
X86065476Y-11588095D01*
D10*
D11*
X135260714Y-10288095D02*
X136065476Y-10288095D01*
X135632142Y-10783333D01*
X135817857Y-10783333D01*
X135941666Y-10845238D01*
X136003571Y-10907142D01*
X136065476Y-11030952D01*
X136065476Y-11340476D01*
X136003571Y-11464285D01*
X135941666Y-11526190D01*
X135817857Y-11588095D01*
X135446428Y-11588095D01*
X135322619Y-11526190D01*
X135260714Y-11464285D01*
D10*
D11*
X185941666Y-10721428D02*
X185941666Y-11588095D01*
X185632142Y-10226190D02*
X185322619Y-11154761D01*
X186127380Y-11154761D01*
D10*
D11*
X236003571Y-10288095D02*
X235384523Y-10288095D01*
X235322619Y-10907142D01*
X235384523Y-10845238D01*
X235508333Y-10783333D01*
X235817857Y-10783333D01*
X235941666Y-10845238D01*
X236003571Y-10907142D01*
X236065476Y-11030952D01*
X236065476Y-11340476D01*
X236003571Y-11464285D01*
X235941666Y-11526190D01*
X235817857Y-11588095D01*
X235508333Y-11588095D01*
X235384523Y-11526190D01*
X235322619Y-11464285D01*
D10*
D11*
X60000000Y-203900000D02*
X60000000Y-205900000D01*
D10*
D11*
X110000000Y-203900000D02*
X110000000Y-205900000D01*
D10*
D11*
X160000000Y-203900000D02*
X160000000Y-205900000D01*
D10*
D11*
X210000000Y-203900000D02*
X210000000Y-205900000D01*
D10*
D11*
X260000000Y-203900000D02*
X260000000Y-205900000D01*
D10*
D11*
X36065476Y-205488095D02*
X35322619Y-205488095D01*
X35694047Y-205488095D02*
X35694047Y-204188095D01*
X35570238Y-204373809D01*
X35446428Y-204497619D01*
X35322619Y-204559523D01*
D10*
D11*
X85322619Y-204311904D02*
X85384523Y-204250000D01*
X85508333Y-204188095D01*
X85817857Y-204188095D01*
X85941666Y-204250000D01*
X86003571Y-204311904D01*
X86065476Y-204435714D01*
X86065476Y-204559523D01*
X86003571Y-204745238D01*
X85260714Y-205488095D01*
X86065476Y-205488095D01*
D10*
D11*
X135260714Y-204188095D02*
X136065476Y-204188095D01*
X135632142Y-204683333D01*
X135817857Y-204683333D01*
X135941666Y-204745238D01*
X136003571Y-204807142D01*
X136065476Y-204930952D01*
X136065476Y-205240476D01*
X136003571Y-205364285D01*
X135941666Y-205426190D01*
X135817857Y-205488095D01*
X135446428Y-205488095D01*
X135322619Y-205426190D01*
X135260714Y-205364285D01*
D10*
D11*
X185941666Y-204621428D02*
X185941666Y-205488095D01*
X185632142Y-204126190D02*
X185322619Y-205054761D01*
X186127380Y-205054761D01*
D10*
D11*
X236003571Y-204188095D02*
X235384523Y-204188095D01*
X235322619Y-204807142D01*
X235384523Y-204745238D01*
X235508333Y-204683333D01*
X235817857Y-204683333D01*
X235941666Y-204745238D01*
X236003571Y-204807142D01*
X236065476Y-204930952D01*
X236065476Y-205240476D01*
X236003571Y-205364285D01*
X235941666Y-205426190D01*
X235817857Y-205488095D01*
X235508333Y-205488095D01*
X235384523Y-205426190D01*
X235322619Y-205364285D01*
D10*
D11*
X10000000Y-60000000D02*
X12000000Y-60000000D01*
D10*
D11*
X10000000Y-110000000D02*
X12000000Y-110000000D01*
D10*
D11*
X10000000Y-160000000D02*
X12000000Y-160000000D01*
D10*
D11*
X10690476Y-35216666D02*
X11309523Y-35216666D01*
X10566666Y-35588095D02*
X11000000Y-34288095D01*
X11433333Y-35588095D01*
D10*
D11*
X11092857Y-84907142D02*
X11278571Y-84969047D01*
X11340476Y-85030952D01*
X11402380Y-85154761D01*
X11402380Y-85340476D01*
X11340476Y-85464285D01*
X11278571Y-85526190D01*
X11154761Y-85588095D01*
X10659523Y-85588095D01*
X10659523Y-84288095D01*
X11092857Y-84288095D01*
X11216666Y-84350000D01*
X11278571Y-84411904D01*
X11340476Y-84535714D01*
X11340476Y-84659523D01*
X11278571Y-84783333D01*
X11216666Y-84845238D01*
X11092857Y-84907142D01*
X10659523Y-84907142D01*
D10*
D11*
X11402380Y-135464285D02*
X11340476Y-135526190D01*
X11154761Y-135588095D01*
X11030952Y-135588095D01*
X10845238Y-135526190D01*
X10721428Y-135402380D01*
X10659523Y-135278571D01*
X10597619Y-135030952D01*
X10597619Y-134845238D01*
X10659523Y-134597619D01*
X10721428Y-134473809D01*
X10845238Y-134350000D01*
X11030952Y-134288095D01*
X11154761Y-134288095D01*
X11340476Y-134350000D01*
X11402380Y-134411904D01*
D10*
D11*
X10659523Y-185588095D02*
X10659523Y-184288095D01*
X10969047Y-184288095D01*
X11154761Y-184350000D01*
X11278571Y-184473809D01*
X11340476Y-184597619D01*
X11402380Y-184845238D01*
X11402380Y-185030952D01*
X11340476Y-185278571D01*
X11278571Y-185402380D01*
X11154761Y-185526190D01*
X10969047Y-185588095D01*
X10659523Y-185588095D01*
D10*
D11*
X269400000Y-60000000D02*
X267400000Y-60000000D01*
D10*
D11*
X269400000Y-110000000D02*
X267400000Y-110000000D01*
D10*
D11*
X269400000Y-160000000D02*
X267400000Y-160000000D01*
D10*
D11*
X268090476Y-35216666D02*
X268709523Y-35216666D01*
X267966666Y-35588095D02*
X268400000Y-34288095D01*
X268833333Y-35588095D01*
D10*
D11*
X268492857Y-84907142D02*
X268678571Y-84969047D01*
X268740476Y-85030952D01*
X268802380Y-85154761D01*
X268802380Y-85340476D01*
X268740476Y-85464285D01*
X268678571Y-85526190D01*
X268554761Y-85588095D01*
X268059523Y-85588095D01*
X268059523Y-84288095D01*
X268492857Y-84288095D01*
X268616666Y-84350000D01*
X268678571Y-84411904D01*
X268740476Y-84535714D01*
X268740476Y-84659523D01*
X268678571Y-84783333D01*
X268616666Y-84845238D01*
X268492857Y-84907142D01*
X268059523Y-84907142D01*
D10*
D11*
X268802380Y-135464285D02*
X268740476Y-135526190D01*
X268554761Y-135588095D01*
X268430952Y-135588095D01*
X268245238Y-135526190D01*
X268121428Y-135402380D01*
X268059523Y-135278571D01*
X267997619Y-135030952D01*
X267997619Y-134845238D01*
X268059523Y-134597619D01*
X268121428Y-134473809D01*
X268245238Y-134350000D01*
X268430952Y-134288095D01*
X268554761Y-134288095D01*
X268740476Y-134350000D01*
X268802380Y-134411904D01*
D10*
D11*
X268059523Y-185588095D02*
X268059523Y-184288095D01*
X268369047Y-184288095D01*
X268554761Y-184350000D01*
X268678571Y-184473809D01*
X268740476Y-184597619D01*
X268802380Y-184845238D01*
X268802380Y-185030952D01*
X268740476Y-185278571D01*
X268678571Y-185402380D01*
X268554761Y-185526190D01*
X268369047Y-185588095D01*
X268059523Y-185588095D01*
D10*
D11*
X182832142Y-199678571D02*
X182832142Y-198178571D01*
X183189285Y-198178571D01*
X183403571Y-198250000D01*
X183546428Y-198392857D01*
X183617857Y-198535714D01*
X183689285Y-198821428D01*
X183689285Y-199035714D01*
X183617857Y-199321428D01*
X183546428Y-199464285D01*
X183403571Y-199607142D01*
X183189285Y-199678571D01*
X182832142Y-199678571D01*
X184975000Y-199678571D02*
X184975000Y-198892857D01*
X184903571Y-198750000D01*
X184760714Y-198678571D01*
X184475000Y-198678571D01*
X184332142Y-198750000D01*
X184975000Y-199607142D02*
X184832142Y-199678571D01*
X184475000Y-199678571D01*
X184332142Y-199607142D01*
X184260714Y-199464285D01*
X184260714Y-199321428D01*
X184332142Y-199178571D01*
X184475000Y-199107142D01*
X184832142Y-199107142D01*
X184975000Y-199035714D01*
X185475000Y-198678571D02*
X186046428Y-198678571D01*
X185689285Y-198178571D02*
X185689285Y-199464285D01*
X185760714Y-199607142D01*
X185903571Y-199678571D01*
X186046428Y-199678571D01*
X187117857Y-199607142D02*
X186975000Y-199678571D01*
X186689285Y-199678571D01*
X186546428Y-199607142D01*
X186475000Y-199464285D01*
X186475000Y-198892857D01*
X186546428Y-198750000D01*
X186689285Y-198678571D01*
X186975000Y-198678571D01*
X187117857Y-198750000D01*
X187189285Y-198892857D01*
X187189285Y-199035714D01*
X186475000Y-199178571D01*
X187832142Y-199535714D02*
X187903571Y-199607142D01*
X187832142Y-199678571D01*
X187760714Y-199607142D01*
X187832142Y-199535714D01*
X187832142Y-199678571D01*
X187832142Y-198750000D02*
X187903571Y-198821428D01*
X187832142Y-198892857D01*
X187760714Y-198821428D01*
X187832142Y-198750000D01*
X187832142Y-198892857D01*
X189617857Y-198321428D02*
X189689285Y-198250000D01*
X189832142Y-198178571D01*
X190189285Y-198178571D01*
X190332142Y-198250000D01*
X190403571Y-198321428D01*
X190475000Y-198464285D01*
X190475000Y-198607142D01*
X190403571Y-198821428D01*
X189546428Y-199678571D01*
X190475000Y-199678571D01*
X191403571Y-198178571D02*
X191546428Y-198178571D01*
X191689285Y-198250000D01*
X191760714Y-198321428D01*
X191832142Y-198464285D01*
X191903571Y-198750000D01*
X191903571Y-199107142D01*
X191832142Y-199392857D01*
X191760714Y-199535714D01*
X191689285Y-199607142D01*
X191546428Y-199678571D01*
X191403571Y-199678571D01*
X191260714Y-199607142D01*
X191189285Y-199535714D01*
X191117857Y-199392857D01*
X191046428Y-199107142D01*
X191046428Y-198750000D01*
X191117857Y-198464285D01*
X191189285Y-198321428D01*
X191260714Y-198250000D01*
X191403571Y-198178571D01*
X192475000Y-198321428D02*
X192546428Y-198250000D01*
X192689285Y-198178571D01*
X193046428Y-198178571D01*
X193189285Y-198250000D01*
X193260714Y-198321428D01*
X193332142Y-198464285D01*
X193332142Y-198607142D01*
X193260714Y-198821428D01*
X192403571Y-199678571D01*
X193332142Y-199678571D01*
X193903571Y-198321428D02*
X193975000Y-198250000D01*
X194117857Y-198178571D01*
X194475000Y-198178571D01*
X194617857Y-198250000D01*
X194689285Y-198321428D01*
X194760714Y-198464285D01*
X194760714Y-198607142D01*
X194689285Y-198821428D01*
X193832142Y-199678571D01*
X194760714Y-199678571D01*
X195403571Y-199107142D02*
X196546428Y-199107142D01*
X197546428Y-198178571D02*
X197689285Y-198178571D01*
X197832142Y-198250000D01*
X197903571Y-198321428D01*
X197975000Y-198464285D01*
X198046428Y-198750000D01*
X198046428Y-199107142D01*
X197975000Y-199392857D01*
X197903571Y-199535714D01*
X197832142Y-199607142D01*
X197689285Y-199678571D01*
X197546428Y-199678571D01*
X197403571Y-199607142D01*
X197332142Y-199535714D01*
X197260714Y-199392857D01*
X197189285Y-199107142D01*
X197189285Y-198750000D01*
X197260714Y-198464285D01*
X197332142Y-198321428D01*
X197403571Y-198250000D01*
X197546428Y-198178571D01*
X199403571Y-198178571D02*
X198689285Y-198178571D01*
X198617857Y-198892857D01*
X198689285Y-198821428D01*
X198832142Y-198750000D01*
X199189285Y-198750000D01*
X199332142Y-198821428D01*
X199403571Y-198892857D01*
X199475000Y-199035714D01*
X199475000Y-199392857D01*
X199403571Y-199535714D01*
X199332142Y-199607142D01*
X199189285Y-199678571D01*
X198832142Y-199678571D01*
X198689285Y-199607142D01*
X198617857Y-199535714D01*
X200117857Y-199107142D02*
X201260714Y-199107142D01*
X202760714Y-199678571D02*
X201903571Y-199678571D01*
X202332142Y-199678571D02*
X202332142Y-198178571D01*
X202189285Y-198392857D01*
X202046428Y-198535714D01*
X201903571Y-198607142D01*
X204189285Y-199678571D02*
X203332142Y-199678571D01*
X203760714Y-199678571D02*
X203760714Y-198178571D01*
X203617857Y-198392857D01*
X203475000Y-198535714D01*
X203332142Y-198607142D01*
D10*
D11*
X159400000Y-200400000D02*
X267400000Y-200400000D01*
D10*
D11*
X160832142Y-202478571D02*
X160832142Y-200978571D01*
X161689285Y-202478571D02*
X161046428Y-201621428D01*
X161689285Y-200978571D02*
X160832142Y-201835714D01*
X162332142Y-202478571D02*
X162332142Y-201478571D01*
X162332142Y-200978571D02*
X162260714Y-201050000D01*
X162332142Y-201121428D01*
X162403571Y-201050000D01*
X162332142Y-200978571D01*
X162332142Y-201121428D01*
X163903571Y-202335714D02*
X163832142Y-202407142D01*
X163617857Y-202478571D01*
X163475000Y-202478571D01*
X163260714Y-202407142D01*
X163117857Y-202264285D01*
X163046428Y-202121428D01*
X162975000Y-201835714D01*
X162975000Y-201621428D01*
X163046428Y-201335714D01*
X163117857Y-201192857D01*
X163260714Y-201050000D01*
X163475000Y-200978571D01*
X163617857Y-200978571D01*
X163832142Y-201050000D01*
X163903571Y-201121428D01*
X165189285Y-202478571D02*
X165189285Y-201692857D01*
X165117857Y-201550000D01*
X164975000Y-201478571D01*
X164689285Y-201478571D01*
X164546428Y-201550000D01*
X165189285Y-202407142D02*
X165046428Y-202478571D01*
X164689285Y-202478571D01*
X164546428Y-202407142D01*
X164475000Y-202264285D01*
X164475000Y-202121428D01*
X164546428Y-201978571D01*
X164689285Y-201907142D01*
X165046428Y-201907142D01*
X165189285Y-201835714D01*
X166546428Y-202478571D02*
X166546428Y-200978571D01*
X166546428Y-202407142D02*
X166403571Y-202478571D01*
X166117857Y-202478571D01*
X165975000Y-202407142D01*
X165903571Y-202335714D01*
X165832142Y-202192857D01*
X165832142Y-201764285D01*
X165903571Y-201621428D01*
X165975000Y-201550000D01*
X166117857Y-201478571D01*
X166403571Y-201478571D01*
X166546428Y-201550000D01*
X168403571Y-201692857D02*
X168903571Y-201692857D01*
X169117857Y-202478571D02*
X168403571Y-202478571D01*
X168403571Y-200978571D01*
X169117857Y-200978571D01*
X169760714Y-202335714D02*
X169832142Y-202407142D01*
X169760714Y-202478571D01*
X169689285Y-202407142D01*
X169760714Y-202335714D01*
X169760714Y-202478571D01*
X170475000Y-202478571D02*
X170475000Y-200978571D01*
X170832142Y-200978571D01*
X171046428Y-201050000D01*
X171189285Y-201192857D01*
X171260714Y-201335714D01*
X171332142Y-201621428D01*
X171332142Y-201835714D01*
X171260714Y-202121428D01*
X171189285Y-202264285D01*
X171046428Y-202407142D01*
X170832142Y-202478571D01*
X170475000Y-202478571D01*
X171975000Y-202335714D02*
X172046428Y-202407142D01*
X171975000Y-202478571D01*
X171903571Y-202407142D01*
X171975000Y-202335714D01*
X171975000Y-202478571D01*
X172617857Y-202050000D02*
X173332142Y-202050000D01*
X172475000Y-202478571D02*
X172975000Y-200978571D01*
X173475000Y-202478571D01*
X173975000Y-202335714D02*
X174046428Y-202407142D01*
X173975000Y-202478571D01*
X173903571Y-202407142D01*
X173975000Y-202335714D01*
X173975000Y-202478571D01*
X176975000Y-202478571D02*
X176975000Y-200978571D01*
X177117857Y-201907142D02*
X177546428Y-202478571D01*
X177546428Y-201478571D02*
X176975000Y-202050000D01*
X178189285Y-202478571D02*
X178189285Y-201478571D01*
X178189285Y-200978571D02*
X178117857Y-201050000D01*
X178189285Y-201121428D01*
X178260714Y-201050000D01*
X178189285Y-200978571D01*
X178189285Y-201121428D01*
X179546428Y-202407142D02*
X179403571Y-202478571D01*
X179117857Y-202478571D01*
X178975000Y-202407142D01*
X178903571Y-202335714D01*
X178832142Y-202192857D01*
X178832142Y-201764285D01*
X178903571Y-201621428D01*
X178975000Y-201550000D01*
X179117857Y-201478571D01*
X179403571Y-201478571D01*
X179546428Y-201550000D01*
X180832142Y-202478571D02*
X180832142Y-201692857D01*
X180760714Y-201550000D01*
X180617857Y-201478571D01*
X180332142Y-201478571D01*
X180189285Y-201550000D01*
X180832142Y-202407142D02*
X180689285Y-202478571D01*
X180332142Y-202478571D01*
X180189285Y-202407142D01*
X180117857Y-202264285D01*
X180117857Y-202121428D01*
X180189285Y-201978571D01*
X180332142Y-201907142D01*
X180689285Y-201907142D01*
X180832142Y-201835714D01*
X182189285Y-202478571D02*
X182189285Y-200978571D01*
X182189285Y-202407142D02*
X182046428Y-202478571D01*
X181760714Y-202478571D01*
X181617857Y-202407142D01*
X181546428Y-202335714D01*
X181475000Y-202192857D01*
X181475000Y-201764285D01*
X181546428Y-201621428D01*
X181617857Y-201550000D01*
X181760714Y-201478571D01*
X182046428Y-201478571D01*
X182189285Y-201550000D01*
X184475000Y-203050000D02*
X184403571Y-202978571D01*
X184260714Y-202764285D01*
X184189285Y-202621428D01*
X184117857Y-202407142D01*
X184046428Y-202050000D01*
X184046428Y-201764285D01*
X184117857Y-201407142D01*
X184189285Y-201192857D01*
X184260714Y-201050000D01*
X184403571Y-200835714D01*
X184475000Y-200764285D01*
X185689285Y-200978571D02*
X185403571Y-200978571D01*
X185260714Y-201050000D01*
X185189285Y-201121428D01*
X185046428Y-201335714D01*
X184975000Y-201621428D01*
X184975000Y-202192857D01*
X185046428Y-202335714D01*
X185117857Y-202407142D01*
X185260714Y-202478571D01*
X185546428Y-202478571D01*
X185689285Y-202407142D01*
X185760714Y-202335714D01*
X185832142Y-202192857D01*
X185832142Y-201835714D01*
X185760714Y-201692857D01*
X185689285Y-201621428D01*
X185546428Y-201550000D01*
X185260714Y-201550000D01*
X185117857Y-201621428D01*
X185046428Y-201692857D01*
X184975000Y-201835714D01*
X186475000Y-202335714D02*
X186546428Y-202407142D01*
X186475000Y-202478571D01*
X186403571Y-202407142D01*
X186475000Y-202335714D01*
X186475000Y-202478571D01*
X187475000Y-200978571D02*
X187617857Y-200978571D01*
X187760714Y-201050000D01*
X187832142Y-201121428D01*
X187903571Y-201264285D01*
X187975000Y-201550000D01*
X187975000Y-201907142D01*
X187903571Y-202192857D01*
X187832142Y-202335714D01*
X187760714Y-202407142D01*
X187617857Y-202478571D01*
X187475000Y-202478571D01*
X187332142Y-202407142D01*
X187260714Y-202335714D01*
X187189285Y-202192857D01*
X187117857Y-201907142D01*
X187117857Y-201550000D01*
X187189285Y-201264285D01*
X187260714Y-201121428D01*
X187332142Y-201050000D01*
X187475000Y-200978571D01*
X188617857Y-202335714D02*
X188689285Y-202407142D01*
X188617857Y-202478571D01*
X188546428Y-202407142D01*
X188617857Y-202335714D01*
X188617857Y-202478571D01*
X190046428Y-200978571D02*
X189332142Y-200978571D01*
X189260714Y-201692857D01*
X189332142Y-201621428D01*
X189475000Y-201550000D01*
X189832142Y-201550000D01*
X189975000Y-201621428D01*
X190046428Y-201692857D01*
X190117857Y-201835714D01*
X190117857Y-202192857D01*
X190046428Y-202335714D01*
X189975000Y-202407142D01*
X189832142Y-202478571D01*
X189475000Y-202478571D01*
X189332142Y-202407142D01*
X189260714Y-202335714D01*
X190617857Y-203050000D02*
X190689285Y-202978571D01*
X190832142Y-202764285D01*
X190903571Y-202621428D01*
X190975000Y-202407142D01*
X191046428Y-202050000D01*
X191046428Y-201764285D01*
X190975000Y-201407142D01*
X190903571Y-201192857D01*
X190832142Y-201050000D01*
X190689285Y-200835714D01*
X190617857Y-200764285D01*
D10*
D11*
X159400000Y-197400000D02*
X267400000Y-197400000D01*
D10*
D12*
X246809285Y-199678571D02*
X246309285Y-198964285D01*
X245952142Y-199678571D02*
X245952142Y-198178571D01*
X246523571Y-198178571D01*
X246666428Y-198250000D01*
X246737857Y-198321428D01*
X246809285Y-198464285D01*
X246809285Y-198678571D01*
X246737857Y-198821428D01*
X246666428Y-198892857D01*
X246523571Y-198964285D01*
X245952142Y-198964285D01*
X248023571Y-199607142D02*
X247880714Y-199678571D01*
X247595000Y-199678571D01*
X247452142Y-199607142D01*
X247380714Y-199464285D01*
X247380714Y-198892857D01*
X247452142Y-198750000D01*
X247595000Y-198678571D01*
X247880714Y-198678571D01*
X248023571Y-198750000D01*
X248095000Y-198892857D01*
X248095000Y-199035714D01*
X247380714Y-199178571D01*
X248595000Y-198678571D02*
X248952142Y-199678571D01*
X249309285Y-198678571D01*
X249880714Y-199535714D02*
X249952142Y-199607142D01*
X249880714Y-199678571D01*
X249809285Y-199607142D01*
X249880714Y-199535714D01*
X249880714Y-199678571D01*
X249880714Y-198750000D02*
X249952142Y-198821428D01*
X249880714Y-198892857D01*
X249809285Y-198821428D01*
X249880714Y-198750000D01*
X249880714Y-198892857D01*
X252595000Y-199535714D02*
X252523571Y-199607142D01*
X252309285Y-199678571D01*
X252166428Y-199678571D01*
X251952142Y-199607142D01*
X251809285Y-199464285D01*
X251737857Y-199321428D01*
X251666428Y-199035714D01*
X251666428Y-198821428D01*
X251737857Y-198535714D01*
X251809285Y-198392857D01*
X251952142Y-198250000D01*
X252166428Y-198178571D01*
X252309285Y-198178571D01*
X252523571Y-198250000D01*
X252595000Y-198321428D01*
D10*
D11*
X160760714Y-199607142D02*
X160975000Y-199678571D01*
X161332142Y-199678571D01*
X161475000Y-199607142D01*
X161546428Y-199535714D01*
X161617857Y-199392857D01*
X161617857Y-199250000D01*
X161546428Y-199107142D01*
X161475000Y-199035714D01*
X161332142Y-198964285D01*
X161046428Y-198892857D01*
X160903571Y-198821428D01*
X160832142Y-198750000D01*
X160760714Y-198607142D01*
X160760714Y-198464285D01*
X160832142Y-198321428D01*
X160903571Y-198250000D01*
X161046428Y-198178571D01*
X161403571Y-198178571D01*
X161617857Y-198250000D01*
X162260714Y-199678571D02*
X162260714Y-198678571D01*
X162260714Y-198178571D02*
X162189285Y-198250000D01*
X162260714Y-198321428D01*
X162332142Y-198250000D01*
X162260714Y-198178571D01*
X162260714Y-198321428D01*
X162832142Y-198678571D02*
X163617857Y-198678571D01*
X162832142Y-199678571D01*
X163617857Y-199678571D01*
X164760714Y-199607142D02*
X164617857Y-199678571D01*
X164332142Y-199678571D01*
X164189285Y-199607142D01*
X164117857Y-199464285D01*
X164117857Y-198892857D01*
X164189285Y-198750000D01*
X164332142Y-198678571D01*
X164617857Y-198678571D01*
X164760714Y-198750000D01*
X164832142Y-198892857D01*
X164832142Y-199035714D01*
X164117857Y-199178571D01*
X165475000Y-199535714D02*
X165546428Y-199607142D01*
X165475000Y-199678571D01*
X165403571Y-199607142D01*
X165475000Y-199535714D01*
X165475000Y-199678571D01*
X165475000Y-198750000D02*
X165546428Y-198821428D01*
X165475000Y-198892857D01*
X165403571Y-198821428D01*
X165475000Y-198750000D01*
X165475000Y-198892857D01*
X167260714Y-199250000D02*
X167975000Y-199250000D01*
X167117857Y-199678571D02*
X167617857Y-198178571D01*
X168117857Y-199678571D01*
D10*
D11*
X245832142Y-202478571D02*
X245832142Y-200978571D01*
X247189285Y-202478571D02*
X247189285Y-200978571D01*
X247189285Y-202407142D02*
X247046428Y-202478571D01*
X246760714Y-202478571D01*
X246617857Y-202407142D01*
X246546428Y-202335714D01*
X246475000Y-202192857D01*
X246475000Y-201764285D01*
X246546428Y-201621428D01*
X246617857Y-201550000D01*
X246760714Y-201478571D01*
X247046428Y-201478571D01*
X247189285Y-201550000D01*
X247903571Y-202335714D02*
X247975000Y-202407142D01*
X247903571Y-202478571D01*
X247832142Y-202407142D01*
X247903571Y-202335714D01*
X247903571Y-202478571D01*
X247903571Y-201550000D02*
X247975000Y-201621428D01*
X247903571Y-201692857D01*
X247832142Y-201621428D01*
X247903571Y-201550000D01*
X247903571Y-201692857D01*
X250546428Y-202478571D02*
X249689285Y-202478571D01*
X250117857Y-202478571D02*
X250117857Y-200978571D01*
X249975000Y-201192857D01*
X249832142Y-201335714D01*
X249689285Y-201407142D01*
X252260714Y-200907142D02*
X250975000Y-202835714D01*
X253546428Y-202478571D02*
X252689285Y-202478571D01*
X253117857Y-202478571D02*
X253117857Y-200978571D01*
X252975000Y-201192857D01*
X252832142Y-201335714D01*
X252689285Y-201407142D01*
D10*
D11*
X159400000Y-193400000D02*
X267400000Y-193400000D01*
D10*
D13*
X161112380Y-194104761D02*
X162255238Y-194104761D01*
X161433809Y-196104761D02*
X161683809Y-194104761D01*
X162671904Y-196104761D02*
X162838571Y-194771428D01*
X162921904Y-194104761D02*
X162814761Y-194200000D01*
X162898095Y-194295238D01*
X163005238Y-194200000D01*
X162921904Y-194104761D01*
X162898095Y-194295238D01*
X163505238Y-194771428D02*
X164267142Y-194771428D01*
X163874285Y-194104761D02*
X163660000Y-195819047D01*
X163731428Y-196009523D01*
X163910000Y-196104761D01*
X164100476Y-196104761D01*
X165052857Y-196104761D02*
X164874285Y-196009523D01*
X164802857Y-195819047D01*
X165017142Y-194104761D01*
X166588571Y-196009523D02*
X166386190Y-196104761D01*
X166005238Y-196104761D01*
X165826666Y-196009523D01*
X165755238Y-195819047D01*
X165850476Y-195057142D01*
X165969523Y-194866666D01*
X166171904Y-194771428D01*
X166552857Y-194771428D01*
X166731428Y-194866666D01*
X166802857Y-195057142D01*
X166779047Y-195247619D01*
X165802857Y-195438095D01*
X167552857Y-195914285D02*
X167636190Y-196009523D01*
X167529047Y-196104761D01*
X167445714Y-196009523D01*
X167552857Y-195914285D01*
X167529047Y-196104761D01*
X167683809Y-194866666D02*
X167767142Y-194961904D01*
X167660000Y-195057142D01*
X167576666Y-194961904D01*
X167683809Y-194866666D01*
X167660000Y-195057142D01*
X170005238Y-196104761D02*
X170255238Y-194104761D01*
X170160000Y-194866666D02*
X170362380Y-194771428D01*
X170743333Y-194771428D01*
X170921904Y-194866666D01*
X171005238Y-194961904D01*
X171076666Y-195152380D01*
X171005238Y-195723809D01*
X170886190Y-195914285D01*
X170779047Y-196009523D01*
X170576666Y-196104761D01*
X170195714Y-196104761D01*
X170017142Y-196009523D01*
X172671904Y-196104761D02*
X172802857Y-195057142D01*
X172731428Y-194866666D01*
X172552857Y-194771428D01*
X172171904Y-194771428D01*
X171969523Y-194866666D01*
X172683809Y-196009523D02*
X172481428Y-196104761D01*
X172005238Y-196104761D01*
X171826666Y-196009523D01*
X171755238Y-195819047D01*
X171779047Y-195628571D01*
X171898095Y-195438095D01*
X172100476Y-195342857D01*
X172576666Y-195342857D01*
X172779047Y-195247619D01*
X174493333Y-196009523D02*
X174290952Y-196104761D01*
X173910000Y-196104761D01*
X173731428Y-196009523D01*
X173648095Y-195914285D01*
X173576666Y-195723809D01*
X173648095Y-195152380D01*
X173767142Y-194961904D01*
X173874285Y-194866666D01*
X174076666Y-194771428D01*
X174457619Y-194771428D01*
X174636190Y-194866666D01*
X175338571Y-196104761D02*
X175588571Y-194104761D01*
X175624285Y-195342857D02*
X176100476Y-196104761D01*
X176267142Y-194771428D02*
X175410000Y-195533333D01*
X177124285Y-194771428D02*
X176874285Y-196771428D01*
X177112380Y-194866666D02*
X177314761Y-194771428D01*
X177695714Y-194771428D01*
X177874285Y-194866666D01*
X177957619Y-194961904D01*
X178029047Y-195152380D01*
X177957619Y-195723809D01*
X177838571Y-195914285D01*
X177731428Y-196009523D01*
X177529047Y-196104761D01*
X177148095Y-196104761D01*
X176969523Y-196009523D01*
X179052857Y-196104761D02*
X178874285Y-196009523D01*
X178802857Y-195819047D01*
X179017142Y-194104761D01*
X180671904Y-196104761D02*
X180802857Y-195057142D01*
X180731428Y-194866666D01*
X180552857Y-194771428D01*
X180171904Y-194771428D01*
X179969523Y-194866666D01*
X180683809Y-196009523D02*
X180481428Y-196104761D01*
X180005238Y-196104761D01*
X179826666Y-196009523D01*
X179755238Y-195819047D01*
X179779047Y-195628571D01*
X179898095Y-195438095D01*
X180100476Y-195342857D01*
X180576666Y-195342857D01*
X180779047Y-195247619D01*
X181790952Y-194771428D02*
X181624285Y-196104761D01*
X181767142Y-194961904D02*
X181874285Y-194866666D01*
X182076666Y-194771428D01*
X182362380Y-194771428D01*
X182540952Y-194866666D01*
X182612380Y-195057142D01*
X182481428Y-196104761D01*
X184207619Y-196009523D02*
X184005238Y-196104761D01*
X183624285Y-196104761D01*
X183445714Y-196009523D01*
X183374285Y-195819047D01*
X183469523Y-195057142D01*
X183588571Y-194866666D01*
X183790952Y-194771428D01*
X184171904Y-194771428D01*
X184350476Y-194866666D01*
X184421904Y-195057142D01*
X184398095Y-195247619D01*
X183421904Y-195438095D01*
D10*
D11*
X161332142Y-191492857D02*
X160832142Y-191492857D01*
X160832142Y-192278571D02*
X160832142Y-190778571D01*
X161546428Y-190778571D01*
X162117857Y-192278571D02*
X162117857Y-191278571D01*
X162117857Y-190778571D02*
X162046428Y-190850000D01*
X162117857Y-190921428D01*
X162189285Y-190850000D01*
X162117857Y-190778571D01*
X162117857Y-190921428D01*
X163046428Y-192278571D02*
X162903571Y-192207142D01*
X162832142Y-192064285D01*
X162832142Y-190778571D01*
X164189285Y-192207142D02*
X164046428Y-192278571D01*
X163760714Y-192278571D01*
X163617857Y-192207142D01*
X163546428Y-192064285D01*
X163546428Y-191492857D01*
X163617857Y-191350000D01*
X163760714Y-191278571D01*
X164046428Y-191278571D01*
X164189285Y-191350000D01*
X164260714Y-191492857D01*
X164260714Y-191635714D01*
X163546428Y-191778571D01*
X164903571Y-192135714D02*
X164975000Y-192207142D01*
X164903571Y-192278571D01*
X164832142Y-192207142D01*
X164903571Y-192135714D01*
X164903571Y-192278571D01*
X164903571Y-191350000D02*
X164975000Y-191421428D01*
X164903571Y-191492857D01*
X164832142Y-191421428D01*
X164903571Y-191350000D01*
X164903571Y-191492857D01*
X166760714Y-192278571D02*
X166760714Y-190778571D01*
X166760714Y-191350000D02*
X166903571Y-191278571D01*
X167189285Y-191278571D01*
X167332142Y-191350000D01*
X167403571Y-191421428D01*
X167475000Y-191564285D01*
X167475000Y-191992857D01*
X167403571Y-192135714D01*
X167332142Y-192207142D01*
X167189285Y-192278571D01*
X166903571Y-192278571D01*
X166760714Y-192207142D01*
X168760714Y-192278571D02*
X168760714Y-191492857D01*
X168689285Y-191350000D01*
X168546428Y-191278571D01*
X168260714Y-191278571D01*
X168117857Y-191350000D01*
X168760714Y-192207142D02*
X168617857Y-192278571D01*
X168260714Y-192278571D01*
X168117857Y-192207142D01*
X168046428Y-192064285D01*
X168046428Y-191921428D01*
X168117857Y-191778571D01*
X168260714Y-191707142D01*
X168617857Y-191707142D01*
X168760714Y-191635714D01*
X170117857Y-192207142D02*
X169975000Y-192278571D01*
X169689285Y-192278571D01*
X169546428Y-192207142D01*
X169475000Y-192135714D01*
X169403571Y-191992857D01*
X169403571Y-191564285D01*
X169475000Y-191421428D01*
X169546428Y-191350000D01*
X169689285Y-191278571D01*
X169975000Y-191278571D01*
X170117857Y-191350000D01*
X170760714Y-192278571D02*
X170760714Y-190778571D01*
X170903571Y-191707142D02*
X171332142Y-192278571D01*
X171332142Y-191278571D02*
X170760714Y-191850000D01*
X171975000Y-191278571D02*
X171975000Y-192778571D01*
X171975000Y-191350000D02*
X172117857Y-191278571D01*
X172403571Y-191278571D01*
X172546428Y-191350000D01*
X172617857Y-191421428D01*
X172689285Y-191564285D01*
X172689285Y-191992857D01*
X172617857Y-192135714D01*
X172546428Y-192207142D01*
X172403571Y-192278571D01*
X172117857Y-192278571D01*
X171975000Y-192207142D01*
X173546428Y-192278571D02*
X173403571Y-192207142D01*
X173332142Y-192064285D01*
X173332142Y-190778571D01*
X174760714Y-192278571D02*
X174760714Y-191492857D01*
X174689285Y-191350000D01*
X174546428Y-191278571D01*
X174260714Y-191278571D01*
X174117857Y-191350000D01*
X174760714Y-192207142D02*
X174617857Y-192278571D01*
X174260714Y-192278571D01*
X174117857Y-192207142D01*
X174046428Y-192064285D01*
X174046428Y-191921428D01*
X174117857Y-191778571D01*
X174260714Y-191707142D01*
X174617857Y-191707142D01*
X174760714Y-191635714D01*
X175475000Y-191278571D02*
X175475000Y-192278571D01*
X175475000Y-191421428D02*
X175546428Y-191350000D01*
X175689285Y-191278571D01*
X175903571Y-191278571D01*
X176046428Y-191350000D01*
X176117857Y-191492857D01*
X176117857Y-192278571D01*
X177403571Y-192207142D02*
X177260714Y-192278571D01*
X176975000Y-192278571D01*
X176832142Y-192207142D01*
X176760714Y-192064285D01*
X176760714Y-191492857D01*
X176832142Y-191350000D01*
X176975000Y-191278571D01*
X177260714Y-191278571D01*
X177403571Y-191350000D01*
X177475000Y-191492857D01*
X177475000Y-191635714D01*
X176760714Y-191778571D01*
X178117857Y-192135714D02*
X178189285Y-192207142D01*
X178117857Y-192278571D01*
X178046428Y-192207142D01*
X178117857Y-192135714D01*
X178117857Y-192278571D01*
X178832142Y-192278571D02*
X178832142Y-190778571D01*
X178975000Y-191707142D02*
X179403571Y-192278571D01*
X179403571Y-191278571D02*
X178832142Y-191850000D01*
X180046428Y-192278571D02*
X180046428Y-191278571D01*
X180046428Y-190778571D02*
X179975000Y-190850000D01*
X180046428Y-190921428D01*
X180117857Y-190850000D01*
X180046428Y-190778571D01*
X180046428Y-190921428D01*
X181403571Y-192207142D02*
X181260714Y-192278571D01*
X180975000Y-192278571D01*
X180832142Y-192207142D01*
X180760714Y-192135714D01*
X180689285Y-191992857D01*
X180689285Y-191564285D01*
X180760714Y-191421428D01*
X180832142Y-191350000D01*
X180975000Y-191278571D01*
X181260714Y-191278571D01*
X181403571Y-191350000D01*
X182689285Y-192278571D02*
X182689285Y-191492857D01*
X182617857Y-191350000D01*
X182475000Y-191278571D01*
X182189285Y-191278571D01*
X182046428Y-191350000D01*
X182689285Y-192207142D02*
X182546428Y-192278571D01*
X182189285Y-192278571D01*
X182046428Y-192207142D01*
X181975000Y-192064285D01*
X181975000Y-191921428D01*
X182046428Y-191778571D01*
X182189285Y-191707142D01*
X182546428Y-191707142D01*
X182689285Y-191635714D01*
X184046428Y-192278571D02*
X184046428Y-190778571D01*
X184046428Y-192207142D02*
X183903571Y-192278571D01*
X183617857Y-192278571D01*
X183475000Y-192207142D01*
X183403571Y-192135714D01*
X183332142Y-191992857D01*
X183332142Y-191564285D01*
X183403571Y-191421428D01*
X183475000Y-191350000D01*
X183617857Y-191278571D01*
X183903571Y-191278571D01*
X184046428Y-191350000D01*
X184403571Y-192421428D02*
X185546428Y-192421428D01*
X185903571Y-191278571D02*
X185903571Y-192778571D01*
X185903571Y-191350000D02*
X186046428Y-191278571D01*
X186332142Y-191278571D01*
X186475000Y-191350000D01*
X186546428Y-191421428D01*
X186617857Y-191564285D01*
X186617857Y-191992857D01*
X186546428Y-192135714D01*
X186475000Y-192207142D01*
X186332142Y-192278571D01*
X186046428Y-192278571D01*
X185903571Y-192207142D01*
X187903571Y-192207142D02*
X187760714Y-192278571D01*
X187475000Y-192278571D01*
X187332142Y-192207142D01*
X187260714Y-192135714D01*
X187189285Y-191992857D01*
X187189285Y-191564285D01*
X187260714Y-191421428D01*
X187332142Y-191350000D01*
X187475000Y-191278571D01*
X187760714Y-191278571D01*
X187903571Y-191350000D01*
X188546428Y-192278571D02*
X188546428Y-190778571D01*
X188546428Y-191350000D02*
X188689285Y-191278571D01*
X188975000Y-191278571D01*
X189117857Y-191350000D01*
X189189285Y-191421428D01*
X189260714Y-191564285D01*
X189260714Y-191992857D01*
X189189285Y-192135714D01*
X189117857Y-192207142D01*
X188975000Y-192278571D01*
X188689285Y-192278571D01*
X188546428Y-192207142D01*
D10*
D11*
X159400000Y-187400000D02*
X267400000Y-187400000D01*
D10*
D11*
X160760714Y-189507142D02*
X160975000Y-189578571D01*
X161332142Y-189578571D01*
X161475000Y-189507142D01*
X161546428Y-189435714D01*
X161617857Y-189292857D01*
X161617857Y-189150000D01*
X161546428Y-189007142D01*
X161475000Y-188935714D01*
X161332142Y-188864285D01*
X161046428Y-188792857D01*
X160903571Y-188721428D01*
X160832142Y-188650000D01*
X160760714Y-188507142D01*
X160760714Y-188364285D01*
X160832142Y-188221428D01*
X160903571Y-188150000D01*
X161046428Y-188078571D01*
X161403571Y-188078571D01*
X161617857Y-188150000D01*
X162260714Y-189578571D02*
X162260714Y-188078571D01*
X162903571Y-189578571D02*
X162903571Y-188792857D01*
X162832142Y-188650000D01*
X162689285Y-188578571D01*
X162475000Y-188578571D01*
X162332142Y-188650000D01*
X162260714Y-188721428D01*
X164189285Y-189507142D02*
X164046428Y-189578571D01*
X163760714Y-189578571D01*
X163617857Y-189507142D01*
X163546428Y-189364285D01*
X163546428Y-188792857D01*
X163617857Y-188650000D01*
X163760714Y-188578571D01*
X164046428Y-188578571D01*
X164189285Y-188650000D01*
X164260714Y-188792857D01*
X164260714Y-188935714D01*
X163546428Y-189078571D01*
X165475000Y-189507142D02*
X165332142Y-189578571D01*
X165046428Y-189578571D01*
X164903571Y-189507142D01*
X164832142Y-189364285D01*
X164832142Y-188792857D01*
X164903571Y-188650000D01*
X165046428Y-188578571D01*
X165332142Y-188578571D01*
X165475000Y-188650000D01*
X165546428Y-188792857D01*
X165546428Y-188935714D01*
X164832142Y-189078571D01*
X165975000Y-188578571D02*
X166546428Y-188578571D01*
X166189285Y-188078571D02*
X166189285Y-189364285D01*
X166260714Y-189507142D01*
X166403571Y-189578571D01*
X166546428Y-189578571D01*
X167046428Y-189435714D02*
X167117857Y-189507142D01*
X167046428Y-189578571D01*
X166975000Y-189507142D01*
X167046428Y-189435714D01*
X167046428Y-189578571D01*
X167046428Y-188650000D02*
X167117857Y-188721428D01*
X167046428Y-188792857D01*
X166975000Y-188721428D01*
X167046428Y-188650000D01*
X167046428Y-188792857D01*
D10*
D12*
X160880714Y-186507142D02*
X161095000Y-186578571D01*
X161452142Y-186578571D01*
X161595000Y-186507142D01*
X161666428Y-186435714D01*
X161737857Y-186292857D01*
X161737857Y-186150000D01*
X161666428Y-186007142D01*
X161595000Y-185935714D01*
X161452142Y-185864285D01*
X161166428Y-185792857D01*
X161023571Y-185721428D01*
X160952142Y-185650000D01*
X160880714Y-185507142D01*
X160880714Y-185364285D01*
X160952142Y-185221428D01*
X161023571Y-185150000D01*
X161166428Y-185078571D01*
X161523571Y-185078571D01*
X161737857Y-185150000D01*
X162380714Y-186578571D02*
X162380714Y-185578571D01*
X162380714Y-185078571D02*
X162309285Y-185150000D01*
X162380714Y-185221428D01*
X162452142Y-185150000D01*
X162380714Y-185078571D01*
X162380714Y-185221428D01*
X163666428Y-186507142D02*
X163523571Y-186578571D01*
X163237857Y-186578571D01*
X163095000Y-186507142D01*
X163023571Y-186364285D01*
X163023571Y-185792857D01*
X163095000Y-185650000D01*
X163237857Y-185578571D01*
X163523571Y-185578571D01*
X163666428Y-185650000D01*
X163737857Y-185792857D01*
X163737857Y-185935714D01*
X163023571Y-186078571D01*
X164380714Y-186578571D02*
X164380714Y-185578571D01*
X164380714Y-185864285D02*
X164452142Y-185721428D01*
X164523571Y-185650000D01*
X164666428Y-185578571D01*
X164809285Y-185578571D01*
X165309285Y-186578571D02*
X165309285Y-185578571D01*
X165309285Y-185864285D02*
X165380714Y-185721428D01*
X165452142Y-185650000D01*
X165595000Y-185578571D01*
X165737857Y-185578571D01*
X166880714Y-186578571D02*
X166880714Y-185792857D01*
X166809285Y-185650000D01*
X166666428Y-185578571D01*
X166380714Y-185578571D01*
X166237857Y-185650000D01*
X166880714Y-186507142D02*
X166737857Y-186578571D01*
X166380714Y-186578571D01*
X166237857Y-186507142D01*
X166166428Y-186364285D01*
X166166428Y-186221428D01*
X166237857Y-186078571D01*
X166380714Y-186007142D01*
X166737857Y-186007142D01*
X166880714Y-185935714D01*
X169452142Y-186578571D02*
X168737857Y-186578571D01*
X168737857Y-185078571D01*
X170166428Y-186578571D02*
X170023571Y-186507142D01*
X169952142Y-186435714D01*
X169880714Y-186292857D01*
X169880714Y-185864285D01*
X169952142Y-185721428D01*
X170023571Y-185650000D01*
X170166428Y-185578571D01*
X170380714Y-185578571D01*
X170523571Y-185650000D01*
X170595000Y-185721428D01*
X170666428Y-185864285D01*
X170666428Y-186292857D01*
X170595000Y-186435714D01*
X170523571Y-186507142D01*
X170380714Y-186578571D01*
X170166428Y-186578571D01*
X171309285Y-186578571D02*
X171309285Y-185078571D01*
X171309285Y-185650000D02*
X171452142Y-185578571D01*
X171737857Y-185578571D01*
X171880714Y-185650000D01*
X171952142Y-185721428D01*
X172023571Y-185864285D01*
X172023571Y-186292857D01*
X171952142Y-186435714D01*
X171880714Y-186507142D01*
X171737857Y-186578571D01*
X171452142Y-186578571D01*
X171309285Y-186507142D01*
X172880714Y-186578571D02*
X172737857Y-186507142D01*
X172666428Y-186435714D01*
X172595000Y-186292857D01*
X172595000Y-185864285D01*
X172666428Y-185721428D01*
X172737857Y-185650000D01*
X172880714Y-185578571D01*
X173095000Y-185578571D01*
X173237857Y-185650000D01*
X173309285Y-185721428D01*
X173380714Y-185864285D01*
X173380714Y-186292857D01*
X173309285Y-186435714D01*
X173237857Y-186507142D01*
X173095000Y-186578571D01*
X172880714Y-186578571D01*
X174095000Y-186507142D02*
X174095000Y-186578571D01*
X174023571Y-186721428D01*
X173952142Y-186792857D01*
X175880714Y-186578571D02*
X175880714Y-185078571D01*
X176595000Y-185578571D02*
X176595000Y-186578571D01*
X176595000Y-185721428D02*
X176666428Y-185650000D01*
X176809285Y-185578571D01*
X177023571Y-185578571D01*
X177166428Y-185650000D01*
X177237857Y-185792857D01*
X177237857Y-186578571D01*
X178595000Y-186507142D02*
X178452142Y-186578571D01*
X178166428Y-186578571D01*
X178023571Y-186507142D01*
X177952142Y-186435714D01*
X177880714Y-186292857D01*
X177880714Y-185864285D01*
X177952142Y-185721428D01*
X178023571Y-185650000D01*
X178166428Y-185578571D01*
X178452142Y-185578571D01*
X178595000Y-185650000D01*
X179237857Y-186435714D02*
X179309285Y-186507142D01*
X179237857Y-186578571D01*
X179166428Y-186507142D01*
X179237857Y-186435714D01*
X179237857Y-186578571D01*
D10*
D11*
X161689285Y-183435714D02*
X161617857Y-183507142D01*
X161403571Y-183578571D01*
X161260714Y-183578571D01*
X161046428Y-183507142D01*
X160903571Y-183364285D01*
X160832142Y-183221428D01*
X160760714Y-182935714D01*
X160760714Y-182721428D01*
X160832142Y-182435714D01*
X160903571Y-182292857D01*
X161046428Y-182150000D01*
X161260714Y-182078571D01*
X161403571Y-182078571D01*
X161617857Y-182150000D01*
X161689285Y-182221428D01*
X162332142Y-183435714D02*
X162403571Y-183507142D01*
X162332142Y-183578571D01*
X162260714Y-183507142D01*
X162332142Y-183435714D01*
X162332142Y-183578571D01*
X164189285Y-183578571D02*
X164189285Y-182078571D01*
X164189285Y-182792857D02*
X165046428Y-182792857D01*
X165046428Y-183578571D02*
X165046428Y-182078571D01*
X165760714Y-183578571D02*
X165760714Y-182578571D01*
X165760714Y-182078571D02*
X165689285Y-182150000D01*
X165760714Y-182221428D01*
X165832142Y-182150000D01*
X165760714Y-182078571D01*
X165760714Y-182221428D01*
X166689285Y-183578571D02*
X166546428Y-183507142D01*
X166475000Y-183364285D01*
X166475000Y-182078571D01*
X167475000Y-183578571D02*
X167332142Y-183507142D01*
X167260714Y-183364285D01*
X167260714Y-182078571D01*
X168046428Y-183578571D02*
X168046428Y-182578571D01*
X168046428Y-182078571D02*
X167975000Y-182150000D01*
X168046428Y-182221428D01*
X168117857Y-182150000D01*
X168046428Y-182078571D01*
X168046428Y-182221428D01*
X168689285Y-183507142D02*
X168832142Y-183578571D01*
X169117857Y-183578571D01*
X169260714Y-183507142D01*
X169332142Y-183364285D01*
X169332142Y-183292857D01*
X169260714Y-183150000D01*
X169117857Y-183078571D01*
X168903571Y-183078571D01*
X168760714Y-183007142D01*
X168689285Y-182864285D01*
X168689285Y-182792857D01*
X168760714Y-182650000D01*
X168903571Y-182578571D01*
X169117857Y-182578571D01*
X169260714Y-182650000D01*
D10*
D11*
X161689285Y-180435714D02*
X161617857Y-180507142D01*
X161403571Y-180578571D01*
X161260714Y-180578571D01*
X161046428Y-180507142D01*
X160903571Y-180364285D01*
X160832142Y-180221428D01*
X160760714Y-179935714D01*
X160760714Y-179721428D01*
X160832142Y-179435714D01*
X160903571Y-179292857D01*
X161046428Y-179150000D01*
X161260714Y-179078571D01*
X161403571Y-179078571D01*
X161617857Y-179150000D01*
X161689285Y-179221428D01*
X162332142Y-180435714D02*
X162403571Y-180507142D01*
X162332142Y-180578571D01*
X162260714Y-180507142D01*
X162332142Y-180435714D01*
X162332142Y-180578571D01*
X164189285Y-180578571D02*
X164189285Y-179078571D01*
X165046428Y-180578571D02*
X164403571Y-179721428D01*
X165046428Y-179078571D02*
X164189285Y-179935714D01*
X165903571Y-180578571D02*
X165760714Y-180507142D01*
X165689285Y-180435714D01*
X165617857Y-180292857D01*
X165617857Y-179864285D01*
X165689285Y-179721428D01*
X165760714Y-179650000D01*
X165903571Y-179578571D01*
X166117857Y-179578571D01*
X166260714Y-179650000D01*
X166332142Y-179721428D01*
X166403571Y-179864285D01*
X166403571Y-180292857D01*
X166332142Y-180435714D01*
X166260714Y-180507142D01*
X166117857Y-180578571D01*
X165903571Y-180578571D01*
X167046428Y-180578571D02*
X167046428Y-179578571D01*
X167046428Y-179864285D02*
X167117857Y-179721428D01*
X167189285Y-179650000D01*
X167332142Y-179578571D01*
X167475000Y-179578571D01*
X167975000Y-179578571D02*
X167975000Y-180578571D01*
X167975000Y-179721428D02*
X168046428Y-179650000D01*
X168189285Y-179578571D01*
X168403571Y-179578571D01*
X168546428Y-179650000D01*
X168617857Y-179792857D01*
X168617857Y-180578571D01*
X169546428Y-180578571D02*
X169403571Y-180507142D01*
X169332142Y-180435714D01*
X169260714Y-180292857D01*
X169260714Y-179864285D01*
X169332142Y-179721428D01*
X169403571Y-179650000D01*
X169546428Y-179578571D01*
X169760714Y-179578571D01*
X169903571Y-179650000D01*
X169975000Y-179721428D01*
X170046428Y-179864285D01*
X170046428Y-180292857D01*
X169975000Y-180435714D01*
X169903571Y-180507142D01*
X169760714Y-180578571D01*
X169546428Y-180578571D01*
X170546428Y-179578571D02*
X170832142Y-180578571D01*
X171117857Y-179864285D01*
X171403571Y-180578571D01*
X171689285Y-179578571D01*
X172189285Y-180507142D02*
X172332142Y-180578571D01*
X172617857Y-180578571D01*
X172760714Y-180507142D01*
X172832142Y-180364285D01*
X172832142Y-180292857D01*
X172760714Y-180150000D01*
X172617857Y-180078571D01*
X172403571Y-180078571D01*
X172260714Y-180007142D01*
X172189285Y-179864285D01*
X172189285Y-179792857D01*
X172260714Y-179650000D01*
X172403571Y-179578571D01*
X172617857Y-179578571D01*
X172760714Y-179650000D01*
X173475000Y-180578571D02*
X173475000Y-179078571D01*
X173617857Y-180007142D02*
X174046428Y-180578571D01*
X174046428Y-179578571D02*
X173475000Y-180150000D01*
X174689285Y-180578571D02*
X174689285Y-179578571D01*
X174689285Y-179078571D02*
X174617857Y-179150000D01*
X174689285Y-179221428D01*
X174760714Y-179150000D01*
X174689285Y-179078571D01*
X174689285Y-179221428D01*
D10*
D11*
D10*
D11*
D10*
D11*
X179400000Y-197400000D02*
X179400000Y-200400000D01*
D10*
D11*
X243400000Y-197400000D02*
X243400000Y-203900000D01*
D14*
X118860285Y-174329285D02*
X118860285Y-173579285D01*
X118860285Y-173936428D02*
X119288857Y-173936428D01*
X119288857Y-174329285D02*
X119288857Y-173579285D01*
X119646000Y-174329285D02*
X119646000Y-173579285D01*
X120360285Y-174329285D02*
X120003142Y-174329285D01*
X120003142Y-173579285D01*
X120967428Y-174329285D02*
X120610285Y-174329285D01*
X120610285Y-173579285D01*
X121217428Y-174329285D02*
X121217428Y-173579285D01*
X121538857Y-174293571D02*
X121646000Y-174329285D01*
X121824571Y-174329285D01*
X121896000Y-174293571D01*
X121931714Y-174257857D01*
X121967428Y-174186428D01*
X121967428Y-174115000D01*
X121931714Y-174043571D01*
X121896000Y-174007857D01*
X121824571Y-173972142D01*
X121681714Y-173936428D01*
X121610285Y-173900714D01*
X121574571Y-173865000D01*
X121538857Y-173793571D01*
X121538857Y-173722142D01*
X121574571Y-173650714D01*
X121610285Y-173615000D01*
X121681714Y-173579285D01*
X121860285Y-173579285D01*
X121967428Y-173615000D01*
X118830714Y-175345285D02*
X118830714Y-174595285D01*
X119259285Y-175345285D02*
X118937857Y-174916714D01*
X119259285Y-174595285D02*
X118830714Y-175023857D01*
X119723571Y-174595285D02*
X119866428Y-174595285D01*
X119937857Y-174631000D01*
X120009285Y-174702428D01*
X120045000Y-174845285D01*
X120045000Y-175095285D01*
X120009285Y-175238142D01*
X119937857Y-175309571D01*
X119866428Y-175345285D01*
X119723571Y-175345285D01*
X119652142Y-175309571D01*
X119580714Y-175238142D01*
X119545000Y-175095285D01*
X119545000Y-174845285D01*
X119580714Y-174702428D01*
X119652142Y-174631000D01*
X119723571Y-174595285D01*
X120795000Y-175345285D02*
X120545000Y-174988142D01*
X120366428Y-175345285D02*
X120366428Y-174595285D01*
X120652142Y-174595285D01*
X120723571Y-174631000D01*
X120759285Y-174666714D01*
X120795000Y-174738142D01*
X120795000Y-174845285D01*
X120759285Y-174916714D01*
X120723571Y-174952428D01*
X120652142Y-174988142D01*
X120366428Y-174988142D01*
X121116428Y-175345285D02*
X121116428Y-174595285D01*
X121545000Y-175345285D01*
X121545000Y-174595285D01*
X122045000Y-174595285D02*
X122187857Y-174595285D01*
X122259285Y-174631000D01*
X122330714Y-174702428D01*
X122366428Y-174845285D01*
X122366428Y-175095285D01*
X122330714Y-175238142D01*
X122259285Y-175309571D01*
X122187857Y-175345285D01*
X122045000Y-175345285D01*
X121973571Y-175309571D01*
X121902142Y-175238142D01*
X121866428Y-175095285D01*
X121866428Y-174845285D01*
X121902142Y-174702428D01*
X121973571Y-174631000D01*
X122045000Y-174595285D01*
X122616428Y-174595285D02*
X122795000Y-175345285D01*
X122937857Y-174809571D01*
X123080714Y-175345285D01*
X123259285Y-174595285D01*
X123509285Y-175309571D02*
X123616428Y-175345285D01*
X123795000Y-175345285D01*
X123866428Y-175309571D01*
X123902142Y-175273857D01*
X123937857Y-175202428D01*
X123937857Y-175131000D01*
X123902142Y-175059571D01*
X123866428Y-175023857D01*
X123795000Y-174988142D01*
X123652142Y-174952428D01*
X123580714Y-174916714D01*
X123545000Y-174881000D01*
X123509285Y-174809571D01*
X123509285Y-174738142D01*
X123545000Y-174666714D01*
X123580714Y-174631000D01*
X123652142Y-174595285D01*
X123830714Y-174595285D01*
X123937857Y-174631000D01*
X124259285Y-175345285D02*
X124259285Y-174595285D01*
X124687857Y-175345285D02*
X124366428Y-174916714D01*
X124687857Y-174595285D02*
X124259285Y-175023857D01*
X125009285Y-175345285D02*
X125009285Y-174595285D01*
D15*
X67000000Y-42230000D03*
X67000000Y-41270000D03*
D16*
X67980000Y-106000000D03*
X67020000Y-106000000D03*
X68230000Y-174250000D03*
X67270000Y-174250000D03*
D17*
X126270000Y-174250000D03*
X127230000Y-174250000D03*
D15*
X126500000Y-42230000D03*
X126500000Y-41270000D03*
D18*
X70300009Y-157399993D03*
D19*
X61470009Y-154799993D03*
X63870009Y-156999993D03*
X67670009Y-156999993D03*
X60070009Y-156999993D03*
D18*
X123700009Y-155899993D03*
D20*
X65770009Y-154409993D03*
D21*
X71800009Y-157599993D03*
X71800009Y-154199993D03*
X72600009Y-157599993D03*
X72600009Y-154199993D03*
X73400009Y-157599993D03*
X73400009Y-154199993D03*
X74200009Y-157599993D03*
X74200009Y-154199993D03*
X75000009Y-157599993D03*
X75000009Y-154199993D03*
X75800009Y-157599993D03*
X75800009Y-154199993D03*
X76600009Y-157599993D03*
X76600009Y-154199993D03*
X77400009Y-157599993D03*
X77400009Y-154199993D03*
X78200009Y-157599993D03*
X78200009Y-154199993D03*
X79000009Y-157599993D03*
X79000009Y-154199993D03*
X79800009Y-157599993D03*
X79800009Y-154199993D03*
X80600009Y-157599993D03*
X80600009Y-154199993D03*
X81400009Y-157599993D03*
X81400009Y-154199993D03*
X82200009Y-157599993D03*
X82200009Y-154199993D03*
X83000009Y-157599993D03*
X83000009Y-154199993D03*
X83800009Y-157599993D03*
X83800009Y-154199993D03*
X84600009Y-157599993D03*
X84600009Y-154199993D03*
X85400009Y-157599993D03*
X85400009Y-154199993D03*
X86200009Y-157599993D03*
X86200009Y-154199993D03*
X87000009Y-157599993D03*
X87000009Y-154199993D03*
X87800009Y-157599993D03*
X87800009Y-154199993D03*
X88600009Y-157599993D03*
X88600009Y-154199993D03*
X89400009Y-157599993D03*
X89400009Y-154199993D03*
X90200009Y-157599993D03*
X90200009Y-154199993D03*
X91000009Y-157599993D03*
X91000009Y-154199993D03*
X91800009Y-157599993D03*
X91800009Y-154199993D03*
X92600009Y-157599993D03*
X92600009Y-154199993D03*
X93400009Y-157599993D03*
X93400009Y-154199993D03*
X94200009Y-157599993D03*
X94200009Y-154199993D03*
X95000009Y-157599993D03*
X95000009Y-154199993D03*
X95800009Y-157599993D03*
X95800009Y-154199993D03*
X96600009Y-157599993D03*
X96600009Y-154199993D03*
X100600009Y-157599993D03*
X100600009Y-154199993D03*
X101400009Y-157599993D03*
X101400009Y-154199993D03*
X102200009Y-157599993D03*
X102200009Y-154199993D03*
X103000009Y-157599993D03*
X103000009Y-154199993D03*
X103800009Y-157599993D03*
X103800009Y-154199993D03*
X104600009Y-157599993D03*
X104600009Y-154199993D03*
X105400009Y-157599993D03*
X105400009Y-154199993D03*
X106200009Y-157599993D03*
X106200009Y-154199993D03*
X107000009Y-157599993D03*
X107000009Y-154199993D03*
X107800009Y-157599993D03*
X107800009Y-154199993D03*
X108600009Y-157599993D03*
X108600009Y-154199993D03*
X109400009Y-157599993D03*
X109400009Y-154199993D03*
X110200009Y-157599993D03*
X110200009Y-154199993D03*
X111000009Y-157599993D03*
X111000009Y-154199993D03*
X111800009Y-157599993D03*
X111800009Y-154199993D03*
X112600009Y-157599993D03*
X112600009Y-154199993D03*
X113400009Y-157599993D03*
X113400009Y-154199993D03*
X114200009Y-157599993D03*
X114200009Y-154199993D03*
X115000009Y-157599993D03*
X115000009Y-154199993D03*
X115800009Y-157599993D03*
X115800009Y-154199993D03*
X116600009Y-157599993D03*
X116600009Y-154199993D03*
X117400009Y-157599993D03*
X117400009Y-154199993D03*
X118200009Y-157599993D03*
X118200009Y-154199993D03*
X119000009Y-157599993D03*
X119000009Y-154199993D03*
X119800009Y-157599993D03*
X119800009Y-154199993D03*
X120600009Y-157599993D03*
X120600009Y-154199993D03*
X121400009Y-157599993D03*
X121400009Y-154199993D03*
X122200009Y-157599993D03*
X122200009Y-154199993D03*
D20*
X65770000Y-139410000D03*
D18*
X70300000Y-142400000D03*
D19*
X63870000Y-142000000D03*
X60070000Y-142000000D03*
D18*
X123700000Y-140900000D03*
D19*
X61470000Y-139800000D03*
X67670000Y-142000000D03*
D21*
X71800000Y-142600000D03*
X71800000Y-139200000D03*
X72600000Y-142600000D03*
X72600000Y-139200000D03*
X73400000Y-142600000D03*
X73400000Y-139200000D03*
X74200000Y-142600000D03*
X74200000Y-139200000D03*
X75000000Y-142600000D03*
X75000000Y-139200000D03*
X75800000Y-142600000D03*
X75800000Y-139200000D03*
X76600000Y-142600000D03*
X76600000Y-139200000D03*
X77400000Y-142600000D03*
X77400000Y-139200000D03*
X78200000Y-142600000D03*
X78200000Y-139200000D03*
X79000000Y-142600000D03*
X79000000Y-139200000D03*
X79800000Y-142600000D03*
X79800000Y-139200000D03*
X80600000Y-142600000D03*
X80600000Y-139200000D03*
X81400000Y-142600000D03*
X81400000Y-139200000D03*
X82200000Y-142600000D03*
X82200000Y-139200000D03*
X83000000Y-142600000D03*
X83000000Y-139200000D03*
X83800000Y-142600000D03*
X83800000Y-139200000D03*
X84600000Y-142600000D03*
X84600000Y-139200000D03*
X85400000Y-142600000D03*
X85400000Y-139200000D03*
X86200000Y-142600000D03*
X86200000Y-139200000D03*
X87000000Y-142600000D03*
X87000000Y-139200000D03*
X87800000Y-142600000D03*
X87800000Y-139200000D03*
X88600000Y-142600000D03*
X88600000Y-139200000D03*
X89400000Y-142600000D03*
X89400000Y-139200000D03*
X90200000Y-142600000D03*
X90200000Y-139200000D03*
X91000000Y-142600000D03*
X91000000Y-139200000D03*
X91800000Y-142600000D03*
X91800000Y-139200000D03*
X92600000Y-142600000D03*
X92600000Y-139200000D03*
X93400000Y-142600000D03*
X93400000Y-139200000D03*
X94200000Y-142600000D03*
X94200000Y-139200000D03*
X95000000Y-142600000D03*
X95000000Y-139200000D03*
X95800000Y-142600000D03*
X95800000Y-139200000D03*
X96600000Y-142600000D03*
X96600000Y-139200000D03*
X100600000Y-142600000D03*
X100600000Y-139200000D03*
X101400000Y-142600000D03*
X101400000Y-139200000D03*
X102200000Y-142600000D03*
X102200000Y-139200000D03*
X103000000Y-142600000D03*
X103000000Y-139200000D03*
X103800000Y-142600000D03*
X103800000Y-139200000D03*
X104600000Y-142600000D03*
X104600000Y-139200000D03*
X105400000Y-142600000D03*
X105400000Y-139200000D03*
X106200000Y-142600000D03*
X106200000Y-139200000D03*
X107000000Y-142600000D03*
X107000000Y-139200000D03*
X107800000Y-142600000D03*
X107800000Y-139200000D03*
X108600000Y-142600000D03*
X108600000Y-139200000D03*
X109400000Y-142600000D03*
X109400000Y-139200000D03*
X110200000Y-142600000D03*
X110200000Y-139200000D03*
X111000000Y-142600000D03*
X111000000Y-139200000D03*
X111800000Y-142600000D03*
X111800000Y-139200000D03*
X112600000Y-142600000D03*
X112600000Y-139200000D03*
X113400000Y-142600000D03*
X113400000Y-139200000D03*
X114200000Y-142600000D03*
X114200000Y-139200000D03*
X115000000Y-142600000D03*
X115000000Y-139200000D03*
X115800000Y-142600000D03*
X115800000Y-139200000D03*
X116600000Y-142600000D03*
X116600000Y-139200000D03*
X117400000Y-142600000D03*
X117400000Y-139200000D03*
X118200000Y-142600000D03*
X118200000Y-139200000D03*
X119000000Y-142600000D03*
X119000000Y-139200000D03*
X119800000Y-142600000D03*
X119800000Y-139200000D03*
X120600000Y-142600000D03*
X120600000Y-139200000D03*
X121400000Y-142600000D03*
X121400000Y-139200000D03*
X122200000Y-142600000D03*
X122200000Y-139200000D03*
D19*
X61470000Y-124800000D03*
X63870000Y-127000000D03*
X60070000Y-127000000D03*
D18*
X123700000Y-125900000D03*
X70300000Y-127400000D03*
D19*
X67670000Y-127000000D03*
D20*
X65770000Y-124410000D03*
D21*
X71800000Y-127600000D03*
X71800000Y-124200000D03*
X72600000Y-127600000D03*
X72600000Y-124200000D03*
X73400000Y-127600000D03*
X73400000Y-124200000D03*
X74200000Y-127600000D03*
X74200000Y-124200000D03*
X75000000Y-127600000D03*
X75000000Y-124200000D03*
X75800000Y-127600000D03*
X75800000Y-124200000D03*
X76600000Y-127600000D03*
X76600000Y-124200000D03*
X77400000Y-127600000D03*
X77400000Y-124200000D03*
X78200000Y-127600000D03*
X78200000Y-124200000D03*
X79000000Y-127600000D03*
X79000000Y-124200000D03*
X79800000Y-127600000D03*
X79800000Y-124200000D03*
X80600000Y-127600000D03*
X80600000Y-124200000D03*
X81400000Y-127600000D03*
X81400000Y-124200000D03*
X82200000Y-127600000D03*
X82200000Y-124200000D03*
X83000000Y-127600000D03*
X83000000Y-124200000D03*
X83800000Y-127600000D03*
X83800000Y-124200000D03*
X84600000Y-127600000D03*
X84600000Y-124200000D03*
X85400000Y-127600000D03*
X85400000Y-124200000D03*
X86200000Y-127600000D03*
X86200000Y-124200000D03*
X87000000Y-127600000D03*
X87000000Y-124200000D03*
X87800000Y-127600000D03*
X87800000Y-124200000D03*
X88600000Y-127600000D03*
X88600000Y-124200000D03*
X89400000Y-127600000D03*
X89400000Y-124200000D03*
X90200000Y-127600000D03*
X90200000Y-124200000D03*
X91000000Y-127600000D03*
X91000000Y-124200000D03*
X91800000Y-127600000D03*
X91800000Y-124200000D03*
X92600000Y-127600000D03*
X92600000Y-124200000D03*
X93400000Y-127600000D03*
X93400000Y-124200000D03*
X94200000Y-127600000D03*
X94200000Y-124200000D03*
X95000000Y-127600000D03*
X95000000Y-124200000D03*
X95800000Y-127600000D03*
X95800000Y-124200000D03*
X96600000Y-127600000D03*
X96600000Y-124200000D03*
X100600000Y-127600000D03*
X100600000Y-124200000D03*
X101400000Y-127600000D03*
X101400000Y-124200000D03*
X102200000Y-127600000D03*
X102200000Y-124200000D03*
X103000000Y-127600000D03*
X103000000Y-124200000D03*
X103800000Y-127600000D03*
X103800000Y-124200000D03*
X104600000Y-127600000D03*
X104600000Y-124200000D03*
X105400000Y-127600000D03*
X105400000Y-124200000D03*
X106200000Y-127600000D03*
X106200000Y-124200000D03*
X107000000Y-127600000D03*
X107000000Y-124200000D03*
X107800000Y-127600000D03*
X107800000Y-124200000D03*
X108600000Y-127600000D03*
X108600000Y-124200000D03*
X109400000Y-127600000D03*
X109400000Y-124200000D03*
X110200000Y-127600000D03*
X110200000Y-124200000D03*
X111000000Y-127600000D03*
X111000000Y-124200000D03*
X111800000Y-127600000D03*
X111800000Y-124200000D03*
X112600000Y-127600000D03*
X112600000Y-124200000D03*
X113400000Y-127600000D03*
X113400000Y-124200000D03*
X114200000Y-127600000D03*
X114200000Y-124200000D03*
X115000000Y-127600000D03*
X115000000Y-124200000D03*
X115800000Y-127600000D03*
X115800000Y-124200000D03*
X116600000Y-127600000D03*
X116600000Y-124200000D03*
X117400000Y-127600000D03*
X117400000Y-124200000D03*
X118200000Y-127600000D03*
X118200000Y-124200000D03*
X119000000Y-127600000D03*
X119000000Y-124200000D03*
X119800000Y-127600000D03*
X119800000Y-124200000D03*
X120600000Y-127600000D03*
X120600000Y-124200000D03*
X121400000Y-127600000D03*
X121400000Y-124200000D03*
X122200000Y-127600000D03*
X122200000Y-124200000D03*
D20*
X65770000Y-109410000D03*
D18*
X123700000Y-110900000D03*
X70300000Y-112400000D03*
D19*
X60070000Y-112000000D03*
X67670000Y-112000000D03*
X63870000Y-112000000D03*
X61470000Y-109800000D03*
D21*
X71800000Y-112600000D03*
X71800000Y-109200000D03*
X72600000Y-112600000D03*
X72600000Y-109200000D03*
X73400000Y-112600000D03*
X73400000Y-109200000D03*
X74200000Y-112600000D03*
X74200000Y-109200000D03*
X75000000Y-112600000D03*
X75000000Y-109200000D03*
X75800000Y-112600000D03*
X75800000Y-109200000D03*
X76600000Y-112600000D03*
X76600000Y-109200000D03*
X77400000Y-112600000D03*
X77400000Y-109200000D03*
X78200000Y-112600000D03*
X78200000Y-109200000D03*
X79000000Y-112600000D03*
X79000000Y-109200000D03*
X79800000Y-112600000D03*
X79800000Y-109200000D03*
X80600000Y-112600000D03*
X80600000Y-109200000D03*
X81400000Y-112600000D03*
X81400000Y-109200000D03*
X82200000Y-112600000D03*
X82200000Y-109200000D03*
X83000000Y-112600000D03*
X83000000Y-109200000D03*
X83800000Y-112600000D03*
X83800000Y-109200000D03*
X84600000Y-112600000D03*
X84600000Y-109200000D03*
X85400000Y-112600000D03*
X85400000Y-109200000D03*
X86200000Y-112600000D03*
X86200000Y-109200000D03*
X87000000Y-112600000D03*
X87000000Y-109200000D03*
X87800000Y-112600000D03*
X87800000Y-109200000D03*
X88600000Y-112600000D03*
X88600000Y-109200000D03*
X89400000Y-112600000D03*
X89400000Y-109200000D03*
X90200000Y-112600000D03*
X90200000Y-109200000D03*
X91000000Y-112600000D03*
X91000000Y-109200000D03*
X91800000Y-112600000D03*
X91800000Y-109200000D03*
X92600000Y-112600000D03*
X92600000Y-109200000D03*
X93400000Y-112600000D03*
X93400000Y-109200000D03*
X94200000Y-112600000D03*
X94200000Y-109200000D03*
X95000000Y-112600000D03*
X95000000Y-109200000D03*
X95800000Y-112600000D03*
X95800000Y-109200000D03*
X96600000Y-112600000D03*
X96600000Y-109200000D03*
X100600000Y-112600000D03*
X100600000Y-109200000D03*
X101400000Y-112600000D03*
X101400000Y-109200000D03*
X102200000Y-112600000D03*
X102200000Y-109200000D03*
X103000000Y-112600000D03*
X103000000Y-109200000D03*
X103800000Y-112600000D03*
X103800000Y-109200000D03*
X104600000Y-112600000D03*
X104600000Y-109200000D03*
X105400000Y-112600000D03*
X105400000Y-109200000D03*
X106200000Y-112600000D03*
X106200000Y-109200000D03*
X107000000Y-112600000D03*
X107000000Y-109200000D03*
X107800000Y-112600000D03*
X107800000Y-109200000D03*
X108600000Y-112600000D03*
X108600000Y-109200000D03*
X109400000Y-112600000D03*
X109400000Y-109200000D03*
X110200000Y-112600000D03*
X110200000Y-109200000D03*
X111000000Y-112600000D03*
X111000000Y-109200000D03*
X111800000Y-112600000D03*
X111800000Y-109200000D03*
X112600000Y-112600000D03*
X112600000Y-109200000D03*
X113400000Y-112600000D03*
X113400000Y-109200000D03*
X114200000Y-112600000D03*
X114200000Y-109200000D03*
X115000000Y-112600000D03*
X115000000Y-109200000D03*
X115800000Y-112600000D03*
X115800000Y-109200000D03*
X116600000Y-112600000D03*
X116600000Y-109200000D03*
X117400000Y-112600000D03*
X117400000Y-109200000D03*
X118200000Y-112600000D03*
X118200000Y-109200000D03*
X119000000Y-112600000D03*
X119000000Y-109200000D03*
X119800000Y-112600000D03*
X119800000Y-109200000D03*
X120600000Y-112600000D03*
X120600000Y-109200000D03*
X121400000Y-112600000D03*
X121400000Y-109200000D03*
X122200000Y-112600000D03*
X122200000Y-109200000D03*
D19*
X60070000Y-97000000D03*
X63870000Y-97000000D03*
X67670000Y-97000000D03*
D18*
X70300000Y-97400000D03*
D20*
X65770000Y-94410000D03*
D19*
X61470000Y-94800000D03*
D18*
X123700000Y-95900000D03*
D21*
X71800000Y-97600000D03*
X71800000Y-94200000D03*
X72600000Y-97600000D03*
X72600000Y-94200000D03*
X73400000Y-97600000D03*
X73400000Y-94200000D03*
X74200000Y-97600000D03*
X74200000Y-94200000D03*
X75000000Y-97600000D03*
X75000000Y-94200000D03*
X75800000Y-97600000D03*
X75800000Y-94200000D03*
X76600000Y-97600000D03*
X76600000Y-94200000D03*
X77400000Y-97600000D03*
X77400000Y-94200000D03*
X78200000Y-97600000D03*
X78200000Y-94200000D03*
X79000000Y-97600000D03*
X79000000Y-94200000D03*
X79800000Y-97600000D03*
X79800000Y-94200000D03*
X80600000Y-97600000D03*
X80600000Y-94200000D03*
X81400000Y-97600000D03*
X81400000Y-94200000D03*
X82200000Y-97600000D03*
X82200000Y-94200000D03*
X83000000Y-97600000D03*
X83000000Y-94200000D03*
X83800000Y-97600000D03*
X83800000Y-94200000D03*
X84600000Y-97600000D03*
X84600000Y-94200000D03*
X85400000Y-97600000D03*
X85400000Y-94200000D03*
X86200000Y-97600000D03*
X86200000Y-94200000D03*
X87000000Y-97600000D03*
X87000000Y-94200000D03*
X87800000Y-97600000D03*
X87800000Y-94200000D03*
X88600000Y-97600000D03*
X88600000Y-94200000D03*
X89400000Y-97600000D03*
X89400000Y-94200000D03*
X90200000Y-97600000D03*
X90200000Y-94200000D03*
X91000000Y-97600000D03*
X91000000Y-94200000D03*
X91800000Y-97600000D03*
X91800000Y-94200000D03*
X92600000Y-97600000D03*
X92600000Y-94200000D03*
X93400000Y-97600000D03*
X93400000Y-94200000D03*
X94200000Y-97600000D03*
X94200000Y-94200000D03*
X95000000Y-97600000D03*
X95000000Y-94200000D03*
X95800000Y-97600000D03*
X95800000Y-94200000D03*
X96600000Y-97600000D03*
X96600000Y-94200000D03*
X100600000Y-97600000D03*
X100600000Y-94200000D03*
X101400000Y-97600000D03*
X101400000Y-94200000D03*
X102200000Y-97600000D03*
X102200000Y-94200000D03*
X103000000Y-97600000D03*
X103000000Y-94200000D03*
X103800000Y-97600000D03*
X103800000Y-94200000D03*
X104600000Y-97600000D03*
X104600000Y-94200000D03*
X105400000Y-97600000D03*
X105400000Y-94200000D03*
X106200000Y-97600000D03*
X106200000Y-94200000D03*
X107000000Y-97600000D03*
X107000000Y-94200000D03*
X107800000Y-97600000D03*
X107800000Y-94200000D03*
X108600000Y-97600000D03*
X108600000Y-94200000D03*
X109400000Y-97600000D03*
X109400000Y-94200000D03*
X110200000Y-97600000D03*
X110200000Y-94200000D03*
X111000000Y-97600000D03*
X111000000Y-94200000D03*
X111800000Y-97600000D03*
X111800000Y-94200000D03*
X112600000Y-97600000D03*
X112600000Y-94200000D03*
X113400000Y-97600000D03*
X113400000Y-94200000D03*
X114200000Y-97600000D03*
X114200000Y-94200000D03*
X115000000Y-97600000D03*
X115000000Y-94200000D03*
X115800000Y-97600000D03*
X115800000Y-94200000D03*
X116600000Y-97600000D03*
X116600000Y-94200000D03*
X117400000Y-97600000D03*
X117400000Y-94200000D03*
X118200000Y-97600000D03*
X118200000Y-94200000D03*
X119000000Y-97600000D03*
X119000000Y-94200000D03*
X119800000Y-97600000D03*
X119800000Y-94200000D03*
X120600000Y-97600000D03*
X120600000Y-94200000D03*
X121400000Y-97600000D03*
X121400000Y-94200000D03*
X122200000Y-97600000D03*
X122200000Y-94200000D03*
D19*
X61470000Y-79800000D03*
D18*
X70300000Y-82400000D03*
D19*
X67670000Y-82000000D03*
X60070000Y-82000000D03*
X63870000Y-82000000D03*
D18*
X123700000Y-80900000D03*
D20*
X65770000Y-79410000D03*
D21*
X71800000Y-82600000D03*
X71800000Y-79200000D03*
X72600000Y-82600000D03*
X72600000Y-79200000D03*
X73400000Y-82600000D03*
X73400000Y-79200000D03*
X74200000Y-82600000D03*
X74200000Y-79200000D03*
X75000000Y-82600000D03*
X75000000Y-79200000D03*
X75800000Y-82600000D03*
X75800000Y-79200000D03*
X76600000Y-82600000D03*
X76600000Y-79200000D03*
X77400000Y-82600000D03*
X77400000Y-79200000D03*
X78200000Y-82600000D03*
X78200000Y-79200000D03*
X79000000Y-82600000D03*
X79000000Y-79200000D03*
X79800000Y-82600000D03*
X79800000Y-79200000D03*
X80600000Y-82600000D03*
X80600000Y-79200000D03*
X81400000Y-82600000D03*
X81400000Y-79200000D03*
X82200000Y-82600000D03*
X82200000Y-79200000D03*
X83000000Y-82600000D03*
X83000000Y-79200000D03*
X83800000Y-82600000D03*
X83800000Y-79200000D03*
X84600000Y-82600000D03*
X84600000Y-79200000D03*
X85400000Y-82600000D03*
X85400000Y-79200000D03*
X86200000Y-82600000D03*
X86200000Y-79200000D03*
X87000000Y-82600000D03*
X87000000Y-79200000D03*
X87800000Y-82600000D03*
X87800000Y-79200000D03*
X88600000Y-82600000D03*
X88600000Y-79200000D03*
X89400000Y-82600000D03*
X89400000Y-79200000D03*
X90200000Y-82600000D03*
X90200000Y-79200000D03*
X91000000Y-82600000D03*
X91000000Y-79200000D03*
X91800000Y-82600000D03*
X91800000Y-79200000D03*
X92600000Y-82600000D03*
X92600000Y-79200000D03*
X93400000Y-82600000D03*
X93400000Y-79200000D03*
X94200000Y-82600000D03*
X94200000Y-79200000D03*
X95000000Y-82600000D03*
X95000000Y-79200000D03*
X95800000Y-82600000D03*
X95800000Y-79200000D03*
X96600000Y-82600000D03*
X96600000Y-79200000D03*
X100600000Y-82600000D03*
X100600000Y-79200000D03*
X101400000Y-82600000D03*
X101400000Y-79200000D03*
X102200000Y-82600000D03*
X102200000Y-79200000D03*
X103000000Y-82600000D03*
X103000000Y-79200000D03*
X103800000Y-82600000D03*
X103800000Y-79200000D03*
X104600000Y-82600000D03*
X104600000Y-79200000D03*
X105400000Y-82600000D03*
X105400000Y-79200000D03*
X106200000Y-82600000D03*
X106200000Y-79200000D03*
X107000000Y-82600000D03*
X107000000Y-79200000D03*
X107800000Y-82600000D03*
X107800000Y-79200000D03*
X108600000Y-82600000D03*
X108600000Y-79200000D03*
X109400000Y-82600000D03*
X109400000Y-79200000D03*
X110200000Y-82600000D03*
X110200000Y-79200000D03*
X111000000Y-82600000D03*
X111000000Y-79200000D03*
X111800000Y-82600000D03*
X111800000Y-79200000D03*
X112600000Y-82600000D03*
X112600000Y-79200000D03*
X113400000Y-82600000D03*
X113400000Y-79200000D03*
X114200000Y-82600000D03*
X114200000Y-79200000D03*
X115000000Y-82600000D03*
X115000000Y-79200000D03*
X115800000Y-82600000D03*
X115800000Y-79200000D03*
X116600000Y-82600000D03*
X116600000Y-79200000D03*
X117400000Y-82600000D03*
X117400000Y-79200000D03*
X118200000Y-82600000D03*
X118200000Y-79200000D03*
X119000000Y-82600000D03*
X119000000Y-79200000D03*
X119800000Y-82600000D03*
X119800000Y-79200000D03*
X120600000Y-82600000D03*
X120600000Y-79200000D03*
X121400000Y-82600000D03*
X121400000Y-79200000D03*
X122200000Y-82600000D03*
X122200000Y-79200000D03*
D19*
X61470000Y-64800000D03*
X60070000Y-67000000D03*
D18*
X70300000Y-67400000D03*
D19*
X63870000Y-67000000D03*
D18*
X123700000Y-65900000D03*
D19*
X67670000Y-67000000D03*
D20*
X65770000Y-64410000D03*
D21*
X71800000Y-67600000D03*
X71800000Y-64200000D03*
X72600000Y-67600000D03*
X72600000Y-64200000D03*
X73400000Y-67600000D03*
X73400000Y-64200000D03*
X74200000Y-67600000D03*
X74200000Y-64200000D03*
X75000000Y-67600000D03*
X75000000Y-64200000D03*
X75800000Y-67600000D03*
X75800000Y-64200000D03*
X76600000Y-67600000D03*
X76600000Y-64200000D03*
X77400000Y-67600000D03*
X77400000Y-64200000D03*
X78200000Y-67600000D03*
X78200000Y-64200000D03*
X79000000Y-67600000D03*
X79000000Y-64200000D03*
X79800000Y-67600000D03*
X79800000Y-64200000D03*
X80600000Y-67600000D03*
X80600000Y-64200000D03*
X81400000Y-67600000D03*
X81400000Y-64200000D03*
X82200000Y-67600000D03*
X82200000Y-64200000D03*
X83000000Y-67600000D03*
X83000000Y-64200000D03*
X83800000Y-67600000D03*
X83800000Y-64200000D03*
X84600000Y-67600000D03*
X84600000Y-64200000D03*
X85400000Y-67600000D03*
X85400000Y-64200000D03*
X86200000Y-67600000D03*
X86200000Y-64200000D03*
X87000000Y-67600000D03*
X87000000Y-64200000D03*
X87800000Y-67600000D03*
X87800000Y-64200000D03*
X88600000Y-67600000D03*
X88600000Y-64200000D03*
X89400000Y-67600000D03*
X89400000Y-64200000D03*
X90200000Y-67600000D03*
X90200000Y-64200000D03*
X91000000Y-67600000D03*
X91000000Y-64200000D03*
X91800000Y-67600000D03*
X91800000Y-64200000D03*
X92600000Y-67600000D03*
X92600000Y-64200000D03*
X93400000Y-67600000D03*
X93400000Y-64200000D03*
X94200000Y-67600000D03*
X94200000Y-64200000D03*
X95000000Y-67600000D03*
X95000000Y-64200000D03*
X95800000Y-67600000D03*
X95800000Y-64200000D03*
X96600000Y-67600000D03*
X96600000Y-64200000D03*
X100600000Y-67600000D03*
X100600000Y-64200000D03*
X101400000Y-67600000D03*
X101400000Y-64200000D03*
X102200000Y-67600000D03*
X102200000Y-64200000D03*
X103000000Y-67600000D03*
X103000000Y-64200000D03*
X103800000Y-67600000D03*
X103800000Y-64200000D03*
X104600000Y-67600000D03*
X104600000Y-64200000D03*
X105400000Y-67600000D03*
X105400000Y-64200000D03*
X106200000Y-67600000D03*
X106200000Y-64200000D03*
X107000000Y-67600000D03*
X107000000Y-64200000D03*
X107800000Y-67600000D03*
X107800000Y-64200000D03*
X108600000Y-67600000D03*
X108600000Y-64200000D03*
X109400000Y-67600000D03*
X109400000Y-64200000D03*
X110200000Y-67600000D03*
X110200000Y-64200000D03*
X111000000Y-67600000D03*
X111000000Y-64200000D03*
X111800000Y-67600000D03*
X111800000Y-64200000D03*
X112600000Y-67600000D03*
X112600000Y-64200000D03*
X113400000Y-67600000D03*
X113400000Y-64200000D03*
X114200000Y-67600000D03*
X114200000Y-64200000D03*
X115000000Y-67600000D03*
X115000000Y-64200000D03*
X115800000Y-67600000D03*
X115800000Y-64200000D03*
X116600000Y-67600000D03*
X116600000Y-64200000D03*
X117400000Y-67600000D03*
X117400000Y-64200000D03*
X118200000Y-67600000D03*
X118200000Y-64200000D03*
X119000000Y-67600000D03*
X119000000Y-64200000D03*
X119800000Y-67600000D03*
X119800000Y-64200000D03*
X120600000Y-67600000D03*
X120600000Y-64200000D03*
X121400000Y-67600000D03*
X121400000Y-64200000D03*
X122200000Y-67600000D03*
X122200000Y-64200000D03*
D18*
X70300000Y-52400000D03*
X123700000Y-50900000D03*
D19*
X61470000Y-49800000D03*
D20*
X65770000Y-49410000D03*
D19*
X63870000Y-52000000D03*
X60070000Y-52000000D03*
X67670000Y-52000000D03*
D21*
X71800000Y-52600000D03*
X71800000Y-49200000D03*
X72600000Y-52600000D03*
X72600000Y-49200000D03*
X73400000Y-52600000D03*
X73400000Y-49200000D03*
X74200000Y-52600000D03*
X74200000Y-49200000D03*
X75000000Y-52600000D03*
X75000000Y-49200000D03*
X75800000Y-52600000D03*
X75800000Y-49200000D03*
X76600000Y-52600000D03*
X76600000Y-49200000D03*
X77400000Y-52600000D03*
X77400000Y-49200000D03*
X78200000Y-52600000D03*
X78200000Y-49200000D03*
X79000000Y-52600000D03*
X79000000Y-49200000D03*
X79800000Y-52600000D03*
X79800000Y-49200000D03*
X80600000Y-52600000D03*
X80600000Y-49200000D03*
X81400000Y-52600000D03*
X81400000Y-49200000D03*
X82200000Y-52600000D03*
X82200000Y-49200000D03*
X83000000Y-52600000D03*
X83000000Y-49200000D03*
X83800000Y-52600000D03*
X83800000Y-49200000D03*
X84600000Y-52600000D03*
X84600000Y-49200000D03*
X85400000Y-52600000D03*
X85400000Y-49200000D03*
X86200000Y-52600000D03*
X86200000Y-49200000D03*
X87000000Y-52600000D03*
X87000000Y-49200000D03*
X87800000Y-52600000D03*
X87800000Y-49200000D03*
X88600000Y-52600000D03*
X88600000Y-49200000D03*
X89400000Y-52600000D03*
X89400000Y-49200000D03*
X90200000Y-52600000D03*
X90200000Y-49200000D03*
X91000000Y-52600000D03*
X91000000Y-49200000D03*
X91800000Y-52600000D03*
X91800000Y-49200000D03*
X92600000Y-52600000D03*
X92600000Y-49200000D03*
X93400000Y-52600000D03*
X93400000Y-49200000D03*
X94200000Y-52600000D03*
X94200000Y-49200000D03*
X95000000Y-52600000D03*
X95000000Y-49200000D03*
X95800000Y-52600000D03*
X95800000Y-49200000D03*
X96600000Y-52600000D03*
X96600000Y-49200000D03*
X100600000Y-52600000D03*
X100600000Y-49200000D03*
X101400000Y-52600000D03*
X101400000Y-49200000D03*
X102200000Y-52600000D03*
X102200000Y-49200000D03*
X103000000Y-52600000D03*
X103000000Y-49200000D03*
X103800000Y-52600000D03*
X103800000Y-49200000D03*
X104600000Y-52600000D03*
X104600000Y-49200000D03*
X105400000Y-52600000D03*
X105400000Y-49200000D03*
X106200000Y-52600000D03*
X106200000Y-49200000D03*
X107000000Y-52600000D03*
X107000000Y-49200000D03*
X107800000Y-52600000D03*
X107800000Y-49200000D03*
X108600000Y-52600000D03*
X108600000Y-49200000D03*
X109400000Y-52600000D03*
X109400000Y-49200000D03*
X110200000Y-52600000D03*
X110200000Y-49200000D03*
X111000000Y-52600000D03*
X111000000Y-49200000D03*
X111800000Y-52600000D03*
X111800000Y-49200000D03*
X112600000Y-52600000D03*
X112600000Y-49200000D03*
X113400000Y-52600000D03*
X113400000Y-49200000D03*
X114200000Y-52600000D03*
X114200000Y-49200000D03*
X115000000Y-52600000D03*
X115000000Y-49200000D03*
X115800000Y-52600000D03*
X115800000Y-49200000D03*
X116600000Y-52600000D03*
X116600000Y-49200000D03*
X117400000Y-52600000D03*
X117400000Y-49200000D03*
X118200000Y-52600000D03*
X118200000Y-49200000D03*
X119000000Y-52600000D03*
X119000000Y-49200000D03*
X119800000Y-52600000D03*
X119800000Y-49200000D03*
X120600000Y-52600000D03*
X120600000Y-49200000D03*
X121400000Y-52600000D03*
X121400000Y-49200000D03*
X122200000Y-52600000D03*
X122200000Y-49200000D03*
D22*
X62000000Y-40900000D03*
X62000000Y-172900000D03*
X132000000Y-172900000D03*
X132000000Y-105900000D03*
X62000000Y-105900000D03*
X132000000Y-40900000D03*
D23*
X60250000Y-164175000D03*
X60250000Y-165825000D03*
D24*
X87475000Y-172852000D03*
X87475000Y-171582000D03*
X90015000Y-171582000D03*
X98905000Y-171582000D03*
X91285000Y-171582000D03*
X83665000Y-172852000D03*
X88745000Y-172852000D03*
X109065000Y-171582000D03*
D25*
X114780000Y-172217000D03*
D24*
X83665000Y-171582000D03*
X79855000Y-172852000D03*
X93825000Y-172852000D03*
X101445000Y-172852000D03*
X101445000Y-171582000D03*
X110335000Y-172852000D03*
X97635000Y-172852000D03*
X86205000Y-172852000D03*
X112875000Y-172852000D03*
X81125000Y-171582000D03*
X114145000Y-171582000D03*
X115415000Y-171582000D03*
X82395000Y-172852000D03*
X81125000Y-172852000D03*
X103985000Y-172852000D03*
X107795000Y-171582000D03*
X100175000Y-171582000D03*
D25*
X79220000Y-172217000D03*
D24*
X92555000Y-172852000D03*
X78585000Y-171582000D03*
X102715000Y-171582000D03*
X90015000Y-172852000D03*
X84935000Y-172852000D03*
X106525000Y-171582000D03*
X100175000Y-172852000D03*
X88745000Y-171582000D03*
X97635000Y-171582000D03*
X91285000Y-172852000D03*
X111605000Y-171582000D03*
X95095000Y-172852000D03*
X114145000Y-172852000D03*
X98905000Y-172852000D03*
X107795000Y-172852000D03*
X96365000Y-171582000D03*
X103985000Y-171582000D03*
X105255000Y-171582000D03*
X84935000Y-171582000D03*
X95095000Y-171582000D03*
X79855000Y-171582000D03*
X92555000Y-171582000D03*
X109065000Y-172852000D03*
X105255000Y-172852000D03*
X106525000Y-172852000D03*
X112875000Y-171582000D03*
X86205000Y-171582000D03*
X110335000Y-171582000D03*
X93825000Y-171582000D03*
X115415000Y-172852000D03*
X82395000Y-171582000D03*
X102715000Y-172852000D03*
X78585000Y-172852000D03*
X96365000Y-172852000D03*
X111605000Y-172852000D03*
D26*
X78585000Y-170347000D03*
X78585000Y-174087000D03*
X79855000Y-170347000D03*
X79855000Y-174087000D03*
X81125000Y-170347000D03*
X81125000Y-174087000D03*
X82395000Y-170347000D03*
X82395000Y-174087000D03*
X83665000Y-170347000D03*
X83665000Y-174087000D03*
X84935000Y-170347000D03*
X84935000Y-174087000D03*
X86205000Y-170347000D03*
X86205000Y-174087000D03*
X87475000Y-170347000D03*
X87475000Y-174087000D03*
X88745000Y-170347000D03*
X88745000Y-174087000D03*
X90015000Y-170347000D03*
X90015000Y-174087000D03*
X91285000Y-170347000D03*
X91285000Y-174087000D03*
X92555000Y-170347000D03*
X92555000Y-174087000D03*
X93825000Y-170347000D03*
X93825000Y-174087000D03*
X95095000Y-170347000D03*
X95095000Y-174087000D03*
X96365000Y-170347000D03*
X96365000Y-174087000D03*
X97635000Y-170347000D03*
X97635000Y-174087000D03*
X98905000Y-170347000D03*
X98905000Y-174087000D03*
X100175000Y-170347000D03*
X100175000Y-174087000D03*
X101445000Y-170347000D03*
X101445000Y-174087000D03*
X102715000Y-170347000D03*
X102715000Y-174087000D03*
X103985000Y-170347000D03*
X103985000Y-174087000D03*
X105255000Y-170347000D03*
X105255000Y-174087000D03*
X106525000Y-170347000D03*
X106525000Y-174087000D03*
X107795000Y-170347000D03*
X107795000Y-174087000D03*
X109065000Y-170347000D03*
X109065000Y-174087000D03*
X110335000Y-170347000D03*
X110335000Y-174087000D03*
X111605000Y-170347000D03*
X111605000Y-174087000D03*
X112875000Y-170347000D03*
X112875000Y-174087000D03*
X114145000Y-170347000D03*
X114145000Y-174087000D03*
X115415000Y-170347000D03*
X115415000Y-174087000D03*
D24*
X79855000Y-164978000D03*
X88745000Y-164978000D03*
X81125000Y-166248000D03*
X107795000Y-166248000D03*
X93825000Y-164978000D03*
X97635000Y-166248000D03*
X112875000Y-166248000D03*
X97635000Y-164978000D03*
X115415000Y-166248000D03*
D25*
X79220000Y-165613000D03*
D24*
X103985000Y-166248000D03*
X90015000Y-166248000D03*
X110335000Y-166248000D03*
X98905000Y-164978000D03*
X82395000Y-164978000D03*
X96365000Y-164978000D03*
X114145000Y-166248000D03*
X109065000Y-164978000D03*
X110335000Y-164978000D03*
X86205000Y-166248000D03*
X101445000Y-164978000D03*
X82395000Y-166248000D03*
X112875000Y-164978000D03*
X86205000Y-164978000D03*
X109065000Y-166248000D03*
X105255000Y-164978000D03*
X114145000Y-164978000D03*
D25*
X114780000Y-165613000D03*
D24*
X79855000Y-166248000D03*
X78585000Y-166248000D03*
X100175000Y-164978000D03*
X78585000Y-164978000D03*
X111605000Y-164978000D03*
X84935000Y-164978000D03*
X81125000Y-164978000D03*
X115415000Y-164978000D03*
X84935000Y-166248000D03*
X93825000Y-166248000D03*
X90015000Y-164978000D03*
X101445000Y-166248000D03*
X106525000Y-166248000D03*
X103985000Y-164978000D03*
X102715000Y-164978000D03*
X107795000Y-164978000D03*
X106525000Y-164978000D03*
X91285000Y-166248000D03*
X87475000Y-164978000D03*
X83665000Y-164978000D03*
X96365000Y-166248000D03*
X92555000Y-166248000D03*
X91285000Y-164978000D03*
X92555000Y-164978000D03*
X88745000Y-166248000D03*
X98905000Y-166248000D03*
X111605000Y-166248000D03*
X100175000Y-166248000D03*
X87475000Y-166248000D03*
X95095000Y-164978000D03*
X83665000Y-166248000D03*
X95095000Y-166248000D03*
X105255000Y-166248000D03*
X102715000Y-166248000D03*
D26*
X78585000Y-163743000D03*
X78585000Y-167483000D03*
X79855000Y-163743000D03*
X79855000Y-167483000D03*
X81125000Y-163743000D03*
X81125000Y-167483000D03*
X82395000Y-163743000D03*
X82395000Y-167483000D03*
X83665000Y-163743000D03*
X83665000Y-167483000D03*
X84935000Y-163743000D03*
X84935000Y-167483000D03*
X86205000Y-163743000D03*
X86205000Y-167483000D03*
X87475000Y-163743000D03*
X87475000Y-167483000D03*
X88745000Y-163743000D03*
X88745000Y-167483000D03*
X90015000Y-163743000D03*
X90015000Y-167483000D03*
X91285000Y-163743000D03*
X91285000Y-167483000D03*
X92555000Y-163743000D03*
X92555000Y-167483000D03*
X93825000Y-163743000D03*
X93825000Y-167483000D03*
X95095000Y-163743000D03*
X95095000Y-167483000D03*
X96365000Y-163743000D03*
X96365000Y-167483000D03*
X97635000Y-163743000D03*
X97635000Y-167483000D03*
X98905000Y-163743000D03*
X98905000Y-167483000D03*
X100175000Y-163743000D03*
X100175000Y-167483000D03*
X101445000Y-163743000D03*
X101445000Y-167483000D03*
X102715000Y-163743000D03*
X102715000Y-167483000D03*
X103985000Y-163743000D03*
X103985000Y-167483000D03*
X105255000Y-163743000D03*
X105255000Y-167483000D03*
X106525000Y-163743000D03*
X106525000Y-167483000D03*
X107795000Y-163743000D03*
X107795000Y-167483000D03*
X109065000Y-163743000D03*
X109065000Y-167483000D03*
X110335000Y-163743000D03*
X110335000Y-167483000D03*
X111605000Y-163743000D03*
X111605000Y-167483000D03*
X112875000Y-163743000D03*
X112875000Y-167483000D03*
X114145000Y-163743000D03*
X114145000Y-167483000D03*
X115415000Y-163743000D03*
X115415000Y-167483000D03*
D17*
X126270000Y-106000000D03*
X127230000Y-106000000D03*
D27*
X74814000Y-41741000D03*
X74814000Y-40441000D03*
X72814000Y-41091000D03*
D28*
X77070000Y-40385000D03*
X78090000Y-40385000D03*
D29*
X78090000Y-41885000D03*
X77070000Y-41885000D03*
D27*
X74830000Y-44535000D03*
X74830000Y-43235000D03*
X72830000Y-43885000D03*
D29*
X78090000Y-43385000D03*
X77070000Y-43385000D03*
X78090000Y-44635000D03*
X77070000Y-44635000D03*
D30*
X62078000Y-70126000D03*
X62078000Y-69076000D03*
X65628000Y-69076000D03*
X65628000Y-70126000D03*
D31*
X67155000Y-53967000D03*
X67155000Y-55517000D03*
D32*
X62375000Y-136287500D03*
X63375000Y-136287500D03*
X64375000Y-136287500D03*
X65375000Y-136287500D03*
D33*
X61075000Y-133237500D03*
X66675000Y-133237500D03*
D30*
X62078000Y-129965000D03*
X62078000Y-128915000D03*
X65628000Y-128915000D03*
X65628000Y-129965000D03*
D32*
X61375000Y-151107500D03*
X62375000Y-151107500D03*
X63375000Y-151107500D03*
X64375000Y-151107500D03*
X65375000Y-151107500D03*
X66375000Y-151107500D03*
D33*
X60075000Y-148057500D03*
X67675000Y-148057500D03*
D30*
X62078000Y-84966000D03*
X62078000Y-83916000D03*
X65628000Y-83916000D03*
X65628000Y-84966000D03*
D31*
X67155000Y-69080000D03*
X67155000Y-70630000D03*
D30*
X62078000Y-54966000D03*
X62078000Y-53916000D03*
X65628000Y-53916000D03*
X65628000Y-54966000D03*
D32*
X127625000Y-151287500D03*
X128625000Y-151287500D03*
X129625000Y-151287500D03*
X130625000Y-151287500D03*
X131625000Y-151287500D03*
X132625000Y-151287500D03*
D33*
X126325000Y-148237500D03*
X133925000Y-148237500D03*
D34*
X70212500Y-167415000D03*
X70212500Y-168415000D03*
X70212500Y-169415000D03*
X70212500Y-170415000D03*
D35*
X73262500Y-166115000D03*
X73262500Y-171715000D03*
D29*
X65534000Y-56896000D03*
X64514000Y-56896000D03*
D31*
X67155000Y-98925000D03*
X67155000Y-100475000D03*
D30*
X62078000Y-144965000D03*
X62078000Y-143915000D03*
X65628000Y-143915000D03*
X65628000Y-144965000D03*
D31*
X67155000Y-143883000D03*
X67155000Y-145433000D03*
X67155000Y-83939000D03*
X67155000Y-85489000D03*
D30*
X62078000Y-99965000D03*
X62078000Y-98915000D03*
X65628000Y-98915000D03*
X65628000Y-99965000D03*
D32*
X61375000Y-121287500D03*
X62375000Y-121287500D03*
X63375000Y-121287500D03*
X64375000Y-121287500D03*
X65375000Y-121287500D03*
X66375000Y-121287500D03*
D33*
X60075000Y-118237500D03*
X67675000Y-118237500D03*
D32*
X127625000Y-61287900D03*
X128625000Y-61287900D03*
X129625000Y-61287900D03*
X130625000Y-61287900D03*
X131625000Y-61287900D03*
X132625000Y-61287900D03*
D33*
X126325000Y-58237900D03*
X133925000Y-58237900D03*
D30*
X62078000Y-114965000D03*
X62078000Y-113915000D03*
X65628000Y-113915000D03*
X65628000Y-114965000D03*
D34*
X123787500Y-170415000D03*
X123787500Y-169415000D03*
X123787500Y-168415000D03*
X123787500Y-167415000D03*
D35*
X120737500Y-171715000D03*
X120737500Y-166115000D03*
D30*
X62078000Y-159965000D03*
X62078000Y-158915000D03*
X65628000Y-158915000D03*
X65628000Y-159965000D03*
D31*
X67155000Y-113911000D03*
X67155000Y-115461000D03*
X67056000Y-160134000D03*
X67056000Y-161684000D03*
X67155000Y-128897000D03*
X67155000Y-130447000D03*
M02*
