G04 #@! TF.GenerationSoftware,KiCad,Pcbnew,(5.1.10)-1*
G04 #@! TF.CreationDate,2021-12-21T11:04:14-05:00*
G04 #@! TF.ProjectId,backplane,6261636b-706c-4616-9e65-2e6b69636164,A1*
G04 #@! TF.SameCoordinates,Original*
G04 #@! TF.FileFunction,Soldermask,Bot*
G04 #@! TF.FilePolarity,Negative*
%FSLAX46Y46*%
G04 Gerber Fmt 4.6, Leading zero omitted, Abs format (unit mm)*
G04 Created by KiCad (PCBNEW (5.1.10)-1) date 2021-12-21 11:04:14*
%MOMM*%
%LPD*%
G01*
G04 APERTURE LIST*
%ADD10R,0.740000X1.470000*%
%ADD11C,0.740000*%
%ADD12C,0.900000*%
%ADD13C,1.000000*%
%ADD14C,1.500000*%
%ADD15C,1.270000*%
%ADD16R,0.650000X0.700000*%
%ADD17C,4.500000*%
%ADD18C,1.900000*%
G04 APERTURE END LIST*
D10*
X115824000Y-170342000D03*
X115824000Y-174082000D03*
X114554000Y-170342000D03*
X114554000Y-174082000D03*
X113284000Y-170342000D03*
X113284000Y-174082000D03*
X112014000Y-170342000D03*
X112014000Y-174082000D03*
X110744000Y-170342000D03*
X110744000Y-174082000D03*
X109474000Y-170342000D03*
X109474000Y-174082000D03*
X108204000Y-170342000D03*
X108204000Y-174082000D03*
X106934000Y-170342000D03*
X106934000Y-174082000D03*
X105664000Y-170342000D03*
X105664000Y-174082000D03*
X104394000Y-170342000D03*
X104394000Y-174082000D03*
X103124000Y-170342000D03*
X103124000Y-174082000D03*
X101854000Y-170342000D03*
X101854000Y-174082000D03*
X100584000Y-170342000D03*
X100584000Y-174082000D03*
X99314000Y-170342000D03*
X99314000Y-174082000D03*
X98044000Y-170342000D03*
X98044000Y-174082000D03*
X96774000Y-170342000D03*
X96774000Y-174082000D03*
X95504000Y-170342000D03*
X95504000Y-174082000D03*
X94234000Y-170342000D03*
X94234000Y-174082000D03*
D11*
X115189000Y-172212000D03*
X79629000Y-172212000D03*
D10*
X92964000Y-170342000D03*
X92964000Y-174082000D03*
X91694000Y-170342000D03*
X91694000Y-174082000D03*
X90424000Y-170342000D03*
X90424000Y-174082000D03*
X89154000Y-170342000D03*
X89154000Y-174082000D03*
X87884000Y-170342000D03*
X87884000Y-174082000D03*
X86614000Y-170342000D03*
X86614000Y-174082000D03*
X85344000Y-170342000D03*
X85344000Y-174082000D03*
X84074000Y-170342000D03*
X84074000Y-174082000D03*
X82804000Y-170342000D03*
X82804000Y-174082000D03*
X81534000Y-170342000D03*
X81534000Y-174082000D03*
X80264000Y-170342000D03*
X80264000Y-174082000D03*
X78994000Y-170342000D03*
X78994000Y-174082000D03*
X115824000Y-163738000D03*
X115824000Y-167478000D03*
X114554000Y-163738000D03*
X114554000Y-167478000D03*
X113284000Y-163738000D03*
X113284000Y-167478000D03*
X112014000Y-163738000D03*
X112014000Y-167478000D03*
X110744000Y-163738000D03*
X110744000Y-167478000D03*
X109474000Y-163738000D03*
X109474000Y-167478000D03*
X108204000Y-163738000D03*
X108204000Y-167478000D03*
X106934000Y-163738000D03*
X106934000Y-167478000D03*
X105664000Y-163738000D03*
X105664000Y-167478000D03*
X104394000Y-163738000D03*
X104394000Y-167478000D03*
X103124000Y-163738000D03*
X103124000Y-167478000D03*
X101854000Y-163738000D03*
X101854000Y-167478000D03*
X100584000Y-163738000D03*
X100584000Y-167478000D03*
X99314000Y-163738000D03*
X99314000Y-167478000D03*
X98044000Y-163738000D03*
X98044000Y-167478000D03*
X96774000Y-163738000D03*
X96774000Y-167478000D03*
X95504000Y-163738000D03*
X95504000Y-167478000D03*
X94234000Y-163738000D03*
X94234000Y-167478000D03*
D11*
X115189000Y-165608000D03*
X79629000Y-165608000D03*
D10*
X92964000Y-163738000D03*
X92964000Y-167478000D03*
X91694000Y-163738000D03*
X91694000Y-167478000D03*
X90424000Y-163738000D03*
X90424000Y-167478000D03*
X89154000Y-163738000D03*
X89154000Y-167478000D03*
X87884000Y-163738000D03*
X87884000Y-167478000D03*
X86614000Y-163738000D03*
X86614000Y-167478000D03*
X85344000Y-163738000D03*
X85344000Y-167478000D03*
X84074000Y-163738000D03*
X84074000Y-167478000D03*
X82804000Y-163738000D03*
X82804000Y-167478000D03*
X81534000Y-163738000D03*
X81534000Y-167478000D03*
X80264000Y-163738000D03*
X80264000Y-167478000D03*
X78994000Y-163738000D03*
X78994000Y-167478000D03*
D12*
X119550000Y-165575000D03*
X119550000Y-171475000D03*
X75400000Y-165750000D03*
X75400000Y-171650000D03*
X62302600Y-131950200D03*
X68202600Y-131950200D03*
X69109000Y-116645000D03*
X60709000Y-116645000D03*
X134109000Y-145395000D03*
X125709000Y-145395000D03*
X60750000Y-146600000D03*
X69150000Y-146600000D03*
D13*
X60479000Y-51995000D03*
X61879000Y-49795000D03*
X64279000Y-51995000D03*
D14*
X66179000Y-49405000D03*
D13*
X68079000Y-51995000D03*
D15*
X70709000Y-52395000D03*
X124109000Y-50895000D03*
D13*
X60479000Y-66995000D03*
X61879000Y-64795000D03*
X64279000Y-66995000D03*
D14*
X66179000Y-64405000D03*
D13*
X68079000Y-66995000D03*
D15*
X70709000Y-67395000D03*
X124109000Y-65895000D03*
D13*
X60479000Y-81995000D03*
X61879000Y-79795000D03*
X64279000Y-81995000D03*
D14*
X66179000Y-79405000D03*
D13*
X68079000Y-81995000D03*
D15*
X70709000Y-82395000D03*
X124109000Y-80895000D03*
D13*
X60479000Y-96995000D03*
X61879000Y-94795000D03*
X64279000Y-96995000D03*
D14*
X66179000Y-94405000D03*
D13*
X68079000Y-96995000D03*
D15*
X70709000Y-97395000D03*
X124109000Y-95895000D03*
D13*
X60479000Y-111995000D03*
X61879000Y-109795000D03*
X64279000Y-111995000D03*
D14*
X66179000Y-109405000D03*
D13*
X68079000Y-111995000D03*
D15*
X70709000Y-112395000D03*
X124109000Y-110895000D03*
D13*
X60479000Y-126995000D03*
X61879000Y-124795000D03*
X64279000Y-126995000D03*
D14*
X66179000Y-124405000D03*
D13*
X68079000Y-126995000D03*
D15*
X70709000Y-127395000D03*
X124109000Y-125895000D03*
D13*
X60479000Y-141995000D03*
X61879000Y-139795000D03*
X64279000Y-141995000D03*
D14*
X66179000Y-139405000D03*
D13*
X68079000Y-141995000D03*
D15*
X70709000Y-142395000D03*
X124109000Y-140895000D03*
D13*
X60479000Y-156995000D03*
X61879000Y-154795000D03*
X64279000Y-156995000D03*
D14*
X66179000Y-154405000D03*
D13*
X68079000Y-156995000D03*
D15*
X70709000Y-157395000D03*
X124109000Y-155895000D03*
D16*
X132034000Y-166445000D03*
X129084000Y-166445000D03*
X132034000Y-168345000D03*
X129084000Y-168345000D03*
X65734000Y-166445000D03*
X62784000Y-166445000D03*
X65734000Y-168345000D03*
X62784000Y-168345000D03*
D17*
X132409000Y-40895000D03*
X62409000Y-105895000D03*
X132409000Y-105895000D03*
X132409000Y-172895000D03*
X62409000Y-172895000D03*
X62409000Y-40895000D03*
D12*
X125809000Y-55495000D03*
X134209000Y-55495000D03*
D18*
X67179000Y-54586000D03*
X67179000Y-69586000D03*
X67179000Y-84586000D03*
X67179000Y-99585000D03*
X67179000Y-114585000D03*
X67179000Y-129585000D03*
X67179000Y-144585000D03*
X67179000Y-159585000D03*
M02*
