M48
INCH,TZ
T1C0.0350
T2C0.0354
T3C0.0394
T4C0.0500
T5C0.0591
T6C0.0748
%
G90
G05
T1
X30691Y-66888
X37742Y-66888
X38958Y-66888
X46009Y-66888
T2
X23901Y-57734
X24529Y-51949
X26851Y-51949
X27208Y-57734
X34492Y-64722
X42208Y-64722
X49492Y-57242
X49531Y-21848
X52799Y-57242
X52838Y-21848
T3
X23811Y-20470
X23811Y-26376
X23811Y-32281
X23811Y-38187
X23811Y-44093
X23811Y-49998
X23811Y-55904
X23811Y-61809
X24362Y-19604
X24362Y-25510
X24362Y-31415
X24362Y-37321
X24362Y-43226
X24362Y-49132
X24362Y-55037
X24362Y-60943
X25307Y-20470
X25307Y-26376
X25307Y-32281
X25307Y-38187
X25307Y-44093
X25307Y-49998
X25307Y-55904
X25307Y-61809
X26803Y-20470
X26803Y-26376
X26803Y-32281
X26803Y-38187
X26803Y-44093
X26803Y-49998
X26803Y-55904
X26803Y-61809
T4
X27838Y-20628
X27838Y-26533
X27838Y-32439
X27838Y-38344
X27838Y-44250
X27838Y-50156
X27838Y-56061
X27838Y-61967
X48862Y-20037
X48862Y-25943
X48862Y-31848
X48862Y-37754
X48862Y-43659
X48862Y-49565
X48862Y-55470
X48862Y-61376
T5
X26055Y-19451
X26055Y-25356
X26055Y-31262
X26055Y-37167
X26055Y-43073
X26055Y-48978
X26055Y-54884
X26055Y-60789
T6
X26448Y-21491
X26448Y-27396
X26448Y-33302
X26448Y-39207
X26448Y-45112
X26448Y-51018
X26448Y-56923
X26448Y-62829
T0
M30
