G04 #@! TF.GenerationSoftware,KiCad,Pcbnew,(5.1.9)-1*
G04 #@! TF.CreationDate,2021-12-19T20:38:30-05:00*
G04 #@! TF.ProjectId,backplane,6261636b-706c-4616-9e65-2e6b69636164,A1*
G04 #@! TF.SameCoordinates,Original*
G04 #@! TF.FileFunction,Soldermask,Top*
G04 #@! TF.FilePolarity,Negative*
%FSLAX46Y46*%
G04 Gerber Fmt 4.6, Leading zero omitted, Abs format (unit mm)*
G04 Created by KiCad (PCBNEW (5.1.9)-1) date 2021-12-19 20:38:30*
%MOMM*%
%LPD*%
G01*
G04 APERTURE LIST*
%ADD10C,0.125000*%
%ADD11C,1.000000*%
%ADD12C,1.500000*%
%ADD13R,0.500000X1.200000*%
%ADD14C,1.270000*%
%ADD15C,0.890000*%
%ADD16R,0.800000X1.800000*%
%ADD17R,1.600000X2.000000*%
%ADD18C,0.900000*%
%ADD19R,0.450000X0.700000*%
%ADD20C,4.500000*%
%ADD21R,0.800000X1.900000*%
%ADD22R,1.800000X2.600000*%
%ADD23R,0.900000X0.850000*%
%ADD24C,1.900000*%
%ADD25R,2.450000X2.450000*%
G04 APERTURE END LIST*
D10*
X121116714Y-175345285D02*
X121116714Y-174595285D01*
X121545285Y-175345285D02*
X121223857Y-174916714D01*
X121545285Y-174595285D02*
X121116714Y-175023857D01*
X122009571Y-174595285D02*
X122152428Y-174595285D01*
X122223857Y-174631000D01*
X122295285Y-174702428D01*
X122331000Y-174845285D01*
X122331000Y-175095285D01*
X122295285Y-175238142D01*
X122223857Y-175309571D01*
X122152428Y-175345285D01*
X122009571Y-175345285D01*
X121938142Y-175309571D01*
X121866714Y-175238142D01*
X121831000Y-175095285D01*
X121831000Y-174845285D01*
X121866714Y-174702428D01*
X121938142Y-174631000D01*
X122009571Y-174595285D01*
X123081000Y-175345285D02*
X122831000Y-174988142D01*
X122652428Y-175345285D02*
X122652428Y-174595285D01*
X122938142Y-174595285D01*
X123009571Y-174631000D01*
X123045285Y-174666714D01*
X123081000Y-174738142D01*
X123081000Y-174845285D01*
X123045285Y-174916714D01*
X123009571Y-174952428D01*
X122938142Y-174988142D01*
X122652428Y-174988142D01*
X123402428Y-175345285D02*
X123402428Y-174595285D01*
X123831000Y-175345285D01*
X123831000Y-174595285D01*
X124331000Y-174595285D02*
X124473857Y-174595285D01*
X124545285Y-174631000D01*
X124616714Y-174702428D01*
X124652428Y-174845285D01*
X124652428Y-175095285D01*
X124616714Y-175238142D01*
X124545285Y-175309571D01*
X124473857Y-175345285D01*
X124331000Y-175345285D01*
X124259571Y-175309571D01*
X124188142Y-175238142D01*
X124152428Y-175095285D01*
X124152428Y-174845285D01*
X124188142Y-174702428D01*
X124259571Y-174631000D01*
X124331000Y-174595285D01*
X124902428Y-174595285D02*
X125081000Y-175345285D01*
X125223857Y-174809571D01*
X125366714Y-175345285D01*
X125545285Y-174595285D01*
X125795285Y-175309571D02*
X125902428Y-175345285D01*
X126081000Y-175345285D01*
X126152428Y-175309571D01*
X126188142Y-175273857D01*
X126223857Y-175202428D01*
X126223857Y-175131000D01*
X126188142Y-175059571D01*
X126152428Y-175023857D01*
X126081000Y-174988142D01*
X125938142Y-174952428D01*
X125866714Y-174916714D01*
X125831000Y-174881000D01*
X125795285Y-174809571D01*
X125795285Y-174738142D01*
X125831000Y-174666714D01*
X125866714Y-174631000D01*
X125938142Y-174595285D01*
X126116714Y-174595285D01*
X126223857Y-174631000D01*
X126545285Y-175345285D02*
X126545285Y-174595285D01*
X126973857Y-175345285D02*
X126652428Y-174916714D01*
X126973857Y-174595285D02*
X126545285Y-175023857D01*
X127295285Y-175345285D02*
X127295285Y-174595285D01*
X121146285Y-174329285D02*
X121146285Y-173579285D01*
X121146285Y-173936428D02*
X121574857Y-173936428D01*
X121574857Y-174329285D02*
X121574857Y-173579285D01*
X121932000Y-174329285D02*
X121932000Y-173579285D01*
X122646285Y-174329285D02*
X122289142Y-174329285D01*
X122289142Y-173579285D01*
X123253428Y-174329285D02*
X122896285Y-174329285D01*
X122896285Y-173579285D01*
X123503428Y-174329285D02*
X123503428Y-173579285D01*
X123824857Y-174293571D02*
X123932000Y-174329285D01*
X124110571Y-174329285D01*
X124182000Y-174293571D01*
X124217714Y-174257857D01*
X124253428Y-174186428D01*
X124253428Y-174115000D01*
X124217714Y-174043571D01*
X124182000Y-174007857D01*
X124110571Y-173972142D01*
X123967714Y-173936428D01*
X123896285Y-173900714D01*
X123860571Y-173865000D01*
X123824857Y-173793571D01*
X123824857Y-173722142D01*
X123860571Y-173650714D01*
X123896285Y-173615000D01*
X123967714Y-173579285D01*
X124146285Y-173579285D01*
X124253428Y-173615000D01*
D11*
X60479000Y-51995000D03*
X61879000Y-49795000D03*
X64279000Y-51995000D03*
D12*
X66179000Y-49405000D03*
D11*
X68079000Y-51995000D03*
D13*
X72209000Y-52595000D03*
X72209000Y-49195000D03*
X73009000Y-52595000D03*
X73009000Y-49195000D03*
X73809000Y-52595000D03*
X73809000Y-49195000D03*
X74609000Y-52595000D03*
X74609000Y-49195000D03*
X75409000Y-52595000D03*
X75409000Y-49195000D03*
X76209000Y-52595000D03*
X76209000Y-49195000D03*
X77009000Y-52595000D03*
X77009000Y-49195000D03*
X77809000Y-52595000D03*
X77809000Y-49195000D03*
X78609000Y-52595000D03*
X78609000Y-49195000D03*
X79409000Y-52595000D03*
X79409000Y-49195000D03*
X80209000Y-52595000D03*
X80209000Y-49195000D03*
X81009000Y-52595000D03*
X81009000Y-49195000D03*
X81809000Y-52595000D03*
X81809000Y-49195000D03*
X82609000Y-52595000D03*
X82609000Y-49195000D03*
X83409000Y-52595000D03*
X83409000Y-49195000D03*
X84209000Y-52595000D03*
X84209000Y-49195000D03*
X85009000Y-52595000D03*
X85009000Y-49195000D03*
X85809000Y-52595000D03*
X85809000Y-49195000D03*
X86609000Y-52595000D03*
X86609000Y-49195000D03*
X87409000Y-52595000D03*
X87409000Y-49195000D03*
X88209000Y-52595000D03*
X88209000Y-49195000D03*
X89009000Y-52595000D03*
X89009000Y-49195000D03*
X89809000Y-52595000D03*
X89809000Y-49195000D03*
X90609000Y-52595000D03*
X90609000Y-49195000D03*
X91409000Y-52595000D03*
X91409000Y-49195000D03*
X92209000Y-52595000D03*
X92209000Y-49195000D03*
X93009000Y-52595000D03*
X93009000Y-49195000D03*
X93809000Y-52595000D03*
X93809000Y-49195000D03*
X94609000Y-52595000D03*
X94609000Y-49195000D03*
X95409000Y-52595000D03*
X95409000Y-49195000D03*
X96209000Y-52595000D03*
X96209000Y-49195000D03*
X97009000Y-52595000D03*
X97009000Y-49195000D03*
X101009000Y-52595000D03*
X101009000Y-49195000D03*
X101809000Y-52595000D03*
X101809000Y-49195000D03*
X102609000Y-52595000D03*
X102609000Y-49195000D03*
X103409000Y-52595000D03*
X103409000Y-49195000D03*
X104209000Y-52595000D03*
X104209000Y-49195000D03*
X105009000Y-52595000D03*
X105009000Y-49195000D03*
X105809000Y-52595000D03*
X105809000Y-49195000D03*
X106609000Y-52595000D03*
X106609000Y-49195000D03*
X107409000Y-52595000D03*
X107409000Y-49195000D03*
X108209000Y-52595000D03*
X108209000Y-49195000D03*
X109009000Y-52595000D03*
X109009000Y-49195000D03*
X109809000Y-52595000D03*
X109809000Y-49195000D03*
X110609000Y-52595000D03*
X110609000Y-49195000D03*
X111409000Y-52595000D03*
X111409000Y-49195000D03*
X112209000Y-52595000D03*
X112209000Y-49195000D03*
X113009000Y-52595000D03*
X113009000Y-49195000D03*
X113809000Y-52595000D03*
X113809000Y-49195000D03*
X114609000Y-52595000D03*
X114609000Y-49195000D03*
X115409000Y-52595000D03*
X115409000Y-49195000D03*
X116209000Y-52595000D03*
X116209000Y-49195000D03*
X117009000Y-52595000D03*
X117009000Y-49195000D03*
X117809000Y-52595000D03*
X117809000Y-49195000D03*
X118609000Y-52595000D03*
X118609000Y-49195000D03*
X119409000Y-52595000D03*
X119409000Y-49195000D03*
X120209000Y-52595000D03*
X120209000Y-49195000D03*
X121009000Y-52595000D03*
X121009000Y-49195000D03*
X121809000Y-52595000D03*
X121809000Y-49195000D03*
X122609000Y-52595000D03*
X122609000Y-49195000D03*
D14*
X70709000Y-52395000D03*
X124109000Y-50895000D03*
D11*
X60479000Y-66995000D03*
X61879000Y-64795000D03*
X64279000Y-66995000D03*
D12*
X66179000Y-64405000D03*
D11*
X68079000Y-66995000D03*
D13*
X72209000Y-67595000D03*
X72209000Y-64195000D03*
X73009000Y-67595000D03*
X73009000Y-64195000D03*
X73809000Y-67595000D03*
X73809000Y-64195000D03*
X74609000Y-67595000D03*
X74609000Y-64195000D03*
X75409000Y-67595000D03*
X75409000Y-64195000D03*
X76209000Y-67595000D03*
X76209000Y-64195000D03*
X77009000Y-67595000D03*
X77009000Y-64195000D03*
X77809000Y-67595000D03*
X77809000Y-64195000D03*
X78609000Y-67595000D03*
X78609000Y-64195000D03*
X79409000Y-67595000D03*
X79409000Y-64195000D03*
X80209000Y-67595000D03*
X80209000Y-64195000D03*
X81009000Y-67595000D03*
X81009000Y-64195000D03*
X81809000Y-67595000D03*
X81809000Y-64195000D03*
X82609000Y-67595000D03*
X82609000Y-64195000D03*
X83409000Y-67595000D03*
X83409000Y-64195000D03*
X84209000Y-67595000D03*
X84209000Y-64195000D03*
X85009000Y-67595000D03*
X85009000Y-64195000D03*
X85809000Y-67595000D03*
X85809000Y-64195000D03*
X86609000Y-67595000D03*
X86609000Y-64195000D03*
X87409000Y-67595000D03*
X87409000Y-64195000D03*
X88209000Y-67595000D03*
X88209000Y-64195000D03*
X89009000Y-67595000D03*
X89009000Y-64195000D03*
X89809000Y-67595000D03*
X89809000Y-64195000D03*
X90609000Y-67595000D03*
X90609000Y-64195000D03*
X91409000Y-67595000D03*
X91409000Y-64195000D03*
X92209000Y-67595000D03*
X92209000Y-64195000D03*
X93009000Y-67595000D03*
X93009000Y-64195000D03*
X93809000Y-67595000D03*
X93809000Y-64195000D03*
X94609000Y-67595000D03*
X94609000Y-64195000D03*
X95409000Y-67595000D03*
X95409000Y-64195000D03*
X96209000Y-67595000D03*
X96209000Y-64195000D03*
X97009000Y-67595000D03*
X97009000Y-64195000D03*
X101009000Y-67595000D03*
X101009000Y-64195000D03*
X101809000Y-67595000D03*
X101809000Y-64195000D03*
X102609000Y-67595000D03*
X102609000Y-64195000D03*
X103409000Y-67595000D03*
X103409000Y-64195000D03*
X104209000Y-67595000D03*
X104209000Y-64195000D03*
X105009000Y-67595000D03*
X105009000Y-64195000D03*
X105809000Y-67595000D03*
X105809000Y-64195000D03*
X106609000Y-67595000D03*
X106609000Y-64195000D03*
X107409000Y-67595000D03*
X107409000Y-64195000D03*
X108209000Y-67595000D03*
X108209000Y-64195000D03*
X109009000Y-67595000D03*
X109009000Y-64195000D03*
X109809000Y-67595000D03*
X109809000Y-64195000D03*
X110609000Y-67595000D03*
X110609000Y-64195000D03*
X111409000Y-67595000D03*
X111409000Y-64195000D03*
X112209000Y-67595000D03*
X112209000Y-64195000D03*
X113009000Y-67595000D03*
X113009000Y-64195000D03*
X113809000Y-67595000D03*
X113809000Y-64195000D03*
X114609000Y-67595000D03*
X114609000Y-64195000D03*
X115409000Y-67595000D03*
X115409000Y-64195000D03*
X116209000Y-67595000D03*
X116209000Y-64195000D03*
X117009000Y-67595000D03*
X117009000Y-64195000D03*
X117809000Y-67595000D03*
X117809000Y-64195000D03*
X118609000Y-67595000D03*
X118609000Y-64195000D03*
X119409000Y-67595000D03*
X119409000Y-64195000D03*
X120209000Y-67595000D03*
X120209000Y-64195000D03*
X121009000Y-67595000D03*
X121009000Y-64195000D03*
X121809000Y-67595000D03*
X121809000Y-64195000D03*
X122609000Y-67595000D03*
X122609000Y-64195000D03*
D14*
X70709000Y-67395000D03*
X124109000Y-65895000D03*
D11*
X60479000Y-81995000D03*
X61879000Y-79795000D03*
X64279000Y-81995000D03*
D12*
X66179000Y-79405000D03*
D11*
X68079000Y-81995000D03*
D13*
X72209000Y-82595000D03*
X72209000Y-79195000D03*
X73009000Y-82595000D03*
X73009000Y-79195000D03*
X73809000Y-82595000D03*
X73809000Y-79195000D03*
X74609000Y-82595000D03*
X74609000Y-79195000D03*
X75409000Y-82595000D03*
X75409000Y-79195000D03*
X76209000Y-82595000D03*
X76209000Y-79195000D03*
X77009000Y-82595000D03*
X77009000Y-79195000D03*
X77809000Y-82595000D03*
X77809000Y-79195000D03*
X78609000Y-82595000D03*
X78609000Y-79195000D03*
X79409000Y-82595000D03*
X79409000Y-79195000D03*
X80209000Y-82595000D03*
X80209000Y-79195000D03*
X81009000Y-82595000D03*
X81009000Y-79195000D03*
X81809000Y-82595000D03*
X81809000Y-79195000D03*
X82609000Y-82595000D03*
X82609000Y-79195000D03*
X83409000Y-82595000D03*
X83409000Y-79195000D03*
X84209000Y-82595000D03*
X84209000Y-79195000D03*
X85009000Y-82595000D03*
X85009000Y-79195000D03*
X85809000Y-82595000D03*
X85809000Y-79195000D03*
X86609000Y-82595000D03*
X86609000Y-79195000D03*
X87409000Y-82595000D03*
X87409000Y-79195000D03*
X88209000Y-82595000D03*
X88209000Y-79195000D03*
X89009000Y-82595000D03*
X89009000Y-79195000D03*
X89809000Y-82595000D03*
X89809000Y-79195000D03*
X90609000Y-82595000D03*
X90609000Y-79195000D03*
X91409000Y-82595000D03*
X91409000Y-79195000D03*
X92209000Y-82595000D03*
X92209000Y-79195000D03*
X93009000Y-82595000D03*
X93009000Y-79195000D03*
X93809000Y-82595000D03*
X93809000Y-79195000D03*
X94609000Y-82595000D03*
X94609000Y-79195000D03*
X95409000Y-82595000D03*
X95409000Y-79195000D03*
X96209000Y-82595000D03*
X96209000Y-79195000D03*
X97009000Y-82595000D03*
X97009000Y-79195000D03*
X101009000Y-82595000D03*
X101009000Y-79195000D03*
X101809000Y-82595000D03*
X101809000Y-79195000D03*
X102609000Y-82595000D03*
X102609000Y-79195000D03*
X103409000Y-82595000D03*
X103409000Y-79195000D03*
X104209000Y-82595000D03*
X104209000Y-79195000D03*
X105009000Y-82595000D03*
X105009000Y-79195000D03*
X105809000Y-82595000D03*
X105809000Y-79195000D03*
X106609000Y-82595000D03*
X106609000Y-79195000D03*
X107409000Y-82595000D03*
X107409000Y-79195000D03*
X108209000Y-82595000D03*
X108209000Y-79195000D03*
X109009000Y-82595000D03*
X109009000Y-79195000D03*
X109809000Y-82595000D03*
X109809000Y-79195000D03*
X110609000Y-82595000D03*
X110609000Y-79195000D03*
X111409000Y-82595000D03*
X111409000Y-79195000D03*
X112209000Y-82595000D03*
X112209000Y-79195000D03*
X113009000Y-82595000D03*
X113009000Y-79195000D03*
X113809000Y-82595000D03*
X113809000Y-79195000D03*
X114609000Y-82595000D03*
X114609000Y-79195000D03*
X115409000Y-82595000D03*
X115409000Y-79195000D03*
X116209000Y-82595000D03*
X116209000Y-79195000D03*
X117009000Y-82595000D03*
X117009000Y-79195000D03*
X117809000Y-82595000D03*
X117809000Y-79195000D03*
X118609000Y-82595000D03*
X118609000Y-79195000D03*
X119409000Y-82595000D03*
X119409000Y-79195000D03*
X120209000Y-82595000D03*
X120209000Y-79195000D03*
X121009000Y-82595000D03*
X121009000Y-79195000D03*
X121809000Y-82595000D03*
X121809000Y-79195000D03*
X122609000Y-82595000D03*
X122609000Y-79195000D03*
D14*
X70709000Y-82395000D03*
X124109000Y-80895000D03*
D11*
X60479000Y-96995000D03*
X61879000Y-94795000D03*
X64279000Y-96995000D03*
D12*
X66179000Y-94405000D03*
D11*
X68079000Y-96995000D03*
D13*
X72209000Y-97595000D03*
X72209000Y-94195000D03*
X73009000Y-97595000D03*
X73009000Y-94195000D03*
X73809000Y-97595000D03*
X73809000Y-94195000D03*
X74609000Y-97595000D03*
X74609000Y-94195000D03*
X75409000Y-97595000D03*
X75409000Y-94195000D03*
X76209000Y-97595000D03*
X76209000Y-94195000D03*
X77009000Y-97595000D03*
X77009000Y-94195000D03*
X77809000Y-97595000D03*
X77809000Y-94195000D03*
X78609000Y-97595000D03*
X78609000Y-94195000D03*
X79409000Y-97595000D03*
X79409000Y-94195000D03*
X80209000Y-97595000D03*
X80209000Y-94195000D03*
X81009000Y-97595000D03*
X81009000Y-94195000D03*
X81809000Y-97595000D03*
X81809000Y-94195000D03*
X82609000Y-97595000D03*
X82609000Y-94195000D03*
X83409000Y-97595000D03*
X83409000Y-94195000D03*
X84209000Y-97595000D03*
X84209000Y-94195000D03*
X85009000Y-97595000D03*
X85009000Y-94195000D03*
X85809000Y-97595000D03*
X85809000Y-94195000D03*
X86609000Y-97595000D03*
X86609000Y-94195000D03*
X87409000Y-97595000D03*
X87409000Y-94195000D03*
X88209000Y-97595000D03*
X88209000Y-94195000D03*
X89009000Y-97595000D03*
X89009000Y-94195000D03*
X89809000Y-97595000D03*
X89809000Y-94195000D03*
X90609000Y-97595000D03*
X90609000Y-94195000D03*
X91409000Y-97595000D03*
X91409000Y-94195000D03*
X92209000Y-97595000D03*
X92209000Y-94195000D03*
X93009000Y-97595000D03*
X93009000Y-94195000D03*
X93809000Y-97595000D03*
X93809000Y-94195000D03*
X94609000Y-97595000D03*
X94609000Y-94195000D03*
X95409000Y-97595000D03*
X95409000Y-94195000D03*
X96209000Y-97595000D03*
X96209000Y-94195000D03*
X97009000Y-97595000D03*
X97009000Y-94195000D03*
X101009000Y-97595000D03*
X101009000Y-94195000D03*
X101809000Y-97595000D03*
X101809000Y-94195000D03*
X102609000Y-97595000D03*
X102609000Y-94195000D03*
X103409000Y-97595000D03*
X103409000Y-94195000D03*
X104209000Y-97595000D03*
X104209000Y-94195000D03*
X105009000Y-97595000D03*
X105009000Y-94195000D03*
X105809000Y-97595000D03*
X105809000Y-94195000D03*
X106609000Y-97595000D03*
X106609000Y-94195000D03*
X107409000Y-97595000D03*
X107409000Y-94195000D03*
X108209000Y-97595000D03*
X108209000Y-94195000D03*
X109009000Y-97595000D03*
X109009000Y-94195000D03*
X109809000Y-97595000D03*
X109809000Y-94195000D03*
X110609000Y-97595000D03*
X110609000Y-94195000D03*
X111409000Y-97595000D03*
X111409000Y-94195000D03*
X112209000Y-97595000D03*
X112209000Y-94195000D03*
X113009000Y-97595000D03*
X113009000Y-94195000D03*
X113809000Y-97595000D03*
X113809000Y-94195000D03*
X114609000Y-97595000D03*
X114609000Y-94195000D03*
X115409000Y-97595000D03*
X115409000Y-94195000D03*
X116209000Y-97595000D03*
X116209000Y-94195000D03*
X117009000Y-97595000D03*
X117009000Y-94195000D03*
X117809000Y-97595000D03*
X117809000Y-94195000D03*
X118609000Y-97595000D03*
X118609000Y-94195000D03*
X119409000Y-97595000D03*
X119409000Y-94195000D03*
X120209000Y-97595000D03*
X120209000Y-94195000D03*
X121009000Y-97595000D03*
X121009000Y-94195000D03*
X121809000Y-97595000D03*
X121809000Y-94195000D03*
X122609000Y-97595000D03*
X122609000Y-94195000D03*
D14*
X70709000Y-97395000D03*
X124109000Y-95895000D03*
D11*
X60479000Y-111995000D03*
X61879000Y-109795000D03*
X64279000Y-111995000D03*
D12*
X66179000Y-109405000D03*
D11*
X68079000Y-111995000D03*
D13*
X72209000Y-112595000D03*
X72209000Y-109195000D03*
X73009000Y-112595000D03*
X73009000Y-109195000D03*
X73809000Y-112595000D03*
X73809000Y-109195000D03*
X74609000Y-112595000D03*
X74609000Y-109195000D03*
X75409000Y-112595000D03*
X75409000Y-109195000D03*
X76209000Y-112595000D03*
X76209000Y-109195000D03*
X77009000Y-112595000D03*
X77009000Y-109195000D03*
X77809000Y-112595000D03*
X77809000Y-109195000D03*
X78609000Y-112595000D03*
X78609000Y-109195000D03*
X79409000Y-112595000D03*
X79409000Y-109195000D03*
X80209000Y-112595000D03*
X80209000Y-109195000D03*
X81009000Y-112595000D03*
X81009000Y-109195000D03*
X81809000Y-112595000D03*
X81809000Y-109195000D03*
X82609000Y-112595000D03*
X82609000Y-109195000D03*
X83409000Y-112595000D03*
X83409000Y-109195000D03*
X84209000Y-112595000D03*
X84209000Y-109195000D03*
X85009000Y-112595000D03*
X85009000Y-109195000D03*
X85809000Y-112595000D03*
X85809000Y-109195000D03*
X86609000Y-112595000D03*
X86609000Y-109195000D03*
X87409000Y-112595000D03*
X87409000Y-109195000D03*
X88209000Y-112595000D03*
X88209000Y-109195000D03*
X89009000Y-112595000D03*
X89009000Y-109195000D03*
X89809000Y-112595000D03*
X89809000Y-109195000D03*
X90609000Y-112595000D03*
X90609000Y-109195000D03*
X91409000Y-112595000D03*
X91409000Y-109195000D03*
X92209000Y-112595000D03*
X92209000Y-109195000D03*
X93009000Y-112595000D03*
X93009000Y-109195000D03*
X93809000Y-112595000D03*
X93809000Y-109195000D03*
X94609000Y-112595000D03*
X94609000Y-109195000D03*
X95409000Y-112595000D03*
X95409000Y-109195000D03*
X96209000Y-112595000D03*
X96209000Y-109195000D03*
X97009000Y-112595000D03*
X97009000Y-109195000D03*
X101009000Y-112595000D03*
X101009000Y-109195000D03*
X101809000Y-112595000D03*
X101809000Y-109195000D03*
X102609000Y-112595000D03*
X102609000Y-109195000D03*
X103409000Y-112595000D03*
X103409000Y-109195000D03*
X104209000Y-112595000D03*
X104209000Y-109195000D03*
X105009000Y-112595000D03*
X105009000Y-109195000D03*
X105809000Y-112595000D03*
X105809000Y-109195000D03*
X106609000Y-112595000D03*
X106609000Y-109195000D03*
X107409000Y-112595000D03*
X107409000Y-109195000D03*
X108209000Y-112595000D03*
X108209000Y-109195000D03*
X109009000Y-112595000D03*
X109009000Y-109195000D03*
X109809000Y-112595000D03*
X109809000Y-109195000D03*
X110609000Y-112595000D03*
X110609000Y-109195000D03*
X111409000Y-112595000D03*
X111409000Y-109195000D03*
X112209000Y-112595000D03*
X112209000Y-109195000D03*
X113009000Y-112595000D03*
X113009000Y-109195000D03*
X113809000Y-112595000D03*
X113809000Y-109195000D03*
X114609000Y-112595000D03*
X114609000Y-109195000D03*
X115409000Y-112595000D03*
X115409000Y-109195000D03*
X116209000Y-112595000D03*
X116209000Y-109195000D03*
X117009000Y-112595000D03*
X117009000Y-109195000D03*
X117809000Y-112595000D03*
X117809000Y-109195000D03*
X118609000Y-112595000D03*
X118609000Y-109195000D03*
X119409000Y-112595000D03*
X119409000Y-109195000D03*
X120209000Y-112595000D03*
X120209000Y-109195000D03*
X121009000Y-112595000D03*
X121009000Y-109195000D03*
X121809000Y-112595000D03*
X121809000Y-109195000D03*
X122609000Y-112595000D03*
X122609000Y-109195000D03*
D14*
X70709000Y-112395000D03*
X124109000Y-110895000D03*
D11*
X60479000Y-126995000D03*
X61879000Y-124795000D03*
X64279000Y-126995000D03*
D12*
X66179000Y-124405000D03*
D11*
X68079000Y-126995000D03*
D13*
X72209000Y-127595000D03*
X72209000Y-124195000D03*
X73009000Y-127595000D03*
X73009000Y-124195000D03*
X73809000Y-127595000D03*
X73809000Y-124195000D03*
X74609000Y-127595000D03*
X74609000Y-124195000D03*
X75409000Y-127595000D03*
X75409000Y-124195000D03*
X76209000Y-127595000D03*
X76209000Y-124195000D03*
X77009000Y-127595000D03*
X77009000Y-124195000D03*
X77809000Y-127595000D03*
X77809000Y-124195000D03*
X78609000Y-127595000D03*
X78609000Y-124195000D03*
X79409000Y-127595000D03*
X79409000Y-124195000D03*
X80209000Y-127595000D03*
X80209000Y-124195000D03*
X81009000Y-127595000D03*
X81009000Y-124195000D03*
X81809000Y-127595000D03*
X81809000Y-124195000D03*
X82609000Y-127595000D03*
X82609000Y-124195000D03*
X83409000Y-127595000D03*
X83409000Y-124195000D03*
X84209000Y-127595000D03*
X84209000Y-124195000D03*
X85009000Y-127595000D03*
X85009000Y-124195000D03*
X85809000Y-127595000D03*
X85809000Y-124195000D03*
X86609000Y-127595000D03*
X86609000Y-124195000D03*
X87409000Y-127595000D03*
X87409000Y-124195000D03*
X88209000Y-127595000D03*
X88209000Y-124195000D03*
X89009000Y-127595000D03*
X89009000Y-124195000D03*
X89809000Y-127595000D03*
X89809000Y-124195000D03*
X90609000Y-127595000D03*
X90609000Y-124195000D03*
X91409000Y-127595000D03*
X91409000Y-124195000D03*
X92209000Y-127595000D03*
X92209000Y-124195000D03*
X93009000Y-127595000D03*
X93009000Y-124195000D03*
X93809000Y-127595000D03*
X93809000Y-124195000D03*
X94609000Y-127595000D03*
X94609000Y-124195000D03*
X95409000Y-127595000D03*
X95409000Y-124195000D03*
X96209000Y-127595000D03*
X96209000Y-124195000D03*
X97009000Y-127595000D03*
X97009000Y-124195000D03*
X101009000Y-127595000D03*
X101009000Y-124195000D03*
X101809000Y-127595000D03*
X101809000Y-124195000D03*
X102609000Y-127595000D03*
X102609000Y-124195000D03*
X103409000Y-127595000D03*
X103409000Y-124195000D03*
X104209000Y-127595000D03*
X104209000Y-124195000D03*
X105009000Y-127595000D03*
X105009000Y-124195000D03*
X105809000Y-127595000D03*
X105809000Y-124195000D03*
X106609000Y-127595000D03*
X106609000Y-124195000D03*
X107409000Y-127595000D03*
X107409000Y-124195000D03*
X108209000Y-127595000D03*
X108209000Y-124195000D03*
X109009000Y-127595000D03*
X109009000Y-124195000D03*
X109809000Y-127595000D03*
X109809000Y-124195000D03*
X110609000Y-127595000D03*
X110609000Y-124195000D03*
X111409000Y-127595000D03*
X111409000Y-124195000D03*
X112209000Y-127595000D03*
X112209000Y-124195000D03*
X113009000Y-127595000D03*
X113009000Y-124195000D03*
X113809000Y-127595000D03*
X113809000Y-124195000D03*
X114609000Y-127595000D03*
X114609000Y-124195000D03*
X115409000Y-127595000D03*
X115409000Y-124195000D03*
X116209000Y-127595000D03*
X116209000Y-124195000D03*
X117009000Y-127595000D03*
X117009000Y-124195000D03*
X117809000Y-127595000D03*
X117809000Y-124195000D03*
X118609000Y-127595000D03*
X118609000Y-124195000D03*
X119409000Y-127595000D03*
X119409000Y-124195000D03*
X120209000Y-127595000D03*
X120209000Y-124195000D03*
X121009000Y-127595000D03*
X121009000Y-124195000D03*
X121809000Y-127595000D03*
X121809000Y-124195000D03*
X122609000Y-127595000D03*
X122609000Y-124195000D03*
D14*
X70709000Y-127395000D03*
X124109000Y-125895000D03*
D11*
X60479000Y-141995000D03*
X61879000Y-139795000D03*
X64279000Y-141995000D03*
D12*
X66179000Y-139405000D03*
D11*
X68079000Y-141995000D03*
D13*
X72209000Y-142595000D03*
X72209000Y-139195000D03*
X73009000Y-142595000D03*
X73009000Y-139195000D03*
X73809000Y-142595000D03*
X73809000Y-139195000D03*
X74609000Y-142595000D03*
X74609000Y-139195000D03*
X75409000Y-142595000D03*
X75409000Y-139195000D03*
X76209000Y-142595000D03*
X76209000Y-139195000D03*
X77009000Y-142595000D03*
X77009000Y-139195000D03*
X77809000Y-142595000D03*
X77809000Y-139195000D03*
X78609000Y-142595000D03*
X78609000Y-139195000D03*
X79409000Y-142595000D03*
X79409000Y-139195000D03*
X80209000Y-142595000D03*
X80209000Y-139195000D03*
X81009000Y-142595000D03*
X81009000Y-139195000D03*
X81809000Y-142595000D03*
X81809000Y-139195000D03*
X82609000Y-142595000D03*
X82609000Y-139195000D03*
X83409000Y-142595000D03*
X83409000Y-139195000D03*
X84209000Y-142595000D03*
X84209000Y-139195000D03*
X85009000Y-142595000D03*
X85009000Y-139195000D03*
X85809000Y-142595000D03*
X85809000Y-139195000D03*
X86609000Y-142595000D03*
X86609000Y-139195000D03*
X87409000Y-142595000D03*
X87409000Y-139195000D03*
X88209000Y-142595000D03*
X88209000Y-139195000D03*
X89009000Y-142595000D03*
X89009000Y-139195000D03*
X89809000Y-142595000D03*
X89809000Y-139195000D03*
X90609000Y-142595000D03*
X90609000Y-139195000D03*
X91409000Y-142595000D03*
X91409000Y-139195000D03*
X92209000Y-142595000D03*
X92209000Y-139195000D03*
X93009000Y-142595000D03*
X93009000Y-139195000D03*
X93809000Y-142595000D03*
X93809000Y-139195000D03*
X94609000Y-142595000D03*
X94609000Y-139195000D03*
X95409000Y-142595000D03*
X95409000Y-139195000D03*
X96209000Y-142595000D03*
X96209000Y-139195000D03*
X97009000Y-142595000D03*
X97009000Y-139195000D03*
X101009000Y-142595000D03*
X101009000Y-139195000D03*
X101809000Y-142595000D03*
X101809000Y-139195000D03*
X102609000Y-142595000D03*
X102609000Y-139195000D03*
X103409000Y-142595000D03*
X103409000Y-139195000D03*
X104209000Y-142595000D03*
X104209000Y-139195000D03*
X105009000Y-142595000D03*
X105009000Y-139195000D03*
X105809000Y-142595000D03*
X105809000Y-139195000D03*
X106609000Y-142595000D03*
X106609000Y-139195000D03*
X107409000Y-142595000D03*
X107409000Y-139195000D03*
X108209000Y-142595000D03*
X108209000Y-139195000D03*
X109009000Y-142595000D03*
X109009000Y-139195000D03*
X109809000Y-142595000D03*
X109809000Y-139195000D03*
X110609000Y-142595000D03*
X110609000Y-139195000D03*
X111409000Y-142595000D03*
X111409000Y-139195000D03*
X112209000Y-142595000D03*
X112209000Y-139195000D03*
X113009000Y-142595000D03*
X113009000Y-139195000D03*
X113809000Y-142595000D03*
X113809000Y-139195000D03*
X114609000Y-142595000D03*
X114609000Y-139195000D03*
X115409000Y-142595000D03*
X115409000Y-139195000D03*
X116209000Y-142595000D03*
X116209000Y-139195000D03*
X117009000Y-142595000D03*
X117009000Y-139195000D03*
X117809000Y-142595000D03*
X117809000Y-139195000D03*
X118609000Y-142595000D03*
X118609000Y-139195000D03*
X119409000Y-142595000D03*
X119409000Y-139195000D03*
X120209000Y-142595000D03*
X120209000Y-139195000D03*
X121009000Y-142595000D03*
X121009000Y-139195000D03*
X121809000Y-142595000D03*
X121809000Y-139195000D03*
X122609000Y-142595000D03*
X122609000Y-139195000D03*
D14*
X70709000Y-142395000D03*
X124109000Y-140895000D03*
D11*
X60479000Y-156995000D03*
X61879000Y-154795000D03*
X64279000Y-156995000D03*
D12*
X66179000Y-154405000D03*
D11*
X68079000Y-156995000D03*
D13*
X72209000Y-157595000D03*
X72209000Y-154195000D03*
X73009000Y-157595000D03*
X73009000Y-154195000D03*
X73809000Y-157595000D03*
X73809000Y-154195000D03*
X74609000Y-157595000D03*
X74609000Y-154195000D03*
X75409000Y-157595000D03*
X75409000Y-154195000D03*
X76209000Y-157595000D03*
X76209000Y-154195000D03*
X77009000Y-157595000D03*
X77009000Y-154195000D03*
X77809000Y-157595000D03*
X77809000Y-154195000D03*
X78609000Y-157595000D03*
X78609000Y-154195000D03*
X79409000Y-157595000D03*
X79409000Y-154195000D03*
X80209000Y-157595000D03*
X80209000Y-154195000D03*
X81009000Y-157595000D03*
X81009000Y-154195000D03*
X81809000Y-157595000D03*
X81809000Y-154195000D03*
X82609000Y-157595000D03*
X82609000Y-154195000D03*
X83409000Y-157595000D03*
X83409000Y-154195000D03*
X84209000Y-157595000D03*
X84209000Y-154195000D03*
X85009000Y-157595000D03*
X85009000Y-154195000D03*
X85809000Y-157595000D03*
X85809000Y-154195000D03*
X86609000Y-157595000D03*
X86609000Y-154195000D03*
X87409000Y-157595000D03*
X87409000Y-154195000D03*
X88209000Y-157595000D03*
X88209000Y-154195000D03*
X89009000Y-157595000D03*
X89009000Y-154195000D03*
X89809000Y-157595000D03*
X89809000Y-154195000D03*
X90609000Y-157595000D03*
X90609000Y-154195000D03*
X91409000Y-157595000D03*
X91409000Y-154195000D03*
X92209000Y-157595000D03*
X92209000Y-154195000D03*
X93009000Y-157595000D03*
X93009000Y-154195000D03*
X93809000Y-157595000D03*
X93809000Y-154195000D03*
X94609000Y-157595000D03*
X94609000Y-154195000D03*
X95409000Y-157595000D03*
X95409000Y-154195000D03*
X96209000Y-157595000D03*
X96209000Y-154195000D03*
X97009000Y-157595000D03*
X97009000Y-154195000D03*
X101009000Y-157595000D03*
X101009000Y-154195000D03*
X101809000Y-157595000D03*
X101809000Y-154195000D03*
X102609000Y-157595000D03*
X102609000Y-154195000D03*
X103409000Y-157595000D03*
X103409000Y-154195000D03*
X104209000Y-157595000D03*
X104209000Y-154195000D03*
X105009000Y-157595000D03*
X105009000Y-154195000D03*
X105809000Y-157595000D03*
X105809000Y-154195000D03*
X106609000Y-157595000D03*
X106609000Y-154195000D03*
X107409000Y-157595000D03*
X107409000Y-154195000D03*
X108209000Y-157595000D03*
X108209000Y-154195000D03*
X109009000Y-157595000D03*
X109009000Y-154195000D03*
X109809000Y-157595000D03*
X109809000Y-154195000D03*
X110609000Y-157595000D03*
X110609000Y-154195000D03*
X111409000Y-157595000D03*
X111409000Y-154195000D03*
X112209000Y-157595000D03*
X112209000Y-154195000D03*
X113009000Y-157595000D03*
X113009000Y-154195000D03*
X113809000Y-157595000D03*
X113809000Y-154195000D03*
X114609000Y-157595000D03*
X114609000Y-154195000D03*
X115409000Y-157595000D03*
X115409000Y-154195000D03*
X116209000Y-157595000D03*
X116209000Y-154195000D03*
X117009000Y-157595000D03*
X117009000Y-154195000D03*
X117809000Y-157595000D03*
X117809000Y-154195000D03*
X118609000Y-157595000D03*
X118609000Y-154195000D03*
X119409000Y-157595000D03*
X119409000Y-154195000D03*
X120209000Y-157595000D03*
X120209000Y-154195000D03*
X121009000Y-157595000D03*
X121009000Y-154195000D03*
X121809000Y-157595000D03*
X121809000Y-154195000D03*
X122609000Y-157595000D03*
X122609000Y-154195000D03*
D14*
X70709000Y-157395000D03*
X124109000Y-155895000D03*
D15*
X116864000Y-169895000D03*
X98954000Y-169895000D03*
X95864000Y-169895000D03*
X77954000Y-169895000D03*
G36*
G01*
X67527600Y-135150200D02*
X67527600Y-136550200D01*
G75*
G02*
X67327600Y-136750200I-200000J0D01*
G01*
X66927600Y-136750200D01*
G75*
G02*
X66727600Y-136550200I0J200000D01*
G01*
X66727600Y-135150200D01*
G75*
G02*
X66927600Y-134950200I200000J0D01*
G01*
X67327600Y-134950200D01*
G75*
G02*
X67527600Y-135150200I0J-200000D01*
G01*
G37*
D16*
X65877600Y-135850200D03*
X64627600Y-135850200D03*
X63377600Y-135850200D03*
D17*
X69477600Y-133250200D03*
X61027600Y-133250200D03*
D18*
X68202600Y-131950200D03*
X62302600Y-131950200D03*
G36*
G01*
X94303000Y-41642000D02*
X94673000Y-41642000D01*
G75*
G02*
X94808000Y-41777000I0J-135000D01*
G01*
X94808000Y-42047000D01*
G75*
G02*
X94673000Y-42182000I-135000J0D01*
G01*
X94303000Y-42182000D01*
G75*
G02*
X94168000Y-42047000I0J135000D01*
G01*
X94168000Y-41777000D01*
G75*
G02*
X94303000Y-41642000I135000J0D01*
G01*
G37*
G36*
G01*
X94303000Y-40622000D02*
X94673000Y-40622000D01*
G75*
G02*
X94808000Y-40757000I0J-135000D01*
G01*
X94808000Y-41027000D01*
G75*
G02*
X94673000Y-41162000I-135000J0D01*
G01*
X94303000Y-41162000D01*
G75*
G02*
X94168000Y-41027000I0J135000D01*
G01*
X94168000Y-40757000D01*
G75*
G02*
X94303000Y-40622000I135000J0D01*
G01*
G37*
G36*
G01*
X93486000Y-39312000D02*
X93486000Y-39682000D01*
G75*
G02*
X93351000Y-39817000I-135000J0D01*
G01*
X93081000Y-39817000D01*
G75*
G02*
X92946000Y-39682000I0J135000D01*
G01*
X92946000Y-39312000D01*
G75*
G02*
X93081000Y-39177000I135000J0D01*
G01*
X93351000Y-39177000D01*
G75*
G02*
X93486000Y-39312000I0J-135000D01*
G01*
G37*
G36*
G01*
X94506000Y-39312000D02*
X94506000Y-39682000D01*
G75*
G02*
X94371000Y-39817000I-135000J0D01*
G01*
X94101000Y-39817000D01*
G75*
G02*
X93966000Y-39682000I0J135000D01*
G01*
X93966000Y-39312000D01*
G75*
G02*
X94101000Y-39177000I135000J0D01*
G01*
X94371000Y-39177000D01*
G75*
G02*
X94506000Y-39312000I0J-135000D01*
G01*
G37*
D19*
X92710000Y-42894000D03*
X92060000Y-40894000D03*
X93360000Y-40894000D03*
D20*
X132409000Y-40895000D03*
X62409000Y-105895000D03*
X132409000Y-105895000D03*
X132409000Y-172895000D03*
X62409000Y-172895000D03*
X62409000Y-40895000D03*
G36*
G01*
X133434000Y-148595000D02*
X133434000Y-149995000D01*
G75*
G02*
X133234000Y-150195000I-200000J0D01*
G01*
X132834000Y-150195000D01*
G75*
G02*
X132634000Y-149995000I0J200000D01*
G01*
X132634000Y-148595000D01*
G75*
G02*
X132834000Y-148395000I200000J0D01*
G01*
X133234000Y-148395000D01*
G75*
G02*
X133434000Y-148595000I0J-200000D01*
G01*
G37*
D16*
X131784000Y-149295000D03*
X130534000Y-149295000D03*
X129284000Y-149295000D03*
X128034000Y-149295000D03*
X126784000Y-149295000D03*
D17*
X135384000Y-146695000D03*
X124434000Y-146695000D03*
D18*
X134109000Y-145395000D03*
X125709000Y-145395000D03*
G36*
G01*
X133534000Y-58695000D02*
X133534000Y-60095000D01*
G75*
G02*
X133334000Y-60295000I-200000J0D01*
G01*
X132934000Y-60295000D01*
G75*
G02*
X132734000Y-60095000I0J200000D01*
G01*
X132734000Y-58695000D01*
G75*
G02*
X132934000Y-58495000I200000J0D01*
G01*
X133334000Y-58495000D01*
G75*
G02*
X133534000Y-58695000I0J-200000D01*
G01*
G37*
D16*
X131884000Y-59395000D03*
X130634000Y-59395000D03*
X129384000Y-59395000D03*
X128134000Y-59395000D03*
X126884000Y-59395000D03*
D17*
X135484000Y-56795000D03*
X124534000Y-56795000D03*
D18*
X134209000Y-55495000D03*
X125809000Y-55495000D03*
G36*
G01*
X68434000Y-149845000D02*
X68434000Y-151245000D01*
G75*
G02*
X68234000Y-151445000I-200000J0D01*
G01*
X67834000Y-151445000D01*
G75*
G02*
X67634000Y-151245000I0J200000D01*
G01*
X67634000Y-149845000D01*
G75*
G02*
X67834000Y-149645000I200000J0D01*
G01*
X68234000Y-149645000D01*
G75*
G02*
X68434000Y-149845000I0J-200000D01*
G01*
G37*
D16*
X66784000Y-150545000D03*
X65534000Y-150545000D03*
X64284000Y-150545000D03*
X63034000Y-150545000D03*
X61784000Y-150545000D03*
D17*
X70384000Y-147945000D03*
X59434000Y-147945000D03*
D18*
X69109000Y-146645000D03*
X60709000Y-146645000D03*
G36*
G01*
X88259000Y-163745000D02*
X88259000Y-162245000D01*
G75*
G02*
X88459000Y-162045000I200000J0D01*
G01*
X88859000Y-162045000D01*
G75*
G02*
X89059000Y-162245000I0J-200000D01*
G01*
X89059000Y-163745000D01*
G75*
G02*
X88859000Y-163945000I-200000J0D01*
G01*
X88459000Y-163945000D01*
G75*
G02*
X88259000Y-163745000I0J200000D01*
G01*
G37*
D21*
X89909000Y-162995000D03*
X91159000Y-162995000D03*
X92409000Y-162995000D03*
X93659000Y-162995000D03*
X94909000Y-162995000D03*
D22*
X86309000Y-166295000D03*
X108509000Y-166295000D03*
D18*
X87609000Y-164395000D03*
X107209000Y-164395000D03*
D21*
X96159000Y-162995000D03*
X97409000Y-162995000D03*
X98659000Y-162995000D03*
X99909000Y-162995000D03*
X101159000Y-162995000D03*
X102409000Y-162995000D03*
X103659000Y-162995000D03*
X104909000Y-162995000D03*
X106159000Y-162995000D03*
D23*
X65529000Y-54011000D03*
X65529000Y-55161000D03*
X68829000Y-54011000D03*
X68829000Y-55161000D03*
D24*
X67179000Y-54586000D03*
D23*
X65529000Y-69011000D03*
X65529000Y-70161000D03*
X68829000Y-69011000D03*
X68829000Y-70161000D03*
D24*
X67179000Y-69586000D03*
D23*
X65529000Y-84011000D03*
X65529000Y-85161000D03*
X68829000Y-84011000D03*
X68829000Y-85161000D03*
D24*
X67179000Y-84586000D03*
D23*
X65529000Y-99010000D03*
X65529000Y-100160000D03*
X68829000Y-99010000D03*
X68829000Y-100160000D03*
D24*
X67179000Y-99585000D03*
D23*
X65529000Y-114010000D03*
X65529000Y-115160000D03*
X68829000Y-114010000D03*
X68829000Y-115160000D03*
D24*
X67179000Y-114585000D03*
D23*
X65529000Y-129010000D03*
X65529000Y-130160000D03*
X68829000Y-129010000D03*
X68829000Y-130160000D03*
D24*
X67179000Y-129585000D03*
D23*
X65529000Y-144010000D03*
X65529000Y-145160000D03*
X68829000Y-144010000D03*
X68829000Y-145160000D03*
D24*
X67179000Y-144585000D03*
D23*
X65529000Y-159010000D03*
X65529000Y-160160000D03*
X68829000Y-159010000D03*
X68829000Y-160160000D03*
D24*
X67179000Y-159585000D03*
G36*
G01*
X75730000Y-42056000D02*
X75730000Y-41931000D01*
G75*
G02*
X75792500Y-41868500I62500J0D01*
G01*
X76442500Y-41868500D01*
G75*
G02*
X76505000Y-41931000I0J-62500D01*
G01*
X76505000Y-42056000D01*
G75*
G02*
X76442500Y-42118500I-62500J0D01*
G01*
X75792500Y-42118500D01*
G75*
G02*
X75730000Y-42056000I0J62500D01*
G01*
G37*
G36*
G01*
X75730000Y-42556000D02*
X75730000Y-42431000D01*
G75*
G02*
X75792500Y-42368500I62500J0D01*
G01*
X76442500Y-42368500D01*
G75*
G02*
X76505000Y-42431000I0J-62500D01*
G01*
X76505000Y-42556000D01*
G75*
G02*
X76442500Y-42618500I-62500J0D01*
G01*
X75792500Y-42618500D01*
G75*
G02*
X75730000Y-42556000I0J62500D01*
G01*
G37*
G36*
G01*
X75730000Y-43056000D02*
X75730000Y-42931000D01*
G75*
G02*
X75792500Y-42868500I62500J0D01*
G01*
X76442500Y-42868500D01*
G75*
G02*
X76505000Y-42931000I0J-62500D01*
G01*
X76505000Y-43056000D01*
G75*
G02*
X76442500Y-43118500I-62500J0D01*
G01*
X75792500Y-43118500D01*
G75*
G02*
X75730000Y-43056000I0J62500D01*
G01*
G37*
G36*
G01*
X75730000Y-43556000D02*
X75730000Y-43431000D01*
G75*
G02*
X75792500Y-43368500I62500J0D01*
G01*
X76442500Y-43368500D01*
G75*
G02*
X76505000Y-43431000I0J-62500D01*
G01*
X76505000Y-43556000D01*
G75*
G02*
X76442500Y-43618500I-62500J0D01*
G01*
X75792500Y-43618500D01*
G75*
G02*
X75730000Y-43556000I0J62500D01*
G01*
G37*
G36*
G01*
X75730000Y-44056000D02*
X75730000Y-43931000D01*
G75*
G02*
X75792500Y-43868500I62500J0D01*
G01*
X76442500Y-43868500D01*
G75*
G02*
X76505000Y-43931000I0J-62500D01*
G01*
X76505000Y-44056000D01*
G75*
G02*
X76442500Y-44118500I-62500J0D01*
G01*
X75792500Y-44118500D01*
G75*
G02*
X75730000Y-44056000I0J62500D01*
G01*
G37*
G36*
G01*
X75730000Y-44556000D02*
X75730000Y-44431000D01*
G75*
G02*
X75792500Y-44368500I62500J0D01*
G01*
X76442500Y-44368500D01*
G75*
G02*
X76505000Y-44431000I0J-62500D01*
G01*
X76505000Y-44556000D01*
G75*
G02*
X76442500Y-44618500I-62500J0D01*
G01*
X75792500Y-44618500D01*
G75*
G02*
X75730000Y-44556000I0J62500D01*
G01*
G37*
G36*
G01*
X76730000Y-45556000D02*
X76730000Y-44906000D01*
G75*
G02*
X76792500Y-44843500I62500J0D01*
G01*
X76917500Y-44843500D01*
G75*
G02*
X76980000Y-44906000I0J-62500D01*
G01*
X76980000Y-45556000D01*
G75*
G02*
X76917500Y-45618500I-62500J0D01*
G01*
X76792500Y-45618500D01*
G75*
G02*
X76730000Y-45556000I0J62500D01*
G01*
G37*
G36*
G01*
X77230000Y-45556000D02*
X77230000Y-44906000D01*
G75*
G02*
X77292500Y-44843500I62500J0D01*
G01*
X77417500Y-44843500D01*
G75*
G02*
X77480000Y-44906000I0J-62500D01*
G01*
X77480000Y-45556000D01*
G75*
G02*
X77417500Y-45618500I-62500J0D01*
G01*
X77292500Y-45618500D01*
G75*
G02*
X77230000Y-45556000I0J62500D01*
G01*
G37*
G36*
G01*
X77730000Y-45556000D02*
X77730000Y-44906000D01*
G75*
G02*
X77792500Y-44843500I62500J0D01*
G01*
X77917500Y-44843500D01*
G75*
G02*
X77980000Y-44906000I0J-62500D01*
G01*
X77980000Y-45556000D01*
G75*
G02*
X77917500Y-45618500I-62500J0D01*
G01*
X77792500Y-45618500D01*
G75*
G02*
X77730000Y-45556000I0J62500D01*
G01*
G37*
G36*
G01*
X78230000Y-45556000D02*
X78230000Y-44906000D01*
G75*
G02*
X78292500Y-44843500I62500J0D01*
G01*
X78417500Y-44843500D01*
G75*
G02*
X78480000Y-44906000I0J-62500D01*
G01*
X78480000Y-45556000D01*
G75*
G02*
X78417500Y-45618500I-62500J0D01*
G01*
X78292500Y-45618500D01*
G75*
G02*
X78230000Y-45556000I0J62500D01*
G01*
G37*
G36*
G01*
X78730000Y-45556000D02*
X78730000Y-44906000D01*
G75*
G02*
X78792500Y-44843500I62500J0D01*
G01*
X78917500Y-44843500D01*
G75*
G02*
X78980000Y-44906000I0J-62500D01*
G01*
X78980000Y-45556000D01*
G75*
G02*
X78917500Y-45618500I-62500J0D01*
G01*
X78792500Y-45618500D01*
G75*
G02*
X78730000Y-45556000I0J62500D01*
G01*
G37*
G36*
G01*
X79230000Y-45556000D02*
X79230000Y-44906000D01*
G75*
G02*
X79292500Y-44843500I62500J0D01*
G01*
X79417500Y-44843500D01*
G75*
G02*
X79480000Y-44906000I0J-62500D01*
G01*
X79480000Y-45556000D01*
G75*
G02*
X79417500Y-45618500I-62500J0D01*
G01*
X79292500Y-45618500D01*
G75*
G02*
X79230000Y-45556000I0J62500D01*
G01*
G37*
G36*
G01*
X79705000Y-44556000D02*
X79705000Y-44431000D01*
G75*
G02*
X79767500Y-44368500I62500J0D01*
G01*
X80417500Y-44368500D01*
G75*
G02*
X80480000Y-44431000I0J-62500D01*
G01*
X80480000Y-44556000D01*
G75*
G02*
X80417500Y-44618500I-62500J0D01*
G01*
X79767500Y-44618500D01*
G75*
G02*
X79705000Y-44556000I0J62500D01*
G01*
G37*
G36*
G01*
X79705000Y-44056000D02*
X79705000Y-43931000D01*
G75*
G02*
X79767500Y-43868500I62500J0D01*
G01*
X80417500Y-43868500D01*
G75*
G02*
X80480000Y-43931000I0J-62500D01*
G01*
X80480000Y-44056000D01*
G75*
G02*
X80417500Y-44118500I-62500J0D01*
G01*
X79767500Y-44118500D01*
G75*
G02*
X79705000Y-44056000I0J62500D01*
G01*
G37*
G36*
G01*
X79705000Y-43556000D02*
X79705000Y-43431000D01*
G75*
G02*
X79767500Y-43368500I62500J0D01*
G01*
X80417500Y-43368500D01*
G75*
G02*
X80480000Y-43431000I0J-62500D01*
G01*
X80480000Y-43556000D01*
G75*
G02*
X80417500Y-43618500I-62500J0D01*
G01*
X79767500Y-43618500D01*
G75*
G02*
X79705000Y-43556000I0J62500D01*
G01*
G37*
G36*
G01*
X79705000Y-43056000D02*
X79705000Y-42931000D01*
G75*
G02*
X79767500Y-42868500I62500J0D01*
G01*
X80417500Y-42868500D01*
G75*
G02*
X80480000Y-42931000I0J-62500D01*
G01*
X80480000Y-43056000D01*
G75*
G02*
X80417500Y-43118500I-62500J0D01*
G01*
X79767500Y-43118500D01*
G75*
G02*
X79705000Y-43056000I0J62500D01*
G01*
G37*
G36*
G01*
X79705000Y-42556000D02*
X79705000Y-42431000D01*
G75*
G02*
X79767500Y-42368500I62500J0D01*
G01*
X80417500Y-42368500D01*
G75*
G02*
X80480000Y-42431000I0J-62500D01*
G01*
X80480000Y-42556000D01*
G75*
G02*
X80417500Y-42618500I-62500J0D01*
G01*
X79767500Y-42618500D01*
G75*
G02*
X79705000Y-42556000I0J62500D01*
G01*
G37*
G36*
G01*
X79705000Y-42056000D02*
X79705000Y-41931000D01*
G75*
G02*
X79767500Y-41868500I62500J0D01*
G01*
X80417500Y-41868500D01*
G75*
G02*
X80480000Y-41931000I0J-62500D01*
G01*
X80480000Y-42056000D01*
G75*
G02*
X80417500Y-42118500I-62500J0D01*
G01*
X79767500Y-42118500D01*
G75*
G02*
X79705000Y-42056000I0J62500D01*
G01*
G37*
G36*
G01*
X79230000Y-41581000D02*
X79230000Y-40931000D01*
G75*
G02*
X79292500Y-40868500I62500J0D01*
G01*
X79417500Y-40868500D01*
G75*
G02*
X79480000Y-40931000I0J-62500D01*
G01*
X79480000Y-41581000D01*
G75*
G02*
X79417500Y-41643500I-62500J0D01*
G01*
X79292500Y-41643500D01*
G75*
G02*
X79230000Y-41581000I0J62500D01*
G01*
G37*
G36*
G01*
X78730000Y-41581000D02*
X78730000Y-40931000D01*
G75*
G02*
X78792500Y-40868500I62500J0D01*
G01*
X78917500Y-40868500D01*
G75*
G02*
X78980000Y-40931000I0J-62500D01*
G01*
X78980000Y-41581000D01*
G75*
G02*
X78917500Y-41643500I-62500J0D01*
G01*
X78792500Y-41643500D01*
G75*
G02*
X78730000Y-41581000I0J62500D01*
G01*
G37*
G36*
G01*
X78230000Y-41581000D02*
X78230000Y-40931000D01*
G75*
G02*
X78292500Y-40868500I62500J0D01*
G01*
X78417500Y-40868500D01*
G75*
G02*
X78480000Y-40931000I0J-62500D01*
G01*
X78480000Y-41581000D01*
G75*
G02*
X78417500Y-41643500I-62500J0D01*
G01*
X78292500Y-41643500D01*
G75*
G02*
X78230000Y-41581000I0J62500D01*
G01*
G37*
G36*
G01*
X77730000Y-41581000D02*
X77730000Y-40931000D01*
G75*
G02*
X77792500Y-40868500I62500J0D01*
G01*
X77917500Y-40868500D01*
G75*
G02*
X77980000Y-40931000I0J-62500D01*
G01*
X77980000Y-41581000D01*
G75*
G02*
X77917500Y-41643500I-62500J0D01*
G01*
X77792500Y-41643500D01*
G75*
G02*
X77730000Y-41581000I0J62500D01*
G01*
G37*
G36*
G01*
X77230000Y-41581000D02*
X77230000Y-40931000D01*
G75*
G02*
X77292500Y-40868500I62500J0D01*
G01*
X77417500Y-40868500D01*
G75*
G02*
X77480000Y-40931000I0J-62500D01*
G01*
X77480000Y-41581000D01*
G75*
G02*
X77417500Y-41643500I-62500J0D01*
G01*
X77292500Y-41643500D01*
G75*
G02*
X77230000Y-41581000I0J62500D01*
G01*
G37*
G36*
G01*
X76730000Y-41581000D02*
X76730000Y-40931000D01*
G75*
G02*
X76792500Y-40868500I62500J0D01*
G01*
X76917500Y-40868500D01*
G75*
G02*
X76980000Y-40931000I0J-62500D01*
G01*
X76980000Y-41581000D01*
G75*
G02*
X76917500Y-41643500I-62500J0D01*
G01*
X76792500Y-41643500D01*
G75*
G02*
X76730000Y-41581000I0J62500D01*
G01*
G37*
D25*
X78105000Y-43243500D03*
G36*
G01*
X68618000Y-42056000D02*
X68618000Y-41931000D01*
G75*
G02*
X68680500Y-41868500I62500J0D01*
G01*
X69330500Y-41868500D01*
G75*
G02*
X69393000Y-41931000I0J-62500D01*
G01*
X69393000Y-42056000D01*
G75*
G02*
X69330500Y-42118500I-62500J0D01*
G01*
X68680500Y-42118500D01*
G75*
G02*
X68618000Y-42056000I0J62500D01*
G01*
G37*
G36*
G01*
X68618000Y-42556000D02*
X68618000Y-42431000D01*
G75*
G02*
X68680500Y-42368500I62500J0D01*
G01*
X69330500Y-42368500D01*
G75*
G02*
X69393000Y-42431000I0J-62500D01*
G01*
X69393000Y-42556000D01*
G75*
G02*
X69330500Y-42618500I-62500J0D01*
G01*
X68680500Y-42618500D01*
G75*
G02*
X68618000Y-42556000I0J62500D01*
G01*
G37*
G36*
G01*
X68618000Y-43056000D02*
X68618000Y-42931000D01*
G75*
G02*
X68680500Y-42868500I62500J0D01*
G01*
X69330500Y-42868500D01*
G75*
G02*
X69393000Y-42931000I0J-62500D01*
G01*
X69393000Y-43056000D01*
G75*
G02*
X69330500Y-43118500I-62500J0D01*
G01*
X68680500Y-43118500D01*
G75*
G02*
X68618000Y-43056000I0J62500D01*
G01*
G37*
G36*
G01*
X68618000Y-43556000D02*
X68618000Y-43431000D01*
G75*
G02*
X68680500Y-43368500I62500J0D01*
G01*
X69330500Y-43368500D01*
G75*
G02*
X69393000Y-43431000I0J-62500D01*
G01*
X69393000Y-43556000D01*
G75*
G02*
X69330500Y-43618500I-62500J0D01*
G01*
X68680500Y-43618500D01*
G75*
G02*
X68618000Y-43556000I0J62500D01*
G01*
G37*
G36*
G01*
X68618000Y-44056000D02*
X68618000Y-43931000D01*
G75*
G02*
X68680500Y-43868500I62500J0D01*
G01*
X69330500Y-43868500D01*
G75*
G02*
X69393000Y-43931000I0J-62500D01*
G01*
X69393000Y-44056000D01*
G75*
G02*
X69330500Y-44118500I-62500J0D01*
G01*
X68680500Y-44118500D01*
G75*
G02*
X68618000Y-44056000I0J62500D01*
G01*
G37*
G36*
G01*
X68618000Y-44556000D02*
X68618000Y-44431000D01*
G75*
G02*
X68680500Y-44368500I62500J0D01*
G01*
X69330500Y-44368500D01*
G75*
G02*
X69393000Y-44431000I0J-62500D01*
G01*
X69393000Y-44556000D01*
G75*
G02*
X69330500Y-44618500I-62500J0D01*
G01*
X68680500Y-44618500D01*
G75*
G02*
X68618000Y-44556000I0J62500D01*
G01*
G37*
G36*
G01*
X69618000Y-45556000D02*
X69618000Y-44906000D01*
G75*
G02*
X69680500Y-44843500I62500J0D01*
G01*
X69805500Y-44843500D01*
G75*
G02*
X69868000Y-44906000I0J-62500D01*
G01*
X69868000Y-45556000D01*
G75*
G02*
X69805500Y-45618500I-62500J0D01*
G01*
X69680500Y-45618500D01*
G75*
G02*
X69618000Y-45556000I0J62500D01*
G01*
G37*
G36*
G01*
X70118000Y-45556000D02*
X70118000Y-44906000D01*
G75*
G02*
X70180500Y-44843500I62500J0D01*
G01*
X70305500Y-44843500D01*
G75*
G02*
X70368000Y-44906000I0J-62500D01*
G01*
X70368000Y-45556000D01*
G75*
G02*
X70305500Y-45618500I-62500J0D01*
G01*
X70180500Y-45618500D01*
G75*
G02*
X70118000Y-45556000I0J62500D01*
G01*
G37*
G36*
G01*
X70618000Y-45556000D02*
X70618000Y-44906000D01*
G75*
G02*
X70680500Y-44843500I62500J0D01*
G01*
X70805500Y-44843500D01*
G75*
G02*
X70868000Y-44906000I0J-62500D01*
G01*
X70868000Y-45556000D01*
G75*
G02*
X70805500Y-45618500I-62500J0D01*
G01*
X70680500Y-45618500D01*
G75*
G02*
X70618000Y-45556000I0J62500D01*
G01*
G37*
G36*
G01*
X71118000Y-45556000D02*
X71118000Y-44906000D01*
G75*
G02*
X71180500Y-44843500I62500J0D01*
G01*
X71305500Y-44843500D01*
G75*
G02*
X71368000Y-44906000I0J-62500D01*
G01*
X71368000Y-45556000D01*
G75*
G02*
X71305500Y-45618500I-62500J0D01*
G01*
X71180500Y-45618500D01*
G75*
G02*
X71118000Y-45556000I0J62500D01*
G01*
G37*
G36*
G01*
X71618000Y-45556000D02*
X71618000Y-44906000D01*
G75*
G02*
X71680500Y-44843500I62500J0D01*
G01*
X71805500Y-44843500D01*
G75*
G02*
X71868000Y-44906000I0J-62500D01*
G01*
X71868000Y-45556000D01*
G75*
G02*
X71805500Y-45618500I-62500J0D01*
G01*
X71680500Y-45618500D01*
G75*
G02*
X71618000Y-45556000I0J62500D01*
G01*
G37*
G36*
G01*
X72118000Y-45556000D02*
X72118000Y-44906000D01*
G75*
G02*
X72180500Y-44843500I62500J0D01*
G01*
X72305500Y-44843500D01*
G75*
G02*
X72368000Y-44906000I0J-62500D01*
G01*
X72368000Y-45556000D01*
G75*
G02*
X72305500Y-45618500I-62500J0D01*
G01*
X72180500Y-45618500D01*
G75*
G02*
X72118000Y-45556000I0J62500D01*
G01*
G37*
G36*
G01*
X72593000Y-44556000D02*
X72593000Y-44431000D01*
G75*
G02*
X72655500Y-44368500I62500J0D01*
G01*
X73305500Y-44368500D01*
G75*
G02*
X73368000Y-44431000I0J-62500D01*
G01*
X73368000Y-44556000D01*
G75*
G02*
X73305500Y-44618500I-62500J0D01*
G01*
X72655500Y-44618500D01*
G75*
G02*
X72593000Y-44556000I0J62500D01*
G01*
G37*
G36*
G01*
X72593000Y-44056000D02*
X72593000Y-43931000D01*
G75*
G02*
X72655500Y-43868500I62500J0D01*
G01*
X73305500Y-43868500D01*
G75*
G02*
X73368000Y-43931000I0J-62500D01*
G01*
X73368000Y-44056000D01*
G75*
G02*
X73305500Y-44118500I-62500J0D01*
G01*
X72655500Y-44118500D01*
G75*
G02*
X72593000Y-44056000I0J62500D01*
G01*
G37*
G36*
G01*
X72593000Y-43556000D02*
X72593000Y-43431000D01*
G75*
G02*
X72655500Y-43368500I62500J0D01*
G01*
X73305500Y-43368500D01*
G75*
G02*
X73368000Y-43431000I0J-62500D01*
G01*
X73368000Y-43556000D01*
G75*
G02*
X73305500Y-43618500I-62500J0D01*
G01*
X72655500Y-43618500D01*
G75*
G02*
X72593000Y-43556000I0J62500D01*
G01*
G37*
G36*
G01*
X72593000Y-43056000D02*
X72593000Y-42931000D01*
G75*
G02*
X72655500Y-42868500I62500J0D01*
G01*
X73305500Y-42868500D01*
G75*
G02*
X73368000Y-42931000I0J-62500D01*
G01*
X73368000Y-43056000D01*
G75*
G02*
X73305500Y-43118500I-62500J0D01*
G01*
X72655500Y-43118500D01*
G75*
G02*
X72593000Y-43056000I0J62500D01*
G01*
G37*
G36*
G01*
X72593000Y-42556000D02*
X72593000Y-42431000D01*
G75*
G02*
X72655500Y-42368500I62500J0D01*
G01*
X73305500Y-42368500D01*
G75*
G02*
X73368000Y-42431000I0J-62500D01*
G01*
X73368000Y-42556000D01*
G75*
G02*
X73305500Y-42618500I-62500J0D01*
G01*
X72655500Y-42618500D01*
G75*
G02*
X72593000Y-42556000I0J62500D01*
G01*
G37*
G36*
G01*
X72593000Y-42056000D02*
X72593000Y-41931000D01*
G75*
G02*
X72655500Y-41868500I62500J0D01*
G01*
X73305500Y-41868500D01*
G75*
G02*
X73368000Y-41931000I0J-62500D01*
G01*
X73368000Y-42056000D01*
G75*
G02*
X73305500Y-42118500I-62500J0D01*
G01*
X72655500Y-42118500D01*
G75*
G02*
X72593000Y-42056000I0J62500D01*
G01*
G37*
G36*
G01*
X72118000Y-41581000D02*
X72118000Y-40931000D01*
G75*
G02*
X72180500Y-40868500I62500J0D01*
G01*
X72305500Y-40868500D01*
G75*
G02*
X72368000Y-40931000I0J-62500D01*
G01*
X72368000Y-41581000D01*
G75*
G02*
X72305500Y-41643500I-62500J0D01*
G01*
X72180500Y-41643500D01*
G75*
G02*
X72118000Y-41581000I0J62500D01*
G01*
G37*
G36*
G01*
X71618000Y-41581000D02*
X71618000Y-40931000D01*
G75*
G02*
X71680500Y-40868500I62500J0D01*
G01*
X71805500Y-40868500D01*
G75*
G02*
X71868000Y-40931000I0J-62500D01*
G01*
X71868000Y-41581000D01*
G75*
G02*
X71805500Y-41643500I-62500J0D01*
G01*
X71680500Y-41643500D01*
G75*
G02*
X71618000Y-41581000I0J62500D01*
G01*
G37*
G36*
G01*
X71118000Y-41581000D02*
X71118000Y-40931000D01*
G75*
G02*
X71180500Y-40868500I62500J0D01*
G01*
X71305500Y-40868500D01*
G75*
G02*
X71368000Y-40931000I0J-62500D01*
G01*
X71368000Y-41581000D01*
G75*
G02*
X71305500Y-41643500I-62500J0D01*
G01*
X71180500Y-41643500D01*
G75*
G02*
X71118000Y-41581000I0J62500D01*
G01*
G37*
G36*
G01*
X70618000Y-41581000D02*
X70618000Y-40931000D01*
G75*
G02*
X70680500Y-40868500I62500J0D01*
G01*
X70805500Y-40868500D01*
G75*
G02*
X70868000Y-40931000I0J-62500D01*
G01*
X70868000Y-41581000D01*
G75*
G02*
X70805500Y-41643500I-62500J0D01*
G01*
X70680500Y-41643500D01*
G75*
G02*
X70618000Y-41581000I0J62500D01*
G01*
G37*
G36*
G01*
X70118000Y-41581000D02*
X70118000Y-40931000D01*
G75*
G02*
X70180500Y-40868500I62500J0D01*
G01*
X70305500Y-40868500D01*
G75*
G02*
X70368000Y-40931000I0J-62500D01*
G01*
X70368000Y-41581000D01*
G75*
G02*
X70305500Y-41643500I-62500J0D01*
G01*
X70180500Y-41643500D01*
G75*
G02*
X70118000Y-41581000I0J62500D01*
G01*
G37*
G36*
G01*
X69618000Y-41581000D02*
X69618000Y-40931000D01*
G75*
G02*
X69680500Y-40868500I62500J0D01*
G01*
X69805500Y-40868500D01*
G75*
G02*
X69868000Y-40931000I0J-62500D01*
G01*
X69868000Y-41581000D01*
G75*
G02*
X69805500Y-41643500I-62500J0D01*
G01*
X69680500Y-41643500D01*
G75*
G02*
X69618000Y-41581000I0J62500D01*
G01*
G37*
X70993000Y-43243500D03*
G36*
G01*
X90366000Y-39610000D02*
X90736000Y-39610000D01*
G75*
G02*
X90871000Y-39745000I0J-135000D01*
G01*
X90871000Y-40015000D01*
G75*
G02*
X90736000Y-40150000I-135000J0D01*
G01*
X90366000Y-40150000D01*
G75*
G02*
X90231000Y-40015000I0J135000D01*
G01*
X90231000Y-39745000D01*
G75*
G02*
X90366000Y-39610000I135000J0D01*
G01*
G37*
G36*
G01*
X90366000Y-38590000D02*
X90736000Y-38590000D01*
G75*
G02*
X90871000Y-38725000I0J-135000D01*
G01*
X90871000Y-38995000D01*
G75*
G02*
X90736000Y-39130000I-135000J0D01*
G01*
X90366000Y-39130000D01*
G75*
G02*
X90231000Y-38995000I0J135000D01*
G01*
X90231000Y-38725000D01*
G75*
G02*
X90366000Y-38590000I135000J0D01*
G01*
G37*
G36*
G01*
X87572000Y-39610000D02*
X87942000Y-39610000D01*
G75*
G02*
X88077000Y-39745000I0J-135000D01*
G01*
X88077000Y-40015000D01*
G75*
G02*
X87942000Y-40150000I-135000J0D01*
G01*
X87572000Y-40150000D01*
G75*
G02*
X87437000Y-40015000I0J135000D01*
G01*
X87437000Y-39745000D01*
G75*
G02*
X87572000Y-39610000I135000J0D01*
G01*
G37*
G36*
G01*
X87572000Y-38590000D02*
X87942000Y-38590000D01*
G75*
G02*
X88077000Y-38725000I0J-135000D01*
G01*
X88077000Y-38995000D01*
G75*
G02*
X87942000Y-39130000I-135000J0D01*
G01*
X87572000Y-39130000D01*
G75*
G02*
X87437000Y-38995000I0J135000D01*
G01*
X87437000Y-38725000D01*
G75*
G02*
X87572000Y-38590000I135000J0D01*
G01*
G37*
G36*
G01*
X84778000Y-39610000D02*
X85148000Y-39610000D01*
G75*
G02*
X85283000Y-39745000I0J-135000D01*
G01*
X85283000Y-40015000D01*
G75*
G02*
X85148000Y-40150000I-135000J0D01*
G01*
X84778000Y-40150000D01*
G75*
G02*
X84643000Y-40015000I0J135000D01*
G01*
X84643000Y-39745000D01*
G75*
G02*
X84778000Y-39610000I135000J0D01*
G01*
G37*
G36*
G01*
X84778000Y-38590000D02*
X85148000Y-38590000D01*
G75*
G02*
X85283000Y-38725000I0J-135000D01*
G01*
X85283000Y-38995000D01*
G75*
G02*
X85148000Y-39130000I-135000J0D01*
G01*
X84778000Y-39130000D01*
G75*
G02*
X84643000Y-38995000I0J135000D01*
G01*
X84643000Y-38725000D01*
G75*
G02*
X84778000Y-38590000I135000J0D01*
G01*
G37*
G36*
G01*
X89641000Y-45446000D02*
X90191000Y-45446000D01*
G75*
G02*
X90391000Y-45646000I0J-200000D01*
G01*
X90391000Y-46046000D01*
G75*
G02*
X90191000Y-46246000I-200000J0D01*
G01*
X89641000Y-46246000D01*
G75*
G02*
X89441000Y-46046000I0J200000D01*
G01*
X89441000Y-45646000D01*
G75*
G02*
X89641000Y-45446000I200000J0D01*
G01*
G37*
G36*
G01*
X89641000Y-43796000D02*
X90191000Y-43796000D01*
G75*
G02*
X90391000Y-43996000I0J-200000D01*
G01*
X90391000Y-44396000D01*
G75*
G02*
X90191000Y-44596000I-200000J0D01*
G01*
X89641000Y-44596000D01*
G75*
G02*
X89441000Y-44396000I0J200000D01*
G01*
X89441000Y-43996000D01*
G75*
G02*
X89641000Y-43796000I200000J0D01*
G01*
G37*
G36*
G01*
X86847000Y-43796000D02*
X87397000Y-43796000D01*
G75*
G02*
X87597000Y-43996000I0J-200000D01*
G01*
X87597000Y-44396000D01*
G75*
G02*
X87397000Y-44596000I-200000J0D01*
G01*
X86847000Y-44596000D01*
G75*
G02*
X86647000Y-44396000I0J200000D01*
G01*
X86647000Y-43996000D01*
G75*
G02*
X86847000Y-43796000I200000J0D01*
G01*
G37*
G36*
G01*
X86847000Y-45446000D02*
X87397000Y-45446000D01*
G75*
G02*
X87597000Y-45646000I0J-200000D01*
G01*
X87597000Y-46046000D01*
G75*
G02*
X87397000Y-46246000I-200000J0D01*
G01*
X86847000Y-46246000D01*
G75*
G02*
X86647000Y-46046000I0J200000D01*
G01*
X86647000Y-45646000D01*
G75*
G02*
X86847000Y-45446000I200000J0D01*
G01*
G37*
G36*
G01*
X84053000Y-45446000D02*
X84603000Y-45446000D01*
G75*
G02*
X84803000Y-45646000I0J-200000D01*
G01*
X84803000Y-46046000D01*
G75*
G02*
X84603000Y-46246000I-200000J0D01*
G01*
X84053000Y-46246000D01*
G75*
G02*
X83853000Y-46046000I0J200000D01*
G01*
X83853000Y-45646000D01*
G75*
G02*
X84053000Y-45446000I200000J0D01*
G01*
G37*
G36*
G01*
X84053000Y-43796000D02*
X84603000Y-43796000D01*
G75*
G02*
X84803000Y-43996000I0J-200000D01*
G01*
X84803000Y-44396000D01*
G75*
G02*
X84603000Y-44596000I-200000J0D01*
G01*
X84053000Y-44596000D01*
G75*
G02*
X83853000Y-44396000I0J200000D01*
G01*
X83853000Y-43996000D01*
G75*
G02*
X84053000Y-43796000I200000J0D01*
G01*
G37*
G36*
G01*
X81936000Y-40533000D02*
X81386000Y-40533000D01*
G75*
G02*
X81186000Y-40333000I0J200000D01*
G01*
X81186000Y-39933000D01*
G75*
G02*
X81386000Y-39733000I200000J0D01*
G01*
X81936000Y-39733000D01*
G75*
G02*
X82136000Y-39933000I0J-200000D01*
G01*
X82136000Y-40333000D01*
G75*
G02*
X81936000Y-40533000I-200000J0D01*
G01*
G37*
G36*
G01*
X81936000Y-42183000D02*
X81386000Y-42183000D01*
G75*
G02*
X81186000Y-41983000I0J200000D01*
G01*
X81186000Y-41583000D01*
G75*
G02*
X81386000Y-41383000I200000J0D01*
G01*
X81936000Y-41383000D01*
G75*
G02*
X82136000Y-41583000I0J-200000D01*
G01*
X82136000Y-41983000D01*
G75*
G02*
X81936000Y-42183000I-200000J0D01*
G01*
G37*
G36*
G01*
X74824000Y-40469000D02*
X74274000Y-40469000D01*
G75*
G02*
X74074000Y-40269000I0J200000D01*
G01*
X74074000Y-39869000D01*
G75*
G02*
X74274000Y-39669000I200000J0D01*
G01*
X74824000Y-39669000D01*
G75*
G02*
X75024000Y-39869000I0J-200000D01*
G01*
X75024000Y-40269000D01*
G75*
G02*
X74824000Y-40469000I-200000J0D01*
G01*
G37*
G36*
G01*
X74824000Y-42119000D02*
X74274000Y-42119000D01*
G75*
G02*
X74074000Y-41919000I0J200000D01*
G01*
X74074000Y-41519000D01*
G75*
G02*
X74274000Y-41319000I200000J0D01*
G01*
X74824000Y-41319000D01*
G75*
G02*
X75024000Y-41519000I0J-200000D01*
G01*
X75024000Y-41919000D01*
G75*
G02*
X74824000Y-42119000I-200000J0D01*
G01*
G37*
D19*
X89916000Y-42910000D03*
X89266000Y-40910000D03*
X90566000Y-40910000D03*
X87122000Y-42910000D03*
X86472000Y-40910000D03*
X87772000Y-40910000D03*
X84328000Y-42926000D03*
X83678000Y-40926000D03*
X84978000Y-40926000D03*
G36*
G01*
X77259000Y-39501000D02*
X77259000Y-40001000D01*
G75*
G02*
X77034000Y-40226000I-225000J0D01*
G01*
X76584000Y-40226000D01*
G75*
G02*
X76359000Y-40001000I0J225000D01*
G01*
X76359000Y-39501000D01*
G75*
G02*
X76584000Y-39276000I225000J0D01*
G01*
X77034000Y-39276000D01*
G75*
G02*
X77259000Y-39501000I0J-225000D01*
G01*
G37*
G36*
G01*
X78809000Y-39501000D02*
X78809000Y-40001000D01*
G75*
G02*
X78584000Y-40226000I-225000J0D01*
G01*
X78134000Y-40226000D01*
G75*
G02*
X77909000Y-40001000I0J225000D01*
G01*
X77909000Y-39501000D01*
G75*
G02*
X78134000Y-39276000I225000J0D01*
G01*
X78584000Y-39276000D01*
G75*
G02*
X78809000Y-39501000I0J-225000D01*
G01*
G37*
G36*
G01*
X70147000Y-39501000D02*
X70147000Y-40001000D01*
G75*
G02*
X69922000Y-40226000I-225000J0D01*
G01*
X69472000Y-40226000D01*
G75*
G02*
X69247000Y-40001000I0J225000D01*
G01*
X69247000Y-39501000D01*
G75*
G02*
X69472000Y-39276000I225000J0D01*
G01*
X69922000Y-39276000D01*
G75*
G02*
X70147000Y-39501000I0J-225000D01*
G01*
G37*
G36*
G01*
X71697000Y-39501000D02*
X71697000Y-40001000D01*
G75*
G02*
X71472000Y-40226000I-225000J0D01*
G01*
X71022000Y-40226000D01*
G75*
G02*
X70797000Y-40001000I0J225000D01*
G01*
X70797000Y-39501000D01*
G75*
G02*
X71022000Y-39276000I225000J0D01*
G01*
X71472000Y-39276000D01*
G75*
G02*
X71697000Y-39501000I0J-225000D01*
G01*
G37*
G36*
G01*
X128609000Y-106065000D02*
X128609000Y-105725000D01*
G75*
G02*
X128749000Y-105585000I140000J0D01*
G01*
X129029000Y-105585000D01*
G75*
G02*
X129169000Y-105725000I0J-140000D01*
G01*
X129169000Y-106065000D01*
G75*
G02*
X129029000Y-106205000I-140000J0D01*
G01*
X128749000Y-106205000D01*
G75*
G02*
X128609000Y-106065000I0J140000D01*
G01*
G37*
G36*
G01*
X127649000Y-106065000D02*
X127649000Y-105725000D01*
G75*
G02*
X127789000Y-105585000I140000J0D01*
G01*
X128069000Y-105585000D01*
G75*
G02*
X128209000Y-105725000I0J-140000D01*
G01*
X128209000Y-106065000D01*
G75*
G02*
X128069000Y-106205000I-140000J0D01*
G01*
X127789000Y-106205000D01*
G75*
G02*
X127649000Y-106065000I0J140000D01*
G01*
G37*
G36*
G01*
X128609000Y-173065000D02*
X128609000Y-172725000D01*
G75*
G02*
X128749000Y-172585000I140000J0D01*
G01*
X129029000Y-172585000D01*
G75*
G02*
X129169000Y-172725000I0J-140000D01*
G01*
X129169000Y-173065000D01*
G75*
G02*
X129029000Y-173205000I-140000J0D01*
G01*
X128749000Y-173205000D01*
G75*
G02*
X128609000Y-173065000I0J140000D01*
G01*
G37*
G36*
G01*
X127649000Y-173065000D02*
X127649000Y-172725000D01*
G75*
G02*
X127789000Y-172585000I140000J0D01*
G01*
X128069000Y-172585000D01*
G75*
G02*
X128209000Y-172725000I0J-140000D01*
G01*
X128209000Y-173065000D01*
G75*
G02*
X128069000Y-173205000I-140000J0D01*
G01*
X127789000Y-173205000D01*
G75*
G02*
X127649000Y-173065000I0J140000D01*
G01*
G37*
G36*
G01*
X66209000Y-172725000D02*
X66209000Y-173065000D01*
G75*
G02*
X66069000Y-173205000I-140000J0D01*
G01*
X65789000Y-173205000D01*
G75*
G02*
X65649000Y-173065000I0J140000D01*
G01*
X65649000Y-172725000D01*
G75*
G02*
X65789000Y-172585000I140000J0D01*
G01*
X66069000Y-172585000D01*
G75*
G02*
X66209000Y-172725000I0J-140000D01*
G01*
G37*
G36*
G01*
X67169000Y-172725000D02*
X67169000Y-173065000D01*
G75*
G02*
X67029000Y-173205000I-140000J0D01*
G01*
X66749000Y-173205000D01*
G75*
G02*
X66609000Y-173065000I0J140000D01*
G01*
X66609000Y-172725000D01*
G75*
G02*
X66749000Y-172585000I140000J0D01*
G01*
X67029000Y-172585000D01*
G75*
G02*
X67169000Y-172725000I0J-140000D01*
G01*
G37*
G36*
G01*
X66209000Y-105725000D02*
X66209000Y-106065000D01*
G75*
G02*
X66069000Y-106205000I-140000J0D01*
G01*
X65789000Y-106205000D01*
G75*
G02*
X65649000Y-106065000I0J140000D01*
G01*
X65649000Y-105725000D01*
G75*
G02*
X65789000Y-105585000I140000J0D01*
G01*
X66069000Y-105585000D01*
G75*
G02*
X66209000Y-105725000I0J-140000D01*
G01*
G37*
G36*
G01*
X67169000Y-105725000D02*
X67169000Y-106065000D01*
G75*
G02*
X67029000Y-106205000I-140000J0D01*
G01*
X66749000Y-106205000D01*
G75*
G02*
X66609000Y-106065000I0J140000D01*
G01*
X66609000Y-105725000D01*
G75*
G02*
X66749000Y-105585000I140000J0D01*
G01*
X67029000Y-105585000D01*
G75*
G02*
X67169000Y-105725000I0J-140000D01*
G01*
G37*
G36*
G01*
X128609000Y-41065000D02*
X128609000Y-40725000D01*
G75*
G02*
X128749000Y-40585000I140000J0D01*
G01*
X129029000Y-40585000D01*
G75*
G02*
X129169000Y-40725000I0J-140000D01*
G01*
X129169000Y-41065000D01*
G75*
G02*
X129029000Y-41205000I-140000J0D01*
G01*
X128749000Y-41205000D01*
G75*
G02*
X128609000Y-41065000I0J140000D01*
G01*
G37*
G36*
G01*
X127649000Y-41065000D02*
X127649000Y-40725000D01*
G75*
G02*
X127789000Y-40585000I140000J0D01*
G01*
X128069000Y-40585000D01*
G75*
G02*
X128209000Y-40725000I0J-140000D01*
G01*
X128209000Y-41065000D01*
G75*
G02*
X128069000Y-41205000I-140000J0D01*
G01*
X127789000Y-41205000D01*
G75*
G02*
X127649000Y-41065000I0J140000D01*
G01*
G37*
G36*
G01*
X60679000Y-43822000D02*
X60339000Y-43822000D01*
G75*
G02*
X60199000Y-43682000I0J140000D01*
G01*
X60199000Y-43402000D01*
G75*
G02*
X60339000Y-43262000I140000J0D01*
G01*
X60679000Y-43262000D01*
G75*
G02*
X60819000Y-43402000I0J-140000D01*
G01*
X60819000Y-43682000D01*
G75*
G02*
X60679000Y-43822000I-140000J0D01*
G01*
G37*
G36*
G01*
X60679000Y-44782000D02*
X60339000Y-44782000D01*
G75*
G02*
X60199000Y-44642000I0J140000D01*
G01*
X60199000Y-44362000D01*
G75*
G02*
X60339000Y-44222000I140000J0D01*
G01*
X60679000Y-44222000D01*
G75*
G02*
X60819000Y-44362000I0J-140000D01*
G01*
X60819000Y-44642000D01*
G75*
G02*
X60679000Y-44782000I-140000J0D01*
G01*
G37*
G36*
G01*
X58909000Y-164220000D02*
X59459000Y-164220000D01*
G75*
G02*
X59659000Y-164420000I0J-200000D01*
G01*
X59659000Y-164820000D01*
G75*
G02*
X59459000Y-165020000I-200000J0D01*
G01*
X58909000Y-165020000D01*
G75*
G02*
X58709000Y-164820000I0J200000D01*
G01*
X58709000Y-164420000D01*
G75*
G02*
X58909000Y-164220000I200000J0D01*
G01*
G37*
G36*
G01*
X58909000Y-162570000D02*
X59459000Y-162570000D01*
G75*
G02*
X59659000Y-162770000I0J-200000D01*
G01*
X59659000Y-163170000D01*
G75*
G02*
X59459000Y-163370000I-200000J0D01*
G01*
X58909000Y-163370000D01*
G75*
G02*
X58709000Y-163170000I0J200000D01*
G01*
X58709000Y-162770000D01*
G75*
G02*
X58909000Y-162570000I200000J0D01*
G01*
G37*
M02*
