M48
INCH,TZ
T1C0.0354
T2C0.0394
T3C0.0500
T4C0.0591
T5C0.0748
%
G90
G05
T1
X-14449Y11516
X-11142Y11516
X-7382Y2362
X-3858Y4528
X-886Y2362
X886Y2362
X3858Y4528
X7382Y2362
X11142Y12008
X11181Y47402
X14449Y12008
X14488Y47402
T2
X-14539Y48780
X-14539Y42874
X-14539Y36969
X-14539Y31063
X-14539Y25157
X-14539Y19252
X-14539Y13346
X-14539Y7441
X-13988Y49646
X-13988Y43740
X-13988Y37835
X-13988Y31929
X-13988Y26024
X-13988Y20118
X-13988Y14213
X-13988Y8307
X-13043Y48780
X-13043Y42874
X-13043Y36969
X-13043Y31063
X-13043Y25157
X-13043Y19252
X-13043Y13346
X-13043Y7441
X-11547Y48780
X-11547Y42874
X-11547Y36969
X-11547Y31063
X-11547Y25157
X-11547Y19252
X-11547Y13346
X-11547Y7441
T3
X-10512Y48622
X-10512Y42717
X-10512Y36811
X-10512Y30906
X-10512Y25000
X-10512Y19094
X-10512Y13189
X-10512Y7283
X10512Y49213
X10512Y43307
X10512Y37402
X10512Y31496
X10512Y25591
X10512Y19685
X10512Y13780
X10512Y7874
T4
X-12295Y49799
X-12295Y43894
X-12295Y37988
X-12295Y32083
X-12295Y26177
X-12295Y20272
X-12295Y14366
X-12295Y8461
T5
X-11902Y47759
X-11902Y41854
X-11902Y35948
X-11902Y30043
X-11902Y24138
X-11902Y18232
X-11902Y12327
X-11902Y6421
T0
M30
