%TF.GenerationSoftware,KiCad,Pcbnew,(5.1.10)-1*%
%TF.CreationDate,2021-12-17T15:26:30-05:00*%
%TF.ProjectId,backplane,6261636b-706c-4616-9e65-2e6b69636164,A1*%
%TF.SameCoordinates,Original*%
%TF.FileFunction,Soldermask,Bot*%
%TF.FilePolarity,Negative*%
%FSLAX46Y46*%
G04 Gerber Fmt 4.6, Leading zero omitted, Abs format (unit mm)*
G04 Created by KiCad (PCBNEW (5.1.10)-1) date 2021-12-17 15:26:30*
%MOMM*%
%LPD*%
G01*
G04 APERTURE LIST*
%ADD10C,0.900000*%
%ADD11R,0.650000X0.700000*%
%ADD12C,4.500000*%
%ADD13C,1.000000*%
%ADD14C,1.500000*%
%ADD15C,1.270000*%
%ADD16R,0.300000X0.700000*%
%ADD17C,1.900000*%
G04 APERTURE END LIST*
D10*
X62302600Y-131950200D03*
X68202600Y-131950200D03*
D11*
X132034000Y-166445000D03*
X129084000Y-166445000D03*
X132034000Y-168345000D03*
X129084000Y-168345000D03*
X65734000Y-166445000D03*
X62784000Y-166445000D03*
X65734000Y-168345000D03*
X62784000Y-168345000D03*
D12*
X132409000Y-40895000D03*
X62409000Y-105895000D03*
X132409000Y-105895000D03*
X132409000Y-172895000D03*
X62409000Y-172895000D03*
X62409000Y-40895000D03*
D13*
X60479000Y-51995000D03*
X61879000Y-49795000D03*
X64279000Y-51995000D03*
D14*
X66179000Y-49405000D03*
D13*
X68079000Y-51995000D03*
D15*
X70709000Y-52395000D03*
X124109000Y-50895000D03*
D13*
X60479000Y-66995000D03*
X61879000Y-64795000D03*
X64279000Y-66995000D03*
D14*
X66179000Y-64405000D03*
D13*
X68079000Y-66995000D03*
D15*
X70709000Y-67395000D03*
X124109000Y-65895000D03*
D13*
X60479000Y-81995000D03*
X61879000Y-79795000D03*
X64279000Y-81995000D03*
D14*
X66179000Y-79405000D03*
D13*
X68079000Y-81995000D03*
D15*
X70709000Y-82395000D03*
X124109000Y-80895000D03*
D13*
X60479000Y-96995000D03*
X61879000Y-94795000D03*
X64279000Y-96995000D03*
D14*
X66179000Y-94405000D03*
D13*
X68079000Y-96995000D03*
D15*
X70709000Y-97395000D03*
X124109000Y-95895000D03*
D13*
X60479000Y-111995000D03*
X61879000Y-109795000D03*
X64279000Y-111995000D03*
D14*
X66179000Y-109405000D03*
D13*
X68079000Y-111995000D03*
D15*
X70709000Y-112395000D03*
X124109000Y-110895000D03*
D13*
X60479000Y-126995000D03*
X61879000Y-124795000D03*
X64279000Y-126995000D03*
D14*
X66179000Y-124405000D03*
D13*
X68079000Y-126995000D03*
D15*
X70709000Y-127395000D03*
X124109000Y-125895000D03*
D13*
X60479000Y-141995000D03*
X61879000Y-139795000D03*
X64279000Y-141995000D03*
D14*
X66179000Y-139405000D03*
D13*
X68079000Y-141995000D03*
D15*
X70709000Y-142395000D03*
X124109000Y-140895000D03*
D13*
X60479000Y-156995000D03*
X61879000Y-154795000D03*
X64279000Y-156995000D03*
D14*
X66179000Y-154405000D03*
D13*
X68079000Y-156995000D03*
D15*
X70709000Y-157395000D03*
X124109000Y-155895000D03*
D16*
X100659000Y-167595000D03*
X100659000Y-172195000D03*
X101159000Y-167595000D03*
X101159000Y-172195000D03*
X101659000Y-167595000D03*
X101659000Y-172195000D03*
X102159000Y-167595000D03*
X102159000Y-172195000D03*
X102659000Y-167595000D03*
X102659000Y-172195000D03*
X103159000Y-167595000D03*
X103159000Y-172195000D03*
X103659000Y-167595000D03*
X103659000Y-172195000D03*
X104159000Y-167595000D03*
X104159000Y-172195000D03*
X104659000Y-167595000D03*
X104659000Y-172195000D03*
X105159000Y-167595000D03*
X105159000Y-172195000D03*
X105659000Y-167595000D03*
X105659000Y-172195000D03*
X106159000Y-167595000D03*
X106159000Y-172195000D03*
X106659000Y-167595000D03*
X106659000Y-172195000D03*
X107159000Y-167595000D03*
X107159000Y-172195000D03*
X107659000Y-167595000D03*
X107659000Y-172195000D03*
X108159000Y-167595000D03*
X108159000Y-172195000D03*
X108659000Y-167595000D03*
X108659000Y-172195000D03*
X109159000Y-167595000D03*
X109159000Y-172195000D03*
X109659000Y-167595000D03*
X109659000Y-172195000D03*
X110159000Y-167595000D03*
X110159000Y-172195000D03*
D10*
X99659000Y-169895000D03*
X116159000Y-169895000D03*
D16*
X110659000Y-167595000D03*
X110659000Y-172195000D03*
X111159000Y-167595000D03*
X111159000Y-172195000D03*
X111659000Y-167595000D03*
X111659000Y-172195000D03*
X112159000Y-167595000D03*
X112159000Y-172195000D03*
X112659000Y-167595000D03*
X112659000Y-172195000D03*
X113159000Y-167595000D03*
X113159000Y-172195000D03*
X113659000Y-167595000D03*
X113659000Y-172195000D03*
X114159000Y-167595000D03*
X114159000Y-172195000D03*
X114659000Y-167595000D03*
X114659000Y-172195000D03*
X115159000Y-167595000D03*
X115159000Y-172195000D03*
X79659000Y-167595000D03*
X79659000Y-172195000D03*
X80159000Y-167595000D03*
X80159000Y-172195000D03*
X80659000Y-167595000D03*
X80659000Y-172195000D03*
X81159000Y-167595000D03*
X81159000Y-172195000D03*
X81659000Y-167595000D03*
X81659000Y-172195000D03*
X82159000Y-167595000D03*
X82159000Y-172195000D03*
X82659000Y-167595000D03*
X82659000Y-172195000D03*
X83159000Y-167595000D03*
X83159000Y-172195000D03*
X83659000Y-167595000D03*
X83659000Y-172195000D03*
X84159000Y-167595000D03*
X84159000Y-172195000D03*
X84659000Y-167595000D03*
X84659000Y-172195000D03*
X85159000Y-167595000D03*
X85159000Y-172195000D03*
X85659000Y-167595000D03*
X85659000Y-172195000D03*
X86159000Y-167595000D03*
X86159000Y-172195000D03*
X86659000Y-167595000D03*
X86659000Y-172195000D03*
X87159000Y-167595000D03*
X87159000Y-172195000D03*
X87659000Y-167595000D03*
X87659000Y-172195000D03*
X88159000Y-167595000D03*
X88159000Y-172195000D03*
X88659000Y-167595000D03*
X88659000Y-172195000D03*
X89159000Y-167595000D03*
X89159000Y-172195000D03*
D10*
X78659000Y-169895000D03*
X95159000Y-169895000D03*
D16*
X89659000Y-167595000D03*
X89659000Y-172195000D03*
X90159000Y-167595000D03*
X90159000Y-172195000D03*
X90659000Y-167595000D03*
X90659000Y-172195000D03*
X91159000Y-167595000D03*
X91159000Y-172195000D03*
X91659000Y-167595000D03*
X91659000Y-172195000D03*
X92159000Y-167595000D03*
X92159000Y-172195000D03*
X92659000Y-167595000D03*
X92659000Y-172195000D03*
X93159000Y-167595000D03*
X93159000Y-172195000D03*
X93659000Y-167595000D03*
X93659000Y-172195000D03*
X94159000Y-167595000D03*
X94159000Y-172195000D03*
D10*
X125709000Y-145395000D03*
X134109000Y-145395000D03*
X125809000Y-55495000D03*
X134209000Y-55495000D03*
X60709000Y-146645000D03*
X69109000Y-146645000D03*
X107209000Y-164395000D03*
X87609000Y-164395000D03*
D17*
X67179000Y-54586000D03*
X67179000Y-69586000D03*
X67179000Y-84586000D03*
X67179000Y-99585000D03*
X67179000Y-114585000D03*
X67179000Y-129585000D03*
X67179000Y-144585000D03*
X67179000Y-159585000D03*
M02*
