%TF.GenerationSoftware,KiCad,Pcbnew,(5.1.10)-1*%
%TF.CreationDate,2021-12-17T15:26:30-05:00*%
%TF.ProjectId,backplane,6261636b-706c-4616-9e65-2e6b69636164,A1*%
%TF.SameCoordinates,Original*%
%TF.FileFunction,Legend,Bot*%
%TF.FilePolarity,Positive*%
%FSLAX46Y46*%
G04 Gerber Fmt 4.6, Leading zero omitted, Abs format (unit mm)*
G04 Created by KiCad (PCBNEW (5.1.10)-1) date 2021-12-17 15:26:30*
%MOMM*%
%LPD*%
G01*
G04 APERTURE LIST*
%ADD10C,0.100000*%
%ADD11C,0.120000*%
%ADD12C,0.200000*%
%ADD13C,0.150000*%
%ADD14C,0.125000*%
G04 APERTURE END LIST*
D10*
X132230428Y-164347380D02*
X132159000Y-164371190D01*
X132039952Y-164371190D01*
X131992333Y-164347380D01*
X131968523Y-164323571D01*
X131944714Y-164275952D01*
X131944714Y-164228333D01*
X131968523Y-164180714D01*
X131992333Y-164156904D01*
X132039952Y-164133095D01*
X132135190Y-164109285D01*
X132182809Y-164085476D01*
X132206619Y-164061666D01*
X132230428Y-164014047D01*
X132230428Y-163966428D01*
X132206619Y-163918809D01*
X132182809Y-163895000D01*
X132135190Y-163871190D01*
X132016142Y-163871190D01*
X131944714Y-163895000D01*
X131730428Y-164109285D02*
X131563761Y-164109285D01*
X131492333Y-164371190D02*
X131730428Y-164371190D01*
X131730428Y-163871190D01*
X131492333Y-163871190D01*
X131039952Y-164371190D02*
X131278047Y-164371190D01*
X131278047Y-163871190D01*
X130706619Y-164109285D02*
X130873285Y-164109285D01*
X130873285Y-164371190D02*
X130873285Y-163871190D01*
X130635190Y-163871190D01*
X130135190Y-163871190D02*
X129849476Y-163871190D01*
X129992333Y-164371190D02*
X129992333Y-163871190D01*
X129682809Y-164109285D02*
X129516142Y-164109285D01*
X129444714Y-164371190D02*
X129682809Y-164371190D01*
X129682809Y-163871190D01*
X129444714Y-163871190D01*
X129254238Y-164347380D02*
X129182809Y-164371190D01*
X129063761Y-164371190D01*
X129016142Y-164347380D01*
X128992333Y-164323571D01*
X128968523Y-164275952D01*
X128968523Y-164228333D01*
X128992333Y-164180714D01*
X129016142Y-164156904D01*
X129063761Y-164133095D01*
X129159000Y-164109285D01*
X129206619Y-164085476D01*
X129230428Y-164061666D01*
X129254238Y-164014047D01*
X129254238Y-163966428D01*
X129230428Y-163918809D01*
X129206619Y-163895000D01*
X129159000Y-163871190D01*
X129039952Y-163871190D01*
X128968523Y-163895000D01*
X128825666Y-163871190D02*
X128539952Y-163871190D01*
X128682809Y-164371190D02*
X128682809Y-163871190D01*
X65385190Y-164371190D02*
X65551857Y-164133095D01*
X65670904Y-164371190D02*
X65670904Y-163871190D01*
X65480428Y-163871190D01*
X65432809Y-163895000D01*
X65409000Y-163918809D01*
X65385190Y-163966428D01*
X65385190Y-164037857D01*
X65409000Y-164085476D01*
X65432809Y-164109285D01*
X65480428Y-164133095D01*
X65670904Y-164133095D01*
X65170904Y-164109285D02*
X65004238Y-164109285D01*
X64932809Y-164371190D02*
X65170904Y-164371190D01*
X65170904Y-163871190D01*
X64932809Y-163871190D01*
X64742333Y-164347380D02*
X64670904Y-164371190D01*
X64551857Y-164371190D01*
X64504238Y-164347380D01*
X64480428Y-164323571D01*
X64456619Y-164275952D01*
X64456619Y-164228333D01*
X64480428Y-164180714D01*
X64504238Y-164156904D01*
X64551857Y-164133095D01*
X64647095Y-164109285D01*
X64694714Y-164085476D01*
X64718523Y-164061666D01*
X64742333Y-164014047D01*
X64742333Y-163966428D01*
X64718523Y-163918809D01*
X64694714Y-163895000D01*
X64647095Y-163871190D01*
X64528047Y-163871190D01*
X64456619Y-163895000D01*
X64242333Y-164109285D02*
X64075666Y-164109285D01*
X64004238Y-164371190D02*
X64242333Y-164371190D01*
X64242333Y-163871190D01*
X64004238Y-163871190D01*
X63861380Y-163871190D02*
X63575666Y-163871190D01*
X63718523Y-164371190D02*
X63718523Y-163871190D01*
D11*
X128309000Y-165645000D02*
X128309000Y-169145000D01*
X128309000Y-169145000D02*
X132809000Y-169145000D01*
X128309000Y-165645000D02*
X132809000Y-165645000D01*
X132809000Y-165645000D02*
X132809000Y-169145000D01*
X62009000Y-165645000D02*
X62009000Y-169145000D01*
X62009000Y-169145000D02*
X66509000Y-169145000D01*
X62009000Y-165645000D02*
X66509000Y-165645000D01*
X66509000Y-165645000D02*
X66509000Y-169145000D01*
D12*
X98909000Y-167395000D02*
X99909000Y-167395000D01*
X98909000Y-172395000D02*
X99909000Y-172395000D01*
X98909000Y-167395000D02*
X98909000Y-172395000D01*
X116909000Y-167395000D02*
X115909000Y-167395000D01*
X116909000Y-172395000D02*
X116909000Y-167395000D01*
X98909000Y-168925000D02*
X98909000Y-170865000D01*
X116909000Y-172395000D02*
X115909000Y-172395000D01*
X77909000Y-167395000D02*
X78909000Y-167395000D01*
X77909000Y-172395000D02*
X78909000Y-172395000D01*
X77909000Y-167395000D02*
X77909000Y-172395000D01*
X95909000Y-167395000D02*
X94909000Y-167395000D01*
X95909000Y-172395000D02*
X95909000Y-167395000D01*
X77909000Y-168925000D02*
X77909000Y-170865000D01*
X95909000Y-172395000D02*
X94909000Y-172395000D01*
D13*
X132844714Y-172049761D02*
X132701857Y-172097380D01*
X132463761Y-172097380D01*
X132368523Y-172049761D01*
X132320904Y-172002142D01*
X132273285Y-171906904D01*
X132273285Y-171811666D01*
X132320904Y-171716428D01*
X132368523Y-171668809D01*
X132463761Y-171621190D01*
X132654238Y-171573571D01*
X132749476Y-171525952D01*
X132797095Y-171478333D01*
X132844714Y-171383095D01*
X132844714Y-171287857D01*
X132797095Y-171192619D01*
X132749476Y-171145000D01*
X132654238Y-171097380D01*
X132416142Y-171097380D01*
X132273285Y-171145000D01*
X131939952Y-171097380D02*
X131701857Y-172097380D01*
X131511380Y-171383095D01*
X131320904Y-172097380D01*
X131082809Y-171097380D01*
X130178047Y-172097380D02*
X130749476Y-172097380D01*
X130463761Y-172097380D02*
X130463761Y-171097380D01*
X130559000Y-171240238D01*
X130654238Y-171335476D01*
X130749476Y-171383095D01*
X129559000Y-171097380D02*
X129463761Y-171097380D01*
X129368523Y-171145000D01*
X129320904Y-171192619D01*
X129273285Y-171287857D01*
X129225666Y-171478333D01*
X129225666Y-171716428D01*
X129273285Y-171906904D01*
X129320904Y-172002142D01*
X129368523Y-172049761D01*
X129463761Y-172097380D01*
X129559000Y-172097380D01*
X129654238Y-172049761D01*
X129701857Y-172002142D01*
X129749476Y-171906904D01*
X129797095Y-171716428D01*
X129797095Y-171478333D01*
X129749476Y-171287857D01*
X129701857Y-171192619D01*
X129654238Y-171145000D01*
X129559000Y-171097380D01*
X128273285Y-172097380D02*
X128844714Y-172097380D01*
X128559000Y-172097380D02*
X128559000Y-171097380D01*
X128654238Y-171240238D01*
X128749476Y-171335476D01*
X128844714Y-171383095D01*
X66544714Y-172049761D02*
X66401857Y-172097380D01*
X66163761Y-172097380D01*
X66068523Y-172049761D01*
X66020904Y-172002142D01*
X65973285Y-171906904D01*
X65973285Y-171811666D01*
X66020904Y-171716428D01*
X66068523Y-171668809D01*
X66163761Y-171621190D01*
X66354238Y-171573571D01*
X66449476Y-171525952D01*
X66497095Y-171478333D01*
X66544714Y-171383095D01*
X66544714Y-171287857D01*
X66497095Y-171192619D01*
X66449476Y-171145000D01*
X66354238Y-171097380D01*
X66116142Y-171097380D01*
X65973285Y-171145000D01*
X65639952Y-171097380D02*
X65401857Y-172097380D01*
X65211380Y-171383095D01*
X65020904Y-172097380D01*
X64782809Y-171097380D01*
X63878047Y-172097380D02*
X64449476Y-172097380D01*
X64163761Y-172097380D02*
X64163761Y-171097380D01*
X64259000Y-171240238D01*
X64354238Y-171335476D01*
X64449476Y-171383095D01*
X63259000Y-171097380D02*
X63163761Y-171097380D01*
X63068523Y-171145000D01*
X63020904Y-171192619D01*
X62973285Y-171287857D01*
X62925666Y-171478333D01*
X62925666Y-171716428D01*
X62973285Y-171906904D01*
X63020904Y-172002142D01*
X63068523Y-172049761D01*
X63163761Y-172097380D01*
X63259000Y-172097380D01*
X63354238Y-172049761D01*
X63401857Y-172002142D01*
X63449476Y-171906904D01*
X63497095Y-171716428D01*
X63497095Y-171478333D01*
X63449476Y-171287857D01*
X63401857Y-171192619D01*
X63354238Y-171145000D01*
X63259000Y-171097380D01*
X62306619Y-171097380D02*
X62211380Y-171097380D01*
X62116142Y-171145000D01*
X62068523Y-171192619D01*
X62020904Y-171287857D01*
X61973285Y-171478333D01*
X61973285Y-171716428D01*
X62020904Y-171906904D01*
X62068523Y-172002142D01*
X62116142Y-172049761D01*
X62211380Y-172097380D01*
X62306619Y-172097380D01*
X62401857Y-172049761D01*
X62449476Y-172002142D01*
X62497095Y-171906904D01*
X62544714Y-171716428D01*
X62544714Y-171478333D01*
X62497095Y-171287857D01*
X62449476Y-171192619D01*
X62401857Y-171145000D01*
X62306619Y-171097380D01*
X105231857Y-173325923D02*
X105231857Y-173783066D01*
X105262333Y-173874495D01*
X105323285Y-173935447D01*
X105414714Y-173965923D01*
X105475666Y-173965923D01*
X104988047Y-173325923D02*
X104591857Y-173325923D01*
X104805190Y-173569733D01*
X104713761Y-173569733D01*
X104652809Y-173600209D01*
X104622333Y-173630685D01*
X104591857Y-173691638D01*
X104591857Y-173844019D01*
X104622333Y-173904971D01*
X104652809Y-173935447D01*
X104713761Y-173965923D01*
X104896619Y-173965923D01*
X104957571Y-173935447D01*
X104988047Y-173904971D01*
X104195666Y-173325923D02*
X104134714Y-173325923D01*
X104073761Y-173356400D01*
X104043285Y-173386876D01*
X104012809Y-173447828D01*
X103982333Y-173569733D01*
X103982333Y-173722114D01*
X104012809Y-173844019D01*
X104043285Y-173904971D01*
X104073761Y-173935447D01*
X104134714Y-173965923D01*
X104195666Y-173965923D01*
X104256619Y-173935447D01*
X104287095Y-173904971D01*
X104317571Y-173844019D01*
X104348047Y-173722114D01*
X104348047Y-173569733D01*
X104317571Y-173447828D01*
X104287095Y-173386876D01*
X104256619Y-173356400D01*
X104195666Y-173325923D01*
X103372809Y-173965923D02*
X103738523Y-173965923D01*
X103555666Y-173965923D02*
X103555666Y-173325923D01*
X103616619Y-173417352D01*
X103677571Y-173478304D01*
X103738523Y-173508780D01*
D14*
X99866142Y-173621190D02*
X99889952Y-173645000D01*
X99937571Y-173668809D01*
X100056619Y-173668809D01*
X100104238Y-173645000D01*
X100128047Y-173621190D01*
X100151857Y-173573571D01*
X100151857Y-173525952D01*
X100128047Y-173454523D01*
X99842333Y-173168809D01*
X100151857Y-173168809D01*
X100151857Y-166668809D02*
X99866142Y-166668809D01*
X100009000Y-166668809D02*
X100009000Y-167168809D01*
X99961380Y-167097380D01*
X99913761Y-167049761D01*
X99866142Y-167025952D01*
D13*
X84231857Y-173325923D02*
X84231857Y-173783066D01*
X84262333Y-173874495D01*
X84323285Y-173935447D01*
X84414714Y-173965923D01*
X84475666Y-173965923D01*
X83988047Y-173325923D02*
X83591857Y-173325923D01*
X83805190Y-173569733D01*
X83713761Y-173569733D01*
X83652809Y-173600209D01*
X83622333Y-173630685D01*
X83591857Y-173691638D01*
X83591857Y-173844019D01*
X83622333Y-173904971D01*
X83652809Y-173935447D01*
X83713761Y-173965923D01*
X83896619Y-173965923D01*
X83957571Y-173935447D01*
X83988047Y-173904971D01*
X83195666Y-173325923D02*
X83134714Y-173325923D01*
X83073761Y-173356400D01*
X83043285Y-173386876D01*
X83012809Y-173447828D01*
X82982333Y-173569733D01*
X82982333Y-173722114D01*
X83012809Y-173844019D01*
X83043285Y-173904971D01*
X83073761Y-173935447D01*
X83134714Y-173965923D01*
X83195666Y-173965923D01*
X83256619Y-173935447D01*
X83287095Y-173904971D01*
X83317571Y-173844019D01*
X83348047Y-173722114D01*
X83348047Y-173569733D01*
X83317571Y-173447828D01*
X83287095Y-173386876D01*
X83256619Y-173356400D01*
X83195666Y-173325923D01*
X82586142Y-173325923D02*
X82525190Y-173325923D01*
X82464238Y-173356400D01*
X82433761Y-173386876D01*
X82403285Y-173447828D01*
X82372809Y-173569733D01*
X82372809Y-173722114D01*
X82403285Y-173844019D01*
X82433761Y-173904971D01*
X82464238Y-173935447D01*
X82525190Y-173965923D01*
X82586142Y-173965923D01*
X82647095Y-173935447D01*
X82677571Y-173904971D01*
X82708047Y-173844019D01*
X82738523Y-173722114D01*
X82738523Y-173569733D01*
X82708047Y-173447828D01*
X82677571Y-173386876D01*
X82647095Y-173356400D01*
X82586142Y-173325923D01*
D14*
X78866142Y-173621190D02*
X78889952Y-173645000D01*
X78937571Y-173668809D01*
X79056619Y-173668809D01*
X79104238Y-173645000D01*
X79128047Y-173621190D01*
X79151857Y-173573571D01*
X79151857Y-173525952D01*
X79128047Y-173454523D01*
X78842333Y-173168809D01*
X79151857Y-173168809D01*
X79151857Y-166668809D02*
X78866142Y-166668809D01*
X79009000Y-166668809D02*
X79009000Y-167168809D01*
X78961380Y-167097380D01*
X78913761Y-167049761D01*
X78866142Y-167025952D01*
M02*
