%TF.GenerationSoftware,KiCad,Pcbnew,(5.1.9)-1*%
%TF.CreationDate,2021-12-18T00:28:50-05:00*%
%TF.ProjectId,backplane,6261636b-706c-4616-9e65-2e6b69636164,A1*%
%TF.SameCoordinates,Original*%
%TF.FileFunction,Legend,Bot*%
%TF.FilePolarity,Positive*%
%FSLAX46Y46*%
G04 Gerber Fmt 4.6, Leading zero omitted, Abs format (unit mm)*
G04 Created by KiCad (PCBNEW (5.1.9)-1) date 2021-12-18 00:28:50*
%MOMM*%
%LPD*%
G01*
G04 APERTURE LIST*
%ADD10C,0.150000*%
%ADD11C,0.100000*%
%ADD12C,0.200000*%
%ADD13C,0.120000*%
G04 APERTURE END LIST*
D10*
X105329642Y-165536571D02*
X105186785Y-165584190D01*
X105139166Y-165631809D01*
X105091547Y-165727047D01*
X105091547Y-165869904D01*
X105139166Y-165965142D01*
X105186785Y-166012761D01*
X105282023Y-166060380D01*
X105662976Y-166060380D01*
X105662976Y-165060380D01*
X105329642Y-165060380D01*
X105234404Y-165108000D01*
X105186785Y-165155619D01*
X105139166Y-165250857D01*
X105139166Y-165346095D01*
X105186785Y-165441333D01*
X105234404Y-165488952D01*
X105329642Y-165536571D01*
X105662976Y-165536571D01*
X104710595Y-165774666D02*
X104234404Y-165774666D01*
X104805833Y-166060380D02*
X104472500Y-165060380D01*
X104139166Y-166060380D01*
X103234404Y-165965142D02*
X103282023Y-166012761D01*
X103424880Y-166060380D01*
X103520119Y-166060380D01*
X103662976Y-166012761D01*
X103758214Y-165917523D01*
X103805833Y-165822285D01*
X103853452Y-165631809D01*
X103853452Y-165488952D01*
X103805833Y-165298476D01*
X103758214Y-165203238D01*
X103662976Y-165108000D01*
X103520119Y-165060380D01*
X103424880Y-165060380D01*
X103282023Y-165108000D01*
X103234404Y-165155619D01*
X102805833Y-166060380D02*
X102805833Y-165060380D01*
X102234404Y-166060380D02*
X102662976Y-165488952D01*
X102234404Y-165060380D02*
X102805833Y-165631809D01*
X101805833Y-166060380D02*
X101805833Y-165060380D01*
X101424880Y-165060380D01*
X101329642Y-165108000D01*
X101282023Y-165155619D01*
X101234404Y-165250857D01*
X101234404Y-165393714D01*
X101282023Y-165488952D01*
X101329642Y-165536571D01*
X101424880Y-165584190D01*
X101805833Y-165584190D01*
X100329642Y-166060380D02*
X100805833Y-166060380D01*
X100805833Y-165060380D01*
X100043928Y-165774666D02*
X99567738Y-165774666D01*
X100139166Y-166060380D02*
X99805833Y-165060380D01*
X99472500Y-166060380D01*
X99139166Y-166060380D02*
X99139166Y-165060380D01*
X98567738Y-166060380D01*
X98567738Y-165060380D01*
X98091547Y-165536571D02*
X97758214Y-165536571D01*
X97615357Y-166060380D02*
X98091547Y-166060380D01*
X98091547Y-165060380D01*
X97615357Y-165060380D01*
X96091547Y-165536571D02*
X95948690Y-165584190D01*
X95901071Y-165631809D01*
X95853452Y-165727047D01*
X95853452Y-165869904D01*
X95901071Y-165965142D01*
X95948690Y-166012761D01*
X96043928Y-166060380D01*
X96424880Y-166060380D01*
X96424880Y-165060380D01*
X96091547Y-165060380D01*
X95996309Y-165108000D01*
X95948690Y-165155619D01*
X95901071Y-165250857D01*
X95901071Y-165346095D01*
X95948690Y-165441333D01*
X95996309Y-165488952D01*
X96091547Y-165536571D01*
X96424880Y-165536571D01*
X94853452Y-166060380D02*
X95186785Y-165584190D01*
X95424880Y-166060380D02*
X95424880Y-165060380D01*
X95043928Y-165060380D01*
X94948690Y-165108000D01*
X94901071Y-165155619D01*
X94853452Y-165250857D01*
X94853452Y-165393714D01*
X94901071Y-165488952D01*
X94948690Y-165536571D01*
X95043928Y-165584190D01*
X95424880Y-165584190D01*
X94424880Y-165536571D02*
X94091547Y-165536571D01*
X93948690Y-166060380D02*
X94424880Y-166060380D01*
X94424880Y-165060380D01*
X93948690Y-165060380D01*
X93567738Y-165774666D02*
X93091547Y-165774666D01*
X93662976Y-166060380D02*
X93329642Y-165060380D01*
X92996309Y-166060380D01*
X92662976Y-166060380D02*
X92662976Y-165060380D01*
X92091547Y-166060380D02*
X92520119Y-165488952D01*
X92091547Y-165060380D02*
X92662976Y-165631809D01*
X91472500Y-165060380D02*
X91282023Y-165060380D01*
X91186785Y-165108000D01*
X91091547Y-165203238D01*
X91043928Y-165393714D01*
X91043928Y-165727047D01*
X91091547Y-165917523D01*
X91186785Y-166012761D01*
X91282023Y-166060380D01*
X91472500Y-166060380D01*
X91567738Y-166012761D01*
X91662976Y-165917523D01*
X91710595Y-165727047D01*
X91710595Y-165393714D01*
X91662976Y-165203238D01*
X91567738Y-165108000D01*
X91472500Y-165060380D01*
X90615357Y-165060380D02*
X90615357Y-165869904D01*
X90567738Y-165965142D01*
X90520119Y-166012761D01*
X90424880Y-166060380D01*
X90234404Y-166060380D01*
X90139166Y-166012761D01*
X90091547Y-165965142D01*
X90043928Y-165869904D01*
X90043928Y-165060380D01*
X89710595Y-165060380D02*
X89139166Y-165060380D01*
X89424880Y-166060380D02*
X89424880Y-165060380D01*
D11*
X132357428Y-165236380D02*
X132286000Y-165260190D01*
X132166952Y-165260190D01*
X132119333Y-165236380D01*
X132095523Y-165212571D01*
X132071714Y-165164952D01*
X132071714Y-165117333D01*
X132095523Y-165069714D01*
X132119333Y-165045904D01*
X132166952Y-165022095D01*
X132262190Y-164998285D01*
X132309809Y-164974476D01*
X132333619Y-164950666D01*
X132357428Y-164903047D01*
X132357428Y-164855428D01*
X132333619Y-164807809D01*
X132309809Y-164784000D01*
X132262190Y-164760190D01*
X132143142Y-164760190D01*
X132071714Y-164784000D01*
X131857428Y-164998285D02*
X131690761Y-164998285D01*
X131619333Y-165260190D02*
X131857428Y-165260190D01*
X131857428Y-164760190D01*
X131619333Y-164760190D01*
X131166952Y-165260190D02*
X131405047Y-165260190D01*
X131405047Y-164760190D01*
X130833619Y-164998285D02*
X131000285Y-164998285D01*
X131000285Y-165260190D02*
X131000285Y-164760190D01*
X130762190Y-164760190D01*
X130262190Y-164760190D02*
X129976476Y-164760190D01*
X130119333Y-165260190D02*
X130119333Y-164760190D01*
X129809809Y-164998285D02*
X129643142Y-164998285D01*
X129571714Y-165260190D02*
X129809809Y-165260190D01*
X129809809Y-164760190D01*
X129571714Y-164760190D01*
X129381238Y-165236380D02*
X129309809Y-165260190D01*
X129190761Y-165260190D01*
X129143142Y-165236380D01*
X129119333Y-165212571D01*
X129095523Y-165164952D01*
X129095523Y-165117333D01*
X129119333Y-165069714D01*
X129143142Y-165045904D01*
X129190761Y-165022095D01*
X129286000Y-164998285D01*
X129333619Y-164974476D01*
X129357428Y-164950666D01*
X129381238Y-164903047D01*
X129381238Y-164855428D01*
X129357428Y-164807809D01*
X129333619Y-164784000D01*
X129286000Y-164760190D01*
X129166952Y-164760190D01*
X129095523Y-164784000D01*
X128952666Y-164760190D02*
X128666952Y-164760190D01*
X128809809Y-165260190D02*
X128809809Y-164760190D01*
X64988190Y-165326190D02*
X65154857Y-165088095D01*
X65273904Y-165326190D02*
X65273904Y-164826190D01*
X65083428Y-164826190D01*
X65035809Y-164850000D01*
X65012000Y-164873809D01*
X64988190Y-164921428D01*
X64988190Y-164992857D01*
X65012000Y-165040476D01*
X65035809Y-165064285D01*
X65083428Y-165088095D01*
X65273904Y-165088095D01*
X64773904Y-165064285D02*
X64607238Y-165064285D01*
X64535809Y-165326190D02*
X64773904Y-165326190D01*
X64773904Y-164826190D01*
X64535809Y-164826190D01*
X64345333Y-165302380D02*
X64273904Y-165326190D01*
X64154857Y-165326190D01*
X64107238Y-165302380D01*
X64083428Y-165278571D01*
X64059619Y-165230952D01*
X64059619Y-165183333D01*
X64083428Y-165135714D01*
X64107238Y-165111904D01*
X64154857Y-165088095D01*
X64250095Y-165064285D01*
X64297714Y-165040476D01*
X64321523Y-165016666D01*
X64345333Y-164969047D01*
X64345333Y-164921428D01*
X64321523Y-164873809D01*
X64297714Y-164850000D01*
X64250095Y-164826190D01*
X64131047Y-164826190D01*
X64059619Y-164850000D01*
X63845333Y-165064285D02*
X63678666Y-165064285D01*
X63607238Y-165326190D02*
X63845333Y-165326190D01*
X63845333Y-164826190D01*
X63607238Y-164826190D01*
X63464380Y-164826190D02*
X63178666Y-164826190D01*
X63321523Y-165326190D02*
X63321523Y-164826190D01*
D12*
X97879000Y-166645000D02*
X99669000Y-166645000D01*
X97879000Y-166645000D02*
X97879000Y-172125000D01*
X97879000Y-172125000D02*
X98889000Y-173145000D01*
X98889000Y-173145000D02*
X99669000Y-173145000D01*
X116149000Y-173145000D02*
X116929000Y-173145000D01*
X116929000Y-173145000D02*
X117939000Y-172125000D01*
X117939000Y-172125000D02*
X117939000Y-166645000D01*
X117939000Y-166645000D02*
X116149000Y-166645000D01*
X100209000Y-165695000D02*
G75*
G03*
X100209000Y-165695000I-100000J0D01*
G01*
X76879000Y-166645000D02*
X78669000Y-166645000D01*
X76879000Y-166645000D02*
X76879000Y-172125000D01*
X76879000Y-172125000D02*
X77889000Y-173145000D01*
X77889000Y-173145000D02*
X78669000Y-173145000D01*
X95149000Y-173145000D02*
X95929000Y-173145000D01*
X95929000Y-173145000D02*
X96939000Y-172125000D01*
X96939000Y-172125000D02*
X96939000Y-166645000D01*
X96939000Y-166645000D02*
X95149000Y-166645000D01*
X79209000Y-165695000D02*
G75*
G03*
X79209000Y-165695000I-100000J0D01*
G01*
D13*
X128309000Y-165645000D02*
X128309000Y-169145000D01*
X128309000Y-169145000D02*
X132809000Y-169145000D01*
X128309000Y-165645000D02*
X132809000Y-165645000D01*
X132809000Y-165645000D02*
X132809000Y-169145000D01*
X62009000Y-165645000D02*
X62009000Y-169145000D01*
X62009000Y-169145000D02*
X66509000Y-169145000D01*
X62009000Y-165645000D02*
X66509000Y-165645000D01*
X66509000Y-165645000D02*
X66509000Y-169145000D01*
D10*
X117046214Y-164679380D02*
X117046214Y-165393666D01*
X117093833Y-165536523D01*
X117189071Y-165631761D01*
X117331928Y-165679380D01*
X117427166Y-165679380D01*
X116665261Y-164679380D02*
X116046214Y-164679380D01*
X116379547Y-165060333D01*
X116236690Y-165060333D01*
X116141452Y-165107952D01*
X116093833Y-165155571D01*
X116046214Y-165250809D01*
X116046214Y-165488904D01*
X116093833Y-165584142D01*
X116141452Y-165631761D01*
X116236690Y-165679380D01*
X116522404Y-165679380D01*
X116617642Y-165631761D01*
X116665261Y-165584142D01*
X115427166Y-164679380D02*
X115331928Y-164679380D01*
X115236690Y-164727000D01*
X115189071Y-164774619D01*
X115141452Y-164869857D01*
X115093833Y-165060333D01*
X115093833Y-165298428D01*
X115141452Y-165488904D01*
X115189071Y-165584142D01*
X115236690Y-165631761D01*
X115331928Y-165679380D01*
X115427166Y-165679380D01*
X115522404Y-165631761D01*
X115570023Y-165584142D01*
X115617642Y-165488904D01*
X115665261Y-165298428D01*
X115665261Y-165060333D01*
X115617642Y-164869857D01*
X115570023Y-164774619D01*
X115522404Y-164727000D01*
X115427166Y-164679380D01*
X114141452Y-165679380D02*
X114712880Y-165679380D01*
X114427166Y-165679380D02*
X114427166Y-164679380D01*
X114522404Y-164822238D01*
X114617642Y-164917476D01*
X114712880Y-164965095D01*
X79644714Y-164996880D02*
X79644714Y-165711166D01*
X79692333Y-165854023D01*
X79787571Y-165949261D01*
X79930428Y-165996880D01*
X80025666Y-165996880D01*
X79263761Y-164996880D02*
X78644714Y-164996880D01*
X78978047Y-165377833D01*
X78835190Y-165377833D01*
X78739952Y-165425452D01*
X78692333Y-165473071D01*
X78644714Y-165568309D01*
X78644714Y-165806404D01*
X78692333Y-165901642D01*
X78739952Y-165949261D01*
X78835190Y-165996880D01*
X79120904Y-165996880D01*
X79216142Y-165949261D01*
X79263761Y-165901642D01*
X78025666Y-164996880D02*
X77930428Y-164996880D01*
X77835190Y-165044500D01*
X77787571Y-165092119D01*
X77739952Y-165187357D01*
X77692333Y-165377833D01*
X77692333Y-165615928D01*
X77739952Y-165806404D01*
X77787571Y-165901642D01*
X77835190Y-165949261D01*
X77930428Y-165996880D01*
X78025666Y-165996880D01*
X78120904Y-165949261D01*
X78168523Y-165901642D01*
X78216142Y-165806404D01*
X78263761Y-165615928D01*
X78263761Y-165377833D01*
X78216142Y-165187357D01*
X78168523Y-165092119D01*
X78120904Y-165044500D01*
X78025666Y-164996880D01*
X77073285Y-164996880D02*
X76978047Y-164996880D01*
X76882809Y-165044500D01*
X76835190Y-165092119D01*
X76787571Y-165187357D01*
X76739952Y-165377833D01*
X76739952Y-165615928D01*
X76787571Y-165806404D01*
X76835190Y-165901642D01*
X76882809Y-165949261D01*
X76978047Y-165996880D01*
X77073285Y-165996880D01*
X77168523Y-165949261D01*
X77216142Y-165901642D01*
X77263761Y-165806404D01*
X77311380Y-165615928D01*
X77311380Y-165377833D01*
X77263761Y-165187357D01*
X77216142Y-165092119D01*
X77168523Y-165044500D01*
X77073285Y-164996880D01*
D11*
X131698857Y-164349880D02*
X131627428Y-164373690D01*
X131508380Y-164373690D01*
X131460761Y-164349880D01*
X131436952Y-164326071D01*
X131413142Y-164278452D01*
X131413142Y-164230833D01*
X131436952Y-164183214D01*
X131460761Y-164159404D01*
X131508380Y-164135595D01*
X131603619Y-164111785D01*
X131651238Y-164087976D01*
X131675047Y-164064166D01*
X131698857Y-164016547D01*
X131698857Y-163968928D01*
X131675047Y-163921309D01*
X131651238Y-163897500D01*
X131603619Y-163873690D01*
X131484571Y-163873690D01*
X131413142Y-163897500D01*
X131246476Y-163873690D02*
X131127428Y-164373690D01*
X131032190Y-164016547D01*
X130936952Y-164373690D01*
X130817904Y-163873690D01*
X130365523Y-164373690D02*
X130651238Y-164373690D01*
X130508380Y-164373690D02*
X130508380Y-163873690D01*
X130556000Y-163945119D01*
X130603619Y-163992738D01*
X130651238Y-164016547D01*
X130056000Y-163873690D02*
X130008380Y-163873690D01*
X129960761Y-163897500D01*
X129936952Y-163921309D01*
X129913142Y-163968928D01*
X129889333Y-164064166D01*
X129889333Y-164183214D01*
X129913142Y-164278452D01*
X129936952Y-164326071D01*
X129960761Y-164349880D01*
X130008380Y-164373690D01*
X130056000Y-164373690D01*
X130103619Y-164349880D01*
X130127428Y-164326071D01*
X130151238Y-164278452D01*
X130175047Y-164183214D01*
X130175047Y-164064166D01*
X130151238Y-163968928D01*
X130127428Y-163921309D01*
X130103619Y-163897500D01*
X130056000Y-163873690D01*
X129413142Y-164373690D02*
X129698857Y-164373690D01*
X129556000Y-164373690D02*
X129556000Y-163873690D01*
X129603619Y-163945119D01*
X129651238Y-163992738D01*
X129698857Y-164016547D01*
X65404857Y-164540380D02*
X65333428Y-164564190D01*
X65214380Y-164564190D01*
X65166761Y-164540380D01*
X65142952Y-164516571D01*
X65119142Y-164468952D01*
X65119142Y-164421333D01*
X65142952Y-164373714D01*
X65166761Y-164349904D01*
X65214380Y-164326095D01*
X65309619Y-164302285D01*
X65357238Y-164278476D01*
X65381047Y-164254666D01*
X65404857Y-164207047D01*
X65404857Y-164159428D01*
X65381047Y-164111809D01*
X65357238Y-164088000D01*
X65309619Y-164064190D01*
X65190571Y-164064190D01*
X65119142Y-164088000D01*
X64952476Y-164064190D02*
X64833428Y-164564190D01*
X64738190Y-164207047D01*
X64642952Y-164564190D01*
X64523904Y-164064190D01*
X64071523Y-164564190D02*
X64357238Y-164564190D01*
X64214380Y-164564190D02*
X64214380Y-164064190D01*
X64262000Y-164135619D01*
X64309619Y-164183238D01*
X64357238Y-164207047D01*
X63762000Y-164064190D02*
X63714380Y-164064190D01*
X63666761Y-164088000D01*
X63642952Y-164111809D01*
X63619142Y-164159428D01*
X63595333Y-164254666D01*
X63595333Y-164373714D01*
X63619142Y-164468952D01*
X63642952Y-164516571D01*
X63666761Y-164540380D01*
X63714380Y-164564190D01*
X63762000Y-164564190D01*
X63809619Y-164540380D01*
X63833428Y-164516571D01*
X63857238Y-164468952D01*
X63881047Y-164373714D01*
X63881047Y-164254666D01*
X63857238Y-164159428D01*
X63833428Y-164111809D01*
X63809619Y-164088000D01*
X63762000Y-164064190D01*
X63285809Y-164064190D02*
X63238190Y-164064190D01*
X63190571Y-164088000D01*
X63166761Y-164111809D01*
X63142952Y-164159428D01*
X63119142Y-164254666D01*
X63119142Y-164373714D01*
X63142952Y-164468952D01*
X63166761Y-164516571D01*
X63190571Y-164540380D01*
X63238190Y-164564190D01*
X63285809Y-164564190D01*
X63333428Y-164540380D01*
X63357238Y-164516571D01*
X63381047Y-164468952D01*
X63404857Y-164373714D01*
X63404857Y-164254666D01*
X63381047Y-164159428D01*
X63357238Y-164111809D01*
X63333428Y-164088000D01*
X63285809Y-164064190D01*
M02*
