M48
INCH,TZ
T1C0.0079
T2C0.0157
T3C0.0984
%
G90
G05
T1
X-15049Y5325
X-15049Y4203
X-14528Y52303
X-14528Y51545
X-14130Y50490
X-14120Y50240
X-13839Y2972
X-12797Y47533
X-12797Y41628
X-12797Y35722
X-12797Y29817
X-12797Y23911
X-12797Y18006
X-12797Y12100
X-12797Y6195
X-12794Y47986
X-12794Y42080
X-12794Y36175
X-12794Y30270
X-12794Y24364
X-12794Y18459
X-12794Y12553
X-12794Y6648
X-12589Y27559
X-12589Y1181
X-12264Y2972
X-11980Y3720
X-11831Y27559
X-11831Y1181
X-11600Y52717
X-11600Y52323
X-11600Y51930
X-11450Y52520
X-11450Y52127
X-11450Y51733
X-11300Y53300
X-11150Y53600
X-11093Y53007
X-11014Y47986
X-11014Y42080
X-11014Y36175
X-11014Y30270
X-11014Y24364
X-11014Y18459
X-11014Y12553
X-11014Y6648
X-11007Y47533
X-11007Y41628
X-11007Y35722
X-11007Y29817
X-11007Y23911
X-11007Y18006
X-11007Y12100
X-11007Y6195
X-10892Y51008
X-10695Y51155
X-10498Y51002
X-10302Y51152
X-10105Y51005
X-10050Y53600
X-9921Y50196
X-9921Y48858
X-9921Y44291
X-9921Y42952
X-9921Y38385
X-9921Y37047
X-9921Y32480
X-9921Y31141
X-9921Y26574
X-9921Y26574
X-9921Y25236
X-9921Y25236
X-9921Y20669
X-9921Y19330
X-9921Y14763
X-9921Y13425
X-9921Y8858
X-9921Y7519
X-9908Y51158
X-9606Y49567
X-9606Y48229
X-9606Y43662
X-9606Y42323
X-9606Y37756
X-9606Y36418
X-9606Y31851
X-9606Y30512
X-9606Y25945
X-9606Y24607
X-9606Y20040
X-9606Y18701
X-9606Y14134
X-9606Y12796
X-9606Y8229
X-9606Y6890
X-9350Y52520
X-9350Y52127
X-9350Y51733
X-9291Y50196
X-9291Y48858
X-9291Y44291
X-9291Y42952
X-9291Y38385
X-9291Y37047
X-9291Y32480
X-9291Y31141
X-9291Y26574
X-9291Y25236
X-9291Y20669
X-9291Y19330
X-9291Y14763
X-9291Y13425
X-9291Y8858
X-9291Y7519
X-9223Y52323
X-9220Y51930
X-8976Y49567
X-8976Y48229
X-8976Y43662
X-8976Y42323
X-8976Y37756
X-8976Y36418
X-8976Y31851
X-8976Y30512
X-8976Y25945
X-8976Y24607
X-8976Y20040
X-8976Y18701
X-8976Y14134
X-8976Y12796
X-8976Y8229
X-8976Y6890
X-8800Y52323
X-8800Y51930
X-8661Y50196
X-8661Y48858
X-8661Y44291
X-8661Y42952
X-8661Y38385
X-8661Y37047
X-8661Y32480
X-8661Y31141
X-8661Y26574
X-8661Y25236
X-8661Y20669
X-8661Y19330
X-8661Y14763
X-8661Y13425
X-8661Y8858
X-8661Y7519
X-8650Y52520
X-8650Y52127
X-8650Y51733
X-8533Y52867
X-8350Y53600
X-8346Y49567
X-8346Y48229
X-8346Y43662
X-8346Y42323
X-8346Y37756
X-8346Y36418
X-8346Y31851
X-8346Y30512
X-8346Y25945
X-8346Y24607
X-8346Y20040
X-8346Y18701
X-8346Y14134
X-8346Y12796
X-8346Y8229
X-8346Y6890
X-8293Y53007
X-8200Y51150
X-8031Y50196
X-8031Y48858
X-8031Y44291
X-8031Y42952
X-8031Y38385
X-8031Y37047
X-8031Y32480
X-8031Y31141
X-8031Y26574
X-8031Y25236
X-8031Y20669
X-8031Y19330
X-8031Y14763
X-8031Y13425
X-8031Y8858
X-8031Y7519
X-7895Y51155
X-7717Y49567
X-7717Y48229
X-7717Y43662
X-7717Y42323
X-7717Y37756
X-7717Y36418
X-7717Y31851
X-7717Y30512
X-7717Y25945
X-7717Y24607
X-7717Y20040
X-7717Y18701
X-7717Y14134
X-7717Y12796
X-7717Y8229
X-7717Y6890
X-7698Y51002
X-7502Y51152
X-7402Y50196
X-7402Y48858
X-7402Y44291
X-7402Y42952
X-7402Y38385
X-7402Y37047
X-7402Y32480
X-7402Y31141
X-7402Y26574
X-7402Y25236
X-7402Y20669
X-7402Y19330
X-7402Y14763
X-7402Y13425
X-7402Y8858
X-7402Y7519
X-7305Y51005
X-7250Y53600
X-7159Y3659
X-7108Y51158
X-7087Y49567
X-7087Y48229
X-7087Y43662
X-7087Y42323
X-7087Y37756
X-7087Y36418
X-7087Y31851
X-7087Y30512
X-7087Y25945
X-7087Y24607
X-7087Y20040
X-7087Y18701
X-7087Y14134
X-7087Y12796
X-7087Y8229
X-7087Y6890
X-6988Y1043
X-6791Y846
X-6772Y50196
X-6772Y48858
X-6772Y44291
X-6772Y42952
X-6772Y38385
X-6772Y37047
X-6772Y32480
X-6772Y31141
X-6772Y26574
X-6772Y25236
X-6772Y20669
X-6772Y19330
X-6772Y14763
X-6772Y13425
X-6772Y8858
X-6772Y7519
X-6594Y1043
X-6457Y49567
X-6457Y48229
X-6457Y43662
X-6457Y42323
X-6457Y37756
X-6457Y36418
X-6457Y31851
X-6457Y30512
X-6457Y25945
X-6457Y24607
X-6457Y20040
X-6457Y18701
X-6457Y14134
X-6457Y12796
X-6457Y8229
X-6457Y6890
X-6398Y846
X-6201Y1043
X-6142Y50196
X-6142Y48858
X-6142Y44291
X-6142Y42952
X-6142Y38385
X-6142Y37047
X-6142Y32480
X-6142Y31141
X-6142Y26574
X-6142Y25236
X-6142Y20669
X-6142Y19330
X-6142Y14763
X-6142Y13425
X-6142Y8858
X-6142Y7519
X-6004Y846
X-5827Y49567
X-5827Y48229
X-5827Y43662
X-5827Y42323
X-5827Y37756
X-5827Y36418
X-5827Y31851
X-5827Y30512
X-5827Y25945
X-5827Y24607
X-5827Y20040
X-5827Y18701
X-5827Y14134
X-5827Y12796
X-5827Y8229
X-5827Y6890
X-5807Y1043
X-5610Y846
X-5512Y50196
X-5512Y48858
X-5512Y44291
X-5512Y42952
X-5512Y38385
X-5512Y37047
X-5512Y32480
X-5512Y31141
X-5512Y26574
X-5512Y25236
X-5512Y20669
X-5512Y19330
X-5512Y14763
X-5512Y13425
X-5512Y8858
X-5512Y7519
X-5413Y1043
X-5217Y846
X-5197Y49567
X-5197Y48229
X-5197Y43662
X-5197Y42323
X-5197Y37756
X-5197Y36418
X-5197Y31851
X-5197Y30512
X-5197Y25945
X-5197Y24607
X-5197Y20040
X-5197Y18701
X-5197Y14134
X-5197Y12796
X-5197Y8229
X-5197Y6890
X-5150Y52600
X-5150Y50980
X-5020Y1043
X-4900Y54150
X-4882Y50196
X-4882Y48858
X-4882Y44291
X-4882Y42952
X-4882Y38385
X-4882Y37047
X-4882Y32480
X-4882Y31141
X-4882Y26574
X-4882Y25236
X-4882Y20669
X-4882Y19330
X-4882Y14763
X-4882Y13425
X-4882Y8858
X-4882Y7519
X-4823Y843
X-4626Y1043
X-4567Y49567
X-4567Y48229
X-4567Y43662
X-4567Y42323
X-4567Y37756
X-4567Y36418
X-4567Y31851
X-4567Y30512
X-4567Y25945
X-4567Y24607
X-4567Y20040
X-4567Y18701
X-4567Y14134
X-4567Y12796
X-4567Y8229
X-4567Y6890
X-4429Y846
X-4252Y50196
X-4252Y48858
X-4252Y44291
X-4252Y42952
X-4252Y38385
X-4252Y37047
X-4252Y32480
X-4252Y31141
X-4252Y26574
X-4252Y25236
X-4252Y20669
X-4252Y19330
X-4252Y14763
X-4252Y13425
X-4252Y8858
X-4252Y7519
X-4232Y1043
X-4050Y52606
X-4050Y50980
X-4035Y846
X-3937Y49567
X-3937Y48229
X-3937Y43662
X-3937Y42323
X-3937Y37756
X-3937Y36418
X-3937Y31851
X-3937Y30512
X-3937Y25945
X-3937Y24607
X-3937Y20040
X-3937Y18701
X-3937Y14134
X-3937Y12796
X-3937Y8229
X-3937Y6890
X-3839Y4016
X-3839Y3760
X-3839Y3508
X-3839Y1043
X-3800Y54150
X-3642Y846
X-3622Y50196
X-3622Y48858
X-3622Y44291
X-3622Y42952
X-3622Y38385
X-3622Y37047
X-3622Y32480
X-3622Y31141
X-3622Y26574
X-3622Y25236
X-3622Y20669
X-3622Y19330
X-3622Y14763
X-3622Y13425
X-3622Y8858
X-3622Y7519
X-3445Y1043
X-3307Y49567
X-3307Y48229
X-3307Y43662
X-3307Y42323
X-3307Y37756
X-3307Y36418
X-3307Y31851
X-3307Y30512
X-3307Y25945
X-3307Y24607
X-3307Y20040
X-3307Y18701
X-3307Y14134
X-3307Y12796
X-3307Y8229
X-3307Y6890
X-3248Y846
X-3051Y1043
X-2992Y50196
X-2992Y48858
X-2992Y44291
X-2992Y42952
X-2992Y38385
X-2992Y37047
X-2992Y32480
X-2992Y31141
X-2992Y26574
X-2992Y25236
X-2992Y20669
X-2992Y19330
X-2992Y14763
X-2992Y13425
X-2992Y8858
X-2992Y7519
X-2950Y52606
X-2950Y50980
X-2854Y854
X-2700Y54150
X-2677Y49567
X-2677Y48229
X-2677Y43662
X-2677Y42323
X-2677Y37756
X-2677Y36418
X-2677Y31851
X-2677Y30512
X-2677Y25945
X-2677Y24607
X-2677Y20040
X-2677Y18701
X-2677Y14134
X-2677Y12796
X-2677Y8229
X-2677Y6890
X-2657Y1043
X-2461Y846
X-2362Y50196
X-2362Y48858
X-2362Y44291
X-2362Y42952
X-2362Y38385
X-2362Y37047
X-2362Y32480
X-2362Y31141
X-2362Y26574
X-2362Y25236
X-2362Y20669
X-2362Y19330
X-2362Y14763
X-2362Y13425
X-2362Y8858
X-2362Y7519
X-2264Y1043
X-2106Y53394
X-2067Y843
X-2047Y49567
X-2047Y48229
X-2047Y43662
X-2047Y42323
X-2047Y37756
X-2047Y36418
X-2047Y31851
X-2047Y30512
X-2047Y25945
X-2047Y24607
X-2047Y20040
X-2047Y18701
X-2047Y14134
X-2047Y12796
X-2047Y8229
X-2047Y6890
X-1870Y1043
X-1850Y53700
X-1850Y52613
X-1732Y50196
X-1732Y48858
X-1732Y44291
X-1732Y42952
X-1732Y38385
X-1732Y37047
X-1732Y32480
X-1732Y31141
X-1732Y26574
X-1732Y25236
X-1732Y20669
X-1732Y19330
X-1732Y14763
X-1732Y13425
X-1732Y8858
X-1732Y7519
X-1673Y843
X-1476Y1043
X-1417Y49567
X-1417Y48228
X-1417Y43662
X-1417Y42322
X-1417Y37756
X-1417Y36417
X-1417Y31851
X-1417Y30511
X-1417Y25945
X-1417Y24606
X-1417Y20040
X-1417Y18700
X-1417Y14134
X-1417Y12795
X-1417Y8229
X-1417Y6889
X-1280Y846
X-1102Y50196
X-1102Y48858
X-1102Y44291
X-1102Y42952
X-1102Y38385
X-1102Y37047
X-1102Y32480
X-1102Y31141
X-1102Y26574
X-1102Y25236
X-1102Y20669
X-1102Y19330
X-1102Y14763
X-1102Y13425
X-1102Y8858
X-1102Y7519
X-1050Y53700
X-787Y49567
X-787Y48228
X-787Y43661
X-787Y42322
X-787Y37756
X-787Y36417
X-787Y31850
X-787Y30511
X-787Y25944
X-787Y24606
X-787Y20039
X-787Y18700
X-787Y14133
X-787Y12795
X-787Y8228
X-787Y6889
X-472Y50196
X-472Y48858
X-472Y44291
X-472Y42952
X-472Y38385
X-472Y37047
X-472Y32480
X-472Y31141
X-472Y26574
X-472Y25236
X-472Y20669
X-472Y19330
X-472Y14763
X-472Y13425
X-472Y8858
X-472Y7519
X-281Y1317
X-157Y49567
X-157Y48228
X-157Y43661
X-157Y42322
X-157Y37756
X-157Y36417
X-157Y31850
X-157Y30511
X-157Y25944
X-157Y24606
X-157Y20039
X-157Y18700
X-157Y14133
X-157Y12795
X-157Y8228
X-157Y6889
X132Y1333
X1280Y1043
X1417Y50196
X1417Y48858
X1417Y44291
X1417Y42952
X1417Y38385
X1417Y37047
X1417Y32480
X1417Y31141
X1417Y26574
X1417Y25236
X1417Y20669
X1417Y19330
X1417Y14763
X1417Y13425
X1417Y8858
X1417Y7519
X1476Y846
X1673Y1043
X1732Y49567
X1732Y48229
X1732Y43662
X1732Y42323
X1732Y37756
X1732Y36418
X1732Y31851
X1732Y30512
X1732Y25945
X1732Y24607
X1732Y20040
X1732Y18701
X1732Y14134
X1732Y12796
X1732Y8229
X1732Y6890
X1870Y843
X2047Y50196
X2047Y48858
X2047Y44291
X2047Y42952
X2047Y38385
X2047Y37047
X2047Y32480
X2047Y31141
X2047Y26574
X2047Y25236
X2047Y20669
X2047Y19330
X2047Y14763
X2047Y13425
X2047Y8858
X2047Y7519
X2067Y1043
X2264Y846
X2362Y49567
X2362Y48229
X2362Y43662
X2362Y42323
X2362Y37756
X2362Y36418
X2362Y31851
X2362Y30512
X2362Y25945
X2362Y24607
X2362Y20040
X2362Y18701
X2362Y14134
X2362Y12796
X2362Y8229
X2362Y6890
X2461Y1043
X2661Y846
X2677Y50196
X2677Y48858
X2677Y44291
X2677Y42952
X2677Y38385
X2677Y37047
X2677Y32480
X2677Y31141
X2677Y26574
X2677Y25236
X2677Y20669
X2677Y19330
X2677Y14763
X2677Y13425
X2677Y8858
X2677Y7519
X2854Y1043
X2992Y49567
X2992Y48229
X2992Y43662
X2992Y42323
X2992Y37756
X2992Y36418
X2992Y31851
X2992Y30512
X2992Y25945
X2992Y24607
X2992Y20040
X2992Y18701
X2992Y14134
X2992Y12796
X2992Y8229
X2992Y6890
X3051Y843
X3248Y1043
X3307Y50196
X3307Y48858
X3307Y44291
X3307Y42952
X3307Y38385
X3307Y37047
X3307Y32480
X3307Y31141
X3307Y26574
X3307Y25236
X3307Y20669
X3307Y19330
X3307Y14763
X3307Y13425
X3307Y8858
X3307Y7519
X3445Y846
X3622Y49567
X3622Y48229
X3622Y43662
X3622Y42323
X3622Y37756
X3622Y36418
X3622Y31851
X3622Y30512
X3622Y25945
X3622Y24607
X3622Y20040
X3622Y18701
X3622Y14134
X3622Y12796
X3622Y8229
X3622Y6890
X3642Y1043
X3839Y4094
X3839Y3799
X3839Y3504
X3839Y843
X3937Y50196
X3937Y48858
X3937Y44291
X3937Y42952
X3937Y38385
X3937Y37047
X3937Y32480
X3937Y31141
X3937Y26574
X3937Y25236
X3937Y20669
X3937Y19330
X3937Y14763
X3937Y13425
X3937Y8858
X3937Y7519
X4035Y1043
X4232Y843
X4252Y49567
X4252Y48229
X4252Y43662
X4252Y42323
X4252Y37756
X4252Y36418
X4252Y31851
X4252Y30512
X4252Y25945
X4252Y24607
X4252Y20040
X4252Y18701
X4252Y14134
X4252Y12796
X4252Y8229
X4252Y6890
X4429Y1043
X4567Y50196
X4567Y48858
X4567Y44291
X4567Y42952
X4567Y38385
X4567Y37047
X4567Y32480
X4567Y31141
X4567Y26574
X4567Y25236
X4567Y20669
X4567Y19330
X4567Y14763
X4567Y13425
X4567Y8858
X4567Y7519
X4626Y846
X4823Y1043
X4882Y49567
X4882Y48229
X4882Y43662
X4882Y42323
X4882Y37756
X4882Y36418
X4882Y31851
X4882Y30512
X4882Y25945
X4882Y24607
X4882Y20040
X4882Y18701
X4882Y14134
X4882Y12796
X4882Y8229
X4882Y6890
X5020Y846
X5197Y50196
X5197Y48858
X5197Y44291
X5197Y42952
X5197Y38385
X5197Y37047
X5197Y32480
X5197Y31141
X5197Y26574
X5197Y25236
X5197Y20669
X5197Y19330
X5197Y14763
X5197Y13425
X5197Y8858
X5197Y7519
X5217Y1043
X5413Y850
X5512Y49567
X5512Y48229
X5512Y43662
X5512Y42323
X5512Y37756
X5512Y36418
X5512Y31851
X5512Y30512
X5512Y25945
X5512Y24607
X5512Y20040
X5512Y18701
X5512Y14134
X5512Y12796
X5512Y8229
X5512Y6890
X5610Y1043
X5807Y850
X5827Y50196
X5827Y48858
X5827Y44291
X5827Y42952
X5827Y38385
X5827Y37047
X5827Y32480
X5827Y31141
X5827Y26574
X5827Y25236
X5827Y20669
X5827Y19330
X5827Y14763
X5827Y13425
X5827Y8858
X5827Y7519
X6004Y1043
X6142Y49567
X6142Y48229
X6142Y43662
X6142Y42323
X6142Y37756
X6142Y36418
X6142Y31851
X6142Y30512
X6142Y25945
X6142Y24607
X6142Y20040
X6142Y18701
X6142Y14134
X6142Y12796
X6142Y8229
X6142Y6890
X6201Y846
X6398Y1043
X6457Y50196
X6457Y48858
X6457Y44291
X6457Y42952
X6457Y38385
X6457Y37047
X6457Y32480
X6457Y31141
X6457Y26574
X6457Y25236
X6457Y20669
X6457Y19330
X6457Y14763
X6457Y13425
X6457Y8858
X6457Y7519
X6594Y846
X6772Y49567
X6772Y48236
X6772Y43661
X6772Y42331
X6772Y37756
X6772Y36425
X6772Y31850
X6772Y30520
X6772Y25944
X6772Y24614
X6772Y20039
X6772Y18709
X6772Y14133
X6772Y12803
X6772Y8228
X6772Y6898
X6791Y1043
X6988Y846
X7087Y50196
X7087Y48858
X7087Y44291
X7087Y42952
X7087Y38385
X7087Y37047
X7087Y32480
X7087Y31141
X7087Y26574
X7087Y25236
X7087Y20669
X7087Y19330
X7087Y14763
X7087Y13425
X7087Y8858
X7087Y7519
X7272Y1783
X7402Y49567
X7402Y48229
X7402Y43662
X7402Y42323
X7402Y37756
X7402Y36418
X7402Y31851
X7402Y30512
X7402Y25945
X7402Y24607
X7402Y20040
X7402Y18701
X7402Y14134
X7402Y12796
X7402Y8229
X7402Y6890
X7437Y846
X7717Y50196
X7717Y48858
X7717Y44291
X7717Y42952
X7717Y38385
X7717Y37047
X7717Y32480
X7717Y31141
X7717Y26574
X7717Y25236
X7717Y20669
X7717Y19330
X7717Y14763
X7717Y13425
X7717Y8858
X7717Y7519
X8031Y49567
X8031Y48229
X8031Y43662
X8031Y42323
X8031Y37756
X8031Y36418
X8031Y31851
X8031Y30512
X8031Y25945
X8031Y24607
X8031Y20040
X8031Y18701
X8031Y14134
X8031Y12796
X8031Y8229
X8031Y6890
X8346Y50196
X8346Y48858
X8346Y44291
X8346Y42952
X8346Y38385
X8346Y37047
X8346Y32480
X8346Y31141
X8346Y26574
X8346Y25236
X8346Y20669
X8346Y19330
X8346Y14763
X8346Y13425
X8346Y8858
X8346Y7519
X8661Y49567
X8661Y48229
X8661Y43662
X8661Y42323
X8661Y37756
X8661Y36418
X8661Y31851
X8661Y30512
X8661Y25945
X8661Y24607
X8661Y20040
X8661Y18701
X8661Y14134
X8661Y12796
X8661Y8229
X8661Y6890
X8976Y50196
X8976Y48858
X8976Y44291
X8976Y42952
X8976Y38385
X8976Y37047
X8976Y32480
X8976Y31141
X8976Y26574
X8976Y25236
X8976Y20669
X8976Y19330
X8976Y14763
X8976Y13425
X8976Y8858
X8976Y7519
X9291Y49567
X9291Y48229
X9291Y43662
X9291Y42323
X9291Y37756
X9291Y36418
X9291Y31851
X9291Y30512
X9291Y25945
X9291Y24607
X9291Y20040
X9291Y18701
X9291Y14134
X9291Y12796
X9291Y8229
X9291Y6890
X9606Y50196
X9606Y48858
X9606Y44291
X9606Y42952
X9606Y38385
X9606Y37047
X9606Y32480
X9606Y31141
X9606Y26574
X9606Y25236
X9606Y20669
X9606Y19330
X9606Y14763
X9606Y13425
X9606Y8858
X9606Y7519
X9921Y49567
X9921Y48229
X9921Y43662
X9921Y42323
X9921Y37756
X9921Y36418
X9921Y31851
X9921Y30512
X9921Y25945
X9921Y24607
X9921Y20040
X9921Y18701
X9921Y14134
X9921Y12796
X9921Y8229
X9921Y6890
X11820Y53150
X11820Y27559
X11820Y1181
X12264Y3720
X12264Y2972
X12578Y53150
X12578Y27559
X12578Y1181
X13533Y9380
X13839Y2972
T2
X-14024Y9518
X-13533Y9518
X-13039Y9508
X0Y4331
X11567Y10010
X11606Y45404
X12057Y10010
X12096Y45404
X12551Y10000
X12591Y45394
T3
X-13780Y53150
X-13780Y27559
X-13780Y1181
X13780Y53150
X13780Y27559
X13780Y1181
T0
M30
