%TF.GenerationSoftware,KiCad,Pcbnew,(5.1.10)-1*%
%TF.CreationDate,2021-12-10T15:36:21-05:00*%
%TF.ProjectId,backplane,6261636b-706c-4616-9e65-2e6b69636164,rev?*%
%TF.SameCoordinates,Original*%
%TF.FileFunction,Soldermask,Top*%
%TF.FilePolarity,Negative*%
%FSLAX46Y46*%
G04 Gerber Fmt 4.6, Leading zero omitted, Abs format (unit mm)*
G04 Created by KiCad (PCBNEW (5.1.10)-1) date 2021-12-10 15:36:21*
%MOMM*%
%LPD*%
G01*
G04 APERTURE LIST*
%ADD10R,0.450000X0.700000*%
%ADD11C,4.500000*%
%ADD12C,1.000000*%
%ADD13C,1.500000*%
%ADD14R,0.500000X1.200000*%
%ADD15C,1.270000*%
%ADD16C,0.900000*%
%ADD17R,1.600000X2.000000*%
%ADD18R,0.800000X1.800000*%
%ADD19R,0.800000X1.900000*%
%ADD20R,1.800000X2.600000*%
%ADD21C,1.900000*%
%ADD22R,0.900000X0.850000*%
%ADD23R,2.450000X2.450000*%
G04 APERTURE END LIST*
%TO.C,R609*%
G36*
G01*
X-3106000Y134253000D02*
X-2736000Y134253000D01*
G75*
G02*
X-2601000Y134118000I0J-135000D01*
G01*
X-2601000Y133848000D01*
G75*
G02*
X-2736000Y133713000I-135000J0D01*
G01*
X-3106000Y133713000D01*
G75*
G02*
X-3241000Y133848000I0J135000D01*
G01*
X-3241000Y134118000D01*
G75*
G02*
X-3106000Y134253000I135000J0D01*
G01*
G37*
G36*
G01*
X-3106000Y135273000D02*
X-2736000Y135273000D01*
G75*
G02*
X-2601000Y135138000I0J-135000D01*
G01*
X-2601000Y134868000D01*
G75*
G02*
X-2736000Y134733000I-135000J0D01*
G01*
X-3106000Y134733000D01*
G75*
G02*
X-3241000Y134868000I0J135000D01*
G01*
X-3241000Y135138000D01*
G75*
G02*
X-3106000Y135273000I135000J0D01*
G01*
G37*
%TD*%
%TO.C,R608*%
G36*
G01*
X-3923000Y136583000D02*
X-3923000Y136213000D01*
G75*
G02*
X-4058000Y136078000I-135000J0D01*
G01*
X-4328000Y136078000D01*
G75*
G02*
X-4463000Y136213000I0J135000D01*
G01*
X-4463000Y136583000D01*
G75*
G02*
X-4328000Y136718000I135000J0D01*
G01*
X-4058000Y136718000D01*
G75*
G02*
X-3923000Y136583000I0J-135000D01*
G01*
G37*
G36*
G01*
X-2903000Y136583000D02*
X-2903000Y136213000D01*
G75*
G02*
X-3038000Y136078000I-135000J0D01*
G01*
X-3308000Y136078000D01*
G75*
G02*
X-3443000Y136213000I0J135000D01*
G01*
X-3443000Y136583000D01*
G75*
G02*
X-3308000Y136718000I135000J0D01*
G01*
X-3038000Y136718000D01*
G75*
G02*
X-2903000Y136583000I0J-135000D01*
G01*
G37*
%TD*%
D10*
%TO.C,Q603*%
X-4699000Y133001000D03*
X-5349000Y135001000D03*
X-4049000Y135001000D03*
%TD*%
D11*
%TO.C,MH105*%
X35000000Y135000000D03*
%TD*%
%TO.C,MH104*%
X-35000000Y70000000D03*
%TD*%
%TO.C,MH103*%
X35000000Y70000000D03*
%TD*%
%TO.C,MH102*%
X35000000Y3000000D03*
%TD*%
%TO.C,MH101*%
X-35000000Y3000000D03*
%TD*%
%TO.C,MH100*%
X-35000000Y135000000D03*
%TD*%
D12*
%TO.C,J200_8*%
X-36930000Y123900000D03*
X-35530000Y126100000D03*
X-33130000Y123900000D03*
D13*
X-31230000Y126490000D03*
D12*
X-29330000Y123900000D03*
D14*
X-25200000Y123300000D03*
X-25200000Y126700000D03*
X-24400000Y123300000D03*
X-24400000Y126700000D03*
X-23600000Y123300000D03*
X-23600000Y126700000D03*
X-22800000Y123300000D03*
X-22800000Y126700000D03*
X-22000000Y123300000D03*
X-22000000Y126700000D03*
X-21200000Y123300000D03*
X-21200000Y126700000D03*
X-20400000Y123300000D03*
X-20400000Y126700000D03*
X-19600000Y123300000D03*
X-19600000Y126700000D03*
X-18800000Y123300000D03*
X-18800000Y126700000D03*
X-18000000Y123300000D03*
X-18000000Y126700000D03*
X-17200000Y123300000D03*
X-17200000Y126700000D03*
X-16400000Y123300000D03*
X-16400000Y126700000D03*
X-15600000Y123300000D03*
X-15600000Y126700000D03*
X-14800000Y123300000D03*
X-14800000Y126700000D03*
X-14000000Y123300000D03*
X-14000000Y126700000D03*
X-13200000Y123300000D03*
X-13200000Y126700000D03*
X-12400000Y123300000D03*
X-12400000Y126700000D03*
X-11600000Y123300000D03*
X-11600000Y126700000D03*
X-10800000Y123300000D03*
X-10800000Y126700000D03*
X-10000000Y123300000D03*
X-10000000Y126700000D03*
X-9200000Y123300000D03*
X-9200000Y126700000D03*
X-8400000Y123300000D03*
X-8400000Y126700000D03*
X-7600000Y123300000D03*
X-7600000Y126700000D03*
X-6800000Y123300000D03*
X-6800000Y126700000D03*
X-6000000Y123300000D03*
X-6000000Y126700000D03*
X-5200000Y123300000D03*
X-5200000Y126700000D03*
X-4400000Y123300000D03*
X-4400000Y126700000D03*
X-3600000Y123300000D03*
X-3600000Y126700000D03*
X-2800000Y123300000D03*
X-2800000Y126700000D03*
X-2000000Y123300000D03*
X-2000000Y126700000D03*
X-1200000Y123300000D03*
X-1200000Y126700000D03*
X-400000Y123300000D03*
X-400000Y126700000D03*
X3600000Y123300000D03*
X3600000Y126700000D03*
X4400000Y123300000D03*
X4400000Y126700000D03*
X5200000Y123300000D03*
X5200000Y126700000D03*
X6000000Y123300000D03*
X6000000Y126700000D03*
X6800000Y123300000D03*
X6800000Y126700000D03*
X7600000Y123300000D03*
X7600000Y126700000D03*
X8400000Y123300000D03*
X8400000Y126700000D03*
X9200000Y123300000D03*
X9200000Y126700000D03*
X10000000Y123300000D03*
X10000000Y126700000D03*
X10800000Y123300000D03*
X10800000Y126700000D03*
X11600000Y123300000D03*
X11600000Y126700000D03*
X12400000Y123300000D03*
X12400000Y126700000D03*
X13200000Y123300000D03*
X13200000Y126700000D03*
X14000000Y123300000D03*
X14000000Y126700000D03*
X14800000Y123300000D03*
X14800000Y126700000D03*
X15600000Y123300000D03*
X15600000Y126700000D03*
X16400000Y123300000D03*
X16400000Y126700000D03*
X17200000Y123300000D03*
X17200000Y126700000D03*
X18000000Y123300000D03*
X18000000Y126700000D03*
X18800000Y123300000D03*
X18800000Y126700000D03*
X19600000Y123300000D03*
X19600000Y126700000D03*
X20400000Y123300000D03*
X20400000Y126700000D03*
X21200000Y123300000D03*
X21200000Y126700000D03*
X22000000Y123300000D03*
X22000000Y126700000D03*
X22800000Y123300000D03*
X22800000Y126700000D03*
X23600000Y123300000D03*
X23600000Y126700000D03*
X24400000Y123300000D03*
X24400000Y126700000D03*
X25200000Y123300000D03*
X25200000Y126700000D03*
D15*
X-26700000Y123500000D03*
X26700000Y125000000D03*
%TD*%
D12*
%TO.C,J200_7*%
X-36930000Y108900000D03*
X-35530000Y111100000D03*
X-33130000Y108900000D03*
D13*
X-31230000Y111490000D03*
D12*
X-29330000Y108900000D03*
D14*
X-25200000Y108300000D03*
X-25200000Y111700000D03*
X-24400000Y108300000D03*
X-24400000Y111700000D03*
X-23600000Y108300000D03*
X-23600000Y111700000D03*
X-22800000Y108300000D03*
X-22800000Y111700000D03*
X-22000000Y108300000D03*
X-22000000Y111700000D03*
X-21200000Y108300000D03*
X-21200000Y111700000D03*
X-20400000Y108300000D03*
X-20400000Y111700000D03*
X-19600000Y108300000D03*
X-19600000Y111700000D03*
X-18800000Y108300000D03*
X-18800000Y111700000D03*
X-18000000Y108300000D03*
X-18000000Y111700000D03*
X-17200000Y108300000D03*
X-17200000Y111700000D03*
X-16400000Y108300000D03*
X-16400000Y111700000D03*
X-15600000Y108300000D03*
X-15600000Y111700000D03*
X-14800000Y108300000D03*
X-14800000Y111700000D03*
X-14000000Y108300000D03*
X-14000000Y111700000D03*
X-13200000Y108300000D03*
X-13200000Y111700000D03*
X-12400000Y108300000D03*
X-12400000Y111700000D03*
X-11600000Y108300000D03*
X-11600000Y111700000D03*
X-10800000Y108300000D03*
X-10800000Y111700000D03*
X-10000000Y108300000D03*
X-10000000Y111700000D03*
X-9200000Y108300000D03*
X-9200000Y111700000D03*
X-8400000Y108300000D03*
X-8400000Y111700000D03*
X-7600000Y108300000D03*
X-7600000Y111700000D03*
X-6800000Y108300000D03*
X-6800000Y111700000D03*
X-6000000Y108300000D03*
X-6000000Y111700000D03*
X-5200000Y108300000D03*
X-5200000Y111700000D03*
X-4400000Y108300000D03*
X-4400000Y111700000D03*
X-3600000Y108300000D03*
X-3600000Y111700000D03*
X-2800000Y108300000D03*
X-2800000Y111700000D03*
X-2000000Y108300000D03*
X-2000000Y111700000D03*
X-1200000Y108300000D03*
X-1200000Y111700000D03*
X-400000Y108300000D03*
X-400000Y111700000D03*
X3600000Y108300000D03*
X3600000Y111700000D03*
X4400000Y108300000D03*
X4400000Y111700000D03*
X5200000Y108300000D03*
X5200000Y111700000D03*
X6000000Y108300000D03*
X6000000Y111700000D03*
X6800000Y108300000D03*
X6800000Y111700000D03*
X7600000Y108300000D03*
X7600000Y111700000D03*
X8400000Y108300000D03*
X8400000Y111700000D03*
X9200000Y108300000D03*
X9200000Y111700000D03*
X10000000Y108300000D03*
X10000000Y111700000D03*
X10800000Y108300000D03*
X10800000Y111700000D03*
X11600000Y108300000D03*
X11600000Y111700000D03*
X12400000Y108300000D03*
X12400000Y111700000D03*
X13200000Y108300000D03*
X13200000Y111700000D03*
X14000000Y108300000D03*
X14000000Y111700000D03*
X14800000Y108300000D03*
X14800000Y111700000D03*
X15600000Y108300000D03*
X15600000Y111700000D03*
X16400000Y108300000D03*
X16400000Y111700000D03*
X17200000Y108300000D03*
X17200000Y111700000D03*
X18000000Y108300000D03*
X18000000Y111700000D03*
X18800000Y108300000D03*
X18800000Y111700000D03*
X19600000Y108300000D03*
X19600000Y111700000D03*
X20400000Y108300000D03*
X20400000Y111700000D03*
X21200000Y108300000D03*
X21200000Y111700000D03*
X22000000Y108300000D03*
X22000000Y111700000D03*
X22800000Y108300000D03*
X22800000Y111700000D03*
X23600000Y108300000D03*
X23600000Y111700000D03*
X24400000Y108300000D03*
X24400000Y111700000D03*
X25200000Y108300000D03*
X25200000Y111700000D03*
D15*
X-26700000Y108500000D03*
X26700000Y110000000D03*
%TD*%
D12*
%TO.C,J200_6*%
X-36930000Y93900000D03*
X-35530000Y96100000D03*
X-33130000Y93900000D03*
D13*
X-31230000Y96490000D03*
D12*
X-29330000Y93900000D03*
D14*
X-25200000Y93300000D03*
X-25200000Y96700000D03*
X-24400000Y93300000D03*
X-24400000Y96700000D03*
X-23600000Y93300000D03*
X-23600000Y96700000D03*
X-22800000Y93300000D03*
X-22800000Y96700000D03*
X-22000000Y93300000D03*
X-22000000Y96700000D03*
X-21200000Y93300000D03*
X-21200000Y96700000D03*
X-20400000Y93300000D03*
X-20400000Y96700000D03*
X-19600000Y93300000D03*
X-19600000Y96700000D03*
X-18800000Y93300000D03*
X-18800000Y96700000D03*
X-18000000Y93300000D03*
X-18000000Y96700000D03*
X-17200000Y93300000D03*
X-17200000Y96700000D03*
X-16400000Y93300000D03*
X-16400000Y96700000D03*
X-15600000Y93300000D03*
X-15600000Y96700000D03*
X-14800000Y93300000D03*
X-14800000Y96700000D03*
X-14000000Y93300000D03*
X-14000000Y96700000D03*
X-13200000Y93300000D03*
X-13200000Y96700000D03*
X-12400000Y93300000D03*
X-12400000Y96700000D03*
X-11600000Y93300000D03*
X-11600000Y96700000D03*
X-10800000Y93300000D03*
X-10800000Y96700000D03*
X-10000000Y93300000D03*
X-10000000Y96700000D03*
X-9200000Y93300000D03*
X-9200000Y96700000D03*
X-8400000Y93300000D03*
X-8400000Y96700000D03*
X-7600000Y93300000D03*
X-7600000Y96700000D03*
X-6800000Y93300000D03*
X-6800000Y96700000D03*
X-6000000Y93300000D03*
X-6000000Y96700000D03*
X-5200000Y93300000D03*
X-5200000Y96700000D03*
X-4400000Y93300000D03*
X-4400000Y96700000D03*
X-3600000Y93300000D03*
X-3600000Y96700000D03*
X-2800000Y93300000D03*
X-2800000Y96700000D03*
X-2000000Y93300000D03*
X-2000000Y96700000D03*
X-1200000Y93300000D03*
X-1200000Y96700000D03*
X-400000Y93300000D03*
X-400000Y96700000D03*
X3600000Y93300000D03*
X3600000Y96700000D03*
X4400000Y93300000D03*
X4400000Y96700000D03*
X5200000Y93300000D03*
X5200000Y96700000D03*
X6000000Y93300000D03*
X6000000Y96700000D03*
X6800000Y93300000D03*
X6800000Y96700000D03*
X7600000Y93300000D03*
X7600000Y96700000D03*
X8400000Y93300000D03*
X8400000Y96700000D03*
X9200000Y93300000D03*
X9200000Y96700000D03*
X10000000Y93300000D03*
X10000000Y96700000D03*
X10800000Y93300000D03*
X10800000Y96700000D03*
X11600000Y93300000D03*
X11600000Y96700000D03*
X12400000Y93300000D03*
X12400000Y96700000D03*
X13200000Y93300000D03*
X13200000Y96700000D03*
X14000000Y93300000D03*
X14000000Y96700000D03*
X14800000Y93300000D03*
X14800000Y96700000D03*
X15600000Y93300000D03*
X15600000Y96700000D03*
X16400000Y93300000D03*
X16400000Y96700000D03*
X17200000Y93300000D03*
X17200000Y96700000D03*
X18000000Y93300000D03*
X18000000Y96700000D03*
X18800000Y93300000D03*
X18800000Y96700000D03*
X19600000Y93300000D03*
X19600000Y96700000D03*
X20400000Y93300000D03*
X20400000Y96700000D03*
X21200000Y93300000D03*
X21200000Y96700000D03*
X22000000Y93300000D03*
X22000000Y96700000D03*
X22800000Y93300000D03*
X22800000Y96700000D03*
X23600000Y93300000D03*
X23600000Y96700000D03*
X24400000Y93300000D03*
X24400000Y96700000D03*
X25200000Y93300000D03*
X25200000Y96700000D03*
D15*
X-26700000Y93500000D03*
X26700000Y95000000D03*
%TD*%
D12*
%TO.C,J200_5*%
X-36930000Y78900000D03*
X-35530000Y81100000D03*
X-33130000Y78900000D03*
D13*
X-31230000Y81490000D03*
D12*
X-29330000Y78900000D03*
D14*
X-25200000Y78300000D03*
X-25200000Y81700000D03*
X-24400000Y78300000D03*
X-24400000Y81700000D03*
X-23600000Y78300000D03*
X-23600000Y81700000D03*
X-22800000Y78300000D03*
X-22800000Y81700000D03*
X-22000000Y78300000D03*
X-22000000Y81700000D03*
X-21200000Y78300000D03*
X-21200000Y81700000D03*
X-20400000Y78300000D03*
X-20400000Y81700000D03*
X-19600000Y78300000D03*
X-19600000Y81700000D03*
X-18800000Y78300000D03*
X-18800000Y81700000D03*
X-18000000Y78300000D03*
X-18000000Y81700000D03*
X-17200000Y78300000D03*
X-17200000Y81700000D03*
X-16400000Y78300000D03*
X-16400000Y81700000D03*
X-15600000Y78300000D03*
X-15600000Y81700000D03*
X-14800000Y78300000D03*
X-14800000Y81700000D03*
X-14000000Y78300000D03*
X-14000000Y81700000D03*
X-13200000Y78300000D03*
X-13200000Y81700000D03*
X-12400000Y78300000D03*
X-12400000Y81700000D03*
X-11600000Y78300000D03*
X-11600000Y81700000D03*
X-10800000Y78300000D03*
X-10800000Y81700000D03*
X-10000000Y78300000D03*
X-10000000Y81700000D03*
X-9200000Y78300000D03*
X-9200000Y81700000D03*
X-8400000Y78300000D03*
X-8400000Y81700000D03*
X-7600000Y78300000D03*
X-7600000Y81700000D03*
X-6800000Y78300000D03*
X-6800000Y81700000D03*
X-6000000Y78300000D03*
X-6000000Y81700000D03*
X-5200000Y78300000D03*
X-5200000Y81700000D03*
X-4400000Y78300000D03*
X-4400000Y81700000D03*
X-3600000Y78300000D03*
X-3600000Y81700000D03*
X-2800000Y78300000D03*
X-2800000Y81700000D03*
X-2000000Y78300000D03*
X-2000000Y81700000D03*
X-1200000Y78300000D03*
X-1200000Y81700000D03*
X-400000Y78300000D03*
X-400000Y81700000D03*
X3600000Y78300000D03*
X3600000Y81700000D03*
X4400000Y78300000D03*
X4400000Y81700000D03*
X5200000Y78300000D03*
X5200000Y81700000D03*
X6000000Y78300000D03*
X6000000Y81700000D03*
X6800000Y78300000D03*
X6800000Y81700000D03*
X7600000Y78300000D03*
X7600000Y81700000D03*
X8400000Y78300000D03*
X8400000Y81700000D03*
X9200000Y78300000D03*
X9200000Y81700000D03*
X10000000Y78300000D03*
X10000000Y81700000D03*
X10800000Y78300000D03*
X10800000Y81700000D03*
X11600000Y78300000D03*
X11600000Y81700000D03*
X12400000Y78300000D03*
X12400000Y81700000D03*
X13200000Y78300000D03*
X13200000Y81700000D03*
X14000000Y78300000D03*
X14000000Y81700000D03*
X14800000Y78300000D03*
X14800000Y81700000D03*
X15600000Y78300000D03*
X15600000Y81700000D03*
X16400000Y78300000D03*
X16400000Y81700000D03*
X17200000Y78300000D03*
X17200000Y81700000D03*
X18000000Y78300000D03*
X18000000Y81700000D03*
X18800000Y78300000D03*
X18800000Y81700000D03*
X19600000Y78300000D03*
X19600000Y81700000D03*
X20400000Y78300000D03*
X20400000Y81700000D03*
X21200000Y78300000D03*
X21200000Y81700000D03*
X22000000Y78300000D03*
X22000000Y81700000D03*
X22800000Y78300000D03*
X22800000Y81700000D03*
X23600000Y78300000D03*
X23600000Y81700000D03*
X24400000Y78300000D03*
X24400000Y81700000D03*
X25200000Y78300000D03*
X25200000Y81700000D03*
D15*
X-26700000Y78500000D03*
X26700000Y80000000D03*
%TD*%
D12*
%TO.C,J200_4*%
X-36930000Y63900000D03*
X-35530000Y66100000D03*
X-33130000Y63900000D03*
D13*
X-31230000Y66490000D03*
D12*
X-29330000Y63900000D03*
D14*
X-25200000Y63300000D03*
X-25200000Y66700000D03*
X-24400000Y63300000D03*
X-24400000Y66700000D03*
X-23600000Y63300000D03*
X-23600000Y66700000D03*
X-22800000Y63300000D03*
X-22800000Y66700000D03*
X-22000000Y63300000D03*
X-22000000Y66700000D03*
X-21200000Y63300000D03*
X-21200000Y66700000D03*
X-20400000Y63300000D03*
X-20400000Y66700000D03*
X-19600000Y63300000D03*
X-19600000Y66700000D03*
X-18800000Y63300000D03*
X-18800000Y66700000D03*
X-18000000Y63300000D03*
X-18000000Y66700000D03*
X-17200000Y63300000D03*
X-17200000Y66700000D03*
X-16400000Y63300000D03*
X-16400000Y66700000D03*
X-15600000Y63300000D03*
X-15600000Y66700000D03*
X-14800000Y63300000D03*
X-14800000Y66700000D03*
X-14000000Y63300000D03*
X-14000000Y66700000D03*
X-13200000Y63300000D03*
X-13200000Y66700000D03*
X-12400000Y63300000D03*
X-12400000Y66700000D03*
X-11600000Y63300000D03*
X-11600000Y66700000D03*
X-10800000Y63300000D03*
X-10800000Y66700000D03*
X-10000000Y63300000D03*
X-10000000Y66700000D03*
X-9200000Y63300000D03*
X-9200000Y66700000D03*
X-8400000Y63300000D03*
X-8400000Y66700000D03*
X-7600000Y63300000D03*
X-7600000Y66700000D03*
X-6800000Y63300000D03*
X-6800000Y66700000D03*
X-6000000Y63300000D03*
X-6000000Y66700000D03*
X-5200000Y63300000D03*
X-5200000Y66700000D03*
X-4400000Y63300000D03*
X-4400000Y66700000D03*
X-3600000Y63300000D03*
X-3600000Y66700000D03*
X-2800000Y63300000D03*
X-2800000Y66700000D03*
X-2000000Y63300000D03*
X-2000000Y66700000D03*
X-1200000Y63300000D03*
X-1200000Y66700000D03*
X-400000Y63300000D03*
X-400000Y66700000D03*
X3600000Y63300000D03*
X3600000Y66700000D03*
X4400000Y63300000D03*
X4400000Y66700000D03*
X5200000Y63300000D03*
X5200000Y66700000D03*
X6000000Y63300000D03*
X6000000Y66700000D03*
X6800000Y63300000D03*
X6800000Y66700000D03*
X7600000Y63300000D03*
X7600000Y66700000D03*
X8400000Y63300000D03*
X8400000Y66700000D03*
X9200000Y63300000D03*
X9200000Y66700000D03*
X10000000Y63300000D03*
X10000000Y66700000D03*
X10800000Y63300000D03*
X10800000Y66700000D03*
X11600000Y63300000D03*
X11600000Y66700000D03*
X12400000Y63300000D03*
X12400000Y66700000D03*
X13200000Y63300000D03*
X13200000Y66700000D03*
X14000000Y63300000D03*
X14000000Y66700000D03*
X14800000Y63300000D03*
X14800000Y66700000D03*
X15600000Y63300000D03*
X15600000Y66700000D03*
X16400000Y63300000D03*
X16400000Y66700000D03*
X17200000Y63300000D03*
X17200000Y66700000D03*
X18000000Y63300000D03*
X18000000Y66700000D03*
X18800000Y63300000D03*
X18800000Y66700000D03*
X19600000Y63300000D03*
X19600000Y66700000D03*
X20400000Y63300000D03*
X20400000Y66700000D03*
X21200000Y63300000D03*
X21200000Y66700000D03*
X22000000Y63300000D03*
X22000000Y66700000D03*
X22800000Y63300000D03*
X22800000Y66700000D03*
X23600000Y63300000D03*
X23600000Y66700000D03*
X24400000Y63300000D03*
X24400000Y66700000D03*
X25200000Y63300000D03*
X25200000Y66700000D03*
D15*
X-26700000Y63500000D03*
X26700000Y65000000D03*
%TD*%
D12*
%TO.C,J200_3*%
X-36930000Y48900000D03*
X-35530000Y51100000D03*
X-33130000Y48900000D03*
D13*
X-31230000Y51490000D03*
D12*
X-29330000Y48900000D03*
D14*
X-25200000Y48300000D03*
X-25200000Y51700000D03*
X-24400000Y48300000D03*
X-24400000Y51700000D03*
X-23600000Y48300000D03*
X-23600000Y51700000D03*
X-22800000Y48300000D03*
X-22800000Y51700000D03*
X-22000000Y48300000D03*
X-22000000Y51700000D03*
X-21200000Y48300000D03*
X-21200000Y51700000D03*
X-20400000Y48300000D03*
X-20400000Y51700000D03*
X-19600000Y48300000D03*
X-19600000Y51700000D03*
X-18800000Y48300000D03*
X-18800000Y51700000D03*
X-18000000Y48300000D03*
X-18000000Y51700000D03*
X-17200000Y48300000D03*
X-17200000Y51700000D03*
X-16400000Y48300000D03*
X-16400000Y51700000D03*
X-15600000Y48300000D03*
X-15600000Y51700000D03*
X-14800000Y48300000D03*
X-14800000Y51700000D03*
X-14000000Y48300000D03*
X-14000000Y51700000D03*
X-13200000Y48300000D03*
X-13200000Y51700000D03*
X-12400000Y48300000D03*
X-12400000Y51700000D03*
X-11600000Y48300000D03*
X-11600000Y51700000D03*
X-10800000Y48300000D03*
X-10800000Y51700000D03*
X-10000000Y48300000D03*
X-10000000Y51700000D03*
X-9200000Y48300000D03*
X-9200000Y51700000D03*
X-8400000Y48300000D03*
X-8400000Y51700000D03*
X-7600000Y48300000D03*
X-7600000Y51700000D03*
X-6800000Y48300000D03*
X-6800000Y51700000D03*
X-6000000Y48300000D03*
X-6000000Y51700000D03*
X-5200000Y48300000D03*
X-5200000Y51700000D03*
X-4400000Y48300000D03*
X-4400000Y51700000D03*
X-3600000Y48300000D03*
X-3600000Y51700000D03*
X-2800000Y48300000D03*
X-2800000Y51700000D03*
X-2000000Y48300000D03*
X-2000000Y51700000D03*
X-1200000Y48300000D03*
X-1200000Y51700000D03*
X-400000Y48300000D03*
X-400000Y51700000D03*
X3600000Y48300000D03*
X3600000Y51700000D03*
X4400000Y48300000D03*
X4400000Y51700000D03*
X5200000Y48300000D03*
X5200000Y51700000D03*
X6000000Y48300000D03*
X6000000Y51700000D03*
X6800000Y48300000D03*
X6800000Y51700000D03*
X7600000Y48300000D03*
X7600000Y51700000D03*
X8400000Y48300000D03*
X8400000Y51700000D03*
X9200000Y48300000D03*
X9200000Y51700000D03*
X10000000Y48300000D03*
X10000000Y51700000D03*
X10800000Y48300000D03*
X10800000Y51700000D03*
X11600000Y48300000D03*
X11600000Y51700000D03*
X12400000Y48300000D03*
X12400000Y51700000D03*
X13200000Y48300000D03*
X13200000Y51700000D03*
X14000000Y48300000D03*
X14000000Y51700000D03*
X14800000Y48300000D03*
X14800000Y51700000D03*
X15600000Y48300000D03*
X15600000Y51700000D03*
X16400000Y48300000D03*
X16400000Y51700000D03*
X17200000Y48300000D03*
X17200000Y51700000D03*
X18000000Y48300000D03*
X18000000Y51700000D03*
X18800000Y48300000D03*
X18800000Y51700000D03*
X19600000Y48300000D03*
X19600000Y51700000D03*
X20400000Y48300000D03*
X20400000Y51700000D03*
X21200000Y48300000D03*
X21200000Y51700000D03*
X22000000Y48300000D03*
X22000000Y51700000D03*
X22800000Y48300000D03*
X22800000Y51700000D03*
X23600000Y48300000D03*
X23600000Y51700000D03*
X24400000Y48300000D03*
X24400000Y51700000D03*
X25200000Y48300000D03*
X25200000Y51700000D03*
D15*
X-26700000Y48500000D03*
X26700000Y50000000D03*
%TD*%
D12*
%TO.C,J200_2*%
X-36930000Y33900000D03*
X-35530000Y36100000D03*
X-33130000Y33900000D03*
D13*
X-31230000Y36490000D03*
D12*
X-29330000Y33900000D03*
D14*
X-25200000Y33300000D03*
X-25200000Y36700000D03*
X-24400000Y33300000D03*
X-24400000Y36700000D03*
X-23600000Y33300000D03*
X-23600000Y36700000D03*
X-22800000Y33300000D03*
X-22800000Y36700000D03*
X-22000000Y33300000D03*
X-22000000Y36700000D03*
X-21200000Y33300000D03*
X-21200000Y36700000D03*
X-20400000Y33300000D03*
X-20400000Y36700000D03*
X-19600000Y33300000D03*
X-19600000Y36700000D03*
X-18800000Y33300000D03*
X-18800000Y36700000D03*
X-18000000Y33300000D03*
X-18000000Y36700000D03*
X-17200000Y33300000D03*
X-17200000Y36700000D03*
X-16400000Y33300000D03*
X-16400000Y36700000D03*
X-15600000Y33300000D03*
X-15600000Y36700000D03*
X-14800000Y33300000D03*
X-14800000Y36700000D03*
X-14000000Y33300000D03*
X-14000000Y36700000D03*
X-13200000Y33300000D03*
X-13200000Y36700000D03*
X-12400000Y33300000D03*
X-12400000Y36700000D03*
X-11600000Y33300000D03*
X-11600000Y36700000D03*
X-10800000Y33300000D03*
X-10800000Y36700000D03*
X-10000000Y33300000D03*
X-10000000Y36700000D03*
X-9200000Y33300000D03*
X-9200000Y36700000D03*
X-8400000Y33300000D03*
X-8400000Y36700000D03*
X-7600000Y33300000D03*
X-7600000Y36700000D03*
X-6800000Y33300000D03*
X-6800000Y36700000D03*
X-6000000Y33300000D03*
X-6000000Y36700000D03*
X-5200000Y33300000D03*
X-5200000Y36700000D03*
X-4400000Y33300000D03*
X-4400000Y36700000D03*
X-3600000Y33300000D03*
X-3600000Y36700000D03*
X-2800000Y33300000D03*
X-2800000Y36700000D03*
X-2000000Y33300000D03*
X-2000000Y36700000D03*
X-1200000Y33300000D03*
X-1200000Y36700000D03*
X-400000Y33300000D03*
X-400000Y36700000D03*
X3600000Y33300000D03*
X3600000Y36700000D03*
X4400000Y33300000D03*
X4400000Y36700000D03*
X5200000Y33300000D03*
X5200000Y36700000D03*
X6000000Y33300000D03*
X6000000Y36700000D03*
X6800000Y33300000D03*
X6800000Y36700000D03*
X7600000Y33300000D03*
X7600000Y36700000D03*
X8400000Y33300000D03*
X8400000Y36700000D03*
X9200000Y33300000D03*
X9200000Y36700000D03*
X10000000Y33300000D03*
X10000000Y36700000D03*
X10800000Y33300000D03*
X10800000Y36700000D03*
X11600000Y33300000D03*
X11600000Y36700000D03*
X12400000Y33300000D03*
X12400000Y36700000D03*
X13200000Y33300000D03*
X13200000Y36700000D03*
X14000000Y33300000D03*
X14000000Y36700000D03*
X14800000Y33300000D03*
X14800000Y36700000D03*
X15600000Y33300000D03*
X15600000Y36700000D03*
X16400000Y33300000D03*
X16400000Y36700000D03*
X17200000Y33300000D03*
X17200000Y36700000D03*
X18000000Y33300000D03*
X18000000Y36700000D03*
X18800000Y33300000D03*
X18800000Y36700000D03*
X19600000Y33300000D03*
X19600000Y36700000D03*
X20400000Y33300000D03*
X20400000Y36700000D03*
X21200000Y33300000D03*
X21200000Y36700000D03*
X22000000Y33300000D03*
X22000000Y36700000D03*
X22800000Y33300000D03*
X22800000Y36700000D03*
X23600000Y33300000D03*
X23600000Y36700000D03*
X24400000Y33300000D03*
X24400000Y36700000D03*
X25200000Y33300000D03*
X25200000Y36700000D03*
D15*
X-26700000Y33500000D03*
X26700000Y35000000D03*
%TD*%
D12*
%TO.C,J200_1*%
X-36930000Y18900000D03*
X-35530000Y21100000D03*
X-33130000Y18900000D03*
D13*
X-31230000Y21490000D03*
D12*
X-29330000Y18900000D03*
D14*
X-25200000Y18300000D03*
X-25200000Y21700000D03*
X-24400000Y18300000D03*
X-24400000Y21700000D03*
X-23600000Y18300000D03*
X-23600000Y21700000D03*
X-22800000Y18300000D03*
X-22800000Y21700000D03*
X-22000000Y18300000D03*
X-22000000Y21700000D03*
X-21200000Y18300000D03*
X-21200000Y21700000D03*
X-20400000Y18300000D03*
X-20400000Y21700000D03*
X-19600000Y18300000D03*
X-19600000Y21700000D03*
X-18800000Y18300000D03*
X-18800000Y21700000D03*
X-18000000Y18300000D03*
X-18000000Y21700000D03*
X-17200000Y18300000D03*
X-17200000Y21700000D03*
X-16400000Y18300000D03*
X-16400000Y21700000D03*
X-15600000Y18300000D03*
X-15600000Y21700000D03*
X-14800000Y18300000D03*
X-14800000Y21700000D03*
X-14000000Y18300000D03*
X-14000000Y21700000D03*
X-13200000Y18300000D03*
X-13200000Y21700000D03*
X-12400000Y18300000D03*
X-12400000Y21700000D03*
X-11600000Y18300000D03*
X-11600000Y21700000D03*
X-10800000Y18300000D03*
X-10800000Y21700000D03*
X-10000000Y18300000D03*
X-10000000Y21700000D03*
X-9200000Y18300000D03*
X-9200000Y21700000D03*
X-8400000Y18300000D03*
X-8400000Y21700000D03*
X-7600000Y18300000D03*
X-7600000Y21700000D03*
X-6800000Y18300000D03*
X-6800000Y21700000D03*
X-6000000Y18300000D03*
X-6000000Y21700000D03*
X-5200000Y18300000D03*
X-5200000Y21700000D03*
X-4400000Y18300000D03*
X-4400000Y21700000D03*
X-3600000Y18300000D03*
X-3600000Y21700000D03*
X-2800000Y18300000D03*
X-2800000Y21700000D03*
X-2000000Y18300000D03*
X-2000000Y21700000D03*
X-1200000Y18300000D03*
X-1200000Y21700000D03*
X-400000Y18300000D03*
X-400000Y21700000D03*
X3600000Y18300000D03*
X3600000Y21700000D03*
X4400000Y18300000D03*
X4400000Y21700000D03*
X5200000Y18300000D03*
X5200000Y21700000D03*
X6000000Y18300000D03*
X6000000Y21700000D03*
X6800000Y18300000D03*
X6800000Y21700000D03*
X7600000Y18300000D03*
X7600000Y21700000D03*
X8400000Y18300000D03*
X8400000Y21700000D03*
X9200000Y18300000D03*
X9200000Y21700000D03*
X10000000Y18300000D03*
X10000000Y21700000D03*
X10800000Y18300000D03*
X10800000Y21700000D03*
X11600000Y18300000D03*
X11600000Y21700000D03*
X12400000Y18300000D03*
X12400000Y21700000D03*
X13200000Y18300000D03*
X13200000Y21700000D03*
X14000000Y18300000D03*
X14000000Y21700000D03*
X14800000Y18300000D03*
X14800000Y21700000D03*
X15600000Y18300000D03*
X15600000Y21700000D03*
X16400000Y18300000D03*
X16400000Y21700000D03*
X17200000Y18300000D03*
X17200000Y21700000D03*
X18000000Y18300000D03*
X18000000Y21700000D03*
X18800000Y18300000D03*
X18800000Y21700000D03*
X19600000Y18300000D03*
X19600000Y21700000D03*
X20400000Y18300000D03*
X20400000Y21700000D03*
X21200000Y18300000D03*
X21200000Y21700000D03*
X22000000Y18300000D03*
X22000000Y21700000D03*
X22800000Y18300000D03*
X22800000Y21700000D03*
X23600000Y18300000D03*
X23600000Y21700000D03*
X24400000Y18300000D03*
X24400000Y21700000D03*
X25200000Y18300000D03*
X25200000Y21700000D03*
D15*
X-26700000Y18500000D03*
X26700000Y20000000D03*
%TD*%
D16*
%TO.C,J301*%
X2250000Y6000000D03*
X18750000Y6000000D03*
%TD*%
%TO.C,J300*%
X-18750000Y6000000D03*
X-2250000Y6000000D03*
%TD*%
%TO.C,J107*%
X28300000Y30500000D03*
X36700000Y30500000D03*
D17*
X27025000Y29200000D03*
X37975000Y29200000D03*
D18*
X29375000Y26600000D03*
X30625000Y26600000D03*
X31875000Y26600000D03*
X33125000Y26600000D03*
X34375000Y26600000D03*
G36*
G01*
X36025000Y27300000D02*
X36025000Y25900000D01*
G75*
G02*
X35825000Y25700000I-200000J0D01*
G01*
X35425000Y25700000D01*
G75*
G02*
X35225000Y25900000I0J200000D01*
G01*
X35225000Y27300000D01*
G75*
G02*
X35425000Y27500000I200000J0D01*
G01*
X35825000Y27500000D01*
G75*
G02*
X36025000Y27300000I0J-200000D01*
G01*
G37*
%TD*%
D16*
%TO.C,J106*%
X28400000Y120400000D03*
X36800000Y120400000D03*
D17*
X27125000Y119100000D03*
X38075000Y119100000D03*
D18*
X29475000Y116500000D03*
X30725000Y116500000D03*
X31975000Y116500000D03*
X33225000Y116500000D03*
X34475000Y116500000D03*
G36*
G01*
X36125000Y117200000D02*
X36125000Y115800000D01*
G75*
G02*
X35925000Y115600000I-200000J0D01*
G01*
X35525000Y115600000D01*
G75*
G02*
X35325000Y115800000I0J200000D01*
G01*
X35325000Y117200000D01*
G75*
G02*
X35525000Y117400000I200000J0D01*
G01*
X35925000Y117400000D01*
G75*
G02*
X36125000Y117200000I0J-200000D01*
G01*
G37*
%TD*%
D16*
%TO.C,J105*%
X-36700000Y29250000D03*
X-28300000Y29250000D03*
D17*
X-37975000Y27950000D03*
X-27025000Y27950000D03*
D18*
X-35625000Y25350000D03*
X-34375000Y25350000D03*
X-33125000Y25350000D03*
X-31875000Y25350000D03*
X-30625000Y25350000D03*
G36*
G01*
X-28975000Y26050000D02*
X-28975000Y24650000D01*
G75*
G02*
X-29175000Y24450000I-200000J0D01*
G01*
X-29575000Y24450000D01*
G75*
G02*
X-29775000Y24650000I0J200000D01*
G01*
X-29775000Y26050000D01*
G75*
G02*
X-29575000Y26250000I200000J0D01*
G01*
X-29175000Y26250000D01*
G75*
G02*
X-28975000Y26050000I0J-200000D01*
G01*
G37*
%TD*%
D19*
%TO.C,J100*%
X8750000Y12900000D03*
X7500000Y12900000D03*
X6250000Y12900000D03*
X5000000Y12900000D03*
X3750000Y12900000D03*
X2500000Y12900000D03*
X1250000Y12900000D03*
X0Y12900000D03*
X-1250000Y12900000D03*
D16*
X9800000Y11500000D03*
X-9800000Y11500000D03*
D20*
X11100000Y9600000D03*
X-11100000Y9600000D03*
D19*
X-2500000Y12900000D03*
X-3750000Y12900000D03*
X-5000000Y12900000D03*
X-6250000Y12900000D03*
X-7500000Y12900000D03*
G36*
G01*
X-9150000Y12150000D02*
X-9150000Y13650000D01*
G75*
G02*
X-8950000Y13850000I200000J0D01*
G01*
X-8550000Y13850000D01*
G75*
G02*
X-8350000Y13650000I0J-200000D01*
G01*
X-8350000Y12150000D01*
G75*
G02*
X-8550000Y11950000I-200000J0D01*
G01*
X-8950000Y11950000D01*
G75*
G02*
X-9150000Y12150000I0J200000D01*
G01*
G37*
%TD*%
D21*
%TO.C,D600_8*%
X-30230000Y121309000D03*
D22*
X-28580000Y120734000D03*
X-28580000Y121884000D03*
X-31880000Y120734000D03*
X-31880000Y121884000D03*
%TD*%
D21*
%TO.C,D600_7*%
X-30230000Y106309000D03*
D22*
X-28580000Y105734000D03*
X-28580000Y106884000D03*
X-31880000Y105734000D03*
X-31880000Y106884000D03*
%TD*%
D21*
%TO.C,D600_6*%
X-30230000Y91309000D03*
D22*
X-28580000Y90734000D03*
X-28580000Y91884000D03*
X-31880000Y90734000D03*
X-31880000Y91884000D03*
%TD*%
D21*
%TO.C,D600_5*%
X-30230000Y76310000D03*
D22*
X-28580000Y75735000D03*
X-28580000Y76885000D03*
X-31880000Y75735000D03*
X-31880000Y76885000D03*
%TD*%
D21*
%TO.C,D600_4*%
X-30230000Y61310000D03*
D22*
X-28580000Y60735000D03*
X-28580000Y61885000D03*
X-31880000Y60735000D03*
X-31880000Y61885000D03*
%TD*%
D21*
%TO.C,D600_3*%
X-30230000Y46310000D03*
D22*
X-28580000Y45735000D03*
X-28580000Y46885000D03*
X-31880000Y45735000D03*
X-31880000Y46885000D03*
%TD*%
D21*
%TO.C,D600_2*%
X-30230000Y31310000D03*
D22*
X-28580000Y30735000D03*
X-28580000Y31885000D03*
X-31880000Y30735000D03*
X-31880000Y31885000D03*
%TD*%
D21*
%TO.C,D600_1*%
X-30230000Y16310000D03*
D22*
X-28580000Y15735000D03*
X-28580000Y16885000D03*
X-31880000Y15735000D03*
X-31880000Y16885000D03*
%TD*%
D23*
%TO.C,U601*%
X-19304000Y132651500D03*
G36*
G01*
X-20679000Y134314000D02*
X-20679000Y134964000D01*
G75*
G02*
X-20616500Y135026500I62500J0D01*
G01*
X-20491500Y135026500D01*
G75*
G02*
X-20429000Y134964000I0J-62500D01*
G01*
X-20429000Y134314000D01*
G75*
G02*
X-20491500Y134251500I-62500J0D01*
G01*
X-20616500Y134251500D01*
G75*
G02*
X-20679000Y134314000I0J62500D01*
G01*
G37*
G36*
G01*
X-20179000Y134314000D02*
X-20179000Y134964000D01*
G75*
G02*
X-20116500Y135026500I62500J0D01*
G01*
X-19991500Y135026500D01*
G75*
G02*
X-19929000Y134964000I0J-62500D01*
G01*
X-19929000Y134314000D01*
G75*
G02*
X-19991500Y134251500I-62500J0D01*
G01*
X-20116500Y134251500D01*
G75*
G02*
X-20179000Y134314000I0J62500D01*
G01*
G37*
G36*
G01*
X-19679000Y134314000D02*
X-19679000Y134964000D01*
G75*
G02*
X-19616500Y135026500I62500J0D01*
G01*
X-19491500Y135026500D01*
G75*
G02*
X-19429000Y134964000I0J-62500D01*
G01*
X-19429000Y134314000D01*
G75*
G02*
X-19491500Y134251500I-62500J0D01*
G01*
X-19616500Y134251500D01*
G75*
G02*
X-19679000Y134314000I0J62500D01*
G01*
G37*
G36*
G01*
X-19179000Y134314000D02*
X-19179000Y134964000D01*
G75*
G02*
X-19116500Y135026500I62500J0D01*
G01*
X-18991500Y135026500D01*
G75*
G02*
X-18929000Y134964000I0J-62500D01*
G01*
X-18929000Y134314000D01*
G75*
G02*
X-18991500Y134251500I-62500J0D01*
G01*
X-19116500Y134251500D01*
G75*
G02*
X-19179000Y134314000I0J62500D01*
G01*
G37*
G36*
G01*
X-18679000Y134314000D02*
X-18679000Y134964000D01*
G75*
G02*
X-18616500Y135026500I62500J0D01*
G01*
X-18491500Y135026500D01*
G75*
G02*
X-18429000Y134964000I0J-62500D01*
G01*
X-18429000Y134314000D01*
G75*
G02*
X-18491500Y134251500I-62500J0D01*
G01*
X-18616500Y134251500D01*
G75*
G02*
X-18679000Y134314000I0J62500D01*
G01*
G37*
G36*
G01*
X-18179000Y134314000D02*
X-18179000Y134964000D01*
G75*
G02*
X-18116500Y135026500I62500J0D01*
G01*
X-17991500Y135026500D01*
G75*
G02*
X-17929000Y134964000I0J-62500D01*
G01*
X-17929000Y134314000D01*
G75*
G02*
X-17991500Y134251500I-62500J0D01*
G01*
X-18116500Y134251500D01*
G75*
G02*
X-18179000Y134314000I0J62500D01*
G01*
G37*
G36*
G01*
X-17704000Y133839000D02*
X-17704000Y133964000D01*
G75*
G02*
X-17641500Y134026500I62500J0D01*
G01*
X-16991500Y134026500D01*
G75*
G02*
X-16929000Y133964000I0J-62500D01*
G01*
X-16929000Y133839000D01*
G75*
G02*
X-16991500Y133776500I-62500J0D01*
G01*
X-17641500Y133776500D01*
G75*
G02*
X-17704000Y133839000I0J62500D01*
G01*
G37*
G36*
G01*
X-17704000Y133339000D02*
X-17704000Y133464000D01*
G75*
G02*
X-17641500Y133526500I62500J0D01*
G01*
X-16991500Y133526500D01*
G75*
G02*
X-16929000Y133464000I0J-62500D01*
G01*
X-16929000Y133339000D01*
G75*
G02*
X-16991500Y133276500I-62500J0D01*
G01*
X-17641500Y133276500D01*
G75*
G02*
X-17704000Y133339000I0J62500D01*
G01*
G37*
G36*
G01*
X-17704000Y132839000D02*
X-17704000Y132964000D01*
G75*
G02*
X-17641500Y133026500I62500J0D01*
G01*
X-16991500Y133026500D01*
G75*
G02*
X-16929000Y132964000I0J-62500D01*
G01*
X-16929000Y132839000D01*
G75*
G02*
X-16991500Y132776500I-62500J0D01*
G01*
X-17641500Y132776500D01*
G75*
G02*
X-17704000Y132839000I0J62500D01*
G01*
G37*
G36*
G01*
X-17704000Y132339000D02*
X-17704000Y132464000D01*
G75*
G02*
X-17641500Y132526500I62500J0D01*
G01*
X-16991500Y132526500D01*
G75*
G02*
X-16929000Y132464000I0J-62500D01*
G01*
X-16929000Y132339000D01*
G75*
G02*
X-16991500Y132276500I-62500J0D01*
G01*
X-17641500Y132276500D01*
G75*
G02*
X-17704000Y132339000I0J62500D01*
G01*
G37*
G36*
G01*
X-17704000Y131839000D02*
X-17704000Y131964000D01*
G75*
G02*
X-17641500Y132026500I62500J0D01*
G01*
X-16991500Y132026500D01*
G75*
G02*
X-16929000Y131964000I0J-62500D01*
G01*
X-16929000Y131839000D01*
G75*
G02*
X-16991500Y131776500I-62500J0D01*
G01*
X-17641500Y131776500D01*
G75*
G02*
X-17704000Y131839000I0J62500D01*
G01*
G37*
G36*
G01*
X-17704000Y131339000D02*
X-17704000Y131464000D01*
G75*
G02*
X-17641500Y131526500I62500J0D01*
G01*
X-16991500Y131526500D01*
G75*
G02*
X-16929000Y131464000I0J-62500D01*
G01*
X-16929000Y131339000D01*
G75*
G02*
X-16991500Y131276500I-62500J0D01*
G01*
X-17641500Y131276500D01*
G75*
G02*
X-17704000Y131339000I0J62500D01*
G01*
G37*
G36*
G01*
X-18179000Y130339000D02*
X-18179000Y130989000D01*
G75*
G02*
X-18116500Y131051500I62500J0D01*
G01*
X-17991500Y131051500D01*
G75*
G02*
X-17929000Y130989000I0J-62500D01*
G01*
X-17929000Y130339000D01*
G75*
G02*
X-17991500Y130276500I-62500J0D01*
G01*
X-18116500Y130276500D01*
G75*
G02*
X-18179000Y130339000I0J62500D01*
G01*
G37*
G36*
G01*
X-18679000Y130339000D02*
X-18679000Y130989000D01*
G75*
G02*
X-18616500Y131051500I62500J0D01*
G01*
X-18491500Y131051500D01*
G75*
G02*
X-18429000Y130989000I0J-62500D01*
G01*
X-18429000Y130339000D01*
G75*
G02*
X-18491500Y130276500I-62500J0D01*
G01*
X-18616500Y130276500D01*
G75*
G02*
X-18679000Y130339000I0J62500D01*
G01*
G37*
G36*
G01*
X-19179000Y130339000D02*
X-19179000Y130989000D01*
G75*
G02*
X-19116500Y131051500I62500J0D01*
G01*
X-18991500Y131051500D01*
G75*
G02*
X-18929000Y130989000I0J-62500D01*
G01*
X-18929000Y130339000D01*
G75*
G02*
X-18991500Y130276500I-62500J0D01*
G01*
X-19116500Y130276500D01*
G75*
G02*
X-19179000Y130339000I0J62500D01*
G01*
G37*
G36*
G01*
X-19679000Y130339000D02*
X-19679000Y130989000D01*
G75*
G02*
X-19616500Y131051500I62500J0D01*
G01*
X-19491500Y131051500D01*
G75*
G02*
X-19429000Y130989000I0J-62500D01*
G01*
X-19429000Y130339000D01*
G75*
G02*
X-19491500Y130276500I-62500J0D01*
G01*
X-19616500Y130276500D01*
G75*
G02*
X-19679000Y130339000I0J62500D01*
G01*
G37*
G36*
G01*
X-20179000Y130339000D02*
X-20179000Y130989000D01*
G75*
G02*
X-20116500Y131051500I62500J0D01*
G01*
X-19991500Y131051500D01*
G75*
G02*
X-19929000Y130989000I0J-62500D01*
G01*
X-19929000Y130339000D01*
G75*
G02*
X-19991500Y130276500I-62500J0D01*
G01*
X-20116500Y130276500D01*
G75*
G02*
X-20179000Y130339000I0J62500D01*
G01*
G37*
G36*
G01*
X-20679000Y130339000D02*
X-20679000Y130989000D01*
G75*
G02*
X-20616500Y131051500I62500J0D01*
G01*
X-20491500Y131051500D01*
G75*
G02*
X-20429000Y130989000I0J-62500D01*
G01*
X-20429000Y130339000D01*
G75*
G02*
X-20491500Y130276500I-62500J0D01*
G01*
X-20616500Y130276500D01*
G75*
G02*
X-20679000Y130339000I0J62500D01*
G01*
G37*
G36*
G01*
X-21679000Y131339000D02*
X-21679000Y131464000D01*
G75*
G02*
X-21616500Y131526500I62500J0D01*
G01*
X-20966500Y131526500D01*
G75*
G02*
X-20904000Y131464000I0J-62500D01*
G01*
X-20904000Y131339000D01*
G75*
G02*
X-20966500Y131276500I-62500J0D01*
G01*
X-21616500Y131276500D01*
G75*
G02*
X-21679000Y131339000I0J62500D01*
G01*
G37*
G36*
G01*
X-21679000Y131839000D02*
X-21679000Y131964000D01*
G75*
G02*
X-21616500Y132026500I62500J0D01*
G01*
X-20966500Y132026500D01*
G75*
G02*
X-20904000Y131964000I0J-62500D01*
G01*
X-20904000Y131839000D01*
G75*
G02*
X-20966500Y131776500I-62500J0D01*
G01*
X-21616500Y131776500D01*
G75*
G02*
X-21679000Y131839000I0J62500D01*
G01*
G37*
G36*
G01*
X-21679000Y132339000D02*
X-21679000Y132464000D01*
G75*
G02*
X-21616500Y132526500I62500J0D01*
G01*
X-20966500Y132526500D01*
G75*
G02*
X-20904000Y132464000I0J-62500D01*
G01*
X-20904000Y132339000D01*
G75*
G02*
X-20966500Y132276500I-62500J0D01*
G01*
X-21616500Y132276500D01*
G75*
G02*
X-21679000Y132339000I0J62500D01*
G01*
G37*
G36*
G01*
X-21679000Y132839000D02*
X-21679000Y132964000D01*
G75*
G02*
X-21616500Y133026500I62500J0D01*
G01*
X-20966500Y133026500D01*
G75*
G02*
X-20904000Y132964000I0J-62500D01*
G01*
X-20904000Y132839000D01*
G75*
G02*
X-20966500Y132776500I-62500J0D01*
G01*
X-21616500Y132776500D01*
G75*
G02*
X-21679000Y132839000I0J62500D01*
G01*
G37*
G36*
G01*
X-21679000Y133339000D02*
X-21679000Y133464000D01*
G75*
G02*
X-21616500Y133526500I62500J0D01*
G01*
X-20966500Y133526500D01*
G75*
G02*
X-20904000Y133464000I0J-62500D01*
G01*
X-20904000Y133339000D01*
G75*
G02*
X-20966500Y133276500I-62500J0D01*
G01*
X-21616500Y133276500D01*
G75*
G02*
X-21679000Y133339000I0J62500D01*
G01*
G37*
G36*
G01*
X-21679000Y133839000D02*
X-21679000Y133964000D01*
G75*
G02*
X-21616500Y134026500I62500J0D01*
G01*
X-20966500Y134026500D01*
G75*
G02*
X-20904000Y133964000I0J-62500D01*
G01*
X-20904000Y133839000D01*
G75*
G02*
X-20966500Y133776500I-62500J0D01*
G01*
X-21616500Y133776500D01*
G75*
G02*
X-21679000Y133839000I0J62500D01*
G01*
G37*
%TD*%
%TO.C,U600*%
X-26416000Y132651500D03*
G36*
G01*
X-27791000Y134314000D02*
X-27791000Y134964000D01*
G75*
G02*
X-27728500Y135026500I62500J0D01*
G01*
X-27603500Y135026500D01*
G75*
G02*
X-27541000Y134964000I0J-62500D01*
G01*
X-27541000Y134314000D01*
G75*
G02*
X-27603500Y134251500I-62500J0D01*
G01*
X-27728500Y134251500D01*
G75*
G02*
X-27791000Y134314000I0J62500D01*
G01*
G37*
G36*
G01*
X-27291000Y134314000D02*
X-27291000Y134964000D01*
G75*
G02*
X-27228500Y135026500I62500J0D01*
G01*
X-27103500Y135026500D01*
G75*
G02*
X-27041000Y134964000I0J-62500D01*
G01*
X-27041000Y134314000D01*
G75*
G02*
X-27103500Y134251500I-62500J0D01*
G01*
X-27228500Y134251500D01*
G75*
G02*
X-27291000Y134314000I0J62500D01*
G01*
G37*
G36*
G01*
X-26791000Y134314000D02*
X-26791000Y134964000D01*
G75*
G02*
X-26728500Y135026500I62500J0D01*
G01*
X-26603500Y135026500D01*
G75*
G02*
X-26541000Y134964000I0J-62500D01*
G01*
X-26541000Y134314000D01*
G75*
G02*
X-26603500Y134251500I-62500J0D01*
G01*
X-26728500Y134251500D01*
G75*
G02*
X-26791000Y134314000I0J62500D01*
G01*
G37*
G36*
G01*
X-26291000Y134314000D02*
X-26291000Y134964000D01*
G75*
G02*
X-26228500Y135026500I62500J0D01*
G01*
X-26103500Y135026500D01*
G75*
G02*
X-26041000Y134964000I0J-62500D01*
G01*
X-26041000Y134314000D01*
G75*
G02*
X-26103500Y134251500I-62500J0D01*
G01*
X-26228500Y134251500D01*
G75*
G02*
X-26291000Y134314000I0J62500D01*
G01*
G37*
G36*
G01*
X-25791000Y134314000D02*
X-25791000Y134964000D01*
G75*
G02*
X-25728500Y135026500I62500J0D01*
G01*
X-25603500Y135026500D01*
G75*
G02*
X-25541000Y134964000I0J-62500D01*
G01*
X-25541000Y134314000D01*
G75*
G02*
X-25603500Y134251500I-62500J0D01*
G01*
X-25728500Y134251500D01*
G75*
G02*
X-25791000Y134314000I0J62500D01*
G01*
G37*
G36*
G01*
X-25291000Y134314000D02*
X-25291000Y134964000D01*
G75*
G02*
X-25228500Y135026500I62500J0D01*
G01*
X-25103500Y135026500D01*
G75*
G02*
X-25041000Y134964000I0J-62500D01*
G01*
X-25041000Y134314000D01*
G75*
G02*
X-25103500Y134251500I-62500J0D01*
G01*
X-25228500Y134251500D01*
G75*
G02*
X-25291000Y134314000I0J62500D01*
G01*
G37*
G36*
G01*
X-24816000Y133839000D02*
X-24816000Y133964000D01*
G75*
G02*
X-24753500Y134026500I62500J0D01*
G01*
X-24103500Y134026500D01*
G75*
G02*
X-24041000Y133964000I0J-62500D01*
G01*
X-24041000Y133839000D01*
G75*
G02*
X-24103500Y133776500I-62500J0D01*
G01*
X-24753500Y133776500D01*
G75*
G02*
X-24816000Y133839000I0J62500D01*
G01*
G37*
G36*
G01*
X-24816000Y133339000D02*
X-24816000Y133464000D01*
G75*
G02*
X-24753500Y133526500I62500J0D01*
G01*
X-24103500Y133526500D01*
G75*
G02*
X-24041000Y133464000I0J-62500D01*
G01*
X-24041000Y133339000D01*
G75*
G02*
X-24103500Y133276500I-62500J0D01*
G01*
X-24753500Y133276500D01*
G75*
G02*
X-24816000Y133339000I0J62500D01*
G01*
G37*
G36*
G01*
X-24816000Y132839000D02*
X-24816000Y132964000D01*
G75*
G02*
X-24753500Y133026500I62500J0D01*
G01*
X-24103500Y133026500D01*
G75*
G02*
X-24041000Y132964000I0J-62500D01*
G01*
X-24041000Y132839000D01*
G75*
G02*
X-24103500Y132776500I-62500J0D01*
G01*
X-24753500Y132776500D01*
G75*
G02*
X-24816000Y132839000I0J62500D01*
G01*
G37*
G36*
G01*
X-24816000Y132339000D02*
X-24816000Y132464000D01*
G75*
G02*
X-24753500Y132526500I62500J0D01*
G01*
X-24103500Y132526500D01*
G75*
G02*
X-24041000Y132464000I0J-62500D01*
G01*
X-24041000Y132339000D01*
G75*
G02*
X-24103500Y132276500I-62500J0D01*
G01*
X-24753500Y132276500D01*
G75*
G02*
X-24816000Y132339000I0J62500D01*
G01*
G37*
G36*
G01*
X-24816000Y131839000D02*
X-24816000Y131964000D01*
G75*
G02*
X-24753500Y132026500I62500J0D01*
G01*
X-24103500Y132026500D01*
G75*
G02*
X-24041000Y131964000I0J-62500D01*
G01*
X-24041000Y131839000D01*
G75*
G02*
X-24103500Y131776500I-62500J0D01*
G01*
X-24753500Y131776500D01*
G75*
G02*
X-24816000Y131839000I0J62500D01*
G01*
G37*
G36*
G01*
X-24816000Y131339000D02*
X-24816000Y131464000D01*
G75*
G02*
X-24753500Y131526500I62500J0D01*
G01*
X-24103500Y131526500D01*
G75*
G02*
X-24041000Y131464000I0J-62500D01*
G01*
X-24041000Y131339000D01*
G75*
G02*
X-24103500Y131276500I-62500J0D01*
G01*
X-24753500Y131276500D01*
G75*
G02*
X-24816000Y131339000I0J62500D01*
G01*
G37*
G36*
G01*
X-25291000Y130339000D02*
X-25291000Y130989000D01*
G75*
G02*
X-25228500Y131051500I62500J0D01*
G01*
X-25103500Y131051500D01*
G75*
G02*
X-25041000Y130989000I0J-62500D01*
G01*
X-25041000Y130339000D01*
G75*
G02*
X-25103500Y130276500I-62500J0D01*
G01*
X-25228500Y130276500D01*
G75*
G02*
X-25291000Y130339000I0J62500D01*
G01*
G37*
G36*
G01*
X-25791000Y130339000D02*
X-25791000Y130989000D01*
G75*
G02*
X-25728500Y131051500I62500J0D01*
G01*
X-25603500Y131051500D01*
G75*
G02*
X-25541000Y130989000I0J-62500D01*
G01*
X-25541000Y130339000D01*
G75*
G02*
X-25603500Y130276500I-62500J0D01*
G01*
X-25728500Y130276500D01*
G75*
G02*
X-25791000Y130339000I0J62500D01*
G01*
G37*
G36*
G01*
X-26291000Y130339000D02*
X-26291000Y130989000D01*
G75*
G02*
X-26228500Y131051500I62500J0D01*
G01*
X-26103500Y131051500D01*
G75*
G02*
X-26041000Y130989000I0J-62500D01*
G01*
X-26041000Y130339000D01*
G75*
G02*
X-26103500Y130276500I-62500J0D01*
G01*
X-26228500Y130276500D01*
G75*
G02*
X-26291000Y130339000I0J62500D01*
G01*
G37*
G36*
G01*
X-26791000Y130339000D02*
X-26791000Y130989000D01*
G75*
G02*
X-26728500Y131051500I62500J0D01*
G01*
X-26603500Y131051500D01*
G75*
G02*
X-26541000Y130989000I0J-62500D01*
G01*
X-26541000Y130339000D01*
G75*
G02*
X-26603500Y130276500I-62500J0D01*
G01*
X-26728500Y130276500D01*
G75*
G02*
X-26791000Y130339000I0J62500D01*
G01*
G37*
G36*
G01*
X-27291000Y130339000D02*
X-27291000Y130989000D01*
G75*
G02*
X-27228500Y131051500I62500J0D01*
G01*
X-27103500Y131051500D01*
G75*
G02*
X-27041000Y130989000I0J-62500D01*
G01*
X-27041000Y130339000D01*
G75*
G02*
X-27103500Y130276500I-62500J0D01*
G01*
X-27228500Y130276500D01*
G75*
G02*
X-27291000Y130339000I0J62500D01*
G01*
G37*
G36*
G01*
X-27791000Y130339000D02*
X-27791000Y130989000D01*
G75*
G02*
X-27728500Y131051500I62500J0D01*
G01*
X-27603500Y131051500D01*
G75*
G02*
X-27541000Y130989000I0J-62500D01*
G01*
X-27541000Y130339000D01*
G75*
G02*
X-27603500Y130276500I-62500J0D01*
G01*
X-27728500Y130276500D01*
G75*
G02*
X-27791000Y130339000I0J62500D01*
G01*
G37*
G36*
G01*
X-28791000Y131339000D02*
X-28791000Y131464000D01*
G75*
G02*
X-28728500Y131526500I62500J0D01*
G01*
X-28078500Y131526500D01*
G75*
G02*
X-28016000Y131464000I0J-62500D01*
G01*
X-28016000Y131339000D01*
G75*
G02*
X-28078500Y131276500I-62500J0D01*
G01*
X-28728500Y131276500D01*
G75*
G02*
X-28791000Y131339000I0J62500D01*
G01*
G37*
G36*
G01*
X-28791000Y131839000D02*
X-28791000Y131964000D01*
G75*
G02*
X-28728500Y132026500I62500J0D01*
G01*
X-28078500Y132026500D01*
G75*
G02*
X-28016000Y131964000I0J-62500D01*
G01*
X-28016000Y131839000D01*
G75*
G02*
X-28078500Y131776500I-62500J0D01*
G01*
X-28728500Y131776500D01*
G75*
G02*
X-28791000Y131839000I0J62500D01*
G01*
G37*
G36*
G01*
X-28791000Y132339000D02*
X-28791000Y132464000D01*
G75*
G02*
X-28728500Y132526500I62500J0D01*
G01*
X-28078500Y132526500D01*
G75*
G02*
X-28016000Y132464000I0J-62500D01*
G01*
X-28016000Y132339000D01*
G75*
G02*
X-28078500Y132276500I-62500J0D01*
G01*
X-28728500Y132276500D01*
G75*
G02*
X-28791000Y132339000I0J62500D01*
G01*
G37*
G36*
G01*
X-28791000Y132839000D02*
X-28791000Y132964000D01*
G75*
G02*
X-28728500Y133026500I62500J0D01*
G01*
X-28078500Y133026500D01*
G75*
G02*
X-28016000Y132964000I0J-62500D01*
G01*
X-28016000Y132839000D01*
G75*
G02*
X-28078500Y132776500I-62500J0D01*
G01*
X-28728500Y132776500D01*
G75*
G02*
X-28791000Y132839000I0J62500D01*
G01*
G37*
G36*
G01*
X-28791000Y133339000D02*
X-28791000Y133464000D01*
G75*
G02*
X-28728500Y133526500I62500J0D01*
G01*
X-28078500Y133526500D01*
G75*
G02*
X-28016000Y133464000I0J-62500D01*
G01*
X-28016000Y133339000D01*
G75*
G02*
X-28078500Y133276500I-62500J0D01*
G01*
X-28728500Y133276500D01*
G75*
G02*
X-28791000Y133339000I0J62500D01*
G01*
G37*
G36*
G01*
X-28791000Y133839000D02*
X-28791000Y133964000D01*
G75*
G02*
X-28728500Y134026500I62500J0D01*
G01*
X-28078500Y134026500D01*
G75*
G02*
X-28016000Y133964000I0J-62500D01*
G01*
X-28016000Y133839000D01*
G75*
G02*
X-28078500Y133776500I-62500J0D01*
G01*
X-28728500Y133776500D01*
G75*
G02*
X-28791000Y133839000I0J62500D01*
G01*
G37*
%TD*%
%TO.C,R607*%
G36*
G01*
X-7043000Y136285000D02*
X-6673000Y136285000D01*
G75*
G02*
X-6538000Y136150000I0J-135000D01*
G01*
X-6538000Y135880000D01*
G75*
G02*
X-6673000Y135745000I-135000J0D01*
G01*
X-7043000Y135745000D01*
G75*
G02*
X-7178000Y135880000I0J135000D01*
G01*
X-7178000Y136150000D01*
G75*
G02*
X-7043000Y136285000I135000J0D01*
G01*
G37*
G36*
G01*
X-7043000Y137305000D02*
X-6673000Y137305000D01*
G75*
G02*
X-6538000Y137170000I0J-135000D01*
G01*
X-6538000Y136900000D01*
G75*
G02*
X-6673000Y136765000I-135000J0D01*
G01*
X-7043000Y136765000D01*
G75*
G02*
X-7178000Y136900000I0J135000D01*
G01*
X-7178000Y137170000D01*
G75*
G02*
X-7043000Y137305000I135000J0D01*
G01*
G37*
%TD*%
%TO.C,R606*%
G36*
G01*
X-9837000Y136285000D02*
X-9467000Y136285000D01*
G75*
G02*
X-9332000Y136150000I0J-135000D01*
G01*
X-9332000Y135880000D01*
G75*
G02*
X-9467000Y135745000I-135000J0D01*
G01*
X-9837000Y135745000D01*
G75*
G02*
X-9972000Y135880000I0J135000D01*
G01*
X-9972000Y136150000D01*
G75*
G02*
X-9837000Y136285000I135000J0D01*
G01*
G37*
G36*
G01*
X-9837000Y137305000D02*
X-9467000Y137305000D01*
G75*
G02*
X-9332000Y137170000I0J-135000D01*
G01*
X-9332000Y136900000D01*
G75*
G02*
X-9467000Y136765000I-135000J0D01*
G01*
X-9837000Y136765000D01*
G75*
G02*
X-9972000Y136900000I0J135000D01*
G01*
X-9972000Y137170000D01*
G75*
G02*
X-9837000Y137305000I135000J0D01*
G01*
G37*
%TD*%
%TO.C,R605*%
G36*
G01*
X-12631000Y136285000D02*
X-12261000Y136285000D01*
G75*
G02*
X-12126000Y136150000I0J-135000D01*
G01*
X-12126000Y135880000D01*
G75*
G02*
X-12261000Y135745000I-135000J0D01*
G01*
X-12631000Y135745000D01*
G75*
G02*
X-12766000Y135880000I0J135000D01*
G01*
X-12766000Y136150000D01*
G75*
G02*
X-12631000Y136285000I135000J0D01*
G01*
G37*
G36*
G01*
X-12631000Y137305000D02*
X-12261000Y137305000D01*
G75*
G02*
X-12126000Y137170000I0J-135000D01*
G01*
X-12126000Y136900000D01*
G75*
G02*
X-12261000Y136765000I-135000J0D01*
G01*
X-12631000Y136765000D01*
G75*
G02*
X-12766000Y136900000I0J135000D01*
G01*
X-12766000Y137170000D01*
G75*
G02*
X-12631000Y137305000I135000J0D01*
G01*
G37*
%TD*%
%TO.C,R604*%
G36*
G01*
X-7768000Y130449000D02*
X-7218000Y130449000D01*
G75*
G02*
X-7018000Y130249000I0J-200000D01*
G01*
X-7018000Y129849000D01*
G75*
G02*
X-7218000Y129649000I-200000J0D01*
G01*
X-7768000Y129649000D01*
G75*
G02*
X-7968000Y129849000I0J200000D01*
G01*
X-7968000Y130249000D01*
G75*
G02*
X-7768000Y130449000I200000J0D01*
G01*
G37*
G36*
G01*
X-7768000Y132099000D02*
X-7218000Y132099000D01*
G75*
G02*
X-7018000Y131899000I0J-200000D01*
G01*
X-7018000Y131499000D01*
G75*
G02*
X-7218000Y131299000I-200000J0D01*
G01*
X-7768000Y131299000D01*
G75*
G02*
X-7968000Y131499000I0J200000D01*
G01*
X-7968000Y131899000D01*
G75*
G02*
X-7768000Y132099000I200000J0D01*
G01*
G37*
%TD*%
%TO.C,R603*%
G36*
G01*
X-10562000Y132099000D02*
X-10012000Y132099000D01*
G75*
G02*
X-9812000Y131899000I0J-200000D01*
G01*
X-9812000Y131499000D01*
G75*
G02*
X-10012000Y131299000I-200000J0D01*
G01*
X-10562000Y131299000D01*
G75*
G02*
X-10762000Y131499000I0J200000D01*
G01*
X-10762000Y131899000D01*
G75*
G02*
X-10562000Y132099000I200000J0D01*
G01*
G37*
G36*
G01*
X-10562000Y130449000D02*
X-10012000Y130449000D01*
G75*
G02*
X-9812000Y130249000I0J-200000D01*
G01*
X-9812000Y129849000D01*
G75*
G02*
X-10012000Y129649000I-200000J0D01*
G01*
X-10562000Y129649000D01*
G75*
G02*
X-10762000Y129849000I0J200000D01*
G01*
X-10762000Y130249000D01*
G75*
G02*
X-10562000Y130449000I200000J0D01*
G01*
G37*
%TD*%
%TO.C,R602*%
G36*
G01*
X-13356000Y130449000D02*
X-12806000Y130449000D01*
G75*
G02*
X-12606000Y130249000I0J-200000D01*
G01*
X-12606000Y129849000D01*
G75*
G02*
X-12806000Y129649000I-200000J0D01*
G01*
X-13356000Y129649000D01*
G75*
G02*
X-13556000Y129849000I0J200000D01*
G01*
X-13556000Y130249000D01*
G75*
G02*
X-13356000Y130449000I200000J0D01*
G01*
G37*
G36*
G01*
X-13356000Y132099000D02*
X-12806000Y132099000D01*
G75*
G02*
X-12606000Y131899000I0J-200000D01*
G01*
X-12606000Y131499000D01*
G75*
G02*
X-12806000Y131299000I-200000J0D01*
G01*
X-13356000Y131299000D01*
G75*
G02*
X-13556000Y131499000I0J200000D01*
G01*
X-13556000Y131899000D01*
G75*
G02*
X-13356000Y132099000I200000J0D01*
G01*
G37*
%TD*%
%TO.C,R601*%
G36*
G01*
X-15473000Y135362000D02*
X-16023000Y135362000D01*
G75*
G02*
X-16223000Y135562000I0J200000D01*
G01*
X-16223000Y135962000D01*
G75*
G02*
X-16023000Y136162000I200000J0D01*
G01*
X-15473000Y136162000D01*
G75*
G02*
X-15273000Y135962000I0J-200000D01*
G01*
X-15273000Y135562000D01*
G75*
G02*
X-15473000Y135362000I-200000J0D01*
G01*
G37*
G36*
G01*
X-15473000Y133712000D02*
X-16023000Y133712000D01*
G75*
G02*
X-16223000Y133912000I0J200000D01*
G01*
X-16223000Y134312000D01*
G75*
G02*
X-16023000Y134512000I200000J0D01*
G01*
X-15473000Y134512000D01*
G75*
G02*
X-15273000Y134312000I0J-200000D01*
G01*
X-15273000Y133912000D01*
G75*
G02*
X-15473000Y133712000I-200000J0D01*
G01*
G37*
%TD*%
%TO.C,R600*%
G36*
G01*
X-22585000Y135426000D02*
X-23135000Y135426000D01*
G75*
G02*
X-23335000Y135626000I0J200000D01*
G01*
X-23335000Y136026000D01*
G75*
G02*
X-23135000Y136226000I200000J0D01*
G01*
X-22585000Y136226000D01*
G75*
G02*
X-22385000Y136026000I0J-200000D01*
G01*
X-22385000Y135626000D01*
G75*
G02*
X-22585000Y135426000I-200000J0D01*
G01*
G37*
G36*
G01*
X-22585000Y133776000D02*
X-23135000Y133776000D01*
G75*
G02*
X-23335000Y133976000I0J200000D01*
G01*
X-23335000Y134376000D01*
G75*
G02*
X-23135000Y134576000I200000J0D01*
G01*
X-22585000Y134576000D01*
G75*
G02*
X-22385000Y134376000I0J-200000D01*
G01*
X-22385000Y133976000D01*
G75*
G02*
X-22585000Y133776000I-200000J0D01*
G01*
G37*
%TD*%
D10*
%TO.C,Q602*%
X-7493000Y132985000D03*
X-8143000Y134985000D03*
X-6843000Y134985000D03*
%TD*%
%TO.C,Q601*%
X-10287000Y132985000D03*
X-10937000Y134985000D03*
X-9637000Y134985000D03*
%TD*%
%TO.C,Q600*%
X-13081000Y132969000D03*
X-13731000Y134969000D03*
X-12431000Y134969000D03*
%TD*%
%TO.C,C601*%
G36*
G01*
X-20150000Y136394000D02*
X-20150000Y135894000D01*
G75*
G02*
X-20375000Y135669000I-225000J0D01*
G01*
X-20825000Y135669000D01*
G75*
G02*
X-21050000Y135894000I0J225000D01*
G01*
X-21050000Y136394000D01*
G75*
G02*
X-20825000Y136619000I225000J0D01*
G01*
X-20375000Y136619000D01*
G75*
G02*
X-20150000Y136394000I0J-225000D01*
G01*
G37*
G36*
G01*
X-18600000Y136394000D02*
X-18600000Y135894000D01*
G75*
G02*
X-18825000Y135669000I-225000J0D01*
G01*
X-19275000Y135669000D01*
G75*
G02*
X-19500000Y135894000I0J225000D01*
G01*
X-19500000Y136394000D01*
G75*
G02*
X-19275000Y136619000I225000J0D01*
G01*
X-18825000Y136619000D01*
G75*
G02*
X-18600000Y136394000I0J-225000D01*
G01*
G37*
%TD*%
%TO.C,C600*%
G36*
G01*
X-27262000Y136394000D02*
X-27262000Y135894000D01*
G75*
G02*
X-27487000Y135669000I-225000J0D01*
G01*
X-27937000Y135669000D01*
G75*
G02*
X-28162000Y135894000I0J225000D01*
G01*
X-28162000Y136394000D01*
G75*
G02*
X-27937000Y136619000I225000J0D01*
G01*
X-27487000Y136619000D01*
G75*
G02*
X-27262000Y136394000I0J-225000D01*
G01*
G37*
G36*
G01*
X-25712000Y136394000D02*
X-25712000Y135894000D01*
G75*
G02*
X-25937000Y135669000I-225000J0D01*
G01*
X-26387000Y135669000D01*
G75*
G02*
X-26612000Y135894000I0J225000D01*
G01*
X-26612000Y136394000D01*
G75*
G02*
X-26387000Y136619000I225000J0D01*
G01*
X-25937000Y136619000D01*
G75*
G02*
X-25712000Y136394000I0J-225000D01*
G01*
G37*
%TD*%
%TO.C,C105*%
G36*
G01*
X31200000Y69830000D02*
X31200000Y70170000D01*
G75*
G02*
X31340000Y70310000I140000J0D01*
G01*
X31620000Y70310000D01*
G75*
G02*
X31760000Y70170000I0J-140000D01*
G01*
X31760000Y69830000D01*
G75*
G02*
X31620000Y69690000I-140000J0D01*
G01*
X31340000Y69690000D01*
G75*
G02*
X31200000Y69830000I0J140000D01*
G01*
G37*
G36*
G01*
X30240000Y69830000D02*
X30240000Y70170000D01*
G75*
G02*
X30380000Y70310000I140000J0D01*
G01*
X30660000Y70310000D01*
G75*
G02*
X30800000Y70170000I0J-140000D01*
G01*
X30800000Y69830000D01*
G75*
G02*
X30660000Y69690000I-140000J0D01*
G01*
X30380000Y69690000D01*
G75*
G02*
X30240000Y69830000I0J140000D01*
G01*
G37*
%TD*%
%TO.C,C104*%
G36*
G01*
X31200000Y2830000D02*
X31200000Y3170000D01*
G75*
G02*
X31340000Y3310000I140000J0D01*
G01*
X31620000Y3310000D01*
G75*
G02*
X31760000Y3170000I0J-140000D01*
G01*
X31760000Y2830000D01*
G75*
G02*
X31620000Y2690000I-140000J0D01*
G01*
X31340000Y2690000D01*
G75*
G02*
X31200000Y2830000I0J140000D01*
G01*
G37*
G36*
G01*
X30240000Y2830000D02*
X30240000Y3170000D01*
G75*
G02*
X30380000Y3310000I140000J0D01*
G01*
X30660000Y3310000D01*
G75*
G02*
X30800000Y3170000I0J-140000D01*
G01*
X30800000Y2830000D01*
G75*
G02*
X30660000Y2690000I-140000J0D01*
G01*
X30380000Y2690000D01*
G75*
G02*
X30240000Y2830000I0J140000D01*
G01*
G37*
%TD*%
%TO.C,C103*%
G36*
G01*
X-31200000Y3170000D02*
X-31200000Y2830000D01*
G75*
G02*
X-31340000Y2690000I-140000J0D01*
G01*
X-31620000Y2690000D01*
G75*
G02*
X-31760000Y2830000I0J140000D01*
G01*
X-31760000Y3170000D01*
G75*
G02*
X-31620000Y3310000I140000J0D01*
G01*
X-31340000Y3310000D01*
G75*
G02*
X-31200000Y3170000I0J-140000D01*
G01*
G37*
G36*
G01*
X-30240000Y3170000D02*
X-30240000Y2830000D01*
G75*
G02*
X-30380000Y2690000I-140000J0D01*
G01*
X-30660000Y2690000D01*
G75*
G02*
X-30800000Y2830000I0J140000D01*
G01*
X-30800000Y3170000D01*
G75*
G02*
X-30660000Y3310000I140000J0D01*
G01*
X-30380000Y3310000D01*
G75*
G02*
X-30240000Y3170000I0J-140000D01*
G01*
G37*
%TD*%
%TO.C,C102*%
G36*
G01*
X-31200000Y70170000D02*
X-31200000Y69830000D01*
G75*
G02*
X-31340000Y69690000I-140000J0D01*
G01*
X-31620000Y69690000D01*
G75*
G02*
X-31760000Y69830000I0J140000D01*
G01*
X-31760000Y70170000D01*
G75*
G02*
X-31620000Y70310000I140000J0D01*
G01*
X-31340000Y70310000D01*
G75*
G02*
X-31200000Y70170000I0J-140000D01*
G01*
G37*
G36*
G01*
X-30240000Y70170000D02*
X-30240000Y69830000D01*
G75*
G02*
X-30380000Y69690000I-140000J0D01*
G01*
X-30660000Y69690000D01*
G75*
G02*
X-30800000Y69830000I0J140000D01*
G01*
X-30800000Y70170000D01*
G75*
G02*
X-30660000Y70310000I140000J0D01*
G01*
X-30380000Y70310000D01*
G75*
G02*
X-30240000Y70170000I0J-140000D01*
G01*
G37*
%TD*%
%TO.C,C100*%
G36*
G01*
X31200000Y134830000D02*
X31200000Y135170000D01*
G75*
G02*
X31340000Y135310000I140000J0D01*
G01*
X31620000Y135310000D01*
G75*
G02*
X31760000Y135170000I0J-140000D01*
G01*
X31760000Y134830000D01*
G75*
G02*
X31620000Y134690000I-140000J0D01*
G01*
X31340000Y134690000D01*
G75*
G02*
X31200000Y134830000I0J140000D01*
G01*
G37*
G36*
G01*
X30240000Y134830000D02*
X30240000Y135170000D01*
G75*
G02*
X30380000Y135310000I140000J0D01*
G01*
X30660000Y135310000D01*
G75*
G02*
X30800000Y135170000I0J-140000D01*
G01*
X30800000Y134830000D01*
G75*
G02*
X30660000Y134690000I-140000J0D01*
G01*
X30380000Y134690000D01*
G75*
G02*
X30240000Y134830000I0J140000D01*
G01*
G37*
%TD*%
%TO.C,C101*%
G36*
G01*
X-36730000Y132073000D02*
X-37070000Y132073000D01*
G75*
G02*
X-37210000Y132213000I0J140000D01*
G01*
X-37210000Y132493000D01*
G75*
G02*
X-37070000Y132633000I140000J0D01*
G01*
X-36730000Y132633000D01*
G75*
G02*
X-36590000Y132493000I0J-140000D01*
G01*
X-36590000Y132213000D01*
G75*
G02*
X-36730000Y132073000I-140000J0D01*
G01*
G37*
G36*
G01*
X-36730000Y131113000D02*
X-37070000Y131113000D01*
G75*
G02*
X-37210000Y131253000I0J140000D01*
G01*
X-37210000Y131533000D01*
G75*
G02*
X-37070000Y131673000I140000J0D01*
G01*
X-36730000Y131673000D01*
G75*
G02*
X-36590000Y131533000I0J-140000D01*
G01*
X-36590000Y131253000D01*
G75*
G02*
X-36730000Y131113000I-140000J0D01*
G01*
G37*
%TD*%
%TO.C,R100*%
G36*
G01*
X-38500000Y11675000D02*
X-37950000Y11675000D01*
G75*
G02*
X-37750000Y11475000I0J-200000D01*
G01*
X-37750000Y11075000D01*
G75*
G02*
X-37950000Y10875000I-200000J0D01*
G01*
X-38500000Y10875000D01*
G75*
G02*
X-38700000Y11075000I0J200000D01*
G01*
X-38700000Y11475000D01*
G75*
G02*
X-38500000Y11675000I200000J0D01*
G01*
G37*
G36*
G01*
X-38500000Y13325000D02*
X-37950000Y13325000D01*
G75*
G02*
X-37750000Y13125000I0J-200000D01*
G01*
X-37750000Y12725000D01*
G75*
G02*
X-37950000Y12525000I-200000J0D01*
G01*
X-38500000Y12525000D01*
G75*
G02*
X-38700000Y12725000I0J200000D01*
G01*
X-38700000Y13125000D01*
G75*
G02*
X-38500000Y13325000I200000J0D01*
G01*
G37*
%TD*%
M02*
