G04 #@! TF.GenerationSoftware,KiCad,Pcbnew,(5.1.10)-1*
G04 #@! TF.CreationDate,2021-12-21T11:04:14-05:00*
G04 #@! TF.ProjectId,backplane,6261636b-706c-4616-9e65-2e6b69636164,A1*
G04 #@! TF.SameCoordinates,Original*
G04 #@! TF.FileFunction,Legend,Bot*
G04 #@! TF.FilePolarity,Positive*
%FSLAX46Y46*%
G04 Gerber Fmt 4.6, Leading zero omitted, Abs format (unit mm)*
G04 Created by KiCad (PCBNEW (5.1.10)-1) date 2021-12-21 11:04:14*
%MOMM*%
%LPD*%
G01*
G04 APERTURE LIST*
%ADD10C,0.150000*%
%ADD11C,0.100000*%
%ADD12C,0.200000*%
%ADD13C,0.120000*%
G04 APERTURE END LIST*
D10*
X105282142Y-161678571D02*
X105139285Y-161726190D01*
X105091666Y-161773809D01*
X105044047Y-161869047D01*
X105044047Y-162011904D01*
X105091666Y-162107142D01*
X105139285Y-162154761D01*
X105234523Y-162202380D01*
X105615476Y-162202380D01*
X105615476Y-161202380D01*
X105282142Y-161202380D01*
X105186904Y-161250000D01*
X105139285Y-161297619D01*
X105091666Y-161392857D01*
X105091666Y-161488095D01*
X105139285Y-161583333D01*
X105186904Y-161630952D01*
X105282142Y-161678571D01*
X105615476Y-161678571D01*
X104663095Y-161916666D02*
X104186904Y-161916666D01*
X104758333Y-162202380D02*
X104425000Y-161202380D01*
X104091666Y-162202380D01*
X103186904Y-162107142D02*
X103234523Y-162154761D01*
X103377380Y-162202380D01*
X103472619Y-162202380D01*
X103615476Y-162154761D01*
X103710714Y-162059523D01*
X103758333Y-161964285D01*
X103805952Y-161773809D01*
X103805952Y-161630952D01*
X103758333Y-161440476D01*
X103710714Y-161345238D01*
X103615476Y-161250000D01*
X103472619Y-161202380D01*
X103377380Y-161202380D01*
X103234523Y-161250000D01*
X103186904Y-161297619D01*
X102758333Y-162202380D02*
X102758333Y-161202380D01*
X102186904Y-162202380D02*
X102615476Y-161630952D01*
X102186904Y-161202380D02*
X102758333Y-161773809D01*
X101758333Y-162202380D02*
X101758333Y-161202380D01*
X101377380Y-161202380D01*
X101282142Y-161250000D01*
X101234523Y-161297619D01*
X101186904Y-161392857D01*
X101186904Y-161535714D01*
X101234523Y-161630952D01*
X101282142Y-161678571D01*
X101377380Y-161726190D01*
X101758333Y-161726190D01*
X100282142Y-162202380D02*
X100758333Y-162202380D01*
X100758333Y-161202380D01*
X99996428Y-161916666D02*
X99520238Y-161916666D01*
X100091666Y-162202380D02*
X99758333Y-161202380D01*
X99425000Y-162202380D01*
X99091666Y-162202380D02*
X99091666Y-161202380D01*
X98520238Y-162202380D01*
X98520238Y-161202380D01*
X98044047Y-161678571D02*
X97710714Y-161678571D01*
X97567857Y-162202380D02*
X98044047Y-162202380D01*
X98044047Y-161202380D01*
X97567857Y-161202380D01*
X96044047Y-161678571D02*
X95901190Y-161726190D01*
X95853571Y-161773809D01*
X95805952Y-161869047D01*
X95805952Y-162011904D01*
X95853571Y-162107142D01*
X95901190Y-162154761D01*
X95996428Y-162202380D01*
X96377380Y-162202380D01*
X96377380Y-161202380D01*
X96044047Y-161202380D01*
X95948809Y-161250000D01*
X95901190Y-161297619D01*
X95853571Y-161392857D01*
X95853571Y-161488095D01*
X95901190Y-161583333D01*
X95948809Y-161630952D01*
X96044047Y-161678571D01*
X96377380Y-161678571D01*
X94805952Y-162202380D02*
X95139285Y-161726190D01*
X95377380Y-162202380D02*
X95377380Y-161202380D01*
X94996428Y-161202380D01*
X94901190Y-161250000D01*
X94853571Y-161297619D01*
X94805952Y-161392857D01*
X94805952Y-161535714D01*
X94853571Y-161630952D01*
X94901190Y-161678571D01*
X94996428Y-161726190D01*
X95377380Y-161726190D01*
X94377380Y-161678571D02*
X94044047Y-161678571D01*
X93901190Y-162202380D02*
X94377380Y-162202380D01*
X94377380Y-161202380D01*
X93901190Y-161202380D01*
X93520238Y-161916666D02*
X93044047Y-161916666D01*
X93615476Y-162202380D02*
X93282142Y-161202380D01*
X92948809Y-162202380D01*
X92615476Y-162202380D02*
X92615476Y-161202380D01*
X92044047Y-162202380D02*
X92472619Y-161630952D01*
X92044047Y-161202380D02*
X92615476Y-161773809D01*
X91425000Y-161202380D02*
X91234523Y-161202380D01*
X91139285Y-161250000D01*
X91044047Y-161345238D01*
X90996428Y-161535714D01*
X90996428Y-161869047D01*
X91044047Y-162059523D01*
X91139285Y-162154761D01*
X91234523Y-162202380D01*
X91425000Y-162202380D01*
X91520238Y-162154761D01*
X91615476Y-162059523D01*
X91663095Y-161869047D01*
X91663095Y-161535714D01*
X91615476Y-161345238D01*
X91520238Y-161250000D01*
X91425000Y-161202380D01*
X90567857Y-161202380D02*
X90567857Y-162011904D01*
X90520238Y-162107142D01*
X90472619Y-162154761D01*
X90377380Y-162202380D01*
X90186904Y-162202380D01*
X90091666Y-162154761D01*
X90044047Y-162107142D01*
X89996428Y-162011904D01*
X89996428Y-161202380D01*
X89663095Y-161202380D02*
X89091666Y-161202380D01*
X89377380Y-162202380D02*
X89377380Y-161202380D01*
D11*
X132357428Y-165236380D02*
X132286000Y-165260190D01*
X132166952Y-165260190D01*
X132119333Y-165236380D01*
X132095523Y-165212571D01*
X132071714Y-165164952D01*
X132071714Y-165117333D01*
X132095523Y-165069714D01*
X132119333Y-165045904D01*
X132166952Y-165022095D01*
X132262190Y-164998285D01*
X132309809Y-164974476D01*
X132333619Y-164950666D01*
X132357428Y-164903047D01*
X132357428Y-164855428D01*
X132333619Y-164807809D01*
X132309809Y-164784000D01*
X132262190Y-164760190D01*
X132143142Y-164760190D01*
X132071714Y-164784000D01*
X131857428Y-164998285D02*
X131690761Y-164998285D01*
X131619333Y-165260190D02*
X131857428Y-165260190D01*
X131857428Y-164760190D01*
X131619333Y-164760190D01*
X131166952Y-165260190D02*
X131405047Y-165260190D01*
X131405047Y-164760190D01*
X130833619Y-164998285D02*
X131000285Y-164998285D01*
X131000285Y-165260190D02*
X131000285Y-164760190D01*
X130762190Y-164760190D01*
X130262190Y-164760190D02*
X129976476Y-164760190D01*
X130119333Y-165260190D02*
X130119333Y-164760190D01*
X129809809Y-164998285D02*
X129643142Y-164998285D01*
X129571714Y-165260190D02*
X129809809Y-165260190D01*
X129809809Y-164760190D01*
X129571714Y-164760190D01*
X129381238Y-165236380D02*
X129309809Y-165260190D01*
X129190761Y-165260190D01*
X129143142Y-165236380D01*
X129119333Y-165212571D01*
X129095523Y-165164952D01*
X129095523Y-165117333D01*
X129119333Y-165069714D01*
X129143142Y-165045904D01*
X129190761Y-165022095D01*
X129286000Y-164998285D01*
X129333619Y-164974476D01*
X129357428Y-164950666D01*
X129381238Y-164903047D01*
X129381238Y-164855428D01*
X129357428Y-164807809D01*
X129333619Y-164784000D01*
X129286000Y-164760190D01*
X129166952Y-164760190D01*
X129095523Y-164784000D01*
X128952666Y-164760190D02*
X128666952Y-164760190D01*
X128809809Y-165260190D02*
X128809809Y-164760190D01*
X64988190Y-165326190D02*
X65154857Y-165088095D01*
X65273904Y-165326190D02*
X65273904Y-164826190D01*
X65083428Y-164826190D01*
X65035809Y-164850000D01*
X65012000Y-164873809D01*
X64988190Y-164921428D01*
X64988190Y-164992857D01*
X65012000Y-165040476D01*
X65035809Y-165064285D01*
X65083428Y-165088095D01*
X65273904Y-165088095D01*
X64773904Y-165064285D02*
X64607238Y-165064285D01*
X64535809Y-165326190D02*
X64773904Y-165326190D01*
X64773904Y-164826190D01*
X64535809Y-164826190D01*
X64345333Y-165302380D02*
X64273904Y-165326190D01*
X64154857Y-165326190D01*
X64107238Y-165302380D01*
X64083428Y-165278571D01*
X64059619Y-165230952D01*
X64059619Y-165183333D01*
X64083428Y-165135714D01*
X64107238Y-165111904D01*
X64154857Y-165088095D01*
X64250095Y-165064285D01*
X64297714Y-165040476D01*
X64321523Y-165016666D01*
X64345333Y-164969047D01*
X64345333Y-164921428D01*
X64321523Y-164873809D01*
X64297714Y-164850000D01*
X64250095Y-164826190D01*
X64131047Y-164826190D01*
X64059619Y-164850000D01*
X63845333Y-165064285D02*
X63678666Y-165064285D01*
X63607238Y-165326190D02*
X63845333Y-165326190D01*
X63845333Y-164826190D01*
X63607238Y-164826190D01*
X63464380Y-164826190D02*
X63178666Y-164826190D01*
X63321523Y-165326190D02*
X63321523Y-164826190D01*
D12*
X78144000Y-170687000D02*
X78144000Y-173737000D01*
X116674000Y-170687000D02*
X116674000Y-173737000D01*
X77679000Y-174212000D02*
G75*
G03*
X77679000Y-174212000I-100000J0D01*
G01*
X78144000Y-164083000D02*
X78144000Y-167133000D01*
X116674000Y-164083000D02*
X116674000Y-167133000D01*
X77679000Y-167608000D02*
G75*
G03*
X77679000Y-167608000I-100000J0D01*
G01*
D13*
X128309000Y-165645000D02*
X128309000Y-169145000D01*
X128309000Y-169145000D02*
X132809000Y-169145000D01*
X128309000Y-165645000D02*
X132809000Y-165645000D01*
X132809000Y-165645000D02*
X132809000Y-169145000D01*
X62009000Y-165645000D02*
X62009000Y-169145000D01*
X62009000Y-169145000D02*
X66509000Y-169145000D01*
X62009000Y-165645000D02*
X66509000Y-165645000D01*
X66509000Y-165645000D02*
X66509000Y-169145000D01*
D10*
X76861904Y-170971428D02*
X77433333Y-170971428D01*
X77547619Y-170933333D01*
X77623809Y-170857142D01*
X77661904Y-170742857D01*
X77661904Y-170666666D01*
X76861904Y-171276190D02*
X76861904Y-171771428D01*
X77166666Y-171504761D01*
X77166666Y-171619047D01*
X77204761Y-171695238D01*
X77242857Y-171733333D01*
X77319047Y-171771428D01*
X77509523Y-171771428D01*
X77585714Y-171733333D01*
X77623809Y-171695238D01*
X77661904Y-171619047D01*
X77661904Y-171390476D01*
X77623809Y-171314285D01*
X77585714Y-171276190D01*
X76861904Y-172266666D02*
X76861904Y-172342857D01*
X76900000Y-172419047D01*
X76938095Y-172457142D01*
X77014285Y-172495238D01*
X77166666Y-172533333D01*
X77357142Y-172533333D01*
X77509523Y-172495238D01*
X77585714Y-172457142D01*
X77623809Y-172419047D01*
X77661904Y-172342857D01*
X77661904Y-172266666D01*
X77623809Y-172190476D01*
X77585714Y-172152380D01*
X77509523Y-172114285D01*
X77357142Y-172076190D01*
X77166666Y-172076190D01*
X77014285Y-172114285D01*
X76938095Y-172152380D01*
X76900000Y-172190476D01*
X76861904Y-172266666D01*
X77661904Y-173295238D02*
X77661904Y-172838095D01*
X77661904Y-173066666D02*
X76861904Y-173066666D01*
X76976190Y-172990476D01*
X77052380Y-172914285D01*
X77090476Y-172838095D01*
X76836904Y-164296428D02*
X77408333Y-164296428D01*
X77522619Y-164258333D01*
X77598809Y-164182142D01*
X77636904Y-164067857D01*
X77636904Y-163991666D01*
X76836904Y-164601190D02*
X76836904Y-165096428D01*
X77141666Y-164829761D01*
X77141666Y-164944047D01*
X77179761Y-165020238D01*
X77217857Y-165058333D01*
X77294047Y-165096428D01*
X77484523Y-165096428D01*
X77560714Y-165058333D01*
X77598809Y-165020238D01*
X77636904Y-164944047D01*
X77636904Y-164715476D01*
X77598809Y-164639285D01*
X77560714Y-164601190D01*
X76836904Y-165591666D02*
X76836904Y-165667857D01*
X76875000Y-165744047D01*
X76913095Y-165782142D01*
X76989285Y-165820238D01*
X77141666Y-165858333D01*
X77332142Y-165858333D01*
X77484523Y-165820238D01*
X77560714Y-165782142D01*
X77598809Y-165744047D01*
X77636904Y-165667857D01*
X77636904Y-165591666D01*
X77598809Y-165515476D01*
X77560714Y-165477380D01*
X77484523Y-165439285D01*
X77332142Y-165401190D01*
X77141666Y-165401190D01*
X76989285Y-165439285D01*
X76913095Y-165477380D01*
X76875000Y-165515476D01*
X76836904Y-165591666D01*
X76836904Y-166353571D02*
X76836904Y-166429761D01*
X76875000Y-166505952D01*
X76913095Y-166544047D01*
X76989285Y-166582142D01*
X77141666Y-166620238D01*
X77332142Y-166620238D01*
X77484523Y-166582142D01*
X77560714Y-166544047D01*
X77598809Y-166505952D01*
X77636904Y-166429761D01*
X77636904Y-166353571D01*
X77598809Y-166277380D01*
X77560714Y-166239285D01*
X77484523Y-166201190D01*
X77332142Y-166163095D01*
X77141666Y-166163095D01*
X76989285Y-166201190D01*
X76913095Y-166239285D01*
X76875000Y-166277380D01*
X76836904Y-166353571D01*
D11*
X131698857Y-164349880D02*
X131627428Y-164373690D01*
X131508380Y-164373690D01*
X131460761Y-164349880D01*
X131436952Y-164326071D01*
X131413142Y-164278452D01*
X131413142Y-164230833D01*
X131436952Y-164183214D01*
X131460761Y-164159404D01*
X131508380Y-164135595D01*
X131603619Y-164111785D01*
X131651238Y-164087976D01*
X131675047Y-164064166D01*
X131698857Y-164016547D01*
X131698857Y-163968928D01*
X131675047Y-163921309D01*
X131651238Y-163897500D01*
X131603619Y-163873690D01*
X131484571Y-163873690D01*
X131413142Y-163897500D01*
X131246476Y-163873690D02*
X131127428Y-164373690D01*
X131032190Y-164016547D01*
X130936952Y-164373690D01*
X130817904Y-163873690D01*
X130365523Y-164373690D02*
X130651238Y-164373690D01*
X130508380Y-164373690D02*
X130508380Y-163873690D01*
X130556000Y-163945119D01*
X130603619Y-163992738D01*
X130651238Y-164016547D01*
X130056000Y-163873690D02*
X130008380Y-163873690D01*
X129960761Y-163897500D01*
X129936952Y-163921309D01*
X129913142Y-163968928D01*
X129889333Y-164064166D01*
X129889333Y-164183214D01*
X129913142Y-164278452D01*
X129936952Y-164326071D01*
X129960761Y-164349880D01*
X130008380Y-164373690D01*
X130056000Y-164373690D01*
X130103619Y-164349880D01*
X130127428Y-164326071D01*
X130151238Y-164278452D01*
X130175047Y-164183214D01*
X130175047Y-164064166D01*
X130151238Y-163968928D01*
X130127428Y-163921309D01*
X130103619Y-163897500D01*
X130056000Y-163873690D01*
X129413142Y-164373690D02*
X129698857Y-164373690D01*
X129556000Y-164373690D02*
X129556000Y-163873690D01*
X129603619Y-163945119D01*
X129651238Y-163992738D01*
X129698857Y-164016547D01*
X65404857Y-164540380D02*
X65333428Y-164564190D01*
X65214380Y-164564190D01*
X65166761Y-164540380D01*
X65142952Y-164516571D01*
X65119142Y-164468952D01*
X65119142Y-164421333D01*
X65142952Y-164373714D01*
X65166761Y-164349904D01*
X65214380Y-164326095D01*
X65309619Y-164302285D01*
X65357238Y-164278476D01*
X65381047Y-164254666D01*
X65404857Y-164207047D01*
X65404857Y-164159428D01*
X65381047Y-164111809D01*
X65357238Y-164088000D01*
X65309619Y-164064190D01*
X65190571Y-164064190D01*
X65119142Y-164088000D01*
X64952476Y-164064190D02*
X64833428Y-164564190D01*
X64738190Y-164207047D01*
X64642952Y-164564190D01*
X64523904Y-164064190D01*
X64071523Y-164564190D02*
X64357238Y-164564190D01*
X64214380Y-164564190D02*
X64214380Y-164064190D01*
X64262000Y-164135619D01*
X64309619Y-164183238D01*
X64357238Y-164207047D01*
X63762000Y-164064190D02*
X63714380Y-164064190D01*
X63666761Y-164088000D01*
X63642952Y-164111809D01*
X63619142Y-164159428D01*
X63595333Y-164254666D01*
X63595333Y-164373714D01*
X63619142Y-164468952D01*
X63642952Y-164516571D01*
X63666761Y-164540380D01*
X63714380Y-164564190D01*
X63762000Y-164564190D01*
X63809619Y-164540380D01*
X63833428Y-164516571D01*
X63857238Y-164468952D01*
X63881047Y-164373714D01*
X63881047Y-164254666D01*
X63857238Y-164159428D01*
X63833428Y-164111809D01*
X63809619Y-164088000D01*
X63762000Y-164064190D01*
X63285809Y-164064190D02*
X63238190Y-164064190D01*
X63190571Y-164088000D01*
X63166761Y-164111809D01*
X63142952Y-164159428D01*
X63119142Y-164254666D01*
X63119142Y-164373714D01*
X63142952Y-164468952D01*
X63166761Y-164516571D01*
X63190571Y-164540380D01*
X63238190Y-164564190D01*
X63285809Y-164564190D01*
X63333428Y-164540380D01*
X63357238Y-164516571D01*
X63381047Y-164468952D01*
X63404857Y-164373714D01*
X63404857Y-164254666D01*
X63381047Y-164159428D01*
X63357238Y-164111809D01*
X63333428Y-164088000D01*
X63285809Y-164064190D01*
M02*
