%TF.GenerationSoftware,KiCad,Pcbnew,(5.1.10)-1*%
%TF.CreationDate,2021-12-10T15:36:21-05:00*%
%TF.ProjectId,backplane,6261636b-706c-4616-9e65-2e6b69636164,rev?*%
%TF.SameCoordinates,Original*%
%TF.FileFunction,Legend,Top*%
%TF.FilePolarity,Positive*%
%FSLAX46Y46*%
G04 Gerber Fmt 4.6, Leading zero omitted, Abs format (unit mm)*
G04 Created by KiCad (PCBNEW (5.1.10)-1) date 2021-12-10 15:36:21*
%MOMM*%
%LPD*%
G01*
G04 APERTURE LIST*
%ADD10C,0.200000*%
%ADD11C,0.100000*%
%ADD12C,0.120000*%
%ADD13C,0.254000*%
%ADD14C,0.010000*%
%ADD15C,0.150000*%
%ADD16C,0.125000*%
G04 APERTURE END LIST*
D10*
X368095Y73647619D02*
X368095Y74647619D01*
X749047Y74647619D01*
X844285Y74600000D01*
X891904Y74552380D01*
X939523Y74457142D01*
X939523Y74314285D01*
X891904Y74219047D01*
X844285Y74171428D01*
X749047Y74123809D01*
X368095Y74123809D01*
X1272857Y74647619D02*
X1510952Y73647619D01*
X1701428Y74361904D01*
X1891904Y73647619D01*
X2130000Y74647619D01*
X2463333Y73933333D02*
X2939523Y73933333D01*
X2368095Y73647619D02*
X2701428Y74647619D01*
X3034761Y73647619D01*
X4701428Y73742857D02*
X4653809Y73695238D01*
X4510952Y73647619D01*
X4415714Y73647619D01*
X4272857Y73695238D01*
X4177619Y73790476D01*
X4130000Y73885714D01*
X4082380Y74076190D01*
X4082380Y74219047D01*
X4130000Y74409523D01*
X4177619Y74504761D01*
X4272857Y74600000D01*
X4415714Y74647619D01*
X4510952Y74647619D01*
X4653809Y74600000D01*
X4701428Y74552380D01*
X5130000Y74647619D02*
X5130000Y73838095D01*
X5177619Y73742857D01*
X5225238Y73695238D01*
X5320476Y73647619D01*
X5510952Y73647619D01*
X5606190Y73695238D01*
X5653809Y73742857D01*
X5701428Y73838095D01*
X5701428Y74647619D01*
X6510952Y74171428D02*
X6653809Y74123809D01*
X6701428Y74076190D01*
X6749047Y73980952D01*
X6749047Y73838095D01*
X6701428Y73742857D01*
X6653809Y73695238D01*
X6558571Y73647619D01*
X6177619Y73647619D01*
X6177619Y74647619D01*
X6510952Y74647619D01*
X6606190Y74600000D01*
X6653809Y74552380D01*
X6701428Y74457142D01*
X6701428Y74361904D01*
X6653809Y74266666D01*
X6606190Y74219047D01*
X6510952Y74171428D01*
X6177619Y74171428D01*
X7177619Y74171428D02*
X7510952Y74171428D01*
X7653809Y73647619D02*
X7177619Y73647619D01*
X7177619Y74647619D01*
X7653809Y74647619D01*
X8034761Y73695238D02*
X8177619Y73647619D01*
X8415714Y73647619D01*
X8510952Y73695238D01*
X8558571Y73742857D01*
X8606190Y73838095D01*
X8606190Y73933333D01*
X8558571Y74028571D01*
X8510952Y74076190D01*
X8415714Y74123809D01*
X8225238Y74171428D01*
X8130000Y74219047D01*
X8082380Y74266666D01*
X8034761Y74361904D01*
X8034761Y74457142D01*
X8082380Y74552380D01*
X8130000Y74600000D01*
X8225238Y74647619D01*
X8463333Y74647619D01*
X8606190Y74600000D01*
X8987142Y73933333D02*
X9463333Y73933333D01*
X8891904Y73647619D02*
X9225238Y74647619D01*
X9558571Y73647619D01*
X9749047Y74647619D02*
X10320476Y74647619D01*
X10034761Y73647619D02*
X10034761Y74647619D01*
X11749047Y74171428D02*
X11891904Y74123809D01*
X11939523Y74076190D01*
X11987142Y73980952D01*
X11987142Y73838095D01*
X11939523Y73742857D01*
X11891904Y73695238D01*
X11796666Y73647619D01*
X11415714Y73647619D01*
X11415714Y74647619D01*
X11749047Y74647619D01*
X11844285Y74600000D01*
X11891904Y74552380D01*
X11939523Y74457142D01*
X11939523Y74361904D01*
X11891904Y74266666D01*
X11844285Y74219047D01*
X11749047Y74171428D01*
X11415714Y74171428D01*
X12368095Y73933333D02*
X12844285Y73933333D01*
X12272857Y73647619D02*
X12606190Y74647619D01*
X12939523Y73647619D01*
X13844285Y73742857D02*
X13796666Y73695238D01*
X13653809Y73647619D01*
X13558571Y73647619D01*
X13415714Y73695238D01*
X13320476Y73790476D01*
X13272857Y73885714D01*
X13225238Y74076190D01*
X13225238Y74219047D01*
X13272857Y74409523D01*
X13320476Y74504761D01*
X13415714Y74600000D01*
X13558571Y74647619D01*
X13653809Y74647619D01*
X13796666Y74600000D01*
X13844285Y74552380D01*
X14272857Y73647619D02*
X14272857Y74647619D01*
X14844285Y73647619D02*
X14415714Y74219047D01*
X14844285Y74647619D02*
X14272857Y74076190D01*
X15272857Y73647619D02*
X15272857Y74647619D01*
X15653809Y74647619D01*
X15749047Y74600000D01*
X15796666Y74552380D01*
X15844285Y74457142D01*
X15844285Y74314285D01*
X15796666Y74219047D01*
X15749047Y74171428D01*
X15653809Y74123809D01*
X15272857Y74123809D01*
X16749047Y73647619D02*
X16272857Y73647619D01*
X16272857Y74647619D01*
X17034761Y73933333D02*
X17510952Y73933333D01*
X16939523Y73647619D02*
X17272857Y74647619D01*
X17606190Y73647619D01*
X17939523Y73647619D02*
X17939523Y74647619D01*
X18510952Y73647619D01*
X18510952Y74647619D01*
X18987142Y74171428D02*
X19320476Y74171428D01*
X19463333Y73647619D02*
X18987142Y73647619D01*
X18987142Y74647619D01*
X19463333Y74647619D01*
X368095Y71947619D02*
X368095Y72947619D01*
X749047Y72947619D01*
X844285Y72900000D01*
X891904Y72852380D01*
X939523Y72757142D01*
X939523Y72614285D01*
X891904Y72519047D01*
X844285Y72471428D01*
X749047Y72423809D01*
X368095Y72423809D01*
X2082380Y72995238D02*
X1225238Y71709523D01*
X2415714Y71947619D02*
X2415714Y72947619D01*
X2987142Y71947619D01*
X2987142Y72947619D01*
X3463333Y72042857D02*
X3510952Y71995238D01*
X3463333Y71947619D01*
X3415714Y71995238D01*
X3463333Y72042857D01*
X3463333Y71947619D01*
X3463333Y72566666D02*
X3510952Y72519047D01*
X3463333Y72471428D01*
X3415714Y72519047D01*
X3463333Y72566666D01*
X3463333Y72471428D01*
X4653809Y71995238D02*
X4796666Y71947619D01*
X5034761Y71947619D01*
X5130000Y71995238D01*
X5177619Y72042857D01*
X5225238Y72138095D01*
X5225238Y72233333D01*
X5177619Y72328571D01*
X5130000Y72376190D01*
X5034761Y72423809D01*
X4844285Y72471428D01*
X4749047Y72519047D01*
X4701428Y72566666D01*
X4653809Y72661904D01*
X4653809Y72757142D01*
X4701428Y72852380D01*
X4749047Y72900000D01*
X4844285Y72947619D01*
X5082380Y72947619D01*
X5225238Y72900000D01*
X6130000Y71947619D02*
X5653809Y71947619D01*
X5653809Y72947619D01*
X6463333Y71947619D02*
X6463333Y72947619D01*
X6939523Y72328571D02*
X7701428Y72328571D01*
X8368095Y72947619D02*
X8558571Y72947619D01*
X8653809Y72900000D01*
X8749047Y72804761D01*
X8796666Y72614285D01*
X8796666Y72280952D01*
X8749047Y72090476D01*
X8653809Y71995238D01*
X8558571Y71947619D01*
X8368095Y71947619D01*
X8272857Y71995238D01*
X8177619Y72090476D01*
X8129999Y72280952D01*
X8129999Y72614285D01*
X8177619Y72804761D01*
X8272857Y72900000D01*
X8368095Y72947619D01*
X9177619Y71995238D02*
X9320476Y71947619D01*
X9558571Y71947619D01*
X9653809Y71995238D01*
X9701428Y72042857D01*
X9749047Y72138095D01*
X9749047Y72233333D01*
X9701428Y72328571D01*
X9653809Y72376190D01*
X9558571Y72423809D01*
X9368095Y72471428D01*
X9272857Y72519047D01*
X9225238Y72566666D01*
X9177619Y72661904D01*
X9177619Y72757142D01*
X9225238Y72852380D01*
X9272857Y72900000D01*
X9368095Y72947619D01*
X9606190Y72947619D01*
X9749047Y72900000D01*
X10177619Y72328571D02*
X10939523Y72328571D01*
X11749047Y72471428D02*
X11891904Y72423809D01*
X11939523Y72376190D01*
X11987142Y72280952D01*
X11987142Y72138095D01*
X11939523Y72042857D01*
X11891904Y71995238D01*
X11796666Y71947619D01*
X11415714Y71947619D01*
X11415714Y72947619D01*
X11749047Y72947619D01*
X11844285Y72900000D01*
X11891904Y72852380D01*
X11939523Y72757142D01*
X11939523Y72661904D01*
X11891904Y72566666D01*
X11844285Y72519047D01*
X11749047Y72471428D01*
X11415714Y72471428D01*
X12415714Y71947619D02*
X12415714Y72947619D01*
X12796666Y72947619D01*
X12891904Y72900000D01*
X12939523Y72852380D01*
X12987142Y72757142D01*
X12987142Y72614285D01*
X12939523Y72519047D01*
X12891904Y72471428D01*
X12796666Y72423809D01*
X12415714Y72423809D01*
X13415714Y72328571D02*
X14177619Y72328571D01*
X14844285Y72947619D02*
X14939523Y72947619D01*
X15034761Y72900000D01*
X15082380Y72852380D01*
X15130000Y72757142D01*
X15177619Y72566666D01*
X15177619Y72328571D01*
X15130000Y72138095D01*
X15082380Y72042857D01*
X15034761Y71995238D01*
X14939523Y71947619D01*
X14844285Y71947619D01*
X14749047Y71995238D01*
X14701428Y72042857D01*
X14653809Y72138095D01*
X14606190Y72328571D01*
X14606190Y72566666D01*
X14653809Y72757142D01*
X14701428Y72852380D01*
X14749047Y72900000D01*
X14844285Y72947619D01*
X15796666Y72947619D02*
X15891904Y72947619D01*
X15987142Y72900000D01*
X16034761Y72852380D01*
X16082380Y72757142D01*
X16129999Y72566666D01*
X16129999Y72328571D01*
X16082380Y72138095D01*
X16034761Y72042857D01*
X15987142Y71995238D01*
X15891904Y71947619D01*
X15796666Y71947619D01*
X15701428Y71995238D01*
X15653809Y72042857D01*
X15606190Y72138095D01*
X15558571Y72328571D01*
X15558571Y72566666D01*
X15606190Y72757142D01*
X15653809Y72852380D01*
X15701428Y72900000D01*
X15796666Y72947619D01*
X17082380Y71947619D02*
X16510952Y71947619D01*
X16796666Y71947619D02*
X16796666Y72947619D01*
X16701428Y72804761D01*
X16606190Y72709523D01*
X16510952Y72661904D01*
X939523Y70247619D02*
X606190Y70723809D01*
X368095Y70247619D02*
X368095Y71247619D01*
X749047Y71247619D01*
X844285Y71200000D01*
X891904Y71152380D01*
X939523Y71057142D01*
X939523Y70914285D01*
X891904Y70819047D01*
X844285Y70771428D01*
X749047Y70723809D01*
X368095Y70723809D01*
X1368095Y70771428D02*
X1701428Y70771428D01*
X1844285Y70247619D02*
X1368095Y70247619D01*
X1368095Y71247619D01*
X1844285Y71247619D01*
X2129999Y71247619D02*
X2463333Y70247619D01*
X2796666Y71247619D01*
X3129999Y70342857D02*
X3177619Y70295238D01*
X3129999Y70247619D01*
X3082380Y70295238D01*
X3129999Y70342857D01*
X3129999Y70247619D01*
X3129999Y70866666D02*
X3177619Y70819047D01*
X3129999Y70771428D01*
X3082380Y70819047D01*
X3129999Y70866666D01*
X3129999Y70771428D01*
X4320476Y70533333D02*
X4796666Y70533333D01*
X4225238Y70247619D02*
X4558571Y71247619D01*
X4891904Y70247619D01*
X5749047Y70247619D02*
X5177619Y70247619D01*
X5463333Y70247619D02*
X5463333Y71247619D01*
X5368095Y71104761D01*
X5272857Y71009523D01*
X5177619Y70961904D01*
D11*
X-35880952Y23214285D02*
X-35500000Y23214285D01*
X-35690476Y23023809D02*
X-35690476Y23404761D01*
X-35309523Y23523809D02*
X-34976190Y23023809D01*
X-34976190Y23523809D02*
X-35309523Y23023809D01*
X-34428571Y23047619D02*
X-34357142Y23023809D01*
X-34238095Y23023809D01*
X-34190476Y23047619D01*
X-34166666Y23071428D01*
X-34142857Y23119047D01*
X-34142857Y23166666D01*
X-34166666Y23214285D01*
X-34190476Y23238095D01*
X-34238095Y23261904D01*
X-34333333Y23285714D01*
X-34380952Y23309523D01*
X-34404761Y23333333D01*
X-34428571Y23380952D01*
X-34428571Y23428571D01*
X-34404761Y23476190D01*
X-34380952Y23500000D01*
X-34333333Y23523809D01*
X-34214285Y23523809D01*
X-34142857Y23500000D01*
X-33833333Y23523809D02*
X-33738095Y23523809D01*
X-33690476Y23500000D01*
X-33642857Y23452380D01*
X-33619047Y23357142D01*
X-33619047Y23190476D01*
X-33642857Y23095238D01*
X-33690476Y23047619D01*
X-33738095Y23023809D01*
X-33833333Y23023809D01*
X-33880952Y23047619D01*
X-33928571Y23095238D01*
X-33952380Y23190476D01*
X-33952380Y23357142D01*
X-33928571Y23452380D01*
X-33880952Y23500000D01*
X-33833333Y23523809D01*
X-33166666Y23023809D02*
X-33404761Y23023809D01*
X-33404761Y23523809D01*
X-33023809Y23166666D02*
X-32785714Y23166666D01*
X-33071428Y23023809D02*
X-32904761Y23523809D01*
X-32738095Y23023809D01*
X-32285714Y23023809D02*
X-32452380Y23261904D01*
X-32571428Y23023809D02*
X-32571428Y23523809D01*
X-32380952Y23523809D01*
X-32333333Y23500000D01*
X-32309523Y23476190D01*
X-32285714Y23428571D01*
X-32285714Y23357142D01*
X-32309523Y23309523D01*
X-32333333Y23285714D01*
X-32380952Y23261904D01*
X-32571428Y23261904D01*
X-31690476Y23023809D02*
X-31690476Y23523809D01*
X-31500000Y23523809D01*
X-31452380Y23500000D01*
X-31428571Y23476190D01*
X-31404761Y23428571D01*
X-31404761Y23357142D01*
X-31428571Y23309523D01*
X-31452380Y23285714D01*
X-31500000Y23261904D01*
X-31690476Y23261904D01*
X-31214285Y23166666D02*
X-30976190Y23166666D01*
X-31261904Y23023809D02*
X-31095238Y23523809D01*
X-30928571Y23023809D01*
X-30761904Y23023809D02*
X-30761904Y23523809D01*
X-30476190Y23023809D01*
X-30476190Y23523809D01*
X-30238095Y23285714D02*
X-30071428Y23285714D01*
X-30000000Y23023809D02*
X-30238095Y23023809D01*
X-30238095Y23523809D01*
X-30000000Y23523809D01*
X-29547619Y23023809D02*
X-29785714Y23023809D01*
X-29785714Y23523809D01*
X29142857Y24464285D02*
X29523809Y24464285D01*
X29333333Y24273809D02*
X29333333Y24654761D01*
X29857142Y24511904D02*
X29857142Y24273809D01*
X29690476Y24773809D02*
X29857142Y24511904D01*
X30023809Y24773809D01*
X30547619Y24297619D02*
X30619047Y24273809D01*
X30738095Y24273809D01*
X30785714Y24297619D01*
X30809523Y24321428D01*
X30833333Y24369047D01*
X30833333Y24416666D01*
X30809523Y24464285D01*
X30785714Y24488095D01*
X30738095Y24511904D01*
X30642857Y24535714D01*
X30595238Y24559523D01*
X30571428Y24583333D01*
X30547619Y24630952D01*
X30547619Y24678571D01*
X30571428Y24726190D01*
X30595238Y24750000D01*
X30642857Y24773809D01*
X30761904Y24773809D01*
X30833333Y24750000D01*
X31142857Y24773809D02*
X31238095Y24773809D01*
X31285714Y24750000D01*
X31333333Y24702380D01*
X31357142Y24607142D01*
X31357142Y24440476D01*
X31333333Y24345238D01*
X31285714Y24297619D01*
X31238095Y24273809D01*
X31142857Y24273809D01*
X31095238Y24297619D01*
X31047619Y24345238D01*
X31023809Y24440476D01*
X31023809Y24607142D01*
X31047619Y24702380D01*
X31095238Y24750000D01*
X31142857Y24773809D01*
X31809523Y24273809D02*
X31571428Y24273809D01*
X31571428Y24773809D01*
X31952380Y24416666D02*
X32190476Y24416666D01*
X31904761Y24273809D02*
X32071428Y24773809D01*
X32238095Y24273809D01*
X32690476Y24273809D02*
X32523809Y24511904D01*
X32404761Y24273809D02*
X32404761Y24773809D01*
X32595238Y24773809D01*
X32642857Y24750000D01*
X32666666Y24726190D01*
X32690476Y24678571D01*
X32690476Y24607142D01*
X32666666Y24559523D01*
X32642857Y24535714D01*
X32595238Y24511904D01*
X32404761Y24511904D01*
X33285714Y24273809D02*
X33285714Y24773809D01*
X33476190Y24773809D01*
X33523809Y24750000D01*
X33547619Y24726190D01*
X33571428Y24678571D01*
X33571428Y24607142D01*
X33547619Y24559523D01*
X33523809Y24535714D01*
X33476190Y24511904D01*
X33285714Y24511904D01*
X33761904Y24416666D02*
X34000000Y24416666D01*
X33714285Y24273809D02*
X33880952Y24773809D01*
X34047619Y24273809D01*
X34214285Y24273809D02*
X34214285Y24773809D01*
X34500000Y24273809D01*
X34500000Y24773809D01*
X34738095Y24535714D02*
X34904761Y24535714D01*
X34976190Y24273809D02*
X34738095Y24273809D01*
X34738095Y24773809D01*
X34976190Y24773809D01*
X35428571Y24273809D02*
X35190476Y24273809D01*
X35190476Y24773809D01*
X29369047Y113964285D02*
X29750000Y113964285D01*
X29940476Y114273809D02*
X30273809Y113773809D01*
X30273809Y114273809D02*
X29940476Y113773809D01*
X30821428Y113797619D02*
X30892857Y113773809D01*
X31011904Y113773809D01*
X31059523Y113797619D01*
X31083333Y113821428D01*
X31107142Y113869047D01*
X31107142Y113916666D01*
X31083333Y113964285D01*
X31059523Y113988095D01*
X31011904Y114011904D01*
X30916666Y114035714D01*
X30869047Y114059523D01*
X30845238Y114083333D01*
X30821428Y114130952D01*
X30821428Y114178571D01*
X30845238Y114226190D01*
X30869047Y114250000D01*
X30916666Y114273809D01*
X31035714Y114273809D01*
X31107142Y114250000D01*
X31416666Y114273809D02*
X31511904Y114273809D01*
X31559523Y114250000D01*
X31607142Y114202380D01*
X31630952Y114107142D01*
X31630952Y113940476D01*
X31607142Y113845238D01*
X31559523Y113797619D01*
X31511904Y113773809D01*
X31416666Y113773809D01*
X31369047Y113797619D01*
X31321428Y113845238D01*
X31297619Y113940476D01*
X31297619Y114107142D01*
X31321428Y114202380D01*
X31369047Y114250000D01*
X31416666Y114273809D01*
X32083333Y113773809D02*
X31845238Y113773809D01*
X31845238Y114273809D01*
X32226190Y113916666D02*
X32464285Y113916666D01*
X32178571Y113773809D02*
X32345238Y114273809D01*
X32511904Y113773809D01*
X32964285Y113773809D02*
X32797619Y114011904D01*
X32678571Y113773809D02*
X32678571Y114273809D01*
X32869047Y114273809D01*
X32916666Y114250000D01*
X32940476Y114226190D01*
X32964285Y114178571D01*
X32964285Y114107142D01*
X32940476Y114059523D01*
X32916666Y114035714D01*
X32869047Y114011904D01*
X32678571Y114011904D01*
X33559523Y113773809D02*
X33559523Y114273809D01*
X33750000Y114273809D01*
X33797619Y114250000D01*
X33821428Y114226190D01*
X33845238Y114178571D01*
X33845238Y114107142D01*
X33821428Y114059523D01*
X33797619Y114035714D01*
X33750000Y114011904D01*
X33559523Y114011904D01*
X34035714Y113916666D02*
X34273809Y113916666D01*
X33988095Y113773809D02*
X34154761Y114273809D01*
X34321428Y113773809D01*
X34488095Y113773809D02*
X34488095Y114273809D01*
X34773809Y113773809D01*
X34773809Y114273809D01*
X35011904Y114035714D02*
X35178571Y114035714D01*
X35250000Y113773809D02*
X35011904Y113773809D01*
X35011904Y114273809D01*
X35250000Y114273809D01*
X35702380Y113773809D02*
X35464285Y113773809D01*
X35464285Y114273809D01*
D12*
%TO.C,R609*%
X-3301000Y134646641D02*
X-3301000Y134339359D01*
X-2541000Y134646641D02*
X-2541000Y134339359D01*
%TO.C,R608*%
X-3529359Y136778000D02*
X-3836641Y136778000D01*
X-3529359Y136018000D02*
X-3836641Y136018000D01*
%TO.C,Q603*%
X-5859000Y134681000D02*
X-5859000Y133271000D01*
X-3539000Y133271000D02*
X-3539000Y135301000D01*
X-3539000Y133271000D02*
X-4199000Y133271000D01*
X-5199000Y133271000D02*
X-5859000Y133271000D01*
D13*
%TO.C,J200_8*%
X-28400000Y122500000D02*
X-28400000Y129000000D01*
X-26900000Y121000000D02*
X-28400000Y122500000D01*
X-25800000Y121000000D02*
X-26900000Y121000000D01*
X28400000Y121000000D02*
X25800000Y121000000D01*
X28400000Y129000000D02*
X28400000Y121000000D01*
X25800000Y129000000D02*
X28400000Y129000000D01*
X-28400000Y129000000D02*
X-25800000Y129000000D01*
%TO.C,J200_7*%
X-28400000Y107500000D02*
X-28400000Y114000000D01*
X-26900000Y106000000D02*
X-28400000Y107500000D01*
X-25800000Y106000000D02*
X-26900000Y106000000D01*
X28400000Y106000000D02*
X25800000Y106000000D01*
X28400000Y114000000D02*
X28400000Y106000000D01*
X25800000Y114000000D02*
X28400000Y114000000D01*
X-28400000Y114000000D02*
X-25800000Y114000000D01*
%TO.C,J200_6*%
X-28400000Y92500000D02*
X-28400000Y99000000D01*
X-26900000Y91000000D02*
X-28400000Y92500000D01*
X-25800000Y91000000D02*
X-26900000Y91000000D01*
X28400000Y91000000D02*
X25800000Y91000000D01*
X28400000Y99000000D02*
X28400000Y91000000D01*
X25800000Y99000000D02*
X28400000Y99000000D01*
X-28400000Y99000000D02*
X-25800000Y99000000D01*
%TO.C,J200_5*%
X-28400000Y77500000D02*
X-28400000Y84000000D01*
X-26900000Y76000000D02*
X-28400000Y77500000D01*
X-25800000Y76000000D02*
X-26900000Y76000000D01*
X28400000Y76000000D02*
X25800000Y76000000D01*
X28400000Y84000000D02*
X28400000Y76000000D01*
X25800000Y84000000D02*
X28400000Y84000000D01*
X-28400000Y84000000D02*
X-25800000Y84000000D01*
%TO.C,J200_4*%
X-28400000Y62500000D02*
X-28400000Y69000000D01*
X-26900000Y61000000D02*
X-28400000Y62500000D01*
X-25800000Y61000000D02*
X-26900000Y61000000D01*
X28400000Y61000000D02*
X25800000Y61000000D01*
X28400000Y69000000D02*
X28400000Y61000000D01*
X25800000Y69000000D02*
X28400000Y69000000D01*
X-28400000Y69000000D02*
X-25800000Y69000000D01*
%TO.C,J200_3*%
X-28400000Y47500000D02*
X-28400000Y54000000D01*
X-26900000Y46000000D02*
X-28400000Y47500000D01*
X-25800000Y46000000D02*
X-26900000Y46000000D01*
X28400000Y46000000D02*
X25800000Y46000000D01*
X28400000Y54000000D02*
X28400000Y46000000D01*
X25800000Y54000000D02*
X28400000Y54000000D01*
X-28400000Y54000000D02*
X-25800000Y54000000D01*
%TO.C,J200_2*%
X-28400000Y32500000D02*
X-28400000Y39000000D01*
X-26900000Y31000000D02*
X-28400000Y32500000D01*
X-25800000Y31000000D02*
X-26900000Y31000000D01*
X28400000Y31000000D02*
X25800000Y31000000D01*
X28400000Y39000000D02*
X28400000Y31000000D01*
X25800000Y39000000D02*
X28400000Y39000000D01*
X-28400000Y39000000D02*
X-25800000Y39000000D01*
%TO.C,J200_1*%
X-28400000Y17500000D02*
X-28400000Y24000000D01*
X-26900000Y16000000D02*
X-28400000Y17500000D01*
X-25800000Y16000000D02*
X-26900000Y16000000D01*
X28400000Y16000000D02*
X25800000Y16000000D01*
X28400000Y24000000D02*
X28400000Y16000000D01*
X25800000Y24000000D02*
X28400000Y24000000D01*
X-28400000Y24000000D02*
X-25800000Y24000000D01*
%TO.C,J107*%
X37041000Y26600000D02*
G75*
G03*
X37041000Y26600000I-141000J0D01*
G01*
D12*
X27200000Y27475000D02*
X28525000Y27475000D01*
X37800000Y27475000D02*
X36475000Y27475000D01*
X36000000Y30900000D02*
X29000000Y30900000D01*
D13*
%TO.C,J106*%
X37141000Y116500000D02*
G75*
G03*
X37141000Y116500000I-141000J0D01*
G01*
D12*
X27300000Y117375000D02*
X28625000Y117375000D01*
X37900000Y117375000D02*
X36575000Y117375000D01*
X36100000Y120800000D02*
X29100000Y120800000D01*
D13*
%TO.C,J105*%
X-27959000Y25350000D02*
G75*
G03*
X-27959000Y25350000I-141000J0D01*
G01*
D12*
X-37800000Y26225000D02*
X-36475000Y26225000D01*
X-27200000Y26225000D02*
X-28525000Y26225000D01*
X-29000000Y29650000D02*
X-36000000Y29650000D01*
%TO.C,J100*%
X-10200000Y6900000D02*
X10200000Y6900000D01*
X-10863000Y12000000D02*
X-9573000Y12000000D01*
X9500000Y11950000D02*
X10825000Y11950000D01*
X-10200000Y6900000D02*
X-10200000Y7400000D01*
X10200000Y6900000D02*
X10200000Y7400000D01*
%TO.C,D600_8*%
X-32530000Y122609000D02*
X-32530000Y120009000D01*
X-31130000Y122609000D02*
X-32630000Y122609000D01*
X-31130000Y120009000D02*
X-32630000Y120009000D01*
X-32630000Y122609000D02*
X-32630000Y120009000D01*
%TO.C,D600_7*%
X-32530000Y107609000D02*
X-32530000Y105009000D01*
X-31130000Y107609000D02*
X-32630000Y107609000D01*
X-31130000Y105009000D02*
X-32630000Y105009000D01*
X-32630000Y107609000D02*
X-32630000Y105009000D01*
%TO.C,D600_6*%
X-32530000Y92609000D02*
X-32530000Y90009000D01*
X-31130000Y92609000D02*
X-32630000Y92609000D01*
X-31130000Y90009000D02*
X-32630000Y90009000D01*
X-32630000Y92609000D02*
X-32630000Y90009000D01*
%TO.C,D600_5*%
X-32530000Y77610000D02*
X-32530000Y75010000D01*
X-31130000Y77610000D02*
X-32630000Y77610000D01*
X-31130000Y75010000D02*
X-32630000Y75010000D01*
X-32630000Y77610000D02*
X-32630000Y75010000D01*
%TO.C,D600_4*%
X-32530000Y62610000D02*
X-32530000Y60010000D01*
X-31130000Y62610000D02*
X-32630000Y62610000D01*
X-31130000Y60010000D02*
X-32630000Y60010000D01*
X-32630000Y62610000D02*
X-32630000Y60010000D01*
%TO.C,D600_3*%
X-32530000Y47610000D02*
X-32530000Y45010000D01*
X-31130000Y47610000D02*
X-32630000Y47610000D01*
X-31130000Y45010000D02*
X-32630000Y45010000D01*
X-32630000Y47610000D02*
X-32630000Y45010000D01*
%TO.C,D600_2*%
X-32530000Y32610000D02*
X-32530000Y30010000D01*
X-31130000Y32610000D02*
X-32630000Y32610000D01*
X-31130000Y30010000D02*
X-32630000Y30010000D01*
X-32630000Y32610000D02*
X-32630000Y30010000D01*
%TO.C,D600_1*%
X-32530000Y17610000D02*
X-32530000Y15010000D01*
X-31130000Y17610000D02*
X-32630000Y17610000D01*
X-31130000Y15010000D02*
X-32630000Y15010000D01*
X-32630000Y17610000D02*
X-32630000Y15010000D01*
%TO.C,U601*%
X-17669000Y134761500D02*
X-17194000Y134761500D01*
X-17194000Y134761500D02*
X-17194000Y134286500D01*
X-20939000Y130541500D02*
X-21414000Y130541500D01*
X-21414000Y130541500D02*
X-21414000Y131016500D01*
X-17669000Y130541500D02*
X-17194000Y130541500D01*
X-17194000Y130541500D02*
X-17194000Y131016500D01*
X-20939000Y134761500D02*
X-21414000Y134761500D01*
%TO.C,U600*%
X-24781000Y134761500D02*
X-24306000Y134761500D01*
X-24306000Y134761500D02*
X-24306000Y134286500D01*
X-28051000Y130541500D02*
X-28526000Y130541500D01*
X-28526000Y130541500D02*
X-28526000Y131016500D01*
X-24781000Y130541500D02*
X-24306000Y130541500D01*
X-24306000Y130541500D02*
X-24306000Y131016500D01*
X-28051000Y134761500D02*
X-28526000Y134761500D01*
%TO.C,R607*%
X-6478000Y136678641D02*
X-6478000Y136371359D01*
X-7238000Y136678641D02*
X-7238000Y136371359D01*
%TO.C,R606*%
X-9272000Y136678641D02*
X-9272000Y136371359D01*
X-10032000Y136678641D02*
X-10032000Y136371359D01*
%TO.C,R605*%
X-12066000Y136678641D02*
X-12066000Y136371359D01*
X-12826000Y136678641D02*
X-12826000Y136371359D01*
%TO.C,R604*%
X-6970500Y131111258D02*
X-6970500Y130636742D01*
X-8015500Y131111258D02*
X-8015500Y130636742D01*
%TO.C,R603*%
X-10809500Y131111258D02*
X-10809500Y130636742D01*
X-9764500Y131111258D02*
X-9764500Y130636742D01*
%TO.C,R602*%
X-12558500Y131111258D02*
X-12558500Y130636742D01*
X-13603500Y131111258D02*
X-13603500Y130636742D01*
%TO.C,R601*%
X-16270500Y134699742D02*
X-16270500Y135174258D01*
X-15225500Y134699742D02*
X-15225500Y135174258D01*
%TO.C,R600*%
X-23382500Y134763742D02*
X-23382500Y135238258D01*
X-22337500Y134763742D02*
X-22337500Y135238258D01*
%TO.C,Q602*%
X-7993000Y133255000D02*
X-8653000Y133255000D01*
X-6333000Y133255000D02*
X-6993000Y133255000D01*
X-6333000Y133255000D02*
X-6333000Y135285000D01*
X-8653000Y134665000D02*
X-8653000Y133255000D01*
%TO.C,Q601*%
X-10787000Y133255000D02*
X-11447000Y133255000D01*
X-9127000Y133255000D02*
X-9787000Y133255000D01*
X-9127000Y133255000D02*
X-9127000Y135285000D01*
X-11447000Y134665000D02*
X-11447000Y133255000D01*
%TO.C,Q600*%
X-13581000Y133239000D02*
X-14241000Y133239000D01*
X-11921000Y133239000D02*
X-12581000Y133239000D01*
X-11921000Y133239000D02*
X-11921000Y135269000D01*
X-14241000Y134649000D02*
X-14241000Y133239000D01*
%TO.C,C601*%
X-19684420Y135634000D02*
X-19965580Y135634000D01*
X-19684420Y136654000D02*
X-19965580Y136654000D01*
%TO.C,C600*%
X-26796420Y135634000D02*
X-27077580Y135634000D01*
X-26796420Y136654000D02*
X-27077580Y136654000D01*
%TO.C,C105*%
X30892164Y70360000D02*
X31107836Y70360000D01*
X30892164Y69640000D02*
X31107836Y69640000D01*
%TO.C,C104*%
X30892164Y3360000D02*
X31107836Y3360000D01*
X30892164Y2640000D02*
X31107836Y2640000D01*
%TO.C,C103*%
X-30892164Y2640000D02*
X-31107836Y2640000D01*
X-30892164Y3360000D02*
X-31107836Y3360000D01*
%TO.C,C102*%
X-30892164Y69640000D02*
X-31107836Y69640000D01*
X-30892164Y70360000D02*
X-31107836Y70360000D01*
%TO.C,C100*%
X30892164Y135360000D02*
X31107836Y135360000D01*
X30892164Y134640000D02*
X31107836Y134640000D01*
%TO.C,C101*%
X-37260000Y131765164D02*
X-37260000Y131980836D01*
X-36540000Y131765164D02*
X-36540000Y131980836D01*
%TO.C,R100*%
X-37702500Y12337258D02*
X-37702500Y11862742D01*
X-38747500Y12337258D02*
X-38747500Y11862742D01*
D14*
%TO.C,G\u002A\u002A\u002A*%
G36*
X-9368159Y73827909D02*
G01*
X-9317371Y73775804D01*
X-9302599Y73745880D01*
X-9286763Y73676483D01*
X-9306386Y73617220D01*
X-9366374Y73560218D01*
X-9450100Y73509110D01*
X-9535288Y73469138D01*
X-9610303Y73445071D01*
X-9663541Y73439602D01*
X-9683400Y73454995D01*
X-9669718Y73482770D01*
X-9635692Y73534003D01*
X-9623960Y73550245D01*
X-9574190Y73628541D01*
X-9533707Y73709351D01*
X-9531576Y73714621D01*
X-9483588Y73796181D01*
X-9426340Y73834322D01*
X-9368159Y73827909D01*
G37*
X-9368159Y73827909D02*
X-9317371Y73775804D01*
X-9302599Y73745880D01*
X-9286763Y73676483D01*
X-9306386Y73617220D01*
X-9366374Y73560218D01*
X-9450100Y73509110D01*
X-9535288Y73469138D01*
X-9610303Y73445071D01*
X-9663541Y73439602D01*
X-9683400Y73454995D01*
X-9669718Y73482770D01*
X-9635692Y73534003D01*
X-9623960Y73550245D01*
X-9574190Y73628541D01*
X-9533707Y73709351D01*
X-9531576Y73714621D01*
X-9483588Y73796181D01*
X-9426340Y73834322D01*
X-9368159Y73827909D01*
G36*
X-9313875Y75867729D02*
G01*
X-9194713Y75713714D01*
X-9085286Y75573525D01*
X-8989462Y75452020D01*
X-8911112Y75354058D01*
X-8854102Y75284496D01*
X-8822303Y75248193D01*
X-8817206Y75244000D01*
X-8796121Y75261643D01*
X-8744753Y75311419D01*
X-8667773Y75388597D01*
X-8569850Y75488448D01*
X-8455655Y75606243D01*
X-8329861Y75737250D01*
X-8321833Y75745651D01*
X-8195553Y75877530D01*
X-8080789Y75996809D01*
X-7982189Y76098705D01*
X-7904395Y76178436D01*
X-7852055Y76231220D01*
X-7829812Y76252276D01*
X-7829536Y76252426D01*
X-7811864Y76234005D01*
X-7765668Y76179163D01*
X-7693792Y76091440D01*
X-7599081Y75974374D01*
X-7484377Y75831504D01*
X-7352524Y75666370D01*
X-7206367Y75482510D01*
X-7048748Y75283463D01*
X-6927500Y75129863D01*
X-6763216Y74921896D01*
X-6608224Y74726519D01*
X-6465378Y74547273D01*
X-6337532Y74387699D01*
X-6227538Y74251337D01*
X-6138250Y74141729D01*
X-6072521Y74062414D01*
X-6033204Y74016935D01*
X-6022814Y74007137D01*
X-6001068Y74027442D01*
X-5954103Y74078702D01*
X-5889180Y74152808D01*
X-5825049Y74228000D01*
X-5749770Y74314821D01*
X-5685032Y74384964D01*
X-5638423Y74430490D01*
X-5618721Y74443900D01*
X-5601007Y74424270D01*
X-5554822Y74367486D01*
X-5482605Y74276706D01*
X-5386795Y74155092D01*
X-5269830Y74005801D01*
X-5134150Y73831994D01*
X-4982193Y73636831D01*
X-4816398Y73423470D01*
X-4639205Y73195072D01*
X-4453053Y72954796D01*
X-4260379Y72705800D01*
X-4063624Y72451246D01*
X-3865226Y72194292D01*
X-3667625Y71938097D01*
X-3473258Y71685822D01*
X-3284565Y71440626D01*
X-3103985Y71205668D01*
X-2933957Y70984109D01*
X-2776920Y70779106D01*
X-2635313Y70593820D01*
X-2511574Y70431411D01*
X-2408143Y70295038D01*
X-2327459Y70187860D01*
X-2271960Y70113037D01*
X-2244086Y70073728D01*
X-2241200Y70068520D01*
X-2266109Y70066974D01*
X-2338866Y70065625D01*
X-2456523Y70064476D01*
X-2616129Y70063532D01*
X-2814734Y70062793D01*
X-3049388Y70062264D01*
X-3317140Y70061948D01*
X-3615042Y70061846D01*
X-3940141Y70061963D01*
X-4289488Y70062302D01*
X-4660134Y70062864D01*
X-5049127Y70063654D01*
X-5453518Y70064673D01*
X-5615918Y70065137D01*
X-8990636Y70075100D01*
X-9006818Y70339402D01*
X-9014227Y70488137D01*
X-9019853Y70653852D01*
X-9022781Y70807632D01*
X-9023000Y70851938D01*
X-9017992Y71000416D01*
X-8999745Y71102360D01*
X-8963426Y71161333D01*
X-8904200Y71180901D01*
X-8817235Y71164628D01*
X-8697697Y71116080D01*
X-8677591Y71106675D01*
X-8522682Y71033391D01*
X-8523425Y71278146D01*
X-8505071Y71525163D01*
X-8449184Y71738292D01*
X-8356926Y71916559D01*
X-8229457Y72058991D01*
X-8067939Y72164615D01*
X-7873533Y72232457D01*
X-7647398Y72261544D01*
X-7390698Y72250904D01*
X-7366339Y72247990D01*
X-7249390Y72235295D01*
X-7167826Y72232550D01*
X-7107134Y72240176D01*
X-7056686Y72256950D01*
X-6979951Y72311964D01*
X-6914681Y72398765D01*
X-6872888Y72498342D01*
X-6864000Y72561848D01*
X-6886960Y72628588D01*
X-6946564Y72679408D01*
X-7028904Y72703380D01*
X-7044901Y72704000D01*
X-7087718Y72710698D01*
X-7118222Y72738714D01*
X-7147050Y72799934D01*
X-7158567Y72831001D01*
X-7186804Y72901879D01*
X-7210444Y72947979D01*
X-7220276Y72958001D01*
X-7238997Y72936989D01*
X-7270151Y72882911D01*
X-7294780Y72833180D01*
X-7334803Y72757376D01*
X-7374858Y72714449D01*
X-7431611Y72689277D01*
X-7462769Y72680780D01*
X-7625590Y72655226D01*
X-7794078Y72655306D01*
X-7949582Y72679978D01*
X-8045100Y72713349D01*
X-8153528Y72770981D01*
X-8221648Y72829483D01*
X-8258295Y72902597D01*
X-8272307Y73004061D01*
X-8273585Y73068690D01*
X-8269371Y73166215D01*
X-8253824Y73252407D01*
X-8222382Y73336190D01*
X-8170488Y73426489D01*
X-8093580Y73532227D01*
X-7987099Y73662330D01*
X-7945010Y73711763D01*
X-7745392Y73944741D01*
X-7609496Y73868046D01*
X-7538934Y73830829D01*
X-7489804Y73809897D01*
X-7473600Y73809160D01*
X-7479534Y73841534D01*
X-7494929Y73907405D01*
X-7512032Y73975279D01*
X-7550463Y74123591D01*
X-7473932Y74244269D01*
X-7430975Y74322230D01*
X-7403208Y74392253D01*
X-7397400Y74423864D01*
X-7411072Y74475642D01*
X-7446580Y74550480D01*
X-7486974Y74617690D01*
X-7576548Y74752598D01*
X-7545080Y74936108D01*
X-7529110Y75056605D01*
X-7532391Y75136187D01*
X-7557952Y75182078D01*
X-7608826Y75201506D01*
X-7657183Y75203356D01*
X-7692290Y75199135D01*
X-7733899Y75186621D01*
X-7786385Y75163143D01*
X-7854121Y75126033D01*
X-7941481Y75072620D01*
X-8052837Y75000235D01*
X-8192564Y74906207D01*
X-8365035Y74787868D01*
X-8565800Y74648683D01*
X-8742267Y74525923D01*
X-8882807Y74428819D01*
X-8993417Y74354331D01*
X-9080092Y74299422D01*
X-9148826Y74261054D01*
X-9205614Y74236189D01*
X-9256453Y74221789D01*
X-9307338Y74214817D01*
X-9364262Y74212234D01*
X-9429400Y74211079D01*
X-9533680Y74208892D01*
X-9621597Y74206779D01*
X-9678273Y74205105D01*
X-9687252Y74204729D01*
X-9720167Y74189650D01*
X-9787197Y74148892D01*
X-9881700Y74087103D01*
X-9997036Y74008927D01*
X-10126562Y73919011D01*
X-10263638Y73822000D01*
X-10401620Y73722540D01*
X-10533868Y73625277D01*
X-10653740Y73534856D01*
X-10732077Y73473889D01*
X-10889710Y73343817D01*
X-11030304Y73217750D01*
X-11147585Y73101879D01*
X-11235279Y73002393D01*
X-11286293Y72927100D01*
X-11328036Y72860900D01*
X-11371538Y72814148D01*
X-11381222Y72807730D01*
X-11417214Y72792482D01*
X-11493997Y72762681D01*
X-11604555Y72720956D01*
X-11741872Y72669937D01*
X-11898935Y72612251D01*
X-12035189Y72562671D01*
X-12202213Y72501906D01*
X-12354390Y72446095D01*
X-12484885Y72397782D01*
X-12586861Y72359508D01*
X-12653485Y72333818D01*
X-12676944Y72323924D01*
X-12677482Y72311779D01*
X-12643792Y72292523D01*
X-12572651Y72264986D01*
X-12460830Y72227996D01*
X-12305106Y72180383D01*
X-12178950Y72143224D01*
X-12113662Y72117640D01*
X-12075277Y72089929D01*
X-12071000Y72079788D01*
X-12089015Y72052067D01*
X-12138453Y71998039D01*
X-12212405Y71924733D01*
X-12303965Y71839177D01*
X-12335409Y71810759D01*
X-12431058Y71723839D01*
X-12511631Y71648406D01*
X-12570205Y71591110D01*
X-12599856Y71558606D01*
X-12602109Y71554492D01*
X-12578856Y71548588D01*
X-12512951Y71544172D01*
X-12412527Y71541479D01*
X-12285718Y71540749D01*
X-12166917Y71541792D01*
X-11986794Y71543989D01*
X-11855181Y71541760D01*
X-11769793Y71531034D01*
X-11728339Y71507737D01*
X-11728534Y71467798D01*
X-11768090Y71407144D01*
X-11844718Y71321703D01*
X-11956131Y71207402D01*
X-11970736Y71192563D01*
X-12074279Y71087659D01*
X-12144319Y71013828D01*
X-12181747Y70964752D01*
X-12187451Y70934116D01*
X-12162320Y70915603D01*
X-12107245Y70902898D01*
X-12023114Y70889684D01*
X-12013598Y70888166D01*
X-11953035Y70875035D01*
X-11933147Y70856787D01*
X-11943449Y70825430D01*
X-11970000Y70789048D01*
X-12024136Y70723888D01*
X-12098541Y70638083D01*
X-12185898Y70539768D01*
X-12278890Y70437075D01*
X-12370200Y70338139D01*
X-12452512Y70251093D01*
X-12518510Y70184071D01*
X-12532893Y70170169D01*
X-12619894Y70087437D01*
X-14315209Y70093969D01*
X-16010524Y70100500D01*
X-13086218Y73110400D01*
X-12764075Y73441952D01*
X-12449654Y73765513D01*
X-12144956Y74079029D01*
X-11851981Y74380441D01*
X-11572731Y74667692D01*
X-11309206Y74938727D01*
X-11063406Y75191486D01*
X-10837333Y75423915D01*
X-10632987Y75633955D01*
X-10452370Y75819549D01*
X-10297481Y75978642D01*
X-10170321Y76109174D01*
X-10072892Y76209091D01*
X-10007193Y76276333D01*
X-9978173Y76305879D01*
X-9794433Y76491457D01*
X-9313875Y75867729D01*
G37*
X-9313875Y75867729D02*
X-9194713Y75713714D01*
X-9085286Y75573525D01*
X-8989462Y75452020D01*
X-8911112Y75354058D01*
X-8854102Y75284496D01*
X-8822303Y75248193D01*
X-8817206Y75244000D01*
X-8796121Y75261643D01*
X-8744753Y75311419D01*
X-8667773Y75388597D01*
X-8569850Y75488448D01*
X-8455655Y75606243D01*
X-8329861Y75737250D01*
X-8321833Y75745651D01*
X-8195553Y75877530D01*
X-8080789Y75996809D01*
X-7982189Y76098705D01*
X-7904395Y76178436D01*
X-7852055Y76231220D01*
X-7829812Y76252276D01*
X-7829536Y76252426D01*
X-7811864Y76234005D01*
X-7765668Y76179163D01*
X-7693792Y76091440D01*
X-7599081Y75974374D01*
X-7484377Y75831504D01*
X-7352524Y75666370D01*
X-7206367Y75482510D01*
X-7048748Y75283463D01*
X-6927500Y75129863D01*
X-6763216Y74921896D01*
X-6608224Y74726519D01*
X-6465378Y74547273D01*
X-6337532Y74387699D01*
X-6227538Y74251337D01*
X-6138250Y74141729D01*
X-6072521Y74062414D01*
X-6033204Y74016935D01*
X-6022814Y74007137D01*
X-6001068Y74027442D01*
X-5954103Y74078702D01*
X-5889180Y74152808D01*
X-5825049Y74228000D01*
X-5749770Y74314821D01*
X-5685032Y74384964D01*
X-5638423Y74430490D01*
X-5618721Y74443900D01*
X-5601007Y74424270D01*
X-5554822Y74367486D01*
X-5482605Y74276706D01*
X-5386795Y74155092D01*
X-5269830Y74005801D01*
X-5134150Y73831994D01*
X-4982193Y73636831D01*
X-4816398Y73423470D01*
X-4639205Y73195072D01*
X-4453053Y72954796D01*
X-4260379Y72705800D01*
X-4063624Y72451246D01*
X-3865226Y72194292D01*
X-3667625Y71938097D01*
X-3473258Y71685822D01*
X-3284565Y71440626D01*
X-3103985Y71205668D01*
X-2933957Y70984109D01*
X-2776920Y70779106D01*
X-2635313Y70593820D01*
X-2511574Y70431411D01*
X-2408143Y70295038D01*
X-2327459Y70187860D01*
X-2271960Y70113037D01*
X-2244086Y70073728D01*
X-2241200Y70068520D01*
X-2266109Y70066974D01*
X-2338866Y70065625D01*
X-2456523Y70064476D01*
X-2616129Y70063532D01*
X-2814734Y70062793D01*
X-3049388Y70062264D01*
X-3317140Y70061948D01*
X-3615042Y70061846D01*
X-3940141Y70061963D01*
X-4289488Y70062302D01*
X-4660134Y70062864D01*
X-5049127Y70063654D01*
X-5453518Y70064673D01*
X-5615918Y70065137D01*
X-8990636Y70075100D01*
X-9006818Y70339402D01*
X-9014227Y70488137D01*
X-9019853Y70653852D01*
X-9022781Y70807632D01*
X-9023000Y70851938D01*
X-9017992Y71000416D01*
X-8999745Y71102360D01*
X-8963426Y71161333D01*
X-8904200Y71180901D01*
X-8817235Y71164628D01*
X-8697697Y71116080D01*
X-8677591Y71106675D01*
X-8522682Y71033391D01*
X-8523425Y71278146D01*
X-8505071Y71525163D01*
X-8449184Y71738292D01*
X-8356926Y71916559D01*
X-8229457Y72058991D01*
X-8067939Y72164615D01*
X-7873533Y72232457D01*
X-7647398Y72261544D01*
X-7390698Y72250904D01*
X-7366339Y72247990D01*
X-7249390Y72235295D01*
X-7167826Y72232550D01*
X-7107134Y72240176D01*
X-7056686Y72256950D01*
X-6979951Y72311964D01*
X-6914681Y72398765D01*
X-6872888Y72498342D01*
X-6864000Y72561848D01*
X-6886960Y72628588D01*
X-6946564Y72679408D01*
X-7028904Y72703380D01*
X-7044901Y72704000D01*
X-7087718Y72710698D01*
X-7118222Y72738714D01*
X-7147050Y72799934D01*
X-7158567Y72831001D01*
X-7186804Y72901879D01*
X-7210444Y72947979D01*
X-7220276Y72958001D01*
X-7238997Y72936989D01*
X-7270151Y72882911D01*
X-7294780Y72833180D01*
X-7334803Y72757376D01*
X-7374858Y72714449D01*
X-7431611Y72689277D01*
X-7462769Y72680780D01*
X-7625590Y72655226D01*
X-7794078Y72655306D01*
X-7949582Y72679978D01*
X-8045100Y72713349D01*
X-8153528Y72770981D01*
X-8221648Y72829483D01*
X-8258295Y72902597D01*
X-8272307Y73004061D01*
X-8273585Y73068690D01*
X-8269371Y73166215D01*
X-8253824Y73252407D01*
X-8222382Y73336190D01*
X-8170488Y73426489D01*
X-8093580Y73532227D01*
X-7987099Y73662330D01*
X-7945010Y73711763D01*
X-7745392Y73944741D01*
X-7609496Y73868046D01*
X-7538934Y73830829D01*
X-7489804Y73809897D01*
X-7473600Y73809160D01*
X-7479534Y73841534D01*
X-7494929Y73907405D01*
X-7512032Y73975279D01*
X-7550463Y74123591D01*
X-7473932Y74244269D01*
X-7430975Y74322230D01*
X-7403208Y74392253D01*
X-7397400Y74423864D01*
X-7411072Y74475642D01*
X-7446580Y74550480D01*
X-7486974Y74617690D01*
X-7576548Y74752598D01*
X-7545080Y74936108D01*
X-7529110Y75056605D01*
X-7532391Y75136187D01*
X-7557952Y75182078D01*
X-7608826Y75201506D01*
X-7657183Y75203356D01*
X-7692290Y75199135D01*
X-7733899Y75186621D01*
X-7786385Y75163143D01*
X-7854121Y75126033D01*
X-7941481Y75072620D01*
X-8052837Y75000235D01*
X-8192564Y74906207D01*
X-8365035Y74787868D01*
X-8565800Y74648683D01*
X-8742267Y74525923D01*
X-8882807Y74428819D01*
X-8993417Y74354331D01*
X-9080092Y74299422D01*
X-9148826Y74261054D01*
X-9205614Y74236189D01*
X-9256453Y74221789D01*
X-9307338Y74214817D01*
X-9364262Y74212234D01*
X-9429400Y74211079D01*
X-9533680Y74208892D01*
X-9621597Y74206779D01*
X-9678273Y74205105D01*
X-9687252Y74204729D01*
X-9720167Y74189650D01*
X-9787197Y74148892D01*
X-9881700Y74087103D01*
X-9997036Y74008927D01*
X-10126562Y73919011D01*
X-10263638Y73822000D01*
X-10401620Y73722540D01*
X-10533868Y73625277D01*
X-10653740Y73534856D01*
X-10732077Y73473889D01*
X-10889710Y73343817D01*
X-11030304Y73217750D01*
X-11147585Y73101879D01*
X-11235279Y73002393D01*
X-11286293Y72927100D01*
X-11328036Y72860900D01*
X-11371538Y72814148D01*
X-11381222Y72807730D01*
X-11417214Y72792482D01*
X-11493997Y72762681D01*
X-11604555Y72720956D01*
X-11741872Y72669937D01*
X-11898935Y72612251D01*
X-12035189Y72562671D01*
X-12202213Y72501906D01*
X-12354390Y72446095D01*
X-12484885Y72397782D01*
X-12586861Y72359508D01*
X-12653485Y72333818D01*
X-12676944Y72323924D01*
X-12677482Y72311779D01*
X-12643792Y72292523D01*
X-12572651Y72264986D01*
X-12460830Y72227996D01*
X-12305106Y72180383D01*
X-12178950Y72143224D01*
X-12113662Y72117640D01*
X-12075277Y72089929D01*
X-12071000Y72079788D01*
X-12089015Y72052067D01*
X-12138453Y71998039D01*
X-12212405Y71924733D01*
X-12303965Y71839177D01*
X-12335409Y71810759D01*
X-12431058Y71723839D01*
X-12511631Y71648406D01*
X-12570205Y71591110D01*
X-12599856Y71558606D01*
X-12602109Y71554492D01*
X-12578856Y71548588D01*
X-12512951Y71544172D01*
X-12412527Y71541479D01*
X-12285718Y71540749D01*
X-12166917Y71541792D01*
X-11986794Y71543989D01*
X-11855181Y71541760D01*
X-11769793Y71531034D01*
X-11728339Y71507737D01*
X-11728534Y71467798D01*
X-11768090Y71407144D01*
X-11844718Y71321703D01*
X-11956131Y71207402D01*
X-11970736Y71192563D01*
X-12074279Y71087659D01*
X-12144319Y71013828D01*
X-12181747Y70964752D01*
X-12187451Y70934116D01*
X-12162320Y70915603D01*
X-12107245Y70902898D01*
X-12023114Y70889684D01*
X-12013598Y70888166D01*
X-11953035Y70875035D01*
X-11933147Y70856787D01*
X-11943449Y70825430D01*
X-11970000Y70789048D01*
X-12024136Y70723888D01*
X-12098541Y70638083D01*
X-12185898Y70539768D01*
X-12278890Y70437075D01*
X-12370200Y70338139D01*
X-12452512Y70251093D01*
X-12518510Y70184071D01*
X-12532893Y70170169D01*
X-12619894Y70087437D01*
X-14315209Y70093969D01*
X-16010524Y70100500D01*
X-13086218Y73110400D01*
X-12764075Y73441952D01*
X-12449654Y73765513D01*
X-12144956Y74079029D01*
X-11851981Y74380441D01*
X-11572731Y74667692D01*
X-11309206Y74938727D01*
X-11063406Y75191486D01*
X-10837333Y75423915D01*
X-10632987Y75633955D01*
X-10452370Y75819549D01*
X-10297481Y75978642D01*
X-10170321Y76109174D01*
X-10072892Y76209091D01*
X-10007193Y76276333D01*
X-9978173Y76305879D01*
X-9794433Y76491457D01*
X-9313875Y75867729D01*
%TO.C,R609*%
D11*
X-1829523Y134266809D02*
X-1996190Y134504904D01*
X-2115238Y134266809D02*
X-2115238Y134766809D01*
X-1924761Y134766809D01*
X-1877142Y134743000D01*
X-1853333Y134719190D01*
X-1829523Y134671571D01*
X-1829523Y134600142D01*
X-1853333Y134552523D01*
X-1877142Y134528714D01*
X-1924761Y134504904D01*
X-2115238Y134504904D01*
X-1400952Y134766809D02*
X-1496190Y134766809D01*
X-1543809Y134743000D01*
X-1567619Y134719190D01*
X-1615238Y134647761D01*
X-1639047Y134552523D01*
X-1639047Y134362047D01*
X-1615238Y134314428D01*
X-1591428Y134290619D01*
X-1543809Y134266809D01*
X-1448571Y134266809D01*
X-1400952Y134290619D01*
X-1377142Y134314428D01*
X-1353333Y134362047D01*
X-1353333Y134481095D01*
X-1377142Y134528714D01*
X-1400952Y134552523D01*
X-1448571Y134576333D01*
X-1543809Y134576333D01*
X-1591428Y134552523D01*
X-1615238Y134528714D01*
X-1639047Y134481095D01*
X-1043809Y134766809D02*
X-996190Y134766809D01*
X-948571Y134743000D01*
X-924761Y134719190D01*
X-900952Y134671571D01*
X-877142Y134576333D01*
X-877142Y134457285D01*
X-900952Y134362047D01*
X-924761Y134314428D01*
X-948571Y134290619D01*
X-996190Y134266809D01*
X-1043809Y134266809D01*
X-1091428Y134290619D01*
X-1115238Y134314428D01*
X-1139047Y134362047D01*
X-1162857Y134457285D01*
X-1162857Y134576333D01*
X-1139047Y134671571D01*
X-1115238Y134719190D01*
X-1091428Y134743000D01*
X-1043809Y134766809D01*
X-639047Y134266809D02*
X-543809Y134266809D01*
X-496190Y134290619D01*
X-472380Y134314428D01*
X-424761Y134385857D01*
X-400952Y134481095D01*
X-400952Y134671571D01*
X-424761Y134719190D01*
X-448571Y134743000D01*
X-496190Y134766809D01*
X-591428Y134766809D01*
X-639047Y134743000D01*
X-662857Y134719190D01*
X-686666Y134671571D01*
X-686666Y134552523D01*
X-662857Y134504904D01*
X-639047Y134481095D01*
X-591428Y134457285D01*
X-496190Y134457285D01*
X-448571Y134481095D01*
X-424761Y134504904D01*
X-400952Y134552523D01*
%TO.C,R608*%
X-1956523Y136171809D02*
X-2123190Y136409904D01*
X-2242238Y136171809D02*
X-2242238Y136671809D01*
X-2051761Y136671809D01*
X-2004142Y136648000D01*
X-1980333Y136624190D01*
X-1956523Y136576571D01*
X-1956523Y136505142D01*
X-1980333Y136457523D01*
X-2004142Y136433714D01*
X-2051761Y136409904D01*
X-2242238Y136409904D01*
X-1527952Y136671809D02*
X-1623190Y136671809D01*
X-1670809Y136648000D01*
X-1694619Y136624190D01*
X-1742238Y136552761D01*
X-1766047Y136457523D01*
X-1766047Y136267047D01*
X-1742238Y136219428D01*
X-1718428Y136195619D01*
X-1670809Y136171809D01*
X-1575571Y136171809D01*
X-1527952Y136195619D01*
X-1504142Y136219428D01*
X-1480333Y136267047D01*
X-1480333Y136386095D01*
X-1504142Y136433714D01*
X-1527952Y136457523D01*
X-1575571Y136481333D01*
X-1670809Y136481333D01*
X-1718428Y136457523D01*
X-1742238Y136433714D01*
X-1766047Y136386095D01*
X-1170809Y136671809D02*
X-1123190Y136671809D01*
X-1075571Y136648000D01*
X-1051761Y136624190D01*
X-1027952Y136576571D01*
X-1004142Y136481333D01*
X-1004142Y136362285D01*
X-1027952Y136267047D01*
X-1051761Y136219428D01*
X-1075571Y136195619D01*
X-1123190Y136171809D01*
X-1170809Y136171809D01*
X-1218428Y136195619D01*
X-1242238Y136219428D01*
X-1266047Y136267047D01*
X-1289857Y136362285D01*
X-1289857Y136481333D01*
X-1266047Y136576571D01*
X-1242238Y136624190D01*
X-1218428Y136648000D01*
X-1170809Y136671809D01*
X-718428Y136457523D02*
X-766047Y136481333D01*
X-789857Y136505142D01*
X-813666Y136552761D01*
X-813666Y136576571D01*
X-789857Y136624190D01*
X-766047Y136648000D01*
X-718428Y136671809D01*
X-623190Y136671809D01*
X-575571Y136648000D01*
X-551761Y136624190D01*
X-527952Y136576571D01*
X-527952Y136552761D01*
X-551761Y136505142D01*
X-575571Y136481333D01*
X-623190Y136457523D01*
X-718428Y136457523D01*
X-766047Y136433714D01*
X-789857Y136409904D01*
X-813666Y136362285D01*
X-813666Y136267047D01*
X-789857Y136219428D01*
X-766047Y136195619D01*
X-718428Y136171809D01*
X-623190Y136171809D01*
X-575571Y136195619D01*
X-551761Y136219428D01*
X-527952Y136267047D01*
X-527952Y136362285D01*
X-551761Y136409904D01*
X-575571Y136433714D01*
X-623190Y136457523D01*
%TO.C,Q603*%
X-3155190Y131556190D02*
X-3179000Y131508571D01*
X-3226619Y131460952D01*
X-3298047Y131389523D01*
X-3321857Y131341904D01*
X-3321857Y131294285D01*
X-3202809Y131318095D02*
X-3226619Y131270476D01*
X-3274238Y131222857D01*
X-3369476Y131199047D01*
X-3536142Y131199047D01*
X-3631380Y131222857D01*
X-3679000Y131270476D01*
X-3702809Y131318095D01*
X-3702809Y131413333D01*
X-3679000Y131460952D01*
X-3631380Y131508571D01*
X-3536142Y131532380D01*
X-3369476Y131532380D01*
X-3274238Y131508571D01*
X-3226619Y131460952D01*
X-3202809Y131413333D01*
X-3202809Y131318095D01*
X-3702809Y131960952D02*
X-3702809Y131865714D01*
X-3679000Y131818095D01*
X-3655190Y131794285D01*
X-3583761Y131746666D01*
X-3488523Y131722857D01*
X-3298047Y131722857D01*
X-3250428Y131746666D01*
X-3226619Y131770476D01*
X-3202809Y131818095D01*
X-3202809Y131913333D01*
X-3226619Y131960952D01*
X-3250428Y131984761D01*
X-3298047Y132008571D01*
X-3417095Y132008571D01*
X-3464714Y131984761D01*
X-3488523Y131960952D01*
X-3512333Y131913333D01*
X-3512333Y131818095D01*
X-3488523Y131770476D01*
X-3464714Y131746666D01*
X-3417095Y131722857D01*
X-3702809Y132318095D02*
X-3702809Y132365714D01*
X-3679000Y132413333D01*
X-3655190Y132437142D01*
X-3607571Y132460952D01*
X-3512333Y132484761D01*
X-3393285Y132484761D01*
X-3298047Y132460952D01*
X-3250428Y132437142D01*
X-3226619Y132413333D01*
X-3202809Y132365714D01*
X-3202809Y132318095D01*
X-3226619Y132270476D01*
X-3250428Y132246666D01*
X-3298047Y132222857D01*
X-3393285Y132199047D01*
X-3512333Y132199047D01*
X-3607571Y132222857D01*
X-3655190Y132246666D01*
X-3679000Y132270476D01*
X-3702809Y132318095D01*
X-3702809Y132651428D02*
X-3702809Y132960952D01*
X-3512333Y132794285D01*
X-3512333Y132865714D01*
X-3488523Y132913333D01*
X-3464714Y132937142D01*
X-3417095Y132960952D01*
X-3298047Y132960952D01*
X-3250428Y132937142D01*
X-3226619Y132913333D01*
X-3202809Y132865714D01*
X-3202809Y132722857D01*
X-3226619Y132675238D01*
X-3250428Y132651428D01*
%TO.C,J200_8*%
D15*
X-1670714Y129890969D02*
X-1670714Y129175463D01*
X-1718414Y129032362D01*
X-1813815Y128936961D01*
X-1956916Y128889260D01*
X-2052317Y128889260D01*
X-1241410Y129795569D02*
X-1193710Y129843269D01*
X-1098309Y129890969D01*
X-859807Y129890969D01*
X-764406Y129843269D01*
X-716705Y129795569D01*
X-669005Y129700168D01*
X-669005Y129604767D01*
X-716705Y129461666D01*
X-1289110Y128889260D01*
X-669005Y128889260D01*
X-48899Y129890969D02*
X46501Y129890969D01*
X141902Y129843269D01*
X189602Y129795569D01*
X237302Y129700168D01*
X285003Y129509366D01*
X285003Y129270864D01*
X237302Y129080062D01*
X189602Y128984661D01*
X141902Y128936961D01*
X46501Y128889260D01*
X-48899Y128889260D01*
X-144300Y128936961D01*
X-192001Y128984661D01*
X-239701Y129080062D01*
X-287401Y129270864D01*
X-287401Y129509366D01*
X-239701Y129700168D01*
X-192001Y129795569D01*
X-144300Y129843269D01*
X-48899Y129890969D01*
X905108Y129890969D02*
X1000509Y129890969D01*
X1095910Y129843269D01*
X1143611Y129795569D01*
X1191311Y129700168D01*
X1239011Y129509366D01*
X1239011Y129270864D01*
X1191311Y129080062D01*
X1143611Y128984661D01*
X1095910Y128936961D01*
X1000509Y128889260D01*
X905108Y128889260D01*
X809708Y128936961D01*
X762007Y128984661D01*
X714307Y129080062D01*
X666606Y129270864D01*
X666606Y129509366D01*
X714307Y129700168D01*
X762007Y129795569D01*
X809708Y129843269D01*
X905108Y129890969D01*
X1429813Y128793860D02*
X2193020Y128793860D01*
X2574623Y129461666D02*
X2479223Y129509366D01*
X2431522Y129557066D01*
X2383822Y129652467D01*
X2383822Y129700168D01*
X2431522Y129795569D01*
X2479223Y129843269D01*
X2574623Y129890969D01*
X2765425Y129890969D01*
X2860826Y129843269D01*
X2908526Y129795569D01*
X2956227Y129700168D01*
X2956227Y129652467D01*
X2908526Y129557066D01*
X2860826Y129509366D01*
X2765425Y129461666D01*
X2574623Y129461666D01*
X2479223Y129413965D01*
X2431522Y129366265D01*
X2383822Y129270864D01*
X2383822Y129080062D01*
X2431522Y128984661D01*
X2479223Y128936961D01*
X2574623Y128889260D01*
X2765425Y128889260D01*
X2860826Y128936961D01*
X2908526Y128984661D01*
X2956227Y129080062D01*
X2956227Y129270864D01*
X2908526Y129366265D01*
X2860826Y129413965D01*
X2765425Y129461666D01*
%TO.C,J200_7*%
X-1670714Y114890969D02*
X-1670714Y114175463D01*
X-1718414Y114032362D01*
X-1813815Y113936961D01*
X-1956916Y113889260D01*
X-2052317Y113889260D01*
X-1241410Y114795569D02*
X-1193710Y114843269D01*
X-1098309Y114890969D01*
X-859807Y114890969D01*
X-764406Y114843269D01*
X-716705Y114795569D01*
X-669005Y114700168D01*
X-669005Y114604767D01*
X-716705Y114461666D01*
X-1289110Y113889260D01*
X-669005Y113889260D01*
X-48899Y114890969D02*
X46501Y114890969D01*
X141902Y114843269D01*
X189602Y114795569D01*
X237302Y114700168D01*
X285003Y114509366D01*
X285003Y114270864D01*
X237302Y114080062D01*
X189602Y113984661D01*
X141902Y113936961D01*
X46501Y113889260D01*
X-48899Y113889260D01*
X-144300Y113936961D01*
X-192001Y113984661D01*
X-239701Y114080062D01*
X-287401Y114270864D01*
X-287401Y114509366D01*
X-239701Y114700168D01*
X-192001Y114795569D01*
X-144300Y114843269D01*
X-48899Y114890969D01*
X905108Y114890969D02*
X1000509Y114890969D01*
X1095910Y114843269D01*
X1143611Y114795569D01*
X1191311Y114700168D01*
X1239011Y114509366D01*
X1239011Y114270864D01*
X1191311Y114080062D01*
X1143611Y113984661D01*
X1095910Y113936961D01*
X1000509Y113889260D01*
X905108Y113889260D01*
X809708Y113936961D01*
X762007Y113984661D01*
X714307Y114080062D01*
X666606Y114270864D01*
X666606Y114509366D01*
X714307Y114700168D01*
X762007Y114795569D01*
X809708Y114843269D01*
X905108Y114890969D01*
X1429813Y113793860D02*
X2193020Y113793860D01*
X2336121Y114890969D02*
X3003927Y114890969D01*
X2574623Y113889260D01*
%TO.C,J200_6*%
X-1670714Y99890969D02*
X-1670714Y99175463D01*
X-1718414Y99032362D01*
X-1813815Y98936961D01*
X-1956916Y98889260D01*
X-2052317Y98889260D01*
X-1241410Y99795569D02*
X-1193710Y99843269D01*
X-1098309Y99890969D01*
X-859807Y99890969D01*
X-764406Y99843269D01*
X-716705Y99795569D01*
X-669005Y99700168D01*
X-669005Y99604767D01*
X-716705Y99461666D01*
X-1289110Y98889260D01*
X-669005Y98889260D01*
X-48899Y99890969D02*
X46501Y99890969D01*
X141902Y99843269D01*
X189602Y99795569D01*
X237302Y99700168D01*
X285003Y99509366D01*
X285003Y99270864D01*
X237302Y99080062D01*
X189602Y98984661D01*
X141902Y98936961D01*
X46501Y98889260D01*
X-48899Y98889260D01*
X-144300Y98936961D01*
X-192001Y98984661D01*
X-239701Y99080062D01*
X-287401Y99270864D01*
X-287401Y99509366D01*
X-239701Y99700168D01*
X-192001Y99795569D01*
X-144300Y99843269D01*
X-48899Y99890969D01*
X905108Y99890969D02*
X1000509Y99890969D01*
X1095910Y99843269D01*
X1143611Y99795569D01*
X1191311Y99700168D01*
X1239011Y99509366D01*
X1239011Y99270864D01*
X1191311Y99080062D01*
X1143611Y98984661D01*
X1095910Y98936961D01*
X1000509Y98889260D01*
X905108Y98889260D01*
X809708Y98936961D01*
X762007Y98984661D01*
X714307Y99080062D01*
X666606Y99270864D01*
X666606Y99509366D01*
X714307Y99700168D01*
X762007Y99795569D01*
X809708Y99843269D01*
X905108Y99890969D01*
X1429813Y98793860D02*
X2193020Y98793860D01*
X2860826Y99890969D02*
X2670024Y99890969D01*
X2574623Y99843269D01*
X2526923Y99795569D01*
X2431522Y99652467D01*
X2383822Y99461666D01*
X2383822Y99080062D01*
X2431522Y98984661D01*
X2479223Y98936961D01*
X2574623Y98889260D01*
X2765425Y98889260D01*
X2860826Y98936961D01*
X2908526Y98984661D01*
X2956227Y99080062D01*
X2956227Y99318564D01*
X2908526Y99413965D01*
X2860826Y99461666D01*
X2765425Y99509366D01*
X2574623Y99509366D01*
X2479223Y99461666D01*
X2431522Y99413965D01*
X2383822Y99318564D01*
%TO.C,J200_5*%
X-1670714Y84890969D02*
X-1670714Y84175463D01*
X-1718414Y84032362D01*
X-1813815Y83936961D01*
X-1956916Y83889260D01*
X-2052317Y83889260D01*
X-1241410Y84795569D02*
X-1193710Y84843269D01*
X-1098309Y84890969D01*
X-859807Y84890969D01*
X-764406Y84843269D01*
X-716705Y84795569D01*
X-669005Y84700168D01*
X-669005Y84604767D01*
X-716705Y84461666D01*
X-1289110Y83889260D01*
X-669005Y83889260D01*
X-48899Y84890969D02*
X46501Y84890969D01*
X141902Y84843269D01*
X189602Y84795569D01*
X237302Y84700168D01*
X285003Y84509366D01*
X285003Y84270864D01*
X237302Y84080062D01*
X189602Y83984661D01*
X141902Y83936961D01*
X46501Y83889260D01*
X-48899Y83889260D01*
X-144300Y83936961D01*
X-192001Y83984661D01*
X-239701Y84080062D01*
X-287401Y84270864D01*
X-287401Y84509366D01*
X-239701Y84700168D01*
X-192001Y84795569D01*
X-144300Y84843269D01*
X-48899Y84890969D01*
X905108Y84890969D02*
X1000509Y84890969D01*
X1095910Y84843269D01*
X1143611Y84795569D01*
X1191311Y84700168D01*
X1239011Y84509366D01*
X1239011Y84270864D01*
X1191311Y84080062D01*
X1143611Y83984661D01*
X1095910Y83936961D01*
X1000509Y83889260D01*
X905108Y83889260D01*
X809708Y83936961D01*
X762007Y83984661D01*
X714307Y84080062D01*
X666606Y84270864D01*
X666606Y84509366D01*
X714307Y84700168D01*
X762007Y84795569D01*
X809708Y84843269D01*
X905108Y84890969D01*
X1429813Y83793860D02*
X2193020Y83793860D01*
X2908526Y84890969D02*
X2431522Y84890969D01*
X2383822Y84413965D01*
X2431522Y84461666D01*
X2526923Y84509366D01*
X2765425Y84509366D01*
X2860826Y84461666D01*
X2908526Y84413965D01*
X2956227Y84318564D01*
X2956227Y84080062D01*
X2908526Y83984661D01*
X2860826Y83936961D01*
X2765425Y83889260D01*
X2526923Y83889260D01*
X2431522Y83936961D01*
X2383822Y83984661D01*
%TO.C,J200_4*%
X-1670714Y69890969D02*
X-1670714Y69175463D01*
X-1718414Y69032362D01*
X-1813815Y68936961D01*
X-1956916Y68889260D01*
X-2052317Y68889260D01*
X-1241410Y69795569D02*
X-1193710Y69843269D01*
X-1098309Y69890969D01*
X-859807Y69890969D01*
X-764406Y69843269D01*
X-716705Y69795569D01*
X-669005Y69700168D01*
X-669005Y69604767D01*
X-716705Y69461666D01*
X-1289110Y68889260D01*
X-669005Y68889260D01*
X-48899Y69890969D02*
X46501Y69890969D01*
X141902Y69843269D01*
X189602Y69795569D01*
X237302Y69700168D01*
X285003Y69509366D01*
X285003Y69270864D01*
X237302Y69080062D01*
X189602Y68984661D01*
X141902Y68936961D01*
X46501Y68889260D01*
X-48899Y68889260D01*
X-144300Y68936961D01*
X-192001Y68984661D01*
X-239701Y69080062D01*
X-287401Y69270864D01*
X-287401Y69509366D01*
X-239701Y69700168D01*
X-192001Y69795569D01*
X-144300Y69843269D01*
X-48899Y69890969D01*
X905108Y69890969D02*
X1000509Y69890969D01*
X1095910Y69843269D01*
X1143611Y69795569D01*
X1191311Y69700168D01*
X1239011Y69509366D01*
X1239011Y69270864D01*
X1191311Y69080062D01*
X1143611Y68984661D01*
X1095910Y68936961D01*
X1000509Y68889260D01*
X905108Y68889260D01*
X809708Y68936961D01*
X762007Y68984661D01*
X714307Y69080062D01*
X666606Y69270864D01*
X666606Y69509366D01*
X714307Y69700168D01*
X762007Y69795569D01*
X809708Y69843269D01*
X905108Y69890969D01*
X1429813Y68793860D02*
X2193020Y68793860D01*
X2860826Y69557066D02*
X2860826Y68889260D01*
X2622324Y69938670D02*
X2383822Y69223163D01*
X3003927Y69223163D01*
%TO.C,J200_3*%
X-1670714Y54890969D02*
X-1670714Y54175463D01*
X-1718414Y54032362D01*
X-1813815Y53936961D01*
X-1956916Y53889260D01*
X-2052317Y53889260D01*
X-1241410Y54795569D02*
X-1193710Y54843269D01*
X-1098309Y54890969D01*
X-859807Y54890969D01*
X-764406Y54843269D01*
X-716705Y54795569D01*
X-669005Y54700168D01*
X-669005Y54604767D01*
X-716705Y54461666D01*
X-1289110Y53889260D01*
X-669005Y53889260D01*
X-48899Y54890969D02*
X46501Y54890969D01*
X141902Y54843269D01*
X189602Y54795569D01*
X237302Y54700168D01*
X285003Y54509366D01*
X285003Y54270864D01*
X237302Y54080062D01*
X189602Y53984661D01*
X141902Y53936961D01*
X46501Y53889260D01*
X-48899Y53889260D01*
X-144300Y53936961D01*
X-192001Y53984661D01*
X-239701Y54080062D01*
X-287401Y54270864D01*
X-287401Y54509366D01*
X-239701Y54700168D01*
X-192001Y54795569D01*
X-144300Y54843269D01*
X-48899Y54890969D01*
X905108Y54890969D02*
X1000509Y54890969D01*
X1095910Y54843269D01*
X1143611Y54795569D01*
X1191311Y54700168D01*
X1239011Y54509366D01*
X1239011Y54270864D01*
X1191311Y54080062D01*
X1143611Y53984661D01*
X1095910Y53936961D01*
X1000509Y53889260D01*
X905108Y53889260D01*
X809708Y53936961D01*
X762007Y53984661D01*
X714307Y54080062D01*
X666606Y54270864D01*
X666606Y54509366D01*
X714307Y54700168D01*
X762007Y54795569D01*
X809708Y54843269D01*
X905108Y54890969D01*
X1429813Y53793860D02*
X2193020Y53793860D01*
X2336121Y54890969D02*
X2956227Y54890969D01*
X2622324Y54509366D01*
X2765425Y54509366D01*
X2860826Y54461666D01*
X2908526Y54413965D01*
X2956227Y54318564D01*
X2956227Y54080062D01*
X2908526Y53984661D01*
X2860826Y53936961D01*
X2765425Y53889260D01*
X2479223Y53889260D01*
X2383822Y53936961D01*
X2336121Y53984661D01*
%TO.C,J200_2*%
X-1670714Y39890969D02*
X-1670714Y39175463D01*
X-1718414Y39032362D01*
X-1813815Y38936961D01*
X-1956916Y38889260D01*
X-2052317Y38889260D01*
X-1241410Y39795569D02*
X-1193710Y39843269D01*
X-1098309Y39890969D01*
X-859807Y39890969D01*
X-764406Y39843269D01*
X-716705Y39795569D01*
X-669005Y39700168D01*
X-669005Y39604767D01*
X-716705Y39461666D01*
X-1289110Y38889260D01*
X-669005Y38889260D01*
X-48899Y39890969D02*
X46501Y39890969D01*
X141902Y39843269D01*
X189602Y39795569D01*
X237302Y39700168D01*
X285003Y39509366D01*
X285003Y39270864D01*
X237302Y39080062D01*
X189602Y38984661D01*
X141902Y38936961D01*
X46501Y38889260D01*
X-48899Y38889260D01*
X-144300Y38936961D01*
X-192001Y38984661D01*
X-239701Y39080062D01*
X-287401Y39270864D01*
X-287401Y39509366D01*
X-239701Y39700168D01*
X-192001Y39795569D01*
X-144300Y39843269D01*
X-48899Y39890969D01*
X905108Y39890969D02*
X1000509Y39890969D01*
X1095910Y39843269D01*
X1143611Y39795569D01*
X1191311Y39700168D01*
X1239011Y39509366D01*
X1239011Y39270864D01*
X1191311Y39080062D01*
X1143611Y38984661D01*
X1095910Y38936961D01*
X1000509Y38889260D01*
X905108Y38889260D01*
X809708Y38936961D01*
X762007Y38984661D01*
X714307Y39080062D01*
X666606Y39270864D01*
X666606Y39509366D01*
X714307Y39700168D01*
X762007Y39795569D01*
X809708Y39843269D01*
X905108Y39890969D01*
X1429813Y38793860D02*
X2193020Y38793860D01*
X2383822Y39795569D02*
X2431522Y39843269D01*
X2526923Y39890969D01*
X2765425Y39890969D01*
X2860826Y39843269D01*
X2908526Y39795569D01*
X2956227Y39700168D01*
X2956227Y39604767D01*
X2908526Y39461666D01*
X2336121Y38889260D01*
X2956227Y38889260D01*
%TO.C,J200_1*%
X-1670714Y24890969D02*
X-1670714Y24175463D01*
X-1718414Y24032362D01*
X-1813815Y23936961D01*
X-1956916Y23889260D01*
X-2052317Y23889260D01*
X-1241410Y24795569D02*
X-1193710Y24843269D01*
X-1098309Y24890969D01*
X-859807Y24890969D01*
X-764406Y24843269D01*
X-716705Y24795569D01*
X-669005Y24700168D01*
X-669005Y24604767D01*
X-716705Y24461666D01*
X-1289110Y23889260D01*
X-669005Y23889260D01*
X-48899Y24890969D02*
X46501Y24890969D01*
X141902Y24843269D01*
X189602Y24795569D01*
X237302Y24700168D01*
X285003Y24509366D01*
X285003Y24270864D01*
X237302Y24080062D01*
X189602Y23984661D01*
X141902Y23936961D01*
X46501Y23889260D01*
X-48899Y23889260D01*
X-144300Y23936961D01*
X-192001Y23984661D01*
X-239701Y24080062D01*
X-287401Y24270864D01*
X-287401Y24509366D01*
X-239701Y24700168D01*
X-192001Y24795569D01*
X-144300Y24843269D01*
X-48899Y24890969D01*
X905108Y24890969D02*
X1000509Y24890969D01*
X1095910Y24843269D01*
X1143611Y24795569D01*
X1191311Y24700168D01*
X1239011Y24509366D01*
X1239011Y24270864D01*
X1191311Y24080062D01*
X1143611Y23984661D01*
X1095910Y23936961D01*
X1000509Y23889260D01*
X905108Y23889260D01*
X809708Y23936961D01*
X762007Y23984661D01*
X714307Y24080062D01*
X666606Y24270864D01*
X666606Y24509366D01*
X714307Y24700168D01*
X762007Y24795569D01*
X809708Y24843269D01*
X905108Y24890969D01*
X1429813Y23793860D02*
X2193020Y23793860D01*
X2956227Y23889260D02*
X2383822Y23889260D01*
X2670024Y23889260D02*
X2670024Y24890969D01*
X2574623Y24747868D01*
X2479223Y24652467D01*
X2383822Y24604767D01*
%TO.C,J107*%
X31214285Y24491619D02*
X31214285Y23777333D01*
X31166666Y23634476D01*
X31071428Y23539238D01*
X30928571Y23491619D01*
X30833333Y23491619D01*
X32214285Y23491619D02*
X31642857Y23491619D01*
X31928571Y23491619D02*
X31928571Y24491619D01*
X31833333Y24348761D01*
X31738095Y24253523D01*
X31642857Y24205904D01*
X32833333Y24491619D02*
X32928571Y24491619D01*
X33023809Y24444000D01*
X33071428Y24396380D01*
X33119047Y24301142D01*
X33166666Y24110666D01*
X33166666Y23872571D01*
X33119047Y23682095D01*
X33071428Y23586857D01*
X33023809Y23539238D01*
X32928571Y23491619D01*
X32833333Y23491619D01*
X32738095Y23539238D01*
X32690476Y23586857D01*
X32642857Y23682095D01*
X32595238Y23872571D01*
X32595238Y24110666D01*
X32642857Y24301142D01*
X32690476Y24396380D01*
X32738095Y24444000D01*
X32833333Y24491619D01*
X33500000Y24491619D02*
X34166666Y24491619D01*
X33738095Y23491619D01*
%TO.C,J106*%
X31314285Y114391619D02*
X31314285Y113677333D01*
X31266666Y113534476D01*
X31171428Y113439238D01*
X31028571Y113391619D01*
X30933333Y113391619D01*
X32314285Y113391619D02*
X31742857Y113391619D01*
X32028571Y113391619D02*
X32028571Y114391619D01*
X31933333Y114248761D01*
X31838095Y114153523D01*
X31742857Y114105904D01*
X32933333Y114391619D02*
X33028571Y114391619D01*
X33123809Y114344000D01*
X33171428Y114296380D01*
X33219047Y114201142D01*
X33266666Y114010666D01*
X33266666Y113772571D01*
X33219047Y113582095D01*
X33171428Y113486857D01*
X33123809Y113439238D01*
X33028571Y113391619D01*
X32933333Y113391619D01*
X32838095Y113439238D01*
X32790476Y113486857D01*
X32742857Y113582095D01*
X32695238Y113772571D01*
X32695238Y114010666D01*
X32742857Y114201142D01*
X32790476Y114296380D01*
X32838095Y114344000D01*
X32933333Y114391619D01*
X34123809Y114391619D02*
X33933333Y114391619D01*
X33838095Y114344000D01*
X33790476Y114296380D01*
X33695238Y114153523D01*
X33647619Y113963047D01*
X33647619Y113582095D01*
X33695238Y113486857D01*
X33742857Y113439238D01*
X33838095Y113391619D01*
X34028571Y113391619D01*
X34123809Y113439238D01*
X34171428Y113486857D01*
X34219047Y113582095D01*
X34219047Y113820190D01*
X34171428Y113915428D01*
X34123809Y113963047D01*
X34028571Y114010666D01*
X33838095Y114010666D01*
X33742857Y113963047D01*
X33695238Y113915428D01*
X33647619Y113820190D01*
%TO.C,J105*%
X-33785714Y23241619D02*
X-33785714Y22527333D01*
X-33833333Y22384476D01*
X-33928571Y22289238D01*
X-34071428Y22241619D01*
X-34166666Y22241619D01*
X-32785714Y22241619D02*
X-33357142Y22241619D01*
X-33071428Y22241619D02*
X-33071428Y23241619D01*
X-33166666Y23098761D01*
X-33261904Y23003523D01*
X-33357142Y22955904D01*
X-32166666Y23241619D02*
X-32071428Y23241619D01*
X-31976190Y23194000D01*
X-31928571Y23146380D01*
X-31880952Y23051142D01*
X-31833333Y22860666D01*
X-31833333Y22622571D01*
X-31880952Y22432095D01*
X-31928571Y22336857D01*
X-31976190Y22289238D01*
X-32071428Y22241619D01*
X-32166666Y22241619D01*
X-32261904Y22289238D01*
X-32309523Y22336857D01*
X-32357142Y22432095D01*
X-32404761Y22622571D01*
X-32404761Y22860666D01*
X-32357142Y23051142D01*
X-32309523Y23146380D01*
X-32261904Y23194000D01*
X-32166666Y23241619D01*
X-30928571Y23241619D02*
X-31404761Y23241619D01*
X-31452380Y22765428D01*
X-31404761Y22813047D01*
X-31309523Y22860666D01*
X-31071428Y22860666D01*
X-30976190Y22813047D01*
X-30928571Y22765428D01*
X-30880952Y22670190D01*
X-30880952Y22432095D01*
X-30928571Y22336857D01*
X-30976190Y22289238D01*
X-31071428Y22241619D01*
X-31309523Y22241619D01*
X-31404761Y22289238D01*
X-31452380Y22336857D01*
%TO.C,J100*%
X-1285714Y16103619D02*
X-1285714Y15389333D01*
X-1333333Y15246476D01*
X-1428571Y15151238D01*
X-1571428Y15103619D01*
X-1666666Y15103619D01*
X-285714Y15103619D02*
X-857142Y15103619D01*
X-571428Y15103619D02*
X-571428Y16103619D01*
X-666666Y15960761D01*
X-761904Y15865523D01*
X-857142Y15817904D01*
X333333Y16103619D02*
X428571Y16103619D01*
X523809Y16056000D01*
X571428Y16008380D01*
X619047Y15913142D01*
X666666Y15722666D01*
X666666Y15484571D01*
X619047Y15294095D01*
X571428Y15198857D01*
X523809Y15151238D01*
X428571Y15103619D01*
X333333Y15103619D01*
X238095Y15151238D01*
X190476Y15198857D01*
X142857Y15294095D01*
X95238Y15484571D01*
X95238Y15722666D01*
X142857Y15913142D01*
X190476Y16008380D01*
X238095Y16056000D01*
X333333Y16103619D01*
X1285714Y16103619D02*
X1380952Y16103619D01*
X1476190Y16056000D01*
X1523809Y16008380D01*
X1571428Y15913142D01*
X1619047Y15722666D01*
X1619047Y15484571D01*
X1571428Y15294095D01*
X1523809Y15198857D01*
X1476190Y15151238D01*
X1380952Y15103619D01*
X1285714Y15103619D01*
X1190476Y15151238D01*
X1142857Y15198857D01*
X1095238Y15294095D01*
X1047619Y15484571D01*
X1047619Y15722666D01*
X1095238Y15913142D01*
X1142857Y16008380D01*
X1190476Y16056000D01*
X1285714Y16103619D01*
D16*
X10142857Y12673809D02*
X9857142Y12673809D01*
X10000000Y12673809D02*
X10000000Y13173809D01*
X9952380Y13102380D01*
X9904761Y13054761D01*
X9857142Y13030952D01*
%TO.C,D600_8*%
D15*
X-32777619Y123056619D02*
X-32777619Y124056619D01*
X-32539523Y124056619D01*
X-32396666Y124009000D01*
X-32301428Y123913761D01*
X-32253809Y123818523D01*
X-32206190Y123628047D01*
X-32206190Y123485190D01*
X-32253809Y123294714D01*
X-32301428Y123199476D01*
X-32396666Y123104238D01*
X-32539523Y123056619D01*
X-32777619Y123056619D01*
X-31349047Y124056619D02*
X-31539523Y124056619D01*
X-31634761Y124009000D01*
X-31682380Y123961380D01*
X-31777619Y123818523D01*
X-31825238Y123628047D01*
X-31825238Y123247095D01*
X-31777619Y123151857D01*
X-31730000Y123104238D01*
X-31634761Y123056619D01*
X-31444285Y123056619D01*
X-31349047Y123104238D01*
X-31301428Y123151857D01*
X-31253809Y123247095D01*
X-31253809Y123485190D01*
X-31301428Y123580428D01*
X-31349047Y123628047D01*
X-31444285Y123675666D01*
X-31634761Y123675666D01*
X-31730000Y123628047D01*
X-31777619Y123580428D01*
X-31825238Y123485190D01*
X-30634761Y124056619D02*
X-30539523Y124056619D01*
X-30444285Y124009000D01*
X-30396666Y123961380D01*
X-30349047Y123866142D01*
X-30301428Y123675666D01*
X-30301428Y123437571D01*
X-30349047Y123247095D01*
X-30396666Y123151857D01*
X-30444285Y123104238D01*
X-30539523Y123056619D01*
X-30634761Y123056619D01*
X-30730000Y123104238D01*
X-30777619Y123151857D01*
X-30825238Y123247095D01*
X-30872857Y123437571D01*
X-30872857Y123675666D01*
X-30825238Y123866142D01*
X-30777619Y123961380D01*
X-30730000Y124009000D01*
X-30634761Y124056619D01*
X-29682380Y124056619D02*
X-29587142Y124056619D01*
X-29491904Y124009000D01*
X-29444285Y123961380D01*
X-29396666Y123866142D01*
X-29349047Y123675666D01*
X-29349047Y123437571D01*
X-29396666Y123247095D01*
X-29444285Y123151857D01*
X-29491904Y123104238D01*
X-29587142Y123056619D01*
X-29682380Y123056619D01*
X-29777619Y123104238D01*
X-29825238Y123151857D01*
X-29872857Y123247095D01*
X-29920476Y123437571D01*
X-29920476Y123675666D01*
X-29872857Y123866142D01*
X-29825238Y123961380D01*
X-29777619Y124009000D01*
X-29682380Y124056619D01*
X-29158571Y122961380D02*
X-28396666Y122961380D01*
X-28015714Y123628047D02*
X-28110952Y123675666D01*
X-28158571Y123723285D01*
X-28206190Y123818523D01*
X-28206190Y123866142D01*
X-28158571Y123961380D01*
X-28110952Y124009000D01*
X-28015714Y124056619D01*
X-27825238Y124056619D01*
X-27730000Y124009000D01*
X-27682380Y123961380D01*
X-27634761Y123866142D01*
X-27634761Y123818523D01*
X-27682380Y123723285D01*
X-27730000Y123675666D01*
X-27825238Y123628047D01*
X-28015714Y123628047D01*
X-28110952Y123580428D01*
X-28158571Y123532809D01*
X-28206190Y123437571D01*
X-28206190Y123247095D01*
X-28158571Y123151857D01*
X-28110952Y123104238D01*
X-28015714Y123056619D01*
X-27825238Y123056619D01*
X-27730000Y123104238D01*
X-27682380Y123151857D01*
X-27634761Y123247095D01*
X-27634761Y123437571D01*
X-27682380Y123532809D01*
X-27730000Y123580428D01*
X-27825238Y123628047D01*
%TO.C,D600_7*%
X-32777619Y108056619D02*
X-32777619Y109056619D01*
X-32539523Y109056619D01*
X-32396666Y109009000D01*
X-32301428Y108913761D01*
X-32253809Y108818523D01*
X-32206190Y108628047D01*
X-32206190Y108485190D01*
X-32253809Y108294714D01*
X-32301428Y108199476D01*
X-32396666Y108104238D01*
X-32539523Y108056619D01*
X-32777619Y108056619D01*
X-31349047Y109056619D02*
X-31539523Y109056619D01*
X-31634761Y109009000D01*
X-31682380Y108961380D01*
X-31777619Y108818523D01*
X-31825238Y108628047D01*
X-31825238Y108247095D01*
X-31777619Y108151857D01*
X-31730000Y108104238D01*
X-31634761Y108056619D01*
X-31444285Y108056619D01*
X-31349047Y108104238D01*
X-31301428Y108151857D01*
X-31253809Y108247095D01*
X-31253809Y108485190D01*
X-31301428Y108580428D01*
X-31349047Y108628047D01*
X-31444285Y108675666D01*
X-31634761Y108675666D01*
X-31730000Y108628047D01*
X-31777619Y108580428D01*
X-31825238Y108485190D01*
X-30634761Y109056619D02*
X-30539523Y109056619D01*
X-30444285Y109009000D01*
X-30396666Y108961380D01*
X-30349047Y108866142D01*
X-30301428Y108675666D01*
X-30301428Y108437571D01*
X-30349047Y108247095D01*
X-30396666Y108151857D01*
X-30444285Y108104238D01*
X-30539523Y108056619D01*
X-30634761Y108056619D01*
X-30730000Y108104238D01*
X-30777619Y108151857D01*
X-30825238Y108247095D01*
X-30872857Y108437571D01*
X-30872857Y108675666D01*
X-30825238Y108866142D01*
X-30777619Y108961380D01*
X-30730000Y109009000D01*
X-30634761Y109056619D01*
X-29682380Y109056619D02*
X-29587142Y109056619D01*
X-29491904Y109009000D01*
X-29444285Y108961380D01*
X-29396666Y108866142D01*
X-29349047Y108675666D01*
X-29349047Y108437571D01*
X-29396666Y108247095D01*
X-29444285Y108151857D01*
X-29491904Y108104238D01*
X-29587142Y108056619D01*
X-29682380Y108056619D01*
X-29777619Y108104238D01*
X-29825238Y108151857D01*
X-29872857Y108247095D01*
X-29920476Y108437571D01*
X-29920476Y108675666D01*
X-29872857Y108866142D01*
X-29825238Y108961380D01*
X-29777619Y109009000D01*
X-29682380Y109056619D01*
X-29158571Y107961380D02*
X-28396666Y107961380D01*
X-28253809Y109056619D02*
X-27587142Y109056619D01*
X-28015714Y108056619D01*
%TO.C,D600_6*%
X-32777619Y93056619D02*
X-32777619Y94056619D01*
X-32539523Y94056619D01*
X-32396666Y94009000D01*
X-32301428Y93913761D01*
X-32253809Y93818523D01*
X-32206190Y93628047D01*
X-32206190Y93485190D01*
X-32253809Y93294714D01*
X-32301428Y93199476D01*
X-32396666Y93104238D01*
X-32539523Y93056619D01*
X-32777619Y93056619D01*
X-31349047Y94056619D02*
X-31539523Y94056619D01*
X-31634761Y94009000D01*
X-31682380Y93961380D01*
X-31777619Y93818523D01*
X-31825238Y93628047D01*
X-31825238Y93247095D01*
X-31777619Y93151857D01*
X-31730000Y93104238D01*
X-31634761Y93056619D01*
X-31444285Y93056619D01*
X-31349047Y93104238D01*
X-31301428Y93151857D01*
X-31253809Y93247095D01*
X-31253809Y93485190D01*
X-31301428Y93580428D01*
X-31349047Y93628047D01*
X-31444285Y93675666D01*
X-31634761Y93675666D01*
X-31730000Y93628047D01*
X-31777619Y93580428D01*
X-31825238Y93485190D01*
X-30634761Y94056619D02*
X-30539523Y94056619D01*
X-30444285Y94009000D01*
X-30396666Y93961380D01*
X-30349047Y93866142D01*
X-30301428Y93675666D01*
X-30301428Y93437571D01*
X-30349047Y93247095D01*
X-30396666Y93151857D01*
X-30444285Y93104238D01*
X-30539523Y93056619D01*
X-30634761Y93056619D01*
X-30730000Y93104238D01*
X-30777619Y93151857D01*
X-30825238Y93247095D01*
X-30872857Y93437571D01*
X-30872857Y93675666D01*
X-30825238Y93866142D01*
X-30777619Y93961380D01*
X-30730000Y94009000D01*
X-30634761Y94056619D01*
X-29682380Y94056619D02*
X-29587142Y94056619D01*
X-29491904Y94009000D01*
X-29444285Y93961380D01*
X-29396666Y93866142D01*
X-29349047Y93675666D01*
X-29349047Y93437571D01*
X-29396666Y93247095D01*
X-29444285Y93151857D01*
X-29491904Y93104238D01*
X-29587142Y93056619D01*
X-29682380Y93056619D01*
X-29777619Y93104238D01*
X-29825238Y93151857D01*
X-29872857Y93247095D01*
X-29920476Y93437571D01*
X-29920476Y93675666D01*
X-29872857Y93866142D01*
X-29825238Y93961380D01*
X-29777619Y94009000D01*
X-29682380Y94056619D01*
X-29158571Y92961380D02*
X-28396666Y92961380D01*
X-27730000Y94056619D02*
X-27920476Y94056619D01*
X-28015714Y94009000D01*
X-28063333Y93961380D01*
X-28158571Y93818523D01*
X-28206190Y93628047D01*
X-28206190Y93247095D01*
X-28158571Y93151857D01*
X-28110952Y93104238D01*
X-28015714Y93056619D01*
X-27825238Y93056619D01*
X-27730000Y93104238D01*
X-27682380Y93151857D01*
X-27634761Y93247095D01*
X-27634761Y93485190D01*
X-27682380Y93580428D01*
X-27730000Y93628047D01*
X-27825238Y93675666D01*
X-28015714Y93675666D01*
X-28110952Y93628047D01*
X-28158571Y93580428D01*
X-28206190Y93485190D01*
%TO.C,D600_5*%
X-32777619Y78057619D02*
X-32777619Y79057619D01*
X-32539523Y79057619D01*
X-32396666Y79010000D01*
X-32301428Y78914761D01*
X-32253809Y78819523D01*
X-32206190Y78629047D01*
X-32206190Y78486190D01*
X-32253809Y78295714D01*
X-32301428Y78200476D01*
X-32396666Y78105238D01*
X-32539523Y78057619D01*
X-32777619Y78057619D01*
X-31349047Y79057619D02*
X-31539523Y79057619D01*
X-31634761Y79010000D01*
X-31682380Y78962380D01*
X-31777619Y78819523D01*
X-31825238Y78629047D01*
X-31825238Y78248095D01*
X-31777619Y78152857D01*
X-31730000Y78105238D01*
X-31634761Y78057619D01*
X-31444285Y78057619D01*
X-31349047Y78105238D01*
X-31301428Y78152857D01*
X-31253809Y78248095D01*
X-31253809Y78486190D01*
X-31301428Y78581428D01*
X-31349047Y78629047D01*
X-31444285Y78676666D01*
X-31634761Y78676666D01*
X-31730000Y78629047D01*
X-31777619Y78581428D01*
X-31825238Y78486190D01*
X-30634761Y79057619D02*
X-30539523Y79057619D01*
X-30444285Y79010000D01*
X-30396666Y78962380D01*
X-30349047Y78867142D01*
X-30301428Y78676666D01*
X-30301428Y78438571D01*
X-30349047Y78248095D01*
X-30396666Y78152857D01*
X-30444285Y78105238D01*
X-30539523Y78057619D01*
X-30634761Y78057619D01*
X-30730000Y78105238D01*
X-30777619Y78152857D01*
X-30825238Y78248095D01*
X-30872857Y78438571D01*
X-30872857Y78676666D01*
X-30825238Y78867142D01*
X-30777619Y78962380D01*
X-30730000Y79010000D01*
X-30634761Y79057619D01*
X-29682380Y79057619D02*
X-29587142Y79057619D01*
X-29491904Y79010000D01*
X-29444285Y78962380D01*
X-29396666Y78867142D01*
X-29349047Y78676666D01*
X-29349047Y78438571D01*
X-29396666Y78248095D01*
X-29444285Y78152857D01*
X-29491904Y78105238D01*
X-29587142Y78057619D01*
X-29682380Y78057619D01*
X-29777619Y78105238D01*
X-29825238Y78152857D01*
X-29872857Y78248095D01*
X-29920476Y78438571D01*
X-29920476Y78676666D01*
X-29872857Y78867142D01*
X-29825238Y78962380D01*
X-29777619Y79010000D01*
X-29682380Y79057619D01*
X-29158571Y77962380D02*
X-28396666Y77962380D01*
X-27682380Y79057619D02*
X-28158571Y79057619D01*
X-28206190Y78581428D01*
X-28158571Y78629047D01*
X-28063333Y78676666D01*
X-27825238Y78676666D01*
X-27730000Y78629047D01*
X-27682380Y78581428D01*
X-27634761Y78486190D01*
X-27634761Y78248095D01*
X-27682380Y78152857D01*
X-27730000Y78105238D01*
X-27825238Y78057619D01*
X-28063333Y78057619D01*
X-28158571Y78105238D01*
X-28206190Y78152857D01*
%TO.C,D600_4*%
X-32777619Y63057619D02*
X-32777619Y64057619D01*
X-32539523Y64057619D01*
X-32396666Y64010000D01*
X-32301428Y63914761D01*
X-32253809Y63819523D01*
X-32206190Y63629047D01*
X-32206190Y63486190D01*
X-32253809Y63295714D01*
X-32301428Y63200476D01*
X-32396666Y63105238D01*
X-32539523Y63057619D01*
X-32777619Y63057619D01*
X-31349047Y64057619D02*
X-31539523Y64057619D01*
X-31634761Y64010000D01*
X-31682380Y63962380D01*
X-31777619Y63819523D01*
X-31825238Y63629047D01*
X-31825238Y63248095D01*
X-31777619Y63152857D01*
X-31730000Y63105238D01*
X-31634761Y63057619D01*
X-31444285Y63057619D01*
X-31349047Y63105238D01*
X-31301428Y63152857D01*
X-31253809Y63248095D01*
X-31253809Y63486190D01*
X-31301428Y63581428D01*
X-31349047Y63629047D01*
X-31444285Y63676666D01*
X-31634761Y63676666D01*
X-31730000Y63629047D01*
X-31777619Y63581428D01*
X-31825238Y63486190D01*
X-30634761Y64057619D02*
X-30539523Y64057619D01*
X-30444285Y64010000D01*
X-30396666Y63962380D01*
X-30349047Y63867142D01*
X-30301428Y63676666D01*
X-30301428Y63438571D01*
X-30349047Y63248095D01*
X-30396666Y63152857D01*
X-30444285Y63105238D01*
X-30539523Y63057619D01*
X-30634761Y63057619D01*
X-30730000Y63105238D01*
X-30777619Y63152857D01*
X-30825238Y63248095D01*
X-30872857Y63438571D01*
X-30872857Y63676666D01*
X-30825238Y63867142D01*
X-30777619Y63962380D01*
X-30730000Y64010000D01*
X-30634761Y64057619D01*
X-29682380Y64057619D02*
X-29587142Y64057619D01*
X-29491904Y64010000D01*
X-29444285Y63962380D01*
X-29396666Y63867142D01*
X-29349047Y63676666D01*
X-29349047Y63438571D01*
X-29396666Y63248095D01*
X-29444285Y63152857D01*
X-29491904Y63105238D01*
X-29587142Y63057619D01*
X-29682380Y63057619D01*
X-29777619Y63105238D01*
X-29825238Y63152857D01*
X-29872857Y63248095D01*
X-29920476Y63438571D01*
X-29920476Y63676666D01*
X-29872857Y63867142D01*
X-29825238Y63962380D01*
X-29777619Y64010000D01*
X-29682380Y64057619D01*
X-29158571Y62962380D02*
X-28396666Y62962380D01*
X-27730000Y63724285D02*
X-27730000Y63057619D01*
X-27968095Y64105238D02*
X-28206190Y63390952D01*
X-27587142Y63390952D01*
%TO.C,D600_3*%
X-32777619Y48057619D02*
X-32777619Y49057619D01*
X-32539523Y49057619D01*
X-32396666Y49010000D01*
X-32301428Y48914761D01*
X-32253809Y48819523D01*
X-32206190Y48629047D01*
X-32206190Y48486190D01*
X-32253809Y48295714D01*
X-32301428Y48200476D01*
X-32396666Y48105238D01*
X-32539523Y48057619D01*
X-32777619Y48057619D01*
X-31349047Y49057619D02*
X-31539523Y49057619D01*
X-31634761Y49010000D01*
X-31682380Y48962380D01*
X-31777619Y48819523D01*
X-31825238Y48629047D01*
X-31825238Y48248095D01*
X-31777619Y48152857D01*
X-31730000Y48105238D01*
X-31634761Y48057619D01*
X-31444285Y48057619D01*
X-31349047Y48105238D01*
X-31301428Y48152857D01*
X-31253809Y48248095D01*
X-31253809Y48486190D01*
X-31301428Y48581428D01*
X-31349047Y48629047D01*
X-31444285Y48676666D01*
X-31634761Y48676666D01*
X-31730000Y48629047D01*
X-31777619Y48581428D01*
X-31825238Y48486190D01*
X-30634761Y49057619D02*
X-30539523Y49057619D01*
X-30444285Y49010000D01*
X-30396666Y48962380D01*
X-30349047Y48867142D01*
X-30301428Y48676666D01*
X-30301428Y48438571D01*
X-30349047Y48248095D01*
X-30396666Y48152857D01*
X-30444285Y48105238D01*
X-30539523Y48057619D01*
X-30634761Y48057619D01*
X-30730000Y48105238D01*
X-30777619Y48152857D01*
X-30825238Y48248095D01*
X-30872857Y48438571D01*
X-30872857Y48676666D01*
X-30825238Y48867142D01*
X-30777619Y48962380D01*
X-30730000Y49010000D01*
X-30634761Y49057619D01*
X-29682380Y49057619D02*
X-29587142Y49057619D01*
X-29491904Y49010000D01*
X-29444285Y48962380D01*
X-29396666Y48867142D01*
X-29349047Y48676666D01*
X-29349047Y48438571D01*
X-29396666Y48248095D01*
X-29444285Y48152857D01*
X-29491904Y48105238D01*
X-29587142Y48057619D01*
X-29682380Y48057619D01*
X-29777619Y48105238D01*
X-29825238Y48152857D01*
X-29872857Y48248095D01*
X-29920476Y48438571D01*
X-29920476Y48676666D01*
X-29872857Y48867142D01*
X-29825238Y48962380D01*
X-29777619Y49010000D01*
X-29682380Y49057619D01*
X-29158571Y47962380D02*
X-28396666Y47962380D01*
X-28253809Y49057619D02*
X-27634761Y49057619D01*
X-27968095Y48676666D01*
X-27825238Y48676666D01*
X-27730000Y48629047D01*
X-27682380Y48581428D01*
X-27634761Y48486190D01*
X-27634761Y48248095D01*
X-27682380Y48152857D01*
X-27730000Y48105238D01*
X-27825238Y48057619D01*
X-28110952Y48057619D01*
X-28206190Y48105238D01*
X-28253809Y48152857D01*
%TO.C,D600_2*%
X-32777619Y33057619D02*
X-32777619Y34057619D01*
X-32539523Y34057619D01*
X-32396666Y34010000D01*
X-32301428Y33914761D01*
X-32253809Y33819523D01*
X-32206190Y33629047D01*
X-32206190Y33486190D01*
X-32253809Y33295714D01*
X-32301428Y33200476D01*
X-32396666Y33105238D01*
X-32539523Y33057619D01*
X-32777619Y33057619D01*
X-31349047Y34057619D02*
X-31539523Y34057619D01*
X-31634761Y34010000D01*
X-31682380Y33962380D01*
X-31777619Y33819523D01*
X-31825238Y33629047D01*
X-31825238Y33248095D01*
X-31777619Y33152857D01*
X-31730000Y33105238D01*
X-31634761Y33057619D01*
X-31444285Y33057619D01*
X-31349047Y33105238D01*
X-31301428Y33152857D01*
X-31253809Y33248095D01*
X-31253809Y33486190D01*
X-31301428Y33581428D01*
X-31349047Y33629047D01*
X-31444285Y33676666D01*
X-31634761Y33676666D01*
X-31730000Y33629047D01*
X-31777619Y33581428D01*
X-31825238Y33486190D01*
X-30634761Y34057619D02*
X-30539523Y34057619D01*
X-30444285Y34010000D01*
X-30396666Y33962380D01*
X-30349047Y33867142D01*
X-30301428Y33676666D01*
X-30301428Y33438571D01*
X-30349047Y33248095D01*
X-30396666Y33152857D01*
X-30444285Y33105238D01*
X-30539523Y33057619D01*
X-30634761Y33057619D01*
X-30730000Y33105238D01*
X-30777619Y33152857D01*
X-30825238Y33248095D01*
X-30872857Y33438571D01*
X-30872857Y33676666D01*
X-30825238Y33867142D01*
X-30777619Y33962380D01*
X-30730000Y34010000D01*
X-30634761Y34057619D01*
X-29682380Y34057619D02*
X-29587142Y34057619D01*
X-29491904Y34010000D01*
X-29444285Y33962380D01*
X-29396666Y33867142D01*
X-29349047Y33676666D01*
X-29349047Y33438571D01*
X-29396666Y33248095D01*
X-29444285Y33152857D01*
X-29491904Y33105238D01*
X-29587142Y33057619D01*
X-29682380Y33057619D01*
X-29777619Y33105238D01*
X-29825238Y33152857D01*
X-29872857Y33248095D01*
X-29920476Y33438571D01*
X-29920476Y33676666D01*
X-29872857Y33867142D01*
X-29825238Y33962380D01*
X-29777619Y34010000D01*
X-29682380Y34057619D01*
X-29158571Y32962380D02*
X-28396666Y32962380D01*
X-28206190Y33962380D02*
X-28158571Y34010000D01*
X-28063333Y34057619D01*
X-27825238Y34057619D01*
X-27730000Y34010000D01*
X-27682380Y33962380D01*
X-27634761Y33867142D01*
X-27634761Y33771904D01*
X-27682380Y33629047D01*
X-28253809Y33057619D01*
X-27634761Y33057619D01*
%TO.C,D600_1*%
X-32777619Y18057619D02*
X-32777619Y19057619D01*
X-32539523Y19057619D01*
X-32396666Y19010000D01*
X-32301428Y18914761D01*
X-32253809Y18819523D01*
X-32206190Y18629047D01*
X-32206190Y18486190D01*
X-32253809Y18295714D01*
X-32301428Y18200476D01*
X-32396666Y18105238D01*
X-32539523Y18057619D01*
X-32777619Y18057619D01*
X-31349047Y19057619D02*
X-31539523Y19057619D01*
X-31634761Y19010000D01*
X-31682380Y18962380D01*
X-31777619Y18819523D01*
X-31825238Y18629047D01*
X-31825238Y18248095D01*
X-31777619Y18152857D01*
X-31730000Y18105238D01*
X-31634761Y18057619D01*
X-31444285Y18057619D01*
X-31349047Y18105238D01*
X-31301428Y18152857D01*
X-31253809Y18248095D01*
X-31253809Y18486190D01*
X-31301428Y18581428D01*
X-31349047Y18629047D01*
X-31444285Y18676666D01*
X-31634761Y18676666D01*
X-31730000Y18629047D01*
X-31777619Y18581428D01*
X-31825238Y18486190D01*
X-30634761Y19057619D02*
X-30539523Y19057619D01*
X-30444285Y19010000D01*
X-30396666Y18962380D01*
X-30349047Y18867142D01*
X-30301428Y18676666D01*
X-30301428Y18438571D01*
X-30349047Y18248095D01*
X-30396666Y18152857D01*
X-30444285Y18105238D01*
X-30539523Y18057619D01*
X-30634761Y18057619D01*
X-30730000Y18105238D01*
X-30777619Y18152857D01*
X-30825238Y18248095D01*
X-30872857Y18438571D01*
X-30872857Y18676666D01*
X-30825238Y18867142D01*
X-30777619Y18962380D01*
X-30730000Y19010000D01*
X-30634761Y19057619D01*
X-29682380Y19057619D02*
X-29587142Y19057619D01*
X-29491904Y19010000D01*
X-29444285Y18962380D01*
X-29396666Y18867142D01*
X-29349047Y18676666D01*
X-29349047Y18438571D01*
X-29396666Y18248095D01*
X-29444285Y18152857D01*
X-29491904Y18105238D01*
X-29587142Y18057619D01*
X-29682380Y18057619D01*
X-29777619Y18105238D01*
X-29825238Y18152857D01*
X-29872857Y18248095D01*
X-29920476Y18438571D01*
X-29920476Y18676666D01*
X-29872857Y18867142D01*
X-29825238Y18962380D01*
X-29777619Y19010000D01*
X-29682380Y19057619D01*
X-29158571Y17962380D02*
X-28396666Y17962380D01*
X-27634761Y18057619D02*
X-28206190Y18057619D01*
X-27920476Y18057619D02*
X-27920476Y19057619D01*
X-28015714Y18914761D01*
X-28110952Y18819523D01*
X-28206190Y18771904D01*
%TO.C,U601*%
D11*
X-18891142Y129940809D02*
X-18891142Y129536047D01*
X-18867333Y129488428D01*
X-18843523Y129464619D01*
X-18795904Y129440809D01*
X-18700666Y129440809D01*
X-18653047Y129464619D01*
X-18629238Y129488428D01*
X-18605428Y129536047D01*
X-18605428Y129940809D01*
X-18153047Y129940809D02*
X-18248285Y129940809D01*
X-18295904Y129917000D01*
X-18319714Y129893190D01*
X-18367333Y129821761D01*
X-18391142Y129726523D01*
X-18391142Y129536047D01*
X-18367333Y129488428D01*
X-18343523Y129464619D01*
X-18295904Y129440809D01*
X-18200666Y129440809D01*
X-18153047Y129464619D01*
X-18129238Y129488428D01*
X-18105428Y129536047D01*
X-18105428Y129655095D01*
X-18129238Y129702714D01*
X-18153047Y129726523D01*
X-18200666Y129750333D01*
X-18295904Y129750333D01*
X-18343523Y129726523D01*
X-18367333Y129702714D01*
X-18391142Y129655095D01*
X-17795904Y129940809D02*
X-17748285Y129940809D01*
X-17700666Y129917000D01*
X-17676857Y129893190D01*
X-17653047Y129845571D01*
X-17629238Y129750333D01*
X-17629238Y129631285D01*
X-17653047Y129536047D01*
X-17676857Y129488428D01*
X-17700666Y129464619D01*
X-17748285Y129440809D01*
X-17795904Y129440809D01*
X-17843523Y129464619D01*
X-17867333Y129488428D01*
X-17891142Y129536047D01*
X-17914952Y129631285D01*
X-17914952Y129750333D01*
X-17891142Y129845571D01*
X-17867333Y129893190D01*
X-17843523Y129917000D01*
X-17795904Y129940809D01*
X-17153047Y129440809D02*
X-17438761Y129440809D01*
X-17295904Y129440809D02*
X-17295904Y129940809D01*
X-17343523Y129869380D01*
X-17391142Y129821761D01*
X-17438761Y129797952D01*
%TO.C,U600*%
X-26130142Y129940809D02*
X-26130142Y129536047D01*
X-26106333Y129488428D01*
X-26082523Y129464619D01*
X-26034904Y129440809D01*
X-25939666Y129440809D01*
X-25892047Y129464619D01*
X-25868238Y129488428D01*
X-25844428Y129536047D01*
X-25844428Y129940809D01*
X-25392047Y129940809D02*
X-25487285Y129940809D01*
X-25534904Y129917000D01*
X-25558714Y129893190D01*
X-25606333Y129821761D01*
X-25630142Y129726523D01*
X-25630142Y129536047D01*
X-25606333Y129488428D01*
X-25582523Y129464619D01*
X-25534904Y129440809D01*
X-25439666Y129440809D01*
X-25392047Y129464619D01*
X-25368238Y129488428D01*
X-25344428Y129536047D01*
X-25344428Y129655095D01*
X-25368238Y129702714D01*
X-25392047Y129726523D01*
X-25439666Y129750333D01*
X-25534904Y129750333D01*
X-25582523Y129726523D01*
X-25606333Y129702714D01*
X-25630142Y129655095D01*
X-25034904Y129940809D02*
X-24987285Y129940809D01*
X-24939666Y129917000D01*
X-24915857Y129893190D01*
X-24892047Y129845571D01*
X-24868238Y129750333D01*
X-24868238Y129631285D01*
X-24892047Y129536047D01*
X-24915857Y129488428D01*
X-24939666Y129464619D01*
X-24987285Y129440809D01*
X-25034904Y129440809D01*
X-25082523Y129464619D01*
X-25106333Y129488428D01*
X-25130142Y129536047D01*
X-25153952Y129631285D01*
X-25153952Y129750333D01*
X-25130142Y129845571D01*
X-25106333Y129893190D01*
X-25082523Y129917000D01*
X-25034904Y129940809D01*
X-24558714Y129940809D02*
X-24511095Y129940809D01*
X-24463476Y129917000D01*
X-24439666Y129893190D01*
X-24415857Y129845571D01*
X-24392047Y129750333D01*
X-24392047Y129631285D01*
X-24415857Y129536047D01*
X-24439666Y129488428D01*
X-24463476Y129464619D01*
X-24511095Y129440809D01*
X-24558714Y129440809D01*
X-24606333Y129464619D01*
X-24630142Y129488428D01*
X-24653952Y129536047D01*
X-24677761Y129631285D01*
X-24677761Y129750333D01*
X-24653952Y129845571D01*
X-24630142Y129893190D01*
X-24606333Y129917000D01*
X-24558714Y129940809D01*
%TO.C,R607*%
X-5615809Y136092476D02*
X-5853904Y135925809D01*
X-5615809Y135806761D02*
X-6115809Y135806761D01*
X-6115809Y135997238D01*
X-6092000Y136044857D01*
X-6068190Y136068666D01*
X-6020571Y136092476D01*
X-5949142Y136092476D01*
X-5901523Y136068666D01*
X-5877714Y136044857D01*
X-5853904Y135997238D01*
X-5853904Y135806761D01*
X-6115809Y136521047D02*
X-6115809Y136425809D01*
X-6092000Y136378190D01*
X-6068190Y136354380D01*
X-5996761Y136306761D01*
X-5901523Y136282952D01*
X-5711047Y136282952D01*
X-5663428Y136306761D01*
X-5639619Y136330571D01*
X-5615809Y136378190D01*
X-5615809Y136473428D01*
X-5639619Y136521047D01*
X-5663428Y136544857D01*
X-5711047Y136568666D01*
X-5830095Y136568666D01*
X-5877714Y136544857D01*
X-5901523Y136521047D01*
X-5925333Y136473428D01*
X-5925333Y136378190D01*
X-5901523Y136330571D01*
X-5877714Y136306761D01*
X-5830095Y136282952D01*
X-6115809Y136878190D02*
X-6115809Y136925809D01*
X-6092000Y136973428D01*
X-6068190Y136997238D01*
X-6020571Y137021047D01*
X-5925333Y137044857D01*
X-5806285Y137044857D01*
X-5711047Y137021047D01*
X-5663428Y136997238D01*
X-5639619Y136973428D01*
X-5615809Y136925809D01*
X-5615809Y136878190D01*
X-5639619Y136830571D01*
X-5663428Y136806761D01*
X-5711047Y136782952D01*
X-5806285Y136759142D01*
X-5925333Y136759142D01*
X-6020571Y136782952D01*
X-6068190Y136806761D01*
X-6092000Y136830571D01*
X-6115809Y136878190D01*
X-6115809Y137211523D02*
X-6115809Y137544857D01*
X-5615809Y137330571D01*
%TO.C,R606*%
X-8409809Y136219476D02*
X-8647904Y136052809D01*
X-8409809Y135933761D02*
X-8909809Y135933761D01*
X-8909809Y136124238D01*
X-8886000Y136171857D01*
X-8862190Y136195666D01*
X-8814571Y136219476D01*
X-8743142Y136219476D01*
X-8695523Y136195666D01*
X-8671714Y136171857D01*
X-8647904Y136124238D01*
X-8647904Y135933761D01*
X-8909809Y136648047D02*
X-8909809Y136552809D01*
X-8886000Y136505190D01*
X-8862190Y136481380D01*
X-8790761Y136433761D01*
X-8695523Y136409952D01*
X-8505047Y136409952D01*
X-8457428Y136433761D01*
X-8433619Y136457571D01*
X-8409809Y136505190D01*
X-8409809Y136600428D01*
X-8433619Y136648047D01*
X-8457428Y136671857D01*
X-8505047Y136695666D01*
X-8624095Y136695666D01*
X-8671714Y136671857D01*
X-8695523Y136648047D01*
X-8719333Y136600428D01*
X-8719333Y136505190D01*
X-8695523Y136457571D01*
X-8671714Y136433761D01*
X-8624095Y136409952D01*
X-8909809Y137005190D02*
X-8909809Y137052809D01*
X-8886000Y137100428D01*
X-8862190Y137124238D01*
X-8814571Y137148047D01*
X-8719333Y137171857D01*
X-8600285Y137171857D01*
X-8505047Y137148047D01*
X-8457428Y137124238D01*
X-8433619Y137100428D01*
X-8409809Y137052809D01*
X-8409809Y137005190D01*
X-8433619Y136957571D01*
X-8457428Y136933761D01*
X-8505047Y136909952D01*
X-8600285Y136886142D01*
X-8719333Y136886142D01*
X-8814571Y136909952D01*
X-8862190Y136933761D01*
X-8886000Y136957571D01*
X-8909809Y137005190D01*
X-8909809Y137600428D02*
X-8909809Y137505190D01*
X-8886000Y137457571D01*
X-8862190Y137433761D01*
X-8790761Y137386142D01*
X-8695523Y137362333D01*
X-8505047Y137362333D01*
X-8457428Y137386142D01*
X-8433619Y137409952D01*
X-8409809Y137457571D01*
X-8409809Y137552809D01*
X-8433619Y137600428D01*
X-8457428Y137624238D01*
X-8505047Y137648047D01*
X-8624095Y137648047D01*
X-8671714Y137624238D01*
X-8695523Y137600428D01*
X-8719333Y137552809D01*
X-8719333Y137457571D01*
X-8695523Y137409952D01*
X-8671714Y137386142D01*
X-8624095Y137362333D01*
%TO.C,R605*%
X-11203809Y136219476D02*
X-11441904Y136052809D01*
X-11203809Y135933761D02*
X-11703809Y135933761D01*
X-11703809Y136124238D01*
X-11680000Y136171857D01*
X-11656190Y136195666D01*
X-11608571Y136219476D01*
X-11537142Y136219476D01*
X-11489523Y136195666D01*
X-11465714Y136171857D01*
X-11441904Y136124238D01*
X-11441904Y135933761D01*
X-11703809Y136648047D02*
X-11703809Y136552809D01*
X-11680000Y136505190D01*
X-11656190Y136481380D01*
X-11584761Y136433761D01*
X-11489523Y136409952D01*
X-11299047Y136409952D01*
X-11251428Y136433761D01*
X-11227619Y136457571D01*
X-11203809Y136505190D01*
X-11203809Y136600428D01*
X-11227619Y136648047D01*
X-11251428Y136671857D01*
X-11299047Y136695666D01*
X-11418095Y136695666D01*
X-11465714Y136671857D01*
X-11489523Y136648047D01*
X-11513333Y136600428D01*
X-11513333Y136505190D01*
X-11489523Y136457571D01*
X-11465714Y136433761D01*
X-11418095Y136409952D01*
X-11703809Y137005190D02*
X-11703809Y137052809D01*
X-11680000Y137100428D01*
X-11656190Y137124238D01*
X-11608571Y137148047D01*
X-11513333Y137171857D01*
X-11394285Y137171857D01*
X-11299047Y137148047D01*
X-11251428Y137124238D01*
X-11227619Y137100428D01*
X-11203809Y137052809D01*
X-11203809Y137005190D01*
X-11227619Y136957571D01*
X-11251428Y136933761D01*
X-11299047Y136909952D01*
X-11394285Y136886142D01*
X-11513333Y136886142D01*
X-11608571Y136909952D01*
X-11656190Y136933761D01*
X-11680000Y136957571D01*
X-11703809Y137005190D01*
X-11703809Y137624238D02*
X-11703809Y137386142D01*
X-11465714Y137362333D01*
X-11489523Y137386142D01*
X-11513333Y137433761D01*
X-11513333Y137552809D01*
X-11489523Y137600428D01*
X-11465714Y137624238D01*
X-11418095Y137648047D01*
X-11299047Y137648047D01*
X-11251428Y137624238D01*
X-11227619Y137600428D01*
X-11203809Y137552809D01*
X-11203809Y137433761D01*
X-11227619Y137386142D01*
X-11251428Y137362333D01*
%TO.C,R604*%
X-8052523Y128678809D02*
X-8219190Y128916904D01*
X-8338238Y128678809D02*
X-8338238Y129178809D01*
X-8147761Y129178809D01*
X-8100142Y129155000D01*
X-8076333Y129131190D01*
X-8052523Y129083571D01*
X-8052523Y129012142D01*
X-8076333Y128964523D01*
X-8100142Y128940714D01*
X-8147761Y128916904D01*
X-8338238Y128916904D01*
X-7623952Y129178809D02*
X-7719190Y129178809D01*
X-7766809Y129155000D01*
X-7790619Y129131190D01*
X-7838238Y129059761D01*
X-7862047Y128964523D01*
X-7862047Y128774047D01*
X-7838238Y128726428D01*
X-7814428Y128702619D01*
X-7766809Y128678809D01*
X-7671571Y128678809D01*
X-7623952Y128702619D01*
X-7600142Y128726428D01*
X-7576333Y128774047D01*
X-7576333Y128893095D01*
X-7600142Y128940714D01*
X-7623952Y128964523D01*
X-7671571Y128988333D01*
X-7766809Y128988333D01*
X-7814428Y128964523D01*
X-7838238Y128940714D01*
X-7862047Y128893095D01*
X-7266809Y129178809D02*
X-7219190Y129178809D01*
X-7171571Y129155000D01*
X-7147761Y129131190D01*
X-7123952Y129083571D01*
X-7100142Y128988333D01*
X-7100142Y128869285D01*
X-7123952Y128774047D01*
X-7147761Y128726428D01*
X-7171571Y128702619D01*
X-7219190Y128678809D01*
X-7266809Y128678809D01*
X-7314428Y128702619D01*
X-7338238Y128726428D01*
X-7362047Y128774047D01*
X-7385857Y128869285D01*
X-7385857Y128988333D01*
X-7362047Y129083571D01*
X-7338238Y129131190D01*
X-7314428Y129155000D01*
X-7266809Y129178809D01*
X-6671571Y129012142D02*
X-6671571Y128678809D01*
X-6790619Y129202619D02*
X-6909666Y128845476D01*
X-6600142Y128845476D01*
%TO.C,R603*%
X-10846523Y128678809D02*
X-11013190Y128916904D01*
X-11132238Y128678809D02*
X-11132238Y129178809D01*
X-10941761Y129178809D01*
X-10894142Y129155000D01*
X-10870333Y129131190D01*
X-10846523Y129083571D01*
X-10846523Y129012142D01*
X-10870333Y128964523D01*
X-10894142Y128940714D01*
X-10941761Y128916904D01*
X-11132238Y128916904D01*
X-10417952Y129178809D02*
X-10513190Y129178809D01*
X-10560809Y129155000D01*
X-10584619Y129131190D01*
X-10632238Y129059761D01*
X-10656047Y128964523D01*
X-10656047Y128774047D01*
X-10632238Y128726428D01*
X-10608428Y128702619D01*
X-10560809Y128678809D01*
X-10465571Y128678809D01*
X-10417952Y128702619D01*
X-10394142Y128726428D01*
X-10370333Y128774047D01*
X-10370333Y128893095D01*
X-10394142Y128940714D01*
X-10417952Y128964523D01*
X-10465571Y128988333D01*
X-10560809Y128988333D01*
X-10608428Y128964523D01*
X-10632238Y128940714D01*
X-10656047Y128893095D01*
X-10060809Y129178809D02*
X-10013190Y129178809D01*
X-9965571Y129155000D01*
X-9941761Y129131190D01*
X-9917952Y129083571D01*
X-9894142Y128988333D01*
X-9894142Y128869285D01*
X-9917952Y128774047D01*
X-9941761Y128726428D01*
X-9965571Y128702619D01*
X-10013190Y128678809D01*
X-10060809Y128678809D01*
X-10108428Y128702619D01*
X-10132238Y128726428D01*
X-10156047Y128774047D01*
X-10179857Y128869285D01*
X-10179857Y128988333D01*
X-10156047Y129083571D01*
X-10132238Y129131190D01*
X-10108428Y129155000D01*
X-10060809Y129178809D01*
X-9727476Y129178809D02*
X-9417952Y129178809D01*
X-9584619Y128988333D01*
X-9513190Y128988333D01*
X-9465571Y128964523D01*
X-9441761Y128940714D01*
X-9417952Y128893095D01*
X-9417952Y128774047D01*
X-9441761Y128726428D01*
X-9465571Y128702619D01*
X-9513190Y128678809D01*
X-9656047Y128678809D01*
X-9703666Y128702619D01*
X-9727476Y128726428D01*
%TO.C,R602*%
X-13640523Y128678809D02*
X-13807190Y128916904D01*
X-13926238Y128678809D02*
X-13926238Y129178809D01*
X-13735761Y129178809D01*
X-13688142Y129155000D01*
X-13664333Y129131190D01*
X-13640523Y129083571D01*
X-13640523Y129012142D01*
X-13664333Y128964523D01*
X-13688142Y128940714D01*
X-13735761Y128916904D01*
X-13926238Y128916904D01*
X-13211952Y129178809D02*
X-13307190Y129178809D01*
X-13354809Y129155000D01*
X-13378619Y129131190D01*
X-13426238Y129059761D01*
X-13450047Y128964523D01*
X-13450047Y128774047D01*
X-13426238Y128726428D01*
X-13402428Y128702619D01*
X-13354809Y128678809D01*
X-13259571Y128678809D01*
X-13211952Y128702619D01*
X-13188142Y128726428D01*
X-13164333Y128774047D01*
X-13164333Y128893095D01*
X-13188142Y128940714D01*
X-13211952Y128964523D01*
X-13259571Y128988333D01*
X-13354809Y128988333D01*
X-13402428Y128964523D01*
X-13426238Y128940714D01*
X-13450047Y128893095D01*
X-12854809Y129178809D02*
X-12807190Y129178809D01*
X-12759571Y129155000D01*
X-12735761Y129131190D01*
X-12711952Y129083571D01*
X-12688142Y128988333D01*
X-12688142Y128869285D01*
X-12711952Y128774047D01*
X-12735761Y128726428D01*
X-12759571Y128702619D01*
X-12807190Y128678809D01*
X-12854809Y128678809D01*
X-12902428Y128702619D01*
X-12926238Y128726428D01*
X-12950047Y128774047D01*
X-12973857Y128869285D01*
X-12973857Y128988333D01*
X-12950047Y129083571D01*
X-12926238Y129131190D01*
X-12902428Y129155000D01*
X-12854809Y129178809D01*
X-12497666Y129131190D02*
X-12473857Y129155000D01*
X-12426238Y129178809D01*
X-12307190Y129178809D01*
X-12259571Y129155000D01*
X-12235761Y129131190D01*
X-12211952Y129083571D01*
X-12211952Y129035952D01*
X-12235761Y128964523D01*
X-12521476Y128678809D01*
X-12211952Y128678809D01*
%TO.C,R601*%
X-16688523Y136552809D02*
X-16855190Y136790904D01*
X-16974238Y136552809D02*
X-16974238Y137052809D01*
X-16783761Y137052809D01*
X-16736142Y137029000D01*
X-16712333Y137005190D01*
X-16688523Y136957571D01*
X-16688523Y136886142D01*
X-16712333Y136838523D01*
X-16736142Y136814714D01*
X-16783761Y136790904D01*
X-16974238Y136790904D01*
X-16259952Y137052809D02*
X-16355190Y137052809D01*
X-16402809Y137029000D01*
X-16426619Y137005190D01*
X-16474238Y136933761D01*
X-16498047Y136838523D01*
X-16498047Y136648047D01*
X-16474238Y136600428D01*
X-16450428Y136576619D01*
X-16402809Y136552809D01*
X-16307571Y136552809D01*
X-16259952Y136576619D01*
X-16236142Y136600428D01*
X-16212333Y136648047D01*
X-16212333Y136767095D01*
X-16236142Y136814714D01*
X-16259952Y136838523D01*
X-16307571Y136862333D01*
X-16402809Y136862333D01*
X-16450428Y136838523D01*
X-16474238Y136814714D01*
X-16498047Y136767095D01*
X-15902809Y137052809D02*
X-15855190Y137052809D01*
X-15807571Y137029000D01*
X-15783761Y137005190D01*
X-15759952Y136957571D01*
X-15736142Y136862333D01*
X-15736142Y136743285D01*
X-15759952Y136648047D01*
X-15783761Y136600428D01*
X-15807571Y136576619D01*
X-15855190Y136552809D01*
X-15902809Y136552809D01*
X-15950428Y136576619D01*
X-15974238Y136600428D01*
X-15998047Y136648047D01*
X-16021857Y136743285D01*
X-16021857Y136862333D01*
X-15998047Y136957571D01*
X-15974238Y137005190D01*
X-15950428Y137029000D01*
X-15902809Y137052809D01*
X-15259952Y136552809D02*
X-15545666Y136552809D01*
X-15402809Y136552809D02*
X-15402809Y137052809D01*
X-15450428Y136981380D01*
X-15498047Y136933761D01*
X-15545666Y136909952D01*
%TO.C,R600*%
X-23927523Y136552809D02*
X-24094190Y136790904D01*
X-24213238Y136552809D02*
X-24213238Y137052809D01*
X-24022761Y137052809D01*
X-23975142Y137029000D01*
X-23951333Y137005190D01*
X-23927523Y136957571D01*
X-23927523Y136886142D01*
X-23951333Y136838523D01*
X-23975142Y136814714D01*
X-24022761Y136790904D01*
X-24213238Y136790904D01*
X-23498952Y137052809D02*
X-23594190Y137052809D01*
X-23641809Y137029000D01*
X-23665619Y137005190D01*
X-23713238Y136933761D01*
X-23737047Y136838523D01*
X-23737047Y136648047D01*
X-23713238Y136600428D01*
X-23689428Y136576619D01*
X-23641809Y136552809D01*
X-23546571Y136552809D01*
X-23498952Y136576619D01*
X-23475142Y136600428D01*
X-23451333Y136648047D01*
X-23451333Y136767095D01*
X-23475142Y136814714D01*
X-23498952Y136838523D01*
X-23546571Y136862333D01*
X-23641809Y136862333D01*
X-23689428Y136838523D01*
X-23713238Y136814714D01*
X-23737047Y136767095D01*
X-23141809Y137052809D02*
X-23094190Y137052809D01*
X-23046571Y137029000D01*
X-23022761Y137005190D01*
X-22998952Y136957571D01*
X-22975142Y136862333D01*
X-22975142Y136743285D01*
X-22998952Y136648047D01*
X-23022761Y136600428D01*
X-23046571Y136576619D01*
X-23094190Y136552809D01*
X-23141809Y136552809D01*
X-23189428Y136576619D01*
X-23213238Y136600428D01*
X-23237047Y136648047D01*
X-23260857Y136743285D01*
X-23260857Y136862333D01*
X-23237047Y136957571D01*
X-23213238Y137005190D01*
X-23189428Y137029000D01*
X-23141809Y137052809D01*
X-22665619Y137052809D02*
X-22618000Y137052809D01*
X-22570380Y137029000D01*
X-22546571Y137005190D01*
X-22522761Y136957571D01*
X-22498952Y136862333D01*
X-22498952Y136743285D01*
X-22522761Y136648047D01*
X-22546571Y136600428D01*
X-22570380Y136576619D01*
X-22618000Y136552809D01*
X-22665619Y136552809D01*
X-22713238Y136576619D01*
X-22737047Y136600428D01*
X-22760857Y136648047D01*
X-22784666Y136743285D01*
X-22784666Y136862333D01*
X-22760857Y136957571D01*
X-22737047Y137005190D01*
X-22713238Y137029000D01*
X-22665619Y137052809D01*
%TO.C,Q602*%
X-5949190Y131429190D02*
X-5973000Y131381571D01*
X-6020619Y131333952D01*
X-6092047Y131262523D01*
X-6115857Y131214904D01*
X-6115857Y131167285D01*
X-5996809Y131191095D02*
X-6020619Y131143476D01*
X-6068238Y131095857D01*
X-6163476Y131072047D01*
X-6330142Y131072047D01*
X-6425380Y131095857D01*
X-6473000Y131143476D01*
X-6496809Y131191095D01*
X-6496809Y131286333D01*
X-6473000Y131333952D01*
X-6425380Y131381571D01*
X-6330142Y131405380D01*
X-6163476Y131405380D01*
X-6068238Y131381571D01*
X-6020619Y131333952D01*
X-5996809Y131286333D01*
X-5996809Y131191095D01*
X-6496809Y131833952D02*
X-6496809Y131738714D01*
X-6473000Y131691095D01*
X-6449190Y131667285D01*
X-6377761Y131619666D01*
X-6282523Y131595857D01*
X-6092047Y131595857D01*
X-6044428Y131619666D01*
X-6020619Y131643476D01*
X-5996809Y131691095D01*
X-5996809Y131786333D01*
X-6020619Y131833952D01*
X-6044428Y131857761D01*
X-6092047Y131881571D01*
X-6211095Y131881571D01*
X-6258714Y131857761D01*
X-6282523Y131833952D01*
X-6306333Y131786333D01*
X-6306333Y131691095D01*
X-6282523Y131643476D01*
X-6258714Y131619666D01*
X-6211095Y131595857D01*
X-6496809Y132191095D02*
X-6496809Y132238714D01*
X-6473000Y132286333D01*
X-6449190Y132310142D01*
X-6401571Y132333952D01*
X-6306333Y132357761D01*
X-6187285Y132357761D01*
X-6092047Y132333952D01*
X-6044428Y132310142D01*
X-6020619Y132286333D01*
X-5996809Y132238714D01*
X-5996809Y132191095D01*
X-6020619Y132143476D01*
X-6044428Y132119666D01*
X-6092047Y132095857D01*
X-6187285Y132072047D01*
X-6306333Y132072047D01*
X-6401571Y132095857D01*
X-6449190Y132119666D01*
X-6473000Y132143476D01*
X-6496809Y132191095D01*
X-6449190Y132548238D02*
X-6473000Y132572047D01*
X-6496809Y132619666D01*
X-6496809Y132738714D01*
X-6473000Y132786333D01*
X-6449190Y132810142D01*
X-6401571Y132833952D01*
X-6353952Y132833952D01*
X-6282523Y132810142D01*
X-5996809Y132524428D01*
X-5996809Y132833952D01*
%TO.C,Q601*%
X-8870190Y131429190D02*
X-8894000Y131381571D01*
X-8941619Y131333952D01*
X-9013047Y131262523D01*
X-9036857Y131214904D01*
X-9036857Y131167285D01*
X-8917809Y131191095D02*
X-8941619Y131143476D01*
X-8989238Y131095857D01*
X-9084476Y131072047D01*
X-9251142Y131072047D01*
X-9346380Y131095857D01*
X-9394000Y131143476D01*
X-9417809Y131191095D01*
X-9417809Y131286333D01*
X-9394000Y131333952D01*
X-9346380Y131381571D01*
X-9251142Y131405380D01*
X-9084476Y131405380D01*
X-8989238Y131381571D01*
X-8941619Y131333952D01*
X-8917809Y131286333D01*
X-8917809Y131191095D01*
X-9417809Y131833952D02*
X-9417809Y131738714D01*
X-9394000Y131691095D01*
X-9370190Y131667285D01*
X-9298761Y131619666D01*
X-9203523Y131595857D01*
X-9013047Y131595857D01*
X-8965428Y131619666D01*
X-8941619Y131643476D01*
X-8917809Y131691095D01*
X-8917809Y131786333D01*
X-8941619Y131833952D01*
X-8965428Y131857761D01*
X-9013047Y131881571D01*
X-9132095Y131881571D01*
X-9179714Y131857761D01*
X-9203523Y131833952D01*
X-9227333Y131786333D01*
X-9227333Y131691095D01*
X-9203523Y131643476D01*
X-9179714Y131619666D01*
X-9132095Y131595857D01*
X-9417809Y132191095D02*
X-9417809Y132238714D01*
X-9394000Y132286333D01*
X-9370190Y132310142D01*
X-9322571Y132333952D01*
X-9227333Y132357761D01*
X-9108285Y132357761D01*
X-9013047Y132333952D01*
X-8965428Y132310142D01*
X-8941619Y132286333D01*
X-8917809Y132238714D01*
X-8917809Y132191095D01*
X-8941619Y132143476D01*
X-8965428Y132119666D01*
X-9013047Y132095857D01*
X-9108285Y132072047D01*
X-9227333Y132072047D01*
X-9322571Y132095857D01*
X-9370190Y132119666D01*
X-9394000Y132143476D01*
X-9417809Y132191095D01*
X-8917809Y132833952D02*
X-8917809Y132548238D01*
X-8917809Y132691095D02*
X-9417809Y132691095D01*
X-9346380Y132643476D01*
X-9298761Y132595857D01*
X-9274952Y132548238D01*
%TO.C,Q600*%
X-11664190Y131429190D02*
X-11688000Y131381571D01*
X-11735619Y131333952D01*
X-11807047Y131262523D01*
X-11830857Y131214904D01*
X-11830857Y131167285D01*
X-11711809Y131191095D02*
X-11735619Y131143476D01*
X-11783238Y131095857D01*
X-11878476Y131072047D01*
X-12045142Y131072047D01*
X-12140380Y131095857D01*
X-12188000Y131143476D01*
X-12211809Y131191095D01*
X-12211809Y131286333D01*
X-12188000Y131333952D01*
X-12140380Y131381571D01*
X-12045142Y131405380D01*
X-11878476Y131405380D01*
X-11783238Y131381571D01*
X-11735619Y131333952D01*
X-11711809Y131286333D01*
X-11711809Y131191095D01*
X-12211809Y131833952D02*
X-12211809Y131738714D01*
X-12188000Y131691095D01*
X-12164190Y131667285D01*
X-12092761Y131619666D01*
X-11997523Y131595857D01*
X-11807047Y131595857D01*
X-11759428Y131619666D01*
X-11735619Y131643476D01*
X-11711809Y131691095D01*
X-11711809Y131786333D01*
X-11735619Y131833952D01*
X-11759428Y131857761D01*
X-11807047Y131881571D01*
X-11926095Y131881571D01*
X-11973714Y131857761D01*
X-11997523Y131833952D01*
X-12021333Y131786333D01*
X-12021333Y131691095D01*
X-11997523Y131643476D01*
X-11973714Y131619666D01*
X-11926095Y131595857D01*
X-12211809Y132191095D02*
X-12211809Y132238714D01*
X-12188000Y132286333D01*
X-12164190Y132310142D01*
X-12116571Y132333952D01*
X-12021333Y132357761D01*
X-11902285Y132357761D01*
X-11807047Y132333952D01*
X-11759428Y132310142D01*
X-11735619Y132286333D01*
X-11711809Y132238714D01*
X-11711809Y132191095D01*
X-11735619Y132143476D01*
X-11759428Y132119666D01*
X-11807047Y132095857D01*
X-11902285Y132072047D01*
X-12021333Y132072047D01*
X-12116571Y132095857D01*
X-12164190Y132119666D01*
X-12188000Y132143476D01*
X-12211809Y132191095D01*
X-12211809Y132667285D02*
X-12211809Y132714904D01*
X-12188000Y132762523D01*
X-12164190Y132786333D01*
X-12116571Y132810142D01*
X-12021333Y132833952D01*
X-11902285Y132833952D01*
X-11807047Y132810142D01*
X-11759428Y132786333D01*
X-11735619Y132762523D01*
X-11711809Y132714904D01*
X-11711809Y132667285D01*
X-11735619Y132619666D01*
X-11759428Y132595857D01*
X-11807047Y132572047D01*
X-11902285Y132548238D01*
X-12021333Y132548238D01*
X-12116571Y132572047D01*
X-12164190Y132595857D01*
X-12188000Y132619666D01*
X-12211809Y132667285D01*
%TO.C,C601*%
X-20397523Y137108428D02*
X-20421333Y137084619D01*
X-20492761Y137060809D01*
X-20540380Y137060809D01*
X-20611809Y137084619D01*
X-20659428Y137132238D01*
X-20683238Y137179857D01*
X-20707047Y137275095D01*
X-20707047Y137346523D01*
X-20683238Y137441761D01*
X-20659428Y137489380D01*
X-20611809Y137537000D01*
X-20540380Y137560809D01*
X-20492761Y137560809D01*
X-20421333Y137537000D01*
X-20397523Y137513190D01*
X-19968952Y137560809D02*
X-20064190Y137560809D01*
X-20111809Y137537000D01*
X-20135619Y137513190D01*
X-20183238Y137441761D01*
X-20207047Y137346523D01*
X-20207047Y137156047D01*
X-20183238Y137108428D01*
X-20159428Y137084619D01*
X-20111809Y137060809D01*
X-20016571Y137060809D01*
X-19968952Y137084619D01*
X-19945142Y137108428D01*
X-19921333Y137156047D01*
X-19921333Y137275095D01*
X-19945142Y137322714D01*
X-19968952Y137346523D01*
X-20016571Y137370333D01*
X-20111809Y137370333D01*
X-20159428Y137346523D01*
X-20183238Y137322714D01*
X-20207047Y137275095D01*
X-19611809Y137560809D02*
X-19564190Y137560809D01*
X-19516571Y137537000D01*
X-19492761Y137513190D01*
X-19468952Y137465571D01*
X-19445142Y137370333D01*
X-19445142Y137251285D01*
X-19468952Y137156047D01*
X-19492761Y137108428D01*
X-19516571Y137084619D01*
X-19564190Y137060809D01*
X-19611809Y137060809D01*
X-19659428Y137084619D01*
X-19683238Y137108428D01*
X-19707047Y137156047D01*
X-19730857Y137251285D01*
X-19730857Y137370333D01*
X-19707047Y137465571D01*
X-19683238Y137513190D01*
X-19659428Y137537000D01*
X-19611809Y137560809D01*
X-18968952Y137060809D02*
X-19254666Y137060809D01*
X-19111809Y137060809D02*
X-19111809Y137560809D01*
X-19159428Y137489380D01*
X-19207047Y137441761D01*
X-19254666Y137417952D01*
%TO.C,C600*%
X-27483523Y137108428D02*
X-27507333Y137084619D01*
X-27578761Y137060809D01*
X-27626380Y137060809D01*
X-27697809Y137084619D01*
X-27745428Y137132238D01*
X-27769238Y137179857D01*
X-27793047Y137275095D01*
X-27793047Y137346523D01*
X-27769238Y137441761D01*
X-27745428Y137489380D01*
X-27697809Y137537000D01*
X-27626380Y137560809D01*
X-27578761Y137560809D01*
X-27507333Y137537000D01*
X-27483523Y137513190D01*
X-27054952Y137560809D02*
X-27150190Y137560809D01*
X-27197809Y137537000D01*
X-27221619Y137513190D01*
X-27269238Y137441761D01*
X-27293047Y137346523D01*
X-27293047Y137156047D01*
X-27269238Y137108428D01*
X-27245428Y137084619D01*
X-27197809Y137060809D01*
X-27102571Y137060809D01*
X-27054952Y137084619D01*
X-27031142Y137108428D01*
X-27007333Y137156047D01*
X-27007333Y137275095D01*
X-27031142Y137322714D01*
X-27054952Y137346523D01*
X-27102571Y137370333D01*
X-27197809Y137370333D01*
X-27245428Y137346523D01*
X-27269238Y137322714D01*
X-27293047Y137275095D01*
X-26697809Y137560809D02*
X-26650190Y137560809D01*
X-26602571Y137537000D01*
X-26578761Y137513190D01*
X-26554952Y137465571D01*
X-26531142Y137370333D01*
X-26531142Y137251285D01*
X-26554952Y137156047D01*
X-26578761Y137108428D01*
X-26602571Y137084619D01*
X-26650190Y137060809D01*
X-26697809Y137060809D01*
X-26745428Y137084619D01*
X-26769238Y137108428D01*
X-26793047Y137156047D01*
X-26816857Y137251285D01*
X-26816857Y137370333D01*
X-26793047Y137465571D01*
X-26769238Y137513190D01*
X-26745428Y137537000D01*
X-26697809Y137560809D01*
X-26221619Y137560809D02*
X-26174000Y137560809D01*
X-26126380Y137537000D01*
X-26102571Y137513190D01*
X-26078761Y137465571D01*
X-26054952Y137370333D01*
X-26054952Y137251285D01*
X-26078761Y137156047D01*
X-26102571Y137108428D01*
X-26126380Y137084619D01*
X-26174000Y137060809D01*
X-26221619Y137060809D01*
X-26269238Y137084619D01*
X-26293047Y137108428D01*
X-26316857Y137156047D01*
X-26340666Y137251285D01*
X-26340666Y137370333D01*
X-26316857Y137465571D01*
X-26293047Y137513190D01*
X-26269238Y137537000D01*
X-26221619Y137560809D01*
%TO.C,C105*%
X30440476Y71251428D02*
X30416666Y71227619D01*
X30345238Y71203809D01*
X30297619Y71203809D01*
X30226190Y71227619D01*
X30178571Y71275238D01*
X30154761Y71322857D01*
X30130952Y71418095D01*
X30130952Y71489523D01*
X30154761Y71584761D01*
X30178571Y71632380D01*
X30226190Y71680000D01*
X30297619Y71703809D01*
X30345238Y71703809D01*
X30416666Y71680000D01*
X30440476Y71656190D01*
X30916666Y71203809D02*
X30630952Y71203809D01*
X30773809Y71203809D02*
X30773809Y71703809D01*
X30726190Y71632380D01*
X30678571Y71584761D01*
X30630952Y71560952D01*
X31226190Y71703809D02*
X31273809Y71703809D01*
X31321428Y71680000D01*
X31345238Y71656190D01*
X31369047Y71608571D01*
X31392857Y71513333D01*
X31392857Y71394285D01*
X31369047Y71299047D01*
X31345238Y71251428D01*
X31321428Y71227619D01*
X31273809Y71203809D01*
X31226190Y71203809D01*
X31178571Y71227619D01*
X31154761Y71251428D01*
X31130952Y71299047D01*
X31107142Y71394285D01*
X31107142Y71513333D01*
X31130952Y71608571D01*
X31154761Y71656190D01*
X31178571Y71680000D01*
X31226190Y71703809D01*
X31845238Y71703809D02*
X31607142Y71703809D01*
X31583333Y71465714D01*
X31607142Y71489523D01*
X31654761Y71513333D01*
X31773809Y71513333D01*
X31821428Y71489523D01*
X31845238Y71465714D01*
X31869047Y71418095D01*
X31869047Y71299047D01*
X31845238Y71251428D01*
X31821428Y71227619D01*
X31773809Y71203809D01*
X31654761Y71203809D01*
X31607142Y71227619D01*
X31583333Y71251428D01*
%TO.C,C104*%
X30440476Y4251428D02*
X30416666Y4227619D01*
X30345238Y4203809D01*
X30297619Y4203809D01*
X30226190Y4227619D01*
X30178571Y4275238D01*
X30154761Y4322857D01*
X30130952Y4418095D01*
X30130952Y4489523D01*
X30154761Y4584761D01*
X30178571Y4632380D01*
X30226190Y4680000D01*
X30297619Y4703809D01*
X30345238Y4703809D01*
X30416666Y4680000D01*
X30440476Y4656190D01*
X30916666Y4203809D02*
X30630952Y4203809D01*
X30773809Y4203809D02*
X30773809Y4703809D01*
X30726190Y4632380D01*
X30678571Y4584761D01*
X30630952Y4560952D01*
X31226190Y4703809D02*
X31273809Y4703809D01*
X31321428Y4680000D01*
X31345238Y4656190D01*
X31369047Y4608571D01*
X31392857Y4513333D01*
X31392857Y4394285D01*
X31369047Y4299047D01*
X31345238Y4251428D01*
X31321428Y4227619D01*
X31273809Y4203809D01*
X31226190Y4203809D01*
X31178571Y4227619D01*
X31154761Y4251428D01*
X31130952Y4299047D01*
X31107142Y4394285D01*
X31107142Y4513333D01*
X31130952Y4608571D01*
X31154761Y4656190D01*
X31178571Y4680000D01*
X31226190Y4703809D01*
X31821428Y4537142D02*
X31821428Y4203809D01*
X31702380Y4727619D02*
X31583333Y4370476D01*
X31892857Y4370476D01*
%TO.C,C103*%
X-31559523Y4071428D02*
X-31583333Y4047619D01*
X-31654761Y4023809D01*
X-31702380Y4023809D01*
X-31773809Y4047619D01*
X-31821428Y4095238D01*
X-31845238Y4142857D01*
X-31869047Y4238095D01*
X-31869047Y4309523D01*
X-31845238Y4404761D01*
X-31821428Y4452380D01*
X-31773809Y4500000D01*
X-31702380Y4523809D01*
X-31654761Y4523809D01*
X-31583333Y4500000D01*
X-31559523Y4476190D01*
X-31083333Y4023809D02*
X-31369047Y4023809D01*
X-31226190Y4023809D02*
X-31226190Y4523809D01*
X-31273809Y4452380D01*
X-31321428Y4404761D01*
X-31369047Y4380952D01*
X-30773809Y4523809D02*
X-30726190Y4523809D01*
X-30678571Y4500000D01*
X-30654761Y4476190D01*
X-30630952Y4428571D01*
X-30607142Y4333333D01*
X-30607142Y4214285D01*
X-30630952Y4119047D01*
X-30654761Y4071428D01*
X-30678571Y4047619D01*
X-30726190Y4023809D01*
X-30773809Y4023809D01*
X-30821428Y4047619D01*
X-30845238Y4071428D01*
X-30869047Y4119047D01*
X-30892857Y4214285D01*
X-30892857Y4333333D01*
X-30869047Y4428571D01*
X-30845238Y4476190D01*
X-30821428Y4500000D01*
X-30773809Y4523809D01*
X-30440476Y4523809D02*
X-30130952Y4523809D01*
X-30297619Y4333333D01*
X-30226190Y4333333D01*
X-30178571Y4309523D01*
X-30154761Y4285714D01*
X-30130952Y4238095D01*
X-30130952Y4119047D01*
X-30154761Y4071428D01*
X-30178571Y4047619D01*
X-30226190Y4023809D01*
X-30369047Y4023809D01*
X-30416666Y4047619D01*
X-30440476Y4071428D01*
%TO.C,C102*%
X-31559523Y71071428D02*
X-31583333Y71047619D01*
X-31654761Y71023809D01*
X-31702380Y71023809D01*
X-31773809Y71047619D01*
X-31821428Y71095238D01*
X-31845238Y71142857D01*
X-31869047Y71238095D01*
X-31869047Y71309523D01*
X-31845238Y71404761D01*
X-31821428Y71452380D01*
X-31773809Y71500000D01*
X-31702380Y71523809D01*
X-31654761Y71523809D01*
X-31583333Y71500000D01*
X-31559523Y71476190D01*
X-31083333Y71023809D02*
X-31369047Y71023809D01*
X-31226190Y71023809D02*
X-31226190Y71523809D01*
X-31273809Y71452380D01*
X-31321428Y71404761D01*
X-31369047Y71380952D01*
X-30773809Y71523809D02*
X-30726190Y71523809D01*
X-30678571Y71500000D01*
X-30654761Y71476190D01*
X-30630952Y71428571D01*
X-30607142Y71333333D01*
X-30607142Y71214285D01*
X-30630952Y71119047D01*
X-30654761Y71071428D01*
X-30678571Y71047619D01*
X-30726190Y71023809D01*
X-30773809Y71023809D01*
X-30821428Y71047619D01*
X-30845238Y71071428D01*
X-30869047Y71119047D01*
X-30892857Y71214285D01*
X-30892857Y71333333D01*
X-30869047Y71428571D01*
X-30845238Y71476190D01*
X-30821428Y71500000D01*
X-30773809Y71523809D01*
X-30416666Y71476190D02*
X-30392857Y71500000D01*
X-30345238Y71523809D01*
X-30226190Y71523809D01*
X-30178571Y71500000D01*
X-30154761Y71476190D01*
X-30130952Y71428571D01*
X-30130952Y71380952D01*
X-30154761Y71309523D01*
X-30440476Y71023809D01*
X-30130952Y71023809D01*
%TO.C,C100*%
X30440476Y136251428D02*
X30416666Y136227619D01*
X30345238Y136203809D01*
X30297619Y136203809D01*
X30226190Y136227619D01*
X30178571Y136275238D01*
X30154761Y136322857D01*
X30130952Y136418095D01*
X30130952Y136489523D01*
X30154761Y136584761D01*
X30178571Y136632380D01*
X30226190Y136680000D01*
X30297619Y136703809D01*
X30345238Y136703809D01*
X30416666Y136680000D01*
X30440476Y136656190D01*
X30916666Y136203809D02*
X30630952Y136203809D01*
X30773809Y136203809D02*
X30773809Y136703809D01*
X30726190Y136632380D01*
X30678571Y136584761D01*
X30630952Y136560952D01*
X31226190Y136703809D02*
X31273809Y136703809D01*
X31321428Y136680000D01*
X31345238Y136656190D01*
X31369047Y136608571D01*
X31392857Y136513333D01*
X31392857Y136394285D01*
X31369047Y136299047D01*
X31345238Y136251428D01*
X31321428Y136227619D01*
X31273809Y136203809D01*
X31226190Y136203809D01*
X31178571Y136227619D01*
X31154761Y136251428D01*
X31130952Y136299047D01*
X31107142Y136394285D01*
X31107142Y136513333D01*
X31130952Y136608571D01*
X31154761Y136656190D01*
X31178571Y136680000D01*
X31226190Y136703809D01*
X31702380Y136703809D02*
X31750000Y136703809D01*
X31797619Y136680000D01*
X31821428Y136656190D01*
X31845238Y136608571D01*
X31869047Y136513333D01*
X31869047Y136394285D01*
X31845238Y136299047D01*
X31821428Y136251428D01*
X31797619Y136227619D01*
X31750000Y136203809D01*
X31702380Y136203809D01*
X31654761Y136227619D01*
X31630952Y136251428D01*
X31607142Y136299047D01*
X31583333Y136394285D01*
X31583333Y136513333D01*
X31607142Y136608571D01*
X31630952Y136656190D01*
X31654761Y136680000D01*
X31702380Y136703809D01*
%TO.C,C101*%
X-38151428Y131313476D02*
X-38127619Y131289666D01*
X-38103809Y131218238D01*
X-38103809Y131170619D01*
X-38127619Y131099190D01*
X-38175238Y131051571D01*
X-38222857Y131027761D01*
X-38318095Y131003952D01*
X-38389523Y131003952D01*
X-38484761Y131027761D01*
X-38532380Y131051571D01*
X-38580000Y131099190D01*
X-38603809Y131170619D01*
X-38603809Y131218238D01*
X-38580000Y131289666D01*
X-38556190Y131313476D01*
X-38103809Y131789666D02*
X-38103809Y131503952D01*
X-38103809Y131646809D02*
X-38603809Y131646809D01*
X-38532380Y131599190D01*
X-38484761Y131551571D01*
X-38460952Y131503952D01*
X-38603809Y132099190D02*
X-38603809Y132146809D01*
X-38580000Y132194428D01*
X-38556190Y132218238D01*
X-38508571Y132242047D01*
X-38413333Y132265857D01*
X-38294285Y132265857D01*
X-38199047Y132242047D01*
X-38151428Y132218238D01*
X-38127619Y132194428D01*
X-38103809Y132146809D01*
X-38103809Y132099190D01*
X-38127619Y132051571D01*
X-38151428Y132027761D01*
X-38199047Y132003952D01*
X-38294285Y131980142D01*
X-38413333Y131980142D01*
X-38508571Y132003952D01*
X-38556190Y132027761D01*
X-38580000Y132051571D01*
X-38603809Y132099190D01*
X-38103809Y132742047D02*
X-38103809Y132456333D01*
X-38103809Y132599190D02*
X-38603809Y132599190D01*
X-38532380Y132551571D01*
X-38484761Y132503952D01*
X-38460952Y132456333D01*
%TO.C,R100*%
X-36523809Y11540476D02*
X-36761904Y11373809D01*
X-36523809Y11254761D02*
X-37023809Y11254761D01*
X-37023809Y11445238D01*
X-37000000Y11492857D01*
X-36976190Y11516666D01*
X-36928571Y11540476D01*
X-36857142Y11540476D01*
X-36809523Y11516666D01*
X-36785714Y11492857D01*
X-36761904Y11445238D01*
X-36761904Y11254761D01*
X-36523809Y12016666D02*
X-36523809Y11730952D01*
X-36523809Y11873809D02*
X-37023809Y11873809D01*
X-36952380Y11826190D01*
X-36904761Y11778571D01*
X-36880952Y11730952D01*
X-37023809Y12326190D02*
X-37023809Y12373809D01*
X-37000000Y12421428D01*
X-36976190Y12445238D01*
X-36928571Y12469047D01*
X-36833333Y12492857D01*
X-36714285Y12492857D01*
X-36619047Y12469047D01*
X-36571428Y12445238D01*
X-36547619Y12421428D01*
X-36523809Y12373809D01*
X-36523809Y12326190D01*
X-36547619Y12278571D01*
X-36571428Y12254761D01*
X-36619047Y12230952D01*
X-36714285Y12207142D01*
X-36833333Y12207142D01*
X-36928571Y12230952D01*
X-36976190Y12254761D01*
X-37000000Y12278571D01*
X-37023809Y12326190D01*
X-37023809Y12802380D02*
X-37023809Y12850000D01*
X-37000000Y12897619D01*
X-36976190Y12921428D01*
X-36928571Y12945238D01*
X-36833333Y12969047D01*
X-36714285Y12969047D01*
X-36619047Y12945238D01*
X-36571428Y12921428D01*
X-36547619Y12897619D01*
X-36523809Y12850000D01*
X-36523809Y12802380D01*
X-36547619Y12754761D01*
X-36571428Y12730952D01*
X-36619047Y12707142D01*
X-36714285Y12683333D01*
X-36833333Y12683333D01*
X-36928571Y12707142D01*
X-36976190Y12730952D01*
X-37000000Y12754761D01*
X-37023809Y12802380D01*
%TD*%
M02*
