G04*
G04 #@! TF.GenerationSoftware,Altium Limited,Altium Designer,20.1.14 (287)*
G04*
G04 Layer_Color=16711935*
%FSLAX25Y25*%
%MOIN*%
G70*
G04*
G04 #@! TF.SameCoordinates,0DD39981-5369-47EA-9149-94963EAFD3A8*
G04*
G04*
G04 #@! TF.FilePolarity,Positive*
G04*
G01*
G75*
%ADD18C,0.00394*%
G36*
X-117637Y66772D02*
Y61654D01*
X-118818D01*
Y63622D01*
X-119999D01*
Y64803D01*
X-118818D01*
Y66772D01*
X-117637D01*
D02*
G37*
G36*
X-117637Y125827D02*
Y120709D01*
X-118818D01*
Y122677D01*
X-119999D01*
Y123858D01*
X-118818D01*
Y125827D01*
X-117637D01*
D02*
G37*
G36*
Y184882D02*
Y179764D01*
X-118818D01*
Y181732D01*
X-119999D01*
Y182913D01*
X-118818D01*
Y184882D01*
X-117637D01*
D02*
G37*
G36*
Y243937D02*
Y238819D01*
X-118818D01*
Y240787D01*
X-119999D01*
Y241968D01*
X-118818D01*
Y243937D01*
X-117637D01*
D02*
G37*
G36*
X-117637Y302992D02*
Y297874D01*
X-118818D01*
Y299843D01*
X-119999D01*
Y301024D01*
X-118818D01*
Y302992D01*
X-117637D01*
D02*
G37*
G36*
X-117638Y362045D02*
Y356927D01*
X-118819D01*
Y358895D01*
X-120000D01*
Y360076D01*
X-118819D01*
Y362045D01*
X-117638D01*
D02*
G37*
G36*
Y421100D02*
Y415982D01*
X-118819D01*
Y417950D01*
X-120000D01*
Y419131D01*
X-118819D01*
Y421100D01*
X-117638D01*
D02*
G37*
G36*
Y480155D02*
Y475037D01*
X-118819D01*
Y477005D01*
X-120000D01*
Y478187D01*
X-118819D01*
Y480155D01*
X-117638D01*
D02*
G37*
D18*
X-125314Y61850D02*
Y66575D01*
Y61850D02*
X-112716D01*
Y66575D01*
X-125314D02*
X-112716D01*
X-125314Y125630D02*
X-112715D01*
Y120905D02*
Y125630D01*
X-125314Y120905D02*
X-112715D01*
X-125314D02*
Y125630D01*
Y179961D02*
Y184685D01*
Y179961D02*
X-112715D01*
Y184685D01*
X-125314D02*
X-112715D01*
X-125314Y243740D02*
X-112715D01*
Y239016D02*
Y243740D01*
X-125314Y239016D02*
X-112715D01*
X-125314D02*
Y243740D01*
X-125314Y298071D02*
Y302795D01*
Y298071D02*
X-112716D01*
Y302795D01*
X-125314D02*
X-112716D01*
X-125315Y361848D02*
X-112717D01*
Y357124D02*
Y361848D01*
X-125315Y357124D02*
X-112717D01*
X-125315D02*
Y361848D01*
Y416179D02*
Y420903D01*
Y416179D02*
X-112717D01*
Y420903D01*
X-125315D02*
X-112717D01*
X-125315Y479958D02*
X-112717D01*
Y475234D02*
Y479958D01*
X-125315Y475234D02*
X-112717D01*
X-125315D02*
Y479958D01*
M02*
