G04*
G04 #@! TF.GenerationSoftware,Altium Limited,Altium Designer,20.1.14 (287)*
G04*
G04 Layer_Color=8388736*
%FSLAX25Y25*%
%MOIN*%
G70*
G04*
G04 #@! TF.SameCoordinates,0DD39981-5369-47EA-9149-94963EAFD3A8*
G04*
G04*
G04 #@! TF.FilePolarity,Positive*
G04*
G01*
G75*
%ADD10C,0.01000*%
%ADD50C,0.00799*%
D10*
X-169279Y-40458D02*
G03*
X-170361Y-39375I-1083J0D01*
G01*
X-183108D02*
G03*
X-184239Y-40507I0J-1131D01*
G01*
X-169279Y-73923D02*
G03*
X-166843Y-76358I2436J0D01*
G01*
X-173938Y-83141D02*
G03*
X-174355Y-82133I-1425J0D01*
G01*
X-184239Y-71842D02*
G03*
X-183951Y-72537I984J0D01*
G01*
X183951D02*
G03*
X184239Y-71842I-696J696D01*
G01*
X174355Y-82133D02*
G03*
X173938Y-83141I1008J-1008D01*
G01*
X166843Y-76358D02*
G03*
X169279Y-73923I0J2436D01*
G01*
X184239Y-40507D02*
G03*
X183108Y-39375I-1131J0D01*
G01*
X170361D02*
G03*
X169279Y-40458I0J-1083D01*
G01*
X-87802Y2033D02*
G03*
X-85953Y0I1941J-92D01*
G01*
X-124874D02*
G03*
X-122835Y2039I0J2039D01*
G01*
X-87789Y21352D02*
G03*
X-89278Y22841I-1489J0D01*
G01*
X-121358Y22848D02*
G03*
X-122848Y21358I0J-1489D01*
G01*
X161861Y-102977D02*
G03*
X173938Y-90900I0J12077D01*
G01*
X-173913D02*
G03*
X-161836Y-102977I12077J0D01*
G01*
X176763Y-337706D02*
G03*
X152664Y-327631I-14349J-463D01*
G01*
X-152540D02*
G03*
X-176640Y-337706I-9750J-10538D01*
G01*
X153150Y0D02*
G03*
X155512Y2362I0J2362D01*
G01*
X-155511D02*
G03*
X-153149Y0I2362J0D01*
G01*
X-153149Y543307D02*
G03*
X-155511Y540945I-0J-2362D01*
G01*
X155512Y540551D02*
G03*
X152756Y543307I-2756J-0D01*
G01*
X-183108Y-39375D02*
X-170361D01*
X-169279Y-73923D02*
Y-40458D01*
X-173938Y-90900D02*
Y-83141D01*
X-184239Y-71842D02*
Y-40507D01*
X-183951Y-72537D02*
X-174355Y-82133D01*
X-166843Y-76358D02*
X-120079D01*
X174355Y-82133D02*
X183951Y-72537D01*
X184239Y-71842D02*
Y-40507D01*
X173938Y-90900D02*
Y-83141D01*
X-87802Y2033D02*
X-87789Y21352D01*
X-90545Y22841D02*
X-89278D01*
X-121358Y22848D02*
X-120092D01*
X-122848Y21358D02*
X-122835Y2039D01*
X-85953Y0D02*
X153150D01*
X-153149D02*
X-124874D01*
X-90551Y-76358D02*
Y22835D01*
X-120079Y-76358D02*
Y22835D01*
X-120092Y22848D02*
X-120079Y22835D01*
X19685Y-119120D02*
X35828Y-102977D01*
X161861D01*
X-161836D02*
X-35803D01*
X-120079Y-76358D02*
X-120079D01*
X-90551Y-76358D02*
X166843Y-76358D01*
X-35803Y-102977D02*
X-20472Y-118307D01*
Y-208162D02*
Y-118307D01*
X19685Y-207251D02*
Y-119120D01*
Y-207251D02*
X140065Y-327631D01*
X-139941D02*
X-20472Y-208162D01*
X169279Y-73923D02*
Y-40458D01*
X184239Y-406698D02*
Y-371836D01*
X176763Y-364360D02*
X184239Y-371836D01*
X176763Y-364360D02*
Y-337706D01*
X140065Y-327631D02*
X152664D01*
X-152540D02*
X-139941D01*
X-176640Y-364360D02*
Y-337706D01*
X-184209Y-371929D02*
X-176640Y-364360D01*
X-184239Y-371929D02*
X-184209D01*
X-183058Y-407854D02*
X-170558D01*
X-184239Y-406673D02*
X-183058Y-407854D01*
X-184239Y-406673D02*
Y-371929D01*
X-170558Y-407854D02*
X-169304Y-406600D01*
Y-398209D01*
X170387Y-407854D02*
X183083D01*
X184239Y-406698D01*
X169304Y-406772D02*
Y-398209D01*
Y-406772D02*
X170387Y-407854D01*
X170361Y-39375D02*
X183108D01*
X-169304Y-398209D02*
Y-397421D01*
X-169894Y-396831D02*
X-169304Y-397421D01*
X-169894Y-396831D02*
Y-388858D01*
X-169279Y-388243D01*
Y-382436D02*
X-89579Y-302736D01*
X-169279Y-388243D02*
Y-382436D01*
X169279Y-388243D02*
Y-382436D01*
X89579Y-302736D02*
X169279Y-382436D01*
X-89579Y-302736D02*
X89579D01*
X169279Y-388243D02*
X169894Y-388858D01*
Y-396831D02*
Y-388858D01*
X169304Y-397421D02*
X169894Y-396831D01*
X169304Y-398209D02*
Y-397421D01*
X-155511Y2362D02*
Y540945D01*
X-153149Y543307D02*
X152756D01*
X155512Y2362D02*
Y540551D01*
D50*
X114713Y65407D02*
G03*
X115879Y64241I1166J0D01*
G01*
X115887Y76517D02*
G03*
X114722Y75351I0J-1166D01*
G01*
X144949Y64241D02*
G03*
X146288Y65579I0J1338D01*
G01*
X146288Y75170D02*
G03*
X144940Y76517I-1347J-0D01*
G01*
X146289Y252335D02*
G03*
X144941Y253682I-1347J-0D01*
G01*
X144950Y241407D02*
G03*
X146288Y242744I0J1338D01*
G01*
X115888Y253682D02*
G03*
X114722Y252516I0J-1166D01*
G01*
X114714Y242573D02*
G03*
X115880Y241407I1166J0D01*
G01*
X114713Y301628D02*
G03*
X115879Y300462I1166J0D01*
G01*
X115887Y312737D02*
G03*
X114722Y311571I0J-1166D01*
G01*
X144949Y300462D02*
G03*
X146288Y301799I0J1338D01*
G01*
X146288Y311390D02*
G03*
X144940Y312737I-1347J-0D01*
G01*
X146288Y370443D02*
G03*
X144940Y371790I-1347J-0D01*
G01*
X144948Y359515D02*
G03*
X146287Y360852I0J1338D01*
G01*
X115887Y371790D02*
G03*
X114721Y370624I0J-1166D01*
G01*
X114712Y360681D02*
G03*
X115878Y359515I1166J0D01*
G01*
X114712Y419736D02*
G03*
X115878Y418570I1166J0D01*
G01*
X115887Y430845D02*
G03*
X114721Y429679I0J-1166D01*
G01*
X144948Y418570D02*
G03*
X146287Y419907I0J1338D01*
G01*
X146288Y429498D02*
G03*
X144940Y430845I-1347J-0D01*
G01*
X146288Y488553D02*
G03*
X144940Y489900I-1347J-0D01*
G01*
X144948Y477625D02*
G03*
X146287Y478962I0J1338D01*
G01*
X115887Y489900D02*
G03*
X114721Y488734I0J-1166D01*
G01*
X114712Y478791D02*
G03*
X115878Y477625I1166J0D01*
G01*
X114712Y183516D02*
G03*
X115878Y182350I1166J0D01*
G01*
X115886Y194626D02*
G03*
X114720Y193460I0J-1166D01*
G01*
X144948Y182350D02*
G03*
X146286Y183688I0J1338D01*
G01*
X146287Y193279D02*
G03*
X144939Y194626I-1347J-0D01*
G01*
X146289Y134225D02*
G03*
X144941Y135572I-1347J-0D01*
G01*
X144950Y123296D02*
G03*
X146288Y124634I0J1338D01*
G01*
X115888Y135572D02*
G03*
X114722Y134406I0J-1166D01*
G01*
X114714Y124462D02*
G03*
X115880Y123296I1166J0D01*
G01*
X115887Y76517D02*
X144940D01*
X146288Y65579D02*
Y75170D01*
X115879Y64241D02*
X144949D01*
X114713Y65407D02*
Y75459D01*
X114714Y242573D02*
Y252625D01*
X115880Y241407D02*
X144950D01*
X146288Y242744D02*
Y252335D01*
X115888Y253682D02*
X144941D01*
X115887Y312737D02*
X144940D01*
X146288Y301799D02*
Y311390D01*
X115879Y300462D02*
X144949D01*
X114713Y301628D02*
Y311680D01*
X114712Y360681D02*
Y370732D01*
X115878Y359515D02*
X144948D01*
X146287Y360852D02*
Y370443D01*
X115887Y371790D02*
X144940D01*
X115887Y430845D02*
X144940D01*
X146287Y419907D02*
Y429498D01*
X115878Y418570D02*
X144948D01*
X114712Y419736D02*
Y429787D01*
Y478791D02*
Y488843D01*
X115878Y477625D02*
X144948D01*
X146287Y478962D02*
Y488553D01*
X115887Y489900D02*
X144940D01*
X115886Y194626D02*
X144939D01*
X146286Y183688D02*
Y193279D01*
X115878Y182350D02*
X144948D01*
X114712Y183516D02*
Y193568D01*
X114714Y124462D02*
Y134514D01*
X115880Y123296D02*
X144950D01*
X146288Y124634D02*
Y134225D01*
X115888Y135572D02*
X144941D01*
M02*
