G04*
G04 #@! TF.GenerationSoftware,Altium Limited,Altium Designer,20.1.14 (287)*
G04*
G04 Layer_Color=128*
%FSLAX25Y25*%
%MOIN*%
G70*
G04*
G04 #@! TF.SameCoordinates,0DD39981-5369-47EA-9149-94963EAFD3A8*
G04*
G04*
G04 #@! TF.FilePolarity,Positive*
G04*
G01*
G75*
%ADD47R,0.01181X0.02756*%
%ADD48R,0.02559X0.02756*%
D47*
X-38385Y32677D02*
D03*
X-40354D02*
D03*
X-34448D02*
D03*
X-32480D02*
D03*
X-42322D02*
D03*
X-44291D02*
D03*
X-48228D02*
D03*
X-46259D02*
D03*
X-50196D02*
D03*
X-52165D02*
D03*
X-56102D02*
D03*
X-54133D02*
D03*
X-24606D02*
D03*
X-26574D02*
D03*
X-30511D02*
D03*
X-28543D02*
D03*
X-16732D02*
D03*
X-18700D02*
D03*
X-22637D02*
D03*
X-20669D02*
D03*
X-14763D02*
D03*
X-12795D02*
D03*
X-60039D02*
D03*
X-58070D02*
D03*
X-36417D02*
D03*
X-69881D02*
D03*
X-65944D02*
D03*
X-67913D02*
D03*
X-63976D02*
D03*
X-62007D02*
D03*
X-20669Y14567D02*
D03*
X-18700D02*
D03*
X-14763D02*
D03*
X-16732D02*
D03*
X-12795D02*
D03*
X-46259D02*
D03*
X-24606D02*
D03*
X-22637D02*
D03*
X-69881D02*
D03*
X-67913D02*
D03*
X-62007D02*
D03*
X-60039D02*
D03*
X-63976D02*
D03*
X-65944D02*
D03*
X-54133D02*
D03*
X-52165D02*
D03*
X-56102D02*
D03*
X-58070D02*
D03*
X-28543D02*
D03*
X-26574D02*
D03*
X-30511D02*
D03*
X-32480D02*
D03*
X-36417D02*
D03*
X-34448D02*
D03*
X-38385D02*
D03*
X-40354D02*
D03*
X-50196D02*
D03*
X-48228D02*
D03*
X-42322D02*
D03*
X-44291D02*
D03*
X38386D02*
D03*
X40355D02*
D03*
X34449D02*
D03*
X32481D02*
D03*
X42323D02*
D03*
X44292D02*
D03*
X48229D02*
D03*
X46260D02*
D03*
X50197D02*
D03*
X52166D02*
D03*
X56103D02*
D03*
X54134D02*
D03*
X24607D02*
D03*
X26575D02*
D03*
X30512D02*
D03*
X28544D02*
D03*
X16733D02*
D03*
X18701D02*
D03*
X22638D02*
D03*
X20670D02*
D03*
X14764D02*
D03*
X12796D02*
D03*
X60040D02*
D03*
X58071D02*
D03*
X36418D02*
D03*
X69882D02*
D03*
X65945D02*
D03*
X67914D02*
D03*
X63977D02*
D03*
X62008D02*
D03*
X20670Y32677D02*
D03*
X18701D02*
D03*
X14764D02*
D03*
X16733D02*
D03*
X12796D02*
D03*
X46260D02*
D03*
X24607D02*
D03*
X22638D02*
D03*
X69882D02*
D03*
X67914D02*
D03*
X62008D02*
D03*
X60040D02*
D03*
X63977D02*
D03*
X65945D02*
D03*
X54134D02*
D03*
X52166D02*
D03*
X56103D02*
D03*
X58071D02*
D03*
X28544D02*
D03*
X26575D02*
D03*
X30512D02*
D03*
X32481D02*
D03*
X36418D02*
D03*
X34449D02*
D03*
X38386D02*
D03*
X40355D02*
D03*
X50197D02*
D03*
X48229D02*
D03*
X42323D02*
D03*
X44292D02*
D03*
D48*
X-136319Y37205D02*
D03*
X-124704Y29724D02*
D03*
X-136319D02*
D03*
X-124704Y37205D02*
D03*
X136319D02*
D03*
X124705Y29724D02*
D03*
X136319D02*
D03*
X124705Y37205D02*
D03*
M02*
