G04*
G04 #@! TF.GenerationSoftware,Altium Limited,Altium Designer,20.1.14 (287)*
G04*
G04 Layer_Color=8421504*
%FSLAX25Y25*%
%MOIN*%
G70*
G04*
G04 #@! TF.SameCoordinates,0DD39981-5369-47EA-9149-94963EAFD3A8*
G04*
G04*
G04 #@! TF.FilePolarity,Positive*
G04*
G01*
G75*
G04:AMPARAMS|DCode=21|XSize=29.78mil|YSize=32mil|CornerRadius=0mil|HoleSize=0mil|Usage=FLASHONLY|Rotation=135.000|XOffset=0mil|YOffset=0mil|HoleType=Round|Shape=Rectangle|*
%AMROTATEDRECTD21*
4,1,4,0.02184,0.00079,-0.00079,-0.02184,-0.02184,-0.00079,0.00079,0.02184,0.02184,0.00079,0.0*
%
%ADD21ROTATEDRECTD21*%

G04:AMPARAMS|DCode=22|XSize=29.78mil|YSize=32mil|CornerRadius=0mil|HoleSize=0mil|Usage=FLASHONLY|Rotation=45.000|XOffset=0mil|YOffset=0mil|HoleType=Round|Shape=Rectangle|*
%AMROTATEDRECTD22*
4,1,4,0.00079,-0.02184,-0.02184,0.00079,-0.00079,0.02184,0.02184,-0.00079,0.00079,-0.02184,0.0*
%
%ADD22ROTATEDRECTD22*%

%ADD23R,0.02978X0.03200*%
%ADD24R,0.03150X0.07087*%
G04:AMPARAMS|DCode=25|XSize=31.5mil|YSize=70.87mil|CornerRadius=7.87mil|HoleSize=0mil|Usage=FLASHONLY|Rotation=180.000|XOffset=0mil|YOffset=0mil|HoleType=Round|Shape=RoundedRectangle|*
%AMROUNDEDRECTD25*
21,1,0.03150,0.05512,0,0,180.0*
21,1,0.01575,0.07087,0,0,180.0*
1,1,0.01575,-0.00787,0.02756*
1,1,0.01575,0.00787,0.02756*
1,1,0.01575,0.00787,-0.02756*
1,1,0.01575,-0.00787,-0.02756*
%
%ADD25ROUNDEDRECTD25*%
%ADD26R,0.07087X0.10236*%
%ADD27R,0.01968X0.04724*%
%ADD28R,0.03200X0.02978*%
%ADD29R,0.06500X0.01700*%
%ADD30R,0.06299X0.07874*%
%ADD31R,0.03937X0.04724*%
%ADD32R,0.03150X0.03543*%
D21*
X88402Y-289190D02*
D03*
X92700Y-293488D02*
D03*
X92339Y-285253D02*
D03*
X96637Y-289550D02*
D03*
X88763Y-297425D02*
D03*
X84465Y-293127D02*
D03*
D22*
X-88402Y-289190D02*
D03*
X-92700Y-293488D02*
D03*
X-92339Y-285253D02*
D03*
X-96637Y-289550D02*
D03*
X-88763Y-297425D02*
D03*
X-84465Y-293127D02*
D03*
D23*
X-136725Y-80709D02*
D03*
X-142803D02*
D03*
X136725D02*
D03*
X142803D02*
D03*
Y-88583D02*
D03*
X136725D02*
D03*
X142803Y-95866D02*
D03*
X136725D02*
D03*
X-142803Y-88583D02*
D03*
X-136725D02*
D03*
X-142803Y-95866D02*
D03*
X-136725D02*
D03*
X-117999Y56693D02*
D03*
X-111921D02*
D03*
X-113299Y155413D02*
D03*
X-119377D02*
D03*
X-117999Y174803D02*
D03*
X-111921D02*
D03*
Y233858D02*
D03*
X-117999D02*
D03*
X-117999Y292913D02*
D03*
X-111921D02*
D03*
X-111922Y351966D02*
D03*
X-118000D02*
D03*
Y411021D02*
D03*
X-111922D02*
D03*
Y470076D02*
D03*
X-118000D02*
D03*
X-104539Y524311D02*
D03*
X-110617D02*
D03*
X-110617Y528839D02*
D03*
X-104539D02*
D03*
D24*
X-12303Y-276358D02*
D03*
X2461D02*
D03*
X-2461D02*
D03*
X7382D02*
D03*
X-7382D02*
D03*
X-140255Y99803D02*
D03*
X-130413D02*
D03*
X-125492D02*
D03*
X-135334D02*
D03*
X-120571D02*
D03*
X135729Y458661D02*
D03*
X120965D02*
D03*
X130807D02*
D03*
X125886D02*
D03*
X116044D02*
D03*
X115650Y104331D02*
D03*
X125493D02*
D03*
X130414D02*
D03*
X120571D02*
D03*
X135335D02*
D03*
D25*
X12303Y-276358D02*
D03*
X-115649Y99803D02*
D03*
X140650Y458661D02*
D03*
X140256Y104331D02*
D03*
D26*
X21555Y-289350D02*
D03*
X-21555D02*
D03*
D27*
X99213Y85433D02*
D03*
Y72047D02*
D03*
X96064Y85433D02*
D03*
Y72047D02*
D03*
X92914Y85433D02*
D03*
Y72047D02*
D03*
X89765Y85433D02*
D03*
Y72047D02*
D03*
X86615Y85433D02*
D03*
Y72047D02*
D03*
X83465Y85433D02*
D03*
Y72047D02*
D03*
X80316Y85433D02*
D03*
Y72047D02*
D03*
X77166Y85433D02*
D03*
Y72047D02*
D03*
X74016Y85433D02*
D03*
Y72047D02*
D03*
X70867Y85433D02*
D03*
Y72047D02*
D03*
X67717Y85433D02*
D03*
Y72047D02*
D03*
X64568Y85433D02*
D03*
Y72047D02*
D03*
X61418Y85433D02*
D03*
Y72047D02*
D03*
X58268Y85433D02*
D03*
Y72047D02*
D03*
X55119Y85433D02*
D03*
Y72047D02*
D03*
X51969Y85433D02*
D03*
Y72047D02*
D03*
X48820Y85433D02*
D03*
Y72047D02*
D03*
X45670Y85433D02*
D03*
Y72047D02*
D03*
X42520Y85433D02*
D03*
Y72047D02*
D03*
X39371Y85433D02*
D03*
Y72047D02*
D03*
X36221Y85433D02*
D03*
Y72047D02*
D03*
X33072Y85433D02*
D03*
Y72047D02*
D03*
X29922Y85433D02*
D03*
Y72047D02*
D03*
X26772Y85433D02*
D03*
Y72047D02*
D03*
X23623Y85433D02*
D03*
Y72047D02*
D03*
X20473Y85433D02*
D03*
Y72047D02*
D03*
X17324Y85433D02*
D03*
Y72047D02*
D03*
X14174Y85433D02*
D03*
Y72047D02*
D03*
X-1574Y85433D02*
D03*
Y72047D02*
D03*
X-4724Y85433D02*
D03*
Y72047D02*
D03*
X-7873Y85433D02*
D03*
Y72047D02*
D03*
X-11023Y85433D02*
D03*
Y72047D02*
D03*
X-14173Y85433D02*
D03*
Y72047D02*
D03*
X-17322Y85433D02*
D03*
Y72047D02*
D03*
X-20472Y85433D02*
D03*
Y72047D02*
D03*
X-23621Y85433D02*
D03*
Y72047D02*
D03*
X-26771Y85433D02*
D03*
Y72047D02*
D03*
X-29921Y85433D02*
D03*
Y72047D02*
D03*
X-33070Y85433D02*
D03*
Y72047D02*
D03*
X-36220Y85433D02*
D03*
Y72047D02*
D03*
X-39369Y85433D02*
D03*
Y72047D02*
D03*
X-42519Y85433D02*
D03*
Y72047D02*
D03*
X-45669Y85433D02*
D03*
Y72047D02*
D03*
X-48818Y85433D02*
D03*
Y72047D02*
D03*
X-51968Y85433D02*
D03*
Y72047D02*
D03*
X-55117Y85433D02*
D03*
Y72047D02*
D03*
X-58267Y85433D02*
D03*
Y72047D02*
D03*
X-61417Y85433D02*
D03*
Y72047D02*
D03*
X-64566Y85433D02*
D03*
Y72047D02*
D03*
X-67716Y85433D02*
D03*
Y72047D02*
D03*
X-70865Y85433D02*
D03*
Y72047D02*
D03*
X-74015Y85433D02*
D03*
Y72047D02*
D03*
X-77165Y85433D02*
D03*
Y72047D02*
D03*
X-80314Y85433D02*
D03*
Y72047D02*
D03*
X-83464Y85433D02*
D03*
Y72047D02*
D03*
X-86613Y85433D02*
D03*
Y72047D02*
D03*
X-89763Y85433D02*
D03*
Y72047D02*
D03*
X-92913Y85433D02*
D03*
Y72047D02*
D03*
X-96062Y85433D02*
D03*
Y72047D02*
D03*
X-99212Y85433D02*
D03*
Y72047D02*
D03*
X-99211Y249213D02*
D03*
Y262598D02*
D03*
X-96062Y249213D02*
D03*
Y262598D02*
D03*
X-92912Y249213D02*
D03*
Y262598D02*
D03*
X-89763Y249213D02*
D03*
Y262598D02*
D03*
X-86613Y249213D02*
D03*
Y262598D02*
D03*
X-83463Y249213D02*
D03*
Y262598D02*
D03*
X-80314Y249213D02*
D03*
Y262598D02*
D03*
X-77164Y249213D02*
D03*
Y262598D02*
D03*
X-74015Y249213D02*
D03*
Y262598D02*
D03*
X-70865Y249213D02*
D03*
Y262598D02*
D03*
X-67715Y249213D02*
D03*
Y262598D02*
D03*
X-64566Y249213D02*
D03*
Y262598D02*
D03*
X-61416Y249213D02*
D03*
Y262598D02*
D03*
X-58267Y249213D02*
D03*
Y262598D02*
D03*
X-55117Y249213D02*
D03*
Y262598D02*
D03*
X-51967Y249213D02*
D03*
Y262598D02*
D03*
X-48818Y249213D02*
D03*
Y262598D02*
D03*
X-45668Y249213D02*
D03*
Y262598D02*
D03*
X-42518Y249213D02*
D03*
Y262598D02*
D03*
X-39369Y249213D02*
D03*
Y262598D02*
D03*
X-36219Y249213D02*
D03*
Y262598D02*
D03*
X-33070Y249213D02*
D03*
Y262598D02*
D03*
X-29920Y249213D02*
D03*
Y262598D02*
D03*
X-26770Y249213D02*
D03*
Y262598D02*
D03*
X-23621Y249213D02*
D03*
Y262598D02*
D03*
X-20471Y249213D02*
D03*
Y262598D02*
D03*
X-17322Y249213D02*
D03*
Y262598D02*
D03*
X-14172Y249213D02*
D03*
Y262598D02*
D03*
X-11022Y249213D02*
D03*
Y262598D02*
D03*
X-7873Y249213D02*
D03*
Y262598D02*
D03*
X-4723Y249213D02*
D03*
Y262598D02*
D03*
X-1574Y249213D02*
D03*
Y262598D02*
D03*
X14174Y249213D02*
D03*
Y262598D02*
D03*
X17324Y249213D02*
D03*
Y262598D02*
D03*
X20474Y249213D02*
D03*
Y262598D02*
D03*
X23623Y249213D02*
D03*
Y262598D02*
D03*
X26773Y249213D02*
D03*
Y262598D02*
D03*
X29922Y249213D02*
D03*
Y262598D02*
D03*
X33072Y249213D02*
D03*
Y262598D02*
D03*
X36222Y249213D02*
D03*
Y262598D02*
D03*
X39371Y249213D02*
D03*
Y262598D02*
D03*
X42521Y249213D02*
D03*
Y262598D02*
D03*
X45671Y249213D02*
D03*
Y262598D02*
D03*
X48820Y249213D02*
D03*
Y262598D02*
D03*
X51970Y249213D02*
D03*
Y262598D02*
D03*
X55119Y249213D02*
D03*
Y262598D02*
D03*
X58269Y249213D02*
D03*
Y262598D02*
D03*
X61418Y249213D02*
D03*
Y262598D02*
D03*
X64568Y249213D02*
D03*
Y262598D02*
D03*
X67718Y249213D02*
D03*
Y262598D02*
D03*
X70867Y249213D02*
D03*
Y262598D02*
D03*
X74017Y249213D02*
D03*
Y262598D02*
D03*
X77166Y249213D02*
D03*
Y262598D02*
D03*
X80316Y249213D02*
D03*
Y262598D02*
D03*
X83466Y249213D02*
D03*
Y262598D02*
D03*
X86615Y249213D02*
D03*
Y262598D02*
D03*
X89765Y249213D02*
D03*
Y262598D02*
D03*
X92914Y249213D02*
D03*
Y262598D02*
D03*
X96064Y249213D02*
D03*
Y262598D02*
D03*
X99214Y249213D02*
D03*
Y262598D02*
D03*
X99213Y321654D02*
D03*
Y308268D02*
D03*
X96064Y321654D02*
D03*
Y308268D02*
D03*
X92914Y321654D02*
D03*
Y308268D02*
D03*
X89765Y321654D02*
D03*
Y308268D02*
D03*
X86615Y321654D02*
D03*
Y308268D02*
D03*
X83465Y321654D02*
D03*
Y308268D02*
D03*
X80316Y321654D02*
D03*
Y308268D02*
D03*
X77166Y321654D02*
D03*
Y308268D02*
D03*
X74016Y321654D02*
D03*
Y308268D02*
D03*
X70867Y321654D02*
D03*
Y308268D02*
D03*
X67717Y321654D02*
D03*
Y308268D02*
D03*
X64568Y321654D02*
D03*
Y308268D02*
D03*
X61418Y321654D02*
D03*
Y308268D02*
D03*
X58268Y321654D02*
D03*
Y308268D02*
D03*
X55119Y321654D02*
D03*
Y308268D02*
D03*
X51969Y321654D02*
D03*
Y308268D02*
D03*
X48820Y321654D02*
D03*
Y308268D02*
D03*
X45670Y321654D02*
D03*
Y308268D02*
D03*
X42520Y321654D02*
D03*
Y308268D02*
D03*
X39371Y321654D02*
D03*
Y308268D02*
D03*
X36221Y321654D02*
D03*
Y308268D02*
D03*
X33072Y321654D02*
D03*
Y308268D02*
D03*
X29922Y321654D02*
D03*
Y308268D02*
D03*
X26772Y321654D02*
D03*
Y308268D02*
D03*
X23623Y321654D02*
D03*
Y308268D02*
D03*
X20473Y321654D02*
D03*
Y308268D02*
D03*
X17324Y321654D02*
D03*
Y308268D02*
D03*
X14174Y321654D02*
D03*
Y308268D02*
D03*
X-1574Y321654D02*
D03*
Y308268D02*
D03*
X-4724Y321654D02*
D03*
Y308268D02*
D03*
X-7873Y321654D02*
D03*
Y308268D02*
D03*
X-11023Y321654D02*
D03*
Y308268D02*
D03*
X-14173Y321654D02*
D03*
Y308268D02*
D03*
X-17322Y321654D02*
D03*
Y308268D02*
D03*
X-20472Y321654D02*
D03*
Y308268D02*
D03*
X-23621Y321654D02*
D03*
Y308268D02*
D03*
X-26771Y321654D02*
D03*
Y308268D02*
D03*
X-29921Y321654D02*
D03*
Y308268D02*
D03*
X-33070Y321654D02*
D03*
Y308268D02*
D03*
X-36220Y321654D02*
D03*
Y308268D02*
D03*
X-39369Y321654D02*
D03*
Y308268D02*
D03*
X-42519Y321654D02*
D03*
Y308268D02*
D03*
X-45669Y321654D02*
D03*
Y308268D02*
D03*
X-48818Y321654D02*
D03*
Y308268D02*
D03*
X-51968Y321654D02*
D03*
Y308268D02*
D03*
X-55117Y321654D02*
D03*
Y308268D02*
D03*
X-58267Y321654D02*
D03*
Y308268D02*
D03*
X-61417Y321654D02*
D03*
Y308268D02*
D03*
X-64566Y321654D02*
D03*
Y308268D02*
D03*
X-67716Y321654D02*
D03*
Y308268D02*
D03*
X-70865Y321654D02*
D03*
Y308268D02*
D03*
X-74015Y321654D02*
D03*
Y308268D02*
D03*
X-77165Y321654D02*
D03*
Y308268D02*
D03*
X-80314Y321654D02*
D03*
Y308268D02*
D03*
X-83464Y321654D02*
D03*
Y308268D02*
D03*
X-86613Y321654D02*
D03*
Y308268D02*
D03*
X-89763Y321654D02*
D03*
Y308268D02*
D03*
X-92913Y321654D02*
D03*
Y308268D02*
D03*
X-96062Y321654D02*
D03*
Y308268D02*
D03*
X-99212Y321654D02*
D03*
Y308268D02*
D03*
X-99213Y367320D02*
D03*
Y380706D02*
D03*
X-96063Y367320D02*
D03*
Y380706D02*
D03*
X-92913Y367320D02*
D03*
Y380706D02*
D03*
X-89764Y367320D02*
D03*
Y380706D02*
D03*
X-86614Y367320D02*
D03*
Y380706D02*
D03*
X-83465Y367320D02*
D03*
Y380706D02*
D03*
X-80315Y367320D02*
D03*
Y380706D02*
D03*
X-77165Y367320D02*
D03*
Y380706D02*
D03*
X-74016Y367320D02*
D03*
Y380706D02*
D03*
X-70866Y367320D02*
D03*
Y380706D02*
D03*
X-67717Y367320D02*
D03*
Y380706D02*
D03*
X-64567Y367320D02*
D03*
Y380706D02*
D03*
X-61417Y367320D02*
D03*
Y380706D02*
D03*
X-58268Y367320D02*
D03*
Y380706D02*
D03*
X-55118Y367320D02*
D03*
Y380706D02*
D03*
X-51969Y367320D02*
D03*
Y380706D02*
D03*
X-48819Y367320D02*
D03*
Y380706D02*
D03*
X-45669Y367320D02*
D03*
Y380706D02*
D03*
X-42520Y367320D02*
D03*
Y380706D02*
D03*
X-39370Y367320D02*
D03*
Y380706D02*
D03*
X-36220Y367320D02*
D03*
Y380706D02*
D03*
X-33071Y367320D02*
D03*
Y380706D02*
D03*
X-29921Y367320D02*
D03*
Y380706D02*
D03*
X-26772Y367320D02*
D03*
Y380706D02*
D03*
X-23622Y367320D02*
D03*
Y380706D02*
D03*
X-20472Y367320D02*
D03*
Y380706D02*
D03*
X-17323Y367320D02*
D03*
Y380706D02*
D03*
X-14173Y367320D02*
D03*
Y380706D02*
D03*
X-11024Y367320D02*
D03*
Y380706D02*
D03*
X-7874Y367320D02*
D03*
Y380706D02*
D03*
X-4724Y367320D02*
D03*
Y380706D02*
D03*
X-1575Y367320D02*
D03*
Y380706D02*
D03*
X14173Y367320D02*
D03*
Y380706D02*
D03*
X17323Y367320D02*
D03*
Y380706D02*
D03*
X20472Y367320D02*
D03*
Y380706D02*
D03*
X23622Y367320D02*
D03*
Y380706D02*
D03*
X26772Y367320D02*
D03*
Y380706D02*
D03*
X29921Y367320D02*
D03*
Y380706D02*
D03*
X33071Y367320D02*
D03*
Y380706D02*
D03*
X36220Y367320D02*
D03*
Y380706D02*
D03*
X39370Y367320D02*
D03*
Y380706D02*
D03*
X42520Y367320D02*
D03*
Y380706D02*
D03*
X45669Y367320D02*
D03*
Y380706D02*
D03*
X48819Y367320D02*
D03*
Y380706D02*
D03*
X51968Y367320D02*
D03*
Y380706D02*
D03*
X55118Y367320D02*
D03*
Y380706D02*
D03*
X58268Y367320D02*
D03*
Y380706D02*
D03*
X61417Y367320D02*
D03*
Y380706D02*
D03*
X64567Y367320D02*
D03*
Y380706D02*
D03*
X67716Y367320D02*
D03*
Y380706D02*
D03*
X70866Y367320D02*
D03*
Y380706D02*
D03*
X74016Y367320D02*
D03*
Y380706D02*
D03*
X77165Y367320D02*
D03*
Y380706D02*
D03*
X80315Y367320D02*
D03*
Y380706D02*
D03*
X83464Y367320D02*
D03*
Y380706D02*
D03*
X86614Y367320D02*
D03*
Y380706D02*
D03*
X89764Y367320D02*
D03*
Y380706D02*
D03*
X92913Y367320D02*
D03*
Y380706D02*
D03*
X96063Y367320D02*
D03*
Y380706D02*
D03*
X99212Y367320D02*
D03*
Y380706D02*
D03*
Y439761D02*
D03*
Y426375D02*
D03*
X96063Y439761D02*
D03*
Y426375D02*
D03*
X92913Y439761D02*
D03*
Y426375D02*
D03*
X89764Y439761D02*
D03*
Y426375D02*
D03*
X86614Y439761D02*
D03*
Y426375D02*
D03*
X83464Y439761D02*
D03*
Y426375D02*
D03*
X80315Y439761D02*
D03*
Y426375D02*
D03*
X77165Y439761D02*
D03*
Y426375D02*
D03*
X74016Y439761D02*
D03*
Y426375D02*
D03*
X70866Y439761D02*
D03*
Y426375D02*
D03*
X67716Y439761D02*
D03*
Y426375D02*
D03*
X64567Y439761D02*
D03*
Y426375D02*
D03*
X61417Y439761D02*
D03*
Y426375D02*
D03*
X58268Y439761D02*
D03*
Y426375D02*
D03*
X55118Y439761D02*
D03*
Y426375D02*
D03*
X51968Y439761D02*
D03*
Y426375D02*
D03*
X48819Y439761D02*
D03*
Y426375D02*
D03*
X45669Y439761D02*
D03*
Y426375D02*
D03*
X42520Y439761D02*
D03*
Y426375D02*
D03*
X39370Y439761D02*
D03*
Y426375D02*
D03*
X36220Y439761D02*
D03*
Y426375D02*
D03*
X33071Y439761D02*
D03*
Y426375D02*
D03*
X29921Y439761D02*
D03*
Y426375D02*
D03*
X26772Y439761D02*
D03*
Y426375D02*
D03*
X23622Y439761D02*
D03*
Y426375D02*
D03*
X20472Y439761D02*
D03*
Y426375D02*
D03*
X17323Y439761D02*
D03*
Y426375D02*
D03*
X14173Y439761D02*
D03*
Y426375D02*
D03*
X-1575Y439761D02*
D03*
Y426375D02*
D03*
X-4724Y439761D02*
D03*
Y426375D02*
D03*
X-7874Y439761D02*
D03*
Y426375D02*
D03*
X-11024Y439761D02*
D03*
Y426375D02*
D03*
X-14173Y439761D02*
D03*
Y426375D02*
D03*
X-17323Y439761D02*
D03*
Y426375D02*
D03*
X-20472Y439761D02*
D03*
Y426375D02*
D03*
X-23622Y439761D02*
D03*
Y426375D02*
D03*
X-26772Y439761D02*
D03*
Y426375D02*
D03*
X-29921Y439761D02*
D03*
Y426375D02*
D03*
X-33071Y439761D02*
D03*
Y426375D02*
D03*
X-36220Y439761D02*
D03*
Y426375D02*
D03*
X-39370Y439761D02*
D03*
Y426375D02*
D03*
X-42520Y439761D02*
D03*
Y426375D02*
D03*
X-45669Y439761D02*
D03*
Y426375D02*
D03*
X-48819Y439761D02*
D03*
Y426375D02*
D03*
X-51969Y439761D02*
D03*
Y426375D02*
D03*
X-55118Y439761D02*
D03*
Y426375D02*
D03*
X-58268Y439761D02*
D03*
Y426375D02*
D03*
X-61417Y439761D02*
D03*
Y426375D02*
D03*
X-64567Y439761D02*
D03*
Y426375D02*
D03*
X-67717Y439761D02*
D03*
Y426375D02*
D03*
X-70866Y439761D02*
D03*
Y426375D02*
D03*
X-74016Y439761D02*
D03*
Y426375D02*
D03*
X-77165Y439761D02*
D03*
Y426375D02*
D03*
X-80315Y439761D02*
D03*
Y426375D02*
D03*
X-83465Y439761D02*
D03*
Y426375D02*
D03*
X-86614Y439761D02*
D03*
Y426375D02*
D03*
X-89764Y439761D02*
D03*
Y426375D02*
D03*
X-92913Y439761D02*
D03*
Y426375D02*
D03*
X-96063Y439761D02*
D03*
Y426375D02*
D03*
X-99213Y439761D02*
D03*
Y426375D02*
D03*
Y485431D02*
D03*
Y498816D02*
D03*
X-96063Y485431D02*
D03*
Y498816D02*
D03*
X-92913Y485431D02*
D03*
Y498816D02*
D03*
X-89764Y485431D02*
D03*
Y498816D02*
D03*
X-86614Y485431D02*
D03*
Y498816D02*
D03*
X-83465Y485431D02*
D03*
Y498816D02*
D03*
X-80315Y485431D02*
D03*
Y498816D02*
D03*
X-77165Y485431D02*
D03*
Y498816D02*
D03*
X-74016Y485431D02*
D03*
Y498816D02*
D03*
X-70866Y485431D02*
D03*
Y498816D02*
D03*
X-67717Y485431D02*
D03*
Y498816D02*
D03*
X-64567Y485431D02*
D03*
Y498816D02*
D03*
X-61417Y485431D02*
D03*
Y498816D02*
D03*
X-58268Y485431D02*
D03*
Y498816D02*
D03*
X-55118Y485431D02*
D03*
Y498816D02*
D03*
X-51969Y485431D02*
D03*
Y498816D02*
D03*
X-48819Y485431D02*
D03*
Y498816D02*
D03*
X-45669Y485431D02*
D03*
Y498816D02*
D03*
X-42520Y485431D02*
D03*
Y498816D02*
D03*
X-39370Y485431D02*
D03*
Y498816D02*
D03*
X-36220Y485431D02*
D03*
Y498816D02*
D03*
X-33071Y485431D02*
D03*
Y498816D02*
D03*
X-29921Y485431D02*
D03*
Y498816D02*
D03*
X-26772Y485431D02*
D03*
Y498816D02*
D03*
X-23622Y485431D02*
D03*
Y498816D02*
D03*
X-20472Y485431D02*
D03*
Y498816D02*
D03*
X-17323Y485431D02*
D03*
Y498816D02*
D03*
X-14173Y485431D02*
D03*
Y498816D02*
D03*
X-11024Y485431D02*
D03*
Y498816D02*
D03*
X-7874Y485431D02*
D03*
Y498816D02*
D03*
X-4724Y485431D02*
D03*
Y498816D02*
D03*
X-1575Y485431D02*
D03*
Y498816D02*
D03*
X14173Y485431D02*
D03*
Y498816D02*
D03*
X17323Y485431D02*
D03*
Y498816D02*
D03*
X20472Y485431D02*
D03*
Y498816D02*
D03*
X23622Y485431D02*
D03*
Y498816D02*
D03*
X26772Y485431D02*
D03*
Y498816D02*
D03*
X29921Y485431D02*
D03*
Y498816D02*
D03*
X33071Y485431D02*
D03*
Y498816D02*
D03*
X36220Y485431D02*
D03*
Y498816D02*
D03*
X39370Y485431D02*
D03*
Y498816D02*
D03*
X42520Y485431D02*
D03*
Y498816D02*
D03*
X45669Y485431D02*
D03*
Y498816D02*
D03*
X48819Y485431D02*
D03*
Y498816D02*
D03*
X51968Y485431D02*
D03*
Y498816D02*
D03*
X55118Y485431D02*
D03*
Y498816D02*
D03*
X58268Y485431D02*
D03*
Y498816D02*
D03*
X61417Y485431D02*
D03*
Y498816D02*
D03*
X64567Y485431D02*
D03*
Y498816D02*
D03*
X67716Y485431D02*
D03*
Y498816D02*
D03*
X70866Y485431D02*
D03*
Y498816D02*
D03*
X74016Y485431D02*
D03*
Y498816D02*
D03*
X77165Y485431D02*
D03*
Y498816D02*
D03*
X80315Y485431D02*
D03*
Y498816D02*
D03*
X83464Y485431D02*
D03*
Y498816D02*
D03*
X86614Y485431D02*
D03*
Y498816D02*
D03*
X89764Y485431D02*
D03*
Y498816D02*
D03*
X92913Y485431D02*
D03*
Y498816D02*
D03*
X96063Y485431D02*
D03*
Y498816D02*
D03*
X99212Y485431D02*
D03*
Y498816D02*
D03*
X99212Y203542D02*
D03*
Y190156D02*
D03*
X96062Y203542D02*
D03*
Y190156D02*
D03*
X92913Y203542D02*
D03*
Y190156D02*
D03*
X89763Y203542D02*
D03*
Y190156D02*
D03*
X86614Y203542D02*
D03*
Y190156D02*
D03*
X83464Y203542D02*
D03*
Y190156D02*
D03*
X80314Y203542D02*
D03*
Y190156D02*
D03*
X77165Y203542D02*
D03*
Y190156D02*
D03*
X74015Y203542D02*
D03*
Y190156D02*
D03*
X70866Y203542D02*
D03*
Y190156D02*
D03*
X67716Y203542D02*
D03*
Y190156D02*
D03*
X64566Y203542D02*
D03*
Y190156D02*
D03*
X61417Y203542D02*
D03*
Y190156D02*
D03*
X58267Y203542D02*
D03*
Y190156D02*
D03*
X55118Y203542D02*
D03*
Y190156D02*
D03*
X51968Y203542D02*
D03*
Y190156D02*
D03*
X48818Y203542D02*
D03*
Y190156D02*
D03*
X45669Y203542D02*
D03*
Y190156D02*
D03*
X42519Y203542D02*
D03*
Y190156D02*
D03*
X39370Y203542D02*
D03*
Y190156D02*
D03*
X36220Y203542D02*
D03*
Y190156D02*
D03*
X33070Y203542D02*
D03*
Y190156D02*
D03*
X29921Y203542D02*
D03*
Y190156D02*
D03*
X26771Y203542D02*
D03*
Y190156D02*
D03*
X23621Y203542D02*
D03*
Y190156D02*
D03*
X20472Y203542D02*
D03*
Y190156D02*
D03*
X17322Y203542D02*
D03*
Y190156D02*
D03*
X14173Y203542D02*
D03*
Y190156D02*
D03*
X-1575Y203542D02*
D03*
Y190156D02*
D03*
X-4725Y203542D02*
D03*
Y190156D02*
D03*
X-7875Y203542D02*
D03*
Y190156D02*
D03*
X-11024Y203542D02*
D03*
Y190156D02*
D03*
X-14174Y203542D02*
D03*
Y190156D02*
D03*
X-17323Y203542D02*
D03*
Y190156D02*
D03*
X-20473Y203542D02*
D03*
Y190156D02*
D03*
X-23623Y203542D02*
D03*
Y190156D02*
D03*
X-26772Y203542D02*
D03*
Y190156D02*
D03*
X-29922Y203542D02*
D03*
Y190156D02*
D03*
X-33071Y203542D02*
D03*
Y190156D02*
D03*
X-36221Y203542D02*
D03*
Y190156D02*
D03*
X-39371Y203542D02*
D03*
Y190156D02*
D03*
X-42520Y203542D02*
D03*
Y190156D02*
D03*
X-45670Y203542D02*
D03*
Y190156D02*
D03*
X-48819Y203542D02*
D03*
Y190156D02*
D03*
X-51969Y203542D02*
D03*
Y190156D02*
D03*
X-55119Y203542D02*
D03*
Y190156D02*
D03*
X-58268Y203542D02*
D03*
Y190156D02*
D03*
X-61418Y203542D02*
D03*
Y190156D02*
D03*
X-64567Y203542D02*
D03*
Y190156D02*
D03*
X-67717Y203542D02*
D03*
Y190156D02*
D03*
X-70867Y203542D02*
D03*
Y190156D02*
D03*
X-74016Y203542D02*
D03*
Y190156D02*
D03*
X-77166Y203542D02*
D03*
Y190156D02*
D03*
X-80316Y203542D02*
D03*
Y190156D02*
D03*
X-83465Y203542D02*
D03*
Y190156D02*
D03*
X-86615Y203542D02*
D03*
Y190156D02*
D03*
X-89764Y203542D02*
D03*
Y190156D02*
D03*
X-92914Y203542D02*
D03*
Y190156D02*
D03*
X-96064Y203542D02*
D03*
Y190156D02*
D03*
X-99213Y203542D02*
D03*
Y190156D02*
D03*
X-99211Y131102D02*
D03*
Y144488D02*
D03*
X-96062Y131102D02*
D03*
Y144488D02*
D03*
X-92912Y131102D02*
D03*
Y144488D02*
D03*
X-89763Y131102D02*
D03*
Y144488D02*
D03*
X-86613Y131102D02*
D03*
Y144488D02*
D03*
X-83463Y131102D02*
D03*
Y144488D02*
D03*
X-80314Y131102D02*
D03*
Y144488D02*
D03*
X-77164Y131102D02*
D03*
Y144488D02*
D03*
X-74015Y131102D02*
D03*
Y144488D02*
D03*
X-70865Y131102D02*
D03*
Y144488D02*
D03*
X-67715Y131102D02*
D03*
Y144488D02*
D03*
X-64566Y131102D02*
D03*
Y144488D02*
D03*
X-61416Y131102D02*
D03*
Y144488D02*
D03*
X-58267Y131102D02*
D03*
Y144488D02*
D03*
X-55117Y131102D02*
D03*
Y144488D02*
D03*
X-51967Y131102D02*
D03*
Y144488D02*
D03*
X-48818Y131102D02*
D03*
Y144488D02*
D03*
X-45668Y131102D02*
D03*
Y144488D02*
D03*
X-42518Y131102D02*
D03*
Y144488D02*
D03*
X-39369Y131102D02*
D03*
Y144488D02*
D03*
X-36219Y131102D02*
D03*
Y144488D02*
D03*
X-33070Y131102D02*
D03*
Y144488D02*
D03*
X-29920Y131102D02*
D03*
Y144488D02*
D03*
X-26770Y131102D02*
D03*
Y144488D02*
D03*
X-23621Y131102D02*
D03*
Y144488D02*
D03*
X-20471Y131102D02*
D03*
Y144488D02*
D03*
X-17322Y131102D02*
D03*
Y144488D02*
D03*
X-14172Y131102D02*
D03*
Y144488D02*
D03*
X-11022Y131102D02*
D03*
Y144488D02*
D03*
X-7873Y131102D02*
D03*
Y144488D02*
D03*
X-4723Y131102D02*
D03*
Y144488D02*
D03*
X-1574Y131102D02*
D03*
Y144488D02*
D03*
X14174Y131102D02*
D03*
Y144488D02*
D03*
X17324Y131102D02*
D03*
Y144488D02*
D03*
X20474Y131102D02*
D03*
Y144488D02*
D03*
X23623Y131102D02*
D03*
Y144488D02*
D03*
X26773Y131102D02*
D03*
Y144488D02*
D03*
X29922Y131102D02*
D03*
Y144488D02*
D03*
X33072Y131102D02*
D03*
Y144488D02*
D03*
X36222Y131102D02*
D03*
Y144488D02*
D03*
X39371Y131102D02*
D03*
Y144488D02*
D03*
X42521Y131102D02*
D03*
Y144488D02*
D03*
X45671Y131102D02*
D03*
Y144488D02*
D03*
X48820Y131102D02*
D03*
Y144488D02*
D03*
X51970Y131102D02*
D03*
Y144488D02*
D03*
X55119Y131102D02*
D03*
Y144488D02*
D03*
X58269Y131102D02*
D03*
Y144488D02*
D03*
X61418Y131102D02*
D03*
Y144488D02*
D03*
X64568Y131102D02*
D03*
Y144488D02*
D03*
X67718Y131102D02*
D03*
Y144488D02*
D03*
X70867Y131102D02*
D03*
Y144488D02*
D03*
X74017Y131102D02*
D03*
Y144488D02*
D03*
X77166Y131102D02*
D03*
Y144488D02*
D03*
X80316Y131102D02*
D03*
Y144488D02*
D03*
X83466Y131102D02*
D03*
Y144488D02*
D03*
X86615Y131102D02*
D03*
Y144488D02*
D03*
X89765Y131102D02*
D03*
Y144488D02*
D03*
X92914Y131102D02*
D03*
Y144488D02*
D03*
X96064Y131102D02*
D03*
Y144488D02*
D03*
X99214Y131102D02*
D03*
Y144488D02*
D03*
D28*
X-150492Y50677D02*
D03*
Y44599D02*
D03*
X-145275Y56410D02*
D03*
Y62488D02*
D03*
X-145964Y158256D02*
D03*
Y152178D02*
D03*
X-145275Y174520D02*
D03*
Y180598D02*
D03*
Y239653D02*
D03*
Y233575D02*
D03*
X-145275Y292630D02*
D03*
Y298708D02*
D03*
X-145276Y357761D02*
D03*
Y351683D02*
D03*
Y410738D02*
D03*
Y416816D02*
D03*
Y475871D02*
D03*
Y469793D02*
D03*
D29*
X-90373Y533169D02*
D03*
Y530610D02*
D03*
Y528051D02*
D03*
Y525492D02*
D03*
Y522933D02*
D03*
Y520374D02*
D03*
Y517815D02*
D03*
Y515256D02*
D03*
X-62973D02*
D03*
Y517815D02*
D03*
Y520374D02*
D03*
Y522933D02*
D03*
Y525492D02*
D03*
Y528051D02*
D03*
Y530610D02*
D03*
Y533169D02*
D03*
D30*
X-149507Y110039D02*
D03*
X-106397D02*
D03*
X149902Y468898D02*
D03*
X106792D02*
D03*
X106398Y114567D02*
D03*
X149508D02*
D03*
D31*
X-112322Y64213D02*
D03*
X-125708D02*
D03*
X-125707Y123268D02*
D03*
X-112322D02*
D03*
Y182323D02*
D03*
X-125707D02*
D03*
Y241378D02*
D03*
X-112322D02*
D03*
X-112322Y300433D02*
D03*
X-125708D02*
D03*
X-125709Y359486D02*
D03*
X-112323D02*
D03*
Y418541D02*
D03*
X-125709D02*
D03*
Y477596D02*
D03*
X-112323D02*
D03*
D32*
X-135827Y477753D02*
D03*
X-132087Y469486D02*
D03*
X-139567D02*
D03*
X-135827Y418698D02*
D03*
X-132087Y410431D02*
D03*
X-139567D02*
D03*
X-135827Y359643D02*
D03*
X-132087Y351376D02*
D03*
X-139567D02*
D03*
X-135826Y300591D02*
D03*
X-132086Y292323D02*
D03*
X-139567D02*
D03*
X-135826Y241535D02*
D03*
X-132086Y233268D02*
D03*
X-139566D02*
D03*
X-135826Y182480D02*
D03*
X-132086Y174213D02*
D03*
X-139566D02*
D03*
X-136220Y159941D02*
D03*
X-132480Y151673D02*
D03*
X-139960D02*
D03*
X-139567Y56102D02*
D03*
X-132086D02*
D03*
X-135826Y64370D02*
D03*
M02*
