G04*
G04 #@! TF.GenerationSoftware,Altium Limited,Altium Designer,20.1.14 (287)*
G04*
G04 Layer_Color=12632256*
%FSLAX25Y25*%
%MOIN*%
G70*
G04*
G04 #@! TF.SameCoordinates,0DD39981-5369-47EA-9149-94963EAFD3A8*
G04*
G04*
G04 #@! TF.FilePolarity,Positive*
G04*
G01*
G75*
%ADD37C,0.06890*%
%ADD41O,0.09449X0.07874*%
%ADD42R,0.09449X0.07874*%
%ADD43C,0.05906*%
%ADD44C,0.03937*%
D37*
X-119015Y64213D02*
D03*
X-119015Y123268D02*
D03*
Y182323D02*
D03*
Y241378D02*
D03*
X-119015Y300433D02*
D03*
X-119016Y359486D02*
D03*
Y418541D02*
D03*
Y477596D02*
D03*
D41*
X176981Y-390728D02*
D03*
Y-400571D02*
D03*
X-176858Y-390728D02*
D03*
Y-400571D02*
D03*
X176981Y-56476D02*
D03*
Y-46634D02*
D03*
X-176956Y-56476D02*
D03*
Y-46634D02*
D03*
D42*
X176981Y-380886D02*
D03*
X-176858D02*
D03*
X176981Y-66319D02*
D03*
X-176956D02*
D03*
D43*
X-122952Y84606D02*
D03*
X-122952Y261772D02*
D03*
X-122952Y320827D02*
D03*
X-122953Y379879D02*
D03*
Y438935D02*
D03*
Y497990D02*
D03*
X-122953Y202715D02*
D03*
X-122952Y143661D02*
D03*
D44*
X-115472Y74410D02*
D03*
X-130432D02*
D03*
X-145393D02*
D03*
X-139881Y83073D02*
D03*
X-139881Y260238D02*
D03*
X-145393Y251575D02*
D03*
X-130432D02*
D03*
X-115471D02*
D03*
X-115472Y310630D02*
D03*
X-130432D02*
D03*
X-145393D02*
D03*
X-139881Y319293D02*
D03*
X-139882Y378346D02*
D03*
X-145394Y369683D02*
D03*
X-130433D02*
D03*
X-115472D02*
D03*
Y428738D02*
D03*
X-130433D02*
D03*
X-145394D02*
D03*
X-139882Y437401D02*
D03*
Y496456D02*
D03*
X-145394Y487793D02*
D03*
X-130433D02*
D03*
X-115472D02*
D03*
X-115473Y192518D02*
D03*
X-130434D02*
D03*
X-145394D02*
D03*
X-139882Y201181D02*
D03*
X-139881Y142128D02*
D03*
X-145393Y133465D02*
D03*
X-130432D02*
D03*
X-115471D02*
D03*
M02*
