G04 #@! TF.GenerationSoftware,KiCad,Pcbnew,(6.0.5)*
G04 #@! TF.CreationDate,2022-05-19T10:27:32-04:00*
G04 #@! TF.ProjectId,backplane,6261636b-706c-4616-9e65-2e6b69636164,C*
G04 #@! TF.SameCoordinates,Original*
G04 #@! TF.FileFunction,Other,Comment*
%FSLAX46Y46*%
G04 Gerber Fmt 4.6, Leading zero omitted, Abs format (unit mm)*
G04 Created by KiCad (PCBNEW (6.0.5)) date 2022-05-19 10:27:32*
%MOMM*%
%LPD*%
G01*
G04 APERTURE LIST*
%ADD10C,0.100000*%
%ADD11C,0.150000*%
%ADD12C,0.300000*%
%ADD13C,0.400000*%
%ADD14C,0.200000*%
%ADD15C,0.500000*%
G04 APERTURE END LIST*
D10*
D11*
X159400000Y-171900000D02*
X159400000Y-203900000D01*
X267400000Y-203900000D01*
X267400000Y-171900000D01*
X159400000Y-171900000D01*
D10*
D11*
X10000000Y-10000000D02*
X10000000Y-205900000D01*
X269400000Y-205900000D01*
X269400000Y-10000000D01*
X10000000Y-10000000D01*
D10*
D11*
X12000000Y-12000000D02*
X12000000Y-203900000D01*
X267400000Y-203900000D01*
X267400000Y-12000000D01*
X12000000Y-12000000D01*
D10*
D11*
X60000000Y-12000000D02*
X60000000Y-10000000D01*
D10*
D11*
X110000000Y-12000000D02*
X110000000Y-10000000D01*
D10*
D11*
X160000000Y-12000000D02*
X160000000Y-10000000D01*
D10*
D11*
X210000000Y-12000000D02*
X210000000Y-10000000D01*
D10*
D11*
X260000000Y-12000000D02*
X260000000Y-10000000D01*
D10*
D11*
X36065476Y-11588095D02*
X35322619Y-11588095D01*
X35694047Y-11588095D02*
X35694047Y-10288095D01*
X35570238Y-10473809D01*
X35446428Y-10597619D01*
X35322619Y-10659523D01*
D10*
D11*
X85322619Y-10411904D02*
X85384523Y-10350000D01*
X85508333Y-10288095D01*
X85817857Y-10288095D01*
X85941666Y-10350000D01*
X86003571Y-10411904D01*
X86065476Y-10535714D01*
X86065476Y-10659523D01*
X86003571Y-10845238D01*
X85260714Y-11588095D01*
X86065476Y-11588095D01*
D10*
D11*
X135260714Y-10288095D02*
X136065476Y-10288095D01*
X135632142Y-10783333D01*
X135817857Y-10783333D01*
X135941666Y-10845238D01*
X136003571Y-10907142D01*
X136065476Y-11030952D01*
X136065476Y-11340476D01*
X136003571Y-11464285D01*
X135941666Y-11526190D01*
X135817857Y-11588095D01*
X135446428Y-11588095D01*
X135322619Y-11526190D01*
X135260714Y-11464285D01*
D10*
D11*
X185941666Y-10721428D02*
X185941666Y-11588095D01*
X185632142Y-10226190D02*
X185322619Y-11154761D01*
X186127380Y-11154761D01*
D10*
D11*
X236003571Y-10288095D02*
X235384523Y-10288095D01*
X235322619Y-10907142D01*
X235384523Y-10845238D01*
X235508333Y-10783333D01*
X235817857Y-10783333D01*
X235941666Y-10845238D01*
X236003571Y-10907142D01*
X236065476Y-11030952D01*
X236065476Y-11340476D01*
X236003571Y-11464285D01*
X235941666Y-11526190D01*
X235817857Y-11588095D01*
X235508333Y-11588095D01*
X235384523Y-11526190D01*
X235322619Y-11464285D01*
D10*
D11*
X60000000Y-203900000D02*
X60000000Y-205900000D01*
D10*
D11*
X110000000Y-203900000D02*
X110000000Y-205900000D01*
D10*
D11*
X160000000Y-203900000D02*
X160000000Y-205900000D01*
D10*
D11*
X210000000Y-203900000D02*
X210000000Y-205900000D01*
D10*
D11*
X260000000Y-203900000D02*
X260000000Y-205900000D01*
D10*
D11*
X36065476Y-205488095D02*
X35322619Y-205488095D01*
X35694047Y-205488095D02*
X35694047Y-204188095D01*
X35570238Y-204373809D01*
X35446428Y-204497619D01*
X35322619Y-204559523D01*
D10*
D11*
X85322619Y-204311904D02*
X85384523Y-204250000D01*
X85508333Y-204188095D01*
X85817857Y-204188095D01*
X85941666Y-204250000D01*
X86003571Y-204311904D01*
X86065476Y-204435714D01*
X86065476Y-204559523D01*
X86003571Y-204745238D01*
X85260714Y-205488095D01*
X86065476Y-205488095D01*
D10*
D11*
X135260714Y-204188095D02*
X136065476Y-204188095D01*
X135632142Y-204683333D01*
X135817857Y-204683333D01*
X135941666Y-204745238D01*
X136003571Y-204807142D01*
X136065476Y-204930952D01*
X136065476Y-205240476D01*
X136003571Y-205364285D01*
X135941666Y-205426190D01*
X135817857Y-205488095D01*
X135446428Y-205488095D01*
X135322619Y-205426190D01*
X135260714Y-205364285D01*
D10*
D11*
X185941666Y-204621428D02*
X185941666Y-205488095D01*
X185632142Y-204126190D02*
X185322619Y-205054761D01*
X186127380Y-205054761D01*
D10*
D11*
X236003571Y-204188095D02*
X235384523Y-204188095D01*
X235322619Y-204807142D01*
X235384523Y-204745238D01*
X235508333Y-204683333D01*
X235817857Y-204683333D01*
X235941666Y-204745238D01*
X236003571Y-204807142D01*
X236065476Y-204930952D01*
X236065476Y-205240476D01*
X236003571Y-205364285D01*
X235941666Y-205426190D01*
X235817857Y-205488095D01*
X235508333Y-205488095D01*
X235384523Y-205426190D01*
X235322619Y-205364285D01*
D10*
D11*
X10000000Y-60000000D02*
X12000000Y-60000000D01*
D10*
D11*
X10000000Y-110000000D02*
X12000000Y-110000000D01*
D10*
D11*
X10000000Y-160000000D02*
X12000000Y-160000000D01*
D10*
D11*
X10690476Y-35216666D02*
X11309523Y-35216666D01*
X10566666Y-35588095D02*
X11000000Y-34288095D01*
X11433333Y-35588095D01*
D10*
D11*
X11092857Y-84907142D02*
X11278571Y-84969047D01*
X11340476Y-85030952D01*
X11402380Y-85154761D01*
X11402380Y-85340476D01*
X11340476Y-85464285D01*
X11278571Y-85526190D01*
X11154761Y-85588095D01*
X10659523Y-85588095D01*
X10659523Y-84288095D01*
X11092857Y-84288095D01*
X11216666Y-84350000D01*
X11278571Y-84411904D01*
X11340476Y-84535714D01*
X11340476Y-84659523D01*
X11278571Y-84783333D01*
X11216666Y-84845238D01*
X11092857Y-84907142D01*
X10659523Y-84907142D01*
D10*
D11*
X11402380Y-135464285D02*
X11340476Y-135526190D01*
X11154761Y-135588095D01*
X11030952Y-135588095D01*
X10845238Y-135526190D01*
X10721428Y-135402380D01*
X10659523Y-135278571D01*
X10597619Y-135030952D01*
X10597619Y-134845238D01*
X10659523Y-134597619D01*
X10721428Y-134473809D01*
X10845238Y-134350000D01*
X11030952Y-134288095D01*
X11154761Y-134288095D01*
X11340476Y-134350000D01*
X11402380Y-134411904D01*
D10*
D11*
X10659523Y-185588095D02*
X10659523Y-184288095D01*
X10969047Y-184288095D01*
X11154761Y-184350000D01*
X11278571Y-184473809D01*
X11340476Y-184597619D01*
X11402380Y-184845238D01*
X11402380Y-185030952D01*
X11340476Y-185278571D01*
X11278571Y-185402380D01*
X11154761Y-185526190D01*
X10969047Y-185588095D01*
X10659523Y-185588095D01*
D10*
D11*
X269400000Y-60000000D02*
X267400000Y-60000000D01*
D10*
D11*
X269400000Y-110000000D02*
X267400000Y-110000000D01*
D10*
D11*
X269400000Y-160000000D02*
X267400000Y-160000000D01*
D10*
D11*
X268090476Y-35216666D02*
X268709523Y-35216666D01*
X267966666Y-35588095D02*
X268400000Y-34288095D01*
X268833333Y-35588095D01*
D10*
D11*
X268492857Y-84907142D02*
X268678571Y-84969047D01*
X268740476Y-85030952D01*
X268802380Y-85154761D01*
X268802380Y-85340476D01*
X268740476Y-85464285D01*
X268678571Y-85526190D01*
X268554761Y-85588095D01*
X268059523Y-85588095D01*
X268059523Y-84288095D01*
X268492857Y-84288095D01*
X268616666Y-84350000D01*
X268678571Y-84411904D01*
X268740476Y-84535714D01*
X268740476Y-84659523D01*
X268678571Y-84783333D01*
X268616666Y-84845238D01*
X268492857Y-84907142D01*
X268059523Y-84907142D01*
D10*
D11*
X268802380Y-135464285D02*
X268740476Y-135526190D01*
X268554761Y-135588095D01*
X268430952Y-135588095D01*
X268245238Y-135526190D01*
X268121428Y-135402380D01*
X268059523Y-135278571D01*
X267997619Y-135030952D01*
X267997619Y-134845238D01*
X268059523Y-134597619D01*
X268121428Y-134473809D01*
X268245238Y-134350000D01*
X268430952Y-134288095D01*
X268554761Y-134288095D01*
X268740476Y-134350000D01*
X268802380Y-134411904D01*
D10*
D11*
X268059523Y-185588095D02*
X268059523Y-184288095D01*
X268369047Y-184288095D01*
X268554761Y-184350000D01*
X268678571Y-184473809D01*
X268740476Y-184597619D01*
X268802380Y-184845238D01*
X268802380Y-185030952D01*
X268740476Y-185278571D01*
X268678571Y-185402380D01*
X268554761Y-185526190D01*
X268369047Y-185588095D01*
X268059523Y-185588095D01*
D10*
D11*
X182832142Y-199678571D02*
X182832142Y-198178571D01*
X183189285Y-198178571D01*
X183403571Y-198250000D01*
X183546428Y-198392857D01*
X183617857Y-198535714D01*
X183689285Y-198821428D01*
X183689285Y-199035714D01*
X183617857Y-199321428D01*
X183546428Y-199464285D01*
X183403571Y-199607142D01*
X183189285Y-199678571D01*
X182832142Y-199678571D01*
X184975000Y-199678571D02*
X184975000Y-198892857D01*
X184903571Y-198750000D01*
X184760714Y-198678571D01*
X184475000Y-198678571D01*
X184332142Y-198750000D01*
X184975000Y-199607142D02*
X184832142Y-199678571D01*
X184475000Y-199678571D01*
X184332142Y-199607142D01*
X184260714Y-199464285D01*
X184260714Y-199321428D01*
X184332142Y-199178571D01*
X184475000Y-199107142D01*
X184832142Y-199107142D01*
X184975000Y-199035714D01*
X185475000Y-198678571D02*
X186046428Y-198678571D01*
X185689285Y-198178571D02*
X185689285Y-199464285D01*
X185760714Y-199607142D01*
X185903571Y-199678571D01*
X186046428Y-199678571D01*
X187117857Y-199607142D02*
X186975000Y-199678571D01*
X186689285Y-199678571D01*
X186546428Y-199607142D01*
X186475000Y-199464285D01*
X186475000Y-198892857D01*
X186546428Y-198750000D01*
X186689285Y-198678571D01*
X186975000Y-198678571D01*
X187117857Y-198750000D01*
X187189285Y-198892857D01*
X187189285Y-199035714D01*
X186475000Y-199178571D01*
X187832142Y-199535714D02*
X187903571Y-199607142D01*
X187832142Y-199678571D01*
X187760714Y-199607142D01*
X187832142Y-199535714D01*
X187832142Y-199678571D01*
X187832142Y-198750000D02*
X187903571Y-198821428D01*
X187832142Y-198892857D01*
X187760714Y-198821428D01*
X187832142Y-198750000D01*
X187832142Y-198892857D01*
X189617857Y-198321428D02*
X189689285Y-198250000D01*
X189832142Y-198178571D01*
X190189285Y-198178571D01*
X190332142Y-198250000D01*
X190403571Y-198321428D01*
X190475000Y-198464285D01*
X190475000Y-198607142D01*
X190403571Y-198821428D01*
X189546428Y-199678571D01*
X190475000Y-199678571D01*
X191403571Y-198178571D02*
X191546428Y-198178571D01*
X191689285Y-198250000D01*
X191760714Y-198321428D01*
X191832142Y-198464285D01*
X191903571Y-198750000D01*
X191903571Y-199107142D01*
X191832142Y-199392857D01*
X191760714Y-199535714D01*
X191689285Y-199607142D01*
X191546428Y-199678571D01*
X191403571Y-199678571D01*
X191260714Y-199607142D01*
X191189285Y-199535714D01*
X191117857Y-199392857D01*
X191046428Y-199107142D01*
X191046428Y-198750000D01*
X191117857Y-198464285D01*
X191189285Y-198321428D01*
X191260714Y-198250000D01*
X191403571Y-198178571D01*
X192475000Y-198321428D02*
X192546428Y-198250000D01*
X192689285Y-198178571D01*
X193046428Y-198178571D01*
X193189285Y-198250000D01*
X193260714Y-198321428D01*
X193332142Y-198464285D01*
X193332142Y-198607142D01*
X193260714Y-198821428D01*
X192403571Y-199678571D01*
X193332142Y-199678571D01*
X193903571Y-198321428D02*
X193975000Y-198250000D01*
X194117857Y-198178571D01*
X194475000Y-198178571D01*
X194617857Y-198250000D01*
X194689285Y-198321428D01*
X194760714Y-198464285D01*
X194760714Y-198607142D01*
X194689285Y-198821428D01*
X193832142Y-199678571D01*
X194760714Y-199678571D01*
X195403571Y-199107142D02*
X196546428Y-199107142D01*
X197546428Y-198178571D02*
X197689285Y-198178571D01*
X197832142Y-198250000D01*
X197903571Y-198321428D01*
X197975000Y-198464285D01*
X198046428Y-198750000D01*
X198046428Y-199107142D01*
X197975000Y-199392857D01*
X197903571Y-199535714D01*
X197832142Y-199607142D01*
X197689285Y-199678571D01*
X197546428Y-199678571D01*
X197403571Y-199607142D01*
X197332142Y-199535714D01*
X197260714Y-199392857D01*
X197189285Y-199107142D01*
X197189285Y-198750000D01*
X197260714Y-198464285D01*
X197332142Y-198321428D01*
X197403571Y-198250000D01*
X197546428Y-198178571D01*
X199403571Y-198178571D02*
X198689285Y-198178571D01*
X198617857Y-198892857D01*
X198689285Y-198821428D01*
X198832142Y-198750000D01*
X199189285Y-198750000D01*
X199332142Y-198821428D01*
X199403571Y-198892857D01*
X199475000Y-199035714D01*
X199475000Y-199392857D01*
X199403571Y-199535714D01*
X199332142Y-199607142D01*
X199189285Y-199678571D01*
X198832142Y-199678571D01*
X198689285Y-199607142D01*
X198617857Y-199535714D01*
X200117857Y-199107142D02*
X201260714Y-199107142D01*
X202760714Y-199678571D02*
X201903571Y-199678571D01*
X202332142Y-199678571D02*
X202332142Y-198178571D01*
X202189285Y-198392857D01*
X202046428Y-198535714D01*
X201903571Y-198607142D01*
X204189285Y-199678571D02*
X203332142Y-199678571D01*
X203760714Y-199678571D02*
X203760714Y-198178571D01*
X203617857Y-198392857D01*
X203475000Y-198535714D01*
X203332142Y-198607142D01*
D10*
D11*
X159400000Y-200400000D02*
X267400000Y-200400000D01*
D10*
D11*
X160832142Y-202478571D02*
X160832142Y-200978571D01*
X161689285Y-202478571D02*
X161046428Y-201621428D01*
X161689285Y-200978571D02*
X160832142Y-201835714D01*
X162332142Y-202478571D02*
X162332142Y-201478571D01*
X162332142Y-200978571D02*
X162260714Y-201050000D01*
X162332142Y-201121428D01*
X162403571Y-201050000D01*
X162332142Y-200978571D01*
X162332142Y-201121428D01*
X163903571Y-202335714D02*
X163832142Y-202407142D01*
X163617857Y-202478571D01*
X163475000Y-202478571D01*
X163260714Y-202407142D01*
X163117857Y-202264285D01*
X163046428Y-202121428D01*
X162975000Y-201835714D01*
X162975000Y-201621428D01*
X163046428Y-201335714D01*
X163117857Y-201192857D01*
X163260714Y-201050000D01*
X163475000Y-200978571D01*
X163617857Y-200978571D01*
X163832142Y-201050000D01*
X163903571Y-201121428D01*
X165189285Y-202478571D02*
X165189285Y-201692857D01*
X165117857Y-201550000D01*
X164975000Y-201478571D01*
X164689285Y-201478571D01*
X164546428Y-201550000D01*
X165189285Y-202407142D02*
X165046428Y-202478571D01*
X164689285Y-202478571D01*
X164546428Y-202407142D01*
X164475000Y-202264285D01*
X164475000Y-202121428D01*
X164546428Y-201978571D01*
X164689285Y-201907142D01*
X165046428Y-201907142D01*
X165189285Y-201835714D01*
X166546428Y-202478571D02*
X166546428Y-200978571D01*
X166546428Y-202407142D02*
X166403571Y-202478571D01*
X166117857Y-202478571D01*
X165975000Y-202407142D01*
X165903571Y-202335714D01*
X165832142Y-202192857D01*
X165832142Y-201764285D01*
X165903571Y-201621428D01*
X165975000Y-201550000D01*
X166117857Y-201478571D01*
X166403571Y-201478571D01*
X166546428Y-201550000D01*
X168403571Y-201692857D02*
X168903571Y-201692857D01*
X169117857Y-202478571D02*
X168403571Y-202478571D01*
X168403571Y-200978571D01*
X169117857Y-200978571D01*
X169760714Y-202335714D02*
X169832142Y-202407142D01*
X169760714Y-202478571D01*
X169689285Y-202407142D01*
X169760714Y-202335714D01*
X169760714Y-202478571D01*
X170475000Y-202478571D02*
X170475000Y-200978571D01*
X170832142Y-200978571D01*
X171046428Y-201050000D01*
X171189285Y-201192857D01*
X171260714Y-201335714D01*
X171332142Y-201621428D01*
X171332142Y-201835714D01*
X171260714Y-202121428D01*
X171189285Y-202264285D01*
X171046428Y-202407142D01*
X170832142Y-202478571D01*
X170475000Y-202478571D01*
X171975000Y-202335714D02*
X172046428Y-202407142D01*
X171975000Y-202478571D01*
X171903571Y-202407142D01*
X171975000Y-202335714D01*
X171975000Y-202478571D01*
X172617857Y-202050000D02*
X173332142Y-202050000D01*
X172475000Y-202478571D02*
X172975000Y-200978571D01*
X173475000Y-202478571D01*
X173975000Y-202335714D02*
X174046428Y-202407142D01*
X173975000Y-202478571D01*
X173903571Y-202407142D01*
X173975000Y-202335714D01*
X173975000Y-202478571D01*
X176975000Y-202478571D02*
X176975000Y-200978571D01*
X177117857Y-201907142D02*
X177546428Y-202478571D01*
X177546428Y-201478571D02*
X176975000Y-202050000D01*
X178189285Y-202478571D02*
X178189285Y-201478571D01*
X178189285Y-200978571D02*
X178117857Y-201050000D01*
X178189285Y-201121428D01*
X178260714Y-201050000D01*
X178189285Y-200978571D01*
X178189285Y-201121428D01*
X179546428Y-202407142D02*
X179403571Y-202478571D01*
X179117857Y-202478571D01*
X178975000Y-202407142D01*
X178903571Y-202335714D01*
X178832142Y-202192857D01*
X178832142Y-201764285D01*
X178903571Y-201621428D01*
X178975000Y-201550000D01*
X179117857Y-201478571D01*
X179403571Y-201478571D01*
X179546428Y-201550000D01*
X180832142Y-202478571D02*
X180832142Y-201692857D01*
X180760714Y-201550000D01*
X180617857Y-201478571D01*
X180332142Y-201478571D01*
X180189285Y-201550000D01*
X180832142Y-202407142D02*
X180689285Y-202478571D01*
X180332142Y-202478571D01*
X180189285Y-202407142D01*
X180117857Y-202264285D01*
X180117857Y-202121428D01*
X180189285Y-201978571D01*
X180332142Y-201907142D01*
X180689285Y-201907142D01*
X180832142Y-201835714D01*
X182189285Y-202478571D02*
X182189285Y-200978571D01*
X182189285Y-202407142D02*
X182046428Y-202478571D01*
X181760714Y-202478571D01*
X181617857Y-202407142D01*
X181546428Y-202335714D01*
X181475000Y-202192857D01*
X181475000Y-201764285D01*
X181546428Y-201621428D01*
X181617857Y-201550000D01*
X181760714Y-201478571D01*
X182046428Y-201478571D01*
X182189285Y-201550000D01*
X184475000Y-203050000D02*
X184403571Y-202978571D01*
X184260714Y-202764285D01*
X184189285Y-202621428D01*
X184117857Y-202407142D01*
X184046428Y-202050000D01*
X184046428Y-201764285D01*
X184117857Y-201407142D01*
X184189285Y-201192857D01*
X184260714Y-201050000D01*
X184403571Y-200835714D01*
X184475000Y-200764285D01*
X185689285Y-200978571D02*
X185403571Y-200978571D01*
X185260714Y-201050000D01*
X185189285Y-201121428D01*
X185046428Y-201335714D01*
X184975000Y-201621428D01*
X184975000Y-202192857D01*
X185046428Y-202335714D01*
X185117857Y-202407142D01*
X185260714Y-202478571D01*
X185546428Y-202478571D01*
X185689285Y-202407142D01*
X185760714Y-202335714D01*
X185832142Y-202192857D01*
X185832142Y-201835714D01*
X185760714Y-201692857D01*
X185689285Y-201621428D01*
X185546428Y-201550000D01*
X185260714Y-201550000D01*
X185117857Y-201621428D01*
X185046428Y-201692857D01*
X184975000Y-201835714D01*
X186475000Y-202335714D02*
X186546428Y-202407142D01*
X186475000Y-202478571D01*
X186403571Y-202407142D01*
X186475000Y-202335714D01*
X186475000Y-202478571D01*
X187475000Y-200978571D02*
X187617857Y-200978571D01*
X187760714Y-201050000D01*
X187832142Y-201121428D01*
X187903571Y-201264285D01*
X187975000Y-201550000D01*
X187975000Y-201907142D01*
X187903571Y-202192857D01*
X187832142Y-202335714D01*
X187760714Y-202407142D01*
X187617857Y-202478571D01*
X187475000Y-202478571D01*
X187332142Y-202407142D01*
X187260714Y-202335714D01*
X187189285Y-202192857D01*
X187117857Y-201907142D01*
X187117857Y-201550000D01*
X187189285Y-201264285D01*
X187260714Y-201121428D01*
X187332142Y-201050000D01*
X187475000Y-200978571D01*
X188617857Y-202335714D02*
X188689285Y-202407142D01*
X188617857Y-202478571D01*
X188546428Y-202407142D01*
X188617857Y-202335714D01*
X188617857Y-202478571D01*
X190046428Y-200978571D02*
X189332142Y-200978571D01*
X189260714Y-201692857D01*
X189332142Y-201621428D01*
X189475000Y-201550000D01*
X189832142Y-201550000D01*
X189975000Y-201621428D01*
X190046428Y-201692857D01*
X190117857Y-201835714D01*
X190117857Y-202192857D01*
X190046428Y-202335714D01*
X189975000Y-202407142D01*
X189832142Y-202478571D01*
X189475000Y-202478571D01*
X189332142Y-202407142D01*
X189260714Y-202335714D01*
X190617857Y-203050000D02*
X190689285Y-202978571D01*
X190832142Y-202764285D01*
X190903571Y-202621428D01*
X190975000Y-202407142D01*
X191046428Y-202050000D01*
X191046428Y-201764285D01*
X190975000Y-201407142D01*
X190903571Y-201192857D01*
X190832142Y-201050000D01*
X190689285Y-200835714D01*
X190617857Y-200764285D01*
D10*
D11*
X159400000Y-197400000D02*
X267400000Y-197400000D01*
D10*
D12*
X246809285Y-199678571D02*
X246309285Y-198964285D01*
X245952142Y-199678571D02*
X245952142Y-198178571D01*
X246523571Y-198178571D01*
X246666428Y-198250000D01*
X246737857Y-198321428D01*
X246809285Y-198464285D01*
X246809285Y-198678571D01*
X246737857Y-198821428D01*
X246666428Y-198892857D01*
X246523571Y-198964285D01*
X245952142Y-198964285D01*
X248023571Y-199607142D02*
X247880714Y-199678571D01*
X247595000Y-199678571D01*
X247452142Y-199607142D01*
X247380714Y-199464285D01*
X247380714Y-198892857D01*
X247452142Y-198750000D01*
X247595000Y-198678571D01*
X247880714Y-198678571D01*
X248023571Y-198750000D01*
X248095000Y-198892857D01*
X248095000Y-199035714D01*
X247380714Y-199178571D01*
X248595000Y-198678571D02*
X248952142Y-199678571D01*
X249309285Y-198678571D01*
X249880714Y-199535714D02*
X249952142Y-199607142D01*
X249880714Y-199678571D01*
X249809285Y-199607142D01*
X249880714Y-199535714D01*
X249880714Y-199678571D01*
X249880714Y-198750000D02*
X249952142Y-198821428D01*
X249880714Y-198892857D01*
X249809285Y-198821428D01*
X249880714Y-198750000D01*
X249880714Y-198892857D01*
X252595000Y-199535714D02*
X252523571Y-199607142D01*
X252309285Y-199678571D01*
X252166428Y-199678571D01*
X251952142Y-199607142D01*
X251809285Y-199464285D01*
X251737857Y-199321428D01*
X251666428Y-199035714D01*
X251666428Y-198821428D01*
X251737857Y-198535714D01*
X251809285Y-198392857D01*
X251952142Y-198250000D01*
X252166428Y-198178571D01*
X252309285Y-198178571D01*
X252523571Y-198250000D01*
X252595000Y-198321428D01*
D10*
D11*
X160760714Y-199607142D02*
X160975000Y-199678571D01*
X161332142Y-199678571D01*
X161475000Y-199607142D01*
X161546428Y-199535714D01*
X161617857Y-199392857D01*
X161617857Y-199250000D01*
X161546428Y-199107142D01*
X161475000Y-199035714D01*
X161332142Y-198964285D01*
X161046428Y-198892857D01*
X160903571Y-198821428D01*
X160832142Y-198750000D01*
X160760714Y-198607142D01*
X160760714Y-198464285D01*
X160832142Y-198321428D01*
X160903571Y-198250000D01*
X161046428Y-198178571D01*
X161403571Y-198178571D01*
X161617857Y-198250000D01*
X162260714Y-199678571D02*
X162260714Y-198678571D01*
X162260714Y-198178571D02*
X162189285Y-198250000D01*
X162260714Y-198321428D01*
X162332142Y-198250000D01*
X162260714Y-198178571D01*
X162260714Y-198321428D01*
X162832142Y-198678571D02*
X163617857Y-198678571D01*
X162832142Y-199678571D01*
X163617857Y-199678571D01*
X164760714Y-199607142D02*
X164617857Y-199678571D01*
X164332142Y-199678571D01*
X164189285Y-199607142D01*
X164117857Y-199464285D01*
X164117857Y-198892857D01*
X164189285Y-198750000D01*
X164332142Y-198678571D01*
X164617857Y-198678571D01*
X164760714Y-198750000D01*
X164832142Y-198892857D01*
X164832142Y-199035714D01*
X164117857Y-199178571D01*
X165475000Y-199535714D02*
X165546428Y-199607142D01*
X165475000Y-199678571D01*
X165403571Y-199607142D01*
X165475000Y-199535714D01*
X165475000Y-199678571D01*
X165475000Y-198750000D02*
X165546428Y-198821428D01*
X165475000Y-198892857D01*
X165403571Y-198821428D01*
X165475000Y-198750000D01*
X165475000Y-198892857D01*
X167260714Y-199250000D02*
X167975000Y-199250000D01*
X167117857Y-199678571D02*
X167617857Y-198178571D01*
X168117857Y-199678571D01*
D10*
D11*
X245832142Y-202478571D02*
X245832142Y-200978571D01*
X247189285Y-202478571D02*
X247189285Y-200978571D01*
X247189285Y-202407142D02*
X247046428Y-202478571D01*
X246760714Y-202478571D01*
X246617857Y-202407142D01*
X246546428Y-202335714D01*
X246475000Y-202192857D01*
X246475000Y-201764285D01*
X246546428Y-201621428D01*
X246617857Y-201550000D01*
X246760714Y-201478571D01*
X247046428Y-201478571D01*
X247189285Y-201550000D01*
X247903571Y-202335714D02*
X247975000Y-202407142D01*
X247903571Y-202478571D01*
X247832142Y-202407142D01*
X247903571Y-202335714D01*
X247903571Y-202478571D01*
X247903571Y-201550000D02*
X247975000Y-201621428D01*
X247903571Y-201692857D01*
X247832142Y-201621428D01*
X247903571Y-201550000D01*
X247903571Y-201692857D01*
X250546428Y-202478571D02*
X249689285Y-202478571D01*
X250117857Y-202478571D02*
X250117857Y-200978571D01*
X249975000Y-201192857D01*
X249832142Y-201335714D01*
X249689285Y-201407142D01*
X252260714Y-200907142D02*
X250975000Y-202835714D01*
X253546428Y-202478571D02*
X252689285Y-202478571D01*
X253117857Y-202478571D02*
X253117857Y-200978571D01*
X252975000Y-201192857D01*
X252832142Y-201335714D01*
X252689285Y-201407142D01*
D10*
D11*
X159400000Y-193400000D02*
X267400000Y-193400000D01*
D10*
D13*
X161112380Y-194104761D02*
X162255238Y-194104761D01*
X161433809Y-196104761D02*
X161683809Y-194104761D01*
X162671904Y-196104761D02*
X162838571Y-194771428D01*
X162921904Y-194104761D02*
X162814761Y-194200000D01*
X162898095Y-194295238D01*
X163005238Y-194200000D01*
X162921904Y-194104761D01*
X162898095Y-194295238D01*
X163505238Y-194771428D02*
X164267142Y-194771428D01*
X163874285Y-194104761D02*
X163660000Y-195819047D01*
X163731428Y-196009523D01*
X163910000Y-196104761D01*
X164100476Y-196104761D01*
X165052857Y-196104761D02*
X164874285Y-196009523D01*
X164802857Y-195819047D01*
X165017142Y-194104761D01*
X166588571Y-196009523D02*
X166386190Y-196104761D01*
X166005238Y-196104761D01*
X165826666Y-196009523D01*
X165755238Y-195819047D01*
X165850476Y-195057142D01*
X165969523Y-194866666D01*
X166171904Y-194771428D01*
X166552857Y-194771428D01*
X166731428Y-194866666D01*
X166802857Y-195057142D01*
X166779047Y-195247619D01*
X165802857Y-195438095D01*
X167552857Y-195914285D02*
X167636190Y-196009523D01*
X167529047Y-196104761D01*
X167445714Y-196009523D01*
X167552857Y-195914285D01*
X167529047Y-196104761D01*
X167683809Y-194866666D02*
X167767142Y-194961904D01*
X167660000Y-195057142D01*
X167576666Y-194961904D01*
X167683809Y-194866666D01*
X167660000Y-195057142D01*
X170005238Y-196104761D02*
X170255238Y-194104761D01*
X170160000Y-194866666D02*
X170362380Y-194771428D01*
X170743333Y-194771428D01*
X170921904Y-194866666D01*
X171005238Y-194961904D01*
X171076666Y-195152380D01*
X171005238Y-195723809D01*
X170886190Y-195914285D01*
X170779047Y-196009523D01*
X170576666Y-196104761D01*
X170195714Y-196104761D01*
X170017142Y-196009523D01*
X172671904Y-196104761D02*
X172802857Y-195057142D01*
X172731428Y-194866666D01*
X172552857Y-194771428D01*
X172171904Y-194771428D01*
X171969523Y-194866666D01*
X172683809Y-196009523D02*
X172481428Y-196104761D01*
X172005238Y-196104761D01*
X171826666Y-196009523D01*
X171755238Y-195819047D01*
X171779047Y-195628571D01*
X171898095Y-195438095D01*
X172100476Y-195342857D01*
X172576666Y-195342857D01*
X172779047Y-195247619D01*
X174493333Y-196009523D02*
X174290952Y-196104761D01*
X173910000Y-196104761D01*
X173731428Y-196009523D01*
X173648095Y-195914285D01*
X173576666Y-195723809D01*
X173648095Y-195152380D01*
X173767142Y-194961904D01*
X173874285Y-194866666D01*
X174076666Y-194771428D01*
X174457619Y-194771428D01*
X174636190Y-194866666D01*
X175338571Y-196104761D02*
X175588571Y-194104761D01*
X175624285Y-195342857D02*
X176100476Y-196104761D01*
X176267142Y-194771428D02*
X175410000Y-195533333D01*
X177124285Y-194771428D02*
X176874285Y-196771428D01*
X177112380Y-194866666D02*
X177314761Y-194771428D01*
X177695714Y-194771428D01*
X177874285Y-194866666D01*
X177957619Y-194961904D01*
X178029047Y-195152380D01*
X177957619Y-195723809D01*
X177838571Y-195914285D01*
X177731428Y-196009523D01*
X177529047Y-196104761D01*
X177148095Y-196104761D01*
X176969523Y-196009523D01*
X179052857Y-196104761D02*
X178874285Y-196009523D01*
X178802857Y-195819047D01*
X179017142Y-194104761D01*
X180671904Y-196104761D02*
X180802857Y-195057142D01*
X180731428Y-194866666D01*
X180552857Y-194771428D01*
X180171904Y-194771428D01*
X179969523Y-194866666D01*
X180683809Y-196009523D02*
X180481428Y-196104761D01*
X180005238Y-196104761D01*
X179826666Y-196009523D01*
X179755238Y-195819047D01*
X179779047Y-195628571D01*
X179898095Y-195438095D01*
X180100476Y-195342857D01*
X180576666Y-195342857D01*
X180779047Y-195247619D01*
X181790952Y-194771428D02*
X181624285Y-196104761D01*
X181767142Y-194961904D02*
X181874285Y-194866666D01*
X182076666Y-194771428D01*
X182362380Y-194771428D01*
X182540952Y-194866666D01*
X182612380Y-195057142D01*
X182481428Y-196104761D01*
X184207619Y-196009523D02*
X184005238Y-196104761D01*
X183624285Y-196104761D01*
X183445714Y-196009523D01*
X183374285Y-195819047D01*
X183469523Y-195057142D01*
X183588571Y-194866666D01*
X183790952Y-194771428D01*
X184171904Y-194771428D01*
X184350476Y-194866666D01*
X184421904Y-195057142D01*
X184398095Y-195247619D01*
X183421904Y-195438095D01*
D10*
D11*
X161332142Y-191492857D02*
X160832142Y-191492857D01*
X160832142Y-192278571D02*
X160832142Y-190778571D01*
X161546428Y-190778571D01*
X162117857Y-192278571D02*
X162117857Y-191278571D01*
X162117857Y-190778571D02*
X162046428Y-190850000D01*
X162117857Y-190921428D01*
X162189285Y-190850000D01*
X162117857Y-190778571D01*
X162117857Y-190921428D01*
X163046428Y-192278571D02*
X162903571Y-192207142D01*
X162832142Y-192064285D01*
X162832142Y-190778571D01*
X164189285Y-192207142D02*
X164046428Y-192278571D01*
X163760714Y-192278571D01*
X163617857Y-192207142D01*
X163546428Y-192064285D01*
X163546428Y-191492857D01*
X163617857Y-191350000D01*
X163760714Y-191278571D01*
X164046428Y-191278571D01*
X164189285Y-191350000D01*
X164260714Y-191492857D01*
X164260714Y-191635714D01*
X163546428Y-191778571D01*
X164903571Y-192135714D02*
X164975000Y-192207142D01*
X164903571Y-192278571D01*
X164832142Y-192207142D01*
X164903571Y-192135714D01*
X164903571Y-192278571D01*
X164903571Y-191350000D02*
X164975000Y-191421428D01*
X164903571Y-191492857D01*
X164832142Y-191421428D01*
X164903571Y-191350000D01*
X164903571Y-191492857D01*
X166760714Y-192278571D02*
X166760714Y-190778571D01*
X166760714Y-191350000D02*
X166903571Y-191278571D01*
X167189285Y-191278571D01*
X167332142Y-191350000D01*
X167403571Y-191421428D01*
X167475000Y-191564285D01*
X167475000Y-191992857D01*
X167403571Y-192135714D01*
X167332142Y-192207142D01*
X167189285Y-192278571D01*
X166903571Y-192278571D01*
X166760714Y-192207142D01*
X168760714Y-192278571D02*
X168760714Y-191492857D01*
X168689285Y-191350000D01*
X168546428Y-191278571D01*
X168260714Y-191278571D01*
X168117857Y-191350000D01*
X168760714Y-192207142D02*
X168617857Y-192278571D01*
X168260714Y-192278571D01*
X168117857Y-192207142D01*
X168046428Y-192064285D01*
X168046428Y-191921428D01*
X168117857Y-191778571D01*
X168260714Y-191707142D01*
X168617857Y-191707142D01*
X168760714Y-191635714D01*
X170117857Y-192207142D02*
X169975000Y-192278571D01*
X169689285Y-192278571D01*
X169546428Y-192207142D01*
X169475000Y-192135714D01*
X169403571Y-191992857D01*
X169403571Y-191564285D01*
X169475000Y-191421428D01*
X169546428Y-191350000D01*
X169689285Y-191278571D01*
X169975000Y-191278571D01*
X170117857Y-191350000D01*
X170760714Y-192278571D02*
X170760714Y-190778571D01*
X170903571Y-191707142D02*
X171332142Y-192278571D01*
X171332142Y-191278571D02*
X170760714Y-191850000D01*
X171975000Y-191278571D02*
X171975000Y-192778571D01*
X171975000Y-191350000D02*
X172117857Y-191278571D01*
X172403571Y-191278571D01*
X172546428Y-191350000D01*
X172617857Y-191421428D01*
X172689285Y-191564285D01*
X172689285Y-191992857D01*
X172617857Y-192135714D01*
X172546428Y-192207142D01*
X172403571Y-192278571D01*
X172117857Y-192278571D01*
X171975000Y-192207142D01*
X173546428Y-192278571D02*
X173403571Y-192207142D01*
X173332142Y-192064285D01*
X173332142Y-190778571D01*
X174760714Y-192278571D02*
X174760714Y-191492857D01*
X174689285Y-191350000D01*
X174546428Y-191278571D01*
X174260714Y-191278571D01*
X174117857Y-191350000D01*
X174760714Y-192207142D02*
X174617857Y-192278571D01*
X174260714Y-192278571D01*
X174117857Y-192207142D01*
X174046428Y-192064285D01*
X174046428Y-191921428D01*
X174117857Y-191778571D01*
X174260714Y-191707142D01*
X174617857Y-191707142D01*
X174760714Y-191635714D01*
X175475000Y-191278571D02*
X175475000Y-192278571D01*
X175475000Y-191421428D02*
X175546428Y-191350000D01*
X175689285Y-191278571D01*
X175903571Y-191278571D01*
X176046428Y-191350000D01*
X176117857Y-191492857D01*
X176117857Y-192278571D01*
X177403571Y-192207142D02*
X177260714Y-192278571D01*
X176975000Y-192278571D01*
X176832142Y-192207142D01*
X176760714Y-192064285D01*
X176760714Y-191492857D01*
X176832142Y-191350000D01*
X176975000Y-191278571D01*
X177260714Y-191278571D01*
X177403571Y-191350000D01*
X177475000Y-191492857D01*
X177475000Y-191635714D01*
X176760714Y-191778571D01*
X178117857Y-192135714D02*
X178189285Y-192207142D01*
X178117857Y-192278571D01*
X178046428Y-192207142D01*
X178117857Y-192135714D01*
X178117857Y-192278571D01*
X178832142Y-192278571D02*
X178832142Y-190778571D01*
X178975000Y-191707142D02*
X179403571Y-192278571D01*
X179403571Y-191278571D02*
X178832142Y-191850000D01*
X180046428Y-192278571D02*
X180046428Y-191278571D01*
X180046428Y-190778571D02*
X179975000Y-190850000D01*
X180046428Y-190921428D01*
X180117857Y-190850000D01*
X180046428Y-190778571D01*
X180046428Y-190921428D01*
X181403571Y-192207142D02*
X181260714Y-192278571D01*
X180975000Y-192278571D01*
X180832142Y-192207142D01*
X180760714Y-192135714D01*
X180689285Y-191992857D01*
X180689285Y-191564285D01*
X180760714Y-191421428D01*
X180832142Y-191350000D01*
X180975000Y-191278571D01*
X181260714Y-191278571D01*
X181403571Y-191350000D01*
X182689285Y-192278571D02*
X182689285Y-191492857D01*
X182617857Y-191350000D01*
X182475000Y-191278571D01*
X182189285Y-191278571D01*
X182046428Y-191350000D01*
X182689285Y-192207142D02*
X182546428Y-192278571D01*
X182189285Y-192278571D01*
X182046428Y-192207142D01*
X181975000Y-192064285D01*
X181975000Y-191921428D01*
X182046428Y-191778571D01*
X182189285Y-191707142D01*
X182546428Y-191707142D01*
X182689285Y-191635714D01*
X184046428Y-192278571D02*
X184046428Y-190778571D01*
X184046428Y-192207142D02*
X183903571Y-192278571D01*
X183617857Y-192278571D01*
X183475000Y-192207142D01*
X183403571Y-192135714D01*
X183332142Y-191992857D01*
X183332142Y-191564285D01*
X183403571Y-191421428D01*
X183475000Y-191350000D01*
X183617857Y-191278571D01*
X183903571Y-191278571D01*
X184046428Y-191350000D01*
X184403571Y-192421428D02*
X185546428Y-192421428D01*
X185903571Y-191278571D02*
X185903571Y-192778571D01*
X185903571Y-191350000D02*
X186046428Y-191278571D01*
X186332142Y-191278571D01*
X186475000Y-191350000D01*
X186546428Y-191421428D01*
X186617857Y-191564285D01*
X186617857Y-191992857D01*
X186546428Y-192135714D01*
X186475000Y-192207142D01*
X186332142Y-192278571D01*
X186046428Y-192278571D01*
X185903571Y-192207142D01*
X187903571Y-192207142D02*
X187760714Y-192278571D01*
X187475000Y-192278571D01*
X187332142Y-192207142D01*
X187260714Y-192135714D01*
X187189285Y-191992857D01*
X187189285Y-191564285D01*
X187260714Y-191421428D01*
X187332142Y-191350000D01*
X187475000Y-191278571D01*
X187760714Y-191278571D01*
X187903571Y-191350000D01*
X188546428Y-192278571D02*
X188546428Y-190778571D01*
X188546428Y-191350000D02*
X188689285Y-191278571D01*
X188975000Y-191278571D01*
X189117857Y-191350000D01*
X189189285Y-191421428D01*
X189260714Y-191564285D01*
X189260714Y-191992857D01*
X189189285Y-192135714D01*
X189117857Y-192207142D01*
X188975000Y-192278571D01*
X188689285Y-192278571D01*
X188546428Y-192207142D01*
D10*
D11*
X159400000Y-187400000D02*
X267400000Y-187400000D01*
D10*
D11*
X160760714Y-189507142D02*
X160975000Y-189578571D01*
X161332142Y-189578571D01*
X161475000Y-189507142D01*
X161546428Y-189435714D01*
X161617857Y-189292857D01*
X161617857Y-189150000D01*
X161546428Y-189007142D01*
X161475000Y-188935714D01*
X161332142Y-188864285D01*
X161046428Y-188792857D01*
X160903571Y-188721428D01*
X160832142Y-188650000D01*
X160760714Y-188507142D01*
X160760714Y-188364285D01*
X160832142Y-188221428D01*
X160903571Y-188150000D01*
X161046428Y-188078571D01*
X161403571Y-188078571D01*
X161617857Y-188150000D01*
X162260714Y-189578571D02*
X162260714Y-188078571D01*
X162903571Y-189578571D02*
X162903571Y-188792857D01*
X162832142Y-188650000D01*
X162689285Y-188578571D01*
X162475000Y-188578571D01*
X162332142Y-188650000D01*
X162260714Y-188721428D01*
X164189285Y-189507142D02*
X164046428Y-189578571D01*
X163760714Y-189578571D01*
X163617857Y-189507142D01*
X163546428Y-189364285D01*
X163546428Y-188792857D01*
X163617857Y-188650000D01*
X163760714Y-188578571D01*
X164046428Y-188578571D01*
X164189285Y-188650000D01*
X164260714Y-188792857D01*
X164260714Y-188935714D01*
X163546428Y-189078571D01*
X165475000Y-189507142D02*
X165332142Y-189578571D01*
X165046428Y-189578571D01*
X164903571Y-189507142D01*
X164832142Y-189364285D01*
X164832142Y-188792857D01*
X164903571Y-188650000D01*
X165046428Y-188578571D01*
X165332142Y-188578571D01*
X165475000Y-188650000D01*
X165546428Y-188792857D01*
X165546428Y-188935714D01*
X164832142Y-189078571D01*
X165975000Y-188578571D02*
X166546428Y-188578571D01*
X166189285Y-188078571D02*
X166189285Y-189364285D01*
X166260714Y-189507142D01*
X166403571Y-189578571D01*
X166546428Y-189578571D01*
X167046428Y-189435714D02*
X167117857Y-189507142D01*
X167046428Y-189578571D01*
X166975000Y-189507142D01*
X167046428Y-189435714D01*
X167046428Y-189578571D01*
X167046428Y-188650000D02*
X167117857Y-188721428D01*
X167046428Y-188792857D01*
X166975000Y-188721428D01*
X167046428Y-188650000D01*
X167046428Y-188792857D01*
D10*
D12*
X160880714Y-186507142D02*
X161095000Y-186578571D01*
X161452142Y-186578571D01*
X161595000Y-186507142D01*
X161666428Y-186435714D01*
X161737857Y-186292857D01*
X161737857Y-186150000D01*
X161666428Y-186007142D01*
X161595000Y-185935714D01*
X161452142Y-185864285D01*
X161166428Y-185792857D01*
X161023571Y-185721428D01*
X160952142Y-185650000D01*
X160880714Y-185507142D01*
X160880714Y-185364285D01*
X160952142Y-185221428D01*
X161023571Y-185150000D01*
X161166428Y-185078571D01*
X161523571Y-185078571D01*
X161737857Y-185150000D01*
X162380714Y-186578571D02*
X162380714Y-185578571D01*
X162380714Y-185078571D02*
X162309285Y-185150000D01*
X162380714Y-185221428D01*
X162452142Y-185150000D01*
X162380714Y-185078571D01*
X162380714Y-185221428D01*
X163666428Y-186507142D02*
X163523571Y-186578571D01*
X163237857Y-186578571D01*
X163095000Y-186507142D01*
X163023571Y-186364285D01*
X163023571Y-185792857D01*
X163095000Y-185650000D01*
X163237857Y-185578571D01*
X163523571Y-185578571D01*
X163666428Y-185650000D01*
X163737857Y-185792857D01*
X163737857Y-185935714D01*
X163023571Y-186078571D01*
X164380714Y-186578571D02*
X164380714Y-185578571D01*
X164380714Y-185864285D02*
X164452142Y-185721428D01*
X164523571Y-185650000D01*
X164666428Y-185578571D01*
X164809285Y-185578571D01*
X165309285Y-186578571D02*
X165309285Y-185578571D01*
X165309285Y-185864285D02*
X165380714Y-185721428D01*
X165452142Y-185650000D01*
X165595000Y-185578571D01*
X165737857Y-185578571D01*
X166880714Y-186578571D02*
X166880714Y-185792857D01*
X166809285Y-185650000D01*
X166666428Y-185578571D01*
X166380714Y-185578571D01*
X166237857Y-185650000D01*
X166880714Y-186507142D02*
X166737857Y-186578571D01*
X166380714Y-186578571D01*
X166237857Y-186507142D01*
X166166428Y-186364285D01*
X166166428Y-186221428D01*
X166237857Y-186078571D01*
X166380714Y-186007142D01*
X166737857Y-186007142D01*
X166880714Y-185935714D01*
X169452142Y-186578571D02*
X168737857Y-186578571D01*
X168737857Y-185078571D01*
X170166428Y-186578571D02*
X170023571Y-186507142D01*
X169952142Y-186435714D01*
X169880714Y-186292857D01*
X169880714Y-185864285D01*
X169952142Y-185721428D01*
X170023571Y-185650000D01*
X170166428Y-185578571D01*
X170380714Y-185578571D01*
X170523571Y-185650000D01*
X170595000Y-185721428D01*
X170666428Y-185864285D01*
X170666428Y-186292857D01*
X170595000Y-186435714D01*
X170523571Y-186507142D01*
X170380714Y-186578571D01*
X170166428Y-186578571D01*
X171309285Y-186578571D02*
X171309285Y-185078571D01*
X171309285Y-185650000D02*
X171452142Y-185578571D01*
X171737857Y-185578571D01*
X171880714Y-185650000D01*
X171952142Y-185721428D01*
X172023571Y-185864285D01*
X172023571Y-186292857D01*
X171952142Y-186435714D01*
X171880714Y-186507142D01*
X171737857Y-186578571D01*
X171452142Y-186578571D01*
X171309285Y-186507142D01*
X172880714Y-186578571D02*
X172737857Y-186507142D01*
X172666428Y-186435714D01*
X172595000Y-186292857D01*
X172595000Y-185864285D01*
X172666428Y-185721428D01*
X172737857Y-185650000D01*
X172880714Y-185578571D01*
X173095000Y-185578571D01*
X173237857Y-185650000D01*
X173309285Y-185721428D01*
X173380714Y-185864285D01*
X173380714Y-186292857D01*
X173309285Y-186435714D01*
X173237857Y-186507142D01*
X173095000Y-186578571D01*
X172880714Y-186578571D01*
X174095000Y-186507142D02*
X174095000Y-186578571D01*
X174023571Y-186721428D01*
X173952142Y-186792857D01*
X175880714Y-186578571D02*
X175880714Y-185078571D01*
X176595000Y-185578571D02*
X176595000Y-186578571D01*
X176595000Y-185721428D02*
X176666428Y-185650000D01*
X176809285Y-185578571D01*
X177023571Y-185578571D01*
X177166428Y-185650000D01*
X177237857Y-185792857D01*
X177237857Y-186578571D01*
X178595000Y-186507142D02*
X178452142Y-186578571D01*
X178166428Y-186578571D01*
X178023571Y-186507142D01*
X177952142Y-186435714D01*
X177880714Y-186292857D01*
X177880714Y-185864285D01*
X177952142Y-185721428D01*
X178023571Y-185650000D01*
X178166428Y-185578571D01*
X178452142Y-185578571D01*
X178595000Y-185650000D01*
X179237857Y-186435714D02*
X179309285Y-186507142D01*
X179237857Y-186578571D01*
X179166428Y-186507142D01*
X179237857Y-186435714D01*
X179237857Y-186578571D01*
D10*
D11*
X161689285Y-183435714D02*
X161617857Y-183507142D01*
X161403571Y-183578571D01*
X161260714Y-183578571D01*
X161046428Y-183507142D01*
X160903571Y-183364285D01*
X160832142Y-183221428D01*
X160760714Y-182935714D01*
X160760714Y-182721428D01*
X160832142Y-182435714D01*
X160903571Y-182292857D01*
X161046428Y-182150000D01*
X161260714Y-182078571D01*
X161403571Y-182078571D01*
X161617857Y-182150000D01*
X161689285Y-182221428D01*
X162332142Y-183435714D02*
X162403571Y-183507142D01*
X162332142Y-183578571D01*
X162260714Y-183507142D01*
X162332142Y-183435714D01*
X162332142Y-183578571D01*
X164189285Y-183578571D02*
X164189285Y-182078571D01*
X164189285Y-182792857D02*
X165046428Y-182792857D01*
X165046428Y-183578571D02*
X165046428Y-182078571D01*
X165760714Y-183578571D02*
X165760714Y-182578571D01*
X165760714Y-182078571D02*
X165689285Y-182150000D01*
X165760714Y-182221428D01*
X165832142Y-182150000D01*
X165760714Y-182078571D01*
X165760714Y-182221428D01*
X166689285Y-183578571D02*
X166546428Y-183507142D01*
X166475000Y-183364285D01*
X166475000Y-182078571D01*
X167475000Y-183578571D02*
X167332142Y-183507142D01*
X167260714Y-183364285D01*
X167260714Y-182078571D01*
X168046428Y-183578571D02*
X168046428Y-182578571D01*
X168046428Y-182078571D02*
X167975000Y-182150000D01*
X168046428Y-182221428D01*
X168117857Y-182150000D01*
X168046428Y-182078571D01*
X168046428Y-182221428D01*
X168689285Y-183507142D02*
X168832142Y-183578571D01*
X169117857Y-183578571D01*
X169260714Y-183507142D01*
X169332142Y-183364285D01*
X169332142Y-183292857D01*
X169260714Y-183150000D01*
X169117857Y-183078571D01*
X168903571Y-183078571D01*
X168760714Y-183007142D01*
X168689285Y-182864285D01*
X168689285Y-182792857D01*
X168760714Y-182650000D01*
X168903571Y-182578571D01*
X169117857Y-182578571D01*
X169260714Y-182650000D01*
D10*
D11*
X161689285Y-180435714D02*
X161617857Y-180507142D01*
X161403571Y-180578571D01*
X161260714Y-180578571D01*
X161046428Y-180507142D01*
X160903571Y-180364285D01*
X160832142Y-180221428D01*
X160760714Y-179935714D01*
X160760714Y-179721428D01*
X160832142Y-179435714D01*
X160903571Y-179292857D01*
X161046428Y-179150000D01*
X161260714Y-179078571D01*
X161403571Y-179078571D01*
X161617857Y-179150000D01*
X161689285Y-179221428D01*
X162332142Y-180435714D02*
X162403571Y-180507142D01*
X162332142Y-180578571D01*
X162260714Y-180507142D01*
X162332142Y-180435714D01*
X162332142Y-180578571D01*
X164189285Y-180578571D02*
X164189285Y-179078571D01*
X165046428Y-180578571D02*
X164403571Y-179721428D01*
X165046428Y-179078571D02*
X164189285Y-179935714D01*
X165903571Y-180578571D02*
X165760714Y-180507142D01*
X165689285Y-180435714D01*
X165617857Y-180292857D01*
X165617857Y-179864285D01*
X165689285Y-179721428D01*
X165760714Y-179650000D01*
X165903571Y-179578571D01*
X166117857Y-179578571D01*
X166260714Y-179650000D01*
X166332142Y-179721428D01*
X166403571Y-179864285D01*
X166403571Y-180292857D01*
X166332142Y-180435714D01*
X166260714Y-180507142D01*
X166117857Y-180578571D01*
X165903571Y-180578571D01*
X167046428Y-180578571D02*
X167046428Y-179578571D01*
X167046428Y-179864285D02*
X167117857Y-179721428D01*
X167189285Y-179650000D01*
X167332142Y-179578571D01*
X167475000Y-179578571D01*
X167975000Y-179578571D02*
X167975000Y-180578571D01*
X167975000Y-179721428D02*
X168046428Y-179650000D01*
X168189285Y-179578571D01*
X168403571Y-179578571D01*
X168546428Y-179650000D01*
X168617857Y-179792857D01*
X168617857Y-180578571D01*
X169546428Y-180578571D02*
X169403571Y-180507142D01*
X169332142Y-180435714D01*
X169260714Y-180292857D01*
X169260714Y-179864285D01*
X169332142Y-179721428D01*
X169403571Y-179650000D01*
X169546428Y-179578571D01*
X169760714Y-179578571D01*
X169903571Y-179650000D01*
X169975000Y-179721428D01*
X170046428Y-179864285D01*
X170046428Y-180292857D01*
X169975000Y-180435714D01*
X169903571Y-180507142D01*
X169760714Y-180578571D01*
X169546428Y-180578571D01*
X170546428Y-179578571D02*
X170832142Y-180578571D01*
X171117857Y-179864285D01*
X171403571Y-180578571D01*
X171689285Y-179578571D01*
X172189285Y-180507142D02*
X172332142Y-180578571D01*
X172617857Y-180578571D01*
X172760714Y-180507142D01*
X172832142Y-180364285D01*
X172832142Y-180292857D01*
X172760714Y-180150000D01*
X172617857Y-180078571D01*
X172403571Y-180078571D01*
X172260714Y-180007142D01*
X172189285Y-179864285D01*
X172189285Y-179792857D01*
X172260714Y-179650000D01*
X172403571Y-179578571D01*
X172617857Y-179578571D01*
X172760714Y-179650000D01*
X173475000Y-180578571D02*
X173475000Y-179078571D01*
X173617857Y-180007142D02*
X174046428Y-180578571D01*
X174046428Y-179578571D02*
X173475000Y-180150000D01*
X174689285Y-180578571D02*
X174689285Y-179578571D01*
X174689285Y-179078571D02*
X174617857Y-179150000D01*
X174689285Y-179221428D01*
X174760714Y-179150000D01*
X174689285Y-179078571D01*
X174689285Y-179221428D01*
D10*
D11*
D10*
D11*
D10*
D11*
X179400000Y-197400000D02*
X179400000Y-200400000D01*
D10*
D11*
X243400000Y-197400000D02*
X243400000Y-203900000D01*
D14*
X241708571Y-43498571D02*
X240851428Y-43498571D01*
X241279999Y-43498571D02*
X241279999Y-41998571D01*
X241137142Y-42212857D01*
X240994285Y-42355714D01*
X240851428Y-42427142D01*
X242351428Y-43355714D02*
X242422856Y-43427142D01*
X242351428Y-43498571D01*
X242279999Y-43427142D01*
X242351428Y-43355714D01*
X242351428Y-43498571D01*
X243708571Y-41998571D02*
X243422856Y-41998571D01*
X243279999Y-42070000D01*
X243208571Y-42141428D01*
X243065714Y-42355714D01*
X242994285Y-42641428D01*
X242994285Y-43212857D01*
X243065714Y-43355714D01*
X243137142Y-43427142D01*
X243279999Y-43498571D01*
X243565714Y-43498571D01*
X243708571Y-43427142D01*
X243779999Y-43355714D01*
X243851428Y-43212857D01*
X243851428Y-42855714D01*
X243779999Y-42712857D01*
X243708571Y-42641428D01*
X243565714Y-42570000D01*
X243279999Y-42570000D01*
X243137142Y-42641428D01*
X243065714Y-42712857D01*
X242994285Y-42855714D01*
X244779999Y-41998571D02*
X244922856Y-41998571D01*
X245065714Y-42070000D01*
X245137142Y-42141428D01*
X245208571Y-42284285D01*
X245279999Y-42570000D01*
X245279999Y-42927142D01*
X245208571Y-43212857D01*
X245137142Y-43355714D01*
X245065714Y-43427142D01*
X244922856Y-43498571D01*
X244779999Y-43498571D01*
X244637142Y-43427142D01*
X244565714Y-43355714D01*
X244494285Y-43212857D01*
X244422856Y-42927142D01*
X244422856Y-42570000D01*
X244494285Y-42284285D01*
X244565714Y-42141428D01*
X244637142Y-42070000D01*
X244779999Y-41998571D01*
X246208571Y-41998571D02*
X246351428Y-41998571D01*
X246494285Y-42070000D01*
X246565714Y-42141428D01*
X246637142Y-42284285D01*
X246708571Y-42570000D01*
X246708571Y-42927142D01*
X246637142Y-43212857D01*
X246565714Y-43355714D01*
X246494285Y-43427142D01*
X246351428Y-43498571D01*
X246208571Y-43498571D01*
X246065714Y-43427142D01*
X245994285Y-43355714D01*
X245922856Y-43212857D01*
X245851428Y-42927142D01*
X245851428Y-42570000D01*
X245922856Y-42284285D01*
X245994285Y-42141428D01*
X246065714Y-42070000D01*
X246208571Y-41998571D01*
X247637142Y-41998571D02*
X247779999Y-41998571D01*
X247922856Y-42070000D01*
X247994285Y-42141428D01*
X248065714Y-42284285D01*
X248137142Y-42570000D01*
X248137142Y-42927142D01*
X248065714Y-43212857D01*
X247994285Y-43355714D01*
X247922856Y-43427142D01*
X247779999Y-43498571D01*
X247637142Y-43498571D01*
X247494285Y-43427142D01*
X247422856Y-43355714D01*
X247351428Y-43212857D01*
X247279999Y-42927142D01*
X247279999Y-42570000D01*
X247351428Y-42284285D01*
X247422856Y-42141428D01*
X247494285Y-42070000D01*
X247637142Y-41998571D01*
X249922856Y-43498571D02*
X249922856Y-42498571D01*
X249922856Y-42641428D02*
X249994285Y-42570000D01*
X250137142Y-42498571D01*
X250351428Y-42498571D01*
X250494285Y-42570000D01*
X250565714Y-42712857D01*
X250565714Y-43498571D01*
X250565714Y-42712857D02*
X250637142Y-42570000D01*
X250779999Y-42498571D01*
X250994285Y-42498571D01*
X251137142Y-42570000D01*
X251208571Y-42712857D01*
X251208571Y-43498571D01*
X251922856Y-43498571D02*
X251922856Y-42498571D01*
X251922856Y-42641428D02*
X251994285Y-42570000D01*
X252137142Y-42498571D01*
X252351428Y-42498571D01*
X252494285Y-42570000D01*
X252565714Y-42712857D01*
X252565714Y-43498571D01*
X252565714Y-42712857D02*
X252637142Y-42570000D01*
X252779999Y-42498571D01*
X252994285Y-42498571D01*
X253137142Y-42570000D01*
X253208571Y-42712857D01*
X253208571Y-43498571D01*
X148894285Y-60215714D02*
X148822857Y-60287142D01*
X148608571Y-60358571D01*
X148465714Y-60358571D01*
X148251428Y-60287142D01*
X148108571Y-60144285D01*
X148037142Y-60001428D01*
X147965714Y-59715714D01*
X147965714Y-59501428D01*
X148037142Y-59215714D01*
X148108571Y-59072857D01*
X148251428Y-58930000D01*
X148465714Y-58858571D01*
X148608571Y-58858571D01*
X148822857Y-58930000D01*
X148894285Y-59001428D01*
X150180000Y-60358571D02*
X150180000Y-59572857D01*
X150108571Y-59430000D01*
X149965714Y-59358571D01*
X149680000Y-59358571D01*
X149537142Y-59430000D01*
X150180000Y-60287142D02*
X150037142Y-60358571D01*
X149680000Y-60358571D01*
X149537142Y-60287142D01*
X149465714Y-60144285D01*
X149465714Y-60001428D01*
X149537142Y-59858571D01*
X149680000Y-59787142D01*
X150037142Y-59787142D01*
X150180000Y-59715714D01*
X150822857Y-60287142D02*
X150965714Y-60358571D01*
X151251428Y-60358571D01*
X151394285Y-60287142D01*
X151465714Y-60144285D01*
X151465714Y-60072857D01*
X151394285Y-59930000D01*
X151251428Y-59858571D01*
X151037142Y-59858571D01*
X150894285Y-59787142D01*
X150822857Y-59644285D01*
X150822857Y-59572857D01*
X150894285Y-59430000D01*
X151037142Y-59358571D01*
X151251428Y-59358571D01*
X151394285Y-59430000D01*
X151894285Y-59358571D02*
X152465714Y-59358571D01*
X152108571Y-58858571D02*
X152108571Y-60144285D01*
X152180000Y-60287142D01*
X152322857Y-60358571D01*
X152465714Y-60358571D01*
X153537142Y-60287142D02*
X153394285Y-60358571D01*
X153108571Y-60358571D01*
X152965714Y-60287142D01*
X152894285Y-60144285D01*
X152894285Y-59572857D01*
X152965714Y-59430000D01*
X153108571Y-59358571D01*
X153394285Y-59358571D01*
X153537142Y-59430000D01*
X153608571Y-59572857D01*
X153608571Y-59715714D01*
X152894285Y-59858571D01*
X154465714Y-60358571D02*
X154322857Y-60287142D01*
X154251428Y-60144285D01*
X154251428Y-58858571D01*
X155251428Y-60358571D02*
X155108571Y-60287142D01*
X155037142Y-60144285D01*
X155037142Y-58858571D01*
X156465714Y-60358571D02*
X156465714Y-59572857D01*
X156394285Y-59430000D01*
X156251428Y-59358571D01*
X155965714Y-59358571D01*
X155822857Y-59430000D01*
X156465714Y-60287142D02*
X156322857Y-60358571D01*
X155965714Y-60358571D01*
X155822857Y-60287142D01*
X155751428Y-60144285D01*
X155751428Y-60001428D01*
X155822857Y-59858571D01*
X155965714Y-59787142D01*
X156322857Y-59787142D01*
X156465714Y-59715714D01*
X156965714Y-59358571D02*
X157537142Y-59358571D01*
X157180000Y-58858571D02*
X157180000Y-60144285D01*
X157251428Y-60287142D01*
X157394285Y-60358571D01*
X157537142Y-60358571D01*
X158608571Y-60287142D02*
X158465714Y-60358571D01*
X158180000Y-60358571D01*
X158037142Y-60287142D01*
X157965714Y-60144285D01*
X157965714Y-59572857D01*
X158037142Y-59430000D01*
X158180000Y-59358571D01*
X158465714Y-59358571D01*
X158608571Y-59430000D01*
X158680000Y-59572857D01*
X158680000Y-59715714D01*
X157965714Y-59858571D01*
X159965714Y-60358571D02*
X159965714Y-58858571D01*
X159965714Y-60287142D02*
X159822857Y-60358571D01*
X159537142Y-60358571D01*
X159394285Y-60287142D01*
X159322857Y-60215714D01*
X159251428Y-60072857D01*
X159251428Y-59644285D01*
X159322857Y-59501428D01*
X159394285Y-59430000D01*
X159537142Y-59358571D01*
X159822857Y-59358571D01*
X159965714Y-59430000D01*
X161822857Y-59358571D02*
X161822857Y-60858571D01*
X161822857Y-59430000D02*
X161965714Y-59358571D01*
X162251428Y-59358571D01*
X162394285Y-59430000D01*
X162465714Y-59501428D01*
X162537142Y-59644285D01*
X162537142Y-60072857D01*
X162465714Y-60215714D01*
X162394285Y-60287142D01*
X162251428Y-60358571D01*
X161965714Y-60358571D01*
X161822857Y-60287142D01*
X163822857Y-60358571D02*
X163822857Y-59572857D01*
X163751428Y-59430000D01*
X163608571Y-59358571D01*
X163322857Y-59358571D01*
X163180000Y-59430000D01*
X163822857Y-60287142D02*
X163680000Y-60358571D01*
X163322857Y-60358571D01*
X163180000Y-60287142D01*
X163108571Y-60144285D01*
X163108571Y-60001428D01*
X163180000Y-59858571D01*
X163322857Y-59787142D01*
X163680000Y-59787142D01*
X163822857Y-59715714D01*
X165180000Y-60358571D02*
X165180000Y-58858571D01*
X165180000Y-60287142D02*
X165037142Y-60358571D01*
X164751428Y-60358571D01*
X164608571Y-60287142D01*
X164537142Y-60215714D01*
X164465714Y-60072857D01*
X164465714Y-59644285D01*
X164537142Y-59501428D01*
X164608571Y-59430000D01*
X164751428Y-59358571D01*
X165037142Y-59358571D01*
X165180000Y-59430000D01*
X165822857Y-60287142D02*
X165965714Y-60358571D01*
X166251428Y-60358571D01*
X166394285Y-60287142D01*
X166465714Y-60144285D01*
X166465714Y-60072857D01*
X166394285Y-59930000D01*
X166251428Y-59858571D01*
X166037142Y-59858571D01*
X165894285Y-59787142D01*
X165822857Y-59644285D01*
X165822857Y-59572857D01*
X165894285Y-59430000D01*
X166037142Y-59358571D01*
X166251428Y-59358571D01*
X166394285Y-59430000D01*
X167108571Y-60215714D02*
X167180000Y-60287142D01*
X167108571Y-60358571D01*
X167037142Y-60287142D01*
X167108571Y-60215714D01*
X167108571Y-60358571D01*
X167108571Y-59430000D02*
X167180000Y-59501428D01*
X167108571Y-59572857D01*
X167037142Y-59501428D01*
X167108571Y-59430000D01*
X167108571Y-59572857D01*
X181237143Y-41998571D02*
X180951428Y-41998571D01*
X180808571Y-42070000D01*
X180737143Y-42141428D01*
X180594285Y-42355714D01*
X180522857Y-42641428D01*
X180522857Y-43212857D01*
X180594285Y-43355714D01*
X180665714Y-43427142D01*
X180808571Y-43498571D01*
X181094285Y-43498571D01*
X181237143Y-43427142D01*
X181308571Y-43355714D01*
X181380000Y-43212857D01*
X181380000Y-42855714D01*
X181308571Y-42712857D01*
X181237143Y-42641428D01*
X181094285Y-42570000D01*
X180808571Y-42570000D01*
X180665714Y-42641428D01*
X180594285Y-42712857D01*
X180522857Y-42855714D01*
X180594285Y-64573571D02*
X180594285Y-63073571D01*
X181451428Y-64573571D01*
X181451428Y-63073571D01*
X182380000Y-64573571D02*
X182237143Y-64502142D01*
X182165714Y-64430714D01*
X182094285Y-64287857D01*
X182094285Y-63859285D01*
X182165714Y-63716428D01*
X182237143Y-63645000D01*
X182380000Y-63573571D01*
X182594285Y-63573571D01*
X182737143Y-63645000D01*
X182808571Y-63716428D01*
X182880000Y-63859285D01*
X182880000Y-64287857D01*
X182808571Y-64430714D01*
X182737143Y-64502142D01*
X182594285Y-64573571D01*
X182380000Y-64573571D01*
D15*
X146785714Y-143104761D02*
X146785714Y-141104761D01*
X147928571Y-143104761D01*
X147928571Y-141104761D01*
X149261904Y-141104761D02*
X149642857Y-141104761D01*
X149833333Y-141200000D01*
X150023809Y-141390476D01*
X150119047Y-141771428D01*
X150119047Y-142438095D01*
X150023809Y-142819047D01*
X149833333Y-143009523D01*
X149642857Y-143104761D01*
X149261904Y-143104761D01*
X149071428Y-143009523D01*
X148880952Y-142819047D01*
X148785714Y-142438095D01*
X148785714Y-141771428D01*
X148880952Y-141390476D01*
X149071428Y-141200000D01*
X149261904Y-141104761D01*
X150690476Y-141104761D02*
X151833333Y-141104761D01*
X151261904Y-143104761D02*
X151261904Y-141104761D01*
X152500000Y-142057142D02*
X153166666Y-142057142D01*
X153452380Y-143104761D02*
X152500000Y-143104761D01*
X152500000Y-141104761D01*
X153452380Y-141104761D01*
X154214285Y-143009523D02*
X154500000Y-143104761D01*
X154976190Y-143104761D01*
X155166666Y-143009523D01*
X155261904Y-142914285D01*
X155357142Y-142723809D01*
X155357142Y-142533333D01*
X155261904Y-142342857D01*
X155166666Y-142247619D01*
X154976190Y-142152380D01*
X154595238Y-142057142D01*
X154404761Y-141961904D01*
X154309523Y-141866666D01*
X154214285Y-141676190D01*
X154214285Y-141485714D01*
X154309523Y-141295238D01*
X154404761Y-141200000D01*
X154595238Y-141104761D01*
X155071428Y-141104761D01*
X155357142Y-141200000D01*
X156214285Y-142914285D02*
X156309523Y-143009523D01*
X156214285Y-143104761D01*
X156119047Y-143009523D01*
X156214285Y-142914285D01*
X156214285Y-143104761D01*
X156214285Y-141866666D02*
X156309523Y-141961904D01*
X156214285Y-142057142D01*
X156119047Y-141961904D01*
X156214285Y-141866666D01*
X156214285Y-142057142D01*
D14*
X148894285Y-43355714D02*
X148822857Y-43427142D01*
X148608571Y-43498571D01*
X148465714Y-43498571D01*
X148251428Y-43427142D01*
X148108571Y-43284285D01*
X148037142Y-43141428D01*
X147965714Y-42855714D01*
X147965714Y-42641428D01*
X148037142Y-42355714D01*
X148108571Y-42212857D01*
X148251428Y-42070000D01*
X148465714Y-41998571D01*
X148608571Y-41998571D01*
X148822857Y-42070000D01*
X148894285Y-42141428D01*
X149751428Y-43498571D02*
X149608571Y-43427142D01*
X149537142Y-43355714D01*
X149465714Y-43212857D01*
X149465714Y-42784285D01*
X149537142Y-42641428D01*
X149608571Y-42570000D01*
X149751428Y-42498571D01*
X149965714Y-42498571D01*
X150108571Y-42570000D01*
X150180000Y-42641428D01*
X150251428Y-42784285D01*
X150251428Y-43212857D01*
X150180000Y-43355714D01*
X150108571Y-43427142D01*
X149965714Y-43498571D01*
X149751428Y-43498571D01*
X150894285Y-42498571D02*
X150894285Y-43998571D01*
X150894285Y-42570000D02*
X151037142Y-42498571D01*
X151322857Y-42498571D01*
X151465714Y-42570000D01*
X151537142Y-42641428D01*
X151608571Y-42784285D01*
X151608571Y-43212857D01*
X151537142Y-43355714D01*
X151465714Y-43427142D01*
X151322857Y-43498571D01*
X151037142Y-43498571D01*
X150894285Y-43427142D01*
X152251428Y-42498571D02*
X152251428Y-43998571D01*
X152251428Y-42570000D02*
X152394285Y-42498571D01*
X152680000Y-42498571D01*
X152822857Y-42570000D01*
X152894285Y-42641428D01*
X152965714Y-42784285D01*
X152965714Y-43212857D01*
X152894285Y-43355714D01*
X152822857Y-43427142D01*
X152680000Y-43498571D01*
X152394285Y-43498571D01*
X152251428Y-43427142D01*
X154180000Y-43427142D02*
X154037142Y-43498571D01*
X153751428Y-43498571D01*
X153608571Y-43427142D01*
X153537142Y-43284285D01*
X153537142Y-42712857D01*
X153608571Y-42570000D01*
X153751428Y-42498571D01*
X154037142Y-42498571D01*
X154180000Y-42570000D01*
X154251428Y-42712857D01*
X154251428Y-42855714D01*
X153537142Y-42998571D01*
X154894285Y-43498571D02*
X154894285Y-42498571D01*
X154894285Y-42784285D02*
X154965714Y-42641428D01*
X155037142Y-42570000D01*
X155180000Y-42498571D01*
X155322857Y-42498571D01*
X157680000Y-43498571D02*
X156965714Y-43498571D01*
X156965714Y-41998571D01*
X158822857Y-43498571D02*
X158822857Y-42712857D01*
X158751428Y-42570000D01*
X158608571Y-42498571D01*
X158322857Y-42498571D01*
X158180000Y-42570000D01*
X158822857Y-43427142D02*
X158680000Y-43498571D01*
X158322857Y-43498571D01*
X158180000Y-43427142D01*
X158108571Y-43284285D01*
X158108571Y-43141428D01*
X158180000Y-42998571D01*
X158322857Y-42927142D01*
X158680000Y-42927142D01*
X158822857Y-42855714D01*
X159394285Y-42498571D02*
X159751428Y-43498571D01*
X160108571Y-42498571D02*
X159751428Y-43498571D01*
X159608571Y-43855714D01*
X159537142Y-43927142D01*
X159394285Y-43998571D01*
X161251428Y-43427142D02*
X161108571Y-43498571D01*
X160822857Y-43498571D01*
X160680000Y-43427142D01*
X160608571Y-43284285D01*
X160608571Y-42712857D01*
X160680000Y-42570000D01*
X160822857Y-42498571D01*
X161108571Y-42498571D01*
X161251428Y-42570000D01*
X161322857Y-42712857D01*
X161322857Y-42855714D01*
X160608571Y-42998571D01*
X161965714Y-43498571D02*
X161965714Y-42498571D01*
X161965714Y-42784285D02*
X162037142Y-42641428D01*
X162108571Y-42570000D01*
X162251428Y-42498571D01*
X162394285Y-42498571D01*
X164894285Y-43355714D02*
X164822857Y-43427142D01*
X164608571Y-43498571D01*
X164465714Y-43498571D01*
X164251428Y-43427142D01*
X164108571Y-43284285D01*
X164037142Y-43141428D01*
X163965714Y-42855714D01*
X163965714Y-42641428D01*
X164037142Y-42355714D01*
X164108571Y-42212857D01*
X164251428Y-42070000D01*
X164465714Y-41998571D01*
X164608571Y-41998571D01*
X164822857Y-42070000D01*
X164894285Y-42141428D01*
X165751428Y-43498571D02*
X165608571Y-43427142D01*
X165537142Y-43355714D01*
X165465714Y-43212857D01*
X165465714Y-42784285D01*
X165537142Y-42641428D01*
X165608571Y-42570000D01*
X165751428Y-42498571D01*
X165965714Y-42498571D01*
X166108571Y-42570000D01*
X166180000Y-42641428D01*
X166251428Y-42784285D01*
X166251428Y-43212857D01*
X166180000Y-43355714D01*
X166108571Y-43427142D01*
X165965714Y-43498571D01*
X165751428Y-43498571D01*
X167537142Y-42498571D02*
X167537142Y-43498571D01*
X166894285Y-42498571D02*
X166894285Y-43284285D01*
X166965714Y-43427142D01*
X167108571Y-43498571D01*
X167322857Y-43498571D01*
X167465714Y-43427142D01*
X167537142Y-43355714D01*
X168251428Y-42498571D02*
X168251428Y-43498571D01*
X168251428Y-42641428D02*
X168322857Y-42570000D01*
X168465714Y-42498571D01*
X168680000Y-42498571D01*
X168822857Y-42570000D01*
X168894285Y-42712857D01*
X168894285Y-43498571D01*
X169394285Y-42498571D02*
X169965714Y-42498571D01*
X169608571Y-41998571D02*
X169608571Y-43284285D01*
X169680000Y-43427142D01*
X169822857Y-43498571D01*
X169965714Y-43498571D01*
X170465714Y-43355714D02*
X170537142Y-43427142D01*
X170465714Y-43498571D01*
X170394285Y-43427142D01*
X170465714Y-43355714D01*
X170465714Y-43498571D01*
X170465714Y-42570000D02*
X170537142Y-42641428D01*
X170465714Y-42712857D01*
X170394285Y-42641428D01*
X170465714Y-42570000D01*
X170465714Y-42712857D01*
X216579999Y-42712857D02*
X216794285Y-42784285D01*
X216865714Y-42855714D01*
X216937142Y-42998571D01*
X216937142Y-43212857D01*
X216865714Y-43355714D01*
X216794285Y-43427142D01*
X216651428Y-43498571D01*
X216079999Y-43498571D01*
X216079999Y-41998571D01*
X216579999Y-41998571D01*
X216722857Y-42070000D01*
X216794285Y-42141428D01*
X216865714Y-42284285D01*
X216865714Y-42427142D01*
X216794285Y-42570000D01*
X216722857Y-42641428D01*
X216579999Y-42712857D01*
X216079999Y-42712857D01*
X217794285Y-43498571D02*
X217651428Y-43427142D01*
X217579999Y-43355714D01*
X217508571Y-43212857D01*
X217508571Y-42784285D01*
X217579999Y-42641428D01*
X217651428Y-42570000D01*
X217794285Y-42498571D01*
X218008571Y-42498571D01*
X218151428Y-42570000D01*
X218222857Y-42641428D01*
X218294285Y-42784285D01*
X218294285Y-43212857D01*
X218222857Y-43355714D01*
X218151428Y-43427142D01*
X218008571Y-43498571D01*
X217794285Y-43498571D01*
X219579999Y-43498571D02*
X219579999Y-42712857D01*
X219508571Y-42570000D01*
X219365714Y-42498571D01*
X219079999Y-42498571D01*
X218937142Y-42570000D01*
X219579999Y-43427142D02*
X219437142Y-43498571D01*
X219079999Y-43498571D01*
X218937142Y-43427142D01*
X218865714Y-43284285D01*
X218865714Y-43141428D01*
X218937142Y-42998571D01*
X219079999Y-42927142D01*
X219437142Y-42927142D01*
X219579999Y-42855714D01*
X220294285Y-43498571D02*
X220294285Y-42498571D01*
X220294285Y-42784285D02*
X220365714Y-42641428D01*
X220437142Y-42570000D01*
X220579999Y-42498571D01*
X220722857Y-42498571D01*
X221865714Y-43498571D02*
X221865714Y-41998571D01*
X221865714Y-43427142D02*
X221722857Y-43498571D01*
X221437142Y-43498571D01*
X221294285Y-43427142D01*
X221222857Y-43355714D01*
X221151428Y-43212857D01*
X221151428Y-42784285D01*
X221222857Y-42641428D01*
X221294285Y-42570000D01*
X221437142Y-42498571D01*
X221722857Y-42498571D01*
X221865714Y-42570000D01*
X223508571Y-41998571D02*
X224365714Y-41998571D01*
X223937142Y-43498571D02*
X223937142Y-41998571D01*
X224865714Y-43498571D02*
X224865714Y-41998571D01*
X225508571Y-43498571D02*
X225508571Y-42712857D01*
X225437142Y-42570000D01*
X225294285Y-42498571D01*
X225079999Y-42498571D01*
X224937142Y-42570000D01*
X224865714Y-42641428D01*
X226222857Y-43498571D02*
X226222857Y-42498571D01*
X226222857Y-41998571D02*
X226151428Y-42070000D01*
X226222857Y-42141428D01*
X226294285Y-42070000D01*
X226222857Y-41998571D01*
X226222857Y-42141428D01*
X227579999Y-43427142D02*
X227437142Y-43498571D01*
X227151428Y-43498571D01*
X227008571Y-43427142D01*
X226937142Y-43355714D01*
X226865714Y-43212857D01*
X226865714Y-42784285D01*
X226937142Y-42641428D01*
X227008571Y-42570000D01*
X227151428Y-42498571D01*
X227437142Y-42498571D01*
X227579999Y-42570000D01*
X228222857Y-43498571D02*
X228222857Y-41998571D01*
X228365714Y-42927142D02*
X228794285Y-43498571D01*
X228794285Y-42498571D02*
X228222857Y-43070000D01*
X229437142Y-42498571D02*
X229437142Y-43498571D01*
X229437142Y-42641428D02*
X229508571Y-42570000D01*
X229651428Y-42498571D01*
X229865714Y-42498571D01*
X230008571Y-42570000D01*
X230079999Y-42712857D01*
X230079999Y-43498571D01*
X231365714Y-43427142D02*
X231222857Y-43498571D01*
X230937142Y-43498571D01*
X230794285Y-43427142D01*
X230722857Y-43284285D01*
X230722857Y-42712857D01*
X230794285Y-42570000D01*
X230937142Y-42498571D01*
X231222857Y-42498571D01*
X231365714Y-42570000D01*
X231437142Y-42712857D01*
X231437142Y-42855714D01*
X230722857Y-42998571D01*
X232008571Y-43427142D02*
X232151428Y-43498571D01*
X232437142Y-43498571D01*
X232579999Y-43427142D01*
X232651428Y-43284285D01*
X232651428Y-43212857D01*
X232579999Y-43070000D01*
X232437142Y-42998571D01*
X232222857Y-42998571D01*
X232079999Y-42927142D01*
X232008571Y-42784285D01*
X232008571Y-42712857D01*
X232079999Y-42570000D01*
X232222857Y-42498571D01*
X232437142Y-42498571D01*
X232579999Y-42570000D01*
X233222857Y-43427142D02*
X233365714Y-43498571D01*
X233651428Y-43498571D01*
X233794285Y-43427142D01*
X233865714Y-43284285D01*
X233865714Y-43212857D01*
X233794285Y-43070000D01*
X233651428Y-42998571D01*
X233437142Y-42998571D01*
X233294285Y-42927142D01*
X233222857Y-42784285D01*
X233222857Y-42712857D01*
X233294285Y-42570000D01*
X233437142Y-42498571D01*
X233651428Y-42498571D01*
X233794285Y-42570000D01*
X234508571Y-43355714D02*
X234579999Y-43427142D01*
X234508571Y-43498571D01*
X234437142Y-43427142D01*
X234508571Y-43355714D01*
X234508571Y-43498571D01*
X234508571Y-42570000D02*
X234579999Y-42641428D01*
X234508571Y-42712857D01*
X234437142Y-42641428D01*
X234508571Y-42570000D01*
X234508571Y-42712857D01*
X148037142Y-51928571D02*
X148037142Y-50428571D01*
X148537142Y-51500000D01*
X149037142Y-50428571D01*
X149037142Y-51928571D01*
X149751428Y-51928571D02*
X149751428Y-50928571D01*
X149751428Y-50428571D02*
X149680000Y-50500000D01*
X149751428Y-50571428D01*
X149822857Y-50500000D01*
X149751428Y-50428571D01*
X149751428Y-50571428D01*
X150465714Y-50928571D02*
X150465714Y-51928571D01*
X150465714Y-51071428D02*
X150537142Y-51000000D01*
X150680000Y-50928571D01*
X150894285Y-50928571D01*
X151037142Y-51000000D01*
X151108571Y-51142857D01*
X151108571Y-51928571D01*
X152751428Y-50928571D02*
X153322857Y-50928571D01*
X152965714Y-50428571D02*
X152965714Y-51714285D01*
X153037142Y-51857142D01*
X153180000Y-51928571D01*
X153322857Y-51928571D01*
X153822857Y-51928571D02*
X153822857Y-50928571D01*
X153822857Y-51214285D02*
X153894285Y-51071428D01*
X153965714Y-51000000D01*
X154108571Y-50928571D01*
X154251428Y-50928571D01*
X155394285Y-51928571D02*
X155394285Y-51142857D01*
X155322857Y-51000000D01*
X155180000Y-50928571D01*
X154894285Y-50928571D01*
X154751428Y-51000000D01*
X155394285Y-51857142D02*
X155251428Y-51928571D01*
X154894285Y-51928571D01*
X154751428Y-51857142D01*
X154680000Y-51714285D01*
X154680000Y-51571428D01*
X154751428Y-51428571D01*
X154894285Y-51357142D01*
X155251428Y-51357142D01*
X155394285Y-51285714D01*
X156751428Y-51857142D02*
X156608571Y-51928571D01*
X156322857Y-51928571D01*
X156180000Y-51857142D01*
X156108571Y-51785714D01*
X156037142Y-51642857D01*
X156037142Y-51214285D01*
X156108571Y-51071428D01*
X156180000Y-51000000D01*
X156322857Y-50928571D01*
X156608571Y-50928571D01*
X156751428Y-51000000D01*
X157394285Y-51928571D02*
X157394285Y-50428571D01*
X157537142Y-51357142D02*
X157965714Y-51928571D01*
X157965714Y-50928571D02*
X157394285Y-51500000D01*
X159680000Y-50357142D02*
X158394285Y-52285714D01*
X160108571Y-51857142D02*
X160251428Y-51928571D01*
X160537142Y-51928571D01*
X160680000Y-51857142D01*
X160751428Y-51714285D01*
X160751428Y-51642857D01*
X160680000Y-51500000D01*
X160537142Y-51428571D01*
X160322857Y-51428571D01*
X160180000Y-51357142D01*
X160108571Y-51214285D01*
X160108571Y-51142857D01*
X160180000Y-51000000D01*
X160322857Y-50928571D01*
X160537142Y-50928571D01*
X160680000Y-51000000D01*
X161394285Y-50928571D02*
X161394285Y-52428571D01*
X161394285Y-51000000D02*
X161537142Y-50928571D01*
X161822857Y-50928571D01*
X161965714Y-51000000D01*
X162037142Y-51071428D01*
X162108571Y-51214285D01*
X162108571Y-51642857D01*
X162037142Y-51785714D01*
X161965714Y-51857142D01*
X161822857Y-51928571D01*
X161537142Y-51928571D01*
X161394285Y-51857142D01*
X163394285Y-51928571D02*
X163394285Y-51142857D01*
X163322857Y-51000000D01*
X163180000Y-50928571D01*
X162894285Y-50928571D01*
X162751428Y-51000000D01*
X163394285Y-51857142D02*
X163251428Y-51928571D01*
X162894285Y-51928571D01*
X162751428Y-51857142D01*
X162680000Y-51714285D01*
X162680000Y-51571428D01*
X162751428Y-51428571D01*
X162894285Y-51357142D01*
X163251428Y-51357142D01*
X163394285Y-51285714D01*
X164751428Y-51857142D02*
X164608571Y-51928571D01*
X164322857Y-51928571D01*
X164180000Y-51857142D01*
X164108571Y-51785714D01*
X164037142Y-51642857D01*
X164037142Y-51214285D01*
X164108571Y-51071428D01*
X164180000Y-51000000D01*
X164322857Y-50928571D01*
X164608571Y-50928571D01*
X164751428Y-51000000D01*
X165394285Y-51928571D02*
X165394285Y-50928571D01*
X165394285Y-50428571D02*
X165322857Y-50500000D01*
X165394285Y-50571428D01*
X165465714Y-50500000D01*
X165394285Y-50428571D01*
X165394285Y-50571428D01*
X166108571Y-50928571D02*
X166108571Y-51928571D01*
X166108571Y-51071428D02*
X166180000Y-51000000D01*
X166322857Y-50928571D01*
X166537142Y-50928571D01*
X166680000Y-51000000D01*
X166751428Y-51142857D01*
X166751428Y-51928571D01*
X168108571Y-50928571D02*
X168108571Y-52142857D01*
X168037142Y-52285714D01*
X167965714Y-52357142D01*
X167822857Y-52428571D01*
X167608571Y-52428571D01*
X167465714Y-52357142D01*
X168108571Y-51857142D02*
X167965714Y-51928571D01*
X167680000Y-51928571D01*
X167537142Y-51857142D01*
X167465714Y-51785714D01*
X167394285Y-51642857D01*
X167394285Y-51214285D01*
X167465714Y-51071428D01*
X167537142Y-51000000D01*
X167680000Y-50928571D01*
X167965714Y-50928571D01*
X168108571Y-51000000D01*
X168822857Y-51785714D02*
X168894285Y-51857142D01*
X168822857Y-51928571D01*
X168751428Y-51857142D01*
X168822857Y-51785714D01*
X168822857Y-51928571D01*
X168822857Y-51000000D02*
X168894285Y-51071428D01*
X168822857Y-51142857D01*
X168751428Y-51071428D01*
X168822857Y-51000000D01*
X168822857Y-51142857D01*
X180594285Y-60358571D02*
X180594285Y-58858571D01*
X181451428Y-60358571D01*
X181451428Y-58858571D01*
X182380000Y-60358571D02*
X182237143Y-60287142D01*
X182165714Y-60215714D01*
X182094285Y-60072857D01*
X182094285Y-59644285D01*
X182165714Y-59501428D01*
X182237143Y-59430000D01*
X182380000Y-59358571D01*
X182594285Y-59358571D01*
X182737143Y-59430000D01*
X182808571Y-59501428D01*
X182880000Y-59644285D01*
X182880000Y-60072857D01*
X182808571Y-60215714D01*
X182737143Y-60287142D01*
X182594285Y-60358571D01*
X182380000Y-60358571D01*
D13*
X148202857Y-37357142D02*
X148488571Y-37452380D01*
X148583809Y-37547619D01*
X148679047Y-37738095D01*
X148679047Y-38023809D01*
X148583809Y-38214285D01*
X148488571Y-38309523D01*
X148298095Y-38404761D01*
X147536190Y-38404761D01*
X147536190Y-36404761D01*
X148202857Y-36404761D01*
X148393333Y-36500000D01*
X148488571Y-36595238D01*
X148583809Y-36785714D01*
X148583809Y-36976190D01*
X148488571Y-37166666D01*
X148393333Y-37261904D01*
X148202857Y-37357142D01*
X147536190Y-37357142D01*
X149917142Y-36404761D02*
X150298095Y-36404761D01*
X150488571Y-36500000D01*
X150679047Y-36690476D01*
X150774285Y-37071428D01*
X150774285Y-37738095D01*
X150679047Y-38119047D01*
X150488571Y-38309523D01*
X150298095Y-38404761D01*
X149917142Y-38404761D01*
X149726666Y-38309523D01*
X149536190Y-38119047D01*
X149440952Y-37738095D01*
X149440952Y-37071428D01*
X149536190Y-36690476D01*
X149726666Y-36500000D01*
X149917142Y-36404761D01*
X151536190Y-37833333D02*
X152488571Y-37833333D01*
X151345714Y-38404761D02*
X152012380Y-36404761D01*
X152679047Y-38404761D01*
X154488571Y-38404761D02*
X153821904Y-37452380D01*
X153345714Y-38404761D02*
X153345714Y-36404761D01*
X154107619Y-36404761D01*
X154298095Y-36500000D01*
X154393333Y-36595238D01*
X154488571Y-36785714D01*
X154488571Y-37071428D01*
X154393333Y-37261904D01*
X154298095Y-37357142D01*
X154107619Y-37452380D01*
X153345714Y-37452380D01*
X155345714Y-38404761D02*
X155345714Y-36404761D01*
X155821904Y-36404761D01*
X156107619Y-36500000D01*
X156298095Y-36690476D01*
X156393333Y-36880952D01*
X156488571Y-37261904D01*
X156488571Y-37547619D01*
X156393333Y-37928571D01*
X156298095Y-38119047D01*
X156107619Y-38309523D01*
X155821904Y-38404761D01*
X155345714Y-38404761D01*
X160012380Y-38214285D02*
X159917142Y-38309523D01*
X159631428Y-38404761D01*
X159440952Y-38404761D01*
X159155238Y-38309523D01*
X158964761Y-38119047D01*
X158869523Y-37928571D01*
X158774285Y-37547619D01*
X158774285Y-37261904D01*
X158869523Y-36880952D01*
X158964761Y-36690476D01*
X159155238Y-36500000D01*
X159440952Y-36404761D01*
X159631428Y-36404761D01*
X159917142Y-36500000D01*
X160012380Y-36595238D01*
X160869523Y-38404761D02*
X160869523Y-36404761D01*
X160869523Y-37357142D02*
X162012380Y-37357142D01*
X162012380Y-38404761D02*
X162012380Y-36404761D01*
X162869523Y-37833333D02*
X163821904Y-37833333D01*
X162679047Y-38404761D02*
X163345714Y-36404761D01*
X164012380Y-38404761D01*
X165821904Y-38404761D02*
X165155238Y-37452380D01*
X164679047Y-38404761D02*
X164679047Y-36404761D01*
X165440952Y-36404761D01*
X165631428Y-36500000D01*
X165726666Y-36595238D01*
X165821904Y-36785714D01*
X165821904Y-37071428D01*
X165726666Y-37261904D01*
X165631428Y-37357142D01*
X165440952Y-37452380D01*
X164679047Y-37452380D01*
X166583809Y-37833333D02*
X167536190Y-37833333D01*
X166393333Y-38404761D02*
X167060000Y-36404761D01*
X167726666Y-38404761D01*
X169536190Y-38214285D02*
X169440952Y-38309523D01*
X169155238Y-38404761D01*
X168964761Y-38404761D01*
X168679047Y-38309523D01*
X168488571Y-38119047D01*
X168393333Y-37928571D01*
X168298095Y-37547619D01*
X168298095Y-37261904D01*
X168393333Y-36880952D01*
X168488571Y-36690476D01*
X168679047Y-36500000D01*
X168964761Y-36404761D01*
X169155238Y-36404761D01*
X169440952Y-36500000D01*
X169536190Y-36595238D01*
X170107619Y-36404761D02*
X171250476Y-36404761D01*
X170679047Y-38404761D02*
X170679047Y-36404761D01*
X171917142Y-37357142D02*
X172583809Y-37357142D01*
X172869523Y-38404761D02*
X171917142Y-38404761D01*
X171917142Y-36404761D01*
X172869523Y-36404761D01*
X174869523Y-38404761D02*
X174202857Y-37452380D01*
X173726666Y-38404761D02*
X173726666Y-36404761D01*
X174488571Y-36404761D01*
X174679047Y-36500000D01*
X174774285Y-36595238D01*
X174869523Y-36785714D01*
X174869523Y-37071428D01*
X174774285Y-37261904D01*
X174679047Y-37357142D01*
X174488571Y-37452380D01*
X173726666Y-37452380D01*
X175726666Y-38404761D02*
X175726666Y-36404761D01*
X176583809Y-38309523D02*
X176869523Y-38404761D01*
X177345714Y-38404761D01*
X177536190Y-38309523D01*
X177631428Y-38214285D01*
X177726666Y-38023809D01*
X177726666Y-37833333D01*
X177631428Y-37642857D01*
X177536190Y-37547619D01*
X177345714Y-37452380D01*
X176964761Y-37357142D01*
X176774285Y-37261904D01*
X176679047Y-37166666D01*
X176583809Y-36976190D01*
X176583809Y-36785714D01*
X176679047Y-36595238D01*
X176774285Y-36500000D01*
X176964761Y-36404761D01*
X177440952Y-36404761D01*
X177726666Y-36500000D01*
X178298095Y-36404761D02*
X179440952Y-36404761D01*
X178869523Y-38404761D02*
X178869523Y-36404761D01*
X180107619Y-38404761D02*
X180107619Y-36404761D01*
X182202857Y-38214285D02*
X182107619Y-38309523D01*
X181821904Y-38404761D01*
X181631428Y-38404761D01*
X181345714Y-38309523D01*
X181155238Y-38119047D01*
X181060000Y-37928571D01*
X180964761Y-37547619D01*
X180964761Y-37261904D01*
X181060000Y-36880952D01*
X181155238Y-36690476D01*
X181345714Y-36500000D01*
X181631428Y-36404761D01*
X181821904Y-36404761D01*
X182107619Y-36500000D01*
X182202857Y-36595238D01*
X182964761Y-38309523D02*
X183250476Y-38404761D01*
X183726666Y-38404761D01*
X183917142Y-38309523D01*
X184012380Y-38214285D01*
X184107619Y-38023809D01*
X184107619Y-37833333D01*
X184012380Y-37642857D01*
X183917142Y-37547619D01*
X183726666Y-37452380D01*
X183345714Y-37357142D01*
X183155238Y-37261904D01*
X183060000Y-37166666D01*
X182964761Y-36976190D01*
X182964761Y-36785714D01*
X183060000Y-36595238D01*
X183155238Y-36500000D01*
X183345714Y-36404761D01*
X183821904Y-36404761D01*
X184107619Y-36500000D01*
D14*
X216079999Y-51928571D02*
X216079999Y-50428571D01*
X216579999Y-51500000D01*
X217079999Y-50428571D01*
X217079999Y-51928571D01*
X217794285Y-51928571D02*
X217794285Y-50928571D01*
X217794285Y-50428571D02*
X217722857Y-50500000D01*
X217794285Y-50571428D01*
X217865714Y-50500000D01*
X217794285Y-50428571D01*
X217794285Y-50571428D01*
X218508571Y-50928571D02*
X218508571Y-51928571D01*
X218508571Y-51071428D02*
X218579999Y-51000000D01*
X218722857Y-50928571D01*
X218937142Y-50928571D01*
X219079999Y-51000000D01*
X219151428Y-51142857D01*
X219151428Y-51928571D01*
X221008571Y-51928571D02*
X221008571Y-50428571D01*
X221651428Y-51928571D02*
X221651428Y-51142857D01*
X221579999Y-51000000D01*
X221437142Y-50928571D01*
X221222857Y-50928571D01*
X221079999Y-51000000D01*
X221008571Y-51071428D01*
X222579999Y-51928571D02*
X222437142Y-51857142D01*
X222365714Y-51785714D01*
X222294285Y-51642857D01*
X222294285Y-51214285D01*
X222365714Y-51071428D01*
X222437142Y-51000000D01*
X222579999Y-50928571D01*
X222794285Y-50928571D01*
X222937142Y-51000000D01*
X223008571Y-51071428D01*
X223079999Y-51214285D01*
X223079999Y-51642857D01*
X223008571Y-51785714D01*
X222937142Y-51857142D01*
X222794285Y-51928571D01*
X222579999Y-51928571D01*
X223937142Y-51928571D02*
X223794285Y-51857142D01*
X223722857Y-51714285D01*
X223722857Y-50428571D01*
X225079999Y-51857142D02*
X224937142Y-51928571D01*
X224651428Y-51928571D01*
X224508571Y-51857142D01*
X224437142Y-51714285D01*
X224437142Y-51142857D01*
X224508571Y-51000000D01*
X224651428Y-50928571D01*
X224937142Y-50928571D01*
X225079999Y-51000000D01*
X225151428Y-51142857D01*
X225151428Y-51285714D01*
X224437142Y-51428571D01*
X227579999Y-51928571D02*
X227579999Y-50428571D01*
X227579999Y-51857142D02*
X227437142Y-51928571D01*
X227151428Y-51928571D01*
X227008571Y-51857142D01*
X226937142Y-51785714D01*
X226865714Y-51642857D01*
X226865714Y-51214285D01*
X226937142Y-51071428D01*
X227008571Y-51000000D01*
X227151428Y-50928571D01*
X227437142Y-50928571D01*
X227579999Y-51000000D01*
X228294285Y-51928571D02*
X228294285Y-50928571D01*
X228294285Y-50428571D02*
X228222857Y-50500000D01*
X228294285Y-50571428D01*
X228365714Y-50500000D01*
X228294285Y-50428571D01*
X228294285Y-50571428D01*
X229651428Y-51928571D02*
X229651428Y-51142857D01*
X229579999Y-51000000D01*
X229437142Y-50928571D01*
X229151428Y-50928571D01*
X229008571Y-51000000D01*
X229651428Y-51857142D02*
X229508571Y-51928571D01*
X229151428Y-51928571D01*
X229008571Y-51857142D01*
X228937142Y-51714285D01*
X228937142Y-51571428D01*
X229008571Y-51428571D01*
X229151428Y-51357142D01*
X229508571Y-51357142D01*
X229651428Y-51285714D01*
X230365714Y-51928571D02*
X230365714Y-50928571D01*
X230365714Y-51071428D02*
X230437142Y-51000000D01*
X230579999Y-50928571D01*
X230794285Y-50928571D01*
X230937142Y-51000000D01*
X231008571Y-51142857D01*
X231008571Y-51928571D01*
X231008571Y-51142857D02*
X231079999Y-51000000D01*
X231222857Y-50928571D01*
X231437142Y-50928571D01*
X231579999Y-51000000D01*
X231651428Y-51142857D01*
X231651428Y-51928571D01*
X232937142Y-51857142D02*
X232794285Y-51928571D01*
X232508571Y-51928571D01*
X232365714Y-51857142D01*
X232294285Y-51714285D01*
X232294285Y-51142857D01*
X232365714Y-51000000D01*
X232508571Y-50928571D01*
X232794285Y-50928571D01*
X232937142Y-51000000D01*
X233008571Y-51142857D01*
X233008571Y-51285714D01*
X232294285Y-51428571D01*
X233437142Y-50928571D02*
X234008571Y-50928571D01*
X233651428Y-50428571D02*
X233651428Y-51714285D01*
X233722857Y-51857142D01*
X233865714Y-51928571D01*
X234008571Y-51928571D01*
X235079999Y-51857142D02*
X234937142Y-51928571D01*
X234651428Y-51928571D01*
X234508571Y-51857142D01*
X234437142Y-51714285D01*
X234437142Y-51142857D01*
X234508571Y-51000000D01*
X234651428Y-50928571D01*
X234937142Y-50928571D01*
X235079999Y-51000000D01*
X235151428Y-51142857D01*
X235151428Y-51285714D01*
X234437142Y-51428571D01*
X235794285Y-51928571D02*
X235794285Y-50928571D01*
X235794285Y-51214285D02*
X235865714Y-51071428D01*
X235937142Y-51000000D01*
X236079999Y-50928571D01*
X236222857Y-50928571D01*
X236722857Y-51785714D02*
X236794285Y-51857142D01*
X236722857Y-51928571D01*
X236651428Y-51857142D01*
X236722857Y-51785714D01*
X236722857Y-51928571D01*
X236722857Y-51000000D02*
X236794285Y-51071428D01*
X236722857Y-51142857D01*
X236651428Y-51071428D01*
X236722857Y-51000000D01*
X236722857Y-51142857D01*
X180880000Y-50428571D02*
X181022857Y-50428571D01*
X181165714Y-50500000D01*
X181237143Y-50571428D01*
X181308571Y-50714285D01*
X181380000Y-51000000D01*
X181380000Y-51357142D01*
X181308571Y-51642857D01*
X181237143Y-51785714D01*
X181165714Y-51857142D01*
X181022857Y-51928571D01*
X180880000Y-51928571D01*
X180737143Y-51857142D01*
X180665714Y-51785714D01*
X180594285Y-51642857D01*
X180522857Y-51357142D01*
X180522857Y-51000000D01*
X180594285Y-50714285D01*
X180665714Y-50571428D01*
X180737143Y-50500000D01*
X180880000Y-50428571D01*
X182022857Y-51785714D02*
X182094285Y-51857142D01*
X182022857Y-51928571D01*
X181951428Y-51857142D01*
X182022857Y-51785714D01*
X182022857Y-51928571D01*
X182665714Y-50571428D02*
X182737143Y-50500000D01*
X182880000Y-50428571D01*
X183237143Y-50428571D01*
X183380000Y-50500000D01*
X183451428Y-50571428D01*
X183522857Y-50714285D01*
X183522857Y-50857142D01*
X183451428Y-51071428D01*
X182594285Y-51928571D01*
X183522857Y-51928571D01*
X184451428Y-50428571D02*
X184594285Y-50428571D01*
X184737143Y-50500000D01*
X184808571Y-50571428D01*
X184880000Y-50714285D01*
X184951428Y-51000000D01*
X184951428Y-51357142D01*
X184880000Y-51642857D01*
X184808571Y-51785714D01*
X184737143Y-51857142D01*
X184594285Y-51928571D01*
X184451428Y-51928571D01*
X184308571Y-51857142D01*
X184237143Y-51785714D01*
X184165714Y-51642857D01*
X184094285Y-51357142D01*
X184094285Y-51000000D01*
X184165714Y-50714285D01*
X184237143Y-50571428D01*
X184308571Y-50500000D01*
X184451428Y-50428571D01*
X185451428Y-50428571D02*
X186380000Y-50428571D01*
X185880000Y-51000000D01*
X186094285Y-51000000D01*
X186237143Y-51071428D01*
X186308571Y-51142857D01*
X186380000Y-51285714D01*
X186380000Y-51642857D01*
X186308571Y-51785714D01*
X186237143Y-51857142D01*
X186094285Y-51928571D01*
X185665714Y-51928571D01*
X185522857Y-51857142D01*
X185451428Y-51785714D01*
X186951428Y-50571428D02*
X187022857Y-50500000D01*
X187165714Y-50428571D01*
X187522857Y-50428571D01*
X187665714Y-50500000D01*
X187737143Y-50571428D01*
X187808571Y-50714285D01*
X187808571Y-50857142D01*
X187737143Y-51071428D01*
X186880000Y-51928571D01*
X187808571Y-51928571D01*
X189594285Y-51928571D02*
X189594285Y-50928571D01*
X189594285Y-51071428D02*
X189665714Y-51000000D01*
X189808571Y-50928571D01*
X190022857Y-50928571D01*
X190165714Y-51000000D01*
X190237143Y-51142857D01*
X190237143Y-51928571D01*
X190237143Y-51142857D02*
X190308571Y-51000000D01*
X190451428Y-50928571D01*
X190665714Y-50928571D01*
X190808571Y-51000000D01*
X190880000Y-51142857D01*
X190880000Y-51928571D01*
X191594285Y-51928571D02*
X191594285Y-50928571D01*
X191594285Y-51071428D02*
X191665714Y-51000000D01*
X191808571Y-50928571D01*
X192022857Y-50928571D01*
X192165714Y-51000000D01*
X192237143Y-51142857D01*
X192237143Y-51928571D01*
X192237143Y-51142857D02*
X192308571Y-51000000D01*
X192451428Y-50928571D01*
X192665714Y-50928571D01*
X192808571Y-51000000D01*
X192880000Y-51142857D01*
X192880000Y-51928571D01*
X195808571Y-50357142D02*
X194522857Y-52285714D01*
X197737143Y-50428571D02*
X197880000Y-50428571D01*
X198022857Y-50500000D01*
X198094285Y-50571428D01*
X198165714Y-50714285D01*
X198237143Y-51000000D01*
X198237143Y-51357142D01*
X198165714Y-51642857D01*
X198094285Y-51785714D01*
X198022857Y-51857142D01*
X197880000Y-51928571D01*
X197737143Y-51928571D01*
X197594285Y-51857142D01*
X197522857Y-51785714D01*
X197451428Y-51642857D01*
X197380000Y-51357142D01*
X197380000Y-51000000D01*
X197451428Y-50714285D01*
X197522857Y-50571428D01*
X197594285Y-50500000D01*
X197737143Y-50428571D01*
X198880000Y-51785714D02*
X198951428Y-51857142D01*
X198880000Y-51928571D01*
X198808571Y-51857142D01*
X198880000Y-51785714D01*
X198880000Y-51928571D01*
X199522857Y-50571428D02*
X199594285Y-50500000D01*
X199737143Y-50428571D01*
X200094285Y-50428571D01*
X200237143Y-50500000D01*
X200308571Y-50571428D01*
X200380000Y-50714285D01*
X200380000Y-50857142D01*
X200308571Y-51071428D01*
X199451428Y-51928571D01*
X200380000Y-51928571D01*
X201308571Y-50428571D02*
X201451428Y-50428571D01*
X201594285Y-50500000D01*
X201665714Y-50571428D01*
X201737143Y-50714285D01*
X201808571Y-51000000D01*
X201808571Y-51357142D01*
X201737143Y-51642857D01*
X201665714Y-51785714D01*
X201594285Y-51857142D01*
X201451428Y-51928571D01*
X201308571Y-51928571D01*
X201165714Y-51857142D01*
X201094285Y-51785714D01*
X201022857Y-51642857D01*
X200951428Y-51357142D01*
X200951428Y-51000000D01*
X201022857Y-50714285D01*
X201094285Y-50571428D01*
X201165714Y-50500000D01*
X201308571Y-50428571D01*
X202308571Y-50428571D02*
X203237143Y-50428571D01*
X202737143Y-51000000D01*
X202951428Y-51000000D01*
X203094285Y-51071428D01*
X203165714Y-51142857D01*
X203237143Y-51285714D01*
X203237143Y-51642857D01*
X203165714Y-51785714D01*
X203094285Y-51857142D01*
X202951428Y-51928571D01*
X202522857Y-51928571D01*
X202380000Y-51857142D01*
X202308571Y-51785714D01*
X203808571Y-50571428D02*
X203880000Y-50500000D01*
X204022857Y-50428571D01*
X204380000Y-50428571D01*
X204522857Y-50500000D01*
X204594285Y-50571428D01*
X204665714Y-50714285D01*
X204665714Y-50857142D01*
X204594285Y-51071428D01*
X203737143Y-51928571D01*
X204665714Y-51928571D01*
X206451428Y-51928571D02*
X206451428Y-50928571D01*
X206451428Y-51071428D02*
X206522857Y-51000000D01*
X206665714Y-50928571D01*
X206880000Y-50928571D01*
X207022857Y-51000000D01*
X207094285Y-51142857D01*
X207094285Y-51928571D01*
X207094285Y-51142857D02*
X207165714Y-51000000D01*
X207308571Y-50928571D01*
X207522857Y-50928571D01*
X207665714Y-51000000D01*
X207737143Y-51142857D01*
X207737143Y-51928571D01*
X208451428Y-51928571D02*
X208451428Y-50928571D01*
X208451428Y-51071428D02*
X208522857Y-51000000D01*
X208665714Y-50928571D01*
X208880000Y-50928571D01*
X209022857Y-51000000D01*
X209094285Y-51142857D01*
X209094285Y-51928571D01*
X209094285Y-51142857D02*
X209165714Y-51000000D01*
X209308571Y-50928571D01*
X209522857Y-50928571D01*
X209665714Y-51000000D01*
X209737143Y-51142857D01*
X209737143Y-51928571D01*
X241208571Y-50428571D02*
X241351428Y-50428571D01*
X241494285Y-50500000D01*
X241565714Y-50571428D01*
X241637142Y-50714285D01*
X241708571Y-51000000D01*
X241708571Y-51357142D01*
X241637142Y-51642857D01*
X241565714Y-51785714D01*
X241494285Y-51857142D01*
X241351428Y-51928571D01*
X241208571Y-51928571D01*
X241065714Y-51857142D01*
X240994285Y-51785714D01*
X240922856Y-51642857D01*
X240851428Y-51357142D01*
X240851428Y-51000000D01*
X240922856Y-50714285D01*
X240994285Y-50571428D01*
X241065714Y-50500000D01*
X241208571Y-50428571D01*
X242351428Y-51785714D02*
X242422856Y-51857142D01*
X242351428Y-51928571D01*
X242279999Y-51857142D01*
X242351428Y-51785714D01*
X242351428Y-51928571D01*
X242994285Y-50571428D02*
X243065714Y-50500000D01*
X243208571Y-50428571D01*
X243565714Y-50428571D01*
X243708571Y-50500000D01*
X243779999Y-50571428D01*
X243851428Y-50714285D01*
X243851428Y-50857142D01*
X243779999Y-51071428D01*
X242922856Y-51928571D01*
X243851428Y-51928571D01*
X244779999Y-50428571D02*
X244922856Y-50428571D01*
X245065714Y-50500000D01*
X245137142Y-50571428D01*
X245208571Y-50714285D01*
X245279999Y-51000000D01*
X245279999Y-51357142D01*
X245208571Y-51642857D01*
X245137142Y-51785714D01*
X245065714Y-51857142D01*
X244922856Y-51928571D01*
X244779999Y-51928571D01*
X244637142Y-51857142D01*
X244565714Y-51785714D01*
X244494285Y-51642857D01*
X244422856Y-51357142D01*
X244422856Y-51000000D01*
X244494285Y-50714285D01*
X244565714Y-50571428D01*
X244637142Y-50500000D01*
X244779999Y-50428571D01*
X246208571Y-50428571D02*
X246351428Y-50428571D01*
X246494285Y-50500000D01*
X246565714Y-50571428D01*
X246637142Y-50714285D01*
X246708571Y-51000000D01*
X246708571Y-51357142D01*
X246637142Y-51642857D01*
X246565714Y-51785714D01*
X246494285Y-51857142D01*
X246351428Y-51928571D01*
X246208571Y-51928571D01*
X246065714Y-51857142D01*
X245994285Y-51785714D01*
X245922856Y-51642857D01*
X245851428Y-51357142D01*
X245851428Y-51000000D01*
X245922856Y-50714285D01*
X245994285Y-50571428D01*
X246065714Y-50500000D01*
X246208571Y-50428571D01*
X247637142Y-50428571D02*
X247779999Y-50428571D01*
X247922856Y-50500000D01*
X247994285Y-50571428D01*
X248065714Y-50714285D01*
X248137142Y-51000000D01*
X248137142Y-51357142D01*
X248065714Y-51642857D01*
X247994285Y-51785714D01*
X247922856Y-51857142D01*
X247779999Y-51928571D01*
X247637142Y-51928571D01*
X247494285Y-51857142D01*
X247422856Y-51785714D01*
X247351428Y-51642857D01*
X247279999Y-51357142D01*
X247279999Y-51000000D01*
X247351428Y-50714285D01*
X247422856Y-50571428D01*
X247494285Y-50500000D01*
X247637142Y-50428571D01*
X249922856Y-51928571D02*
X249922856Y-50928571D01*
X249922856Y-51071428D02*
X249994285Y-51000000D01*
X250137142Y-50928571D01*
X250351428Y-50928571D01*
X250494285Y-51000000D01*
X250565714Y-51142857D01*
X250565714Y-51928571D01*
X250565714Y-51142857D02*
X250637142Y-51000000D01*
X250779999Y-50928571D01*
X250994285Y-50928571D01*
X251137142Y-51000000D01*
X251208571Y-51142857D01*
X251208571Y-51928571D01*
X251922856Y-51928571D02*
X251922856Y-50928571D01*
X251922856Y-51071428D02*
X251994285Y-51000000D01*
X252137142Y-50928571D01*
X252351428Y-50928571D01*
X252494285Y-51000000D01*
X252565714Y-51142857D01*
X252565714Y-51928571D01*
X252565714Y-51142857D02*
X252637142Y-51000000D01*
X252779999Y-50928571D01*
X252994285Y-50928571D01*
X253137142Y-51000000D01*
X253208571Y-51142857D01*
X253208571Y-51928571D01*
X180451428Y-46213571D02*
X181451428Y-46213571D01*
X180808571Y-47713571D01*
X182237143Y-46856428D02*
X182094285Y-46785000D01*
X182022857Y-46713571D01*
X181951428Y-46570714D01*
X181951428Y-46499285D01*
X182022857Y-46356428D01*
X182094285Y-46285000D01*
X182237143Y-46213571D01*
X182522857Y-46213571D01*
X182665714Y-46285000D01*
X182737143Y-46356428D01*
X182808571Y-46499285D01*
X182808571Y-46570714D01*
X182737143Y-46713571D01*
X182665714Y-46785000D01*
X182522857Y-46856428D01*
X182237143Y-46856428D01*
X182094285Y-46927857D01*
X182022857Y-46999285D01*
X181951428Y-47142142D01*
X181951428Y-47427857D01*
X182022857Y-47570714D01*
X182094285Y-47642142D01*
X182237143Y-47713571D01*
X182522857Y-47713571D01*
X182665714Y-47642142D01*
X182737143Y-47570714D01*
X182808571Y-47427857D01*
X182808571Y-47142142D01*
X182737143Y-46999285D01*
X182665714Y-46927857D01*
X182522857Y-46856428D01*
X183451428Y-47570714D02*
X183522857Y-47642142D01*
X183451428Y-47713571D01*
X183380000Y-47642142D01*
X183451428Y-47570714D01*
X183451428Y-47713571D01*
X184451428Y-46213571D02*
X184594285Y-46213571D01*
X184737143Y-46285000D01*
X184808571Y-46356428D01*
X184880000Y-46499285D01*
X184951428Y-46785000D01*
X184951428Y-47142142D01*
X184880000Y-47427857D01*
X184808571Y-47570714D01*
X184737143Y-47642142D01*
X184594285Y-47713571D01*
X184451428Y-47713571D01*
X184308571Y-47642142D01*
X184237143Y-47570714D01*
X184165714Y-47427857D01*
X184094285Y-47142142D01*
X184094285Y-46785000D01*
X184165714Y-46499285D01*
X184237143Y-46356428D01*
X184308571Y-46285000D01*
X184451428Y-46213571D01*
X185880000Y-46213571D02*
X186022857Y-46213571D01*
X186165714Y-46285000D01*
X186237143Y-46356428D01*
X186308571Y-46499285D01*
X186380000Y-46785000D01*
X186380000Y-47142142D01*
X186308571Y-47427857D01*
X186237143Y-47570714D01*
X186165714Y-47642142D01*
X186022857Y-47713571D01*
X185880000Y-47713571D01*
X185737143Y-47642142D01*
X185665714Y-47570714D01*
X185594285Y-47427857D01*
X185522857Y-47142142D01*
X185522857Y-46785000D01*
X185594285Y-46499285D01*
X185665714Y-46356428D01*
X185737143Y-46285000D01*
X185880000Y-46213571D01*
X187308571Y-46213571D02*
X187451428Y-46213571D01*
X187594285Y-46285000D01*
X187665714Y-46356428D01*
X187737143Y-46499285D01*
X187808571Y-46785000D01*
X187808571Y-47142142D01*
X187737143Y-47427857D01*
X187665714Y-47570714D01*
X187594285Y-47642142D01*
X187451428Y-47713571D01*
X187308571Y-47713571D01*
X187165714Y-47642142D01*
X187094285Y-47570714D01*
X187022857Y-47427857D01*
X186951428Y-47142142D01*
X186951428Y-46785000D01*
X187022857Y-46499285D01*
X187094285Y-46356428D01*
X187165714Y-46285000D01*
X187308571Y-46213571D01*
X188737143Y-46213571D02*
X188880000Y-46213571D01*
X189022857Y-46285000D01*
X189094285Y-46356428D01*
X189165714Y-46499285D01*
X189237143Y-46785000D01*
X189237143Y-47142142D01*
X189165714Y-47427857D01*
X189094285Y-47570714D01*
X189022857Y-47642142D01*
X188880000Y-47713571D01*
X188737143Y-47713571D01*
X188594285Y-47642142D01*
X188522857Y-47570714D01*
X188451428Y-47427857D01*
X188380000Y-47142142D01*
X188380000Y-46785000D01*
X188451428Y-46499285D01*
X188522857Y-46356428D01*
X188594285Y-46285000D01*
X188737143Y-46213571D01*
X191022857Y-47713571D02*
X191022857Y-46713571D01*
X191022857Y-46856428D02*
X191094285Y-46785000D01*
X191237143Y-46713571D01*
X191451428Y-46713571D01*
X191594285Y-46785000D01*
X191665714Y-46927857D01*
X191665714Y-47713571D01*
X191665714Y-46927857D02*
X191737143Y-46785000D01*
X191880000Y-46713571D01*
X192094285Y-46713571D01*
X192237143Y-46785000D01*
X192308571Y-46927857D01*
X192308571Y-47713571D01*
X193022857Y-47713571D02*
X193022857Y-46713571D01*
X193022857Y-46856428D02*
X193094285Y-46785000D01*
X193237143Y-46713571D01*
X193451428Y-46713571D01*
X193594285Y-46785000D01*
X193665714Y-46927857D01*
X193665714Y-47713571D01*
X193665714Y-46927857D02*
X193737143Y-46785000D01*
X193880000Y-46713571D01*
X194094285Y-46713571D01*
X194237143Y-46785000D01*
X194308571Y-46927857D01*
X194308571Y-47713571D01*
X196022857Y-47713571D02*
X196808571Y-46713571D01*
X196022857Y-46713571D02*
X196808571Y-47713571D01*
X199308571Y-47713571D02*
X198451428Y-47713571D01*
X198880000Y-47713571D02*
X198880000Y-46213571D01*
X198737143Y-46427857D01*
X198594285Y-46570714D01*
X198451428Y-46642142D01*
X199808571Y-46213571D02*
X200737143Y-46213571D01*
X200237143Y-46785000D01*
X200451428Y-46785000D01*
X200594285Y-46856428D01*
X200665714Y-46927857D01*
X200737143Y-47070714D01*
X200737143Y-47427857D01*
X200665714Y-47570714D01*
X200594285Y-47642142D01*
X200451428Y-47713571D01*
X200022857Y-47713571D01*
X199880000Y-47642142D01*
X199808571Y-47570714D01*
X201594285Y-46856428D02*
X201451428Y-46785000D01*
X201380000Y-46713571D01*
X201308571Y-46570714D01*
X201308571Y-46499285D01*
X201380000Y-46356428D01*
X201451428Y-46285000D01*
X201594285Y-46213571D01*
X201880000Y-46213571D01*
X202022857Y-46285000D01*
X202094285Y-46356428D01*
X202165714Y-46499285D01*
X202165714Y-46570714D01*
X202094285Y-46713571D01*
X202022857Y-46785000D01*
X201880000Y-46856428D01*
X201594285Y-46856428D01*
X201451428Y-46927857D01*
X201380000Y-46999285D01*
X201308571Y-47142142D01*
X201308571Y-47427857D01*
X201380000Y-47570714D01*
X201451428Y-47642142D01*
X201594285Y-47713571D01*
X201880000Y-47713571D01*
X202022857Y-47642142D01*
X202094285Y-47570714D01*
X202165714Y-47427857D01*
X202165714Y-47142142D01*
X202094285Y-46999285D01*
X202022857Y-46927857D01*
X201880000Y-46856428D01*
X202808571Y-47570714D02*
X202880000Y-47642142D01*
X202808571Y-47713571D01*
X202737143Y-47642142D01*
X202808571Y-47570714D01*
X202808571Y-47713571D01*
X203808571Y-46213571D02*
X203951428Y-46213571D01*
X204094285Y-46285000D01*
X204165714Y-46356428D01*
X204237143Y-46499285D01*
X204308571Y-46785000D01*
X204308571Y-47142142D01*
X204237143Y-47427857D01*
X204165714Y-47570714D01*
X204094285Y-47642142D01*
X203951428Y-47713571D01*
X203808571Y-47713571D01*
X203665714Y-47642142D01*
X203594285Y-47570714D01*
X203522857Y-47427857D01*
X203451428Y-47142142D01*
X203451428Y-46785000D01*
X203522857Y-46499285D01*
X203594285Y-46356428D01*
X203665714Y-46285000D01*
X203808571Y-46213571D01*
X205237143Y-46213571D02*
X205380000Y-46213571D01*
X205522857Y-46285000D01*
X205594285Y-46356428D01*
X205665714Y-46499285D01*
X205737143Y-46785000D01*
X205737143Y-47142142D01*
X205665714Y-47427857D01*
X205594285Y-47570714D01*
X205522857Y-47642142D01*
X205380000Y-47713571D01*
X205237143Y-47713571D01*
X205094285Y-47642142D01*
X205022857Y-47570714D01*
X204951428Y-47427857D01*
X204880000Y-47142142D01*
X204880000Y-46785000D01*
X204951428Y-46499285D01*
X205022857Y-46356428D01*
X205094285Y-46285000D01*
X205237143Y-46213571D01*
X206665714Y-46213571D02*
X206808571Y-46213571D01*
X206951428Y-46285000D01*
X207022857Y-46356428D01*
X207094285Y-46499285D01*
X207165714Y-46785000D01*
X207165714Y-47142142D01*
X207094285Y-47427857D01*
X207022857Y-47570714D01*
X206951428Y-47642142D01*
X206808571Y-47713571D01*
X206665714Y-47713571D01*
X206522857Y-47642142D01*
X206451428Y-47570714D01*
X206380000Y-47427857D01*
X206308571Y-47142142D01*
X206308571Y-46785000D01*
X206380000Y-46499285D01*
X206451428Y-46356428D01*
X206522857Y-46285000D01*
X206665714Y-46213571D01*
X208094285Y-46213571D02*
X208237143Y-46213571D01*
X208380000Y-46285000D01*
X208451428Y-46356428D01*
X208522857Y-46499285D01*
X208594285Y-46785000D01*
X208594285Y-47142142D01*
X208522857Y-47427857D01*
X208451428Y-47570714D01*
X208380000Y-47642142D01*
X208237143Y-47713571D01*
X208094285Y-47713571D01*
X207951428Y-47642142D01*
X207880000Y-47570714D01*
X207808571Y-47427857D01*
X207737143Y-47142142D01*
X207737143Y-46785000D01*
X207808571Y-46499285D01*
X207880000Y-46356428D01*
X207951428Y-46285000D01*
X208094285Y-46213571D01*
X210380000Y-47713571D02*
X210380000Y-46713571D01*
X210380000Y-46856428D02*
X210451428Y-46785000D01*
X210594285Y-46713571D01*
X210808571Y-46713571D01*
X210951428Y-46785000D01*
X211022857Y-46927857D01*
X211022857Y-47713571D01*
X211022857Y-46927857D02*
X211094285Y-46785000D01*
X211237143Y-46713571D01*
X211451428Y-46713571D01*
X211594285Y-46785000D01*
X211665714Y-46927857D01*
X211665714Y-47713571D01*
X212380000Y-47713571D02*
X212380000Y-46713571D01*
X212380000Y-46856428D02*
X212451428Y-46785000D01*
X212594285Y-46713571D01*
X212808571Y-46713571D01*
X212951428Y-46785000D01*
X213022857Y-46927857D01*
X213022857Y-47713571D01*
X213022857Y-46927857D02*
X213094285Y-46785000D01*
X213237143Y-46713571D01*
X213451428Y-46713571D01*
X213594285Y-46785000D01*
X213665714Y-46927857D01*
X213665714Y-47713571D01*
X240922856Y-56143571D02*
X240922856Y-54643571D01*
X241779999Y-56143571D01*
X241779999Y-54643571D01*
X242708571Y-56143571D02*
X242565714Y-56072142D01*
X242494285Y-56000714D01*
X242422856Y-55857857D01*
X242422856Y-55429285D01*
X242494285Y-55286428D01*
X242565714Y-55215000D01*
X242708571Y-55143571D01*
X242922856Y-55143571D01*
X243065714Y-55215000D01*
X243137142Y-55286428D01*
X243208571Y-55429285D01*
X243208571Y-55857857D01*
X243137142Y-56000714D01*
X243065714Y-56072142D01*
X242922856Y-56143571D01*
X242708571Y-56143571D01*
D12*
X147071190Y-147374761D02*
X147071190Y-145374761D01*
X147547380Y-145374761D01*
X147833095Y-145470000D01*
X148023571Y-145660476D01*
X148118809Y-145850952D01*
X148214047Y-146231904D01*
X148214047Y-146517619D01*
X148118809Y-146898571D01*
X148023571Y-147089047D01*
X147833095Y-147279523D01*
X147547380Y-147374761D01*
X147071190Y-147374761D01*
X150118809Y-147374761D02*
X148975952Y-147374761D01*
X149547380Y-147374761D02*
X149547380Y-145374761D01*
X149356904Y-145660476D01*
X149166428Y-145850952D01*
X148975952Y-145946190D01*
X151356904Y-145374761D02*
X151547380Y-145374761D01*
X151737857Y-145470000D01*
X151833095Y-145565238D01*
X151928333Y-145755714D01*
X152023571Y-146136666D01*
X152023571Y-146612857D01*
X151928333Y-146993809D01*
X151833095Y-147184285D01*
X151737857Y-147279523D01*
X151547380Y-147374761D01*
X151356904Y-147374761D01*
X151166428Y-147279523D01*
X151071190Y-147184285D01*
X150975952Y-146993809D01*
X150880714Y-146612857D01*
X150880714Y-146136666D01*
X150975952Y-145755714D01*
X151071190Y-145565238D01*
X151166428Y-145470000D01*
X151356904Y-145374761D01*
X153928333Y-147374761D02*
X152785476Y-147374761D01*
X153356904Y-147374761D02*
X153356904Y-145374761D01*
X153166428Y-145660476D01*
X152975952Y-145850952D01*
X152785476Y-145946190D01*
X154785476Y-146612857D02*
X156309285Y-146612857D01*
X157261666Y-147374761D02*
X157261666Y-145374761D01*
X157737857Y-145374761D01*
X158023571Y-145470000D01*
X158214047Y-145660476D01*
X158309285Y-145850952D01*
X158404523Y-146231904D01*
X158404523Y-146517619D01*
X158309285Y-146898571D01*
X158214047Y-147089047D01*
X158023571Y-147279523D01*
X157737857Y-147374761D01*
X157261666Y-147374761D01*
X160309285Y-147374761D02*
X159166428Y-147374761D01*
X159737857Y-147374761D02*
X159737857Y-145374761D01*
X159547380Y-145660476D01*
X159356904Y-145850952D01*
X159166428Y-145946190D01*
X161547380Y-145374761D02*
X161737857Y-145374761D01*
X161928333Y-145470000D01*
X162023571Y-145565238D01*
X162118809Y-145755714D01*
X162214047Y-146136666D01*
X162214047Y-146612857D01*
X162118809Y-146993809D01*
X162023571Y-147184285D01*
X161928333Y-147279523D01*
X161737857Y-147374761D01*
X161547380Y-147374761D01*
X161356904Y-147279523D01*
X161261666Y-147184285D01*
X161166428Y-146993809D01*
X161071190Y-146612857D01*
X161071190Y-146136666D01*
X161166428Y-145755714D01*
X161261666Y-145565238D01*
X161356904Y-145470000D01*
X161547380Y-145374761D01*
X163356904Y-146231904D02*
X163166428Y-146136666D01*
X163071190Y-146041428D01*
X162975952Y-145850952D01*
X162975952Y-145755714D01*
X163071190Y-145565238D01*
X163166428Y-145470000D01*
X163356904Y-145374761D01*
X163737857Y-145374761D01*
X163928333Y-145470000D01*
X164023571Y-145565238D01*
X164118809Y-145755714D01*
X164118809Y-145850952D01*
X164023571Y-146041428D01*
X163928333Y-146136666D01*
X163737857Y-146231904D01*
X163356904Y-146231904D01*
X163166428Y-146327142D01*
X163071190Y-146422380D01*
X162975952Y-146612857D01*
X162975952Y-146993809D01*
X163071190Y-147184285D01*
X163166428Y-147279523D01*
X163356904Y-147374761D01*
X163737857Y-147374761D01*
X163928333Y-147279523D01*
X164023571Y-147184285D01*
X164118809Y-146993809D01*
X164118809Y-146612857D01*
X164023571Y-146422380D01*
X163928333Y-146327142D01*
X163737857Y-146231904D01*
X167356904Y-147374761D02*
X167356904Y-146327142D01*
X167261666Y-146136666D01*
X167071190Y-146041428D01*
X166690238Y-146041428D01*
X166499761Y-146136666D01*
X167356904Y-147279523D02*
X167166428Y-147374761D01*
X166690238Y-147374761D01*
X166499761Y-147279523D01*
X166404523Y-147089047D01*
X166404523Y-146898571D01*
X166499761Y-146708095D01*
X166690238Y-146612857D01*
X167166428Y-146612857D01*
X167356904Y-146517619D01*
X168309285Y-147374761D02*
X168309285Y-146041428D01*
X168309285Y-146422380D02*
X168404523Y-146231904D01*
X168499761Y-146136666D01*
X168690238Y-146041428D01*
X168880714Y-146041428D01*
X170309285Y-147279523D02*
X170118809Y-147374761D01*
X169737857Y-147374761D01*
X169547380Y-147279523D01*
X169452142Y-147089047D01*
X169452142Y-146327142D01*
X169547380Y-146136666D01*
X169737857Y-146041428D01*
X170118809Y-146041428D01*
X170309285Y-146136666D01*
X170404523Y-146327142D01*
X170404523Y-146517619D01*
X169452142Y-146708095D01*
X172785476Y-147374761D02*
X172785476Y-146041428D01*
X172785476Y-146231904D02*
X172880714Y-146136666D01*
X173071190Y-146041428D01*
X173356904Y-146041428D01*
X173547380Y-146136666D01*
X173642619Y-146327142D01*
X173642619Y-147374761D01*
X173642619Y-146327142D02*
X173737857Y-146136666D01*
X173928333Y-146041428D01*
X174214047Y-146041428D01*
X174404523Y-146136666D01*
X174499761Y-146327142D01*
X174499761Y-147374761D01*
X175737857Y-147374761D02*
X175547380Y-147279523D01*
X175452142Y-147184285D01*
X175356904Y-146993809D01*
X175356904Y-146422380D01*
X175452142Y-146231904D01*
X175547380Y-146136666D01*
X175737857Y-146041428D01*
X176023571Y-146041428D01*
X176214047Y-146136666D01*
X176309285Y-146231904D01*
X176404523Y-146422380D01*
X176404523Y-146993809D01*
X176309285Y-147184285D01*
X176214047Y-147279523D01*
X176023571Y-147374761D01*
X175737857Y-147374761D01*
X178118809Y-146041428D02*
X178118809Y-147374761D01*
X177261666Y-146041428D02*
X177261666Y-147089047D01*
X177356904Y-147279523D01*
X177547380Y-147374761D01*
X177833095Y-147374761D01*
X178023571Y-147279523D01*
X178118809Y-147184285D01*
X179071190Y-146041428D02*
X179071190Y-147374761D01*
X179071190Y-146231904D02*
X179166428Y-146136666D01*
X179356904Y-146041428D01*
X179642619Y-146041428D01*
X179833095Y-146136666D01*
X179928333Y-146327142D01*
X179928333Y-147374761D01*
X180595000Y-146041428D02*
X181356904Y-146041428D01*
X180880714Y-145374761D02*
X180880714Y-147089047D01*
X180975952Y-147279523D01*
X181166428Y-147374761D01*
X181356904Y-147374761D01*
X182785476Y-147279523D02*
X182595000Y-147374761D01*
X182214047Y-147374761D01*
X182023571Y-147279523D01*
X181928333Y-147089047D01*
X181928333Y-146327142D01*
X182023571Y-146136666D01*
X182214047Y-146041428D01*
X182595000Y-146041428D01*
X182785476Y-146136666D01*
X182880714Y-146327142D01*
X182880714Y-146517619D01*
X181928333Y-146708095D01*
X184595000Y-147374761D02*
X184595000Y-145374761D01*
X184595000Y-147279523D02*
X184404523Y-147374761D01*
X184023571Y-147374761D01*
X183833095Y-147279523D01*
X183737857Y-147184285D01*
X183642619Y-146993809D01*
X183642619Y-146422380D01*
X183737857Y-146231904D01*
X183833095Y-146136666D01*
X184023571Y-146041428D01*
X184404523Y-146041428D01*
X184595000Y-146136666D01*
X187928333Y-146041428D02*
X187928333Y-147374761D01*
X187071190Y-146041428D02*
X187071190Y-147089047D01*
X187166428Y-147279523D01*
X187356904Y-147374761D01*
X187642619Y-147374761D01*
X187833095Y-147279523D01*
X187928333Y-147184285D01*
X188880714Y-146041428D02*
X188880714Y-148041428D01*
X188880714Y-146136666D02*
X189071190Y-146041428D01*
X189452142Y-146041428D01*
X189642619Y-146136666D01*
X189737857Y-146231904D01*
X189833095Y-146422380D01*
X189833095Y-146993809D01*
X189737857Y-147184285D01*
X189642619Y-147279523D01*
X189452142Y-147374761D01*
X189071190Y-147374761D01*
X188880714Y-147279523D01*
X190595000Y-147279523D02*
X190785476Y-147374761D01*
X191166428Y-147374761D01*
X191356904Y-147279523D01*
X191452142Y-147089047D01*
X191452142Y-146993809D01*
X191356904Y-146803333D01*
X191166428Y-146708095D01*
X190880714Y-146708095D01*
X190690238Y-146612857D01*
X190595000Y-146422380D01*
X190595000Y-146327142D01*
X190690238Y-146136666D01*
X190880714Y-146041428D01*
X191166428Y-146041428D01*
X191356904Y-146136666D01*
X192309285Y-147374761D02*
X192309285Y-146041428D01*
X192309285Y-145374761D02*
X192214047Y-145470000D01*
X192309285Y-145565238D01*
X192404523Y-145470000D01*
X192309285Y-145374761D01*
X192309285Y-145565238D01*
X194118809Y-147374761D02*
X194118809Y-145374761D01*
X194118809Y-147279523D02*
X193928333Y-147374761D01*
X193547380Y-147374761D01*
X193356904Y-147279523D01*
X193261666Y-147184285D01*
X193166428Y-146993809D01*
X193166428Y-146422380D01*
X193261666Y-146231904D01*
X193356904Y-146136666D01*
X193547380Y-146041428D01*
X193928333Y-146041428D01*
X194118809Y-146136666D01*
X195833095Y-147279523D02*
X195642619Y-147374761D01*
X195261666Y-147374761D01*
X195071190Y-147279523D01*
X194975952Y-147089047D01*
X194975952Y-146327142D01*
X195071190Y-146136666D01*
X195261666Y-146041428D01*
X195642619Y-146041428D01*
X195833095Y-146136666D01*
X195928333Y-146327142D01*
X195928333Y-146517619D01*
X194975952Y-146708095D01*
X196785476Y-146612857D02*
X198309285Y-146612857D01*
X200118809Y-147374761D02*
X200118809Y-145374761D01*
X200118809Y-147279523D02*
X199928333Y-147374761D01*
X199547380Y-147374761D01*
X199356904Y-147279523D01*
X199261666Y-147184285D01*
X199166428Y-146993809D01*
X199166428Y-146422380D01*
X199261666Y-146231904D01*
X199356904Y-146136666D01*
X199547380Y-146041428D01*
X199928333Y-146041428D01*
X200118809Y-146136666D01*
X201356904Y-147374761D02*
X201166428Y-147279523D01*
X201071190Y-147184285D01*
X200975952Y-146993809D01*
X200975952Y-146422380D01*
X201071190Y-146231904D01*
X201166428Y-146136666D01*
X201356904Y-146041428D01*
X201642619Y-146041428D01*
X201833095Y-146136666D01*
X201928333Y-146231904D01*
X202023571Y-146422380D01*
X202023571Y-146993809D01*
X201928333Y-147184285D01*
X201833095Y-147279523D01*
X201642619Y-147374761D01*
X201356904Y-147374761D01*
X202690238Y-146041428D02*
X203071190Y-147374761D01*
X203452142Y-146422380D01*
X203833095Y-147374761D01*
X204214047Y-146041428D01*
X204975952Y-146041428D02*
X204975952Y-147374761D01*
X204975952Y-146231904D02*
X205071190Y-146136666D01*
X205261666Y-146041428D01*
X205547380Y-146041428D01*
X205737857Y-146136666D01*
X205833095Y-146327142D01*
X205833095Y-147374761D01*
X206785476Y-147184285D02*
X206880714Y-147279523D01*
X206785476Y-147374761D01*
X206690238Y-147279523D01*
X206785476Y-147184285D01*
X206785476Y-147374761D01*
X146975952Y-150023333D02*
X147928333Y-150023333D01*
X146785476Y-150594761D02*
X147452142Y-148594761D01*
X148118809Y-150594761D01*
X148690238Y-150499523D02*
X148880714Y-150594761D01*
X149261666Y-150594761D01*
X149452142Y-150499523D01*
X149547380Y-150309047D01*
X149547380Y-150213809D01*
X149452142Y-150023333D01*
X149261666Y-149928095D01*
X148975952Y-149928095D01*
X148785476Y-149832857D01*
X148690238Y-149642380D01*
X148690238Y-149547142D01*
X148785476Y-149356666D01*
X148975952Y-149261428D01*
X149261666Y-149261428D01*
X149452142Y-149356666D01*
X150309285Y-150499523D02*
X150499761Y-150594761D01*
X150880714Y-150594761D01*
X151071190Y-150499523D01*
X151166428Y-150309047D01*
X151166428Y-150213809D01*
X151071190Y-150023333D01*
X150880714Y-149928095D01*
X150595000Y-149928095D01*
X150404523Y-149832857D01*
X150309285Y-149642380D01*
X150309285Y-149547142D01*
X150404523Y-149356666D01*
X150595000Y-149261428D01*
X150880714Y-149261428D01*
X151071190Y-149356666D01*
X152785476Y-150499523D02*
X152595000Y-150594761D01*
X152214047Y-150594761D01*
X152023571Y-150499523D01*
X151928333Y-150309047D01*
X151928333Y-149547142D01*
X152023571Y-149356666D01*
X152214047Y-149261428D01*
X152595000Y-149261428D01*
X152785476Y-149356666D01*
X152880714Y-149547142D01*
X152880714Y-149737619D01*
X151928333Y-149928095D01*
X153737857Y-150594761D02*
X153737857Y-149261428D01*
X153737857Y-149451904D02*
X153833095Y-149356666D01*
X154023571Y-149261428D01*
X154309285Y-149261428D01*
X154499761Y-149356666D01*
X154595000Y-149547142D01*
X154595000Y-150594761D01*
X154595000Y-149547142D02*
X154690238Y-149356666D01*
X154880714Y-149261428D01*
X155166428Y-149261428D01*
X155356904Y-149356666D01*
X155452142Y-149547142D01*
X155452142Y-150594761D01*
X156404523Y-150594761D02*
X156404523Y-148594761D01*
X156404523Y-149356666D02*
X156595000Y-149261428D01*
X156975952Y-149261428D01*
X157166428Y-149356666D01*
X157261666Y-149451904D01*
X157356904Y-149642380D01*
X157356904Y-150213809D01*
X157261666Y-150404285D01*
X157166428Y-150499523D01*
X156975952Y-150594761D01*
X156595000Y-150594761D01*
X156404523Y-150499523D01*
X158499761Y-150594761D02*
X158309285Y-150499523D01*
X158214047Y-150309047D01*
X158214047Y-148594761D01*
X160023571Y-150499523D02*
X159833095Y-150594761D01*
X159452142Y-150594761D01*
X159261666Y-150499523D01*
X159166428Y-150309047D01*
X159166428Y-149547142D01*
X159261666Y-149356666D01*
X159452142Y-149261428D01*
X159833095Y-149261428D01*
X160023571Y-149356666D01*
X160118809Y-149547142D01*
X160118809Y-149737619D01*
X159166428Y-149928095D01*
X162309285Y-149261428D02*
X162690238Y-150594761D01*
X163071190Y-149642380D01*
X163452142Y-150594761D01*
X163833095Y-149261428D01*
X164595000Y-150594761D02*
X164595000Y-149261428D01*
X164595000Y-148594761D02*
X164499761Y-148690000D01*
X164595000Y-148785238D01*
X164690238Y-148690000D01*
X164595000Y-148594761D01*
X164595000Y-148785238D01*
X165261666Y-149261428D02*
X166023571Y-149261428D01*
X165547380Y-148594761D02*
X165547380Y-150309047D01*
X165642619Y-150499523D01*
X165833095Y-150594761D01*
X166023571Y-150594761D01*
X166690238Y-150594761D02*
X166690238Y-148594761D01*
X167547380Y-150594761D02*
X167547380Y-149547142D01*
X167452142Y-149356666D01*
X167261666Y-149261428D01*
X166975952Y-149261428D01*
X166785476Y-149356666D01*
X166690238Y-149451904D01*
X170309285Y-150594761D02*
X170118809Y-150499523D01*
X170023571Y-150309047D01*
X170023571Y-148594761D01*
X171833095Y-150499523D02*
X171642619Y-150594761D01*
X171261666Y-150594761D01*
X171071190Y-150499523D01*
X170975952Y-150309047D01*
X170975952Y-149547142D01*
X171071190Y-149356666D01*
X171261666Y-149261428D01*
X171642619Y-149261428D01*
X171833095Y-149356666D01*
X171928333Y-149547142D01*
X171928333Y-149737619D01*
X170975952Y-149928095D01*
X173642619Y-150594761D02*
X173642619Y-149547142D01*
X173547380Y-149356666D01*
X173356904Y-149261428D01*
X172975952Y-149261428D01*
X172785476Y-149356666D01*
X173642619Y-150499523D02*
X173452142Y-150594761D01*
X172975952Y-150594761D01*
X172785476Y-150499523D01*
X172690238Y-150309047D01*
X172690238Y-150118571D01*
X172785476Y-149928095D01*
X172975952Y-149832857D01*
X173452142Y-149832857D01*
X173642619Y-149737619D01*
X175452142Y-150594761D02*
X175452142Y-148594761D01*
X175452142Y-150499523D02*
X175261666Y-150594761D01*
X174880714Y-150594761D01*
X174690238Y-150499523D01*
X174595000Y-150404285D01*
X174499761Y-150213809D01*
X174499761Y-149642380D01*
X174595000Y-149451904D01*
X174690238Y-149356666D01*
X174880714Y-149261428D01*
X175261666Y-149261428D01*
X175452142Y-149356666D01*
X177166428Y-150499523D02*
X176975952Y-150594761D01*
X176595000Y-150594761D01*
X176404523Y-150499523D01*
X176309285Y-150309047D01*
X176309285Y-149547142D01*
X176404523Y-149356666D01*
X176595000Y-149261428D01*
X176975952Y-149261428D01*
X177166428Y-149356666D01*
X177261666Y-149547142D01*
X177261666Y-149737619D01*
X176309285Y-149928095D01*
X178975952Y-150594761D02*
X178975952Y-148594761D01*
X178975952Y-150499523D02*
X178785476Y-150594761D01*
X178404523Y-150594761D01*
X178214047Y-150499523D01*
X178118809Y-150404285D01*
X178023571Y-150213809D01*
X178023571Y-149642380D01*
X178118809Y-149451904D01*
X178214047Y-149356666D01*
X178404523Y-149261428D01*
X178785476Y-149261428D01*
X178975952Y-149356666D01*
X181356904Y-150499523D02*
X181547380Y-150594761D01*
X181928333Y-150594761D01*
X182118809Y-150499523D01*
X182214047Y-150309047D01*
X182214047Y-150213809D01*
X182118809Y-150023333D01*
X181928333Y-149928095D01*
X181642619Y-149928095D01*
X181452142Y-149832857D01*
X181356904Y-149642380D01*
X181356904Y-149547142D01*
X181452142Y-149356666D01*
X181642619Y-149261428D01*
X181928333Y-149261428D01*
X182118809Y-149356666D01*
X183356904Y-150594761D02*
X183166428Y-150499523D01*
X183071190Y-150404285D01*
X182975952Y-150213809D01*
X182975952Y-149642380D01*
X183071190Y-149451904D01*
X183166428Y-149356666D01*
X183356904Y-149261428D01*
X183642619Y-149261428D01*
X183833095Y-149356666D01*
X183928333Y-149451904D01*
X184023571Y-149642380D01*
X184023571Y-150213809D01*
X183928333Y-150404285D01*
X183833095Y-150499523D01*
X183642619Y-150594761D01*
X183356904Y-150594761D01*
X185166428Y-150594761D02*
X184975952Y-150499523D01*
X184880714Y-150309047D01*
X184880714Y-148594761D01*
X186785476Y-150594761D02*
X186785476Y-148594761D01*
X186785476Y-150499523D02*
X186595000Y-150594761D01*
X186214047Y-150594761D01*
X186023571Y-150499523D01*
X185928333Y-150404285D01*
X185833095Y-150213809D01*
X185833095Y-149642380D01*
X185928333Y-149451904D01*
X186023571Y-149356666D01*
X186214047Y-149261428D01*
X186595000Y-149261428D01*
X186785476Y-149356666D01*
X188499761Y-150499523D02*
X188309285Y-150594761D01*
X187928333Y-150594761D01*
X187737857Y-150499523D01*
X187642619Y-150309047D01*
X187642619Y-149547142D01*
X187737857Y-149356666D01*
X187928333Y-149261428D01*
X188309285Y-149261428D01*
X188499761Y-149356666D01*
X188595000Y-149547142D01*
X188595000Y-149737619D01*
X187642619Y-149928095D01*
X189452142Y-150594761D02*
X189452142Y-149261428D01*
X189452142Y-149642380D02*
X189547380Y-149451904D01*
X189642619Y-149356666D01*
X189833095Y-149261428D01*
X190023571Y-149261428D01*
X190690238Y-150404285D02*
X190785476Y-150499523D01*
X190690238Y-150594761D01*
X190595000Y-150499523D01*
X190690238Y-150404285D01*
X190690238Y-150594761D01*
X146880714Y-151814761D02*
X147356904Y-153814761D01*
X147737857Y-152386190D01*
X148118809Y-153814761D01*
X148595000Y-151814761D01*
X149356904Y-153814761D02*
X149356904Y-151814761D01*
X150214047Y-153814761D02*
X150214047Y-152767142D01*
X150118809Y-152576666D01*
X149928333Y-152481428D01*
X149642619Y-152481428D01*
X149452142Y-152576666D01*
X149356904Y-152671904D01*
X151166428Y-153814761D02*
X151166428Y-152481428D01*
X151166428Y-151814761D02*
X151071190Y-151910000D01*
X151166428Y-152005238D01*
X151261666Y-151910000D01*
X151166428Y-151814761D01*
X151166428Y-152005238D01*
X151833095Y-152481428D02*
X152595000Y-152481428D01*
X152118809Y-151814761D02*
X152118809Y-153529047D01*
X152214047Y-153719523D01*
X152404523Y-153814761D01*
X152595000Y-153814761D01*
X154023571Y-153719523D02*
X153833095Y-153814761D01*
X153452142Y-153814761D01*
X153261666Y-153719523D01*
X153166428Y-153529047D01*
X153166428Y-152767142D01*
X153261666Y-152576666D01*
X153452142Y-152481428D01*
X153833095Y-152481428D01*
X154023571Y-152576666D01*
X154118809Y-152767142D01*
X154118809Y-152957619D01*
X153166428Y-153148095D01*
X156404523Y-153719523D02*
X156595000Y-153814761D01*
X156975952Y-153814761D01*
X157166428Y-153719523D01*
X157261666Y-153529047D01*
X157261666Y-153433809D01*
X157166428Y-153243333D01*
X156975952Y-153148095D01*
X156690238Y-153148095D01*
X156499761Y-153052857D01*
X156404523Y-152862380D01*
X156404523Y-152767142D01*
X156499761Y-152576666D01*
X156690238Y-152481428D01*
X156975952Y-152481428D01*
X157166428Y-152576666D01*
X158404523Y-153814761D02*
X158214047Y-153719523D01*
X158118809Y-153624285D01*
X158023571Y-153433809D01*
X158023571Y-152862380D01*
X158118809Y-152671904D01*
X158214047Y-152576666D01*
X158404523Y-152481428D01*
X158690238Y-152481428D01*
X158880714Y-152576666D01*
X158975952Y-152671904D01*
X159071190Y-152862380D01*
X159071190Y-153433809D01*
X158975952Y-153624285D01*
X158880714Y-153719523D01*
X158690238Y-153814761D01*
X158404523Y-153814761D01*
X160214047Y-153814761D02*
X160023571Y-153719523D01*
X159928333Y-153529047D01*
X159928333Y-151814761D01*
X161833095Y-153814761D02*
X161833095Y-151814761D01*
X161833095Y-153719523D02*
X161642619Y-153814761D01*
X161261666Y-153814761D01*
X161071190Y-153719523D01*
X160975952Y-153624285D01*
X160880714Y-153433809D01*
X160880714Y-152862380D01*
X160975952Y-152671904D01*
X161071190Y-152576666D01*
X161261666Y-152481428D01*
X161642619Y-152481428D01*
X161833095Y-152576666D01*
X163547380Y-153719523D02*
X163356904Y-153814761D01*
X162975952Y-153814761D01*
X162785476Y-153719523D01*
X162690238Y-153529047D01*
X162690238Y-152767142D01*
X162785476Y-152576666D01*
X162975952Y-152481428D01*
X163356904Y-152481428D01*
X163547380Y-152576666D01*
X163642619Y-152767142D01*
X163642619Y-152957619D01*
X162690238Y-153148095D01*
X164499761Y-153814761D02*
X164499761Y-152481428D01*
X164499761Y-152862380D02*
X164595000Y-152671904D01*
X164690238Y-152576666D01*
X164880714Y-152481428D01*
X165071190Y-152481428D01*
X165737857Y-153814761D02*
X165737857Y-152481428D01*
X165737857Y-152671904D02*
X165833095Y-152576666D01*
X166023571Y-152481428D01*
X166309285Y-152481428D01*
X166499761Y-152576666D01*
X166595000Y-152767142D01*
X166595000Y-153814761D01*
X166595000Y-152767142D02*
X166690238Y-152576666D01*
X166880714Y-152481428D01*
X167166428Y-152481428D01*
X167356904Y-152576666D01*
X167452142Y-152767142D01*
X167452142Y-153814761D01*
X169261666Y-153814761D02*
X169261666Y-152767142D01*
X169166428Y-152576666D01*
X168975952Y-152481428D01*
X168595000Y-152481428D01*
X168404523Y-152576666D01*
X169261666Y-153719523D02*
X169071190Y-153814761D01*
X168595000Y-153814761D01*
X168404523Y-153719523D01*
X168309285Y-153529047D01*
X168309285Y-153338571D01*
X168404523Y-153148095D01*
X168595000Y-153052857D01*
X169071190Y-153052857D01*
X169261666Y-152957619D01*
X170118809Y-153719523D02*
X170309285Y-153814761D01*
X170690238Y-153814761D01*
X170880714Y-153719523D01*
X170975952Y-153529047D01*
X170975952Y-153433809D01*
X170880714Y-153243333D01*
X170690238Y-153148095D01*
X170404523Y-153148095D01*
X170214047Y-153052857D01*
X170118809Y-152862380D01*
X170118809Y-152767142D01*
X170214047Y-152576666D01*
X170404523Y-152481428D01*
X170690238Y-152481428D01*
X170880714Y-152576666D01*
X171833095Y-153814761D02*
X171833095Y-151814761D01*
X172023571Y-153052857D02*
X172595000Y-153814761D01*
X172595000Y-152481428D02*
X171833095Y-153243333D01*
X173547380Y-153719523D02*
X173547380Y-153814761D01*
X173452142Y-154005238D01*
X173356904Y-154100476D01*
X175928333Y-153814761D02*
X175928333Y-151814761D01*
X175928333Y-152576666D02*
X176118809Y-152481428D01*
X176499761Y-152481428D01*
X176690238Y-152576666D01*
X176785476Y-152671904D01*
X176880714Y-152862380D01*
X176880714Y-153433809D01*
X176785476Y-153624285D01*
X176690238Y-153719523D01*
X176499761Y-153814761D01*
X176118809Y-153814761D01*
X175928333Y-153719523D01*
X178023571Y-153814761D02*
X177833095Y-153719523D01*
X177737857Y-153529047D01*
X177737857Y-151814761D01*
X179642619Y-153814761D02*
X179642619Y-152767142D01*
X179547380Y-152576666D01*
X179356904Y-152481428D01*
X178975952Y-152481428D01*
X178785476Y-152576666D01*
X179642619Y-153719523D02*
X179452142Y-153814761D01*
X178975952Y-153814761D01*
X178785476Y-153719523D01*
X178690238Y-153529047D01*
X178690238Y-153338571D01*
X178785476Y-153148095D01*
X178975952Y-153052857D01*
X179452142Y-153052857D01*
X179642619Y-152957619D01*
X181452142Y-153719523D02*
X181261666Y-153814761D01*
X180880714Y-153814761D01*
X180690238Y-153719523D01*
X180595000Y-153624285D01*
X180499761Y-153433809D01*
X180499761Y-152862380D01*
X180595000Y-152671904D01*
X180690238Y-152576666D01*
X180880714Y-152481428D01*
X181261666Y-152481428D01*
X181452142Y-152576666D01*
X182309285Y-153814761D02*
X182309285Y-151814761D01*
X182499761Y-153052857D02*
X183071190Y-153814761D01*
X183071190Y-152481428D02*
X182309285Y-153243333D01*
X185356904Y-153719523D02*
X185547380Y-153814761D01*
X185928333Y-153814761D01*
X186118809Y-153719523D01*
X186214047Y-153529047D01*
X186214047Y-153433809D01*
X186118809Y-153243333D01*
X185928333Y-153148095D01*
X185642619Y-153148095D01*
X185452142Y-153052857D01*
X185356904Y-152862380D01*
X185356904Y-152767142D01*
X185452142Y-152576666D01*
X185642619Y-152481428D01*
X185928333Y-152481428D01*
X186118809Y-152576666D01*
X187071190Y-153814761D02*
X187071190Y-152481428D01*
X187071190Y-151814761D02*
X186975952Y-151910000D01*
X187071190Y-152005238D01*
X187166428Y-151910000D01*
X187071190Y-151814761D01*
X187071190Y-152005238D01*
X188309285Y-153814761D02*
X188118809Y-153719523D01*
X188023571Y-153529047D01*
X188023571Y-151814761D01*
X189071190Y-153814761D02*
X189071190Y-151814761D01*
X189261666Y-153052857D02*
X189833095Y-153814761D01*
X189833095Y-152481428D02*
X189071190Y-153243333D01*
X190595000Y-153719523D02*
X190785476Y-153814761D01*
X191166428Y-153814761D01*
X191356904Y-153719523D01*
X191452142Y-153529047D01*
X191452142Y-153433809D01*
X191356904Y-153243333D01*
X191166428Y-153148095D01*
X190880714Y-153148095D01*
X190690238Y-153052857D01*
X190595000Y-152862380D01*
X190595000Y-152767142D01*
X190690238Y-152576666D01*
X190880714Y-152481428D01*
X191166428Y-152481428D01*
X191356904Y-152576666D01*
X193166428Y-153719523D02*
X192975952Y-153814761D01*
X192595000Y-153814761D01*
X192404523Y-153719523D01*
X192309285Y-153624285D01*
X192214047Y-153433809D01*
X192214047Y-152862380D01*
X192309285Y-152671904D01*
X192404523Y-152576666D01*
X192595000Y-152481428D01*
X192975952Y-152481428D01*
X193166428Y-152576666D01*
X194023571Y-153814761D02*
X194023571Y-152481428D01*
X194023571Y-152862380D02*
X194118809Y-152671904D01*
X194214047Y-152576666D01*
X194404523Y-152481428D01*
X194595000Y-152481428D01*
X196023571Y-153719523D02*
X195833095Y-153814761D01*
X195452142Y-153814761D01*
X195261666Y-153719523D01*
X195166428Y-153529047D01*
X195166428Y-152767142D01*
X195261666Y-152576666D01*
X195452142Y-152481428D01*
X195833095Y-152481428D01*
X196023571Y-152576666D01*
X196118809Y-152767142D01*
X196118809Y-152957619D01*
X195166428Y-153148095D01*
X197737857Y-153719523D02*
X197547380Y-153814761D01*
X197166428Y-153814761D01*
X196975952Y-153719523D01*
X196880714Y-153529047D01*
X196880714Y-152767142D01*
X196975952Y-152576666D01*
X197166428Y-152481428D01*
X197547380Y-152481428D01*
X197737857Y-152576666D01*
X197833095Y-152767142D01*
X197833095Y-152957619D01*
X196880714Y-153148095D01*
X198690238Y-152481428D02*
X198690238Y-153814761D01*
X198690238Y-152671904D02*
X198785476Y-152576666D01*
X198975952Y-152481428D01*
X199261666Y-152481428D01*
X199452142Y-152576666D01*
X199547380Y-152767142D01*
X199547380Y-153814761D01*
X200499761Y-153624285D02*
X200595000Y-153719523D01*
X200499761Y-153814761D01*
X200404523Y-153719523D01*
X200499761Y-153624285D01*
X200499761Y-153814761D01*
X147737857Y-155987142D02*
X147071190Y-155987142D01*
X147071190Y-157034761D02*
X147071190Y-155034761D01*
X148023571Y-155034761D01*
X149642619Y-157034761D02*
X149642619Y-155987142D01*
X149547380Y-155796666D01*
X149356904Y-155701428D01*
X148975952Y-155701428D01*
X148785476Y-155796666D01*
X149642619Y-156939523D02*
X149452142Y-157034761D01*
X148975952Y-157034761D01*
X148785476Y-156939523D01*
X148690238Y-156749047D01*
X148690238Y-156558571D01*
X148785476Y-156368095D01*
X148975952Y-156272857D01*
X149452142Y-156272857D01*
X149642619Y-156177619D01*
X150595000Y-157034761D02*
X150595000Y-155034761D01*
X150595000Y-155796666D02*
X150785476Y-155701428D01*
X151166428Y-155701428D01*
X151356904Y-155796666D01*
X151452142Y-155891904D01*
X151547380Y-156082380D01*
X151547380Y-156653809D01*
X151452142Y-156844285D01*
X151356904Y-156939523D01*
X151166428Y-157034761D01*
X150785476Y-157034761D01*
X150595000Y-156939523D01*
X152404523Y-157034761D02*
X152404523Y-155701428D01*
X152404523Y-156082380D02*
X152499761Y-155891904D01*
X152595000Y-155796666D01*
X152785476Y-155701428D01*
X152975952Y-155701428D01*
X153642619Y-157034761D02*
X153642619Y-155701428D01*
X153642619Y-155034761D02*
X153547380Y-155130000D01*
X153642619Y-155225238D01*
X153737857Y-155130000D01*
X153642619Y-155034761D01*
X153642619Y-155225238D01*
X155452142Y-156939523D02*
X155261666Y-157034761D01*
X154880714Y-157034761D01*
X154690238Y-156939523D01*
X154595000Y-156844285D01*
X154499761Y-156653809D01*
X154499761Y-156082380D01*
X154595000Y-155891904D01*
X154690238Y-155796666D01*
X154880714Y-155701428D01*
X155261666Y-155701428D01*
X155452142Y-155796666D01*
X157166428Y-157034761D02*
X157166428Y-155987142D01*
X157071190Y-155796666D01*
X156880714Y-155701428D01*
X156499761Y-155701428D01*
X156309285Y-155796666D01*
X157166428Y-156939523D02*
X156975952Y-157034761D01*
X156499761Y-157034761D01*
X156309285Y-156939523D01*
X156214047Y-156749047D01*
X156214047Y-156558571D01*
X156309285Y-156368095D01*
X156499761Y-156272857D01*
X156975952Y-156272857D01*
X157166428Y-156177619D01*
X157833095Y-155701428D02*
X158595000Y-155701428D01*
X158118809Y-155034761D02*
X158118809Y-156749047D01*
X158214047Y-156939523D01*
X158404523Y-157034761D01*
X158595000Y-157034761D01*
X160023571Y-156939523D02*
X159833095Y-157034761D01*
X159452142Y-157034761D01*
X159261666Y-156939523D01*
X159166428Y-156749047D01*
X159166428Y-155987142D01*
X159261666Y-155796666D01*
X159452142Y-155701428D01*
X159833095Y-155701428D01*
X160023571Y-155796666D01*
X160118809Y-155987142D01*
X160118809Y-156177619D01*
X159166428Y-156368095D01*
X162785476Y-157034761D02*
X162595000Y-156939523D01*
X162499761Y-156844285D01*
X162404523Y-156653809D01*
X162404523Y-156082380D01*
X162499761Y-155891904D01*
X162595000Y-155796666D01*
X162785476Y-155701428D01*
X163071190Y-155701428D01*
X163261666Y-155796666D01*
X163356904Y-155891904D01*
X163452142Y-156082380D01*
X163452142Y-156653809D01*
X163356904Y-156844285D01*
X163261666Y-156939523D01*
X163071190Y-157034761D01*
X162785476Y-157034761D01*
X164309285Y-155701428D02*
X164309285Y-157034761D01*
X164309285Y-155891904D02*
X164404523Y-155796666D01*
X164595000Y-155701428D01*
X164880714Y-155701428D01*
X165071190Y-155796666D01*
X165166428Y-155987142D01*
X165166428Y-157034761D01*
X167642619Y-155701428D02*
X167642619Y-157701428D01*
X167642619Y-155796666D02*
X167833095Y-155701428D01*
X168214047Y-155701428D01*
X168404523Y-155796666D01*
X168499761Y-155891904D01*
X168595000Y-156082380D01*
X168595000Y-156653809D01*
X168499761Y-156844285D01*
X168404523Y-156939523D01*
X168214047Y-157034761D01*
X167833095Y-157034761D01*
X167642619Y-156939523D01*
X169737857Y-157034761D02*
X169547380Y-156939523D01*
X169452142Y-156844285D01*
X169356904Y-156653809D01*
X169356904Y-156082380D01*
X169452142Y-155891904D01*
X169547380Y-155796666D01*
X169737857Y-155701428D01*
X170023571Y-155701428D01*
X170214047Y-155796666D01*
X170309285Y-155891904D01*
X170404523Y-156082380D01*
X170404523Y-156653809D01*
X170309285Y-156844285D01*
X170214047Y-156939523D01*
X170023571Y-157034761D01*
X169737857Y-157034761D01*
X171547380Y-157034761D02*
X171356904Y-156939523D01*
X171261666Y-156749047D01*
X171261666Y-155034761D01*
X172118809Y-155701428D02*
X172595000Y-157034761D01*
X173071190Y-155701428D02*
X172595000Y-157034761D01*
X172404523Y-157510952D01*
X172309285Y-157606190D01*
X172118809Y-157701428D01*
X173833095Y-157034761D02*
X173833095Y-155701428D01*
X173833095Y-155034761D02*
X173737857Y-155130000D01*
X173833095Y-155225238D01*
X173928333Y-155130000D01*
X173833095Y-155034761D01*
X173833095Y-155225238D01*
X174785476Y-157034761D02*
X174785476Y-155701428D01*
X174785476Y-155891904D02*
X174880714Y-155796666D01*
X175071190Y-155701428D01*
X175356904Y-155701428D01*
X175547380Y-155796666D01*
X175642619Y-155987142D01*
X175642619Y-157034761D01*
X175642619Y-155987142D02*
X175737857Y-155796666D01*
X175928333Y-155701428D01*
X176214047Y-155701428D01*
X176404523Y-155796666D01*
X176499761Y-155987142D01*
X176499761Y-157034761D01*
X177452142Y-157034761D02*
X177452142Y-155701428D01*
X177452142Y-155034761D02*
X177356904Y-155130000D01*
X177452142Y-155225238D01*
X177547380Y-155130000D01*
X177452142Y-155034761D01*
X177452142Y-155225238D01*
X179261666Y-157034761D02*
X179261666Y-155034761D01*
X179261666Y-156939523D02*
X179071190Y-157034761D01*
X178690238Y-157034761D01*
X178499761Y-156939523D01*
X178404523Y-156844285D01*
X178309285Y-156653809D01*
X178309285Y-156082380D01*
X178404523Y-155891904D01*
X178499761Y-155796666D01*
X178690238Y-155701428D01*
X179071190Y-155701428D01*
X179261666Y-155796666D01*
X180975952Y-156939523D02*
X180785476Y-157034761D01*
X180404523Y-157034761D01*
X180214047Y-156939523D01*
X180118809Y-156749047D01*
X180118809Y-155987142D01*
X180214047Y-155796666D01*
X180404523Y-155701428D01*
X180785476Y-155701428D01*
X180975952Y-155796666D01*
X181071190Y-155987142D01*
X181071190Y-156177619D01*
X180118809Y-156368095D01*
X181928333Y-156844285D02*
X182023571Y-156939523D01*
X181928333Y-157034761D01*
X181833095Y-156939523D01*
X181928333Y-156844285D01*
X181928333Y-157034761D01*
X146975952Y-158445238D02*
X147071190Y-158350000D01*
X147261666Y-158254761D01*
X147737857Y-158254761D01*
X147928333Y-158350000D01*
X148023571Y-158445238D01*
X148118809Y-158635714D01*
X148118809Y-158826190D01*
X148023571Y-159111904D01*
X146880714Y-160254761D01*
X148118809Y-160254761D01*
X149261666Y-160254761D02*
X149071190Y-160159523D01*
X148975952Y-160064285D01*
X148880714Y-159873809D01*
X148880714Y-159302380D01*
X148975952Y-159111904D01*
X149071190Y-159016666D01*
X149261666Y-158921428D01*
X149547380Y-158921428D01*
X149737857Y-159016666D01*
X149833095Y-159111904D01*
X149928333Y-159302380D01*
X149928333Y-159873809D01*
X149833095Y-160064285D01*
X149737857Y-160159523D01*
X149547380Y-160254761D01*
X149261666Y-160254761D01*
X150595000Y-158921428D02*
X151642619Y-158921428D01*
X150595000Y-160254761D01*
X151642619Y-160254761D01*
X154214047Y-160254761D02*
X154023571Y-160159523D01*
X153928333Y-160064285D01*
X153833095Y-159873809D01*
X153833095Y-159302380D01*
X153928333Y-159111904D01*
X154023571Y-159016666D01*
X154214047Y-158921428D01*
X154499761Y-158921428D01*
X154690238Y-159016666D01*
X154785476Y-159111904D01*
X154880714Y-159302380D01*
X154880714Y-159873809D01*
X154785476Y-160064285D01*
X154690238Y-160159523D01*
X154499761Y-160254761D01*
X154214047Y-160254761D01*
X156595000Y-158921428D02*
X156595000Y-160254761D01*
X155737857Y-158921428D02*
X155737857Y-159969047D01*
X155833095Y-160159523D01*
X156023571Y-160254761D01*
X156309285Y-160254761D01*
X156499761Y-160159523D01*
X156595000Y-160064285D01*
X157261666Y-158921428D02*
X158023571Y-158921428D01*
X157547380Y-158254761D02*
X157547380Y-159969047D01*
X157642619Y-160159523D01*
X157833095Y-160254761D01*
X158023571Y-160254761D01*
X159452142Y-160159523D02*
X159261666Y-160254761D01*
X158880714Y-160254761D01*
X158690238Y-160159523D01*
X158595000Y-159969047D01*
X158595000Y-159207142D01*
X158690238Y-159016666D01*
X158880714Y-158921428D01*
X159261666Y-158921428D01*
X159452142Y-159016666D01*
X159547380Y-159207142D01*
X159547380Y-159397619D01*
X158595000Y-159588095D01*
X160404523Y-160254761D02*
X160404523Y-158921428D01*
X160404523Y-159302380D02*
X160499761Y-159111904D01*
X160595000Y-159016666D01*
X160785476Y-158921428D01*
X160975952Y-158921428D01*
X161737857Y-160159523D02*
X161737857Y-160254761D01*
X161642619Y-160445238D01*
X161547380Y-160540476D01*
X164023571Y-158445238D02*
X164118809Y-158350000D01*
X164309285Y-158254761D01*
X164785476Y-158254761D01*
X164975952Y-158350000D01*
X165071190Y-158445238D01*
X165166428Y-158635714D01*
X165166428Y-158826190D01*
X165071190Y-159111904D01*
X163928333Y-160254761D01*
X165166428Y-160254761D01*
X166309285Y-160254761D02*
X166118809Y-160159523D01*
X166023571Y-160064285D01*
X165928333Y-159873809D01*
X165928333Y-159302380D01*
X166023571Y-159111904D01*
X166118809Y-159016666D01*
X166309285Y-158921428D01*
X166595000Y-158921428D01*
X166785476Y-159016666D01*
X166880714Y-159111904D01*
X166975952Y-159302380D01*
X166975952Y-159873809D01*
X166880714Y-160064285D01*
X166785476Y-160159523D01*
X166595000Y-160254761D01*
X166309285Y-160254761D01*
X167642619Y-158921428D02*
X168690238Y-158921428D01*
X167642619Y-160254761D01*
X168690238Y-160254761D01*
X170975952Y-160254761D02*
X170975952Y-158921428D01*
X170975952Y-158254761D02*
X170880714Y-158350000D01*
X170975952Y-158445238D01*
X171071190Y-158350000D01*
X170975952Y-158254761D01*
X170975952Y-158445238D01*
X171928333Y-158921428D02*
X171928333Y-160254761D01*
X171928333Y-159111904D02*
X172023571Y-159016666D01*
X172214047Y-158921428D01*
X172499761Y-158921428D01*
X172690238Y-159016666D01*
X172785476Y-159207142D01*
X172785476Y-160254761D01*
X173737857Y-158921428D02*
X173737857Y-160254761D01*
X173737857Y-159111904D02*
X173833095Y-159016666D01*
X174023571Y-158921428D01*
X174309285Y-158921428D01*
X174499761Y-159016666D01*
X174595000Y-159207142D01*
X174595000Y-160254761D01*
X176309285Y-160159523D02*
X176118809Y-160254761D01*
X175737857Y-160254761D01*
X175547380Y-160159523D01*
X175452142Y-159969047D01*
X175452142Y-159207142D01*
X175547380Y-159016666D01*
X175737857Y-158921428D01*
X176118809Y-158921428D01*
X176309285Y-159016666D01*
X176404523Y-159207142D01*
X176404523Y-159397619D01*
X175452142Y-159588095D01*
X177261666Y-160254761D02*
X177261666Y-158921428D01*
X177261666Y-159302380D02*
X177356904Y-159111904D01*
X177452142Y-159016666D01*
X177642619Y-158921428D01*
X177833095Y-158921428D01*
X180880714Y-160159523D02*
X180690238Y-160254761D01*
X180309285Y-160254761D01*
X180118809Y-160159523D01*
X180023571Y-160064285D01*
X179928333Y-159873809D01*
X179928333Y-159302380D01*
X180023571Y-159111904D01*
X180118809Y-159016666D01*
X180309285Y-158921428D01*
X180690238Y-158921428D01*
X180880714Y-159016666D01*
X182023571Y-160254761D02*
X181833095Y-160159523D01*
X181737857Y-160064285D01*
X181642619Y-159873809D01*
X181642619Y-159302380D01*
X181737857Y-159111904D01*
X181833095Y-159016666D01*
X182023571Y-158921428D01*
X182309285Y-158921428D01*
X182499761Y-159016666D01*
X182595000Y-159111904D01*
X182690238Y-159302380D01*
X182690238Y-159873809D01*
X182595000Y-160064285D01*
X182499761Y-160159523D01*
X182309285Y-160254761D01*
X182023571Y-160254761D01*
X183547380Y-158921428D02*
X183547380Y-160921428D01*
X183547380Y-159016666D02*
X183737857Y-158921428D01*
X184118809Y-158921428D01*
X184309285Y-159016666D01*
X184404523Y-159111904D01*
X184499761Y-159302380D01*
X184499761Y-159873809D01*
X184404523Y-160064285D01*
X184309285Y-160159523D01*
X184118809Y-160254761D01*
X183737857Y-160254761D01*
X183547380Y-160159523D01*
X185356904Y-158921428D02*
X185356904Y-160921428D01*
X185356904Y-159016666D02*
X185547380Y-158921428D01*
X185928333Y-158921428D01*
X186118809Y-159016666D01*
X186214047Y-159111904D01*
X186309285Y-159302380D01*
X186309285Y-159873809D01*
X186214047Y-160064285D01*
X186118809Y-160159523D01*
X185928333Y-160254761D01*
X185547380Y-160254761D01*
X185356904Y-160159523D01*
X187928333Y-160159523D02*
X187737857Y-160254761D01*
X187356904Y-160254761D01*
X187166428Y-160159523D01*
X187071190Y-159969047D01*
X187071190Y-159207142D01*
X187166428Y-159016666D01*
X187356904Y-158921428D01*
X187737857Y-158921428D01*
X187928333Y-159016666D01*
X188023571Y-159207142D01*
X188023571Y-159397619D01*
X187071190Y-159588095D01*
X188880714Y-160254761D02*
X188880714Y-158921428D01*
X188880714Y-159302380D02*
X188975952Y-159111904D01*
X189071190Y-159016666D01*
X189261666Y-158921428D01*
X189452142Y-158921428D01*
X190118809Y-160064285D02*
X190214047Y-160159523D01*
X190118809Y-160254761D01*
X190023571Y-160159523D01*
X190118809Y-160064285D01*
X190118809Y-160254761D01*
D14*
X240922856Y-60358571D02*
X240922856Y-58858571D01*
X241779999Y-60358571D01*
X241779999Y-58858571D01*
X242708571Y-60358571D02*
X242565714Y-60287142D01*
X242494285Y-60215714D01*
X242422856Y-60072857D01*
X242422856Y-59644285D01*
X242494285Y-59501428D01*
X242565714Y-59430000D01*
X242708571Y-59358571D01*
X242922856Y-59358571D01*
X243065714Y-59430000D01*
X243137142Y-59501428D01*
X243208571Y-59644285D01*
X243208571Y-60072857D01*
X243137142Y-60215714D01*
X243065714Y-60287142D01*
X242922856Y-60358571D01*
X242708571Y-60358571D01*
X148037142Y-63787857D02*
X148537142Y-63787857D01*
X148751428Y-64573571D02*
X148037142Y-64573571D01*
X148037142Y-63073571D01*
X148751428Y-63073571D01*
X150037142Y-64573571D02*
X150037142Y-63073571D01*
X150037142Y-64502142D02*
X149894285Y-64573571D01*
X149608571Y-64573571D01*
X149465714Y-64502142D01*
X149394285Y-64430714D01*
X149322857Y-64287857D01*
X149322857Y-63859285D01*
X149394285Y-63716428D01*
X149465714Y-63645000D01*
X149608571Y-63573571D01*
X149894285Y-63573571D01*
X150037142Y-63645000D01*
X151394285Y-63573571D02*
X151394285Y-64787857D01*
X151322857Y-64930714D01*
X151251428Y-65002142D01*
X151108571Y-65073571D01*
X150894285Y-65073571D01*
X150751428Y-65002142D01*
X151394285Y-64502142D02*
X151251428Y-64573571D01*
X150965714Y-64573571D01*
X150822857Y-64502142D01*
X150751428Y-64430714D01*
X150680000Y-64287857D01*
X150680000Y-63859285D01*
X150751428Y-63716428D01*
X150822857Y-63645000D01*
X150965714Y-63573571D01*
X151251428Y-63573571D01*
X151394285Y-63645000D01*
X152680000Y-64502142D02*
X152537142Y-64573571D01*
X152251428Y-64573571D01*
X152108571Y-64502142D01*
X152037142Y-64359285D01*
X152037142Y-63787857D01*
X152108571Y-63645000D01*
X152251428Y-63573571D01*
X152537142Y-63573571D01*
X152680000Y-63645000D01*
X152751428Y-63787857D01*
X152751428Y-63930714D01*
X152037142Y-64073571D01*
X155180000Y-64502142D02*
X155037142Y-64573571D01*
X154751428Y-64573571D01*
X154608571Y-64502142D01*
X154537142Y-64430714D01*
X154465714Y-64287857D01*
X154465714Y-63859285D01*
X154537142Y-63716428D01*
X154608571Y-63645000D01*
X154751428Y-63573571D01*
X155037142Y-63573571D01*
X155180000Y-63645000D01*
X156465714Y-64573571D02*
X156465714Y-63787857D01*
X156394285Y-63645000D01*
X156251428Y-63573571D01*
X155965714Y-63573571D01*
X155822857Y-63645000D01*
X156465714Y-64502142D02*
X156322857Y-64573571D01*
X155965714Y-64573571D01*
X155822857Y-64502142D01*
X155751428Y-64359285D01*
X155751428Y-64216428D01*
X155822857Y-64073571D01*
X155965714Y-64002142D01*
X156322857Y-64002142D01*
X156465714Y-63930714D01*
X157180000Y-64573571D02*
X157180000Y-63573571D01*
X157180000Y-63859285D02*
X157251428Y-63716428D01*
X157322857Y-63645000D01*
X157465714Y-63573571D01*
X157608571Y-63573571D01*
X158751428Y-64573571D02*
X158751428Y-63073571D01*
X158751428Y-64502142D02*
X158608571Y-64573571D01*
X158322857Y-64573571D01*
X158180000Y-64502142D01*
X158108571Y-64430714D01*
X158037142Y-64287857D01*
X158037142Y-63859285D01*
X158108571Y-63716428D01*
X158180000Y-63645000D01*
X158322857Y-63573571D01*
X158608571Y-63573571D01*
X158751428Y-63645000D01*
X161251428Y-64502142D02*
X161108571Y-64573571D01*
X160822857Y-64573571D01*
X160680000Y-64502142D01*
X160608571Y-64430714D01*
X160537142Y-64287857D01*
X160537142Y-63859285D01*
X160608571Y-63716428D01*
X160680000Y-63645000D01*
X160822857Y-63573571D01*
X161108571Y-63573571D01*
X161251428Y-63645000D01*
X162108571Y-64573571D02*
X161965714Y-64502142D01*
X161894285Y-64430714D01*
X161822857Y-64287857D01*
X161822857Y-63859285D01*
X161894285Y-63716428D01*
X161965714Y-63645000D01*
X162108571Y-63573571D01*
X162322857Y-63573571D01*
X162465714Y-63645000D01*
X162537142Y-63716428D01*
X162608571Y-63859285D01*
X162608571Y-64287857D01*
X162537142Y-64430714D01*
X162465714Y-64502142D01*
X162322857Y-64573571D01*
X162108571Y-64573571D01*
X163251428Y-63573571D02*
X163251428Y-64573571D01*
X163251428Y-63716428D02*
X163322857Y-63645000D01*
X163465714Y-63573571D01*
X163680000Y-63573571D01*
X163822857Y-63645000D01*
X163894285Y-63787857D01*
X163894285Y-64573571D01*
X164608571Y-63573571D02*
X164608571Y-64573571D01*
X164608571Y-63716428D02*
X164680000Y-63645000D01*
X164822857Y-63573571D01*
X165037142Y-63573571D01*
X165180000Y-63645000D01*
X165251428Y-63787857D01*
X165251428Y-64573571D01*
X166537142Y-64502142D02*
X166394285Y-64573571D01*
X166108571Y-64573571D01*
X165965714Y-64502142D01*
X165894285Y-64359285D01*
X165894285Y-63787857D01*
X165965714Y-63645000D01*
X166108571Y-63573571D01*
X166394285Y-63573571D01*
X166537142Y-63645000D01*
X166608571Y-63787857D01*
X166608571Y-63930714D01*
X165894285Y-64073571D01*
X167894285Y-64502142D02*
X167751428Y-64573571D01*
X167465714Y-64573571D01*
X167322857Y-64502142D01*
X167251428Y-64430714D01*
X167180000Y-64287857D01*
X167180000Y-63859285D01*
X167251428Y-63716428D01*
X167322857Y-63645000D01*
X167465714Y-63573571D01*
X167751428Y-63573571D01*
X167894285Y-63645000D01*
X168322857Y-63573571D02*
X168894285Y-63573571D01*
X168537142Y-63073571D02*
X168537142Y-64359285D01*
X168608571Y-64502142D01*
X168751428Y-64573571D01*
X168894285Y-64573571D01*
X169608571Y-64573571D02*
X169465714Y-64502142D01*
X169394285Y-64430714D01*
X169322857Y-64287857D01*
X169322857Y-63859285D01*
X169394285Y-63716428D01*
X169465714Y-63645000D01*
X169608571Y-63573571D01*
X169822857Y-63573571D01*
X169965714Y-63645000D01*
X170037142Y-63716428D01*
X170108571Y-63859285D01*
X170108571Y-64287857D01*
X170037142Y-64430714D01*
X169965714Y-64502142D01*
X169822857Y-64573571D01*
X169608571Y-64573571D01*
X170751428Y-64573571D02*
X170751428Y-63573571D01*
X170751428Y-63859285D02*
X170822857Y-63716428D01*
X170894285Y-63645000D01*
X171037142Y-63573571D01*
X171180000Y-63573571D01*
X171608571Y-64502142D02*
X171751428Y-64573571D01*
X172037142Y-64573571D01*
X172180000Y-64502142D01*
X172251428Y-64359285D01*
X172251428Y-64287857D01*
X172180000Y-64145000D01*
X172037142Y-64073571D01*
X171822857Y-64073571D01*
X171680000Y-64002142D01*
X171608571Y-63859285D01*
X171608571Y-63787857D01*
X171680000Y-63645000D01*
X171822857Y-63573571D01*
X172037142Y-63573571D01*
X172180000Y-63645000D01*
X172894285Y-64430714D02*
X172965714Y-64502142D01*
X172894285Y-64573571D01*
X172822857Y-64502142D01*
X172894285Y-64430714D01*
X172894285Y-64573571D01*
X172894285Y-63645000D02*
X172965714Y-63716428D01*
X172894285Y-63787857D01*
X172822857Y-63716428D01*
X172894285Y-63645000D01*
X172894285Y-63787857D01*
X216079999Y-60358571D02*
X216079999Y-58858571D01*
X216651428Y-58858571D01*
X216794285Y-58930000D01*
X216865714Y-59001428D01*
X216937142Y-59144285D01*
X216937142Y-59358571D01*
X216865714Y-59501428D01*
X216794285Y-59572857D01*
X216651428Y-59644285D01*
X216079999Y-59644285D01*
X217794285Y-60358571D02*
X217651428Y-60287142D01*
X217579999Y-60144285D01*
X217579999Y-58858571D01*
X219008571Y-60358571D02*
X219008571Y-59572857D01*
X218937142Y-59430000D01*
X218794285Y-59358571D01*
X218508571Y-59358571D01*
X218365714Y-59430000D01*
X219008571Y-60287142D02*
X218865714Y-60358571D01*
X218508571Y-60358571D01*
X218365714Y-60287142D01*
X218294285Y-60144285D01*
X218294285Y-60001428D01*
X218365714Y-59858571D01*
X218508571Y-59787142D01*
X218865714Y-59787142D01*
X219008571Y-59715714D01*
X219508571Y-59358571D02*
X220079999Y-59358571D01*
X219722857Y-58858571D02*
X219722857Y-60144285D01*
X219794285Y-60287142D01*
X219937142Y-60358571D01*
X220079999Y-60358571D01*
X221151428Y-60287142D02*
X221008571Y-60358571D01*
X220722857Y-60358571D01*
X220579999Y-60287142D01*
X220508571Y-60144285D01*
X220508571Y-59572857D01*
X220579999Y-59430000D01*
X220722857Y-59358571D01*
X221008571Y-59358571D01*
X221151428Y-59430000D01*
X221222857Y-59572857D01*
X221222857Y-59715714D01*
X220508571Y-59858571D01*
X222508571Y-60358571D02*
X222508571Y-58858571D01*
X222508571Y-60287142D02*
X222365714Y-60358571D01*
X222079999Y-60358571D01*
X221937142Y-60287142D01*
X221865714Y-60215714D01*
X221794285Y-60072857D01*
X221794285Y-59644285D01*
X221865714Y-59501428D01*
X221937142Y-59430000D01*
X222079999Y-59358571D01*
X222365714Y-59358571D01*
X222508571Y-59430000D01*
X224865714Y-59572857D02*
X225079999Y-59644285D01*
X225151428Y-59715714D01*
X225222857Y-59858571D01*
X225222857Y-60072857D01*
X225151428Y-60215714D01*
X225079999Y-60287142D01*
X224937142Y-60358571D01*
X224365714Y-60358571D01*
X224365714Y-58858571D01*
X224865714Y-58858571D01*
X225008571Y-58930000D01*
X225079999Y-59001428D01*
X225151428Y-59144285D01*
X225151428Y-59287142D01*
X225079999Y-59430000D01*
X225008571Y-59501428D01*
X224865714Y-59572857D01*
X224365714Y-59572857D01*
X226079999Y-60358571D02*
X225937142Y-60287142D01*
X225865714Y-60215714D01*
X225794285Y-60072857D01*
X225794285Y-59644285D01*
X225865714Y-59501428D01*
X225937142Y-59430000D01*
X226079999Y-59358571D01*
X226294285Y-59358571D01*
X226437142Y-59430000D01*
X226508571Y-59501428D01*
X226579999Y-59644285D01*
X226579999Y-60072857D01*
X226508571Y-60215714D01*
X226437142Y-60287142D01*
X226294285Y-60358571D01*
X226079999Y-60358571D01*
X227865714Y-60358571D02*
X227865714Y-59572857D01*
X227794285Y-59430000D01*
X227651428Y-59358571D01*
X227365714Y-59358571D01*
X227222857Y-59430000D01*
X227865714Y-60287142D02*
X227722857Y-60358571D01*
X227365714Y-60358571D01*
X227222857Y-60287142D01*
X227151428Y-60144285D01*
X227151428Y-60001428D01*
X227222857Y-59858571D01*
X227365714Y-59787142D01*
X227722857Y-59787142D01*
X227865714Y-59715714D01*
X228579999Y-60358571D02*
X228579999Y-59358571D01*
X228579999Y-59644285D02*
X228651428Y-59501428D01*
X228722857Y-59430000D01*
X228865714Y-59358571D01*
X229008571Y-59358571D01*
X230151428Y-60358571D02*
X230151428Y-58858571D01*
X230151428Y-60287142D02*
X230008571Y-60358571D01*
X229722857Y-60358571D01*
X229579999Y-60287142D01*
X229508571Y-60215714D01*
X229437142Y-60072857D01*
X229437142Y-59644285D01*
X229508571Y-59501428D01*
X229579999Y-59430000D01*
X229722857Y-59358571D01*
X230008571Y-59358571D01*
X230151428Y-59430000D01*
X232008571Y-59572857D02*
X232508571Y-59572857D01*
X232722857Y-60358571D02*
X232008571Y-60358571D01*
X232008571Y-58858571D01*
X232722857Y-58858571D01*
X234008571Y-60358571D02*
X234008571Y-58858571D01*
X234008571Y-60287142D02*
X233865714Y-60358571D01*
X233579999Y-60358571D01*
X233437142Y-60287142D01*
X233365714Y-60215714D01*
X233294285Y-60072857D01*
X233294285Y-59644285D01*
X233365714Y-59501428D01*
X233437142Y-59430000D01*
X233579999Y-59358571D01*
X233865714Y-59358571D01*
X234008571Y-59430000D01*
X235365714Y-59358571D02*
X235365714Y-60572857D01*
X235294285Y-60715714D01*
X235222857Y-60787142D01*
X235079999Y-60858571D01*
X234865714Y-60858571D01*
X234722857Y-60787142D01*
X235365714Y-60287142D02*
X235222857Y-60358571D01*
X234937142Y-60358571D01*
X234794285Y-60287142D01*
X234722857Y-60215714D01*
X234651428Y-60072857D01*
X234651428Y-59644285D01*
X234722857Y-59501428D01*
X234794285Y-59430000D01*
X234937142Y-59358571D01*
X235222857Y-59358571D01*
X235365714Y-59430000D01*
X236651428Y-60287142D02*
X236508571Y-60358571D01*
X236222857Y-60358571D01*
X236079999Y-60287142D01*
X236008571Y-60144285D01*
X236008571Y-59572857D01*
X236079999Y-59430000D01*
X236222857Y-59358571D01*
X236508571Y-59358571D01*
X236651428Y-59430000D01*
X236722857Y-59572857D01*
X236722857Y-59715714D01*
X236008571Y-59858571D01*
X237365714Y-60215714D02*
X237437142Y-60287142D01*
X237365714Y-60358571D01*
X237294285Y-60287142D01*
X237365714Y-60215714D01*
X237365714Y-60358571D01*
X237365714Y-59430000D02*
X237437142Y-59501428D01*
X237365714Y-59572857D01*
X237294285Y-59501428D01*
X237365714Y-59430000D01*
X237365714Y-59572857D01*
X216079999Y-56143571D02*
X216079999Y-54643571D01*
X216794285Y-56143571D02*
X216794285Y-55143571D01*
X216794285Y-55286428D02*
X216865714Y-55215000D01*
X217008571Y-55143571D01*
X217222857Y-55143571D01*
X217365714Y-55215000D01*
X217437142Y-55357857D01*
X217437142Y-56143571D01*
X217437142Y-55357857D02*
X217508571Y-55215000D01*
X217651428Y-55143571D01*
X217865714Y-55143571D01*
X218008571Y-55215000D01*
X218079999Y-55357857D01*
X218079999Y-56143571D01*
X218794285Y-55143571D02*
X218794285Y-56643571D01*
X218794285Y-55215000D02*
X218937142Y-55143571D01*
X219222857Y-55143571D01*
X219365714Y-55215000D01*
X219437142Y-55286428D01*
X219508571Y-55429285D01*
X219508571Y-55857857D01*
X219437142Y-56000714D01*
X219365714Y-56072142D01*
X219222857Y-56143571D01*
X218937142Y-56143571D01*
X218794285Y-56072142D01*
X220722857Y-56072142D02*
X220579999Y-56143571D01*
X220294285Y-56143571D01*
X220151428Y-56072142D01*
X220079999Y-55929285D01*
X220079999Y-55357857D01*
X220151428Y-55215000D01*
X220294285Y-55143571D01*
X220579999Y-55143571D01*
X220722857Y-55215000D01*
X220794285Y-55357857D01*
X220794285Y-55500714D01*
X220079999Y-55643571D01*
X222079999Y-56143571D02*
X222079999Y-54643571D01*
X222079999Y-56072142D02*
X221937142Y-56143571D01*
X221651428Y-56143571D01*
X221508571Y-56072142D01*
X221437142Y-56000714D01*
X221365714Y-55857857D01*
X221365714Y-55429285D01*
X221437142Y-55286428D01*
X221508571Y-55215000D01*
X221651428Y-55143571D01*
X221937142Y-55143571D01*
X222079999Y-55215000D01*
X223437142Y-56143571D02*
X223437142Y-55357857D01*
X223365714Y-55215000D01*
X223222857Y-55143571D01*
X222937142Y-55143571D01*
X222794285Y-55215000D01*
X223437142Y-56072142D02*
X223294285Y-56143571D01*
X222937142Y-56143571D01*
X222794285Y-56072142D01*
X222722857Y-55929285D01*
X222722857Y-55786428D01*
X222794285Y-55643571D01*
X222937142Y-55572142D01*
X223294285Y-55572142D01*
X223437142Y-55500714D01*
X224151428Y-55143571D02*
X224151428Y-56143571D01*
X224151428Y-55286428D02*
X224222857Y-55215000D01*
X224365714Y-55143571D01*
X224579999Y-55143571D01*
X224722857Y-55215000D01*
X224794285Y-55357857D01*
X224794285Y-56143571D01*
X226151428Y-56072142D02*
X226008571Y-56143571D01*
X225722857Y-56143571D01*
X225579999Y-56072142D01*
X225508571Y-56000714D01*
X225437142Y-55857857D01*
X225437142Y-55429285D01*
X225508571Y-55286428D01*
X225579999Y-55215000D01*
X225722857Y-55143571D01*
X226008571Y-55143571D01*
X226151428Y-55215000D01*
X227365714Y-56072142D02*
X227222857Y-56143571D01*
X226937142Y-56143571D01*
X226794285Y-56072142D01*
X226722857Y-55929285D01*
X226722857Y-55357857D01*
X226794285Y-55215000D01*
X226937142Y-55143571D01*
X227222857Y-55143571D01*
X227365714Y-55215000D01*
X227437142Y-55357857D01*
X227437142Y-55500714D01*
X226722857Y-55643571D01*
X230079999Y-56000714D02*
X230008571Y-56072142D01*
X229794285Y-56143571D01*
X229651428Y-56143571D01*
X229437142Y-56072142D01*
X229294285Y-55929285D01*
X229222857Y-55786428D01*
X229151428Y-55500714D01*
X229151428Y-55286428D01*
X229222857Y-55000714D01*
X229294285Y-54857857D01*
X229437142Y-54715000D01*
X229651428Y-54643571D01*
X229794285Y-54643571D01*
X230008571Y-54715000D01*
X230079999Y-54786428D01*
X230937142Y-56143571D02*
X230794285Y-56072142D01*
X230722857Y-56000714D01*
X230651428Y-55857857D01*
X230651428Y-55429285D01*
X230722857Y-55286428D01*
X230794285Y-55215000D01*
X230937142Y-55143571D01*
X231151428Y-55143571D01*
X231294285Y-55215000D01*
X231365714Y-55286428D01*
X231437142Y-55429285D01*
X231437142Y-55857857D01*
X231365714Y-56000714D01*
X231294285Y-56072142D01*
X231151428Y-56143571D01*
X230937142Y-56143571D01*
X232079999Y-55143571D02*
X232079999Y-56143571D01*
X232079999Y-55286428D02*
X232151428Y-55215000D01*
X232294285Y-55143571D01*
X232508571Y-55143571D01*
X232651428Y-55215000D01*
X232722857Y-55357857D01*
X232722857Y-56143571D01*
X233222857Y-55143571D02*
X233794285Y-55143571D01*
X233437142Y-54643571D02*
X233437142Y-55929285D01*
X233508571Y-56072142D01*
X233651428Y-56143571D01*
X233794285Y-56143571D01*
X234294285Y-56143571D02*
X234294285Y-55143571D01*
X234294285Y-55429285D02*
X234365714Y-55286428D01*
X234437142Y-55215000D01*
X234579999Y-55143571D01*
X234722857Y-55143571D01*
X235437142Y-56143571D02*
X235294285Y-56072142D01*
X235222857Y-56000714D01*
X235151428Y-55857857D01*
X235151428Y-55429285D01*
X235222857Y-55286428D01*
X235294285Y-55215000D01*
X235437142Y-55143571D01*
X235651428Y-55143571D01*
X235794285Y-55215000D01*
X235865714Y-55286428D01*
X235937142Y-55429285D01*
X235937142Y-55857857D01*
X235865714Y-56000714D01*
X235794285Y-56072142D01*
X235651428Y-56143571D01*
X235437142Y-56143571D01*
X236794285Y-56143571D02*
X236651428Y-56072142D01*
X236579999Y-55929285D01*
X236579999Y-54643571D01*
X237365714Y-56000714D02*
X237437142Y-56072142D01*
X237365714Y-56143571D01*
X237294285Y-56072142D01*
X237365714Y-56000714D01*
X237365714Y-56143571D01*
X237365714Y-55215000D02*
X237437142Y-55286428D01*
X237365714Y-55357857D01*
X237294285Y-55286428D01*
X237365714Y-55215000D01*
X237365714Y-55357857D01*
X148537142Y-46927857D02*
X148751428Y-46999285D01*
X148822857Y-47070714D01*
X148894285Y-47213571D01*
X148894285Y-47427857D01*
X148822857Y-47570714D01*
X148751428Y-47642142D01*
X148608571Y-47713571D01*
X148037142Y-47713571D01*
X148037142Y-46213571D01*
X148537142Y-46213571D01*
X148680000Y-46285000D01*
X148751428Y-46356428D01*
X148822857Y-46499285D01*
X148822857Y-46642142D01*
X148751428Y-46785000D01*
X148680000Y-46856428D01*
X148537142Y-46927857D01*
X148037142Y-46927857D01*
X149751428Y-47713571D02*
X149608571Y-47642142D01*
X149537142Y-47570714D01*
X149465714Y-47427857D01*
X149465714Y-46999285D01*
X149537142Y-46856428D01*
X149608571Y-46785000D01*
X149751428Y-46713571D01*
X149965714Y-46713571D01*
X150108571Y-46785000D01*
X150180000Y-46856428D01*
X150251428Y-46999285D01*
X150251428Y-47427857D01*
X150180000Y-47570714D01*
X150108571Y-47642142D01*
X149965714Y-47713571D01*
X149751428Y-47713571D01*
X151537142Y-47713571D02*
X151537142Y-46927857D01*
X151465714Y-46785000D01*
X151322857Y-46713571D01*
X151037142Y-46713571D01*
X150894285Y-46785000D01*
X151537142Y-47642142D02*
X151394285Y-47713571D01*
X151037142Y-47713571D01*
X150894285Y-47642142D01*
X150822857Y-47499285D01*
X150822857Y-47356428D01*
X150894285Y-47213571D01*
X151037142Y-47142142D01*
X151394285Y-47142142D01*
X151537142Y-47070714D01*
X152251428Y-47713571D02*
X152251428Y-46713571D01*
X152251428Y-46999285D02*
X152322857Y-46856428D01*
X152394285Y-46785000D01*
X152537142Y-46713571D01*
X152680000Y-46713571D01*
X153822857Y-47713571D02*
X153822857Y-46213571D01*
X153822857Y-47642142D02*
X153680000Y-47713571D01*
X153394285Y-47713571D01*
X153251428Y-47642142D01*
X153180000Y-47570714D01*
X153108571Y-47427857D01*
X153108571Y-46999285D01*
X153180000Y-46856428D01*
X153251428Y-46785000D01*
X153394285Y-46713571D01*
X153680000Y-46713571D01*
X153822857Y-46785000D01*
X155894285Y-47713571D02*
X155751428Y-47642142D01*
X155680000Y-47570714D01*
X155608571Y-47427857D01*
X155608571Y-46999285D01*
X155680000Y-46856428D01*
X155751428Y-46785000D01*
X155894285Y-46713571D01*
X156108571Y-46713571D01*
X156251428Y-46785000D01*
X156322857Y-46856428D01*
X156394285Y-46999285D01*
X156394285Y-47427857D01*
X156322857Y-47570714D01*
X156251428Y-47642142D01*
X156108571Y-47713571D01*
X155894285Y-47713571D01*
X156894285Y-46713571D02*
X157251428Y-47713571D01*
X157608571Y-46713571D01*
X158751428Y-47642142D02*
X158608571Y-47713571D01*
X158322857Y-47713571D01*
X158180000Y-47642142D01*
X158108571Y-47499285D01*
X158108571Y-46927857D01*
X158180000Y-46785000D01*
X158322857Y-46713571D01*
X158608571Y-46713571D01*
X158751428Y-46785000D01*
X158822857Y-46927857D01*
X158822857Y-47070714D01*
X158108571Y-47213571D01*
X159465714Y-47713571D02*
X159465714Y-46713571D01*
X159465714Y-46999285D02*
X159537142Y-46856428D01*
X159608571Y-46785000D01*
X159751428Y-46713571D01*
X159894285Y-46713571D01*
X161037142Y-47713571D02*
X161037142Y-46927857D01*
X160965714Y-46785000D01*
X160822857Y-46713571D01*
X160537142Y-46713571D01*
X160394285Y-46785000D01*
X161037142Y-47642142D02*
X160894285Y-47713571D01*
X160537142Y-47713571D01*
X160394285Y-47642142D01*
X160322857Y-47499285D01*
X160322857Y-47356428D01*
X160394285Y-47213571D01*
X160537142Y-47142142D01*
X160894285Y-47142142D01*
X161037142Y-47070714D01*
X161965714Y-47713571D02*
X161822857Y-47642142D01*
X161751428Y-47499285D01*
X161751428Y-46213571D01*
X162751428Y-47713571D02*
X162608571Y-47642142D01*
X162537142Y-47499285D01*
X162537142Y-46213571D01*
X165108571Y-47713571D02*
X165108571Y-46213571D01*
X165108571Y-47642142D02*
X164965714Y-47713571D01*
X164680000Y-47713571D01*
X164537142Y-47642142D01*
X164465714Y-47570714D01*
X164394285Y-47427857D01*
X164394285Y-46999285D01*
X164465714Y-46856428D01*
X164537142Y-46785000D01*
X164680000Y-46713571D01*
X164965714Y-46713571D01*
X165108571Y-46785000D01*
X165822857Y-47713571D02*
X165822857Y-46713571D01*
X165822857Y-46213571D02*
X165751428Y-46285000D01*
X165822857Y-46356428D01*
X165894285Y-46285000D01*
X165822857Y-46213571D01*
X165822857Y-46356428D01*
X166537142Y-47713571D02*
X166537142Y-46713571D01*
X166537142Y-46856428D02*
X166608571Y-46785000D01*
X166751428Y-46713571D01*
X166965714Y-46713571D01*
X167108571Y-46785000D01*
X167180000Y-46927857D01*
X167180000Y-47713571D01*
X167180000Y-46927857D02*
X167251428Y-46785000D01*
X167394285Y-46713571D01*
X167608571Y-46713571D01*
X167751428Y-46785000D01*
X167822857Y-46927857D01*
X167822857Y-47713571D01*
X169108571Y-47642142D02*
X168965714Y-47713571D01*
X168680000Y-47713571D01*
X168537142Y-47642142D01*
X168465714Y-47499285D01*
X168465714Y-46927857D01*
X168537142Y-46785000D01*
X168680000Y-46713571D01*
X168965714Y-46713571D01*
X169108571Y-46785000D01*
X169180000Y-46927857D01*
X169180000Y-47070714D01*
X168465714Y-47213571D01*
X169822857Y-46713571D02*
X169822857Y-47713571D01*
X169822857Y-46856428D02*
X169894285Y-46785000D01*
X170037142Y-46713571D01*
X170251428Y-46713571D01*
X170394285Y-46785000D01*
X170465714Y-46927857D01*
X170465714Y-47713571D01*
X171108571Y-47642142D02*
X171251428Y-47713571D01*
X171537142Y-47713571D01*
X171680000Y-47642142D01*
X171751428Y-47499285D01*
X171751428Y-47427857D01*
X171680000Y-47285000D01*
X171537142Y-47213571D01*
X171322857Y-47213571D01*
X171180000Y-47142142D01*
X171108571Y-46999285D01*
X171108571Y-46927857D01*
X171180000Y-46785000D01*
X171322857Y-46713571D01*
X171537142Y-46713571D01*
X171680000Y-46785000D01*
X172394285Y-47713571D02*
X172394285Y-46713571D01*
X172394285Y-46213571D02*
X172322857Y-46285000D01*
X172394285Y-46356428D01*
X172465714Y-46285000D01*
X172394285Y-46213571D01*
X172394285Y-46356428D01*
X173322857Y-47713571D02*
X173180000Y-47642142D01*
X173108571Y-47570714D01*
X173037142Y-47427857D01*
X173037142Y-46999285D01*
X173108571Y-46856428D01*
X173180000Y-46785000D01*
X173322857Y-46713571D01*
X173537142Y-46713571D01*
X173680000Y-46785000D01*
X173751428Y-46856428D01*
X173822857Y-46999285D01*
X173822857Y-47427857D01*
X173751428Y-47570714D01*
X173680000Y-47642142D01*
X173537142Y-47713571D01*
X173322857Y-47713571D01*
X174465714Y-46713571D02*
X174465714Y-47713571D01*
X174465714Y-46856428D02*
X174537142Y-46785000D01*
X174680000Y-46713571D01*
X174894285Y-46713571D01*
X175037142Y-46785000D01*
X175108571Y-46927857D01*
X175108571Y-47713571D01*
X175751428Y-47642142D02*
X175894285Y-47713571D01*
X176180000Y-47713571D01*
X176322857Y-47642142D01*
X176394285Y-47499285D01*
X176394285Y-47427857D01*
X176322857Y-47285000D01*
X176180000Y-47213571D01*
X175965714Y-47213571D01*
X175822857Y-47142142D01*
X175751428Y-46999285D01*
X175751428Y-46927857D01*
X175822857Y-46785000D01*
X175965714Y-46713571D01*
X176180000Y-46713571D01*
X176322857Y-46785000D01*
X177037142Y-47570714D02*
X177108571Y-47642142D01*
X177037142Y-47713571D01*
X176965714Y-47642142D01*
X177037142Y-47570714D01*
X177037142Y-47713571D01*
X177037142Y-46785000D02*
X177108571Y-46856428D01*
X177037142Y-46927857D01*
X176965714Y-46856428D01*
X177037142Y-46785000D01*
X177037142Y-46927857D01*
X180594285Y-56143571D02*
X180594285Y-54643571D01*
X181308571Y-56143571D02*
X181308571Y-55143571D01*
X181308571Y-55286428D02*
X181380000Y-55215000D01*
X181522857Y-55143571D01*
X181737143Y-55143571D01*
X181880000Y-55215000D01*
X181951428Y-55357857D01*
X181951428Y-56143571D01*
X181951428Y-55357857D02*
X182022857Y-55215000D01*
X182165714Y-55143571D01*
X182380000Y-55143571D01*
X182522857Y-55215000D01*
X182594285Y-55357857D01*
X182594285Y-56143571D01*
X183308571Y-56143571D02*
X183308571Y-55143571D01*
X183308571Y-55286428D02*
X183380000Y-55215000D01*
X183522857Y-55143571D01*
X183737143Y-55143571D01*
X183880000Y-55215000D01*
X183951428Y-55357857D01*
X183951428Y-56143571D01*
X183951428Y-55357857D02*
X184022857Y-55215000D01*
X184165714Y-55143571D01*
X184380000Y-55143571D01*
X184522857Y-55215000D01*
X184594285Y-55357857D01*
X184594285Y-56143571D01*
X185880000Y-56072142D02*
X185737143Y-56143571D01*
X185451428Y-56143571D01*
X185308571Y-56072142D01*
X185237143Y-55929285D01*
X185237143Y-55357857D01*
X185308571Y-55215000D01*
X185451428Y-55143571D01*
X185737143Y-55143571D01*
X185880000Y-55215000D01*
X185951428Y-55357857D01*
X185951428Y-55500714D01*
X185237143Y-55643571D01*
X186594285Y-56143571D02*
X186594285Y-55143571D01*
X186594285Y-55429285D02*
X186665714Y-55286428D01*
X186737143Y-55215000D01*
X186880000Y-55143571D01*
X187022857Y-55143571D01*
X187451428Y-56072142D02*
X187594285Y-56143571D01*
X187880000Y-56143571D01*
X188022857Y-56072142D01*
X188094285Y-55929285D01*
X188094285Y-55857857D01*
X188022857Y-55715000D01*
X187880000Y-55643571D01*
X187665714Y-55643571D01*
X187522857Y-55572142D01*
X187451428Y-55429285D01*
X187451428Y-55357857D01*
X187522857Y-55215000D01*
X187665714Y-55143571D01*
X187880000Y-55143571D01*
X188022857Y-55215000D01*
X188737143Y-56143571D02*
X188737143Y-55143571D01*
X188737143Y-54643571D02*
X188665714Y-54715000D01*
X188737143Y-54786428D01*
X188808571Y-54715000D01*
X188737143Y-54643571D01*
X188737143Y-54786428D01*
X189665714Y-56143571D02*
X189522857Y-56072142D01*
X189451428Y-56000714D01*
X189380000Y-55857857D01*
X189380000Y-55429285D01*
X189451428Y-55286428D01*
X189522857Y-55215000D01*
X189665714Y-55143571D01*
X189880000Y-55143571D01*
X190022857Y-55215000D01*
X190094285Y-55286428D01*
X190165714Y-55429285D01*
X190165714Y-55857857D01*
X190094285Y-56000714D01*
X190022857Y-56072142D01*
X189880000Y-56143571D01*
X189665714Y-56143571D01*
X190808571Y-55143571D02*
X190808571Y-56143571D01*
X190808571Y-55286428D02*
X190880000Y-55215000D01*
X191022857Y-55143571D01*
X191237143Y-55143571D01*
X191380000Y-55215000D01*
X191451428Y-55357857D01*
X191451428Y-56143571D01*
X193951428Y-55143571D02*
X193951428Y-56357857D01*
X193880000Y-56500714D01*
X193808571Y-56572142D01*
X193665714Y-56643571D01*
X193451428Y-56643571D01*
X193308571Y-56572142D01*
X193951428Y-56072142D02*
X193808571Y-56143571D01*
X193522857Y-56143571D01*
X193380000Y-56072142D01*
X193308571Y-56000714D01*
X193237143Y-55857857D01*
X193237143Y-55429285D01*
X193308571Y-55286428D01*
X193380000Y-55215000D01*
X193522857Y-55143571D01*
X193808571Y-55143571D01*
X193951428Y-55215000D01*
X194880000Y-56143571D02*
X194737143Y-56072142D01*
X194665714Y-56000714D01*
X194594285Y-55857857D01*
X194594285Y-55429285D01*
X194665714Y-55286428D01*
X194737143Y-55215000D01*
X194880000Y-55143571D01*
X195094285Y-55143571D01*
X195237143Y-55215000D01*
X195308571Y-55286428D01*
X195380000Y-55429285D01*
X195380000Y-55857857D01*
X195308571Y-56000714D01*
X195237143Y-56072142D01*
X195094285Y-56143571D01*
X194880000Y-56143571D01*
X196237143Y-56143571D02*
X196094285Y-56072142D01*
X196022857Y-55929285D01*
X196022857Y-54643571D01*
X197451428Y-56143571D02*
X197451428Y-54643571D01*
X197451428Y-56072142D02*
X197308571Y-56143571D01*
X197022857Y-56143571D01*
X196880000Y-56072142D01*
X196808571Y-56000714D01*
X196737143Y-55857857D01*
X196737143Y-55429285D01*
X196808571Y-55286428D01*
X196880000Y-55215000D01*
X197022857Y-55143571D01*
X197308571Y-55143571D01*
X197451428Y-55215000D01*
X148894285Y-56000714D02*
X148822857Y-56072142D01*
X148608571Y-56143571D01*
X148465714Y-56143571D01*
X148251428Y-56072142D01*
X148108571Y-55929285D01*
X148037142Y-55786428D01*
X147965714Y-55500714D01*
X147965714Y-55286428D01*
X148037142Y-55000714D01*
X148108571Y-54857857D01*
X148251428Y-54715000D01*
X148465714Y-54643571D01*
X148608571Y-54643571D01*
X148822857Y-54715000D01*
X148894285Y-54786428D01*
X149751428Y-56143571D02*
X149608571Y-56072142D01*
X149537142Y-56000714D01*
X149465714Y-55857857D01*
X149465714Y-55429285D01*
X149537142Y-55286428D01*
X149608571Y-55215000D01*
X149751428Y-55143571D01*
X149965714Y-55143571D01*
X150108571Y-55215000D01*
X150180000Y-55286428D01*
X150251428Y-55429285D01*
X150251428Y-55857857D01*
X150180000Y-56000714D01*
X150108571Y-56072142D01*
X149965714Y-56143571D01*
X149751428Y-56143571D01*
X150894285Y-55143571D02*
X150894285Y-56643571D01*
X150894285Y-55215000D02*
X151037142Y-55143571D01*
X151322857Y-55143571D01*
X151465714Y-55215000D01*
X151537142Y-55286428D01*
X151608571Y-55429285D01*
X151608571Y-55857857D01*
X151537142Y-56000714D01*
X151465714Y-56072142D01*
X151322857Y-56143571D01*
X151037142Y-56143571D01*
X150894285Y-56072142D01*
X152251428Y-55143571D02*
X152251428Y-56643571D01*
X152251428Y-55215000D02*
X152394285Y-55143571D01*
X152680000Y-55143571D01*
X152822857Y-55215000D01*
X152894285Y-55286428D01*
X152965714Y-55429285D01*
X152965714Y-55857857D01*
X152894285Y-56000714D01*
X152822857Y-56072142D01*
X152680000Y-56143571D01*
X152394285Y-56143571D01*
X152251428Y-56072142D01*
X154180000Y-56072142D02*
X154037142Y-56143571D01*
X153751428Y-56143571D01*
X153608571Y-56072142D01*
X153537142Y-55929285D01*
X153537142Y-55357857D01*
X153608571Y-55215000D01*
X153751428Y-55143571D01*
X154037142Y-55143571D01*
X154180000Y-55215000D01*
X154251428Y-55357857D01*
X154251428Y-55500714D01*
X153537142Y-55643571D01*
X154894285Y-56143571D02*
X154894285Y-55143571D01*
X154894285Y-55429285D02*
X154965714Y-55286428D01*
X155037142Y-55215000D01*
X155180000Y-55143571D01*
X155322857Y-55143571D01*
X157465714Y-55357857D02*
X156965714Y-55357857D01*
X156965714Y-56143571D02*
X156965714Y-54643571D01*
X157680000Y-54643571D01*
X158251428Y-56143571D02*
X158251428Y-55143571D01*
X158251428Y-54643571D02*
X158180000Y-54715000D01*
X158251428Y-54786428D01*
X158322857Y-54715000D01*
X158251428Y-54643571D01*
X158251428Y-54786428D01*
X158965714Y-55143571D02*
X158965714Y-56143571D01*
X158965714Y-55286428D02*
X159037142Y-55215000D01*
X159180000Y-55143571D01*
X159394285Y-55143571D01*
X159537142Y-55215000D01*
X159608571Y-55357857D01*
X159608571Y-56143571D01*
X160322857Y-56143571D02*
X160322857Y-55143571D01*
X160322857Y-54643571D02*
X160251428Y-54715000D01*
X160322857Y-54786428D01*
X160394285Y-54715000D01*
X160322857Y-54643571D01*
X160322857Y-54786428D01*
X160965714Y-56072142D02*
X161108571Y-56143571D01*
X161394285Y-56143571D01*
X161537142Y-56072142D01*
X161608571Y-55929285D01*
X161608571Y-55857857D01*
X161537142Y-55715000D01*
X161394285Y-55643571D01*
X161180000Y-55643571D01*
X161037142Y-55572142D01*
X160965714Y-55429285D01*
X160965714Y-55357857D01*
X161037142Y-55215000D01*
X161180000Y-55143571D01*
X161394285Y-55143571D01*
X161537142Y-55215000D01*
X162251428Y-56143571D02*
X162251428Y-54643571D01*
X162894285Y-56143571D02*
X162894285Y-55357857D01*
X162822857Y-55215000D01*
X162680000Y-55143571D01*
X162465714Y-55143571D01*
X162322857Y-55215000D01*
X162251428Y-55286428D01*
X163608571Y-56000714D02*
X163680000Y-56072142D01*
X163608571Y-56143571D01*
X163537142Y-56072142D01*
X163608571Y-56000714D01*
X163608571Y-56143571D01*
X163608571Y-55215000D02*
X163680000Y-55286428D01*
X163608571Y-55357857D01*
X163537142Y-55286428D01*
X163608571Y-55215000D01*
X163608571Y-55357857D01*
D11*
X54302380Y-111423809D02*
X54302380Y-111995238D01*
X54302380Y-111709523D02*
X53302380Y-111709523D01*
X53445238Y-111804761D01*
X53540476Y-111900000D01*
X53588095Y-111995238D01*
X53302380Y-111090476D02*
X53302380Y-110471428D01*
X53683333Y-110804761D01*
X53683333Y-110661904D01*
X53730952Y-110566666D01*
X53778571Y-110519047D01*
X53873809Y-110471428D01*
X54111904Y-110471428D01*
X54207142Y-110519047D01*
X54254761Y-110566666D01*
X54302380Y-110661904D01*
X54302380Y-110947619D01*
X54254761Y-111042857D01*
X54207142Y-111090476D01*
X53730952Y-109900000D02*
X53683333Y-109995238D01*
X53635714Y-110042857D01*
X53540476Y-110090476D01*
X53492857Y-110090476D01*
X53397619Y-110042857D01*
X53350000Y-109995238D01*
X53302380Y-109900000D01*
X53302380Y-109709523D01*
X53350000Y-109614285D01*
X53397619Y-109566666D01*
X53492857Y-109519047D01*
X53540476Y-109519047D01*
X53635714Y-109566666D01*
X53683333Y-109614285D01*
X53730952Y-109709523D01*
X53730952Y-109900000D01*
X53778571Y-109995238D01*
X53826190Y-110042857D01*
X53921428Y-110090476D01*
X54111904Y-110090476D01*
X54207142Y-110042857D01*
X54254761Y-109995238D01*
X54302380Y-109900000D01*
X54302380Y-109709523D01*
X54254761Y-109614285D01*
X54207142Y-109566666D01*
X54111904Y-109519047D01*
X53921428Y-109519047D01*
X53826190Y-109566666D01*
X53778571Y-109614285D01*
X53730952Y-109709523D01*
X54207142Y-109090476D02*
X54254761Y-109042857D01*
X54302380Y-109090476D01*
X54254761Y-109138095D01*
X54207142Y-109090476D01*
X54302380Y-109090476D01*
X53302380Y-108423809D02*
X53302380Y-108328571D01*
X53350000Y-108233333D01*
X53397619Y-108185714D01*
X53492857Y-108138095D01*
X53683333Y-108090476D01*
X53921428Y-108090476D01*
X54111904Y-108138095D01*
X54207142Y-108185714D01*
X54254761Y-108233333D01*
X54302380Y-108328571D01*
X54302380Y-108423809D01*
X54254761Y-108519047D01*
X54207142Y-108566666D01*
X54111904Y-108614285D01*
X53921428Y-108661904D01*
X53683333Y-108661904D01*
X53492857Y-108614285D01*
X53397619Y-108566666D01*
X53350000Y-108519047D01*
X53302380Y-108423809D01*
X53302380Y-107471428D02*
X53302380Y-107376190D01*
X53350000Y-107280952D01*
X53397619Y-107233333D01*
X53492857Y-107185714D01*
X53683333Y-107138095D01*
X53921428Y-107138095D01*
X54111904Y-107185714D01*
X54207142Y-107233333D01*
X54254761Y-107280952D01*
X54302380Y-107376190D01*
X54302380Y-107471428D01*
X54254761Y-107566666D01*
X54207142Y-107614285D01*
X54111904Y-107661904D01*
X53921428Y-107709523D01*
X53683333Y-107709523D01*
X53492857Y-107661904D01*
X53397619Y-107614285D01*
X53350000Y-107566666D01*
X53302380Y-107471428D01*
X53302380Y-106519047D02*
X53302380Y-106423809D01*
X53350000Y-106328571D01*
X53397619Y-106280952D01*
X53492857Y-106233333D01*
X53683333Y-106185714D01*
X53921428Y-106185714D01*
X54111904Y-106233333D01*
X54207142Y-106280952D01*
X54254761Y-106328571D01*
X54302380Y-106423809D01*
X54302380Y-106519047D01*
X54254761Y-106614285D01*
X54207142Y-106661904D01*
X54111904Y-106709523D01*
X53921428Y-106757142D01*
X53683333Y-106757142D01*
X53492857Y-106709523D01*
X53397619Y-106661904D01*
X53350000Y-106614285D01*
X53302380Y-106519047D01*
X53302380Y-105566666D02*
X53302380Y-105471428D01*
X53350000Y-105376190D01*
X53397619Y-105328571D01*
X53492857Y-105280952D01*
X53683333Y-105233333D01*
X53921428Y-105233333D01*
X54111904Y-105280952D01*
X54207142Y-105328571D01*
X54254761Y-105376190D01*
X54302380Y-105471428D01*
X54302380Y-105566666D01*
X54254761Y-105661904D01*
X54207142Y-105709523D01*
X54111904Y-105757142D01*
X53921428Y-105804761D01*
X53683333Y-105804761D01*
X53492857Y-105757142D01*
X53397619Y-105709523D01*
X53350000Y-105661904D01*
X53302380Y-105566666D01*
X54302380Y-104042857D02*
X53635714Y-104042857D01*
X53730952Y-104042857D02*
X53683333Y-103995238D01*
X53635714Y-103900000D01*
X53635714Y-103757142D01*
X53683333Y-103661904D01*
X53778571Y-103614285D01*
X54302380Y-103614285D01*
X53778571Y-103614285D02*
X53683333Y-103566666D01*
X53635714Y-103471428D01*
X53635714Y-103328571D01*
X53683333Y-103233333D01*
X53778571Y-103185714D01*
X54302380Y-103185714D01*
X54302380Y-102709523D02*
X53635714Y-102709523D01*
X53730952Y-102709523D02*
X53683333Y-102661904D01*
X53635714Y-102566666D01*
X53635714Y-102423809D01*
X53683333Y-102328571D01*
X53778571Y-102280952D01*
X54302380Y-102280952D01*
X53778571Y-102280952D02*
X53683333Y-102233333D01*
X53635714Y-102138095D01*
X53635714Y-101995238D01*
X53683333Y-101900000D01*
X53778571Y-101852380D01*
X54302380Y-101852380D01*
D10*
X58100000Y-175900000D02*
X54413580Y-175900000D01*
X54413580Y-37900000D02*
X58100000Y-37900000D01*
X55000000Y-175900000D02*
X55000000Y-37900000D01*
X55000000Y-175900000D02*
X55000000Y-37900000D01*
X55000000Y-175900000D02*
X55586421Y-174773496D01*
X55000000Y-175900000D02*
X54413579Y-174773496D01*
X55000000Y-37900000D02*
X54413579Y-39026504D01*
X55000000Y-37900000D02*
X55586421Y-39026504D01*
D11*
X92333333Y-177302380D02*
X93000000Y-177302380D01*
X92571428Y-178302380D01*
X93523809Y-177730952D02*
X93428571Y-177683333D01*
X93380952Y-177635714D01*
X93333333Y-177540476D01*
X93333333Y-177492857D01*
X93380952Y-177397619D01*
X93428571Y-177350000D01*
X93523809Y-177302380D01*
X93714285Y-177302380D01*
X93809523Y-177350000D01*
X93857142Y-177397619D01*
X93904761Y-177492857D01*
X93904761Y-177540476D01*
X93857142Y-177635714D01*
X93809523Y-177683333D01*
X93714285Y-177730952D01*
X93523809Y-177730952D01*
X93428571Y-177778571D01*
X93380952Y-177826190D01*
X93333333Y-177921428D01*
X93333333Y-178111904D01*
X93380952Y-178207142D01*
X93428571Y-178254761D01*
X93523809Y-178302380D01*
X93714285Y-178302380D01*
X93809523Y-178254761D01*
X93857142Y-178207142D01*
X93904761Y-178111904D01*
X93904761Y-177921428D01*
X93857142Y-177826190D01*
X93809523Y-177778571D01*
X93714285Y-177730952D01*
X94333333Y-178207142D02*
X94380952Y-178254761D01*
X94333333Y-178302380D01*
X94285714Y-178254761D01*
X94333333Y-178207142D01*
X94333333Y-178302380D01*
X95000000Y-177302380D02*
X95095238Y-177302380D01*
X95190476Y-177350000D01*
X95238095Y-177397619D01*
X95285714Y-177492857D01*
X95333333Y-177683333D01*
X95333333Y-177921428D01*
X95285714Y-178111904D01*
X95238095Y-178207142D01*
X95190476Y-178254761D01*
X95095238Y-178302380D01*
X95000000Y-178302380D01*
X94904761Y-178254761D01*
X94857142Y-178207142D01*
X94809523Y-178111904D01*
X94761904Y-177921428D01*
X94761904Y-177683333D01*
X94809523Y-177492857D01*
X94857142Y-177397619D01*
X94904761Y-177350000D01*
X95000000Y-177302380D01*
X95952380Y-177302380D02*
X96047619Y-177302380D01*
X96142857Y-177350000D01*
X96190476Y-177397619D01*
X96238095Y-177492857D01*
X96285714Y-177683333D01*
X96285714Y-177921428D01*
X96238095Y-178111904D01*
X96190476Y-178207142D01*
X96142857Y-178254761D01*
X96047619Y-178302380D01*
X95952380Y-178302380D01*
X95857142Y-178254761D01*
X95809523Y-178207142D01*
X95761904Y-178111904D01*
X95714285Y-177921428D01*
X95714285Y-177683333D01*
X95761904Y-177492857D01*
X95809523Y-177397619D01*
X95857142Y-177350000D01*
X95952380Y-177302380D01*
X96904761Y-177302380D02*
X97000000Y-177302380D01*
X97095238Y-177350000D01*
X97142857Y-177397619D01*
X97190476Y-177492857D01*
X97238095Y-177683333D01*
X97238095Y-177921428D01*
X97190476Y-178111904D01*
X97142857Y-178207142D01*
X97095238Y-178254761D01*
X97000000Y-178302380D01*
X96904761Y-178302380D01*
X96809523Y-178254761D01*
X96761904Y-178207142D01*
X96714285Y-178111904D01*
X96666666Y-177921428D01*
X96666666Y-177683333D01*
X96714285Y-177492857D01*
X96761904Y-177397619D01*
X96809523Y-177350000D01*
X96904761Y-177302380D01*
X97857142Y-177302380D02*
X97952380Y-177302380D01*
X98047619Y-177350000D01*
X98095238Y-177397619D01*
X98142857Y-177492857D01*
X98190476Y-177683333D01*
X98190476Y-177921428D01*
X98142857Y-178111904D01*
X98095238Y-178207142D01*
X98047619Y-178254761D01*
X97952380Y-178302380D01*
X97857142Y-178302380D01*
X97761904Y-178254761D01*
X97714285Y-178207142D01*
X97666666Y-178111904D01*
X97619047Y-177921428D01*
X97619047Y-177683333D01*
X97666666Y-177492857D01*
X97714285Y-177397619D01*
X97761904Y-177350000D01*
X97857142Y-177302380D01*
X99380952Y-178302380D02*
X99380952Y-177635714D01*
X99380952Y-177730952D02*
X99428571Y-177683333D01*
X99523809Y-177635714D01*
X99666666Y-177635714D01*
X99761904Y-177683333D01*
X99809523Y-177778571D01*
X99809523Y-178302380D01*
X99809523Y-177778571D02*
X99857142Y-177683333D01*
X99952380Y-177635714D01*
X100095238Y-177635714D01*
X100190476Y-177683333D01*
X100238095Y-177778571D01*
X100238095Y-178302380D01*
X100714285Y-178302380D02*
X100714285Y-177635714D01*
X100714285Y-177730952D02*
X100761904Y-177683333D01*
X100857142Y-177635714D01*
X101000000Y-177635714D01*
X101095238Y-177683333D01*
X101142857Y-177778571D01*
X101142857Y-178302380D01*
X101142857Y-177778571D02*
X101190476Y-177683333D01*
X101285714Y-177635714D01*
X101428571Y-177635714D01*
X101523809Y-177683333D01*
X101571428Y-177778571D01*
X101571428Y-178302380D01*
D10*
X58000000Y-175500000D02*
X58000000Y-179586420D01*
X136000000Y-179586420D02*
X136000000Y-175500000D01*
X58000000Y-179000000D02*
X136000000Y-179000000D01*
X58000000Y-179000000D02*
X136000000Y-179000000D01*
X58000000Y-179000000D02*
X59126504Y-179586421D01*
X58000000Y-179000000D02*
X59126504Y-178413579D01*
X136000000Y-179000000D02*
X134873496Y-178413579D01*
X136000000Y-179000000D02*
X134873496Y-179586421D01*
M02*
