M48
INCH,TZ
T1C0.0079
T2C0.0157
T3C0.1200
%
G90
G05
T1
X23720Y-64400
X23720Y-65522
X24163Y-48288
X24350Y-66280
X24440Y-20991
X24440Y-21876
X24440Y-26960
X24440Y-27844
X24440Y-38707
X24440Y-39592
X24440Y-44613
X24440Y-45497
X24440Y-50519
X24440Y-51403
X24440Y-56424
X24440Y-57308
X24440Y-63214
X24460Y-32802
X24460Y-33687
X24557Y-54194
X24951Y-48288
X24951Y-60029
X25200Y-22400
X25344Y-48288
X25344Y-54194
X25344Y-60029
X25738Y-48288
X25738Y-54194
X25738Y-60029
X25838Y-20991
X25838Y-26960
X25838Y-32802
X25838Y-38707
X25838Y-44613
X25838Y-50519
X25838Y-56424
X25838Y-62330
X25925Y-66280
X26027Y-22400
X26132Y-48288
X26132Y-60029
X26190Y-41732
X26209Y-65531
X26289Y-68602
X26378Y-16052
X26378Y-16810
X26400Y-63937
X26429Y-28089
X26429Y-51639
X26439Y-22139
X26439Y-33939
X26449Y-39839
X26449Y-45739
X26449Y-57539
X26672Y-63045
X26711Y-38947
X26711Y-50747
X26721Y-44847
X26721Y-56647
X26731Y-21247
X26731Y-27197
X26731Y-33047
X26948Y-41732
X27046Y-68602
X27100Y-55450
X27105Y-65911
X27105Y-66305
X27105Y-66699
X27105Y-67093
X27950Y-49500
X28006Y-19370
X28268Y-20394
X28268Y-24961
X28268Y-26300
X28268Y-30867
X28268Y-32205
X28268Y-36772
X28268Y-38111
X28268Y-42678
X28268Y-44016
X28268Y-48583
X28268Y-49922
X28268Y-54489
X28268Y-55827
X28268Y-60394
X28268Y-61733
X28583Y-19685
X28583Y-21023
X28583Y-25590
X28583Y-26929
X28583Y-31496
X28583Y-32834
X28583Y-37401
X28583Y-38740
X28583Y-43307
X28583Y-44645
X28583Y-49212
X28583Y-50551
X28583Y-55118
X28583Y-56456
X28583Y-61023
X28583Y-62362
X28898Y-20394
X28898Y-24961
X28898Y-26300
X28898Y-30867
X28898Y-32205
X28898Y-36772
X28898Y-38111
X28898Y-42678
X28898Y-44016
X28898Y-48583
X28898Y-49922
X28898Y-54489
X28898Y-55827
X28898Y-60394
X28898Y-61733
X28898Y-19059
X28917Y-16178
X29213Y-19685
X29213Y-21023
X29213Y-25590
X29213Y-26929
X29213Y-31496
X29213Y-32834
X29213Y-37401
X29213Y-38740
X29213Y-43307
X29213Y-44645
X29213Y-49212
X29213Y-50551
X29213Y-55118
X29213Y-56456
X29213Y-61023
X29213Y-62362
X29528Y-19056
X29528Y-20394
X29528Y-24961
X29528Y-26300
X29528Y-30867
X29528Y-32205
X29528Y-36772
X29528Y-38111
X29528Y-42678
X29528Y-44016
X29528Y-48583
X29528Y-49922
X29528Y-54489
X29528Y-55827
X29528Y-60394
X29528Y-61733
X29705Y-17022
X29843Y-19685
X29843Y-21023
X29843Y-25590
X29843Y-26929
X29843Y-31496
X29843Y-32834
X29843Y-37401
X29843Y-38740
X29843Y-43307
X29843Y-44645
X29843Y-49212
X29843Y-50551
X29843Y-55118
X29843Y-56456
X29843Y-61023
X29843Y-62362
X30157Y-19056
X30157Y-20394
X30157Y-24961
X30157Y-26300
X30157Y-30867
X30157Y-32205
X30157Y-36772
X30157Y-38111
X30157Y-42678
X30157Y-44016
X30157Y-48583
X30157Y-49922
X30157Y-54489
X30157Y-55827
X30157Y-60394
X30157Y-61733
X30472Y-19685
X30472Y-21023
X30472Y-25590
X30472Y-26929
X30472Y-31496
X30472Y-32834
X30472Y-37401
X30472Y-38740
X30472Y-43307
X30472Y-44645
X30472Y-49212
X30472Y-50551
X30472Y-55118
X30472Y-56456
X30472Y-61023
X30472Y-62362
X30787Y-19056
X30787Y-20394
X30787Y-24961
X30787Y-26300
X30787Y-30867
X30787Y-32205
X30787Y-36772
X30787Y-38111
X30787Y-42678
X30787Y-44016
X30787Y-48583
X30787Y-49922
X30787Y-54489
X30787Y-55827
X30787Y-60394
X30787Y-61733
X30939Y-64115
X30939Y-66425
X30939Y-66715
X30939Y-68902
X30988Y-15900
X30988Y-17081
X30988Y-17573
X31093Y-62362
X31102Y-19685
X31102Y-21023
X31102Y-25590
X31102Y-26929
X31102Y-31496
X31102Y-32834
X31102Y-37401
X31102Y-38740
X31102Y-43307
X31102Y-44645
X31102Y-49212
X31102Y-50551
X31102Y-55118
X31102Y-56456
X31102Y-61023
X31417Y-19056
X31417Y-20394
X31417Y-24961
X31417Y-26300
X31417Y-30867
X31417Y-32205
X31417Y-36772
X31417Y-38111
X31417Y-42678
X31417Y-44016
X31417Y-48583
X31417Y-49922
X31417Y-54489
X31417Y-55827
X31417Y-60394
X31417Y-61733
X31438Y-66579
X31439Y-64115
X31439Y-66302
X31439Y-68902
X31732Y-19685
X31732Y-21023
X31732Y-25590
X31732Y-26929
X31732Y-31496
X31732Y-32834
X31732Y-37401
X31732Y-38740
X31732Y-43307
X31732Y-44645
X31732Y-49212
X31732Y-50551
X31732Y-55118
X31732Y-56456
X31732Y-61023
X31732Y-62362
X31939Y-64102
X31939Y-66425
X31939Y-66702
X31939Y-68902
X32047Y-19056
X32047Y-20394
X32047Y-24961
X32047Y-26300
X32047Y-30867
X32047Y-32205
X32047Y-36772
X32047Y-38111
X32047Y-42678
X32047Y-44016
X32047Y-48583
X32047Y-49922
X32047Y-54489
X32047Y-55827
X32047Y-60394
X32047Y-61733
X32352Y-62362
X32362Y-19685
X32362Y-21023
X32362Y-25590
X32362Y-26929
X32362Y-31496
X32362Y-32834
X32362Y-37401
X32362Y-38740
X32362Y-43307
X32362Y-44645
X32362Y-49212
X32362Y-50551
X32362Y-55118
X32362Y-56456
X32362Y-61023
X32438Y-66579
X32439Y-64115
X32439Y-66302
X32439Y-68902
X32677Y-19056
X32677Y-20394
X32677Y-24961
X32677Y-26300
X32677Y-30867
X32677Y-32205
X32677Y-36772
X32677Y-38111
X32677Y-42678
X32677Y-44016
X32677Y-48583
X32677Y-49922
X32677Y-54489
X32677Y-55827
X32677Y-60394
X32677Y-61733
X32939Y-64102
X32939Y-66425
X32939Y-66702
X32939Y-68902
X32992Y-19685
X32992Y-21023
X32992Y-25590
X32992Y-26929
X32992Y-31496
X32992Y-32834
X32992Y-37401
X32992Y-38740
X32992Y-43307
X32992Y-44645
X32992Y-49212
X32992Y-50551
X32992Y-55118
X32992Y-56456
X32992Y-61023
X32992Y-62362
X33307Y-19056
X33307Y-20394
X33307Y-24961
X33307Y-26300
X33307Y-30867
X33307Y-32205
X33307Y-36772
X33307Y-38111
X33307Y-42678
X33307Y-44016
X33307Y-48583
X33307Y-49922
X33307Y-54489
X33307Y-55827
X33307Y-60394
X33307Y-61733
X33438Y-66579
X33439Y-64115
X33439Y-66302
X33439Y-68902
X33612Y-62362
X33622Y-19685
X33622Y-21023
X33622Y-25590
X33622Y-26929
X33622Y-31496
X33622Y-32834
X33622Y-37401
X33622Y-38740
X33622Y-43307
X33622Y-44645
X33622Y-49212
X33622Y-50551
X33622Y-55118
X33622Y-56456
X33622Y-61023
X33937Y-19056
X33937Y-20394
X33937Y-24961
X33937Y-26300
X33937Y-30867
X33937Y-32205
X33937Y-36772
X33937Y-38111
X33937Y-42678
X33937Y-44016
X33937Y-48583
X33937Y-49922
X33937Y-54489
X33937Y-55827
X33937Y-60394
X33937Y-61733
X33939Y-64102
X33939Y-66425
X33939Y-66702
X33939Y-68902
X34252Y-19685
X34252Y-21023
X34252Y-25590
X34252Y-26929
X34252Y-31496
X34252Y-32834
X34252Y-37401
X34252Y-38740
X34252Y-43307
X34252Y-44645
X34252Y-49212
X34252Y-50551
X34252Y-55118
X34252Y-56456
X34252Y-61023
X34252Y-62362
X34438Y-66579
X34439Y-64115
X34439Y-66302
X34439Y-68902
X34567Y-19056
X34567Y-20394
X34567Y-24961
X34567Y-26300
X34567Y-30867
X34567Y-32205
X34567Y-36772
X34567Y-38111
X34567Y-42678
X34567Y-44016
X34567Y-48583
X34567Y-49922
X34567Y-54489
X34567Y-55827
X34567Y-60394
X34567Y-61733
X34872Y-62362
X34882Y-19685
X34882Y-21023
X34882Y-25590
X34882Y-26929
X34882Y-31496
X34882Y-32834
X34882Y-37401
X34882Y-38740
X34882Y-43307
X34882Y-44645
X34882Y-49212
X34882Y-50551
X34882Y-55118
X34882Y-56456
X34882Y-61023
X34939Y-64102
X34939Y-66425
X34939Y-66702
X34939Y-68902
X35197Y-19056
X35197Y-20394
X35197Y-24961
X35197Y-26300
X35197Y-30867
X35197Y-32205
X35197Y-36772
X35197Y-38111
X35197Y-42678
X35197Y-44016
X35197Y-48583
X35197Y-49922
X35197Y-54489
X35197Y-55827
X35197Y-60394
X35197Y-61733
X35438Y-66579
X35439Y-64115
X35439Y-66302
X35439Y-68902
X35512Y-19685
X35512Y-21023
X35512Y-25590
X35512Y-26929
X35512Y-31496
X35512Y-32834
X35512Y-37401
X35512Y-38740
X35512Y-43307
X35512Y-44645
X35512Y-49212
X35512Y-50551
X35512Y-55118
X35512Y-56456
X35512Y-61023
X35512Y-62362
X35827Y-19056
X35827Y-20394
X35827Y-24961
X35827Y-26300
X35827Y-30867
X35827Y-32205
X35827Y-36772
X35827Y-38111
X35827Y-42678
X35827Y-44016
X35827Y-48583
X35827Y-49922
X35827Y-54489
X35827Y-55827
X35827Y-60394
X35827Y-61733
X35939Y-64106
X35939Y-66425
X35939Y-66706
X35939Y-68902
X36142Y-19685
X36142Y-21023
X36142Y-25590
X36142Y-26929
X36142Y-31496
X36142Y-32834
X36142Y-37401
X36142Y-38740
X36142Y-43307
X36142Y-44645
X36142Y-49212
X36142Y-50551
X36142Y-55118
X36142Y-56456
X36142Y-61023
X36142Y-62362
X36438Y-66579
X36439Y-64115
X36439Y-66302
X36439Y-68902
X36457Y-19056
X36457Y-20394
X36457Y-24961
X36457Y-26300
X36457Y-30867
X36457Y-32205
X36457Y-36772
X36457Y-38111
X36457Y-42678
X36457Y-44016
X36457Y-48583
X36457Y-49922
X36457Y-54489
X36457Y-55827
X36457Y-60394
X36457Y-61733
X36772Y-19685
X36772Y-21024
X36772Y-25590
X36772Y-26930
X36772Y-31496
X36772Y-32835
X36772Y-37401
X36772Y-38741
X36772Y-43307
X36772Y-44646
X36772Y-49212
X36772Y-50552
X36772Y-55118
X36772Y-56457
X36772Y-61023
X36772Y-62363
X36939Y-64102
X36939Y-66425
X36939Y-66702
X36939Y-68902
X37087Y-19056
X37087Y-20394
X37087Y-24961
X37087Y-26300
X37087Y-30867
X37087Y-32205
X37087Y-36772
X37087Y-38111
X37087Y-42678
X37087Y-44016
X37087Y-48583
X37087Y-49922
X37087Y-54489
X37087Y-55827
X37087Y-60394
X37087Y-61733
X37402Y-19685
X37402Y-21024
X37402Y-25591
X37402Y-26930
X37402Y-31496
X37402Y-32835
X37402Y-37402
X37402Y-38741
X37402Y-43307
X37402Y-44646
X37402Y-49213
X37402Y-50552
X37402Y-55119
X37402Y-56457
X37402Y-61024
X37402Y-62363
X37438Y-66579
X37439Y-64115
X37439Y-66302
X37439Y-68902
X37717Y-19056
X37717Y-20394
X37717Y-24961
X37717Y-26300
X37717Y-30867
X37717Y-32205
X37717Y-36772
X37717Y-38111
X37717Y-42678
X37717Y-44016
X37717Y-48583
X37717Y-49922
X37717Y-54489
X37717Y-55827
X37717Y-60394
X37717Y-61733
X37939Y-64102
X37939Y-66425
X37939Y-66702
X37939Y-68902
X38031Y-19685
X38031Y-21024
X38031Y-25591
X38031Y-26930
X38031Y-31496
X38031Y-32835
X38031Y-37402
X38031Y-38741
X38031Y-43307
X38031Y-44646
X38031Y-49213
X38031Y-50552
X38031Y-55119
X38031Y-56457
X38031Y-61024
X38031Y-62363
X38438Y-66579
X38439Y-64115
X38439Y-66302
X38439Y-68902
X38939Y-64102
X38939Y-66425
X38939Y-66702
X38939Y-68902
X39435Y-66302
X39438Y-66579
X39439Y-64115
X39439Y-68902
X39606Y-19056
X39606Y-20394
X39606Y-24961
X39606Y-26300
X39606Y-30867
X39606Y-32205
X39606Y-36772
X39606Y-38111
X39606Y-42678
X39606Y-44016
X39606Y-48583
X39606Y-49922
X39606Y-54489
X39606Y-55827
X39606Y-60394
X39606Y-61733
X39921Y-19685
X39921Y-21023
X39921Y-25590
X39921Y-26929
X39921Y-31496
X39921Y-32834
X39921Y-37401
X39921Y-38740
X39921Y-43307
X39921Y-44645
X39921Y-49212
X39921Y-50551
X39921Y-55118
X39921Y-56456
X39921Y-61023
X39921Y-62362
X39939Y-64102
X39939Y-66425
X39939Y-66702
X39939Y-68902
X40236Y-19056
X40236Y-20394
X40236Y-24961
X40236Y-26300
X40236Y-30867
X40236Y-32205
X40236Y-36772
X40236Y-38111
X40236Y-42678
X40236Y-44016
X40236Y-48583
X40236Y-49922
X40236Y-54489
X40236Y-55827
X40236Y-60394
X40236Y-61733
X40438Y-66579
X40439Y-64115
X40439Y-66298
X40439Y-68898
X40551Y-19685
X40551Y-21023
X40551Y-25590
X40551Y-26929
X40551Y-31496
X40551Y-32834
X40551Y-37401
X40551Y-38740
X40551Y-43307
X40551Y-44645
X40551Y-49212
X40551Y-50551
X40551Y-55118
X40551Y-56456
X40551Y-61023
X40551Y-62362
X40866Y-19056
X40866Y-20394
X40866Y-24961
X40866Y-26300
X40866Y-30867
X40866Y-32205
X40866Y-36772
X40866Y-38111
X40866Y-42678
X40866Y-44016
X40866Y-48583
X40866Y-49922
X40866Y-54489
X40866Y-55827
X40866Y-60394
X40866Y-61733
X40939Y-64102
X40939Y-66425
X40939Y-66702
X40939Y-68902
X41181Y-19685
X41181Y-21023
X41181Y-25590
X41181Y-26929
X41181Y-31496
X41181Y-32834
X41181Y-37401
X41181Y-38740
X41181Y-43307
X41181Y-44645
X41181Y-49212
X41181Y-50551
X41181Y-55118
X41181Y-56456
X41181Y-61023
X41181Y-62362
X41438Y-66579
X41439Y-64115
X41439Y-66302
X41439Y-68902
X41496Y-19056
X41496Y-20394
X41496Y-24961
X41496Y-26300
X41496Y-30867
X41496Y-32205
X41496Y-36772
X41496Y-38111
X41496Y-42678
X41496Y-44016
X41496Y-48583
X41496Y-49922
X41496Y-54489
X41496Y-55827
X41496Y-60394
X41496Y-61733
X41811Y-19685
X41811Y-21023
X41811Y-25590
X41811Y-26929
X41811Y-31496
X41811Y-32834
X41811Y-37401
X41811Y-38740
X41811Y-43307
X41811Y-44645
X41811Y-49212
X41811Y-50551
X41811Y-55118
X41811Y-56456
X41811Y-61023
X41811Y-62362
X41939Y-64102
X41939Y-66425
X41939Y-66702
X41939Y-68902
X42126Y-19056
X42126Y-20394
X42126Y-24961
X42126Y-26300
X42126Y-30867
X42126Y-32205
X42126Y-36772
X42126Y-38111
X42126Y-42678
X42126Y-44016
X42126Y-48583
X42126Y-49922
X42126Y-54489
X42126Y-55827
X42126Y-60394
X42126Y-61733
X42438Y-66579
X42439Y-64115
X42439Y-66302
X42439Y-68902
X42441Y-19685
X42441Y-21023
X42441Y-25590
X42441Y-26929
X42441Y-31496
X42441Y-32834
X42441Y-37401
X42441Y-38740
X42441Y-43307
X42441Y-44645
X42441Y-49212
X42441Y-50551
X42441Y-55118
X42441Y-56456
X42441Y-61023
X42441Y-62362
X42756Y-19056
X42756Y-20394
X42756Y-24961
X42756Y-26300
X42756Y-30867
X42756Y-32205
X42756Y-36772
X42756Y-38111
X42756Y-42678
X42756Y-44016
X42756Y-48583
X42756Y-49922
X42756Y-54489
X42756Y-55827
X42756Y-60394
X42756Y-61733
X42939Y-64102
X42939Y-66425
X42939Y-66702
X42939Y-68902
X43071Y-19685
X43071Y-21023
X43071Y-25590
X43071Y-26929
X43071Y-31496
X43071Y-32834
X43071Y-37401
X43071Y-38740
X43071Y-43307
X43071Y-44645
X43071Y-49212
X43071Y-50551
X43071Y-55118
X43071Y-56456
X43071Y-61023
X43071Y-62362
X43386Y-19056
X43386Y-20394
X43386Y-24961
X43386Y-26300
X43386Y-30867
X43386Y-32205
X43386Y-36772
X43386Y-38111
X43386Y-42678
X43386Y-44016
X43386Y-48583
X43386Y-49922
X43386Y-54489
X43386Y-55827
X43386Y-60394
X43386Y-61733
X43438Y-66579
X43439Y-64115
X43439Y-66302
X43439Y-68902
X43701Y-19685
X43701Y-21023
X43701Y-25590
X43701Y-26929
X43701Y-31496
X43701Y-32834
X43701Y-37401
X43701Y-38740
X43701Y-43307
X43701Y-44645
X43701Y-49212
X43701Y-50551
X43701Y-55118
X43701Y-56456
X43701Y-61023
X43701Y-62362
X43939Y-66425
X43939Y-68902
X43951Y-64105
X43957Y-66702
X44016Y-19056
X44016Y-20394
X44016Y-24961
X44016Y-26300
X44016Y-30867
X44016Y-32205
X44016Y-36772
X44016Y-38111
X44016Y-42678
X44016Y-44016
X44016Y-48583
X44016Y-49922
X44016Y-54489
X44016Y-55827
X44016Y-60394
X44016Y-61733
X44331Y-19685
X44331Y-21023
X44331Y-25590
X44331Y-26929
X44331Y-31496
X44331Y-32834
X44331Y-37401
X44331Y-38740
X44331Y-43307
X44331Y-44645
X44331Y-49212
X44331Y-50551
X44331Y-55118
X44331Y-56456
X44331Y-61023
X44331Y-62362
X44438Y-66579
X44439Y-64115
X44439Y-66302
X44439Y-68902
X44646Y-19056
X44646Y-20394
X44646Y-24961
X44646Y-26300
X44646Y-30867
X44646Y-32205
X44646Y-36772
X44646Y-38111
X44646Y-42678
X44646Y-44016
X44646Y-48583
X44646Y-49922
X44646Y-54489
X44646Y-55827
X44646Y-60394
X44646Y-61733
X44939Y-64102
X44939Y-66425
X44939Y-66702
X44939Y-68902
X44961Y-19685
X44961Y-21016
X44961Y-25591
X44961Y-26921
X44961Y-31496
X44961Y-32827
X44961Y-37402
X44961Y-38732
X44961Y-43307
X44961Y-44638
X44961Y-49213
X44961Y-50543
X44961Y-55119
X44961Y-56449
X44961Y-61024
X44961Y-62354
X45276Y-19056
X45276Y-20394
X45276Y-24961
X45276Y-26300
X45276Y-30867
X45276Y-32205
X45276Y-36772
X45276Y-38111
X45276Y-42678
X45276Y-44016
X45276Y-48583
X45276Y-49922
X45276Y-54489
X45276Y-55827
X45276Y-60394
X45276Y-61733
X45438Y-66579
X45439Y-64102
X45439Y-66289
X45439Y-68889
X45591Y-19685
X45591Y-21023
X45591Y-25590
X45591Y-26929
X45591Y-31496
X45591Y-32834
X45591Y-37401
X45591Y-38740
X45591Y-43307
X45591Y-44645
X45591Y-49212
X45591Y-50551
X45591Y-55118
X45591Y-56456
X45591Y-61023
X45591Y-62362
X45906Y-19056
X45906Y-20394
X45906Y-24961
X45906Y-26300
X45906Y-30867
X45906Y-32205
X45906Y-36772
X45906Y-38111
X45906Y-42678
X45906Y-44016
X45906Y-48583
X45906Y-49922
X45906Y-54489
X45906Y-55827
X45906Y-60394
X45906Y-61733
X46205Y-62363
X46220Y-19685
X46220Y-21023
X46220Y-25590
X46220Y-26929
X46220Y-31496
X46220Y-32834
X46220Y-37401
X46220Y-38740
X46220Y-43307
X46220Y-44645
X46220Y-49212
X46220Y-50551
X46220Y-55118
X46220Y-56456
X46220Y-61023
X46372Y-67472
X46535Y-19056
X46535Y-20394
X46535Y-24961
X46535Y-26300
X46535Y-30867
X46535Y-32205
X46535Y-36772
X46535Y-38111
X46535Y-42678
X46535Y-44016
X46535Y-48583
X46535Y-49922
X46535Y-54489
X46535Y-55827
X46535Y-60394
X46535Y-61733
X46802Y-64402
X46850Y-19685
X46850Y-21023
X46850Y-25590
X46850Y-26929
X46850Y-31496
X46850Y-32834
X46850Y-37401
X46850Y-38740
X46850Y-43307
X46850Y-44645
X46850Y-49212
X46850Y-50551
X46850Y-55118
X46850Y-56456
X46850Y-61023
X46851Y-62361
X47165Y-19056
X47165Y-20394
X47165Y-24961
X47165Y-26300
X47165Y-30867
X47165Y-32205
X47165Y-36772
X47165Y-38111
X47165Y-42678
X47165Y-44016
X47165Y-48583
X47165Y-49922
X47165Y-54489
X47165Y-55827
X47165Y-60394
X47165Y-61733
X47480Y-19685
X47480Y-21023
X47480Y-25590
X47480Y-26929
X47480Y-31496
X47480Y-32834
X47480Y-37401
X47480Y-38740
X47480Y-43307
X47480Y-44645
X47480Y-49212
X47480Y-50551
X47480Y-55118
X47480Y-56456
X47480Y-61023
X47480Y-62362
X47795Y-19056
X47795Y-20394
X47795Y-24961
X47795Y-26300
X47795Y-30867
X47795Y-32205
X47795Y-36772
X47795Y-38111
X47795Y-42678
X47795Y-44016
X47795Y-48583
X47795Y-49922
X47795Y-54489
X47795Y-55827
X47795Y-60394
X47795Y-61733
X47795Y-62676
X48110Y-19685
X48110Y-21023
X48110Y-25590
X48110Y-26929
X48110Y-31496
X48110Y-32834
X48110Y-37401
X48110Y-38740
X48110Y-43307
X48110Y-44645
X48110Y-49212
X48110Y-50551
X48110Y-55118
X48110Y-56456
X48110Y-61023
X48110Y-62362
X48850Y-60650
X49100Y-23800
X49273Y-65911
X49273Y-66305
X49273Y-66699
X49273Y-67093
X49517Y-41732
X49517Y-68602
X49803Y-16064
X49803Y-16822
X50246Y-60099
X50275Y-41732
X50275Y-68602
X50451Y-65531
X50453Y-66280
X51033Y-24667
X51033Y-60099
X51427Y-24667
X51427Y-60099
X51821Y-24667
X51821Y-60099
X52028Y-66280
X52215Y-24667
X52215Y-60099
T2
X23469Y-48272
T3
X24409Y-16102
X24409Y-41693
X24409Y-68071
X51969Y-16102
X51969Y-41693
X51969Y-68071
T0
M30
