G04 #@! TF.GenerationSoftware,KiCad,Pcbnew,(6.0.5)*
G04 #@! TF.CreationDate,2022-05-10T11:54:52-04:00*
G04 #@! TF.ProjectId,backplane,6261636b-706c-4616-9e65-2e6b69636164,A1*
G04 #@! TF.SameCoordinates,Original*
G04 #@! TF.FileFunction,Soldermask,Bot*
G04 #@! TF.FilePolarity,Negative*
%FSLAX46Y46*%
G04 Gerber Fmt 4.6, Leading zero omitted, Abs format (unit mm)*
G04 Created by KiCad (PCBNEW (6.0.5)) date 2022-05-10 11:54:52*
%MOMM*%
%LPD*%
G01*
G04 APERTURE LIST*
%ADD10C,1.000000*%
%ADD11C,1.500000*%
%ADD12C,1.270000*%
%ADD13C,5.334000*%
%ADD14C,0.609600*%
%ADD15C,0.740000*%
%ADD16R,0.650000X0.700000*%
G04 APERTURE END LIST*
D10*
X60070009Y-156999993D03*
D11*
X65770009Y-154409993D03*
D10*
X63870009Y-156999993D03*
X61470009Y-154799993D03*
D12*
X70300009Y-157399993D03*
D10*
X67670009Y-156999993D03*
D12*
X123700009Y-155899993D03*
D10*
X60070000Y-142000000D03*
D11*
X65770000Y-139410000D03*
D10*
X67670000Y-142000000D03*
X61470000Y-139800000D03*
D12*
X123700000Y-140900000D03*
D10*
X63870000Y-142000000D03*
D12*
X70300000Y-142400000D03*
D10*
X60070000Y-127000000D03*
D12*
X70300000Y-127400000D03*
D10*
X61470000Y-124800000D03*
D11*
X65770000Y-124410000D03*
D12*
X123700000Y-125900000D03*
D10*
X67670000Y-127000000D03*
X63870000Y-127000000D03*
X61470000Y-109800000D03*
X67670000Y-112000000D03*
X63870000Y-112000000D03*
D11*
X65770000Y-109410000D03*
D12*
X123700000Y-110900000D03*
D10*
X60070000Y-112000000D03*
D12*
X70300000Y-112400000D03*
D10*
X60070000Y-97000000D03*
D12*
X123700000Y-95900000D03*
D10*
X67670000Y-97000000D03*
D12*
X70300000Y-97400000D03*
D11*
X65770000Y-94410000D03*
D10*
X63870000Y-97000000D03*
X61470000Y-94800000D03*
D12*
X70300000Y-82400000D03*
D10*
X60070000Y-82000000D03*
D11*
X65770000Y-79410000D03*
D10*
X67670000Y-82000000D03*
X63870000Y-82000000D03*
D12*
X123700000Y-80900000D03*
D10*
X61470000Y-79800000D03*
X63870000Y-67000000D03*
D12*
X70300000Y-67400000D03*
D11*
X65770000Y-64410000D03*
D12*
X123700000Y-65900000D03*
D10*
X67670000Y-67000000D03*
X60070000Y-67000000D03*
X61470000Y-64800000D03*
X61470000Y-49800000D03*
X60070000Y-52000000D03*
D11*
X65770000Y-49410000D03*
D12*
X123700000Y-50900000D03*
D10*
X67670000Y-52000000D03*
D12*
X70300000Y-52400000D03*
D10*
X63870000Y-52000000D03*
D13*
X62000000Y-40900000D03*
X62000000Y-172900000D03*
X132000000Y-172900000D03*
X132000000Y-105900000D03*
X62000000Y-105900000D03*
X132000000Y-40900000D03*
D14*
X102715000Y-171582000D03*
X96365000Y-171582000D03*
X111605000Y-172852000D03*
X97635000Y-172852000D03*
X98905000Y-171582000D03*
X91285000Y-172852000D03*
X92555000Y-171582000D03*
X83665000Y-172852000D03*
X79855000Y-172852000D03*
X96365000Y-172852000D03*
X92555000Y-172852000D03*
X103985000Y-171582000D03*
X79855000Y-171582000D03*
X97635000Y-171582000D03*
X105255000Y-172852000D03*
D15*
X114780000Y-172217000D03*
D14*
X114145000Y-171582000D03*
X100175000Y-172852000D03*
X93825000Y-171582000D03*
X98905000Y-172852000D03*
X101445000Y-171582000D03*
X95095000Y-171582000D03*
X114145000Y-172852000D03*
X115415000Y-172852000D03*
X107795000Y-172852000D03*
X106525000Y-171582000D03*
D15*
X79220000Y-172217000D03*
D14*
X88745000Y-172852000D03*
X84935000Y-171582000D03*
X86205000Y-171582000D03*
X78585000Y-172852000D03*
X110335000Y-171582000D03*
X82395000Y-172852000D03*
X112875000Y-172852000D03*
X115415000Y-171582000D03*
X90015000Y-172852000D03*
X103985000Y-172852000D03*
X84935000Y-172852000D03*
X95095000Y-172852000D03*
X81125000Y-171582000D03*
X102715000Y-172852000D03*
X82395000Y-171582000D03*
X86205000Y-172852000D03*
X90015000Y-171582000D03*
X112875000Y-171582000D03*
X81125000Y-172852000D03*
X100175000Y-171582000D03*
X105255000Y-171582000D03*
X109065000Y-171582000D03*
X78585000Y-171582000D03*
X107795000Y-171582000D03*
X93825000Y-172852000D03*
X83665000Y-171582000D03*
X87475000Y-171582000D03*
X111605000Y-171582000D03*
X110335000Y-172852000D03*
X91285000Y-171582000D03*
X106525000Y-172852000D03*
X109065000Y-172852000D03*
X87475000Y-172852000D03*
X101445000Y-172852000D03*
X88745000Y-171582000D03*
X92555000Y-164978000D03*
X115415000Y-164978000D03*
X105255000Y-166248000D03*
X83665000Y-164978000D03*
X86205000Y-164978000D03*
X91285000Y-164978000D03*
X112875000Y-164978000D03*
X84935000Y-166248000D03*
X106525000Y-164978000D03*
X88745000Y-166248000D03*
X93825000Y-164978000D03*
X101445000Y-164978000D03*
X95095000Y-166248000D03*
X84935000Y-164978000D03*
D15*
X114780000Y-165613000D03*
D14*
X96365000Y-166248000D03*
X114145000Y-166248000D03*
X111605000Y-164978000D03*
X79855000Y-164978000D03*
X92555000Y-166248000D03*
X115415000Y-166248000D03*
X81125000Y-164978000D03*
X90015000Y-166248000D03*
X105255000Y-164978000D03*
X91285000Y-166248000D03*
X102715000Y-164978000D03*
X81125000Y-166248000D03*
X111605000Y-166248000D03*
X100175000Y-164978000D03*
X102715000Y-166248000D03*
X83665000Y-166248000D03*
X82395000Y-164978000D03*
X112875000Y-166248000D03*
X103985000Y-166248000D03*
X98905000Y-166248000D03*
X87475000Y-166248000D03*
D15*
X79220000Y-165613000D03*
D14*
X101445000Y-166248000D03*
X97635000Y-164978000D03*
X109065000Y-164978000D03*
X93825000Y-166248000D03*
X110335000Y-166248000D03*
X107795000Y-164978000D03*
X90015000Y-164978000D03*
X95095000Y-164978000D03*
X103985000Y-164978000D03*
X107795000Y-166248000D03*
X86205000Y-166248000D03*
X109065000Y-166248000D03*
X79855000Y-166248000D03*
X82395000Y-166248000D03*
X78585000Y-164978000D03*
X96365000Y-164978000D03*
X106525000Y-166248000D03*
X78585000Y-166248000D03*
X87475000Y-164978000D03*
X88745000Y-164978000D03*
X110335000Y-164978000D03*
X97635000Y-166248000D03*
X100175000Y-166248000D03*
X114145000Y-164978000D03*
X98905000Y-164978000D03*
D16*
X65325000Y-168350000D03*
X62375000Y-168350000D03*
X65325000Y-166450000D03*
X62375000Y-166450000D03*
X131625000Y-168350000D03*
X128675000Y-168350000D03*
X128675000Y-166450000D03*
X131625000Y-166450000D03*
M02*
