M48
;Layer_Color=9474304
;FILE_FORMAT=2:5
INCH,LZ
;TYPE=NON_PLATED
T3F00S00C0.03543
T4F00S00C0.03937
T5F00S00C0.05000
T6F00S00C0.05906
T7F00S00C0.06890
%
T03
X0034252Y0011122
Y0024409
X0057874
Y0011122
X0081693Y0023622
X0146653
X016437
X0172047Y0043307
X0138976
X0229331Y0023622
X025315Y0024311
Y0011024
X0276772
Y0024311
X0266929Y0119685
X03
X0044094Y0115157
X0011024
X0267323Y0474016
X0300394
T04
X0010119Y007441
X001563Y0083073
X0025079Y007441
X004004
X004004Y0133465
X002508
X0010119
X0015631Y0142128
X0010117Y0192518
X0015629Y0201181
X0025078Y0192518
X0040038
X004004Y0251575
X002508
X0010119
X0015631Y0260238
X0010119Y031063
X001563Y0319293
X0025079Y031063
X004004
X0040039Y0369683
X0025078
X0010118
X001563Y0378346
X0010118Y0428738
X001563Y0437401
X0025078Y0428738
X0040039
Y0487793
X0025078
X0010118
X001563Y0496456
T05
X026063Y007874
X0260631Y0137795
X0260629Y0196849
X0050393Y0190944
X0050394Y013189
X0050394Y0072835
X0050394Y025
X0050394Y0309055
X0050393Y0368108
X026063Y0314961
X0260631Y0255906
X026063Y0374013
Y0433069
Y0492124
X0050393Y0486218
Y0427163
T06
X0032559Y0084606
X003256Y0143661
X0032558Y0202715
X003256Y0261772
X0032559Y0320827
X0032559Y0379879
Y0438935
Y049799
T07
X0036496Y0064213
X0036497Y0123268
Y0182323
Y0241378
X0036496Y0300433
X0036496Y0359486
Y0418541
Y0477596
M30
