G04*
G04 #@! TF.GenerationSoftware,Altium Limited,Altium Designer,19.1.6 (110)*
G04*
G04 Layer_Physical_Order=1*
G04 Layer_Color=255*
%FSLAX25Y25*%
%MOIN*%
G70*
G01*
G75*
%ADD10C,0.01968*%
%ADD11C,0.01000*%
%ADD17R,0.01968X0.04724*%
%ADD18R,0.03200X0.02978*%
%ADD19R,0.02978X0.03200*%
%ADD20R,0.06500X0.01700*%
%ADD21R,0.07874X0.06299*%
G04:AMPARAMS|DCode=22|XSize=31.5mil|YSize=70.87mil|CornerRadius=7.87mil|HoleSize=0mil|Usage=FLASHONLY|Rotation=90.000|XOffset=0mil|YOffset=0mil|HoleType=Round|Shape=RoundedRectangle|*
%AMROUNDEDRECTD22*
21,1,0.03150,0.05512,0,0,90.0*
21,1,0.01575,0.07087,0,0,90.0*
1,1,0.01575,0.02756,0.00787*
1,1,0.01575,0.02756,-0.00787*
1,1,0.01575,-0.02756,-0.00787*
1,1,0.01575,-0.02756,0.00787*
%
%ADD22ROUNDEDRECTD22*%
%ADD23R,0.07087X0.03150*%
G04:AMPARAMS|DCode=24|XSize=31.5mil|YSize=70.87mil|CornerRadius=7.87mil|HoleSize=0mil|Usage=FLASHONLY|Rotation=180.000|XOffset=0mil|YOffset=0mil|HoleType=Round|Shape=RoundedRectangle|*
%AMROUNDEDRECTD24*
21,1,0.03150,0.05512,0,0,180.0*
21,1,0.01575,0.07087,0,0,180.0*
1,1,0.01575,-0.00787,0.02756*
1,1,0.01575,0.00787,0.02756*
1,1,0.01575,0.00787,-0.02756*
1,1,0.01575,-0.00787,-0.02756*
%
%ADD24ROUNDEDRECTD24*%
%ADD25R,0.03150X0.07087*%
%ADD26R,0.06299X0.07874*%
%ADD27R,0.07087X0.10236*%
%ADD28R,0.03937X0.04724*%
%ADD29R,0.03150X0.03543*%
%ADD45C,0.06890*%
%ADD46C,0.01181*%
%ADD47C,0.05906*%
%ADD48C,0.03937*%
%ADD49C,0.15748*%
%ADD50C,0.01968*%
%ADD51C,0.01575*%
G36*
X310004Y452559D02*
X298086D01*
Y454516D01*
X298237Y454617D01*
X298633Y455208D01*
X298771Y455905D01*
Y461417D01*
X298633Y462115D01*
X298437Y462408D01*
X298285Y462755D01*
X298564Y463048D01*
X298579Y463059D01*
X298800Y463389D01*
X298878Y463779D01*
Y471102D01*
X299378Y471437D01*
X299670Y471315D01*
X300394Y471220D01*
X301117Y471315D01*
X301792Y471595D01*
X302371Y472039D01*
X302815Y472618D01*
X303094Y473292D01*
X303189Y474016D01*
X303094Y474739D01*
X302815Y475414D01*
X302371Y475992D01*
X301792Y476437D01*
X301778Y476442D01*
X301769Y476465D01*
X301764Y476989D01*
X301939Y477106D01*
X302316Y477483D01*
X302537Y477814D01*
X302741Y478306D01*
X302741Y478306D01*
X302818Y478696D01*
X302818Y488553D01*
X302818Y488553D01*
X302818Y488553D01*
X302818Y488821D01*
X302741Y489212D01*
X302535Y489707D01*
X302535Y489707D01*
X302314Y490037D01*
X301935Y490416D01*
X301604Y490637D01*
X301109Y490842D01*
X300719Y490920D01*
X300451Y490920D01*
X271398Y490920D01*
X271398Y490920D01*
X271164Y490920D01*
X270774Y490842D01*
X270774Y490842D01*
X270774Y490842D01*
X270343Y490663D01*
X270012Y490442D01*
X269682Y490112D01*
X269461Y489781D01*
X269282Y489350D01*
X269204Y488959D01*
Y478789D01*
X269204Y478789D01*
X269204Y478557D01*
X269282Y478167D01*
X269459Y477739D01*
X269680Y477408D01*
X270008Y477080D01*
X270339Y476859D01*
X270767Y476682D01*
X271157Y476604D01*
X271389D01*
X298392Y476604D01*
X298562Y476104D01*
X298417Y475992D01*
X297973Y475414D01*
X297693Y474739D01*
X297598Y474016D01*
X297693Y473292D01*
X297783Y473075D01*
X297449Y472575D01*
X270267D01*
X269933Y473075D01*
X270023Y473292D01*
X270118Y474016D01*
X270023Y474739D01*
X269744Y475414D01*
X269300Y475992D01*
X268721Y476437D01*
X268046Y476716D01*
X267323Y476811D01*
X266599Y476716D01*
X265925Y476437D01*
X265346Y475992D01*
X264902Y475414D01*
X264622Y474739D01*
X264527Y474016D01*
X264622Y473292D01*
X264902Y472618D01*
X265346Y472039D01*
X265925Y471595D01*
X266599Y471315D01*
X267323Y471220D01*
X268046Y471315D01*
X268339Y471437D01*
X268839Y471102D01*
Y463779D01*
X268916Y463389D01*
X268980Y463205D01*
X268980Y463205D01*
X268980Y463205D01*
Y454118D01*
X279051D01*
Y462760D01*
X283744D01*
Y454118D01*
X284697D01*
Y452936D01*
X284663Y452901D01*
X257283D01*
Y489914D01*
X257784Y490083D01*
X258133Y489627D01*
X258864Y489066D01*
X259716Y488714D01*
X260630Y488593D01*
X261543Y488714D01*
X262395Y489066D01*
X263126Y489627D01*
X263687Y490358D01*
X264039Y491210D01*
X264160Y492124D01*
X264039Y493037D01*
X263687Y493889D01*
X263126Y494620D01*
X262395Y495181D01*
X261543Y495534D01*
X260630Y495654D01*
X259716Y495534D01*
X258864Y495181D01*
X258133Y494620D01*
X257784Y494164D01*
X257283Y494334D01*
Y506890D01*
X310004D01*
Y452559D01*
D02*
G37*
G36*
X40794Y140059D02*
X40910Y139473D01*
X41242Y138977D01*
X42959Y137260D01*
Y135359D01*
X42459Y135189D01*
X42157Y135582D01*
X41537Y136057D01*
X40815Y136357D01*
X40040Y136459D01*
X39265Y136357D01*
X38543Y136057D01*
X37923Y135582D01*
X37447Y134962D01*
X37148Y134239D01*
X37046Y133465D01*
X37148Y132690D01*
X37447Y131967D01*
X37923Y131347D01*
X38543Y130872D01*
X39265Y130572D01*
X40040Y130471D01*
X40815Y130572D01*
X41537Y130872D01*
X42109Y131310D01*
X42333Y131286D01*
X42654Y131174D01*
X42662Y131143D01*
X42488Y130970D01*
X42157Y130474D01*
X42040Y129889D01*
Y126630D01*
X40221D01*
Y126493D01*
X39748Y126332D01*
X39667Y126438D01*
X38739Y127150D01*
X37657Y127598D01*
X36497Y127751D01*
X35337Y127598D01*
X34255Y127150D01*
X33327Y126438D01*
X33246Y126332D01*
X32772Y126493D01*
Y126630D01*
X31559D01*
Y138081D01*
X31442Y138666D01*
X31111Y139162D01*
X30633Y139640D01*
X30917Y140064D01*
X31528Y139810D01*
X32560Y139675D01*
X33592Y139810D01*
X34553Y140209D01*
X35379Y140842D01*
X36013Y141668D01*
X36411Y142630D01*
X36547Y143661D01*
X36411Y144693D01*
X36013Y145655D01*
X35379Y146481D01*
X34553Y147114D01*
X33592Y147512D01*
X33447Y147531D01*
X33480Y148031D01*
X40794D01*
Y140059D01*
D02*
G37*
G36*
X53759Y147762D02*
X54258Y147263D01*
X54277Y147217D01*
Y144488D01*
X54316Y144293D01*
Y141126D01*
X54528D01*
Y135171D01*
X54431Y135026D01*
X54319Y134465D01*
X54316D01*
X54276Y134252D01*
X54277Y134250D01*
X54277Y133981D01*
Y132909D01*
X53804Y132803D01*
X53452Y133655D01*
X52891Y134386D01*
X52160Y134947D01*
X51308Y135300D01*
X50394Y135420D01*
X49481Y135300D01*
X48629Y134947D01*
X47898Y134386D01*
X47337Y133655D01*
X46985Y132803D01*
X46864Y131890D01*
X46985Y130976D01*
X47337Y130125D01*
X47898Y129393D01*
X48629Y128832D01*
X49481Y128480D01*
X50394Y128360D01*
X51308Y128480D01*
X52160Y128832D01*
X52891Y129393D01*
X53452Y130125D01*
X53804Y130976D01*
X54306Y130956D01*
X54316Y130907D01*
Y127740D01*
X54528D01*
Y100350D01*
X42472D01*
Y102559D01*
X42333Y103256D01*
X42138Y103549D01*
X41985Y103897D01*
X42265Y104190D01*
X42280Y104200D01*
X42501Y104531D01*
X42579Y104921D01*
Y112244D01*
X43079Y112578D01*
X43371Y112457D01*
X44094Y112362D01*
X44818Y112457D01*
X45492Y112736D01*
X46071Y113181D01*
X46516Y113760D01*
X46795Y114434D01*
X46890Y115157D01*
X46795Y115881D01*
X46516Y116555D01*
X46071Y117134D01*
X45492Y117578D01*
X44818Y117858D01*
X44094Y117953D01*
X43371Y117858D01*
X42697Y117578D01*
X42118Y117134D01*
X41673Y116555D01*
X41394Y115881D01*
X41299Y115157D01*
X41394Y114434D01*
X41484Y114216D01*
X41150Y113716D01*
X13968D01*
X13634Y114216D01*
X13724Y114434D01*
X13819Y115157D01*
X13724Y115881D01*
X13445Y116555D01*
X13000Y117134D01*
X12421Y117578D01*
X11747Y117858D01*
X11024Y117953D01*
X10300Y117858D01*
X9626Y117578D01*
X9047Y117134D01*
X8603Y116555D01*
X8323Y115881D01*
X8228Y115157D01*
X8323Y114434D01*
X8603Y113760D01*
X9047Y113181D01*
X9626Y112736D01*
X10300Y112457D01*
X11024Y112362D01*
X11747Y112457D01*
X12039Y112578D01*
X12539Y112244D01*
Y104921D01*
X12617Y104531D01*
X12681Y104346D01*
X12681Y104346D01*
X12681Y104346D01*
Y95260D01*
X22752D01*
Y103902D01*
X27445D01*
Y95260D01*
X28398D01*
Y94882D01*
X28521Y94261D01*
X28873Y93735D01*
X29627Y92982D01*
X29435Y92520D01*
X2953Y92520D01*
X2561Y92520D01*
X1838Y92819D01*
X1284Y93373D01*
X1020Y94011D01*
Y147013D01*
X1194Y147434D01*
X1582Y147822D01*
X2088Y148031D01*
X2362Y148031D01*
X2362Y148031D01*
X18013Y148031D01*
X18210Y147738D01*
X28500Y137447D01*
Y134057D01*
X28000Y134024D01*
X27972Y134239D01*
X27672Y134962D01*
X27197Y135582D01*
X26577Y136057D01*
X25855Y136357D01*
X25080Y136459D01*
X24305Y136357D01*
X23583Y136057D01*
X22962Y135582D01*
X22487Y134962D01*
X22187Y134239D01*
X22085Y133465D01*
X22187Y132690D01*
X22487Y131967D01*
X22962Y131347D01*
X23583Y130872D01*
X24305Y130572D01*
X25080Y130471D01*
X25855Y130572D01*
X26577Y130872D01*
X27197Y131347D01*
X27672Y131967D01*
X27972Y132690D01*
X28000Y132905D01*
X28500Y132872D01*
Y126630D01*
X26835D01*
Y119905D01*
X32772D01*
Y120042D01*
X33246Y120203D01*
X33327Y120098D01*
X34255Y119385D01*
X35337Y118937D01*
X36497Y118784D01*
X37657Y118937D01*
X38739Y119385D01*
X39667Y120098D01*
X39748Y120203D01*
X40221Y120042D01*
Y119905D01*
X46158D01*
Y126630D01*
X45099D01*
Y129255D01*
X45570Y129726D01*
X45901Y130222D01*
X46018Y130807D01*
Y137894D01*
X45901Y138479D01*
X45570Y138975D01*
X43853Y140692D01*
Y148031D01*
X53108Y148031D01*
X53759Y147762D01*
D02*
G37*
G36*
X308071Y152559D02*
X308071Y152559D01*
X308071D01*
X308532Y152522D01*
X309130Y152274D01*
X309656Y151748D01*
X309941Y151061D01*
X309941Y150689D01*
X309941Y99311D01*
X309941Y99311D01*
X309941Y99057D01*
X309746Y98586D01*
X309386Y98226D01*
X308916Y98032D01*
X297889D01*
Y100354D01*
X298239Y100877D01*
X298377Y101575D01*
Y107087D01*
X298239Y107784D01*
X298043Y108077D01*
X297891Y108424D01*
X298170Y108718D01*
X298185Y108728D01*
X298407Y109059D01*
X298484Y109449D01*
Y116772D01*
X298984Y117106D01*
X299276Y116985D01*
X300000Y116890D01*
X300724Y116985D01*
X301398Y117264D01*
X301977Y117708D01*
X302421Y118287D01*
X302700Y118962D01*
X302796Y119685D01*
X302700Y120409D01*
X302421Y121083D01*
X301977Y121662D01*
X301549Y121990D01*
X301565Y122470D01*
X301603Y122554D01*
X301610Y122557D01*
X301610Y122557D01*
X301940Y122778D01*
X302317Y123154D01*
X302538Y123485D01*
X302742Y123977D01*
X302742Y123977D01*
X302820Y124368D01*
X302820Y134225D01*
X302820Y134225D01*
X302820Y134225D01*
X302820Y134493D01*
X302742Y134883D01*
X302537Y135378D01*
X302537Y135378D01*
X302315Y135709D01*
X301936Y136088D01*
X301606Y136309D01*
X301110Y136514D01*
X300720Y136591D01*
X300452Y136591D01*
X271399Y136591D01*
X271399Y136591D01*
X271166Y136591D01*
X270776Y136514D01*
X270776Y136514D01*
X270776Y136514D01*
X270344Y136335D01*
X270013Y136114D01*
X269683Y135784D01*
X269462Y135453D01*
X269283Y135021D01*
X269205Y134631D01*
Y124460D01*
X269205Y124460D01*
X269205Y124229D01*
X269283Y123839D01*
X269460Y123410D01*
X269681Y123080D01*
X270009Y122752D01*
X270340Y122531D01*
X270768Y122353D01*
X271158Y122276D01*
X271390D01*
X298002Y122275D01*
X298171Y121775D01*
X298023Y121662D01*
X297579Y121083D01*
X297300Y120409D01*
X297204Y119685D01*
X297300Y118962D01*
X297390Y118744D01*
X297056Y118244D01*
X269873D01*
X269539Y118744D01*
X269629Y118962D01*
X269725Y119685D01*
X269629Y120409D01*
X269350Y121083D01*
X268906Y121662D01*
X268327Y122106D01*
X267653Y122385D01*
X266929Y122481D01*
X266206Y122385D01*
X265531Y122106D01*
X264952Y121662D01*
X264508Y121083D01*
X264229Y120409D01*
X264134Y119685D01*
X264229Y118962D01*
X264508Y118287D01*
X264952Y117708D01*
X265531Y117264D01*
X266206Y116985D01*
X266929Y116890D01*
X267653Y116985D01*
X267945Y117106D01*
X268445Y116772D01*
Y109449D01*
X268523Y109059D01*
X268587Y108874D01*
X268587Y108874D01*
X268587Y108874D01*
Y99787D01*
X278658D01*
Y108429D01*
X283350D01*
Y99787D01*
X284303D01*
Y98605D01*
X283777Y98078D01*
X261498D01*
X257283Y102293D01*
X257283Y135587D01*
X257784Y135757D01*
X258135Y135299D01*
X258866Y134738D01*
X259717Y134385D01*
X260631Y134265D01*
X261544Y134385D01*
X262396Y134738D01*
X263127Y135299D01*
X263688Y136030D01*
X264041Y136882D01*
X264161Y137795D01*
X264041Y138709D01*
X263688Y139560D01*
X263127Y140292D01*
X262396Y140852D01*
X261544Y141205D01*
X260631Y141325D01*
X259717Y141205D01*
X258866Y140852D01*
X258135Y140292D01*
X257784Y139834D01*
X257283Y140004D01*
Y151297D01*
X257523Y151876D01*
X257966Y152319D01*
X258546Y152559D01*
X258859D01*
X308071Y152559D01*
X308071Y152559D01*
D02*
G37*
G36*
X309442Y47428D02*
X309830Y47040D01*
X310004Y46619D01*
Y2483D01*
X309745Y1858D01*
X309201Y1314D01*
X308491Y1020D01*
X2533D01*
X1822Y1314D01*
X1279Y1858D01*
X1020Y2483D01*
Y45831D01*
X1344Y46614D01*
X1992Y47261D01*
X2064Y47228D01*
X2420Y46907D01*
Y45099D01*
X4520D01*
Y47088D01*
X3444D01*
X3213Y47588D01*
X3256Y47638D01*
X3346D01*
X3347Y47638D01*
X47823D01*
X47985Y47441D01*
Y22787D01*
X46850D01*
X46153Y22648D01*
X45562Y22253D01*
X45139Y22520D01*
X44878Y22694D01*
X44488Y22772D01*
X37087D01*
X37086Y22772D01*
X36781Y23271D01*
X36952Y23686D01*
X37047Y24409D01*
X36952Y25133D01*
X36673Y25807D01*
X36229Y26386D01*
X35650Y26831D01*
X34975Y27110D01*
X34252Y27205D01*
X33528Y27110D01*
X32854Y26831D01*
X32275Y26386D01*
X31831Y25807D01*
X31552Y25133D01*
X31456Y24409D01*
X31552Y23686D01*
X31831Y23012D01*
X32275Y22433D01*
X32854Y21988D01*
X33528Y21709D01*
X34252Y21614D01*
X34975Y21709D01*
X35211Y21807D01*
X35221Y21806D01*
X35693Y21465D01*
Y14066D01*
X35193Y13732D01*
X34975Y13822D01*
X34252Y13918D01*
X33528Y13822D01*
X32854Y13543D01*
X32275Y13099D01*
X31831Y12520D01*
X31552Y11846D01*
X31456Y11122D01*
X31552Y10398D01*
X31831Y9724D01*
X32275Y9145D01*
X32854Y8701D01*
X33528Y8422D01*
X34252Y8326D01*
X34975Y8422D01*
X35650Y8701D01*
X36229Y9145D01*
X36673Y9724D01*
X36952Y10398D01*
X37047Y11122D01*
X36952Y11846D01*
X36821Y12162D01*
X37156Y12662D01*
X44488D01*
X44565Y12677D01*
X45063Y12681D01*
X45063Y12681D01*
X45063Y12681D01*
X54150D01*
Y13331D01*
X54626D01*
X55400Y13485D01*
X56056Y13924D01*
X56495Y14580D01*
X56649Y15354D01*
X56495Y16128D01*
X56056Y16785D01*
X55400Y17223D01*
X54626Y17377D01*
X54150D01*
Y17831D01*
X54071D01*
X53804Y18331D01*
X54046Y18692D01*
X54185Y19390D01*
Y20965D01*
X54046Y21662D01*
X53651Y22253D01*
X53060Y22648D01*
X52362Y22787D01*
X51228D01*
Y46769D01*
X52097Y47638D01*
X140634Y47638D01*
Y46122D01*
X140134Y45828D01*
X139700Y46007D01*
X138976Y46103D01*
X138253Y46007D01*
X137579Y45728D01*
X137000Y45284D01*
X136555Y44705D01*
X136276Y44031D01*
X136181Y43307D01*
X136276Y42584D01*
X136555Y41909D01*
X137000Y41330D01*
X137579Y40886D01*
X138253Y40607D01*
X138976Y40512D01*
X139700Y40607D01*
X140374Y40886D01*
X140953Y41330D01*
X141397Y41909D01*
X141677Y42584D01*
X141772Y43307D01*
X141710Y43776D01*
X142069Y44276D01*
X150705D01*
Y47638D01*
X155398D01*
Y44276D01*
X165469D01*
Y44354D01*
X165969Y44621D01*
X166330Y44379D01*
X167028Y44241D01*
X168602D01*
X168919Y44304D01*
X169057Y44216D01*
X169326Y43875D01*
X169252Y43307D01*
X169347Y42584D01*
X169626Y41909D01*
X170071Y41330D01*
X170650Y40886D01*
X171324Y40607D01*
X172047Y40512D01*
X172771Y40607D01*
X173445Y40886D01*
X174024Y41330D01*
X174468Y41909D01*
X174748Y42584D01*
X174843Y43307D01*
X174748Y44031D01*
X174468Y44705D01*
X174024Y45284D01*
X173445Y45728D01*
X172771Y46007D01*
X172047Y46103D01*
X171324Y46007D01*
X170888Y45827D01*
X170651Y45948D01*
X170425Y46157D01*
Y47638D01*
X308661Y47638D01*
X308935Y47638D01*
X309442Y47428D01*
D02*
G37*
%LPC*%
G36*
X306154Y458321D02*
Y456898D01*
X307578D01*
X307523Y457172D01*
X307085Y457828D01*
X306428Y458267D01*
X306154Y458321D01*
D02*
G37*
G36*
X305154D02*
X304880Y458267D01*
X304223Y457828D01*
X303785Y457172D01*
X303730Y456898D01*
X305154D01*
Y458321D01*
D02*
G37*
G36*
X307578Y455898D02*
X306154D01*
Y454474D01*
X306428Y454529D01*
X307085Y454967D01*
X307523Y455623D01*
X307578Y455898D01*
D02*
G37*
G36*
X305154D02*
X303730D01*
X303785Y455623D01*
X304223Y454967D01*
X304880Y454529D01*
X305154Y454474D01*
Y455898D01*
D02*
G37*
G36*
X15631Y145122D02*
X14856Y145020D01*
X14134Y144721D01*
X13513Y144245D01*
X13038Y143625D01*
X12739Y142903D01*
X12637Y142128D01*
X12739Y141353D01*
X13038Y140630D01*
X13513Y140010D01*
X14134Y139535D01*
X14856Y139235D01*
X15631Y139134D01*
X16406Y139235D01*
X17128Y139535D01*
X17748Y140010D01*
X18224Y140630D01*
X18523Y141353D01*
X18625Y142128D01*
X18523Y142903D01*
X18224Y143625D01*
X17748Y144245D01*
X17128Y144721D01*
X16406Y145020D01*
X15631Y145122D01*
D02*
G37*
G36*
X10119Y136459D02*
X9344Y136357D01*
X8622Y136057D01*
X8002Y135582D01*
X7526Y134962D01*
X7227Y134239D01*
X7125Y133465D01*
X7227Y132690D01*
X7526Y131967D01*
X8002Y131347D01*
X8622Y130872D01*
X9344Y130572D01*
X10119Y130471D01*
X10894Y130572D01*
X11616Y130872D01*
X12236Y131347D01*
X12712Y131967D01*
X13011Y132690D01*
X13113Y133465D01*
X13011Y134239D01*
X12712Y134962D01*
X12236Y135582D01*
X11616Y136057D01*
X10894Y136357D01*
X10119Y136459D01*
D02*
G37*
G36*
X4142Y99365D02*
Y97941D01*
X5565D01*
X5511Y98215D01*
X5072Y98872D01*
X4416Y99310D01*
X4142Y99365D01*
D02*
G37*
G36*
X3142D02*
X2868Y99310D01*
X2211Y98872D01*
X1773Y98215D01*
X1718Y97941D01*
X3142D01*
Y99365D01*
D02*
G37*
G36*
X5565Y96941D02*
X4142D01*
Y95517D01*
X4416Y95572D01*
X5072Y96011D01*
X5511Y96667D01*
X5565Y96941D01*
D02*
G37*
G36*
X3142D02*
X1718D01*
X1773Y96667D01*
X2211Y96011D01*
X2868Y95572D01*
X3142Y95517D01*
Y96941D01*
D02*
G37*
G36*
X307882Y103892D02*
Y102469D01*
X309306D01*
X309251Y102743D01*
X308812Y103399D01*
X308156Y103838D01*
X307882Y103892D01*
D02*
G37*
G36*
X306882D02*
X306608Y103838D01*
X305951Y103399D01*
X305513Y102743D01*
X305458Y102469D01*
X306882D01*
Y103892D01*
D02*
G37*
G36*
X309306Y101469D02*
X307882D01*
Y100045D01*
X308156Y100100D01*
X308812Y100538D01*
X309251Y101194D01*
X309306Y101469D01*
D02*
G37*
G36*
X306882D02*
X305458D01*
X305513Y101194D01*
X305951Y100538D01*
X306608Y100100D01*
X306882Y100045D01*
Y101469D01*
D02*
G37*
G36*
X7620Y47088D02*
X5520D01*
Y45099D01*
X7620D01*
Y47088D01*
D02*
G37*
G36*
Y44099D02*
X5020D01*
X2420D01*
Y42110D01*
X3073D01*
X3184Y41553D01*
X3622Y40897D01*
X4279Y40458D01*
X4553Y40404D01*
Y42327D01*
X5553D01*
Y40404D01*
X5827Y40458D01*
X6483Y40897D01*
X6922Y41553D01*
X7033Y42110D01*
X7620D01*
Y44099D01*
D02*
G37*
G36*
X30807Y41787D02*
X30033Y41633D01*
X29377Y41194D01*
X28938Y40538D01*
X28784Y39764D01*
X28938Y38990D01*
X29377Y38333D01*
X30033Y37895D01*
X30807Y37741D01*
X31581Y37895D01*
X32238Y38333D01*
X32676Y38990D01*
X32830Y39764D01*
X32676Y40538D01*
X32238Y41194D01*
X31581Y41633D01*
X30807Y41787D01*
D02*
G37*
G36*
X278469Y39252D02*
X277695Y39099D01*
X277039Y38660D01*
X276600Y38004D01*
X276446Y37229D01*
X276600Y36455D01*
X277039Y35799D01*
X277695Y35360D01*
X278469Y35206D01*
X279244Y35360D01*
X279900Y35799D01*
X280339Y36455D01*
X280493Y37229D01*
X280339Y38004D01*
X279900Y38660D01*
X279244Y39099D01*
X278469Y39252D01*
D02*
G37*
G36*
X289173Y31748D02*
X288399Y31593D01*
X287743Y31155D01*
X287304Y30499D01*
X287150Y29724D01*
X287304Y28950D01*
X287743Y28294D01*
X288399Y27855D01*
X289173Y27701D01*
X289947Y27855D01*
X290604Y28294D01*
X291042Y28950D01*
X291196Y29724D01*
X291042Y30499D01*
X290604Y31155D01*
X289947Y31593D01*
X289173Y31748D01*
D02*
G37*
G36*
X28150D02*
X27375Y31593D01*
X26719Y31155D01*
X26281Y30499D01*
X26127Y29724D01*
X26281Y28950D01*
X26719Y28294D01*
X27375Y27855D01*
X28150Y27701D01*
X28924Y27855D01*
X29580Y28294D01*
X30019Y28950D01*
X30173Y29724D01*
X30019Y30499D01*
X29580Y31155D01*
X28924Y31593D01*
X28150Y31748D01*
D02*
G37*
G36*
X282874Y31747D02*
X282100Y31593D01*
X281443Y31155D01*
X281005Y30499D01*
X280851Y29724D01*
X281005Y28950D01*
X281443Y28294D01*
X282100Y27855D01*
X282874Y27701D01*
X283648Y27855D01*
X284304Y28294D01*
X284743Y28950D01*
X284897Y29724D01*
X284743Y30499D01*
X284304Y31155D01*
X283648Y31593D01*
X282874Y31747D01*
D02*
G37*
G36*
X21850D02*
X21076Y31593D01*
X20420Y31155D01*
X19981Y30499D01*
X19827Y29724D01*
X19981Y28950D01*
X20420Y28294D01*
X21076Y27855D01*
X21850Y27701D01*
X22625Y27855D01*
X23281Y28294D01*
X23720Y28950D01*
X23874Y29724D01*
X23720Y30499D01*
X23281Y31155D01*
X22625Y31593D01*
X21850Y31747D01*
D02*
G37*
G36*
X276772Y27107D02*
X276048Y27011D01*
X275374Y26732D01*
X274795Y26288D01*
X274351Y25709D01*
X274071Y25035D01*
X273976Y24311D01*
X274071Y23587D01*
X274202Y23271D01*
X273868Y22772D01*
X266535D01*
X266459Y22756D01*
X265961Y22752D01*
X265961Y22752D01*
X265961Y22752D01*
X256874D01*
Y22102D01*
X256398D01*
X255623Y21948D01*
X254967Y21509D01*
X254528Y20853D01*
X254375Y20079D01*
X254528Y19305D01*
X254967Y18648D01*
X255623Y18210D01*
X256398Y18056D01*
X256874D01*
Y17602D01*
X256874D01*
X256830Y17121D01*
X256721Y16974D01*
X256693Y16980D01*
X255995Y16841D01*
X255404Y16446D01*
X255009Y15855D01*
X254871Y15157D01*
X255009Y14460D01*
X255404Y13869D01*
X255995Y13474D01*
X256693Y13335D01*
X257202Y13436D01*
X257373Y13180D01*
X257964Y12785D01*
X258661Y12646D01*
X264173D01*
X264871Y12785D01*
X265462Y13180D01*
X265885Y12913D01*
X266145Y12739D01*
X266535Y12662D01*
X273937D01*
X273938Y12661D01*
X274243Y12162D01*
X274071Y11747D01*
X273976Y11024D01*
X274071Y10300D01*
X274351Y9626D01*
X274795Y9047D01*
X275374Y8603D01*
X276048Y8323D01*
X276772Y8228D01*
X277495Y8323D01*
X278169Y8603D01*
X278748Y9047D01*
X279193Y9626D01*
X279472Y10300D01*
X279567Y11024D01*
X279472Y11747D01*
X279193Y12421D01*
X278748Y13000D01*
X278169Y13445D01*
X277495Y13724D01*
X276772Y13819D01*
X276048Y13724D01*
X275813Y13626D01*
X275802Y13627D01*
X275331Y13968D01*
Y21367D01*
X275831Y21701D01*
X276048Y21611D01*
X276772Y21516D01*
X277495Y21611D01*
X278169Y21890D01*
X278748Y22334D01*
X279193Y22913D01*
X279472Y23587D01*
X279567Y24311D01*
X279472Y25035D01*
X279193Y25709D01*
X278748Y26288D01*
X278169Y26732D01*
X277495Y27011D01*
X276772Y27107D01*
D02*
G37*
G36*
X225394Y38440D02*
X224620Y38286D01*
X223963Y37848D01*
X223525Y37192D01*
X223371Y36417D01*
X223525Y35643D01*
X223772Y35273D01*
Y18898D01*
X223895Y18277D01*
X224247Y17751D01*
X227889Y14109D01*
X228415Y13758D01*
X229035Y13634D01*
X233447D01*
X233751Y13180D01*
X234342Y12785D01*
X235039Y12646D01*
X240551D01*
X241249Y12785D01*
X241840Y13180D01*
X242263Y12913D01*
X242523Y12739D01*
X242913Y12662D01*
X250315D01*
X250316Y12661D01*
X250621Y12162D01*
X250449Y11747D01*
X250354Y11024D01*
X250449Y10300D01*
X250729Y9626D01*
X251173Y9047D01*
X251752Y8603D01*
X252426Y8323D01*
X253150Y8228D01*
X253873Y8323D01*
X254547Y8603D01*
X255126Y9047D01*
X255571Y9626D01*
X255850Y10300D01*
X255945Y11024D01*
X255850Y11747D01*
X255571Y12421D01*
X255126Y13000D01*
X254547Y13445D01*
X253873Y13724D01*
X253150Y13819D01*
X252426Y13724D01*
X252190Y13626D01*
X252180Y13627D01*
X251709Y13968D01*
Y21367D01*
X252208Y21701D01*
X252426Y21611D01*
X253150Y21516D01*
X253873Y21611D01*
X254547Y21890D01*
X255126Y22334D01*
X255571Y22913D01*
X255850Y23587D01*
X255945Y24311D01*
X255850Y25035D01*
X255571Y25709D01*
X255126Y26288D01*
X254547Y26732D01*
X253873Y27011D01*
X253150Y27107D01*
X252426Y27011D01*
X251752Y26732D01*
X251173Y26288D01*
X250729Y25709D01*
X250449Y25035D01*
X250354Y24311D01*
X250449Y23587D01*
X250580Y23272D01*
X250246Y22772D01*
X242913D01*
X242837Y22756D01*
X242339Y22752D01*
X242339Y22752D01*
X242338Y22752D01*
X233252D01*
Y22102D01*
X232776D01*
X232165Y21980D01*
X232154Y21986D01*
X231820Y22375D01*
X231817Y22382D01*
X232031Y22898D01*
X232126Y23622D01*
X232031Y24346D01*
X231752Y25020D01*
X231308Y25599D01*
X230729Y26043D01*
X230054Y26322D01*
X229331Y26418D01*
X228607Y26322D01*
X227933Y26043D01*
X227515Y25723D01*
X227015Y25936D01*
Y35273D01*
X227263Y35643D01*
X227417Y36417D01*
X227263Y37192D01*
X226824Y37848D01*
X226168Y38286D01*
X225394Y38440D01*
D02*
G37*
G36*
X164370Y26418D02*
X163646Y26322D01*
X162972Y26043D01*
X162393Y25599D01*
X161949Y25020D01*
X161670Y24346D01*
X161574Y23622D01*
X161670Y22898D01*
X161949Y22224D01*
X162393Y21645D01*
X162972Y21201D01*
X163646Y20922D01*
X164370Y20827D01*
X165094Y20922D01*
X165768Y21201D01*
X166347Y21645D01*
X166791Y22224D01*
X167070Y22898D01*
X167166Y23622D01*
X167070Y24346D01*
X166791Y25020D01*
X166347Y25599D01*
X165768Y26043D01*
X165094Y26322D01*
X164370Y26418D01*
D02*
G37*
G36*
X146653D02*
X145930Y26322D01*
X145256Y26043D01*
X144677Y25599D01*
X144232Y25020D01*
X143953Y24346D01*
X143858Y23622D01*
X143953Y22898D01*
X144232Y22224D01*
X144677Y21645D01*
X145256Y21201D01*
X145930Y20922D01*
X146653Y20827D01*
X147377Y20922D01*
X148051Y21201D01*
X148630Y21645D01*
X149074Y22224D01*
X149354Y22898D01*
X149449Y23622D01*
X149354Y24346D01*
X149074Y25020D01*
X148630Y25599D01*
X148051Y26043D01*
X147377Y26322D01*
X146653Y26418D01*
D02*
G37*
G36*
X81693D02*
X80969Y26322D01*
X80295Y26043D01*
X79716Y25599D01*
X79272Y25020D01*
X78993Y24346D01*
X78897Y23622D01*
X78993Y22898D01*
X79272Y22224D01*
X79716Y21645D01*
X80295Y21201D01*
X80969Y20922D01*
X81693Y20827D01*
X82416Y20922D01*
X83091Y21201D01*
X83670Y21645D01*
X84114Y22224D01*
X84393Y22898D01*
X84488Y23622D01*
X84393Y24346D01*
X84114Y25020D01*
X83670Y25599D01*
X83091Y26043D01*
X82416Y26322D01*
X81693Y26418D01*
D02*
G37*
G36*
X57874Y27205D02*
X57151Y27110D01*
X56476Y26831D01*
X55897Y26386D01*
X55453Y25807D01*
X55174Y25133D01*
X55078Y24409D01*
X55174Y23686D01*
X55453Y23012D01*
X55897Y22433D01*
X56476Y21988D01*
X57151Y21709D01*
X57874Y21614D01*
X58598Y21709D01*
X58833Y21807D01*
X58844Y21806D01*
X59315Y21465D01*
Y14066D01*
X58815Y13732D01*
X58598Y13822D01*
X57874Y13918D01*
X57151Y13822D01*
X56476Y13543D01*
X55897Y13099D01*
X55453Y12520D01*
X55174Y11846D01*
X55078Y11122D01*
X55174Y10398D01*
X55453Y9724D01*
X55897Y9145D01*
X56476Y8701D01*
X57151Y8422D01*
X57874Y8326D01*
X58598Y8422D01*
X59272Y8701D01*
X59851Y9145D01*
X60295Y9724D01*
X60574Y10398D01*
X60670Y11122D01*
X60574Y11846D01*
X60444Y12162D01*
X60778Y12662D01*
X68110D01*
X68187Y12677D01*
X68685Y12681D01*
X68685Y12681D01*
X68685Y12681D01*
X77772D01*
Y13331D01*
X78248D01*
X79022Y13485D01*
X79679Y13924D01*
X80117Y14580D01*
X80271Y15354D01*
X80117Y16128D01*
X79679Y16785D01*
X79022Y17223D01*
X78248Y17377D01*
X77772D01*
Y17831D01*
X77694D01*
X77686Y17842D01*
X77638Y18331D01*
X77961Y18395D01*
X78552Y18790D01*
X78948Y19381D01*
X79086Y20079D01*
X78948Y20776D01*
X78552Y21367D01*
X77961Y21762D01*
X77546Y21845D01*
X77273Y22253D01*
X76682Y22648D01*
X75984Y22787D01*
X70473D01*
X69775Y22648D01*
X69184Y22253D01*
X68761Y22520D01*
X68501Y22694D01*
X68110Y22772D01*
X60709D01*
X60708Y22772D01*
X60403Y23271D01*
X60574Y23686D01*
X60670Y24409D01*
X60574Y25133D01*
X60295Y25807D01*
X59851Y26386D01*
X59272Y26831D01*
X58598Y27110D01*
X57874Y27205D01*
D02*
G37*
G36*
X293807Y20679D02*
Y12311D01*
X302175D01*
X302053Y13551D01*
X301545Y15223D01*
X300721Y16765D01*
X299612Y18116D01*
X298261Y19225D01*
X296720Y20049D01*
X295047Y20557D01*
X293807Y20679D01*
D02*
G37*
G36*
X292807D02*
X291567Y20557D01*
X289895Y20049D01*
X288353Y19225D01*
X287002Y18116D01*
X285893Y16765D01*
X285069Y15223D01*
X284561Y13551D01*
X284439Y12311D01*
X292807D01*
Y20679D01*
D02*
G37*
G36*
X18216D02*
Y12311D01*
X26584D01*
X26462Y13551D01*
X25955Y15223D01*
X25131Y16765D01*
X24022Y18116D01*
X22670Y19225D01*
X21129Y20049D01*
X19456Y20557D01*
X18216Y20679D01*
D02*
G37*
G36*
X17217D02*
X15977Y20557D01*
X14304Y20049D01*
X12763Y19225D01*
X11411Y18116D01*
X10302Y16765D01*
X9478Y15223D01*
X8971Y13551D01*
X8849Y12311D01*
X17217D01*
Y20679D01*
D02*
G37*
G36*
X223425Y12157D02*
X222728Y12018D01*
X222136Y11623D01*
X221741Y11032D01*
X221711Y10882D01*
X221202D01*
X221172Y11032D01*
X220777Y11623D01*
X220185Y12018D01*
X219488Y12157D01*
X218791Y12018D01*
X218199Y11623D01*
X217804Y11032D01*
X217775Y10882D01*
X217265D01*
X217235Y11032D01*
X216840Y11623D01*
X216248Y12018D01*
X215551Y12157D01*
X214854Y12018D01*
X214262Y11623D01*
X213867Y11032D01*
X213838Y10882D01*
X213328D01*
X213298Y11032D01*
X212903Y11623D01*
X212312Y12018D01*
X211614Y12157D01*
X210917Y12018D01*
X210325Y11623D01*
X209930Y11032D01*
X209900Y10882D01*
X209391D01*
X209361Y11032D01*
X208966Y11623D01*
X208375Y12018D01*
X207677Y12157D01*
X206980Y12018D01*
X206388Y11623D01*
X205993Y11032D01*
X205963Y10882D01*
X205454D01*
X205424Y11032D01*
X205029Y11623D01*
X204437Y12018D01*
X203740Y12157D01*
X203043Y12018D01*
X202451Y11623D01*
X202056Y11032D01*
X202026Y10882D01*
X201517D01*
X201487Y11032D01*
X201092Y11623D01*
X200500Y12018D01*
X199803Y12157D01*
X199106Y12018D01*
X198514Y11623D01*
X198119Y11032D01*
X198090Y10882D01*
X197580D01*
X197550Y11032D01*
X197155Y11623D01*
X196563Y12018D01*
X195866Y12157D01*
X195169Y12018D01*
X194577Y11623D01*
X194182Y11032D01*
X194152Y10882D01*
X193643D01*
X193613Y11032D01*
X193218Y11623D01*
X192626Y12018D01*
X191929Y12157D01*
X191232Y12018D01*
X190640Y11623D01*
X190245Y11032D01*
X190215Y10882D01*
X189706D01*
X189676Y11032D01*
X189281Y11623D01*
X188689Y12018D01*
X187992Y12157D01*
X187295Y12018D01*
X186703Y11623D01*
X186308Y11032D01*
X186278Y10882D01*
X185769D01*
X185739Y11032D01*
X185344Y11623D01*
X184752Y12018D01*
X184055Y12157D01*
X183358Y12018D01*
X182766Y11623D01*
X182371Y11032D01*
X182341Y10882D01*
X181832D01*
X181802Y11032D01*
X181407Y11623D01*
X180815Y12018D01*
X180118Y12157D01*
X179421Y12018D01*
X178829Y11623D01*
X178434Y11032D01*
X178404Y10882D01*
X177895D01*
X177865Y11032D01*
X177470Y11623D01*
X176878Y12018D01*
X176181Y12157D01*
X175484Y12018D01*
X174892Y11623D01*
X174497Y11032D01*
X174467Y10882D01*
X173958D01*
X173928Y11032D01*
X173533Y11623D01*
X172941Y12018D01*
X172244Y12157D01*
X171547Y12018D01*
X170955Y11623D01*
X170560Y11032D01*
X170530Y10882D01*
X170021D01*
X169991Y11032D01*
X169596Y11623D01*
X169004Y12018D01*
X168307Y12157D01*
X167610Y12018D01*
X167018Y11623D01*
X166623Y11032D01*
X166485Y10335D01*
X166623Y9637D01*
X167018Y9046D01*
X167610Y8651D01*
X168307Y8512D01*
X168307Y8512D01*
X168453Y8366D01*
X168592Y7669D01*
X168987Y7078D01*
X169578Y6682D01*
X170275Y6544D01*
X170973Y6682D01*
X171564Y7078D01*
X171959Y7669D01*
X171989Y7819D01*
X172499D01*
X172529Y7669D01*
X172924Y7078D01*
X173515Y6682D01*
X174213Y6544D01*
X174910Y6682D01*
X175501Y7078D01*
X175896Y7669D01*
X175926Y7819D01*
X176436D01*
X176466Y7669D01*
X176861Y7078D01*
X177452Y6682D01*
X178149Y6544D01*
X178847Y6682D01*
X179438Y7078D01*
X179833Y7669D01*
X179863Y7819D01*
X180373D01*
X180403Y7669D01*
X180798Y7078D01*
X181389Y6682D01*
X182087Y6544D01*
X182784Y6682D01*
X183375Y7078D01*
X183770Y7669D01*
X183800Y7819D01*
X184310D01*
X184340Y7669D01*
X184735Y7078D01*
X185326Y6682D01*
X186023Y6544D01*
X186721Y6682D01*
X187312Y7078D01*
X187707Y7669D01*
X187737Y7819D01*
X188247D01*
X188277Y7669D01*
X188672Y7078D01*
X189263Y6682D01*
X189961Y6544D01*
X190658Y6682D01*
X191249Y7078D01*
X191644Y7669D01*
X191674Y7819D01*
X192184D01*
X192214Y7669D01*
X192609Y7078D01*
X193200Y6682D01*
X193898Y6544D01*
X194595Y6682D01*
X195186Y7078D01*
X195581Y7669D01*
X195611Y7819D01*
X196121D01*
X196151Y7669D01*
X196546Y7078D01*
X197137Y6682D01*
X197835Y6544D01*
X198532Y6682D01*
X199123Y7078D01*
X199518Y7669D01*
X199548Y7819D01*
X200058D01*
X200088Y7669D01*
X200483Y7078D01*
X201074Y6682D01*
X201772Y6544D01*
X202469Y6682D01*
X203060Y7078D01*
X203455Y7669D01*
X203485Y7819D01*
X203995D01*
X204025Y7669D01*
X204420Y7078D01*
X205011Y6682D01*
X205709Y6544D01*
X206406Y6682D01*
X206997Y7078D01*
X207392Y7669D01*
X207422Y7819D01*
X207932D01*
X207962Y7669D01*
X208357Y7078D01*
X208948Y6683D01*
X209646Y6544D01*
X210343Y6683D01*
X210934Y7078D01*
X211329Y7669D01*
X211359Y7819D01*
X211869D01*
X211899Y7669D01*
X212294Y7078D01*
X212885Y6682D01*
X213583Y6544D01*
X214280Y6682D01*
X214871Y7078D01*
X215266Y7669D01*
X215296Y7819D01*
X215806D01*
X215836Y7669D01*
X216231Y7078D01*
X216822Y6682D01*
X217520Y6544D01*
X218217Y6682D01*
X218808Y7078D01*
X219203Y7669D01*
X219233Y7819D01*
X219743D01*
X219773Y7669D01*
X220168Y7078D01*
X220759Y6682D01*
X221457Y6544D01*
X222154Y6682D01*
X222745Y7078D01*
X223140Y7669D01*
X223279Y8366D01*
X223425Y8512D01*
X224123Y8651D01*
X224714Y9046D01*
X225109Y9637D01*
X225248Y10335D01*
X225109Y11032D01*
X224714Y11623D01*
X224123Y12018D01*
X223425Y12157D01*
D02*
G37*
G36*
X89567Y12157D02*
X88870Y12018D01*
X88278Y11623D01*
X87883Y11032D01*
X87809Y10657D01*
X87644Y10289D01*
X87277Y10125D01*
X86901Y10050D01*
X86310Y9655D01*
X85915Y9064D01*
X85776Y8366D01*
X85915Y7669D01*
X86310Y7078D01*
X86901Y6682D01*
X87598Y6544D01*
X88296Y6682D01*
X88887Y7078D01*
X89282Y7669D01*
X89312Y7819D01*
X89822D01*
X89852Y7669D01*
X90247Y7078D01*
X90838Y6682D01*
X91535Y6544D01*
X92233Y6682D01*
X92824Y7078D01*
X93219Y7669D01*
X93249Y7819D01*
X93759D01*
X93789Y7669D01*
X94184Y7078D01*
X94775Y6682D01*
X95472Y6544D01*
X96170Y6682D01*
X96761Y7078D01*
X97156Y7669D01*
X97186Y7819D01*
X97696D01*
X97726Y7669D01*
X98121Y7078D01*
X98712Y6682D01*
X99409Y6544D01*
X100107Y6682D01*
X100698Y7078D01*
X101093Y7669D01*
X101123Y7819D01*
X101633D01*
X101663Y7669D01*
X102058Y7078D01*
X102649Y6682D01*
X103346Y6544D01*
X104044Y6682D01*
X104635Y7078D01*
X105030Y7669D01*
X105060Y7819D01*
X105570D01*
X105600Y7669D01*
X105995Y7078D01*
X106586Y6682D01*
X107283Y6544D01*
X107981Y6682D01*
X108572Y7078D01*
X108967Y7669D01*
X108997Y7819D01*
X109507D01*
X109537Y7669D01*
X109932Y7078D01*
X110523Y6682D01*
X111220Y6544D01*
X111918Y6682D01*
X112509Y7078D01*
X112904Y7669D01*
X112934Y7819D01*
X113444D01*
X113474Y7669D01*
X113869Y7078D01*
X114460Y6682D01*
X115157Y6544D01*
X115855Y6682D01*
X116446Y7078D01*
X116841Y7669D01*
X116871Y7819D01*
X117381D01*
X117411Y7669D01*
X117806Y7078D01*
X118397Y6682D01*
X119094Y6544D01*
X119792Y6682D01*
X120383Y7078D01*
X120778Y7669D01*
X120808Y7819D01*
X121318D01*
X121348Y7669D01*
X121743Y7078D01*
X122334Y6682D01*
X123031Y6544D01*
X123729Y6682D01*
X124320Y7078D01*
X124715Y7669D01*
X124745Y7819D01*
X125255D01*
X125285Y7669D01*
X125680Y7078D01*
X126271Y6682D01*
X126968Y6544D01*
X127666Y6682D01*
X128257Y7078D01*
X128652Y7669D01*
X128682Y7819D01*
X129192D01*
X129222Y7669D01*
X129617Y7078D01*
X130208Y6682D01*
X130905Y6544D01*
X131603Y6682D01*
X132194Y7078D01*
X132589Y7669D01*
X132619Y7819D01*
X133129D01*
X133159Y7669D01*
X133554Y7078D01*
X134145Y6682D01*
X134843Y6544D01*
X135540Y6682D01*
X136131Y7078D01*
X136526Y7669D01*
X136556Y7819D01*
X137066D01*
X137096Y7669D01*
X137491Y7078D01*
X138082Y6682D01*
X138779Y6544D01*
X139477Y6682D01*
X140068Y7078D01*
X140463Y7669D01*
X140493Y7819D01*
X141003D01*
X141033Y7669D01*
X141428Y7078D01*
X142019Y6682D01*
X142717Y6544D01*
X143414Y6682D01*
X144005Y7078D01*
X144400Y7669D01*
X144539Y8366D01*
X144400Y9064D01*
X144005Y9655D01*
X143414Y10050D01*
X142717Y10189D01*
X142506Y10657D01*
X142432Y11032D01*
X142037Y11623D01*
X141445Y12018D01*
X140748Y12157D01*
X140051Y12018D01*
X139459Y11623D01*
X139064Y11032D01*
X139034Y10882D01*
X138525D01*
X138495Y11032D01*
X138100Y11623D01*
X137508Y12018D01*
X136811Y12157D01*
X136114Y12018D01*
X135522Y11623D01*
X135127Y11032D01*
X135097Y10882D01*
X134588D01*
X134558Y11032D01*
X134163Y11623D01*
X133571Y12018D01*
X132874Y12157D01*
X132176Y12018D01*
X131585Y11623D01*
X131190Y11032D01*
X131160Y10882D01*
X130650D01*
X130621Y11032D01*
X130226Y11623D01*
X129634Y12018D01*
X128937Y12157D01*
X128240Y12018D01*
X127648Y11623D01*
X127253Y11032D01*
X127223Y10882D01*
X126714D01*
X126684Y11032D01*
X126289Y11623D01*
X125697Y12018D01*
X125000Y12157D01*
X124302Y12018D01*
X123711Y11623D01*
X123316Y11032D01*
X123286Y10882D01*
X122776D01*
X122747Y11032D01*
X122352Y11623D01*
X121760Y12018D01*
X121063Y12157D01*
X120366Y12018D01*
X119774Y11623D01*
X119379Y11032D01*
X119349Y10882D01*
X118840D01*
X118810Y11032D01*
X118415Y11623D01*
X117823Y12018D01*
X117126Y12157D01*
X116428Y12018D01*
X115837Y11623D01*
X115442Y11032D01*
X115412Y10882D01*
X114902D01*
X114873Y11032D01*
X114478Y11623D01*
X113886Y12018D01*
X113189Y12157D01*
X112492Y12018D01*
X111900Y11623D01*
X111505Y11032D01*
X111475Y10882D01*
X110966D01*
X110936Y11032D01*
X110540Y11623D01*
X109949Y12018D01*
X109252Y12157D01*
X108554Y12018D01*
X107963Y11623D01*
X107568Y11032D01*
X107538Y10882D01*
X107028D01*
X106999Y11032D01*
X106604Y11623D01*
X106012Y12018D01*
X105315Y12157D01*
X104618Y12018D01*
X104026Y11623D01*
X103631Y11032D01*
X103601Y10882D01*
X103092D01*
X103062Y11032D01*
X102666Y11623D01*
X102075Y12018D01*
X101378Y12157D01*
X100680Y12018D01*
X100089Y11623D01*
X99694Y11032D01*
X99664Y10882D01*
X99155D01*
X99125Y11032D01*
X98729Y11623D01*
X98138Y12018D01*
X97441Y12157D01*
X96743Y12018D01*
X96152Y11623D01*
X95757Y11032D01*
X95727Y10882D01*
X95218D01*
X95187Y11032D01*
X94792Y11623D01*
X94201Y12018D01*
X93504Y12157D01*
X92806Y12018D01*
X92215Y11623D01*
X91820Y11032D01*
X91790Y10882D01*
X91281D01*
X91251Y11032D01*
X90856Y11623D01*
X90264Y12018D01*
X89567Y12157D01*
D02*
G37*
G36*
X302175Y11311D02*
X293807D01*
Y2943D01*
X295047Y3065D01*
X296720Y3573D01*
X298261Y4397D01*
X299612Y5506D01*
X300721Y6857D01*
X301545Y8399D01*
X302053Y10071D01*
X302175Y11311D01*
D02*
G37*
G36*
X292807D02*
X284439D01*
X284561Y10071D01*
X285069Y8399D01*
X285893Y6857D01*
X287002Y5506D01*
X288353Y4397D01*
X289895Y3573D01*
X291567Y3065D01*
X292807Y2943D01*
Y11311D01*
D02*
G37*
G36*
X26584D02*
X18216D01*
Y2943D01*
X19456Y3065D01*
X21129Y3573D01*
X22670Y4397D01*
X24022Y5506D01*
X25131Y6857D01*
X25955Y8399D01*
X26462Y10071D01*
X26584Y11311D01*
D02*
G37*
G36*
X17217D02*
X8849D01*
X8971Y10071D01*
X9478Y8399D01*
X10302Y6857D01*
X11411Y5506D01*
X12763Y4397D01*
X14304Y3573D01*
X15977Y3065D01*
X17217Y2943D01*
Y11311D01*
D02*
G37*
%LPD*%
D10*
X291240Y100295D02*
Y104331D01*
X65749Y85433D02*
Y93306D01*
Y82284D02*
Y85433D01*
X40256Y98327D02*
Y99803D01*
X295866Y91929D02*
Y104331D01*
X60728Y98327D02*
X65749Y93306D01*
X40256Y98327D02*
X60728D01*
X34941Y95374D02*
Y99803D01*
X289272Y85335D02*
X295866Y91929D01*
X167815Y48819D02*
Y56545D01*
X162894Y48819D02*
Y55216D01*
X161171Y63189D02*
X167815Y56545D01*
X71457Y63189D02*
X161171D01*
X65749Y68898D02*
X71457Y63189D01*
X62599Y66929D02*
Y72047D01*
Y66929D02*
X70276Y59252D01*
X158858D01*
X162894Y55216D01*
X62598Y88583D02*
Y91437D01*
X60335Y93701D02*
X62598Y91437D01*
X36614Y93701D02*
X60335D01*
X34941Y95374D02*
X36614Y93701D01*
X273425Y85335D02*
X289272D01*
X267126Y79035D02*
X273425Y85335D01*
X267126Y67520D02*
Y79035D01*
X262697Y63090D02*
X267126Y67520D01*
X254724Y63090D02*
X262697D01*
X251575Y66240D02*
X254724Y63090D01*
X251575Y66240D02*
Y72047D01*
X250492Y447638D02*
X286910D01*
X248425Y445570D02*
X250492Y447638D01*
X248425Y439761D02*
Y445570D01*
X296063Y450591D02*
Y458563D01*
X296161Y458661D01*
X289764Y444291D02*
X296063Y450591D01*
X252954Y444291D02*
X289764D01*
X251574Y442911D02*
X252954Y444291D01*
X286910Y447638D02*
X291240Y451968D01*
Y458661D01*
X40157Y99705D02*
X40256Y99803D01*
X251574Y439761D02*
Y442911D01*
X35236Y99705D02*
X35335Y99803D01*
X65748Y127952D02*
X65749Y127953D01*
X256398Y20079D02*
X261319D01*
X232776D02*
X237697D01*
X73327Y15354D02*
X78248D01*
X49705D02*
X54626D01*
X49606Y15256D02*
X49705Y15354D01*
X56300Y131102D02*
Y134252D01*
Y144488D02*
Y147637D01*
X59450Y127953D02*
Y131102D01*
Y141339D02*
Y144488D01*
X62599D02*
Y147637D01*
X65749Y127953D02*
Y131102D01*
Y141339D02*
Y144488D01*
X68898Y131102D02*
Y134252D01*
Y144488D02*
Y147637D01*
X72048Y127953D02*
Y131102D01*
X72048Y141339D02*
Y144488D01*
X75198Y131102D02*
Y134252D01*
Y144488D02*
Y147637D01*
X78347Y127953D02*
Y131102D01*
X78347Y141339D02*
Y144488D01*
X81497Y131102D02*
Y134252D01*
Y144488D02*
Y147637D01*
X84646Y127953D02*
Y131102D01*
Y141339D02*
Y144488D01*
X87796Y131102D02*
Y134252D01*
Y144488D02*
Y147637D01*
X90946Y127953D02*
Y131102D01*
Y141339D02*
Y144488D01*
X94095Y131102D02*
Y134252D01*
Y144488D02*
Y147637D01*
X97245Y127953D02*
Y131102D01*
Y141339D02*
Y144488D01*
X100394Y131102D02*
Y134252D01*
Y144488D02*
Y147637D01*
X103544Y127953D02*
Y131102D01*
Y141339D02*
Y144488D01*
X106694Y131102D02*
Y134252D01*
X106694Y144488D02*
Y147637D01*
X109843Y127953D02*
Y131102D01*
Y141339D02*
Y144488D01*
X112993Y131102D02*
Y134252D01*
Y144488D02*
Y147637D01*
X116142Y127953D02*
Y131102D01*
Y141339D02*
Y144488D01*
X119292Y131102D02*
Y134252D01*
Y144488D02*
Y147637D01*
X122442Y127953D02*
Y131102D01*
Y141339D02*
Y144488D01*
X125591Y131102D02*
Y134252D01*
Y144488D02*
Y147637D01*
X128741Y127953D02*
Y131102D01*
Y141339D02*
Y144488D01*
X131890Y131102D02*
Y134252D01*
Y144488D02*
Y147637D01*
X135040Y127953D02*
Y131102D01*
Y141339D02*
Y144488D01*
X138190Y131102D02*
Y134252D01*
X138190Y144488D02*
Y147637D01*
X141339Y127953D02*
Y131102D01*
Y141339D02*
Y144488D01*
X144489Y131102D02*
Y134252D01*
Y144488D02*
Y147637D01*
X147639Y127953D02*
Y131102D01*
Y141339D02*
Y144488D01*
X150788Y131102D02*
Y134252D01*
X150788Y144488D02*
Y147637D01*
X153938Y127953D02*
Y131102D01*
Y141339D02*
Y144488D01*
X169686D02*
Y147637D01*
X172835Y127953D02*
Y131102D01*
Y141339D02*
Y144488D01*
X175985D02*
Y147637D01*
X179135Y127953D02*
Y131102D01*
Y141339D02*
Y144488D01*
X182284Y131102D02*
Y134252D01*
Y144488D02*
Y147637D01*
X185434Y127953D02*
Y131102D01*
Y141339D02*
Y144488D01*
X188584Y131102D02*
Y134252D01*
Y144488D02*
Y147637D01*
X191733Y127953D02*
Y131102D01*
Y141339D02*
Y144488D01*
X194883Y131102D02*
Y134252D01*
Y144488D02*
Y147637D01*
X198032Y127953D02*
Y131102D01*
Y141339D02*
Y144488D01*
X201182Y131102D02*
Y134252D01*
Y144488D02*
Y147637D01*
X204331Y127953D02*
Y131102D01*
Y141339D02*
Y144488D01*
X207481Y131102D02*
Y134252D01*
Y144488D02*
Y147637D01*
X210631Y127953D02*
Y131102D01*
Y141339D02*
Y144488D01*
X213780Y131102D02*
Y134252D01*
Y144488D02*
Y147637D01*
X216930Y127953D02*
Y131102D01*
Y141339D02*
Y144488D01*
X220079Y131102D02*
Y134252D01*
Y144488D02*
Y147637D01*
X223229Y127953D02*
Y131102D01*
Y141339D02*
Y144488D01*
X229528Y127953D02*
Y131102D01*
Y141339D02*
Y144488D01*
X232678Y131102D02*
Y134252D01*
X235828Y127953D02*
Y131102D01*
Y141339D02*
Y144488D01*
X238977Y131102D02*
Y134252D01*
Y144488D02*
Y147637D01*
X242127Y127953D02*
Y131102D01*
Y141339D02*
Y144488D01*
X245276Y131102D02*
Y134252D01*
Y144488D02*
Y147637D01*
X248426Y141339D02*
Y144488D01*
X251576Y131102D02*
Y134252D01*
Y144488D02*
Y147637D01*
X254725Y127953D02*
Y131102D01*
Y141339D02*
Y144488D01*
X56298Y190156D02*
Y193305D01*
Y203542D02*
Y206691D01*
X59448Y187007D02*
Y190156D01*
Y200393D02*
Y203542D01*
X62598Y190156D02*
Y193305D01*
Y203542D02*
Y206691D01*
X65747Y187007D02*
Y190156D01*
Y200393D02*
Y203542D01*
X68897Y190156D02*
Y193305D01*
Y203542D02*
Y206691D01*
X72046Y187007D02*
Y190156D01*
X72046Y200393D02*
Y203542D01*
X75196Y190156D02*
Y193305D01*
Y203542D02*
Y206691D01*
X78346Y187007D02*
Y190156D01*
X78346Y200393D02*
Y203542D01*
X81495Y190156D02*
Y193305D01*
Y203542D02*
Y206691D01*
X84645Y187007D02*
Y190156D01*
Y200393D02*
Y203542D01*
X87794Y190156D02*
Y193305D01*
Y203542D02*
Y206691D01*
X90944Y187007D02*
Y190156D01*
Y200393D02*
Y203542D01*
X94094Y190156D02*
Y193305D01*
Y203542D02*
Y206691D01*
X97243Y187007D02*
Y190156D01*
Y200393D02*
Y203542D01*
X100393Y190156D02*
Y193305D01*
Y203542D02*
Y206691D01*
X103542Y187007D02*
Y190156D01*
Y200393D02*
Y203542D01*
X106692Y190156D02*
Y193305D01*
X106692Y203542D02*
Y206691D01*
X109842Y187007D02*
Y190156D01*
Y200393D02*
Y203542D01*
X112991Y190156D02*
Y193305D01*
Y203542D02*
Y206691D01*
X116141Y187007D02*
Y190156D01*
Y200393D02*
Y203542D01*
X119290Y190156D02*
Y193305D01*
Y203542D02*
Y206691D01*
X122440Y187007D02*
Y190156D01*
Y200393D02*
Y203542D01*
X125590Y190156D02*
Y193305D01*
Y203542D02*
Y206691D01*
X128739Y187007D02*
Y190156D01*
Y200393D02*
Y203542D01*
X131889Y190156D02*
Y193305D01*
Y203542D02*
Y206691D01*
X135038Y187007D02*
Y190156D01*
Y200393D02*
Y203542D01*
X138188Y190156D02*
Y193305D01*
X138188Y203542D02*
Y206691D01*
X141338Y187007D02*
Y190156D01*
Y200393D02*
Y203542D01*
X144487Y190156D02*
Y193305D01*
Y203542D02*
Y206691D01*
X147637Y187007D02*
Y190156D01*
Y200393D02*
Y203542D01*
X150786Y190156D02*
Y193305D01*
X150786Y203542D02*
Y206691D01*
X153936Y187007D02*
Y190156D01*
Y200393D02*
Y203542D01*
X169684D02*
Y206691D01*
X172834Y187007D02*
Y190156D01*
Y200393D02*
Y203542D01*
X175983D02*
Y206691D01*
X179133Y187007D02*
Y190156D01*
Y200393D02*
Y203542D01*
X182283Y190156D02*
Y193305D01*
Y203542D02*
Y206691D01*
X185432Y187007D02*
Y190156D01*
Y200393D02*
Y203542D01*
X188582Y190156D02*
Y193305D01*
Y203542D02*
Y206691D01*
X191731Y187007D02*
Y190156D01*
Y200393D02*
Y203542D01*
X194881Y190156D02*
Y193305D01*
Y203542D02*
Y206691D01*
X198031Y187007D02*
Y190156D01*
Y200393D02*
Y203542D01*
X201180Y190156D02*
Y193305D01*
Y203542D02*
Y206691D01*
X204330Y187007D02*
Y190156D01*
Y200393D02*
Y203542D01*
X207479Y190156D02*
Y193305D01*
Y203542D02*
Y206691D01*
X210629Y187007D02*
Y190156D01*
Y200393D02*
Y203542D01*
X213779Y190156D02*
Y193305D01*
Y203542D02*
Y206691D01*
X216928Y187007D02*
Y190156D01*
Y200393D02*
Y203542D01*
X220078Y190156D02*
Y193305D01*
Y203542D02*
Y206691D01*
X223228Y187007D02*
Y190156D01*
Y200393D02*
Y203542D01*
X229527Y187007D02*
Y190156D01*
Y200393D02*
Y203542D01*
X232676Y190156D02*
Y193305D01*
X235826Y187007D02*
Y190156D01*
Y200393D02*
Y203542D01*
X238976Y190156D02*
Y193305D01*
Y203542D02*
Y206691D01*
X242125Y187007D02*
Y190156D01*
Y200393D02*
Y203542D01*
X245275Y190156D02*
Y193305D01*
Y203542D02*
Y206691D01*
X248424Y200393D02*
Y203542D01*
X251574Y190156D02*
Y193305D01*
Y203542D02*
Y206691D01*
X254724Y187007D02*
Y190156D01*
Y200393D02*
Y203542D01*
X56300Y249213D02*
Y252362D01*
Y262598D02*
Y265748D01*
X59450Y246063D02*
Y249213D01*
Y259449D02*
Y262598D01*
X62599Y249213D02*
Y252362D01*
Y262598D02*
Y265748D01*
X65749Y246063D02*
Y249213D01*
Y259449D02*
Y262598D01*
X68898Y249213D02*
Y252362D01*
Y262598D02*
Y265748D01*
X72048Y246063D02*
Y249213D01*
X72048Y259449D02*
Y262598D01*
X75198Y249213D02*
Y252362D01*
Y262598D02*
Y265748D01*
X78347Y246063D02*
Y249213D01*
X78347Y259449D02*
Y262598D01*
X81497Y249213D02*
Y252362D01*
Y262598D02*
Y265748D01*
X84646Y246063D02*
Y249213D01*
Y259449D02*
Y262598D01*
X87796Y249213D02*
Y252362D01*
Y262598D02*
Y265748D01*
X90946Y246063D02*
Y249213D01*
Y259449D02*
Y262598D01*
X94095Y249213D02*
Y252362D01*
Y262598D02*
Y265748D01*
X97245Y246063D02*
Y249213D01*
Y259449D02*
Y262598D01*
X100394Y249213D02*
Y252362D01*
Y262598D02*
Y265748D01*
X103544Y246063D02*
Y249213D01*
Y259449D02*
Y262598D01*
X106694Y249213D02*
Y252362D01*
X106694Y262598D02*
Y265748D01*
X109843Y246063D02*
Y249213D01*
Y259449D02*
Y262598D01*
X112993Y249213D02*
Y252362D01*
Y262598D02*
Y265748D01*
X116142Y246063D02*
Y249213D01*
Y259449D02*
Y262598D01*
X119292Y249213D02*
Y252362D01*
Y262598D02*
Y265748D01*
X122442Y246063D02*
Y249213D01*
Y259449D02*
Y262598D01*
X125591Y249213D02*
Y252362D01*
Y262598D02*
Y265748D01*
X128741Y246063D02*
Y249213D01*
Y259449D02*
Y262598D01*
X131890Y249213D02*
Y252362D01*
Y262598D02*
Y265748D01*
X135040Y246063D02*
Y249213D01*
Y259449D02*
Y262598D01*
X138190Y249213D02*
Y252362D01*
X138190Y262598D02*
Y265748D01*
X141339Y246063D02*
Y249213D01*
Y259449D02*
Y262598D01*
X144489Y249213D02*
Y252362D01*
Y262598D02*
Y265748D01*
X147639Y246063D02*
Y249213D01*
Y259449D02*
Y262598D01*
X150788Y249213D02*
Y252362D01*
X150788Y262598D02*
Y265748D01*
X153938Y246063D02*
Y249213D01*
Y259449D02*
Y262598D01*
X169686D02*
Y265748D01*
X172835Y246063D02*
Y249213D01*
Y259449D02*
Y262598D01*
X175985D02*
Y265748D01*
X179135Y246063D02*
Y249213D01*
Y259449D02*
Y262598D01*
X182284Y249213D02*
Y252362D01*
Y262598D02*
Y265748D01*
X185434Y246063D02*
Y249213D01*
Y259449D02*
Y262598D01*
X188584Y249213D02*
Y252362D01*
Y262598D02*
Y265748D01*
X191733Y246063D02*
Y249213D01*
Y259449D02*
Y262598D01*
X194883Y249213D02*
Y252362D01*
Y262598D02*
Y265748D01*
X198032Y246063D02*
Y249213D01*
Y259449D02*
Y262598D01*
X201182Y249213D02*
Y252362D01*
Y262598D02*
Y265748D01*
X204331Y246063D02*
Y249213D01*
Y259449D02*
Y262598D01*
X207481Y249213D02*
Y252362D01*
Y262598D02*
Y265748D01*
X210631Y246063D02*
Y249213D01*
Y259449D02*
Y262598D01*
X213780Y249213D02*
Y252362D01*
Y262598D02*
Y265748D01*
X216930Y246063D02*
Y249213D01*
Y259449D02*
Y262598D01*
X220079Y249213D02*
Y252362D01*
Y262598D02*
Y265748D01*
X223229Y246063D02*
Y249213D01*
Y259449D02*
Y262598D01*
X229528Y246063D02*
Y249213D01*
Y259449D02*
Y262598D01*
X232678Y249213D02*
Y252362D01*
X235828Y246063D02*
Y249213D01*
Y259449D02*
Y262598D01*
X238977Y249213D02*
Y252362D01*
Y262598D02*
Y265748D01*
X242127Y246063D02*
Y249213D01*
Y259449D02*
Y262598D01*
X245276Y249213D02*
Y252362D01*
Y262598D02*
Y265748D01*
X248426Y259449D02*
Y262598D01*
X251576Y249213D02*
Y252362D01*
Y262598D02*
Y265748D01*
X254725Y246063D02*
Y249213D01*
Y259449D02*
Y262598D01*
X56300Y308268D02*
Y311417D01*
Y321654D02*
Y324803D01*
X59449Y305118D02*
Y308268D01*
Y318504D02*
Y321654D01*
X62599Y308268D02*
Y311417D01*
Y321654D02*
Y324803D01*
X65748Y305118D02*
Y308268D01*
Y318504D02*
Y321654D01*
X68898Y308268D02*
Y311417D01*
Y321654D02*
Y324803D01*
X72048Y305118D02*
Y308268D01*
X72048Y318504D02*
Y321654D01*
X75197Y308268D02*
Y311417D01*
Y321654D02*
Y324803D01*
X78347Y305118D02*
Y308268D01*
X78347Y318504D02*
Y321654D01*
X81497Y308268D02*
Y311417D01*
Y321654D02*
Y324803D01*
X84646Y305118D02*
Y308268D01*
Y318504D02*
Y321654D01*
X87796Y308268D02*
Y311417D01*
Y321654D02*
Y324803D01*
X90945Y305118D02*
Y308268D01*
Y318504D02*
Y321654D01*
X94095Y308268D02*
Y311417D01*
Y321654D02*
Y324803D01*
X97245Y305118D02*
Y308268D01*
Y318504D02*
Y321654D01*
X100394Y308268D02*
Y311417D01*
Y321654D02*
Y324803D01*
X103544Y305118D02*
Y308268D01*
Y318504D02*
Y321654D01*
X106693Y308268D02*
Y311417D01*
X106693Y321654D02*
Y324803D01*
X109843Y305118D02*
Y308268D01*
Y318504D02*
Y321654D01*
X112993Y308268D02*
Y311417D01*
Y321654D02*
Y324803D01*
X116142Y305118D02*
Y308268D01*
Y318504D02*
Y321654D01*
X119292Y308268D02*
Y311417D01*
Y321654D02*
Y324803D01*
X122441Y305118D02*
Y308268D01*
Y318504D02*
Y321654D01*
X125591Y308268D02*
Y311417D01*
Y321654D02*
Y324803D01*
X128741Y305118D02*
Y308268D01*
Y318504D02*
Y321654D01*
X131890Y308268D02*
Y311417D01*
Y321654D02*
Y324803D01*
X135040Y305118D02*
Y308268D01*
Y318504D02*
Y321654D01*
X138189Y308268D02*
Y311417D01*
X138189Y321654D02*
Y324803D01*
X141339Y305118D02*
Y308268D01*
Y318504D02*
Y321654D01*
X144489Y308268D02*
Y311417D01*
Y321654D02*
Y324803D01*
X147638Y305118D02*
Y308268D01*
Y318504D02*
Y321654D01*
X150788Y308268D02*
Y311417D01*
X150788Y321654D02*
Y324803D01*
X153937Y305118D02*
Y308268D01*
Y318504D02*
Y321654D01*
X169685D02*
Y324803D01*
X172835Y305118D02*
Y308268D01*
Y318504D02*
Y321654D01*
X175985D02*
Y324803D01*
X179134Y305118D02*
Y308268D01*
Y318504D02*
Y321654D01*
X182284Y308268D02*
Y311417D01*
Y321654D02*
Y324803D01*
X185433Y305118D02*
Y308268D01*
Y318504D02*
Y321654D01*
X188583Y308268D02*
Y311417D01*
Y321654D02*
Y324803D01*
X191733Y305118D02*
Y308268D01*
Y318504D02*
Y321654D01*
X194882Y308268D02*
Y311417D01*
Y321654D02*
Y324803D01*
X198032Y305118D02*
Y308268D01*
Y318504D02*
Y321654D01*
X201182Y308268D02*
Y311417D01*
Y321654D02*
Y324803D01*
X204331Y305118D02*
Y308268D01*
Y318504D02*
Y321654D01*
X207481Y308268D02*
Y311417D01*
Y321654D02*
Y324803D01*
X210630Y305118D02*
Y308268D01*
Y318504D02*
Y321654D01*
X213780Y308268D02*
Y311417D01*
Y321654D02*
Y324803D01*
X216930Y305118D02*
Y308268D01*
Y318504D02*
Y321654D01*
X220079Y308268D02*
Y311417D01*
Y321654D02*
Y324803D01*
X223229Y305118D02*
Y308268D01*
Y318504D02*
Y321654D01*
X229528Y305118D02*
Y308268D01*
Y318504D02*
Y321654D01*
X232678Y308268D02*
Y311417D01*
X235827Y305118D02*
Y308268D01*
Y318504D02*
Y321654D01*
X238977Y308268D02*
Y311417D01*
Y321654D02*
Y324803D01*
X242126Y305118D02*
Y308268D01*
Y318504D02*
Y321654D01*
X245276Y308268D02*
Y311417D01*
Y321654D02*
Y324803D01*
X248426Y318504D02*
Y321654D01*
X251575Y308268D02*
Y311417D01*
Y321654D02*
Y324803D01*
X254725Y305118D02*
Y308268D01*
Y318504D02*
Y321654D01*
X56299Y367320D02*
Y370470D01*
Y380706D02*
Y383856D01*
X59448Y364171D02*
Y367320D01*
Y377557D02*
Y380706D01*
X62598Y367320D02*
Y370470D01*
Y380706D02*
Y383856D01*
X65748Y364171D02*
Y367320D01*
Y377557D02*
Y380706D01*
X68897Y367320D02*
Y370470D01*
Y380706D02*
Y383856D01*
X72047Y364171D02*
Y367320D01*
X72047Y377557D02*
Y380706D01*
X75196Y367320D02*
Y370470D01*
Y380706D02*
Y383856D01*
X78346Y364171D02*
Y367320D01*
X78346Y377557D02*
Y380706D01*
X81496Y367320D02*
Y370470D01*
Y380706D02*
Y383856D01*
X84645Y364171D02*
Y367320D01*
Y377557D02*
Y380706D01*
X87795Y367320D02*
Y370470D01*
Y380706D02*
Y383856D01*
X90944Y364171D02*
Y367320D01*
Y377557D02*
Y380706D01*
X94094Y367320D02*
Y370470D01*
Y380706D02*
Y383856D01*
X97244Y364171D02*
Y367320D01*
Y377557D02*
Y380706D01*
X100393Y367320D02*
Y370470D01*
Y380706D02*
Y383856D01*
X103543Y364171D02*
Y367320D01*
Y377557D02*
Y380706D01*
X106693Y367320D02*
Y370470D01*
X106693Y380706D02*
Y383856D01*
X109842Y364171D02*
Y367320D01*
Y377557D02*
Y380706D01*
X112992Y367320D02*
Y370470D01*
Y380706D02*
Y383856D01*
X116141Y364171D02*
Y367320D01*
Y377557D02*
Y380706D01*
X119291Y367320D02*
Y370470D01*
Y380706D02*
Y383856D01*
X122441Y364171D02*
Y367320D01*
Y377557D02*
Y380706D01*
X125590Y367320D02*
Y370470D01*
Y380706D02*
Y383856D01*
X128740Y364171D02*
Y367320D01*
Y377557D02*
Y380706D01*
X131889Y367320D02*
Y370470D01*
Y380706D02*
Y383856D01*
X135039Y364171D02*
Y367320D01*
Y377557D02*
Y380706D01*
X138189Y367320D02*
Y370470D01*
X138189Y380706D02*
Y383856D01*
X141338Y364171D02*
Y367320D01*
Y377557D02*
Y380706D01*
X144488Y367320D02*
Y370470D01*
Y380706D02*
Y383856D01*
X147637Y364171D02*
Y367320D01*
Y377557D02*
Y380706D01*
X150787Y367320D02*
Y370470D01*
X150787Y380706D02*
Y383856D01*
X153937Y364171D02*
Y367320D01*
Y377557D02*
Y380706D01*
X169685D02*
Y383856D01*
X172834Y364171D02*
Y367320D01*
Y377557D02*
Y380706D01*
X175984D02*
Y383856D01*
X179133Y364171D02*
Y367320D01*
Y377557D02*
Y380706D01*
X182283Y367320D02*
Y370470D01*
Y380706D02*
Y383856D01*
X185433Y364171D02*
Y367320D01*
Y377557D02*
Y380706D01*
X188582Y367320D02*
Y370470D01*
Y380706D02*
Y383856D01*
X191732Y364171D02*
Y367320D01*
Y377557D02*
Y380706D01*
X194881Y367320D02*
Y370470D01*
Y380706D02*
Y383856D01*
X198031Y364171D02*
Y367320D01*
Y377557D02*
Y380706D01*
X201181Y367320D02*
Y370470D01*
Y380706D02*
Y383856D01*
X204330Y364171D02*
Y367320D01*
Y377557D02*
Y380706D01*
X207480Y367320D02*
Y370470D01*
Y380706D02*
Y383856D01*
X210630Y364171D02*
Y367320D01*
Y377557D02*
Y380706D01*
X213779Y367320D02*
Y370470D01*
Y380706D02*
Y383856D01*
X216929Y364171D02*
Y367320D01*
Y377557D02*
Y380706D01*
X220078Y367320D02*
Y370470D01*
Y380706D02*
Y383856D01*
X223228Y364171D02*
Y367320D01*
Y377557D02*
Y380706D01*
X229527Y364171D02*
Y367320D01*
Y377557D02*
Y380706D01*
X232677Y367320D02*
Y370470D01*
X235826Y364171D02*
Y367320D01*
Y377557D02*
Y380706D01*
X238976Y367320D02*
Y370470D01*
Y380706D02*
Y383856D01*
X242126Y364171D02*
Y367320D01*
Y377557D02*
Y380706D01*
X245275Y367320D02*
Y370470D01*
Y380706D02*
Y383856D01*
X248425Y377557D02*
Y380706D01*
X251574Y367320D02*
Y370470D01*
Y380706D02*
Y383856D01*
X254724Y364171D02*
Y367320D01*
Y377557D02*
Y380706D01*
X56299Y426375D02*
Y429525D01*
Y439761D02*
Y442911D01*
X59448Y423226D02*
Y426375D01*
Y436612D02*
Y439761D01*
X62598Y426375D02*
Y429525D01*
Y439761D02*
Y442911D01*
X65748Y423226D02*
Y426375D01*
Y436612D02*
Y439761D01*
X68897Y426375D02*
Y429525D01*
Y439761D02*
Y442911D01*
X72047Y423226D02*
Y426375D01*
X72047Y436612D02*
Y439761D01*
X75196Y426375D02*
Y429525D01*
Y439761D02*
Y442911D01*
X78346Y423226D02*
Y426375D01*
X78346Y436612D02*
Y439761D01*
X81496Y426375D02*
Y429525D01*
Y439761D02*
Y442911D01*
X84645Y423226D02*
Y426375D01*
Y436612D02*
Y439761D01*
X87795Y426375D02*
Y429525D01*
Y439761D02*
Y442911D01*
X90944Y423226D02*
Y426375D01*
Y436612D02*
Y439761D01*
X94094Y426375D02*
Y429525D01*
Y439761D02*
Y442911D01*
X97244Y423226D02*
Y426375D01*
Y436612D02*
Y439761D01*
X100393Y426375D02*
Y429525D01*
Y439761D02*
Y442911D01*
X103543Y423226D02*
Y426375D01*
Y436612D02*
Y439761D01*
X106693Y426375D02*
Y429525D01*
X106693Y439761D02*
Y442911D01*
X109842Y423226D02*
Y426375D01*
Y436612D02*
Y439761D01*
X112992Y426375D02*
Y429525D01*
Y439761D02*
Y442911D01*
X116141Y423226D02*
Y426375D01*
Y436612D02*
Y439761D01*
X119291Y426375D02*
Y429525D01*
Y439761D02*
Y442911D01*
X122441Y423226D02*
Y426375D01*
Y436612D02*
Y439761D01*
X125590Y426375D02*
Y429525D01*
Y439761D02*
Y442911D01*
X128740Y423226D02*
Y426375D01*
Y436612D02*
Y439761D01*
X131889Y426375D02*
Y429525D01*
Y439761D02*
Y442911D01*
X135039Y423226D02*
Y426375D01*
Y436612D02*
Y439761D01*
X138189Y426375D02*
Y429525D01*
X138189Y439761D02*
Y442911D01*
X141338Y423226D02*
Y426375D01*
Y436612D02*
Y439761D01*
X144488Y426375D02*
Y429525D01*
Y439761D02*
Y442911D01*
X147637Y423226D02*
Y426375D01*
Y436612D02*
Y439761D01*
X150787Y426375D02*
Y429525D01*
X150787Y439761D02*
Y442911D01*
X153937Y423226D02*
Y426375D01*
Y436612D02*
Y439761D01*
X169685D02*
Y442911D01*
X172834Y423226D02*
Y426375D01*
Y436612D02*
Y439761D01*
X175984D02*
Y442911D01*
X179133Y423226D02*
Y426375D01*
Y436612D02*
Y439761D01*
X182283Y426375D02*
Y429525D01*
Y439761D02*
Y442911D01*
X185433Y423226D02*
Y426375D01*
Y436612D02*
Y439761D01*
X188582Y426375D02*
Y429525D01*
Y439761D02*
Y442911D01*
X191732Y423226D02*
Y426375D01*
Y436612D02*
Y439761D01*
X194881Y426375D02*
Y429525D01*
Y439761D02*
Y442911D01*
X198031Y423226D02*
Y426375D01*
Y436612D02*
Y439761D01*
X201181Y426375D02*
Y429525D01*
Y439761D02*
Y442911D01*
X204330Y423226D02*
Y426375D01*
Y436612D02*
Y439761D01*
X207480Y426375D02*
Y429525D01*
Y439761D02*
Y442911D01*
X210630Y423226D02*
Y426375D01*
Y436612D02*
Y439761D01*
X213779Y426375D02*
Y429525D01*
Y439761D02*
Y442911D01*
X216929Y423226D02*
Y426375D01*
Y436612D02*
Y439761D01*
X220078Y426375D02*
Y429525D01*
Y439761D02*
Y442911D01*
X223228Y423226D02*
Y426375D01*
Y436612D02*
Y439761D01*
X229527Y423226D02*
Y426375D01*
Y436612D02*
Y439761D01*
X232677Y426375D02*
Y429525D01*
X235826Y423226D02*
Y426375D01*
Y436612D02*
Y439761D01*
X238976Y426375D02*
Y429525D01*
Y439761D02*
Y442911D01*
X242126Y423226D02*
Y426375D01*
Y436612D02*
Y439761D01*
X245275Y426375D02*
Y429525D01*
Y439761D02*
Y442911D01*
X248425Y436612D02*
Y439761D01*
X251574Y426375D02*
Y429525D01*
X254724Y423226D02*
Y426375D01*
Y436612D02*
Y439761D01*
X56299Y485431D02*
Y488580D01*
Y498816D02*
Y501966D01*
X59448Y482281D02*
Y485431D01*
Y495667D02*
Y498816D01*
X62598Y485431D02*
Y488580D01*
Y498816D02*
Y501966D01*
X65748Y482281D02*
Y485431D01*
Y495667D02*
Y498816D01*
X68897Y485431D02*
Y488580D01*
Y498816D02*
Y501966D01*
X72047Y482281D02*
Y485431D01*
X72047Y495667D02*
Y498816D01*
X75196Y485431D02*
Y488580D01*
Y498816D02*
Y501966D01*
X78346Y482281D02*
Y485431D01*
X78346Y495667D02*
Y498816D01*
X81496Y485431D02*
Y488580D01*
Y498816D02*
Y501966D01*
X84645Y482281D02*
Y485431D01*
Y495667D02*
Y498816D01*
X87795Y485431D02*
Y488580D01*
Y498816D02*
Y501966D01*
X90944Y482281D02*
Y485431D01*
Y495667D02*
Y498816D01*
X94094Y485431D02*
Y488580D01*
Y498816D02*
Y501966D01*
X97244Y482281D02*
Y485431D01*
Y495667D02*
Y498816D01*
X100393Y485431D02*
Y488580D01*
Y498816D02*
Y501966D01*
X103543Y482281D02*
Y485431D01*
Y495667D02*
Y498816D01*
X106693Y485431D02*
Y488580D01*
X106693Y498816D02*
Y501966D01*
X109842Y482281D02*
Y485431D01*
Y495667D02*
Y498816D01*
X112992Y485431D02*
Y488580D01*
Y498816D02*
Y501966D01*
X116141Y482281D02*
Y485431D01*
Y495667D02*
Y498816D01*
X119291Y485431D02*
Y488580D01*
Y498816D02*
Y501966D01*
X122441Y482281D02*
Y485431D01*
Y495667D02*
Y498816D01*
X125590Y485431D02*
Y488580D01*
Y498816D02*
Y501966D01*
X128740Y482281D02*
Y485431D01*
Y495667D02*
Y498816D01*
X131889Y485431D02*
Y488580D01*
Y498816D02*
Y501966D01*
X135039Y482281D02*
Y485431D01*
Y495667D02*
Y498816D01*
X138189Y485431D02*
Y488580D01*
X138189Y498816D02*
Y501966D01*
X141338Y482281D02*
Y485431D01*
Y495667D02*
Y498816D01*
X144488Y485431D02*
Y488580D01*
Y498816D02*
Y501966D01*
X147637Y482281D02*
Y485431D01*
Y495667D02*
Y498816D01*
X150787Y485431D02*
Y488580D01*
X150787Y498816D02*
Y501966D01*
X153937Y482281D02*
Y485431D01*
Y495667D02*
Y498816D01*
X169685D02*
Y501966D01*
X172834Y482281D02*
Y485431D01*
Y495667D02*
Y498816D01*
X175984D02*
Y501966D01*
X179133Y482281D02*
Y485431D01*
Y495667D02*
Y498816D01*
X182283Y485431D02*
Y488580D01*
Y498816D02*
Y501966D01*
X185433Y482281D02*
Y485431D01*
Y495667D02*
Y498816D01*
X188582Y485431D02*
Y488580D01*
Y498816D02*
Y501966D01*
X191732Y482281D02*
Y485431D01*
Y495667D02*
Y498816D01*
X194881Y485431D02*
Y488580D01*
Y498816D02*
Y501966D01*
X198031Y482281D02*
Y485431D01*
Y495667D02*
Y498816D01*
X201181Y485431D02*
Y488580D01*
Y498816D02*
Y501966D01*
X204330Y482281D02*
Y485431D01*
Y495667D02*
Y498816D01*
X207480Y485431D02*
Y488580D01*
Y498816D02*
Y501966D01*
X210630Y482281D02*
Y485431D01*
Y495667D02*
Y498816D01*
X213779Y485431D02*
Y488580D01*
Y498816D02*
Y501966D01*
X216929Y482281D02*
Y485431D01*
Y495667D02*
Y498816D01*
X220078Y485431D02*
Y488580D01*
Y498816D02*
Y501966D01*
X223228Y482281D02*
Y485431D01*
Y495667D02*
Y498816D01*
X229527Y482281D02*
Y485431D01*
Y495667D02*
Y498816D01*
X232677Y485431D02*
Y488580D01*
X235826Y482281D02*
Y485431D01*
Y495667D02*
Y498816D01*
X238976Y485431D02*
Y488580D01*
Y498816D02*
Y501966D01*
X242126Y482281D02*
Y485431D01*
Y495667D02*
Y498816D01*
X245275Y485431D02*
Y488580D01*
Y498816D02*
Y501966D01*
X248425Y495667D02*
Y498816D01*
X251574Y485431D02*
Y488580D01*
Y498816D02*
Y501966D01*
X254724Y482281D02*
Y485431D01*
Y495667D02*
Y498816D01*
X150788Y85433D02*
Y88582D01*
X144489Y85433D02*
Y88582D01*
X138189Y85433D02*
Y88582D01*
X131890Y85433D02*
Y88582D01*
X125591Y85433D02*
Y88582D01*
X119292Y85433D02*
Y88582D01*
X81497Y85433D02*
Y88582D01*
X87796Y85433D02*
Y88582D01*
X94095Y85433D02*
Y88582D01*
X100394Y85433D02*
Y88582D01*
X106693Y85433D02*
Y88582D01*
X112993Y85433D02*
Y88582D01*
X150788Y72047D02*
Y75196D01*
X144489Y72047D02*
Y75196D01*
X100394Y72047D02*
Y75196D01*
X106693Y72047D02*
Y75196D01*
X112993Y72047D02*
Y75196D01*
X119292Y72047D02*
Y75196D01*
X125591Y72047D02*
Y75196D01*
X131890Y72047D02*
Y75196D01*
X138189Y72047D02*
Y75196D01*
X182284Y72047D02*
Y75196D01*
X188583Y72047D02*
Y75196D01*
X194882Y72047D02*
Y75196D01*
X201182Y72047D02*
Y75196D01*
X172835Y68898D02*
Y72047D01*
X179134Y68898D02*
Y72047D01*
X185433Y68898D02*
Y72047D01*
X191733Y68898D02*
Y72047D01*
X198032Y68898D02*
Y72047D01*
X204331Y68898D02*
Y72047D01*
X210630Y68898D02*
Y72047D01*
X216930Y68898D02*
Y72047D01*
X223229Y68898D02*
Y72047D01*
X229528Y68898D02*
Y72047D01*
X235827Y68898D02*
Y72047D01*
X242126Y68898D02*
Y72047D01*
X254725Y68898D02*
Y72047D01*
X238977D02*
Y75196D01*
X232678Y72047D02*
Y75196D01*
X220079Y72047D02*
Y75196D01*
X213780Y72047D02*
Y75196D01*
X207481Y72047D02*
Y75196D01*
X251575Y72047D02*
Y75196D01*
X245276Y72047D02*
Y75196D01*
X169685Y85433D02*
Y88582D01*
X175985Y85433D02*
Y88582D01*
X182284Y85433D02*
Y88582D01*
X188583Y85433D02*
Y88582D01*
X194882Y85433D02*
Y88582D01*
X201182Y85433D02*
Y88582D01*
X172835Y82284D02*
Y85433D01*
X179134Y82284D02*
Y85433D01*
X185433Y82284D02*
Y85433D01*
X191733Y82284D02*
Y85433D01*
X198032Y82284D02*
Y85433D01*
X204331Y82284D02*
Y85433D01*
X210630Y82284D02*
Y85433D01*
X216930Y82284D02*
Y85433D01*
X223229Y82284D02*
Y85433D01*
X229528Y82284D02*
Y85433D01*
X235827Y82284D02*
Y85433D01*
X242126Y82284D02*
Y85433D01*
X248426Y82284D02*
Y85433D01*
X254725Y82284D02*
Y85433D01*
X238977D02*
Y88582D01*
X220079Y85433D02*
Y88582D01*
X213780Y85433D02*
Y88582D01*
X207481Y85433D02*
Y88582D01*
X251575Y85433D02*
Y88582D01*
X245276Y85433D02*
Y88582D01*
X153937Y82284D02*
Y85433D01*
X147638Y82284D02*
Y85433D01*
X141339Y82284D02*
Y85433D01*
X135040Y82284D02*
Y85433D01*
X128741Y82284D02*
Y85433D01*
X122441Y82284D02*
Y85433D01*
X153937Y68898D02*
Y72047D01*
X147638Y68898D02*
Y72047D01*
X141339Y68898D02*
Y72047D01*
X135040Y68898D02*
Y72047D01*
X128741Y68898D02*
Y72047D01*
X122441Y68898D02*
Y72047D01*
X116142Y68898D02*
Y72047D01*
X109843Y68898D02*
Y72047D01*
X103544Y68898D02*
Y72047D01*
X116142Y82284D02*
Y85433D01*
X109843Y82284D02*
Y85433D01*
X103544Y82284D02*
Y85433D01*
X97245Y82284D02*
Y85433D01*
X90945Y82284D02*
Y85433D01*
X84646Y82284D02*
Y85433D01*
X78347Y82284D02*
Y85433D01*
X72048Y82284D02*
Y85433D01*
X97245Y68898D02*
Y72047D01*
X94095D02*
Y75196D01*
X87796Y72047D02*
Y75196D01*
X81497Y72047D02*
Y75196D01*
X75197Y72047D02*
Y75196D01*
X68898Y72047D02*
Y75196D01*
X62599Y72047D02*
Y75196D01*
X90945Y68898D02*
Y72047D01*
X84646Y68898D02*
Y72047D01*
X75197Y85433D02*
Y88582D01*
X78347Y68898D02*
Y72047D01*
X68898Y85433D02*
Y88582D01*
X72048Y68898D02*
Y72047D01*
X65748Y68898D02*
Y72047D01*
D11*
X10236Y298819D02*
X10311Y298744D01*
X3543Y305512D02*
X10236Y298819D01*
X70472Y511024D02*
X72638Y513189D01*
X32972Y511024D02*
X70472D01*
X24016Y502067D02*
X32972Y511024D01*
X72638Y513189D02*
Y524114D01*
X23720Y517520D02*
X41535Y535335D01*
X16929Y517520D02*
X23720D01*
X3543Y504134D02*
X16929Y517520D01*
X3543Y305906D02*
Y504134D01*
X5413Y501673D02*
X18504Y514764D01*
X5413Y362694D02*
Y501673D01*
X1772Y508268D02*
X4528Y511024D01*
X4724D01*
X1772Y508268D02*
X1772Y248229D01*
X59941Y522835D02*
X59990Y522884D01*
X65089D01*
X65139Y522933D01*
X92539Y522933D02*
X97835D01*
X24016Y492618D02*
Y502067D01*
X10219Y478821D02*
X24016Y492618D01*
X10219Y475999D02*
Y478821D01*
X102657Y525492D02*
X102657Y525492D01*
X92539Y525492D02*
X102657D01*
X92539Y528051D02*
X97835D01*
X102657Y530610D02*
X102657Y530610D01*
X92539Y530610D02*
X102657D01*
X227608Y517963D02*
X227756Y518110D01*
X92686Y517963D02*
X227608D01*
X92539Y517815D02*
X92686Y517963D01*
X41929Y532972D02*
X52854D01*
X6988Y498032D02*
X41929Y532972D01*
X6988Y420174D02*
Y498032D01*
X1772Y248229D02*
X10237Y239764D01*
X55512Y533169D02*
X65139D01*
X53347Y535335D02*
X55512Y533169D01*
X55216Y530610D02*
X65139D01*
X52854Y532972D02*
X55216Y530610D01*
X41535Y535335D02*
X53347D01*
X5413Y362694D02*
X10235Y357872D01*
X6988Y420174D02*
X10235Y416927D01*
X71260Y525492D02*
X72638Y524114D01*
X65139Y525492D02*
X71260D01*
X5036Y42344D02*
Y44321D01*
X5003Y50954D02*
Y52932D01*
X19291Y148819D02*
Y159941D01*
X15158Y152067D02*
X15551Y151673D01*
X9547Y152067D02*
X15158D01*
X43570Y123271D02*
Y129889D01*
X44488Y130807D01*
Y137894D01*
X42323Y140059D02*
X44488Y137894D01*
X42323Y140059D02*
Y155413D01*
X19291Y159941D02*
X19488Y159744D01*
X19291Y148819D02*
X30029Y138081D01*
Y123425D02*
Y138081D01*
X30028Y477753D02*
X30183Y477599D01*
X19684Y477753D02*
X30028D01*
X43569Y477599D02*
X43700Y477467D01*
Y470076D02*
Y477467D01*
X35301Y470119D02*
X35322Y470097D01*
X37379D02*
X37400Y470076D01*
X35322Y470097D02*
X37379D01*
X10219Y475999D02*
X10235Y475982D01*
X15748Y469682D02*
X15944Y469486D01*
X10235Y469682D02*
X15748D01*
X30028Y418698D02*
X30183Y418544D01*
X19684Y418698D02*
X30028D01*
X43569Y418544D02*
X43700Y418412D01*
Y411021D02*
Y418412D01*
X35301Y411063D02*
X35322Y411042D01*
X37379D02*
X37400Y411021D01*
X35322Y411042D02*
X37379D01*
X15748Y410627D02*
X15944Y410431D01*
X10235Y410627D02*
X15748D01*
X30028Y359643D02*
X30183Y359489D01*
X19684Y359643D02*
X30028D01*
X43569Y359489D02*
X43700Y359357D01*
Y351966D02*
Y359357D01*
X35301Y352008D02*
X35322Y351987D01*
X37379D02*
X37400Y351966D01*
X35322Y351987D02*
X37379D01*
X15748Y351572D02*
X15944Y351376D01*
X10235Y351572D02*
X15748D01*
X30029Y300591D02*
X30184Y300436D01*
X19685Y300591D02*
X30029D01*
X43569Y300436D02*
X43701Y300304D01*
Y292913D02*
Y300304D01*
X37380Y292934D02*
X37401Y292913D01*
X35323Y292934D02*
X37380D01*
X15748Y292913D02*
X15945Y292717D01*
X10236Y292913D02*
X15748D01*
X30029Y241535D02*
X30184Y241381D01*
X19685Y241535D02*
X30029D01*
X43570Y241381D02*
X43702Y241249D01*
Y233858D02*
Y241249D01*
X35302Y233900D02*
X35323Y233879D01*
X37380D02*
X37402Y233858D01*
X35323Y233879D02*
X37380D01*
X15749Y233464D02*
X15945Y233268D01*
X10237Y233464D02*
X15749D01*
X30029Y182480D02*
X30184Y182326D01*
X19685Y182480D02*
X30029D01*
X43570Y182326D02*
X43702Y182194D01*
Y174803D02*
Y182194D01*
X35302Y174845D02*
X35323Y174824D01*
X37380D02*
X37402Y174803D01*
X35323Y174824D02*
X37380D01*
X10220Y180726D02*
X10237Y180709D01*
X10220Y180726D02*
Y182703D01*
X10204Y182719D02*
X10220Y182703D01*
X15749Y174409D02*
X15945Y174213D01*
X10237Y174409D02*
X15749D01*
X30029Y123425D02*
X30184Y123271D01*
X43307Y123228D02*
X43439Y123097D01*
X33924Y155456D02*
X33945Y155435D01*
X36002D02*
X36023Y155413D01*
X33945Y155435D02*
X36002D01*
X9531Y158383D02*
X9547Y158367D01*
X9531Y158383D02*
Y160360D01*
X9514Y160377D02*
X9531Y160360D01*
X10203Y64609D02*
X10220Y64593D01*
Y62615D02*
Y64593D01*
Y62615D02*
X10236Y62599D01*
X35302Y56735D02*
X35323Y56714D01*
X37380D01*
X37401Y56693D01*
X43701D02*
Y64084D01*
X43569Y64215D02*
X43701Y64084D01*
X10236Y56299D02*
X15748D01*
X15945Y56102D01*
X30029Y64370D02*
X30184Y64215D01*
X19685Y64370D02*
X30029D01*
D17*
X254725Y85433D02*
D03*
Y72047D02*
D03*
X251575Y85433D02*
D03*
Y72047D02*
D03*
X248426Y85433D02*
D03*
Y72047D02*
D03*
X245276Y85433D02*
D03*
Y72047D02*
D03*
X242126Y85433D02*
D03*
Y72047D02*
D03*
X238977Y85433D02*
D03*
Y72047D02*
D03*
X235827Y85433D02*
D03*
Y72047D02*
D03*
X232678Y85433D02*
D03*
Y72047D02*
D03*
X229528Y85433D02*
D03*
Y72047D02*
D03*
X226378Y85433D02*
D03*
Y72047D02*
D03*
X223229Y85433D02*
D03*
Y72047D02*
D03*
X220079Y85433D02*
D03*
Y72047D02*
D03*
X216930Y85433D02*
D03*
Y72047D02*
D03*
X213780Y85433D02*
D03*
Y72047D02*
D03*
X210630Y85433D02*
D03*
Y72047D02*
D03*
X207481Y85433D02*
D03*
Y72047D02*
D03*
X204331Y85433D02*
D03*
Y72047D02*
D03*
X201182Y85433D02*
D03*
Y72047D02*
D03*
X198032Y85433D02*
D03*
Y72047D02*
D03*
X194882Y85433D02*
D03*
Y72047D02*
D03*
X191733Y85433D02*
D03*
Y72047D02*
D03*
X188583Y85433D02*
D03*
Y72047D02*
D03*
X185433Y85433D02*
D03*
Y72047D02*
D03*
X182284Y85433D02*
D03*
Y72047D02*
D03*
X179134Y85433D02*
D03*
Y72047D02*
D03*
X175985Y85433D02*
D03*
Y72047D02*
D03*
X172835Y85433D02*
D03*
Y72047D02*
D03*
X169685Y85433D02*
D03*
Y72047D02*
D03*
X153937Y85433D02*
D03*
Y72047D02*
D03*
X150788Y85433D02*
D03*
Y72047D02*
D03*
X147638Y85433D02*
D03*
Y72047D02*
D03*
X144489Y85433D02*
D03*
Y72047D02*
D03*
X141339Y85433D02*
D03*
Y72047D02*
D03*
X138189Y85433D02*
D03*
Y72047D02*
D03*
X135040Y85433D02*
D03*
Y72047D02*
D03*
X131890Y85433D02*
D03*
Y72047D02*
D03*
X128741Y85433D02*
D03*
Y72047D02*
D03*
X125591Y85433D02*
D03*
Y72047D02*
D03*
X122441Y85433D02*
D03*
Y72047D02*
D03*
X119292Y85433D02*
D03*
Y72047D02*
D03*
X116142Y85433D02*
D03*
Y72047D02*
D03*
X112993Y85433D02*
D03*
Y72047D02*
D03*
X109843Y85433D02*
D03*
Y72047D02*
D03*
X106693Y85433D02*
D03*
Y72047D02*
D03*
X103544Y85433D02*
D03*
Y72047D02*
D03*
X100394Y85433D02*
D03*
Y72047D02*
D03*
X97245Y85433D02*
D03*
Y72047D02*
D03*
X94095Y85433D02*
D03*
Y72047D02*
D03*
X90945Y85433D02*
D03*
Y72047D02*
D03*
X87796Y85433D02*
D03*
Y72047D02*
D03*
X84646Y85433D02*
D03*
Y72047D02*
D03*
X81497Y85433D02*
D03*
Y72047D02*
D03*
X78347Y85433D02*
D03*
Y72047D02*
D03*
X75197Y85433D02*
D03*
Y72047D02*
D03*
X72048Y85433D02*
D03*
Y72047D02*
D03*
X68898Y85433D02*
D03*
Y72047D02*
D03*
X65748Y85433D02*
D03*
Y72047D02*
D03*
X62599Y85433D02*
D03*
Y72047D02*
D03*
X59449Y85433D02*
D03*
Y72047D02*
D03*
X56300Y85433D02*
D03*
Y72047D02*
D03*
X56300Y249213D02*
D03*
Y262598D02*
D03*
X59450Y249213D02*
D03*
Y262598D02*
D03*
X62599Y249213D02*
D03*
Y262598D02*
D03*
X65749Y249213D02*
D03*
Y262598D02*
D03*
X68898Y249213D02*
D03*
Y262598D02*
D03*
X72048Y249213D02*
D03*
Y262598D02*
D03*
X75198Y249213D02*
D03*
Y262598D02*
D03*
X78347Y249213D02*
D03*
Y262598D02*
D03*
X81497Y249213D02*
D03*
Y262598D02*
D03*
X84646Y249213D02*
D03*
Y262598D02*
D03*
X87796Y249213D02*
D03*
Y262598D02*
D03*
X90946Y249213D02*
D03*
Y262598D02*
D03*
X94095Y249213D02*
D03*
Y262598D02*
D03*
X97245Y249213D02*
D03*
Y262598D02*
D03*
X100394Y249213D02*
D03*
Y262598D02*
D03*
X103544Y249213D02*
D03*
Y262598D02*
D03*
X106694Y249213D02*
D03*
Y262598D02*
D03*
X109843Y249213D02*
D03*
Y262598D02*
D03*
X112993Y249213D02*
D03*
Y262598D02*
D03*
X116142Y249213D02*
D03*
Y262598D02*
D03*
X119292Y249213D02*
D03*
Y262598D02*
D03*
X122442Y249213D02*
D03*
Y262598D02*
D03*
X125591Y249213D02*
D03*
Y262598D02*
D03*
X128741Y249213D02*
D03*
Y262598D02*
D03*
X131890Y249213D02*
D03*
Y262598D02*
D03*
X135040Y249213D02*
D03*
Y262598D02*
D03*
X138190Y249213D02*
D03*
Y262598D02*
D03*
X141339Y249213D02*
D03*
Y262598D02*
D03*
X144489Y249213D02*
D03*
Y262598D02*
D03*
X147639Y249213D02*
D03*
Y262598D02*
D03*
X150788Y249213D02*
D03*
Y262598D02*
D03*
X153938Y249213D02*
D03*
Y262598D02*
D03*
X169686Y249213D02*
D03*
Y262598D02*
D03*
X172835Y249213D02*
D03*
Y262598D02*
D03*
X175985Y249213D02*
D03*
Y262598D02*
D03*
X179135Y249213D02*
D03*
Y262598D02*
D03*
X182284Y249213D02*
D03*
Y262598D02*
D03*
X185434Y249213D02*
D03*
Y262598D02*
D03*
X188583Y249213D02*
D03*
Y262598D02*
D03*
X191733Y249213D02*
D03*
Y262598D02*
D03*
X194883Y249213D02*
D03*
Y262598D02*
D03*
X198032Y249213D02*
D03*
Y262598D02*
D03*
X201182Y249213D02*
D03*
Y262598D02*
D03*
X204331Y249213D02*
D03*
Y262598D02*
D03*
X207481Y249213D02*
D03*
Y262598D02*
D03*
X210631Y249213D02*
D03*
Y262598D02*
D03*
X213780Y249213D02*
D03*
Y262598D02*
D03*
X216930Y249213D02*
D03*
Y262598D02*
D03*
X220079Y249213D02*
D03*
Y262598D02*
D03*
X223229Y249213D02*
D03*
Y262598D02*
D03*
X226379Y249213D02*
D03*
Y262598D02*
D03*
X229528Y249213D02*
D03*
Y262598D02*
D03*
X232678Y249213D02*
D03*
Y262598D02*
D03*
X235828Y249213D02*
D03*
Y262598D02*
D03*
X238977Y249213D02*
D03*
Y262598D02*
D03*
X242127Y249213D02*
D03*
Y262598D02*
D03*
X245276Y249213D02*
D03*
Y262598D02*
D03*
X248426Y249213D02*
D03*
Y262598D02*
D03*
X251576Y249213D02*
D03*
Y262598D02*
D03*
X254725Y249213D02*
D03*
Y262598D02*
D03*
X254725Y321654D02*
D03*
Y308268D02*
D03*
X251575Y321654D02*
D03*
Y308268D02*
D03*
X248426Y321654D02*
D03*
Y308268D02*
D03*
X245276Y321654D02*
D03*
Y308268D02*
D03*
X242126Y321654D02*
D03*
Y308268D02*
D03*
X238977Y321654D02*
D03*
Y308268D02*
D03*
X235827Y321654D02*
D03*
Y308268D02*
D03*
X232678Y321654D02*
D03*
Y308268D02*
D03*
X229528Y321654D02*
D03*
Y308268D02*
D03*
X226378Y321654D02*
D03*
Y308268D02*
D03*
X223229Y321654D02*
D03*
Y308268D02*
D03*
X220079Y321654D02*
D03*
Y308268D02*
D03*
X216930Y321654D02*
D03*
Y308268D02*
D03*
X213780Y321654D02*
D03*
Y308268D02*
D03*
X210630Y321654D02*
D03*
Y308268D02*
D03*
X207481Y321654D02*
D03*
Y308268D02*
D03*
X204331Y321654D02*
D03*
Y308268D02*
D03*
X201182Y321654D02*
D03*
Y308268D02*
D03*
X198032Y321654D02*
D03*
Y308268D02*
D03*
X194882Y321654D02*
D03*
Y308268D02*
D03*
X191733Y321654D02*
D03*
Y308268D02*
D03*
X188583Y321654D02*
D03*
Y308268D02*
D03*
X185433Y321654D02*
D03*
Y308268D02*
D03*
X182284Y321654D02*
D03*
Y308268D02*
D03*
X179134Y321654D02*
D03*
Y308268D02*
D03*
X175985Y321654D02*
D03*
Y308268D02*
D03*
X172835Y321654D02*
D03*
Y308268D02*
D03*
X169685Y321654D02*
D03*
Y308268D02*
D03*
X153937Y321654D02*
D03*
Y308268D02*
D03*
X150788Y321654D02*
D03*
Y308268D02*
D03*
X147638Y321654D02*
D03*
Y308268D02*
D03*
X144489Y321654D02*
D03*
Y308268D02*
D03*
X141339Y321654D02*
D03*
Y308268D02*
D03*
X138189Y321654D02*
D03*
Y308268D02*
D03*
X135040Y321654D02*
D03*
Y308268D02*
D03*
X131890Y321654D02*
D03*
Y308268D02*
D03*
X128741Y321654D02*
D03*
Y308268D02*
D03*
X125591Y321654D02*
D03*
Y308268D02*
D03*
X122441Y321654D02*
D03*
Y308268D02*
D03*
X119292Y321654D02*
D03*
Y308268D02*
D03*
X116142Y321654D02*
D03*
Y308268D02*
D03*
X112993Y321654D02*
D03*
Y308268D02*
D03*
X109843Y321654D02*
D03*
Y308268D02*
D03*
X106693Y321654D02*
D03*
Y308268D02*
D03*
X103544Y321654D02*
D03*
Y308268D02*
D03*
X100394Y321654D02*
D03*
Y308268D02*
D03*
X97245Y321654D02*
D03*
Y308268D02*
D03*
X94095Y321654D02*
D03*
Y308268D02*
D03*
X90945Y321654D02*
D03*
Y308268D02*
D03*
X87796Y321654D02*
D03*
Y308268D02*
D03*
X84646Y321654D02*
D03*
Y308268D02*
D03*
X81497Y321654D02*
D03*
Y308268D02*
D03*
X78347Y321654D02*
D03*
Y308268D02*
D03*
X75197Y321654D02*
D03*
Y308268D02*
D03*
X72048Y321654D02*
D03*
Y308268D02*
D03*
X68898Y321654D02*
D03*
Y308268D02*
D03*
X65748Y321654D02*
D03*
Y308268D02*
D03*
X62599Y321654D02*
D03*
Y308268D02*
D03*
X59449Y321654D02*
D03*
Y308268D02*
D03*
X56300Y321654D02*
D03*
Y308268D02*
D03*
X56299Y367320D02*
D03*
Y380706D02*
D03*
X59448Y367320D02*
D03*
Y380706D02*
D03*
X62598Y367320D02*
D03*
Y380706D02*
D03*
X65748Y367320D02*
D03*
Y380706D02*
D03*
X68897Y367320D02*
D03*
Y380706D02*
D03*
X72047Y367320D02*
D03*
Y380706D02*
D03*
X75196Y367320D02*
D03*
Y380706D02*
D03*
X78346Y367320D02*
D03*
Y380706D02*
D03*
X81496Y367320D02*
D03*
Y380706D02*
D03*
X84645Y367320D02*
D03*
Y380706D02*
D03*
X87795Y367320D02*
D03*
Y380706D02*
D03*
X90944Y367320D02*
D03*
Y380706D02*
D03*
X94094Y367320D02*
D03*
Y380706D02*
D03*
X97244Y367320D02*
D03*
Y380706D02*
D03*
X100393Y367320D02*
D03*
Y380706D02*
D03*
X103543Y367320D02*
D03*
Y380706D02*
D03*
X106693Y367320D02*
D03*
Y380706D02*
D03*
X109842Y367320D02*
D03*
Y380706D02*
D03*
X112992Y367320D02*
D03*
Y380706D02*
D03*
X116141Y367320D02*
D03*
Y380706D02*
D03*
X119291Y367320D02*
D03*
Y380706D02*
D03*
X122441Y367320D02*
D03*
Y380706D02*
D03*
X125590Y367320D02*
D03*
Y380706D02*
D03*
X128740Y367320D02*
D03*
Y380706D02*
D03*
X131889Y367320D02*
D03*
Y380706D02*
D03*
X135039Y367320D02*
D03*
Y380706D02*
D03*
X138189Y367320D02*
D03*
Y380706D02*
D03*
X141338Y367320D02*
D03*
Y380706D02*
D03*
X144488Y367320D02*
D03*
Y380706D02*
D03*
X147637Y367320D02*
D03*
Y380706D02*
D03*
X150787Y367320D02*
D03*
Y380706D02*
D03*
X153937Y367320D02*
D03*
Y380706D02*
D03*
X169685Y367320D02*
D03*
Y380706D02*
D03*
X172834Y367320D02*
D03*
Y380706D02*
D03*
X175984Y367320D02*
D03*
Y380706D02*
D03*
X179133Y367320D02*
D03*
Y380706D02*
D03*
X182283Y367320D02*
D03*
Y380706D02*
D03*
X185433Y367320D02*
D03*
Y380706D02*
D03*
X188582Y367320D02*
D03*
Y380706D02*
D03*
X191732Y367320D02*
D03*
Y380706D02*
D03*
X194881Y367320D02*
D03*
Y380706D02*
D03*
X198031Y367320D02*
D03*
Y380706D02*
D03*
X201181Y367320D02*
D03*
Y380706D02*
D03*
X204330Y367320D02*
D03*
Y380706D02*
D03*
X207480Y367320D02*
D03*
Y380706D02*
D03*
X210630Y367320D02*
D03*
Y380706D02*
D03*
X213779Y367320D02*
D03*
Y380706D02*
D03*
X216929Y367320D02*
D03*
Y380706D02*
D03*
X220078Y367320D02*
D03*
Y380706D02*
D03*
X223228Y367320D02*
D03*
Y380706D02*
D03*
X226378Y367320D02*
D03*
Y380706D02*
D03*
X229527Y367320D02*
D03*
Y380706D02*
D03*
X232677Y367320D02*
D03*
Y380706D02*
D03*
X235826Y367320D02*
D03*
Y380706D02*
D03*
X238976Y367320D02*
D03*
Y380706D02*
D03*
X242126Y367320D02*
D03*
Y380706D02*
D03*
X245275Y367320D02*
D03*
Y380706D02*
D03*
X248425Y367320D02*
D03*
Y380706D02*
D03*
X251574Y367320D02*
D03*
Y380706D02*
D03*
X254724Y367320D02*
D03*
Y380706D02*
D03*
Y439761D02*
D03*
Y426375D02*
D03*
X251574Y439761D02*
D03*
Y426375D02*
D03*
X248425Y439761D02*
D03*
Y426375D02*
D03*
X245275Y439761D02*
D03*
Y426375D02*
D03*
X242126Y439761D02*
D03*
Y426375D02*
D03*
X238976Y439761D02*
D03*
Y426375D02*
D03*
X235826Y439761D02*
D03*
Y426375D02*
D03*
X232677Y439761D02*
D03*
Y426375D02*
D03*
X229527Y439761D02*
D03*
Y426375D02*
D03*
X226378Y439761D02*
D03*
Y426375D02*
D03*
X223228Y439761D02*
D03*
Y426375D02*
D03*
X220078Y439761D02*
D03*
Y426375D02*
D03*
X216929Y439761D02*
D03*
Y426375D02*
D03*
X213779Y439761D02*
D03*
Y426375D02*
D03*
X210630Y439761D02*
D03*
Y426375D02*
D03*
X207480Y439761D02*
D03*
Y426375D02*
D03*
X204330Y439761D02*
D03*
Y426375D02*
D03*
X201181Y439761D02*
D03*
Y426375D02*
D03*
X198031Y439761D02*
D03*
Y426375D02*
D03*
X194881Y439761D02*
D03*
Y426375D02*
D03*
X191732Y439761D02*
D03*
Y426375D02*
D03*
X188582Y439761D02*
D03*
Y426375D02*
D03*
X185433Y439761D02*
D03*
Y426375D02*
D03*
X182283Y439761D02*
D03*
Y426375D02*
D03*
X179133Y439761D02*
D03*
Y426375D02*
D03*
X175984Y439761D02*
D03*
Y426375D02*
D03*
X172834Y439761D02*
D03*
Y426375D02*
D03*
X169685Y439761D02*
D03*
Y426375D02*
D03*
X153937Y439761D02*
D03*
Y426375D02*
D03*
X150787Y439761D02*
D03*
Y426375D02*
D03*
X147637Y439761D02*
D03*
Y426375D02*
D03*
X144488Y439761D02*
D03*
Y426375D02*
D03*
X141338Y439761D02*
D03*
Y426375D02*
D03*
X138189Y439761D02*
D03*
Y426375D02*
D03*
X135039Y439761D02*
D03*
Y426375D02*
D03*
X131889Y439761D02*
D03*
Y426375D02*
D03*
X128740Y439761D02*
D03*
Y426375D02*
D03*
X125590Y439761D02*
D03*
Y426375D02*
D03*
X122441Y439761D02*
D03*
Y426375D02*
D03*
X119291Y439761D02*
D03*
Y426375D02*
D03*
X116141Y439761D02*
D03*
Y426375D02*
D03*
X112992Y439761D02*
D03*
Y426375D02*
D03*
X109842Y439761D02*
D03*
Y426375D02*
D03*
X106693Y439761D02*
D03*
Y426375D02*
D03*
X103543Y439761D02*
D03*
Y426375D02*
D03*
X100393Y439761D02*
D03*
Y426375D02*
D03*
X97244Y439761D02*
D03*
Y426375D02*
D03*
X94094Y439761D02*
D03*
Y426375D02*
D03*
X90944Y439761D02*
D03*
Y426375D02*
D03*
X87795Y439761D02*
D03*
Y426375D02*
D03*
X84645Y439761D02*
D03*
Y426375D02*
D03*
X81496Y439761D02*
D03*
Y426375D02*
D03*
X78346Y439761D02*
D03*
Y426375D02*
D03*
X75196Y439761D02*
D03*
Y426375D02*
D03*
X72047Y439761D02*
D03*
Y426375D02*
D03*
X68897Y439761D02*
D03*
Y426375D02*
D03*
X65748Y439761D02*
D03*
Y426375D02*
D03*
X62598Y439761D02*
D03*
Y426375D02*
D03*
X59448Y439761D02*
D03*
Y426375D02*
D03*
X56299Y439761D02*
D03*
Y426375D02*
D03*
Y485431D02*
D03*
Y498816D02*
D03*
X59448Y485431D02*
D03*
Y498816D02*
D03*
X62598Y485431D02*
D03*
Y498816D02*
D03*
X65748Y485431D02*
D03*
Y498816D02*
D03*
X68897Y485431D02*
D03*
Y498816D02*
D03*
X72047Y485431D02*
D03*
Y498816D02*
D03*
X75196Y485431D02*
D03*
Y498816D02*
D03*
X78346Y485431D02*
D03*
Y498816D02*
D03*
X81496Y485431D02*
D03*
Y498816D02*
D03*
X84645Y485431D02*
D03*
Y498816D02*
D03*
X87795Y485431D02*
D03*
Y498816D02*
D03*
X90944Y485431D02*
D03*
Y498816D02*
D03*
X94094Y485431D02*
D03*
Y498816D02*
D03*
X97244Y485431D02*
D03*
Y498816D02*
D03*
X100393Y485431D02*
D03*
Y498816D02*
D03*
X103543Y485431D02*
D03*
Y498816D02*
D03*
X106693Y485431D02*
D03*
Y498816D02*
D03*
X109842Y485431D02*
D03*
Y498816D02*
D03*
X112992Y485431D02*
D03*
Y498816D02*
D03*
X116141Y485431D02*
D03*
Y498816D02*
D03*
X119291Y485431D02*
D03*
Y498816D02*
D03*
X122441Y485431D02*
D03*
Y498816D02*
D03*
X125590Y485431D02*
D03*
Y498816D02*
D03*
X128740Y485431D02*
D03*
Y498816D02*
D03*
X131889Y485431D02*
D03*
Y498816D02*
D03*
X135039Y485431D02*
D03*
Y498816D02*
D03*
X138189Y485431D02*
D03*
Y498816D02*
D03*
X141338Y485431D02*
D03*
Y498816D02*
D03*
X144488Y485431D02*
D03*
Y498816D02*
D03*
X147637Y485431D02*
D03*
Y498816D02*
D03*
X150787Y485431D02*
D03*
Y498816D02*
D03*
X153937Y485431D02*
D03*
Y498816D02*
D03*
X169685Y485431D02*
D03*
Y498816D02*
D03*
X172834Y485431D02*
D03*
Y498816D02*
D03*
X175984Y485431D02*
D03*
Y498816D02*
D03*
X179133Y485431D02*
D03*
Y498816D02*
D03*
X182283Y485431D02*
D03*
Y498816D02*
D03*
X185433Y485431D02*
D03*
Y498816D02*
D03*
X188582Y485431D02*
D03*
Y498816D02*
D03*
X191732Y485431D02*
D03*
Y498816D02*
D03*
X194881Y485431D02*
D03*
Y498816D02*
D03*
X198031Y485431D02*
D03*
Y498816D02*
D03*
X201181Y485431D02*
D03*
Y498816D02*
D03*
X204330Y485431D02*
D03*
Y498816D02*
D03*
X207480Y485431D02*
D03*
Y498816D02*
D03*
X210630Y485431D02*
D03*
Y498816D02*
D03*
X213779Y485431D02*
D03*
Y498816D02*
D03*
X216929Y485431D02*
D03*
Y498816D02*
D03*
X220078Y485431D02*
D03*
Y498816D02*
D03*
X223228Y485431D02*
D03*
Y498816D02*
D03*
X226378Y485431D02*
D03*
Y498816D02*
D03*
X229527Y485431D02*
D03*
Y498816D02*
D03*
X232677Y485431D02*
D03*
Y498816D02*
D03*
X235826Y485431D02*
D03*
Y498816D02*
D03*
X238976Y485431D02*
D03*
Y498816D02*
D03*
X242126Y485431D02*
D03*
Y498816D02*
D03*
X245275Y485431D02*
D03*
Y498816D02*
D03*
X248425Y485431D02*
D03*
Y498816D02*
D03*
X251574Y485431D02*
D03*
Y498816D02*
D03*
X254724Y485431D02*
D03*
Y498816D02*
D03*
X254724Y203542D02*
D03*
Y190156D02*
D03*
X251574Y203542D02*
D03*
Y190156D02*
D03*
X248424Y203542D02*
D03*
Y190156D02*
D03*
X245275Y203542D02*
D03*
Y190156D02*
D03*
X242125Y203542D02*
D03*
Y190156D02*
D03*
X238976Y203542D02*
D03*
Y190156D02*
D03*
X235826Y203542D02*
D03*
Y190156D02*
D03*
X232676Y203542D02*
D03*
Y190156D02*
D03*
X229527Y203542D02*
D03*
Y190156D02*
D03*
X226377Y203542D02*
D03*
Y190156D02*
D03*
X223227Y203542D02*
D03*
Y190156D02*
D03*
X220078Y203542D02*
D03*
Y190156D02*
D03*
X216928Y203542D02*
D03*
Y190156D02*
D03*
X213779Y203542D02*
D03*
Y190156D02*
D03*
X210629Y203542D02*
D03*
Y190156D02*
D03*
X207479Y203542D02*
D03*
Y190156D02*
D03*
X204330Y203542D02*
D03*
Y190156D02*
D03*
X201180Y203542D02*
D03*
Y190156D02*
D03*
X198031Y203542D02*
D03*
Y190156D02*
D03*
X194881Y203542D02*
D03*
Y190156D02*
D03*
X191731Y203542D02*
D03*
Y190156D02*
D03*
X188582Y203542D02*
D03*
Y190156D02*
D03*
X185432Y203542D02*
D03*
Y190156D02*
D03*
X182283Y203542D02*
D03*
Y190156D02*
D03*
X179133Y203542D02*
D03*
Y190156D02*
D03*
X175983Y203542D02*
D03*
Y190156D02*
D03*
X172834Y203542D02*
D03*
Y190156D02*
D03*
X169684Y203542D02*
D03*
Y190156D02*
D03*
X153936Y203542D02*
D03*
Y190156D02*
D03*
X150786Y203542D02*
D03*
Y190156D02*
D03*
X147637Y203542D02*
D03*
Y190156D02*
D03*
X144487Y203542D02*
D03*
Y190156D02*
D03*
X141338Y203542D02*
D03*
Y190156D02*
D03*
X138188Y203542D02*
D03*
Y190156D02*
D03*
X135038Y203542D02*
D03*
Y190156D02*
D03*
X131889Y203542D02*
D03*
Y190156D02*
D03*
X128739Y203542D02*
D03*
Y190156D02*
D03*
X125590Y203542D02*
D03*
Y190156D02*
D03*
X122440Y203542D02*
D03*
Y190156D02*
D03*
X119290Y203542D02*
D03*
Y190156D02*
D03*
X116141Y203542D02*
D03*
Y190156D02*
D03*
X112991Y203542D02*
D03*
Y190156D02*
D03*
X109842Y203542D02*
D03*
Y190156D02*
D03*
X106692Y203542D02*
D03*
Y190156D02*
D03*
X103542Y203542D02*
D03*
Y190156D02*
D03*
X100393Y203542D02*
D03*
Y190156D02*
D03*
X97243Y203542D02*
D03*
Y190156D02*
D03*
X94094Y203542D02*
D03*
Y190156D02*
D03*
X90944Y203542D02*
D03*
Y190156D02*
D03*
X87794Y203542D02*
D03*
Y190156D02*
D03*
X84645Y203542D02*
D03*
Y190156D02*
D03*
X81495Y203542D02*
D03*
Y190156D02*
D03*
X78346Y203542D02*
D03*
Y190156D02*
D03*
X75196Y203542D02*
D03*
Y190156D02*
D03*
X72046Y203542D02*
D03*
Y190156D02*
D03*
X68897Y203542D02*
D03*
Y190156D02*
D03*
X65747Y203542D02*
D03*
Y190156D02*
D03*
X62598Y203542D02*
D03*
Y190156D02*
D03*
X59448Y203542D02*
D03*
Y190156D02*
D03*
X56298Y203542D02*
D03*
Y190156D02*
D03*
X56300Y131102D02*
D03*
Y144488D02*
D03*
X59450Y131102D02*
D03*
Y144488D02*
D03*
X62599Y131102D02*
D03*
Y144488D02*
D03*
X65749Y131102D02*
D03*
Y144488D02*
D03*
X68898Y131102D02*
D03*
Y144488D02*
D03*
X72048Y131102D02*
D03*
Y144488D02*
D03*
X75198Y131102D02*
D03*
Y144488D02*
D03*
X78347Y131102D02*
D03*
Y144488D02*
D03*
X81497Y131102D02*
D03*
Y144488D02*
D03*
X84646Y131102D02*
D03*
Y144488D02*
D03*
X87796Y131102D02*
D03*
Y144488D02*
D03*
X90946Y131102D02*
D03*
Y144488D02*
D03*
X94095Y131102D02*
D03*
Y144488D02*
D03*
X97245Y131102D02*
D03*
Y144488D02*
D03*
X100394Y131102D02*
D03*
Y144488D02*
D03*
X103544Y131102D02*
D03*
Y144488D02*
D03*
X106694Y131102D02*
D03*
Y144488D02*
D03*
X109843Y131102D02*
D03*
Y144488D02*
D03*
X112993Y131102D02*
D03*
Y144488D02*
D03*
X116142Y131102D02*
D03*
Y144488D02*
D03*
X119292Y131102D02*
D03*
Y144488D02*
D03*
X122442Y131102D02*
D03*
Y144488D02*
D03*
X125591Y131102D02*
D03*
Y144488D02*
D03*
X128741Y131102D02*
D03*
Y144488D02*
D03*
X131890Y131102D02*
D03*
Y144488D02*
D03*
X135040Y131102D02*
D03*
Y144488D02*
D03*
X138190Y131102D02*
D03*
Y144488D02*
D03*
X141339Y131102D02*
D03*
Y144488D02*
D03*
X144489Y131102D02*
D03*
Y144488D02*
D03*
X147639Y131102D02*
D03*
Y144488D02*
D03*
X150788Y131102D02*
D03*
Y144488D02*
D03*
X153938Y131102D02*
D03*
Y144488D02*
D03*
X169686Y131102D02*
D03*
Y144488D02*
D03*
X172835Y131102D02*
D03*
Y144488D02*
D03*
X175985Y131102D02*
D03*
Y144488D02*
D03*
X179135Y131102D02*
D03*
Y144488D02*
D03*
X182284Y131102D02*
D03*
Y144488D02*
D03*
X185434Y131102D02*
D03*
Y144488D02*
D03*
X188583Y131102D02*
D03*
Y144488D02*
D03*
X191733Y131102D02*
D03*
Y144488D02*
D03*
X194883Y131102D02*
D03*
Y144488D02*
D03*
X198032Y131102D02*
D03*
Y144488D02*
D03*
X201182Y131102D02*
D03*
Y144488D02*
D03*
X204331Y131102D02*
D03*
Y144488D02*
D03*
X207481Y131102D02*
D03*
Y144488D02*
D03*
X210631Y131102D02*
D03*
Y144488D02*
D03*
X213780Y131102D02*
D03*
Y144488D02*
D03*
X216930Y131102D02*
D03*
Y144488D02*
D03*
X220079Y131102D02*
D03*
Y144488D02*
D03*
X223229Y131102D02*
D03*
Y144488D02*
D03*
X226379Y131102D02*
D03*
Y144488D02*
D03*
X229528Y131102D02*
D03*
Y144488D02*
D03*
X232678Y131102D02*
D03*
Y144488D02*
D03*
X235828Y131102D02*
D03*
Y144488D02*
D03*
X238977Y131102D02*
D03*
Y144488D02*
D03*
X242127Y131102D02*
D03*
Y144488D02*
D03*
X245276Y131102D02*
D03*
Y144488D02*
D03*
X248426Y131102D02*
D03*
Y144488D02*
D03*
X251576Y131102D02*
D03*
Y144488D02*
D03*
X254725Y131102D02*
D03*
Y144488D02*
D03*
D18*
X5020Y50677D02*
D03*
Y44599D02*
D03*
X10236Y56410D02*
D03*
Y62488D02*
D03*
X9547Y158256D02*
D03*
Y152178D02*
D03*
X10237Y174520D02*
D03*
Y180598D02*
D03*
Y239653D02*
D03*
Y233575D02*
D03*
X10236Y292630D02*
D03*
Y298708D02*
D03*
X10235Y357761D02*
D03*
Y351683D02*
D03*
Y410738D02*
D03*
Y416816D02*
D03*
Y475871D02*
D03*
Y469793D02*
D03*
D19*
X37512Y56693D02*
D03*
X43590D02*
D03*
X42212Y155413D02*
D03*
X36134D02*
D03*
X37513Y174803D02*
D03*
X43591D02*
D03*
Y233858D02*
D03*
X37513D02*
D03*
X37512Y292913D02*
D03*
X43590D02*
D03*
X43589Y351966D02*
D03*
X37511D02*
D03*
Y411021D02*
D03*
X43589D02*
D03*
Y470076D02*
D03*
X37511D02*
D03*
X50972Y519587D02*
D03*
X44894D02*
D03*
X50972Y524311D02*
D03*
X44894D02*
D03*
X44894Y528839D02*
D03*
X50972D02*
D03*
D20*
X65139Y533169D02*
D03*
Y530610D02*
D03*
Y528051D02*
D03*
Y525492D02*
D03*
Y522933D02*
D03*
Y520374D02*
D03*
Y517815D02*
D03*
Y515256D02*
D03*
X92539D02*
D03*
Y517815D02*
D03*
Y520374D02*
D03*
Y522933D02*
D03*
Y525492D02*
D03*
Y528051D02*
D03*
Y530610D02*
D03*
Y533169D02*
D03*
D21*
X248031Y6004D02*
D03*
Y29429D02*
D03*
X271654D02*
D03*
Y6004D02*
D03*
X62992Y29429D02*
D03*
Y6004D02*
D03*
X39370D02*
D03*
Y29429D02*
D03*
D22*
X237795Y15256D02*
D03*
X261417D02*
D03*
X73228Y20177D02*
D03*
X49606D02*
D03*
D23*
X237795D02*
D03*
X261417D02*
D03*
X73228Y15256D02*
D03*
X49606D02*
D03*
D24*
X39862Y99803D02*
D03*
X296161Y458661D02*
D03*
X295768Y104331D02*
D03*
X167815Y48819D02*
D03*
D25*
X15256Y99803D02*
D03*
X25098D02*
D03*
X30020D02*
D03*
X20177D02*
D03*
X34941D02*
D03*
X291240Y458661D02*
D03*
X276476D02*
D03*
X286319D02*
D03*
X281398D02*
D03*
X271555D02*
D03*
X271161Y104331D02*
D03*
X281004D02*
D03*
X285925D02*
D03*
X276083D02*
D03*
X290846D02*
D03*
X143209Y48819D02*
D03*
X157972D02*
D03*
X153051D02*
D03*
X162894D02*
D03*
X148130D02*
D03*
D26*
X6004Y110039D02*
D03*
X49114D02*
D03*
X305413Y468898D02*
D03*
X262303D02*
D03*
X261910Y114567D02*
D03*
X305020D02*
D03*
D27*
X177067Y35827D02*
D03*
X133957D02*
D03*
D28*
X43189Y64213D02*
D03*
X29803D02*
D03*
X29804Y123268D02*
D03*
X43190D02*
D03*
Y182323D02*
D03*
X29804D02*
D03*
Y241378D02*
D03*
X43190D02*
D03*
X43189Y300433D02*
D03*
X29803D02*
D03*
X29803Y359486D02*
D03*
X43189D02*
D03*
Y418541D02*
D03*
X29803D02*
D03*
Y477596D02*
D03*
X43189D02*
D03*
D29*
X19684Y477753D02*
D03*
X23424Y469486D02*
D03*
X15944D02*
D03*
X19684Y418698D02*
D03*
X23424Y410431D02*
D03*
X15944D02*
D03*
X19684Y359643D02*
D03*
X23424Y351376D02*
D03*
X15944D02*
D03*
X19685Y300591D02*
D03*
X23425Y292323D02*
D03*
X15945D02*
D03*
X19685Y241535D02*
D03*
X23426Y233268D02*
D03*
X15945D02*
D03*
X19685Y182480D02*
D03*
X23426Y174213D02*
D03*
X15945D02*
D03*
X19291Y159941D02*
D03*
X23031Y151673D02*
D03*
X15551D02*
D03*
X15945Y56102D02*
D03*
X23425D02*
D03*
X19685Y64370D02*
D03*
D45*
X36496Y64213D02*
D03*
X36497Y123268D02*
D03*
Y182323D02*
D03*
Y241378D02*
D03*
X36496Y300433D02*
D03*
X36496Y359486D02*
D03*
Y418541D02*
D03*
Y477596D02*
D03*
D46*
X23491Y294826D02*
Y295219D01*
Y292782D02*
Y294826D01*
X225394Y18898D02*
Y36516D01*
X157972Y49213D02*
X158366Y48819D01*
X30020Y94882D02*
Y99803D01*
X285925Y97933D02*
Y104331D01*
X284449Y96457D02*
X285925Y97933D01*
X157972Y49213D02*
Y55216D01*
Y48819D02*
Y49213D01*
X157776Y49409D02*
X157972Y49213D01*
X156693Y56496D02*
X157972Y55216D01*
X56300Y54134D02*
Y72047D01*
X49606Y47441D02*
X56300Y54134D01*
X49606Y20177D02*
Y47441D01*
X83169Y518307D02*
X85236Y520374D01*
X83169Y512402D02*
Y518307D01*
Y512402D02*
X85728Y509842D01*
X222638D01*
X226377Y501966D02*
Y506103D01*
Y501966D02*
X226378Y501966D01*
X222638Y509842D02*
X226377Y506103D01*
X85236Y520374D02*
X92539D01*
X232676Y501966D02*
Y506103D01*
Y501966D02*
X232677Y501966D01*
X223524Y515256D02*
X232676Y506103D01*
X92539Y515256D02*
X223524D01*
X42126Y524409D02*
X42175Y524360D01*
X44734D01*
X44783Y524311D01*
X97785Y533218D02*
X97835Y533268D01*
X92588Y533218D02*
X97785D01*
X92539Y533169D02*
X92588Y533218D01*
X55413Y519587D02*
X56201Y520374D01*
X51083Y519587D02*
X55413D01*
X56201Y520374D02*
X65139D01*
X51083Y524311D02*
X53937D01*
X57677Y528051D01*
X65139D01*
X44605Y528622D02*
X44783Y528445D01*
X65139Y515256D02*
Y517815D01*
X59842Y517815D02*
X65139D01*
X65139Y517815D01*
X77067Y528051D02*
X82185Y533169D01*
X92539D01*
X65139Y528051D02*
X77067D01*
X44783Y524311D02*
Y528346D01*
Y520276D02*
Y524311D01*
X51083D02*
Y528346D01*
X51083Y519587D02*
X51132Y519636D01*
X65089Y520325D02*
X65139Y520374D01*
X77215Y20128D02*
X77264Y20079D01*
X73278Y20128D02*
X77215D01*
X73228Y20177D02*
X73278Y20128D01*
X225394Y18898D02*
X229035Y15256D01*
X237795D01*
X256742Y15207D02*
X261368D01*
X261417Y15256D01*
X69882Y56496D02*
X156693D01*
X59450Y66928D02*
X69882Y56496D01*
X59450Y66928D02*
Y68898D01*
X58268Y90748D02*
X59449Y89567D01*
X34154Y90748D02*
X58268D01*
X30020Y94882D02*
X34154Y90748D01*
X59449Y85434D02*
Y89567D01*
Y85434D02*
X59449Y85433D01*
X245177Y112106D02*
Y131003D01*
X245276Y131102D01*
X245177Y112106D02*
X260827Y96457D01*
X284449D01*
X245276Y442911D02*
Y447736D01*
X245275Y442911D02*
X245276Y442911D01*
Y447736D02*
X248819Y451279D01*
X285335D01*
X286319Y452264D01*
Y458661D01*
X254724Y127952D02*
X254725Y127953D01*
X23031Y151673D02*
Y154111D01*
X94095Y144488D02*
X94095Y144488D01*
X207481Y131102D02*
X207481Y131102D01*
X207481Y144488D02*
X207481Y144488D01*
X94093Y203542D02*
X94094Y203542D01*
X207479Y190156D02*
X207479Y190156D01*
X207479Y203542D02*
X207479Y203542D01*
X94095Y262598D02*
X94095Y262598D01*
X207481Y249212D02*
X207481Y249213D01*
X207481Y262598D02*
X207481Y262598D01*
X94095Y321653D02*
X94095Y321654D01*
X207481Y308267D02*
X207481Y308268D01*
X207481Y321653D02*
X207481Y321654D01*
X94094Y380706D02*
X94094Y380706D01*
X207480Y367320D02*
X207480Y367320D01*
X207480Y380706D02*
X207480Y380706D01*
X94094Y439761D02*
X94094Y439761D01*
X207480Y426375D02*
X207480Y426375D01*
X207480Y439761D02*
X207480Y439761D01*
X94094Y498816D02*
X94094Y498816D01*
X207480Y485430D02*
X207480Y485431D01*
X207480Y498816D02*
X207480Y498816D01*
X94095Y85433D02*
X94095Y85433D01*
X207481Y72047D02*
X207481Y72047D01*
X207481Y85433D02*
X207481Y85433D01*
X23490Y469551D02*
Y471989D01*
X23424Y469486D02*
X23490Y469551D01*
Y410496D02*
Y412933D01*
X23424Y410431D02*
X23490Y410496D01*
Y351441D02*
Y353878D01*
X23424Y351376D02*
X23490Y351441D01*
X23425Y292717D02*
X23491Y292782D01*
X23491Y233333D02*
Y235771D01*
X23426Y233268D02*
X23491Y233333D01*
Y174278D02*
Y176716D01*
X23426Y174213D02*
X23491Y174278D01*
X23491Y56168D02*
Y58605D01*
X23425Y56102D02*
X23491Y56168D01*
D47*
X32559Y84606D02*
D03*
X32560Y261772D02*
D03*
X32559Y320827D02*
D03*
X32559Y379879D02*
D03*
Y438935D02*
D03*
Y497990D02*
D03*
X32558Y202715D02*
D03*
X32560Y143661D02*
D03*
D48*
X40040Y74410D02*
D03*
X25079D02*
D03*
X10119D02*
D03*
X15630Y83073D02*
D03*
X15631Y260238D02*
D03*
X10119Y251575D02*
D03*
X25080D02*
D03*
X40040D02*
D03*
X40040Y310630D02*
D03*
X25079D02*
D03*
X10119D02*
D03*
X15630Y319293D02*
D03*
X15630Y378346D02*
D03*
X10118Y369683D02*
D03*
X25078D02*
D03*
X40039D02*
D03*
Y428738D02*
D03*
X25078D02*
D03*
X10118D02*
D03*
X15630Y437401D02*
D03*
Y496456D02*
D03*
X10118Y487793D02*
D03*
X25078D02*
D03*
X40039D02*
D03*
X40038Y192518D02*
D03*
X25078D02*
D03*
X10117D02*
D03*
X15629Y201181D02*
D03*
X15631Y142128D02*
D03*
X10119Y133465D02*
D03*
X25080D02*
D03*
X40040D02*
D03*
D49*
X293307Y531496D02*
D03*
Y275590D02*
D03*
X17717Y531496D02*
D03*
Y275590D02*
D03*
X293307Y11811D02*
D03*
X17717D02*
D03*
D50*
X291240Y100295D02*
D03*
X35323Y292934D02*
D03*
X30807Y39764D02*
D03*
X225394Y36417D02*
D03*
X18504Y514764D02*
D03*
X4724Y511024D02*
D03*
X59941Y522835D02*
D03*
X97835Y522933D02*
D03*
X102657Y525492D02*
D03*
X97835Y528051D02*
D03*
X102657Y530610D02*
D03*
X227756Y518110D02*
D03*
X97835Y533268D02*
D03*
X42126Y524409D02*
D03*
X59842Y517815D02*
D03*
X278469Y37229D02*
D03*
X172441Y51476D02*
D03*
X307382Y101969D02*
D03*
X3642Y97441D02*
D03*
X305654Y456398D02*
D03*
X256398Y20079D02*
D03*
X232776D02*
D03*
X78248Y15354D02*
D03*
X5053Y42327D02*
D03*
X28150Y29724D02*
D03*
X21850Y29724D02*
D03*
X289173Y29724D02*
D03*
X282874Y29724D02*
D03*
X4987Y52948D02*
D03*
X23031Y154111D02*
D03*
X54626Y15354D02*
D03*
X56298Y501966D02*
D03*
X59449Y495667D02*
D03*
X62598Y501966D02*
D03*
X65748Y495667D02*
D03*
X68897Y501966D02*
D03*
X72047Y495667D02*
D03*
X75196Y501966D02*
D03*
X78346Y495667D02*
D03*
X81495Y501966D02*
D03*
X84646Y495667D02*
D03*
X87794Y501966D02*
D03*
X90945Y495667D02*
D03*
X94094Y501966D02*
D03*
X97244Y495667D02*
D03*
X100393Y501966D02*
D03*
X103543Y495667D02*
D03*
X106692Y501966D02*
D03*
X109843Y495667D02*
D03*
X112991Y501966D02*
D03*
X116142Y495667D02*
D03*
X119290Y501966D02*
D03*
X122441Y495667D02*
D03*
X125590Y501966D02*
D03*
X128740Y495667D02*
D03*
X131889Y501966D02*
D03*
X135039Y495667D02*
D03*
X138188Y501966D02*
D03*
X141339Y495667D02*
D03*
X144487Y501966D02*
D03*
X147638Y495667D02*
D03*
X150787Y501966D02*
D03*
X153937Y495667D02*
D03*
X169684Y501966D02*
D03*
X172835Y495667D02*
D03*
X175983Y501966D02*
D03*
X179134Y495667D02*
D03*
X182283Y501966D02*
D03*
X185433Y495667D02*
D03*
X188582Y501966D02*
D03*
X191732Y495667D02*
D03*
X194881Y501966D02*
D03*
X198031Y495667D02*
D03*
X201180Y501966D02*
D03*
X204331Y495667D02*
D03*
X207480Y501966D02*
D03*
X210630Y495667D02*
D03*
X213779Y501966D02*
D03*
X216929Y495667D02*
D03*
X220078Y501966D02*
D03*
X223228Y495667D02*
D03*
X226377Y501966D02*
D03*
X229527Y495667D02*
D03*
X232676Y501966D02*
D03*
X235827Y495667D02*
D03*
X238976Y501966D02*
D03*
X242126Y495667D02*
D03*
X245275Y501966D02*
D03*
X248425Y495667D02*
D03*
X251574Y501966D02*
D03*
X254724Y495667D02*
D03*
X56300Y134252D02*
D03*
Y147638D02*
D03*
X59450Y127953D02*
D03*
Y141339D02*
D03*
X62599Y134252D02*
D03*
Y147638D02*
D03*
X65749Y127953D02*
D03*
Y141339D02*
D03*
X68898Y134252D02*
D03*
Y147638D02*
D03*
X72048Y127953D02*
D03*
X72048Y141339D02*
D03*
X75197Y134252D02*
D03*
Y147638D02*
D03*
X78348Y127953D02*
D03*
X78348Y141339D02*
D03*
X81497Y134252D02*
D03*
Y147638D02*
D03*
X84647Y127953D02*
D03*
Y141339D02*
D03*
X87796Y134252D02*
D03*
Y147638D02*
D03*
X90946Y127953D02*
D03*
Y141339D02*
D03*
X94095Y134252D02*
D03*
Y147638D02*
D03*
X97245Y127953D02*
D03*
Y141339D02*
D03*
X100394Y134252D02*
D03*
Y147638D02*
D03*
X103544Y127953D02*
D03*
Y141339D02*
D03*
X106693Y134252D02*
D03*
X106693Y147638D02*
D03*
X109844Y127953D02*
D03*
Y141339D02*
D03*
X112993Y134252D02*
D03*
Y147638D02*
D03*
X116143Y127953D02*
D03*
Y141339D02*
D03*
X119292Y134252D02*
D03*
Y147638D02*
D03*
X122442Y127953D02*
D03*
Y141339D02*
D03*
X125591Y134252D02*
D03*
Y147638D02*
D03*
X128741Y127953D02*
D03*
Y141339D02*
D03*
X131890Y134252D02*
D03*
Y147638D02*
D03*
X135040Y127953D02*
D03*
Y141339D02*
D03*
X138189Y134252D02*
D03*
X138189Y147638D02*
D03*
X141340Y127953D02*
D03*
Y141339D02*
D03*
X144489Y134252D02*
D03*
Y147638D02*
D03*
X147639Y127953D02*
D03*
Y141339D02*
D03*
X150788Y134252D02*
D03*
X150788Y147638D02*
D03*
X153938Y127953D02*
D03*
Y141339D02*
D03*
X169685Y134252D02*
D03*
Y147638D02*
D03*
X172836Y127953D02*
D03*
Y141339D02*
D03*
X175985Y134252D02*
D03*
Y147638D02*
D03*
X179135Y127953D02*
D03*
Y141339D02*
D03*
X182284Y134252D02*
D03*
Y147638D02*
D03*
X185434Y127953D02*
D03*
Y141339D02*
D03*
X188583Y134252D02*
D03*
Y147638D02*
D03*
X191733Y127953D02*
D03*
Y141339D02*
D03*
X194882Y134252D02*
D03*
Y147638D02*
D03*
X198033Y127953D02*
D03*
Y141339D02*
D03*
X201182Y134252D02*
D03*
Y147638D02*
D03*
X204332Y127953D02*
D03*
Y141339D02*
D03*
X207481Y134252D02*
D03*
Y147638D02*
D03*
X210631Y127953D02*
D03*
Y141339D02*
D03*
X213780Y134252D02*
D03*
Y147638D02*
D03*
X216930Y127953D02*
D03*
Y141339D02*
D03*
X220079Y134252D02*
D03*
Y147638D02*
D03*
X223230Y127953D02*
D03*
Y141339D02*
D03*
X226378Y134252D02*
D03*
Y147638D02*
D03*
X229529Y127953D02*
D03*
Y141339D02*
D03*
X232678Y134252D02*
D03*
Y147638D02*
D03*
X235828Y127953D02*
D03*
Y141339D02*
D03*
X238977Y134252D02*
D03*
Y147638D02*
D03*
X242127Y127953D02*
D03*
Y141339D02*
D03*
X245276Y134252D02*
D03*
Y147638D02*
D03*
X248426Y127953D02*
D03*
Y141339D02*
D03*
X251575Y134252D02*
D03*
Y147638D02*
D03*
X254726Y127953D02*
D03*
Y141339D02*
D03*
X56298Y193306D02*
D03*
Y206692D02*
D03*
X59448Y187007D02*
D03*
Y200392D02*
D03*
X62597Y193306D02*
D03*
Y206692D02*
D03*
X65747Y187007D02*
D03*
Y200392D02*
D03*
X68896Y193306D02*
D03*
Y206692D02*
D03*
X72047Y187007D02*
D03*
X72047Y200392D02*
D03*
X75196Y193306D02*
D03*
Y206692D02*
D03*
X78346Y187007D02*
D03*
X78346Y200392D02*
D03*
X81495Y193306D02*
D03*
Y206692D02*
D03*
X84645Y187007D02*
D03*
Y200392D02*
D03*
X87794Y193306D02*
D03*
Y206692D02*
D03*
X90944Y187007D02*
D03*
Y200392D02*
D03*
X94093Y193306D02*
D03*
Y206692D02*
D03*
X97244Y187007D02*
D03*
Y200392D02*
D03*
X100392Y193306D02*
D03*
Y206692D02*
D03*
X103543Y187007D02*
D03*
Y200392D02*
D03*
X106692Y193306D02*
D03*
X106692Y206692D02*
D03*
X109842Y187007D02*
D03*
Y200392D02*
D03*
X112991Y193306D02*
D03*
Y206692D02*
D03*
X116141Y187007D02*
D03*
Y200392D02*
D03*
X119290Y193306D02*
D03*
Y206692D02*
D03*
X122440Y187007D02*
D03*
Y200392D02*
D03*
X125589Y193306D02*
D03*
Y206692D02*
D03*
X128740Y187007D02*
D03*
Y200392D02*
D03*
X131888Y193306D02*
D03*
Y206692D02*
D03*
X135039Y187007D02*
D03*
Y200392D02*
D03*
X138188Y193306D02*
D03*
X138188Y206692D02*
D03*
X141338Y187007D02*
D03*
Y200392D02*
D03*
X144487Y193306D02*
D03*
Y206692D02*
D03*
X147637Y187007D02*
D03*
Y200392D02*
D03*
X150786Y193306D02*
D03*
X150786Y206692D02*
D03*
X153937Y187007D02*
D03*
Y200392D02*
D03*
X169685Y193307D02*
D03*
X169684Y206692D02*
D03*
X172834Y187007D02*
D03*
Y200392D02*
D03*
X175985Y193307D02*
D03*
X175983Y206692D02*
D03*
X179133Y187007D02*
D03*
Y200392D02*
D03*
X182282Y193306D02*
D03*
Y206692D02*
D03*
X185433Y187007D02*
D03*
Y200392D02*
D03*
X188581Y193306D02*
D03*
Y206692D02*
D03*
X191732Y187007D02*
D03*
Y200392D02*
D03*
X194881Y193306D02*
D03*
Y206692D02*
D03*
X198031Y187007D02*
D03*
Y200392D02*
D03*
X201180Y193306D02*
D03*
Y206692D02*
D03*
X204330Y187007D02*
D03*
Y200392D02*
D03*
X207479Y193306D02*
D03*
Y206692D02*
D03*
X210629Y187007D02*
D03*
Y200392D02*
D03*
X213778Y193306D02*
D03*
Y206692D02*
D03*
X216929Y187007D02*
D03*
Y200392D02*
D03*
X220077Y193306D02*
D03*
Y206692D02*
D03*
X223228Y187007D02*
D03*
Y200392D02*
D03*
X226378Y193307D02*
D03*
Y206693D02*
D03*
X229527Y187007D02*
D03*
Y200392D02*
D03*
X232676Y193306D02*
D03*
X232678Y206693D02*
D03*
X235826Y187007D02*
D03*
Y200392D02*
D03*
X238975Y193306D02*
D03*
Y206692D02*
D03*
X242126Y187007D02*
D03*
Y200392D02*
D03*
X245274Y193306D02*
D03*
Y206692D02*
D03*
X248426Y187008D02*
D03*
X248425Y200392D02*
D03*
X251573Y193306D02*
D03*
Y206692D02*
D03*
X254724Y187007D02*
D03*
Y200392D02*
D03*
X56300Y252362D02*
D03*
Y265748D02*
D03*
X59450Y246063D02*
D03*
Y259449D02*
D03*
X62599Y252362D02*
D03*
Y265748D02*
D03*
X65749Y246063D02*
D03*
Y259449D02*
D03*
X68898Y252362D02*
D03*
Y265748D02*
D03*
X72048Y246063D02*
D03*
X72048Y259449D02*
D03*
X75197Y252362D02*
D03*
Y265748D02*
D03*
X78348Y246063D02*
D03*
X78348Y259449D02*
D03*
X81497Y252362D02*
D03*
Y265748D02*
D03*
X84647Y246063D02*
D03*
Y259449D02*
D03*
X87796Y252362D02*
D03*
Y265748D02*
D03*
X90946Y246063D02*
D03*
Y259449D02*
D03*
X94095Y252362D02*
D03*
Y265748D02*
D03*
X97245Y246063D02*
D03*
Y259449D02*
D03*
X100394Y252362D02*
D03*
Y265748D02*
D03*
X103544Y246063D02*
D03*
Y259449D02*
D03*
X106693Y252362D02*
D03*
X106693Y265748D02*
D03*
X109844Y246063D02*
D03*
Y259449D02*
D03*
X112993Y252362D02*
D03*
Y265748D02*
D03*
X116143Y246063D02*
D03*
Y259449D02*
D03*
X119292Y252362D02*
D03*
Y265748D02*
D03*
X122442Y246063D02*
D03*
Y259449D02*
D03*
X125591Y252362D02*
D03*
Y265748D02*
D03*
X128741Y246063D02*
D03*
Y259449D02*
D03*
X131890Y252362D02*
D03*
Y265748D02*
D03*
X135040Y246063D02*
D03*
Y259449D02*
D03*
X138189Y252362D02*
D03*
X138189Y265748D02*
D03*
X141340Y246063D02*
D03*
Y259449D02*
D03*
X144489Y252362D02*
D03*
Y265748D02*
D03*
X147639Y246063D02*
D03*
Y259449D02*
D03*
X150788Y252362D02*
D03*
X150788Y265748D02*
D03*
X153938Y246063D02*
D03*
Y259449D02*
D03*
X169685Y252362D02*
D03*
Y265748D02*
D03*
X172836Y246063D02*
D03*
Y259449D02*
D03*
X175985Y252362D02*
D03*
Y265748D02*
D03*
X179135Y246063D02*
D03*
Y259449D02*
D03*
X182284Y252362D02*
D03*
Y265748D02*
D03*
X185434Y246063D02*
D03*
Y259449D02*
D03*
X188583Y252362D02*
D03*
Y265748D02*
D03*
X191733Y246063D02*
D03*
Y259449D02*
D03*
X194882Y252362D02*
D03*
Y265748D02*
D03*
X198033Y246063D02*
D03*
Y259449D02*
D03*
X201182Y252362D02*
D03*
Y265748D02*
D03*
X204332Y246063D02*
D03*
Y259449D02*
D03*
X207481Y252362D02*
D03*
Y265748D02*
D03*
X210631Y246063D02*
D03*
Y259449D02*
D03*
X213780Y252362D02*
D03*
Y265748D02*
D03*
X216930Y246063D02*
D03*
Y259449D02*
D03*
X220079Y252362D02*
D03*
Y265748D02*
D03*
X223230Y246063D02*
D03*
Y259449D02*
D03*
X226378Y252362D02*
D03*
Y265748D02*
D03*
X229529Y246063D02*
D03*
Y259449D02*
D03*
X232678Y252362D02*
D03*
Y265748D02*
D03*
X235828Y246063D02*
D03*
Y259449D02*
D03*
X238977Y252362D02*
D03*
Y265748D02*
D03*
X242127Y246063D02*
D03*
Y259449D02*
D03*
X245276Y252362D02*
D03*
Y265748D02*
D03*
X248426Y246063D02*
D03*
Y259449D02*
D03*
X251575Y252362D02*
D03*
Y265748D02*
D03*
X254726Y246063D02*
D03*
Y259449D02*
D03*
X56299Y311417D02*
D03*
Y324803D02*
D03*
X59450Y305118D02*
D03*
Y318504D02*
D03*
X62598Y311417D02*
D03*
Y324803D02*
D03*
X65749Y305118D02*
D03*
Y318504D02*
D03*
X68898Y311417D02*
D03*
Y324803D02*
D03*
X72048Y305118D02*
D03*
X72048Y318504D02*
D03*
X75197Y311417D02*
D03*
Y324803D02*
D03*
X78347Y305118D02*
D03*
X78347Y318504D02*
D03*
X81496Y311417D02*
D03*
Y324803D02*
D03*
X84646Y305118D02*
D03*
Y318504D02*
D03*
X87795Y311417D02*
D03*
Y324803D02*
D03*
X90946Y305118D02*
D03*
Y318504D02*
D03*
X94095Y311417D02*
D03*
Y324803D02*
D03*
X97245Y305118D02*
D03*
Y318504D02*
D03*
X100394Y311417D02*
D03*
Y324803D02*
D03*
X103544Y305118D02*
D03*
Y318504D02*
D03*
X106693Y311417D02*
D03*
X106693Y324803D02*
D03*
X109843Y305118D02*
D03*
Y318504D02*
D03*
X112992Y311417D02*
D03*
Y324803D02*
D03*
X116142Y305118D02*
D03*
Y318504D02*
D03*
X119291Y311417D02*
D03*
Y324803D02*
D03*
X122442Y305118D02*
D03*
Y318504D02*
D03*
X125591Y311417D02*
D03*
Y324803D02*
D03*
X128741Y305118D02*
D03*
Y318504D02*
D03*
X131890Y311417D02*
D03*
Y324803D02*
D03*
X135040Y305118D02*
D03*
Y318504D02*
D03*
X138189Y311417D02*
D03*
X138189Y324803D02*
D03*
X141339Y305118D02*
D03*
Y318504D02*
D03*
X144488Y311417D02*
D03*
Y324803D02*
D03*
X147639Y305118D02*
D03*
Y318504D02*
D03*
X150787Y311417D02*
D03*
X150787Y324803D02*
D03*
X153938Y305118D02*
D03*
Y318504D02*
D03*
X169685Y311417D02*
D03*
Y324803D02*
D03*
X172835Y305118D02*
D03*
Y318504D02*
D03*
X175984Y311417D02*
D03*
Y324803D02*
D03*
X179135Y305118D02*
D03*
Y318504D02*
D03*
X182283Y311417D02*
D03*
Y324803D02*
D03*
X185434Y305118D02*
D03*
Y318504D02*
D03*
X188583Y311417D02*
D03*
Y324803D02*
D03*
X191733Y305118D02*
D03*
Y318504D02*
D03*
X194882Y311417D02*
D03*
Y324803D02*
D03*
X198032Y305118D02*
D03*
Y318504D02*
D03*
X201181Y311417D02*
D03*
Y324803D02*
D03*
X204331Y305118D02*
D03*
Y318504D02*
D03*
X207480Y311417D02*
D03*
Y324803D02*
D03*
X210631Y305118D02*
D03*
Y318504D02*
D03*
X213779Y311417D02*
D03*
Y324803D02*
D03*
X216930Y305118D02*
D03*
Y318504D02*
D03*
X220079Y311417D02*
D03*
Y324803D02*
D03*
X223229Y305118D02*
D03*
Y318504D02*
D03*
X226378Y311417D02*
D03*
Y324803D02*
D03*
X229528Y305118D02*
D03*
Y318504D02*
D03*
X232677Y311417D02*
D03*
Y324803D02*
D03*
X235828Y305118D02*
D03*
Y318504D02*
D03*
X238976Y311417D02*
D03*
Y324803D02*
D03*
X242127Y305118D02*
D03*
Y318504D02*
D03*
X245276Y311417D02*
D03*
Y324803D02*
D03*
X248426Y305118D02*
D03*
Y318504D02*
D03*
X251575Y311417D02*
D03*
Y324803D02*
D03*
X254725Y305118D02*
D03*
Y318504D02*
D03*
X56298Y370470D02*
D03*
Y383856D02*
D03*
X59449Y364171D02*
D03*
Y377557D02*
D03*
X62598Y370470D02*
D03*
Y383856D02*
D03*
X65748Y364171D02*
D03*
Y377557D02*
D03*
X68897Y370470D02*
D03*
Y383856D02*
D03*
X72047Y364171D02*
D03*
X72047Y377557D02*
D03*
X75196Y370470D02*
D03*
Y383856D02*
D03*
X78346Y364171D02*
D03*
X78346Y377557D02*
D03*
X81495Y370470D02*
D03*
Y383856D02*
D03*
X84646Y364171D02*
D03*
Y377557D02*
D03*
X87794Y370470D02*
D03*
Y383856D02*
D03*
X90945Y364171D02*
D03*
Y377557D02*
D03*
X94094Y370470D02*
D03*
Y383856D02*
D03*
X97244Y364171D02*
D03*
Y377557D02*
D03*
X100393Y370470D02*
D03*
Y383856D02*
D03*
X103543Y364171D02*
D03*
Y377557D02*
D03*
X106692Y370470D02*
D03*
X106692Y383856D02*
D03*
X109843Y364171D02*
D03*
Y377557D02*
D03*
X112991Y370470D02*
D03*
Y383856D02*
D03*
X116142Y364171D02*
D03*
Y377557D02*
D03*
X119290Y370470D02*
D03*
Y383856D02*
D03*
X122441Y364171D02*
D03*
Y377557D02*
D03*
X125590Y370470D02*
D03*
Y383856D02*
D03*
X128740Y364171D02*
D03*
Y377557D02*
D03*
X131889Y370470D02*
D03*
Y383856D02*
D03*
X135039Y364171D02*
D03*
Y377557D02*
D03*
X138188Y370470D02*
D03*
X138188Y383856D02*
D03*
X141339Y364171D02*
D03*
Y377557D02*
D03*
X144487Y370470D02*
D03*
Y383856D02*
D03*
X147638Y364171D02*
D03*
Y377557D02*
D03*
X150787Y370470D02*
D03*
X150787Y383856D02*
D03*
X153937Y364171D02*
D03*
Y377557D02*
D03*
X169684Y370470D02*
D03*
Y383856D02*
D03*
X172835Y364171D02*
D03*
Y377557D02*
D03*
X175983Y370470D02*
D03*
Y383856D02*
D03*
X179134Y364171D02*
D03*
Y377557D02*
D03*
X182283Y370470D02*
D03*
Y383856D02*
D03*
X185433Y364171D02*
D03*
Y377557D02*
D03*
X188582Y370470D02*
D03*
Y383856D02*
D03*
X191732Y364171D02*
D03*
Y377557D02*
D03*
X194881Y370470D02*
D03*
Y383856D02*
D03*
X198031Y364171D02*
D03*
Y377557D02*
D03*
X201180Y370470D02*
D03*
Y383856D02*
D03*
X204331Y364171D02*
D03*
Y377557D02*
D03*
X207480Y370470D02*
D03*
Y383856D02*
D03*
X210630Y364171D02*
D03*
Y377557D02*
D03*
X213779Y370470D02*
D03*
Y383856D02*
D03*
X216929Y364171D02*
D03*
Y377557D02*
D03*
X220078Y370470D02*
D03*
Y383856D02*
D03*
X223228Y364171D02*
D03*
Y377557D02*
D03*
X226377Y370470D02*
D03*
Y383856D02*
D03*
X229527Y364171D02*
D03*
Y377557D02*
D03*
X232676Y370470D02*
D03*
Y383856D02*
D03*
X235827Y364171D02*
D03*
Y377557D02*
D03*
X238976Y370470D02*
D03*
Y383856D02*
D03*
X242126Y364171D02*
D03*
Y377557D02*
D03*
X245275Y370470D02*
D03*
Y383856D02*
D03*
X248425Y364171D02*
D03*
Y377557D02*
D03*
X251574Y370470D02*
D03*
Y383856D02*
D03*
X254724Y364171D02*
D03*
Y377557D02*
D03*
X56298Y429525D02*
D03*
Y442911D02*
D03*
X59449Y423226D02*
D03*
Y436612D02*
D03*
X62598Y429525D02*
D03*
Y442911D02*
D03*
X65748Y423226D02*
D03*
Y436612D02*
D03*
X68897Y429525D02*
D03*
Y442911D02*
D03*
X72047Y423226D02*
D03*
X72047Y436612D02*
D03*
X75196Y429525D02*
D03*
Y442911D02*
D03*
X78346Y423226D02*
D03*
X78346Y436612D02*
D03*
X81495Y429525D02*
D03*
Y442911D02*
D03*
X84646Y423226D02*
D03*
Y436612D02*
D03*
X87794Y429525D02*
D03*
Y442911D02*
D03*
X90945Y423226D02*
D03*
Y436612D02*
D03*
X94094Y429525D02*
D03*
Y442911D02*
D03*
X97244Y423226D02*
D03*
Y436612D02*
D03*
X100393Y429525D02*
D03*
Y442911D02*
D03*
X103543Y423226D02*
D03*
Y436612D02*
D03*
X106692Y429525D02*
D03*
X106692Y442911D02*
D03*
X109843Y423226D02*
D03*
Y436612D02*
D03*
X112991Y429525D02*
D03*
Y442911D02*
D03*
X116142Y423226D02*
D03*
Y436612D02*
D03*
X119290Y429525D02*
D03*
Y442911D02*
D03*
X122441Y423226D02*
D03*
Y436612D02*
D03*
X125590Y429525D02*
D03*
Y442911D02*
D03*
X128740Y423226D02*
D03*
Y436612D02*
D03*
X131889Y429525D02*
D03*
Y442911D02*
D03*
X135039Y423226D02*
D03*
Y436612D02*
D03*
X138188Y429525D02*
D03*
X138188Y442911D02*
D03*
X141339Y423226D02*
D03*
Y436612D02*
D03*
X144487Y429525D02*
D03*
Y442911D02*
D03*
X147638Y423226D02*
D03*
Y436612D02*
D03*
X150787Y429525D02*
D03*
X150787Y442911D02*
D03*
X153937Y423226D02*
D03*
Y436612D02*
D03*
X169684Y429525D02*
D03*
Y442911D02*
D03*
X172835Y423226D02*
D03*
Y436612D02*
D03*
X175983Y429525D02*
D03*
Y442911D02*
D03*
X179134Y423226D02*
D03*
Y436612D02*
D03*
X182283Y429525D02*
D03*
Y442911D02*
D03*
X185433Y423226D02*
D03*
Y436612D02*
D03*
X188582Y429525D02*
D03*
Y442911D02*
D03*
X191732Y423226D02*
D03*
Y436612D02*
D03*
X194881Y429525D02*
D03*
Y442911D02*
D03*
X198031Y423226D02*
D03*
Y436612D02*
D03*
X201180Y429525D02*
D03*
Y442911D02*
D03*
X204331Y423226D02*
D03*
Y436612D02*
D03*
X207480Y429525D02*
D03*
Y442911D02*
D03*
X210630Y423226D02*
D03*
Y436612D02*
D03*
X213779Y429525D02*
D03*
Y442911D02*
D03*
X216929Y423226D02*
D03*
Y436612D02*
D03*
X220078Y429525D02*
D03*
Y442911D02*
D03*
X223228Y423226D02*
D03*
Y436612D02*
D03*
X226377Y429525D02*
D03*
Y442911D02*
D03*
X229527Y423226D02*
D03*
Y436612D02*
D03*
X232676Y429525D02*
D03*
Y442911D02*
D03*
X235827Y423226D02*
D03*
Y436612D02*
D03*
X238976Y429525D02*
D03*
Y442911D02*
D03*
X242126Y423226D02*
D03*
Y436612D02*
D03*
X245275Y429525D02*
D03*
Y442911D02*
D03*
X248425Y423226D02*
D03*
Y436612D02*
D03*
X251574Y429525D02*
D03*
Y442911D02*
D03*
X254724Y423226D02*
D03*
Y436612D02*
D03*
X56298Y488580D02*
D03*
X59449Y482281D02*
D03*
X62598Y488580D02*
D03*
X65748Y482281D02*
D03*
X68897Y488580D02*
D03*
X72047Y482281D02*
D03*
X75196Y488580D02*
D03*
X78346Y482281D02*
D03*
X81495Y488580D02*
D03*
X84646Y482281D02*
D03*
X87794Y488580D02*
D03*
X90945Y482281D02*
D03*
X94094Y488580D02*
D03*
X97244Y482281D02*
D03*
X100393Y488580D02*
D03*
X103543Y482281D02*
D03*
X106692Y488580D02*
D03*
X109843Y482281D02*
D03*
X112991Y488580D02*
D03*
X116142Y482281D02*
D03*
X119290Y488580D02*
D03*
X122441Y482281D02*
D03*
X125590Y488580D02*
D03*
X128740Y482281D02*
D03*
X131889Y488580D02*
D03*
X135039Y482281D02*
D03*
X138188Y488580D02*
D03*
X141339Y482281D02*
D03*
X144487Y488580D02*
D03*
X147638Y482281D02*
D03*
X150787Y488580D02*
D03*
X153937Y482281D02*
D03*
X169684Y488580D02*
D03*
X172835Y482281D02*
D03*
X175983Y488580D02*
D03*
X179134Y482281D02*
D03*
X182283Y488580D02*
D03*
X185433Y482281D02*
D03*
X188582Y488580D02*
D03*
X191732Y482281D02*
D03*
X194881Y488580D02*
D03*
X198031Y482281D02*
D03*
X201180Y488580D02*
D03*
X204331Y482281D02*
D03*
X207480Y488580D02*
D03*
X210630Y482281D02*
D03*
X213779Y488580D02*
D03*
X216929Y482281D02*
D03*
X220078Y488580D02*
D03*
X223228Y482281D02*
D03*
X226377Y488580D02*
D03*
X229527Y482281D02*
D03*
X232676Y488580D02*
D03*
X235827Y482281D02*
D03*
X238976Y488580D02*
D03*
X242126Y482281D02*
D03*
X245275Y488580D02*
D03*
X248425Y482281D02*
D03*
X251574Y488580D02*
D03*
X254724Y482281D02*
D03*
X150787Y88583D02*
D03*
X144488D02*
D03*
X138189D02*
D03*
X131890D02*
D03*
X125591D02*
D03*
X119291D02*
D03*
X81496D02*
D03*
X87795D02*
D03*
X94095D02*
D03*
X100394D02*
D03*
X106693D02*
D03*
X112992D02*
D03*
X150787Y75197D02*
D03*
X144488D02*
D03*
X100394D02*
D03*
X106693D02*
D03*
X112992D02*
D03*
X119291D02*
D03*
X125591D02*
D03*
X131890D02*
D03*
X138189D02*
D03*
X169685D02*
D03*
X175984D02*
D03*
X182283D02*
D03*
X188583D02*
D03*
X194882D02*
D03*
X201181D02*
D03*
X172835Y68898D02*
D03*
X179135D02*
D03*
X185434D02*
D03*
X191733D02*
D03*
X198032D02*
D03*
X204331D02*
D03*
X210631D02*
D03*
X216930D02*
D03*
X223229D02*
D03*
X229528D02*
D03*
X235828D02*
D03*
X242127D02*
D03*
X248426D02*
D03*
X254725D02*
D03*
X238976Y75197D02*
D03*
X232677D02*
D03*
X226378D02*
D03*
X220079D02*
D03*
X213779D02*
D03*
X207480D02*
D03*
X251575D02*
D03*
X245276D02*
D03*
X169685Y88583D02*
D03*
X175984D02*
D03*
X182283D02*
D03*
X188583D02*
D03*
X194882D02*
D03*
X201181D02*
D03*
X172835Y82284D02*
D03*
X179135D02*
D03*
X185434D02*
D03*
X191733D02*
D03*
X198032D02*
D03*
X204331D02*
D03*
X210631D02*
D03*
X216930D02*
D03*
X223229D02*
D03*
X229528D02*
D03*
X235828D02*
D03*
X242127D02*
D03*
X248426D02*
D03*
X254725D02*
D03*
X238976Y88583D02*
D03*
X232677D02*
D03*
X226378D02*
D03*
X220079D02*
D03*
X213779D02*
D03*
X207480D02*
D03*
X251575D02*
D03*
X245276D02*
D03*
X153938Y82284D02*
D03*
X147639D02*
D03*
X141339D02*
D03*
X135040D02*
D03*
X128741D02*
D03*
X122442D02*
D03*
X153938Y68898D02*
D03*
X147639D02*
D03*
X141339D02*
D03*
X135040D02*
D03*
X128741D02*
D03*
X122442D02*
D03*
X116142D02*
D03*
X109843D02*
D03*
X103544D02*
D03*
X116142Y82284D02*
D03*
X109843D02*
D03*
X103544D02*
D03*
X97245D02*
D03*
X90946D02*
D03*
X84646D02*
D03*
X78347D02*
D03*
X72048D02*
D03*
X65749D02*
D03*
X97245Y68898D02*
D03*
X94095Y75197D02*
D03*
X87795D02*
D03*
X81496D02*
D03*
X75197D02*
D03*
X68898D02*
D03*
X62598D02*
D03*
X59450Y82284D02*
D03*
X56299Y75197D02*
D03*
X90946Y68898D02*
D03*
X84646D02*
D03*
X78347D02*
D03*
X75197Y88583D02*
D03*
X72048Y68898D02*
D03*
X68898Y88583D02*
D03*
X65749Y68898D02*
D03*
X62598Y88583D02*
D03*
X56299D02*
D03*
X59450Y68898D02*
D03*
X23490Y471989D02*
D03*
X35301Y470119D02*
D03*
X23490Y412933D02*
D03*
X35301Y411063D02*
D03*
X23490Y353878D02*
D03*
X35301Y352008D02*
D03*
X23491Y294826D02*
D03*
X23491Y235771D02*
D03*
X35302Y233900D02*
D03*
X23491Y176716D02*
D03*
X35302Y174845D02*
D03*
X10204Y182719D02*
D03*
X33924Y155456D02*
D03*
X9514Y160377D02*
D03*
X23491Y58605D02*
D03*
X10203Y64609D02*
D03*
X35302Y56735D02*
D03*
D51*
X142717Y8366D02*
D03*
X140748Y10335D02*
D03*
X77264Y20079D02*
D03*
X256693Y15157D02*
D03*
X221457Y8366D02*
D03*
X223425Y10335D02*
D03*
X219488D02*
D03*
X209646Y8366D02*
D03*
X168307Y10335D02*
D03*
X170275Y8366D02*
D03*
X174213D02*
D03*
X178149D02*
D03*
X91535D02*
D03*
X87598D02*
D03*
X89567Y10335D02*
D03*
X172244Y10335D02*
D03*
X182087Y8366D02*
D03*
X180118Y10335D02*
D03*
X176181D02*
D03*
X189961Y8366D02*
D03*
X187992Y10335D02*
D03*
X184055D02*
D03*
X186023Y8366D02*
D03*
X197835D02*
D03*
X195866Y10335D02*
D03*
X191929D02*
D03*
X193898Y8366D02*
D03*
X205709D02*
D03*
X203740Y10335D02*
D03*
X199803D02*
D03*
X201772Y8366D02*
D03*
X213583D02*
D03*
X211614Y10335D02*
D03*
X207677D02*
D03*
X215551D02*
D03*
X217520Y8366D02*
D03*
X134843D02*
D03*
X132874Y10335D02*
D03*
X136811D02*
D03*
X138779Y8366D02*
D03*
X126968D02*
D03*
X125000Y10335D02*
D03*
X128937D02*
D03*
X130905Y8366D02*
D03*
X119094D02*
D03*
X117126Y10335D02*
D03*
X121063D02*
D03*
X123031Y8366D02*
D03*
X111220D02*
D03*
X109252Y10335D02*
D03*
X113189D02*
D03*
X115157Y8366D02*
D03*
X103346D02*
D03*
X101378Y10335D02*
D03*
X105315D02*
D03*
X107283Y8366D02*
D03*
X99409D02*
D03*
X97441Y10335D02*
D03*
X93504D02*
D03*
X95472Y8366D02*
D03*
M02*
