M48
;Layer_Color=9474304
;FILE_FORMAT=2:5
INCH,LZ
;TYPE=PLATED
T1F00S00C0.00787
T2F00S00C0.09449
%
T01
X0005053Y0042327
X0004987Y0052948
X0030807Y0039764
X002815Y0029724
X002185Y0029724
X0054626Y0015354
X0078248
X0077264Y0020079
X0087598Y0008366
X0091535
X0093504Y0010335
X0089567Y0010335
X0097441Y0010335
X0095472Y0008366
X0099409
X0101378Y0010335
X0103346Y0008366
X0105315Y0010335
X0109252
X0107283Y0008366
X011122
X0113189Y0010335
X0115157Y0008366
X0117126Y0010335
X0119094Y0008366
X0121063Y0010335
X0125
X0123031Y0008366
X0126968
X0128937Y0010335
X0132874
X0130905Y0008366
X0134843
X0136811Y0010335
X0138779Y0008366
X0140748Y0010335
X0142717Y0008366
X0168307Y0010335
X0170275Y0008366
X0172244Y0010335
X0176181
X0174213Y0008366
X0178149
X0180118Y0010335
X0184055
X0182087Y0008366
X0186023
X0187992Y0010335
X0189961Y0008366
X0191929Y0010335
X0195866
X0193898Y0008366
X0197835
X0199803Y0010335
X020374
X0201772Y0008366
X0205709
X0207677Y0010335
X0209646Y0008366
X0211614Y0010335
X0172441Y0051476
X0225394Y0036417
X0232776Y0020079
X0223425Y0010335
X0221457Y0008366
X0219488Y0010335
X021752Y0008366
X0213583
X0215551Y0010335
X0256693Y0015157
X0256398Y0020079
X0282874Y0029724
X0289173Y0029724
X0278469Y0037229
X0254725Y0068898
X0248426
X0242127
X0235828
X0229528
X0223229
X021693
X0220079Y0075197
X0226378
X0232677
X0238976
X0245276
X0251575
X0248426Y0082284
X0254725
X0251575Y0088583
X0245276
X0238976
X0232677
X0226378
X0220079
X0213779
X021693Y0082284
X0223229
X0229528
X0235828
X0242127
X0213779Y0075197
X021693Y0127953
X022323
X0229529
X0235828
X0242127
X0248426
X0254726
X0251575Y0134252
X0245276
X0238977
X0232678
X0226378
X0220079
X021378
X021693Y0141339
X022323
X0229529
X0235828
X0242127
X0248426
X0254726
X0251575Y0147638
X0245276
X0238977
X0232678
X0226378
X0220079
X021378
X0216929Y0187007
X0223228
X0229527
X0235826
X0242126
X0248426Y0187008
X0254724Y0187007
X0251573Y0193306
X0245274
X0238975
X0232676
X0226378Y0193307
X0220077Y0193306
X0213778
X0216929Y0200392
X0223228
X0229527
X0235826
X0242126
X0248425
X0254724
X0251573Y0206692
X0245274
X0238975
X0232678Y0206693
X0226378
X0220077Y0206692
X0213778
X029124Y0100295
X0307382Y0101969
X020748Y0088583
X0201181
X0194882
X0188583
X0182283
X0175984
X0169685
X0172835Y0082284
X0179135
X0185434
X0191733
X0198032
X0204331
X0210631
X020748Y0075197
X0201181
X0194882
X0188583
X0182283
X0175984
X0169685
X0172835Y0068898
X0179135
X0185434
X0191733
X0198032
X0204331
X0210631
X0153938
X0147639
X0141339
X013504
X0128741
X0122442
X0116142
X0109843
X0103544
X0097245
X0090946
X0084646
X0078347
X0072048
X0065749
X005945
X0062598Y0075197
X0056299
X005945Y0082284
X0065749
X0072048
X0078347
X0084646
X0090946
X0097245
X0103544
X0109843
X0116142
X0122442
X0128741
X013504
X0141339
X0147639
X0153938
X0150787Y0088583
X0144488
X0138189
X013189
X0125591
X0119291
X0112992
X0106693
X0100394
X0094095
X0087795
X0081496
X0075197
X0068898
X0062598
X0056299
X0068898Y0075197
X0075197
X0081496
X0087795
X0094095
X0100394
X0106693
X0112992
X0119291
X0125591
X013189
X0138189
X0144488
X0150787
X0147639Y0127953
X014134
X013504
X0128741
X0122442
X0116143
X0109844
X0103544
X0097245
X0090946
X0084647
X0078348
X0072048
X0065749
X005945
X0062599Y0134252
X00563
X005945Y0141339
X0065749
X0072048
X0078348
X0084647
X0090946
X0097245
X0103544
X0109844
X0116143
X0122442
X0128741
X013504
X014134
X0147639
X0153938
X0150788Y0147638
X0144489
X0138189
X013189
X0125591
X0119292
X0112993
X0106693
X0100394
X0094095
X0087796
X0081497
X0075197
X0068898
X0062599
X00563
X0068898Y0134252
X0075197
X0081497
X0087796
X0094095
X0100394
X0106693
X0112993
X0119292
X0125591
X013189
X0138189
X0144489
X0150788
X0153938Y0127953
X0172836
X0179135
X0185434
X0191733
X0198033
X0204332
X0210631
X0207481Y0134252
X0201182
X0194882
X0188583
X0182284
X0175985
X0169685
X0172836Y0141339
X0179135
X0185434
X0191733
X0198033
X0204332
X0210631
X0207481Y0147638
X0201182
X0194882
X0188583
X0182284
X0175985
X0169685
X0172834Y0187007
X0179133
X0185433
X0191732
X0198031
X020433
X0210629
X0207479Y0193306
X020118
X0194881
X0188581
X0182282
X0175985Y0193307
X0169685
X0172834Y0200392
X0179133
X0185433
X0191732
X0198031
X020433
X0210629
X0207479Y0206692
X020118
X0194881
X0188581
X0182282
X0175983
X0169684
X0150786
X0144487
X0138188
X0131888
X0125589
X011929
X0112991
X0106692
X0100392
X0094093
X0087794
X0081495
X0075196
X0068896
X0062597
X0056298
X0059448Y0200392
X0065747
X0072047
X0078346
X0084645
X0090944
X0097244
X0103543
X0109842
X0116141
X012244
X012874
X0135039
X0141338
X0147637
X0153937
X0150786Y0193306
X0144487
X0138188
X0131888
X0125589
X011929
X0112991
X0106692
X0100392
X0094093
X0087794
X0081495
X0075196
X0068896
X0062597
X0056298
X0059448Y0187007
X0065747
X0072047
X0078346
X0084645
X0090944
X0097244
X0103543
X0109842
X0116141
X012244
X012874
X0135039
X0141338
X0147637
X0153937
X0035302Y0174845
X0023491Y0176716
X0010204Y0182719
X0009514Y0160377
X0023031Y0154111
X0033924Y0155456
X0003642Y0097441
X0010203Y0064609
X0023491Y0058605
X0035302Y0056735
X0035302Y02339
X0023491Y0235771
X0023491Y0294826
X0035323Y0292934
X0035301Y0352008
X002349Y0353878
X0059449Y0364171
X0065748
X0072047
X0078346
X0084646
X0090945
X0097244
X0103543
X0109843
X0116142
X0122441
X012874
X0135039
X0141339
X0147638
X0153937
X0172835
X0179134
X0185433
X0191732
X0198031
X0204331
X021063
X020748Y0324803
X0201181
X0194882
X0188583
X0182283
X0175984
X0169685
X0172835Y0318504
X0179135
X0185434
X0191733
X0198032
X0204331
X0210631
X020748Y0311417
X0201181
X0194882
X0188583
X0182283
X0175984
X0169685
X0172835Y0305118
X0179135
X0185434
X0191733
X0198032
X0204331
X0210631
X0207481Y0265748
X0201182
X0194882
X0188583
X0182284
X0175985
X0169685
X0172836Y0259449
X0179135
X0185434
X0191733
X0198033
X0204332
X0210631
X0207481Y0252362
X0201182
X0194882
X0188583
X0182284
X0175985
X0169685
X0172836Y0246063
X0179135
X0185434
X0191733
X0198033
X0204332
X0210631
X0153938
X0147639
X014134
X013504
X0128741
X0122442
X0116143
X0109844
X0103544
X0097245
X0090946
X0084647
X0078348
X0072048
X0065749
X005945
X0062599Y0252362
X00563
X005945Y0259449
X0065749
X0072048
X0078348
X0084647
X0090946
X0097245
X0103544
X0109844
X0116143
X0122442
X0128741
X013504
X014134
X0147639
X0153938
X0150788Y0265748
X0144489
X0138189
X013189
X0125591
X0119292
X0112993
X0106693
X0100394
X0094095
X0087796
X0081497
X0075197
X0068898
X0062599
X00563
X0068898Y0252362
X0075197
X0081497
X0087796
X0094095
X0100394
X0106693
X0112993
X0119292
X0125591
X013189
X0138189
X0144489
X0150788
X0147639Y0305118
X0141339
X013504
X0128741
X0122442
X0116142
X0109843
X0103544
X0097245
X0090946
X0084646
X0078347
X0072048
X0065749
X005945
X0062598Y0311417
X0056299
X005945Y0318504
X0065749
X0072048
X0078347
X0084646
X0090946
X0097245
X0103544
X0109843
X0116142
X0122442
X0128741
X013504
X0141339
X0147639
X0153938
X0150787Y0324803
X0144488
X0138189
X013189
X0125591
X0119291
X0112992
X0106693
X0100394
X0094095
X0087795
X0081496
X0075197
X0068898
X0062598
X0056299
X0068898Y0311417
X0075197
X0081496
X0087795
X0094095
X0100394
X0106693
X0112992
X0119291
X0125591
X013189
X0138189
X0144488
X0150787
X0153938Y0305118
X021693
X0223229
X0229528
X0235828
X0242127
X0248426
X0254725
X0251575Y0311417
X0245276
X0238976
X0232677
X0226378
X0220079
X0213779
X021693Y0318504
X0223229
X0229528
X0235828
X0242127
X0248426
X0254725
X0251575Y0324803
X0245276
X0238976
X0232677
X0226378
X0220079
X0213779
X0216929Y0364171
X0223228
X0229527
X0235827
X0242126
X0248425
X0254724
X0251575Y0265748
X0245276
X0238977
X0232678
X0226378
X0220079
X021378
X021693Y0259449
X022323
X0229529
X0235828
X0242127
X0248426
X0254726
X0251575Y0252362
X0245276
X0238977
X0232678
X0226378
X0220079
X021378
X021693Y0246063
X022323
X0229529
X0235828
X0242127
X0248426
X0254726
X0251574Y037047
X0245275
X0238976
X0232676
X0226377
X0220078
X0213779
X0216929Y0377557
X0223228
X0229527
X0235827
X0242126
X0248425
X0254724
X0251574Y0383856
X0245275
X0238976
X0232676
X0226377
X0220078
X0213779
X0216929Y0423226
X0223228
X0229527
X0235827
X0242126
X0248425
X0254724
X0251574Y0429525
X0245275
X0238976
X0232676
X0226377
X0220078
X0213779
X0216929Y0436612
X0223228
X0229527
X0235827
X0242126
X0248425
X0254724
X0251574Y0442911
X0245275
X0238976
X0232676
X0226377
X0220078
X0213779
X0216929Y0482281
X0223228
X0229527
X0235827
X0242126
X0248425
X0254724
X0251574Y048858
X0245275
X0238976
X0232676
X0226377
X0220078
X0213779
X0216929Y0495667
X0223228
X0229527
X0235827
X0242126
X0248425
X0254724
X0251574Y0501966
X0245275
X0238976
X0232676
X0226377
X0220078
X0213779
X0227756Y051811
X0305654Y0456398
X020748Y0442911
X020118
X0194881
X0188582
X0182283
X0175983
X0169684
X0172835Y0436612
X0179134
X0185433
X0191732
X0198031
X0204331
X021063
X020748Y0429525
X020118
X0194881
X0188582
X0182283
X0175983
X0169684
X0172835Y0423226
X0179134
X0185433
X0191732
X0198031
X0204331
X021063
X020748Y0383856
X020118
X0194881
X0188582
X0182283
X0175983
X0169684
X0172835Y0377557
X0179134
X0185433
X0191732
X0198031
X0204331
X021063
X020748Y037047
X020118
X0194881
X0188582
X0182283
X0175983
X0169684
X0150787
X0144487
X0138188
X0131889
X012559
X011929
X0112991
X0106692
X0100393
X0094094
X0087794
X0081495
X0075196
X0068897
X0062598
X0056298
X0059449Y0377557
X0065748
X0072047
X0078346
X0084646
X0090945
X0097244
X0103543
X0109843
X0116142
X0122441
X012874
X0135039
X0141339
X0147638
X0153937
X0150787Y0383856
X0144487
X0138188
X0131889
X012559
X011929
X0112991
X0106692
X0100393
X0094094
X0087794
X0081495
X0075196
X0068897
X0062598
X0056298
X0059449Y0423226
X0065748
X0072047
X0078346
X0084646
X0090945
X0097244
X0103543
X0109843
X0116142
X0122441
X012874
X0135039
X0141339
X0147638
X0153937
X0150787Y0429525
X0144487
X0138188
X0131889
X012559
X011929
X0112991
X0106692
X0100393
X0094094
X0087794
X0081495
X0075196
X0068897
X0062598
X0056298
X0059449Y0436612
X0065748
X0072047
X0078346
X0084646
X0090945
X0097244
X0103543
X0109843
X0116142
X0122441
X012874
X0135039
X0141339
X0147638
X0153937
X0150787Y0442911
X0144487
X0138188
X0131889
X012559
X011929
X0112991
X0106692
X0100393
X0094094
X0087794
X0081495
X0075196
X0068897
X0062598
X0056298
X0059449Y0482281
X0065748
X0072047
X0078346
X0084646
X0090945
X0097244
X0103543
X0109843
X0116142
X0122441
X012874
X0135039
X0141339
X0147638
X0153937
X0150787Y048858
X0144487
X0138188
X0131889
X012559
X011929
X0112991
X0106692
X0100393
X0094094
X0087794
X0081495
X0075196
X0068897
X0062598
X0056298
X0059449Y0495667
X0065748
X0072047
X0078346
X0084646
X0090945
X0097244
X0103543
X0109843
X0116142
X0122441
X012874
X0135039
X0141339
X0147638
X0153937
X0150787Y0501966
X0144487
X0138188
X0131889
X012559
X011929
X0112991
X0106692
X0100393
X0094094
X0087794
X0081495
X0075196
X0068897
X0062598
X0056298
X0059842Y0517815
X0059941Y0522835
X0097835Y0522933
X0169684Y0501966
X0175983
X0182283
X0188582
X0194881
X020118
X020748
X0204331Y0495667
X0198031
X0191732
X0185433
X0179134
X0172835
X0175983Y048858
X0169684
X0172835Y0482281
X0179134
X0185433
X0191732
X0198031
X0204331
X021063
X020748Y048858
X020118
X0194881
X0188582
X0182283
X021063Y0495667
X0042126Y0524409
X0018504Y0514764
X0004724Y0511024
X002349Y0471989
X0035301Y0470119
Y0411063
X002349Y0412933
X0097835Y0528051
Y0533268
X0102657Y053061
Y0525492
T02
X0017717Y0011811
X0293307
X0017717Y027559
X0293307
X0017717Y0531496
X0293307
M30
