G04*
G04 #@! TF.GenerationSoftware,Altium Limited,Altium Designer,19.1.6 (110)*
G04*
G04 Layer_Color=128*
%FSLAX25Y25*%
%MOIN*%
G70*
G01*
G75*
%ADD52R,0.01181X0.02756*%
%ADD53R,0.02559X0.02756*%
D52*
X117126Y32677D02*
D03*
X115157D02*
D03*
X121063D02*
D03*
X123031D02*
D03*
X113189D02*
D03*
X111221D02*
D03*
X107283D02*
D03*
X109252D02*
D03*
X105315D02*
D03*
X103346D02*
D03*
X99409D02*
D03*
X101378D02*
D03*
X130905D02*
D03*
X128937D02*
D03*
X125000D02*
D03*
X126969D02*
D03*
X138779D02*
D03*
X136811D02*
D03*
X132874D02*
D03*
X134843D02*
D03*
X140748D02*
D03*
X142717D02*
D03*
X95472D02*
D03*
X97441D02*
D03*
X119095D02*
D03*
X85630D02*
D03*
X89567D02*
D03*
X87598D02*
D03*
X91535D02*
D03*
X93504D02*
D03*
X134843Y14567D02*
D03*
X136811D02*
D03*
X140748D02*
D03*
X138779D02*
D03*
X142717D02*
D03*
X109252D02*
D03*
X130905D02*
D03*
X132874D02*
D03*
X85630D02*
D03*
X87598D02*
D03*
X93504D02*
D03*
X95472D02*
D03*
X91535D02*
D03*
X89567D02*
D03*
X101378D02*
D03*
X103346D02*
D03*
X99409D02*
D03*
X97441D02*
D03*
X126969D02*
D03*
X128937D02*
D03*
X125000D02*
D03*
X123031D02*
D03*
X119095D02*
D03*
X121063D02*
D03*
X117126D02*
D03*
X115157D02*
D03*
X105315D02*
D03*
X107283D02*
D03*
X113189D02*
D03*
X111221D02*
D03*
X193898D02*
D03*
X195866D02*
D03*
X189961D02*
D03*
X187992D02*
D03*
X197835D02*
D03*
X199803D02*
D03*
X203740D02*
D03*
X201772D02*
D03*
X205709D02*
D03*
X207677D02*
D03*
X211614D02*
D03*
X209646D02*
D03*
X180118D02*
D03*
X182087D02*
D03*
X186024D02*
D03*
X184055D02*
D03*
X172244D02*
D03*
X174213D02*
D03*
X178150D02*
D03*
X176181D02*
D03*
X170276D02*
D03*
X168307D02*
D03*
X215551D02*
D03*
X213583D02*
D03*
X191929D02*
D03*
X225394D02*
D03*
X221457D02*
D03*
X223425D02*
D03*
X219488D02*
D03*
X217520D02*
D03*
X176181Y32677D02*
D03*
X174213D02*
D03*
X170276D02*
D03*
X172244D02*
D03*
X168307D02*
D03*
X201772D02*
D03*
X180118D02*
D03*
X178150D02*
D03*
X225394D02*
D03*
X223425D02*
D03*
X217520D02*
D03*
X215551D02*
D03*
X219488D02*
D03*
X221457D02*
D03*
X209646D02*
D03*
X207677D02*
D03*
X211614D02*
D03*
X213583D02*
D03*
X184055D02*
D03*
X182087D02*
D03*
X186024D02*
D03*
X187992D02*
D03*
X191929D02*
D03*
X189961D02*
D03*
X193898D02*
D03*
X195866D02*
D03*
X205709D02*
D03*
X203740D02*
D03*
X197835D02*
D03*
X199803D02*
D03*
D53*
X19193Y37205D02*
D03*
X30807Y29724D02*
D03*
X19193D02*
D03*
X30807Y37205D02*
D03*
X291831D02*
D03*
X280217Y29724D02*
D03*
X291831D02*
D03*
X280217Y37205D02*
D03*
M02*
