G04*
G04 #@! TF.GenerationSoftware,Altium Limited,Altium Designer,19.1.6 (110)*
G04*
G04 Layer_Color=8388736*
%FSLAX25Y25*%
%MOIN*%
G70*
G01*
G75*
%ADD18R,0.03200X0.02978*%
%ADD19R,0.02978X0.03200*%
%ADD30R,0.02362X0.05118*%
%ADD31R,0.06972X0.02172*%
%ADD32R,0.08674X0.07099*%
G04:AMPARAMS|DCode=33|XSize=39.5mil|YSize=78.87mil|CornerRadius=11.87mil|HoleSize=0mil|Usage=FLASHONLY|Rotation=90.000|XOffset=0mil|YOffset=0mil|HoleType=Round|Shape=RoundedRectangle|*
%AMROUNDEDRECTD33*
21,1,0.03950,0.05512,0,0,90.0*
21,1,0.01575,0.07887,0,0,90.0*
1,1,0.02375,0.02756,0.00787*
1,1,0.02375,0.02756,-0.00787*
1,1,0.02375,-0.02756,-0.00787*
1,1,0.02375,-0.02756,0.00787*
%
%ADD33ROUNDEDRECTD33*%
%ADD34R,0.07887X0.03950*%
G04:AMPARAMS|DCode=35|XSize=39.5mil|YSize=78.87mil|CornerRadius=11.87mil|HoleSize=0mil|Usage=FLASHONLY|Rotation=180.000|XOffset=0mil|YOffset=0mil|HoleType=Round|Shape=RoundedRectangle|*
%AMROUNDEDRECTD35*
21,1,0.03950,0.05512,0,0,180.0*
21,1,0.01575,0.07887,0,0,180.0*
1,1,0.02375,-0.00787,0.02756*
1,1,0.02375,0.00787,0.02756*
1,1,0.02375,0.00787,-0.02756*
1,1,0.02375,-0.00787,-0.02756*
%
%ADD35ROUNDEDRECTD35*%
%ADD36R,0.03950X0.07887*%
%ADD37R,0.07099X0.08674*%
%ADD38R,0.07887X0.11036*%
%ADD39R,0.04567X0.05354*%
%ADD40R,0.03950X0.04343*%
%ADD41C,0.00800*%
%ADD42C,0.06706*%
%ADD43C,0.04737*%
%ADD44C,0.16548*%
%ADD45C,0.06890*%
D18*
X5020Y50677D02*
D03*
Y44599D02*
D03*
X10236Y56410D02*
D03*
Y62488D02*
D03*
X9547Y158256D02*
D03*
Y152178D02*
D03*
X10237Y174520D02*
D03*
Y180598D02*
D03*
Y239653D02*
D03*
Y233575D02*
D03*
X10236Y292630D02*
D03*
Y298708D02*
D03*
X10235Y357761D02*
D03*
Y351683D02*
D03*
Y410738D02*
D03*
Y416816D02*
D03*
Y475871D02*
D03*
Y469793D02*
D03*
D19*
X37512Y56693D02*
D03*
X43590D02*
D03*
X42212Y155413D02*
D03*
X36134D02*
D03*
X37513Y174803D02*
D03*
X43591D02*
D03*
Y233858D02*
D03*
X37513D02*
D03*
X37512Y292913D02*
D03*
X43590D02*
D03*
X43589Y351966D02*
D03*
X37511D02*
D03*
Y411021D02*
D03*
X43589D02*
D03*
Y470076D02*
D03*
X37511D02*
D03*
X50972Y519587D02*
D03*
X44894D02*
D03*
X50972Y524311D02*
D03*
X44894D02*
D03*
X44894Y528839D02*
D03*
X50972D02*
D03*
D30*
X254725Y85433D02*
D03*
Y72047D02*
D03*
X251575Y85433D02*
D03*
Y72047D02*
D03*
X248426Y85433D02*
D03*
Y72047D02*
D03*
X245276Y85433D02*
D03*
Y72047D02*
D03*
X242126Y85433D02*
D03*
Y72047D02*
D03*
X238977Y85433D02*
D03*
Y72047D02*
D03*
X235827Y85433D02*
D03*
Y72047D02*
D03*
X232678Y85433D02*
D03*
Y72047D02*
D03*
X229528Y85433D02*
D03*
Y72047D02*
D03*
X226378Y85433D02*
D03*
Y72047D02*
D03*
X223229Y85433D02*
D03*
Y72047D02*
D03*
X220079Y85433D02*
D03*
Y72047D02*
D03*
X216930Y85433D02*
D03*
Y72047D02*
D03*
X213780Y85433D02*
D03*
Y72047D02*
D03*
X210630Y85433D02*
D03*
Y72047D02*
D03*
X207481Y85433D02*
D03*
Y72047D02*
D03*
X204331Y85433D02*
D03*
Y72047D02*
D03*
X201182Y85433D02*
D03*
Y72047D02*
D03*
X198032Y85433D02*
D03*
Y72047D02*
D03*
X194882Y85433D02*
D03*
Y72047D02*
D03*
X191733Y85433D02*
D03*
Y72047D02*
D03*
X188583Y85433D02*
D03*
Y72047D02*
D03*
X185433Y85433D02*
D03*
Y72047D02*
D03*
X182284Y85433D02*
D03*
Y72047D02*
D03*
X179134Y85433D02*
D03*
Y72047D02*
D03*
X175985Y85433D02*
D03*
Y72047D02*
D03*
X172835Y85433D02*
D03*
Y72047D02*
D03*
X169685Y85433D02*
D03*
Y72047D02*
D03*
X153937Y85433D02*
D03*
Y72047D02*
D03*
X150788Y85433D02*
D03*
Y72047D02*
D03*
X147638Y85433D02*
D03*
Y72047D02*
D03*
X144489Y85433D02*
D03*
Y72047D02*
D03*
X141339Y85433D02*
D03*
Y72047D02*
D03*
X138189Y85433D02*
D03*
Y72047D02*
D03*
X135040Y85433D02*
D03*
Y72047D02*
D03*
X131890Y85433D02*
D03*
Y72047D02*
D03*
X128741Y85433D02*
D03*
Y72047D02*
D03*
X125591Y85433D02*
D03*
Y72047D02*
D03*
X122441Y85433D02*
D03*
Y72047D02*
D03*
X119292Y85433D02*
D03*
Y72047D02*
D03*
X116142Y85433D02*
D03*
Y72047D02*
D03*
X112993Y85433D02*
D03*
Y72047D02*
D03*
X109843Y85433D02*
D03*
Y72047D02*
D03*
X106693Y85433D02*
D03*
Y72047D02*
D03*
X103544Y85433D02*
D03*
Y72047D02*
D03*
X100394Y85433D02*
D03*
Y72047D02*
D03*
X97245Y85433D02*
D03*
Y72047D02*
D03*
X94095Y85433D02*
D03*
Y72047D02*
D03*
X90945Y85433D02*
D03*
Y72047D02*
D03*
X87796Y85433D02*
D03*
Y72047D02*
D03*
X84646Y85433D02*
D03*
Y72047D02*
D03*
X81497Y85433D02*
D03*
Y72047D02*
D03*
X78347Y85433D02*
D03*
Y72047D02*
D03*
X75197Y85433D02*
D03*
Y72047D02*
D03*
X72048Y85433D02*
D03*
Y72047D02*
D03*
X68898Y85433D02*
D03*
Y72047D02*
D03*
X65748Y85433D02*
D03*
Y72047D02*
D03*
X62599Y85433D02*
D03*
Y72047D02*
D03*
X59449Y85433D02*
D03*
Y72047D02*
D03*
X56300Y85433D02*
D03*
Y72047D02*
D03*
X56300Y249213D02*
D03*
Y262598D02*
D03*
X59450Y249213D02*
D03*
Y262598D02*
D03*
X62599Y249213D02*
D03*
Y262598D02*
D03*
X65749Y249213D02*
D03*
Y262598D02*
D03*
X68898Y249213D02*
D03*
Y262598D02*
D03*
X72048Y249213D02*
D03*
Y262598D02*
D03*
X75198Y249213D02*
D03*
Y262598D02*
D03*
X78347Y249213D02*
D03*
Y262598D02*
D03*
X81497Y249213D02*
D03*
Y262598D02*
D03*
X84646Y249213D02*
D03*
Y262598D02*
D03*
X87796Y249213D02*
D03*
Y262598D02*
D03*
X90946Y249213D02*
D03*
Y262598D02*
D03*
X94095Y249213D02*
D03*
Y262598D02*
D03*
X97245Y249213D02*
D03*
Y262598D02*
D03*
X100394Y249213D02*
D03*
Y262598D02*
D03*
X103544Y249213D02*
D03*
Y262598D02*
D03*
X106694Y249213D02*
D03*
Y262598D02*
D03*
X109843Y249213D02*
D03*
Y262598D02*
D03*
X112993Y249213D02*
D03*
Y262598D02*
D03*
X116142Y249213D02*
D03*
Y262598D02*
D03*
X119292Y249213D02*
D03*
Y262598D02*
D03*
X122442Y249213D02*
D03*
Y262598D02*
D03*
X125591Y249213D02*
D03*
Y262598D02*
D03*
X128741Y249213D02*
D03*
Y262598D02*
D03*
X131890Y249213D02*
D03*
Y262598D02*
D03*
X135040Y249213D02*
D03*
Y262598D02*
D03*
X138190Y249213D02*
D03*
Y262598D02*
D03*
X141339Y249213D02*
D03*
Y262598D02*
D03*
X144489Y249213D02*
D03*
Y262598D02*
D03*
X147639Y249213D02*
D03*
Y262598D02*
D03*
X150788Y249213D02*
D03*
Y262598D02*
D03*
X153938Y249213D02*
D03*
Y262598D02*
D03*
X169686Y249213D02*
D03*
Y262598D02*
D03*
X172835Y249213D02*
D03*
Y262598D02*
D03*
X175985Y249213D02*
D03*
Y262598D02*
D03*
X179135Y249213D02*
D03*
Y262598D02*
D03*
X182284Y249213D02*
D03*
Y262598D02*
D03*
X185434Y249213D02*
D03*
Y262598D02*
D03*
X188583Y249213D02*
D03*
Y262598D02*
D03*
X191733Y249213D02*
D03*
Y262598D02*
D03*
X194883Y249213D02*
D03*
Y262598D02*
D03*
X198032Y249213D02*
D03*
Y262598D02*
D03*
X201182Y249213D02*
D03*
Y262598D02*
D03*
X204331Y249213D02*
D03*
Y262598D02*
D03*
X207481Y249213D02*
D03*
Y262598D02*
D03*
X210631Y249213D02*
D03*
Y262598D02*
D03*
X213780Y249213D02*
D03*
Y262598D02*
D03*
X216930Y249213D02*
D03*
Y262598D02*
D03*
X220079Y249213D02*
D03*
Y262598D02*
D03*
X223229Y249213D02*
D03*
Y262598D02*
D03*
X226379Y249213D02*
D03*
Y262598D02*
D03*
X229528Y249213D02*
D03*
Y262598D02*
D03*
X232678Y249213D02*
D03*
Y262598D02*
D03*
X235828Y249213D02*
D03*
Y262598D02*
D03*
X238977Y249213D02*
D03*
Y262598D02*
D03*
X242127Y249213D02*
D03*
Y262598D02*
D03*
X245276Y249213D02*
D03*
Y262598D02*
D03*
X248426Y249213D02*
D03*
Y262598D02*
D03*
X251576Y249213D02*
D03*
Y262598D02*
D03*
X254725Y249213D02*
D03*
Y262598D02*
D03*
X254725Y321654D02*
D03*
Y308268D02*
D03*
X251575Y321654D02*
D03*
Y308268D02*
D03*
X248426Y321654D02*
D03*
Y308268D02*
D03*
X245276Y321654D02*
D03*
Y308268D02*
D03*
X242126Y321654D02*
D03*
Y308268D02*
D03*
X238977Y321654D02*
D03*
Y308268D02*
D03*
X235827Y321654D02*
D03*
Y308268D02*
D03*
X232678Y321654D02*
D03*
Y308268D02*
D03*
X229528Y321654D02*
D03*
Y308268D02*
D03*
X226378Y321654D02*
D03*
Y308268D02*
D03*
X223229Y321654D02*
D03*
Y308268D02*
D03*
X220079Y321654D02*
D03*
Y308268D02*
D03*
X216930Y321654D02*
D03*
Y308268D02*
D03*
X213780Y321654D02*
D03*
Y308268D02*
D03*
X210630Y321654D02*
D03*
Y308268D02*
D03*
X207481Y321654D02*
D03*
Y308268D02*
D03*
X204331Y321654D02*
D03*
Y308268D02*
D03*
X201182Y321654D02*
D03*
Y308268D02*
D03*
X198032Y321654D02*
D03*
Y308268D02*
D03*
X194882Y321654D02*
D03*
Y308268D02*
D03*
X191733Y321654D02*
D03*
Y308268D02*
D03*
X188583Y321654D02*
D03*
Y308268D02*
D03*
X185433Y321654D02*
D03*
Y308268D02*
D03*
X182284Y321654D02*
D03*
Y308268D02*
D03*
X179134Y321654D02*
D03*
Y308268D02*
D03*
X175985Y321654D02*
D03*
Y308268D02*
D03*
X172835Y321654D02*
D03*
Y308268D02*
D03*
X169685Y321654D02*
D03*
Y308268D02*
D03*
X153937Y321654D02*
D03*
Y308268D02*
D03*
X150788Y321654D02*
D03*
Y308268D02*
D03*
X147638Y321654D02*
D03*
Y308268D02*
D03*
X144489Y321654D02*
D03*
Y308268D02*
D03*
X141339Y321654D02*
D03*
Y308268D02*
D03*
X138189Y321654D02*
D03*
Y308268D02*
D03*
X135040Y321654D02*
D03*
Y308268D02*
D03*
X131890Y321654D02*
D03*
Y308268D02*
D03*
X128741Y321654D02*
D03*
Y308268D02*
D03*
X125591Y321654D02*
D03*
Y308268D02*
D03*
X122441Y321654D02*
D03*
Y308268D02*
D03*
X119292Y321654D02*
D03*
Y308268D02*
D03*
X116142Y321654D02*
D03*
Y308268D02*
D03*
X112993Y321654D02*
D03*
Y308268D02*
D03*
X109843Y321654D02*
D03*
Y308268D02*
D03*
X106693Y321654D02*
D03*
Y308268D02*
D03*
X103544Y321654D02*
D03*
Y308268D02*
D03*
X100394Y321654D02*
D03*
Y308268D02*
D03*
X97245Y321654D02*
D03*
Y308268D02*
D03*
X94095Y321654D02*
D03*
Y308268D02*
D03*
X90945Y321654D02*
D03*
Y308268D02*
D03*
X87796Y321654D02*
D03*
Y308268D02*
D03*
X84646Y321654D02*
D03*
Y308268D02*
D03*
X81497Y321654D02*
D03*
Y308268D02*
D03*
X78347Y321654D02*
D03*
Y308268D02*
D03*
X75197Y321654D02*
D03*
Y308268D02*
D03*
X72048Y321654D02*
D03*
Y308268D02*
D03*
X68898Y321654D02*
D03*
Y308268D02*
D03*
X65748Y321654D02*
D03*
Y308268D02*
D03*
X62599Y321654D02*
D03*
Y308268D02*
D03*
X59449Y321654D02*
D03*
Y308268D02*
D03*
X56300Y321654D02*
D03*
Y308268D02*
D03*
X56299Y367320D02*
D03*
Y380706D02*
D03*
X59448Y367320D02*
D03*
Y380706D02*
D03*
X62598Y367320D02*
D03*
Y380706D02*
D03*
X65748Y367320D02*
D03*
Y380706D02*
D03*
X68897Y367320D02*
D03*
Y380706D02*
D03*
X72047Y367320D02*
D03*
Y380706D02*
D03*
X75196Y367320D02*
D03*
Y380706D02*
D03*
X78346Y367320D02*
D03*
Y380706D02*
D03*
X81496Y367320D02*
D03*
Y380706D02*
D03*
X84645Y367320D02*
D03*
Y380706D02*
D03*
X87795Y367320D02*
D03*
Y380706D02*
D03*
X90944Y367320D02*
D03*
Y380706D02*
D03*
X94094Y367320D02*
D03*
Y380706D02*
D03*
X97244Y367320D02*
D03*
Y380706D02*
D03*
X100393Y367320D02*
D03*
Y380706D02*
D03*
X103543Y367320D02*
D03*
Y380706D02*
D03*
X106693Y367320D02*
D03*
Y380706D02*
D03*
X109842Y367320D02*
D03*
Y380706D02*
D03*
X112992Y367320D02*
D03*
Y380706D02*
D03*
X116141Y367320D02*
D03*
Y380706D02*
D03*
X119291Y367320D02*
D03*
Y380706D02*
D03*
X122441Y367320D02*
D03*
Y380706D02*
D03*
X125590Y367320D02*
D03*
Y380706D02*
D03*
X128740Y367320D02*
D03*
Y380706D02*
D03*
X131889Y367320D02*
D03*
Y380706D02*
D03*
X135039Y367320D02*
D03*
Y380706D02*
D03*
X138189Y367320D02*
D03*
Y380706D02*
D03*
X141338Y367320D02*
D03*
Y380706D02*
D03*
X144488Y367320D02*
D03*
Y380706D02*
D03*
X147637Y367320D02*
D03*
Y380706D02*
D03*
X150787Y367320D02*
D03*
Y380706D02*
D03*
X153937Y367320D02*
D03*
Y380706D02*
D03*
X169685Y367320D02*
D03*
Y380706D02*
D03*
X172834Y367320D02*
D03*
Y380706D02*
D03*
X175984Y367320D02*
D03*
Y380706D02*
D03*
X179133Y367320D02*
D03*
Y380706D02*
D03*
X182283Y367320D02*
D03*
Y380706D02*
D03*
X185433Y367320D02*
D03*
Y380706D02*
D03*
X188582Y367320D02*
D03*
Y380706D02*
D03*
X191732Y367320D02*
D03*
Y380706D02*
D03*
X194881Y367320D02*
D03*
Y380706D02*
D03*
X198031Y367320D02*
D03*
Y380706D02*
D03*
X201181Y367320D02*
D03*
Y380706D02*
D03*
X204330Y367320D02*
D03*
Y380706D02*
D03*
X207480Y367320D02*
D03*
Y380706D02*
D03*
X210630Y367320D02*
D03*
Y380706D02*
D03*
X213779Y367320D02*
D03*
Y380706D02*
D03*
X216929Y367320D02*
D03*
Y380706D02*
D03*
X220078Y367320D02*
D03*
Y380706D02*
D03*
X223228Y367320D02*
D03*
Y380706D02*
D03*
X226378Y367320D02*
D03*
Y380706D02*
D03*
X229527Y367320D02*
D03*
Y380706D02*
D03*
X232677Y367320D02*
D03*
Y380706D02*
D03*
X235826Y367320D02*
D03*
Y380706D02*
D03*
X238976Y367320D02*
D03*
Y380706D02*
D03*
X242126Y367320D02*
D03*
Y380706D02*
D03*
X245275Y367320D02*
D03*
Y380706D02*
D03*
X248425Y367320D02*
D03*
Y380706D02*
D03*
X251574Y367320D02*
D03*
Y380706D02*
D03*
X254724Y367320D02*
D03*
Y380706D02*
D03*
Y439761D02*
D03*
Y426375D02*
D03*
X251574Y439761D02*
D03*
Y426375D02*
D03*
X248425Y439761D02*
D03*
Y426375D02*
D03*
X245275Y439761D02*
D03*
Y426375D02*
D03*
X242126Y439761D02*
D03*
Y426375D02*
D03*
X238976Y439761D02*
D03*
Y426375D02*
D03*
X235826Y439761D02*
D03*
Y426375D02*
D03*
X232677Y439761D02*
D03*
Y426375D02*
D03*
X229527Y439761D02*
D03*
Y426375D02*
D03*
X226378Y439761D02*
D03*
Y426375D02*
D03*
X223228Y439761D02*
D03*
Y426375D02*
D03*
X220078Y439761D02*
D03*
Y426375D02*
D03*
X216929Y439761D02*
D03*
Y426375D02*
D03*
X213779Y439761D02*
D03*
Y426375D02*
D03*
X210630Y439761D02*
D03*
Y426375D02*
D03*
X207480Y439761D02*
D03*
Y426375D02*
D03*
X204330Y439761D02*
D03*
Y426375D02*
D03*
X201181Y439761D02*
D03*
Y426375D02*
D03*
X198031Y439761D02*
D03*
Y426375D02*
D03*
X194881Y439761D02*
D03*
Y426375D02*
D03*
X191732Y439761D02*
D03*
Y426375D02*
D03*
X188582Y439761D02*
D03*
Y426375D02*
D03*
X185433Y439761D02*
D03*
Y426375D02*
D03*
X182283Y439761D02*
D03*
Y426375D02*
D03*
X179133Y439761D02*
D03*
Y426375D02*
D03*
X175984Y439761D02*
D03*
Y426375D02*
D03*
X172834Y439761D02*
D03*
Y426375D02*
D03*
X169685Y439761D02*
D03*
Y426375D02*
D03*
X153937Y439761D02*
D03*
Y426375D02*
D03*
X150787Y439761D02*
D03*
Y426375D02*
D03*
X147637Y439761D02*
D03*
Y426375D02*
D03*
X144488Y439761D02*
D03*
Y426375D02*
D03*
X141338Y439761D02*
D03*
Y426375D02*
D03*
X138189Y439761D02*
D03*
Y426375D02*
D03*
X135039Y439761D02*
D03*
Y426375D02*
D03*
X131889Y439761D02*
D03*
Y426375D02*
D03*
X128740Y439761D02*
D03*
Y426375D02*
D03*
X125590Y439761D02*
D03*
Y426375D02*
D03*
X122441Y439761D02*
D03*
Y426375D02*
D03*
X119291Y439761D02*
D03*
Y426375D02*
D03*
X116141Y439761D02*
D03*
Y426375D02*
D03*
X112992Y439761D02*
D03*
Y426375D02*
D03*
X109842Y439761D02*
D03*
Y426375D02*
D03*
X106693Y439761D02*
D03*
Y426375D02*
D03*
X103543Y439761D02*
D03*
Y426375D02*
D03*
X100393Y439761D02*
D03*
Y426375D02*
D03*
X97244Y439761D02*
D03*
Y426375D02*
D03*
X94094Y439761D02*
D03*
Y426375D02*
D03*
X90944Y439761D02*
D03*
Y426375D02*
D03*
X87795Y439761D02*
D03*
Y426375D02*
D03*
X84645Y439761D02*
D03*
Y426375D02*
D03*
X81496Y439761D02*
D03*
Y426375D02*
D03*
X78346Y439761D02*
D03*
Y426375D02*
D03*
X75196Y439761D02*
D03*
Y426375D02*
D03*
X72047Y439761D02*
D03*
Y426375D02*
D03*
X68897Y439761D02*
D03*
Y426375D02*
D03*
X65748Y439761D02*
D03*
Y426375D02*
D03*
X62598Y439761D02*
D03*
Y426375D02*
D03*
X59448Y439761D02*
D03*
Y426375D02*
D03*
X56299Y439761D02*
D03*
Y426375D02*
D03*
Y485431D02*
D03*
Y498816D02*
D03*
X59448Y485431D02*
D03*
Y498816D02*
D03*
X62598Y485431D02*
D03*
Y498816D02*
D03*
X65748Y485431D02*
D03*
Y498816D02*
D03*
X68897Y485431D02*
D03*
Y498816D02*
D03*
X72047Y485431D02*
D03*
Y498816D02*
D03*
X75196Y485431D02*
D03*
Y498816D02*
D03*
X78346Y485431D02*
D03*
Y498816D02*
D03*
X81496Y485431D02*
D03*
Y498816D02*
D03*
X84645Y485431D02*
D03*
Y498816D02*
D03*
X87795Y485431D02*
D03*
Y498816D02*
D03*
X90944Y485431D02*
D03*
Y498816D02*
D03*
X94094Y485431D02*
D03*
Y498816D02*
D03*
X97244Y485431D02*
D03*
Y498816D02*
D03*
X100393Y485431D02*
D03*
Y498816D02*
D03*
X103543Y485431D02*
D03*
Y498816D02*
D03*
X106693Y485431D02*
D03*
Y498816D02*
D03*
X109842Y485431D02*
D03*
Y498816D02*
D03*
X112992Y485431D02*
D03*
Y498816D02*
D03*
X116141Y485431D02*
D03*
Y498816D02*
D03*
X119291Y485431D02*
D03*
Y498816D02*
D03*
X122441Y485431D02*
D03*
Y498816D02*
D03*
X125590Y485431D02*
D03*
Y498816D02*
D03*
X128740Y485431D02*
D03*
Y498816D02*
D03*
X131889Y485431D02*
D03*
Y498816D02*
D03*
X135039Y485431D02*
D03*
Y498816D02*
D03*
X138189Y485431D02*
D03*
Y498816D02*
D03*
X141338Y485431D02*
D03*
Y498816D02*
D03*
X144488Y485431D02*
D03*
Y498816D02*
D03*
X147637Y485431D02*
D03*
Y498816D02*
D03*
X150787Y485431D02*
D03*
Y498816D02*
D03*
X153937Y485431D02*
D03*
Y498816D02*
D03*
X169685Y485431D02*
D03*
Y498816D02*
D03*
X172834Y485431D02*
D03*
Y498816D02*
D03*
X175984Y485431D02*
D03*
Y498816D02*
D03*
X179133Y485431D02*
D03*
Y498816D02*
D03*
X182283Y485431D02*
D03*
Y498816D02*
D03*
X185433Y485431D02*
D03*
Y498816D02*
D03*
X188582Y485431D02*
D03*
Y498816D02*
D03*
X191732Y485431D02*
D03*
Y498816D02*
D03*
X194881Y485431D02*
D03*
Y498816D02*
D03*
X198031Y485431D02*
D03*
Y498816D02*
D03*
X201181Y485431D02*
D03*
Y498816D02*
D03*
X204330Y485431D02*
D03*
Y498816D02*
D03*
X207480Y485431D02*
D03*
Y498816D02*
D03*
X210630Y485431D02*
D03*
Y498816D02*
D03*
X213779Y485431D02*
D03*
Y498816D02*
D03*
X216929Y485431D02*
D03*
Y498816D02*
D03*
X220078Y485431D02*
D03*
Y498816D02*
D03*
X223228Y485431D02*
D03*
Y498816D02*
D03*
X226378Y485431D02*
D03*
Y498816D02*
D03*
X229527Y485431D02*
D03*
Y498816D02*
D03*
X232677Y485431D02*
D03*
Y498816D02*
D03*
X235826Y485431D02*
D03*
Y498816D02*
D03*
X238976Y485431D02*
D03*
Y498816D02*
D03*
X242126Y485431D02*
D03*
Y498816D02*
D03*
X245275Y485431D02*
D03*
Y498816D02*
D03*
X248425Y485431D02*
D03*
Y498816D02*
D03*
X251574Y485431D02*
D03*
Y498816D02*
D03*
X254724Y485431D02*
D03*
Y498816D02*
D03*
X254724Y203542D02*
D03*
Y190156D02*
D03*
X251574Y203542D02*
D03*
Y190156D02*
D03*
X248424Y203542D02*
D03*
Y190156D02*
D03*
X245275Y203542D02*
D03*
Y190156D02*
D03*
X242125Y203542D02*
D03*
Y190156D02*
D03*
X238976Y203542D02*
D03*
Y190156D02*
D03*
X235826Y203542D02*
D03*
Y190156D02*
D03*
X232676Y203542D02*
D03*
Y190156D02*
D03*
X229527Y203542D02*
D03*
Y190156D02*
D03*
X226377Y203542D02*
D03*
Y190156D02*
D03*
X223227Y203542D02*
D03*
Y190156D02*
D03*
X220078Y203542D02*
D03*
Y190156D02*
D03*
X216928Y203542D02*
D03*
Y190156D02*
D03*
X213779Y203542D02*
D03*
Y190156D02*
D03*
X210629Y203542D02*
D03*
Y190156D02*
D03*
X207479Y203542D02*
D03*
Y190156D02*
D03*
X204330Y203542D02*
D03*
Y190156D02*
D03*
X201180Y203542D02*
D03*
Y190156D02*
D03*
X198031Y203542D02*
D03*
Y190156D02*
D03*
X194881Y203542D02*
D03*
Y190156D02*
D03*
X191731Y203542D02*
D03*
Y190156D02*
D03*
X188582Y203542D02*
D03*
Y190156D02*
D03*
X185432Y203542D02*
D03*
Y190156D02*
D03*
X182283Y203542D02*
D03*
Y190156D02*
D03*
X179133Y203542D02*
D03*
Y190156D02*
D03*
X175983Y203542D02*
D03*
Y190156D02*
D03*
X172834Y203542D02*
D03*
Y190156D02*
D03*
X169684Y203542D02*
D03*
Y190156D02*
D03*
X153936Y203542D02*
D03*
Y190156D02*
D03*
X150786Y203542D02*
D03*
Y190156D02*
D03*
X147637Y203542D02*
D03*
Y190156D02*
D03*
X144487Y203542D02*
D03*
Y190156D02*
D03*
X141338Y203542D02*
D03*
Y190156D02*
D03*
X138188Y203542D02*
D03*
Y190156D02*
D03*
X135038Y203542D02*
D03*
Y190156D02*
D03*
X131889Y203542D02*
D03*
Y190156D02*
D03*
X128739Y203542D02*
D03*
Y190156D02*
D03*
X125590Y203542D02*
D03*
Y190156D02*
D03*
X122440Y203542D02*
D03*
Y190156D02*
D03*
X119290Y203542D02*
D03*
Y190156D02*
D03*
X116141Y203542D02*
D03*
Y190156D02*
D03*
X112991Y203542D02*
D03*
Y190156D02*
D03*
X109842Y203542D02*
D03*
Y190156D02*
D03*
X106692Y203542D02*
D03*
Y190156D02*
D03*
X103542Y203542D02*
D03*
Y190156D02*
D03*
X100393Y203542D02*
D03*
Y190156D02*
D03*
X97243Y203542D02*
D03*
Y190156D02*
D03*
X94094Y203542D02*
D03*
Y190156D02*
D03*
X90944Y203542D02*
D03*
Y190156D02*
D03*
X87794Y203542D02*
D03*
Y190156D02*
D03*
X84645Y203542D02*
D03*
Y190156D02*
D03*
X81495Y203542D02*
D03*
Y190156D02*
D03*
X78346Y203542D02*
D03*
Y190156D02*
D03*
X75196Y203542D02*
D03*
Y190156D02*
D03*
X72046Y203542D02*
D03*
Y190156D02*
D03*
X68897Y203542D02*
D03*
Y190156D02*
D03*
X65747Y203542D02*
D03*
Y190156D02*
D03*
X62598Y203542D02*
D03*
Y190156D02*
D03*
X59448Y203542D02*
D03*
Y190156D02*
D03*
X56298Y203542D02*
D03*
Y190156D02*
D03*
X56300Y131102D02*
D03*
Y144488D02*
D03*
X59450Y131102D02*
D03*
Y144488D02*
D03*
X62599Y131102D02*
D03*
Y144488D02*
D03*
X65749Y131102D02*
D03*
Y144488D02*
D03*
X68898Y131102D02*
D03*
Y144488D02*
D03*
X72048Y131102D02*
D03*
Y144488D02*
D03*
X75198Y131102D02*
D03*
Y144488D02*
D03*
X78347Y131102D02*
D03*
Y144488D02*
D03*
X81497Y131102D02*
D03*
Y144488D02*
D03*
X84646Y131102D02*
D03*
Y144488D02*
D03*
X87796Y131102D02*
D03*
Y144488D02*
D03*
X90946Y131102D02*
D03*
Y144488D02*
D03*
X94095Y131102D02*
D03*
Y144488D02*
D03*
X97245Y131102D02*
D03*
Y144488D02*
D03*
X100394Y131102D02*
D03*
Y144488D02*
D03*
X103544Y131102D02*
D03*
Y144488D02*
D03*
X106694Y131102D02*
D03*
Y144488D02*
D03*
X109843Y131102D02*
D03*
Y144488D02*
D03*
X112993Y131102D02*
D03*
Y144488D02*
D03*
X116142Y131102D02*
D03*
Y144488D02*
D03*
X119292Y131102D02*
D03*
Y144488D02*
D03*
X122442Y131102D02*
D03*
Y144488D02*
D03*
X125591Y131102D02*
D03*
Y144488D02*
D03*
X128741Y131102D02*
D03*
Y144488D02*
D03*
X131890Y131102D02*
D03*
Y144488D02*
D03*
X135040Y131102D02*
D03*
Y144488D02*
D03*
X138190Y131102D02*
D03*
Y144488D02*
D03*
X141339Y131102D02*
D03*
Y144488D02*
D03*
X144489Y131102D02*
D03*
Y144488D02*
D03*
X147639Y131102D02*
D03*
Y144488D02*
D03*
X150788Y131102D02*
D03*
Y144488D02*
D03*
X153938Y131102D02*
D03*
Y144488D02*
D03*
X169686Y131102D02*
D03*
Y144488D02*
D03*
X172835Y131102D02*
D03*
Y144488D02*
D03*
X175985Y131102D02*
D03*
Y144488D02*
D03*
X179135Y131102D02*
D03*
Y144488D02*
D03*
X182284Y131102D02*
D03*
Y144488D02*
D03*
X185434Y131102D02*
D03*
Y144488D02*
D03*
X188583Y131102D02*
D03*
Y144488D02*
D03*
X191733Y131102D02*
D03*
Y144488D02*
D03*
X194883Y131102D02*
D03*
Y144488D02*
D03*
X198032Y131102D02*
D03*
Y144488D02*
D03*
X201182Y131102D02*
D03*
Y144488D02*
D03*
X204331Y131102D02*
D03*
Y144488D02*
D03*
X207481Y131102D02*
D03*
Y144488D02*
D03*
X210631Y131102D02*
D03*
Y144488D02*
D03*
X213780Y131102D02*
D03*
Y144488D02*
D03*
X216930Y131102D02*
D03*
Y144488D02*
D03*
X220079Y131102D02*
D03*
Y144488D02*
D03*
X223229Y131102D02*
D03*
Y144488D02*
D03*
X226379Y131102D02*
D03*
Y144488D02*
D03*
X229528Y131102D02*
D03*
Y144488D02*
D03*
X232678Y131102D02*
D03*
Y144488D02*
D03*
X235828Y131102D02*
D03*
Y144488D02*
D03*
X238977Y131102D02*
D03*
Y144488D02*
D03*
X242127Y131102D02*
D03*
Y144488D02*
D03*
X245276Y131102D02*
D03*
Y144488D02*
D03*
X248426Y131102D02*
D03*
Y144488D02*
D03*
X251576Y131102D02*
D03*
Y144488D02*
D03*
X254725Y131102D02*
D03*
Y144488D02*
D03*
D31*
X65139Y533169D02*
D03*
Y530610D02*
D03*
Y528051D02*
D03*
Y525492D02*
D03*
Y522933D02*
D03*
Y520374D02*
D03*
Y517815D02*
D03*
Y515256D02*
D03*
X92539D02*
D03*
Y517815D02*
D03*
Y520374D02*
D03*
Y522933D02*
D03*
Y525492D02*
D03*
Y528051D02*
D03*
Y530610D02*
D03*
Y533169D02*
D03*
D32*
X248031Y6004D02*
D03*
Y29429D02*
D03*
X271654D02*
D03*
Y6004D02*
D03*
X62992Y29429D02*
D03*
Y6004D02*
D03*
X39370D02*
D03*
Y29429D02*
D03*
D33*
X237795Y15256D02*
D03*
X261417D02*
D03*
X73228Y20177D02*
D03*
X49606D02*
D03*
D34*
X237795D02*
D03*
X261417D02*
D03*
X73228Y15256D02*
D03*
X49606D02*
D03*
D35*
X39862Y99803D02*
D03*
X296161Y458661D02*
D03*
X295768Y104331D02*
D03*
X167815Y48819D02*
D03*
D36*
X15256Y99803D02*
D03*
X25098D02*
D03*
X30020D02*
D03*
X20177D02*
D03*
X34941D02*
D03*
X291240Y458661D02*
D03*
X276476D02*
D03*
X286319D02*
D03*
X281398D02*
D03*
X271555D02*
D03*
X271161Y104331D02*
D03*
X281004D02*
D03*
X285925D02*
D03*
X276083D02*
D03*
X290846D02*
D03*
X143209Y48819D02*
D03*
X157972D02*
D03*
X153051D02*
D03*
X162894D02*
D03*
X148130D02*
D03*
D37*
X6004Y110039D02*
D03*
X49114D02*
D03*
X305413Y468898D02*
D03*
X262303D02*
D03*
X261910Y114567D02*
D03*
X305020D02*
D03*
D38*
X177067Y35827D02*
D03*
X133957D02*
D03*
D39*
X43189Y64213D02*
D03*
X29803D02*
D03*
X29804Y123268D02*
D03*
X43190D02*
D03*
Y182323D02*
D03*
X29804D02*
D03*
Y241378D02*
D03*
X43190D02*
D03*
X43189Y300433D02*
D03*
X29803D02*
D03*
X29803Y359486D02*
D03*
X43189D02*
D03*
Y418541D02*
D03*
X29803D02*
D03*
Y477596D02*
D03*
X43189D02*
D03*
D40*
X19684Y477753D02*
D03*
X23424Y469486D02*
D03*
X15944D02*
D03*
X19684Y418698D02*
D03*
X23424Y410431D02*
D03*
X15944D02*
D03*
X19684Y359643D02*
D03*
X23424Y351376D02*
D03*
X15944D02*
D03*
X19685Y300591D02*
D03*
X23425Y292323D02*
D03*
X15945D02*
D03*
X19685Y241535D02*
D03*
X23426Y233268D02*
D03*
X15945D02*
D03*
X19685Y182480D02*
D03*
X23426Y174213D02*
D03*
X15945D02*
D03*
X19291Y159941D02*
D03*
X23031Y151673D02*
D03*
X15551D02*
D03*
X15945Y56102D02*
D03*
X23425D02*
D03*
X19685Y64370D02*
D03*
D41*
X260630Y78740D02*
D03*
X50394Y72835D02*
D03*
X50394Y250000D02*
D03*
X260631Y255906D02*
D03*
X260630Y314961D02*
D03*
X50394Y309055D02*
D03*
X50393Y368108D02*
D03*
X260630Y374013D02*
D03*
Y433069D02*
D03*
X50393Y427163D02*
D03*
Y486218D02*
D03*
X260630Y492124D02*
D03*
X260629Y196849D02*
D03*
X50393Y190944D02*
D03*
X50394Y131890D02*
D03*
X260631Y137795D02*
D03*
X81693Y23622D02*
D03*
X146653D02*
D03*
X229331D02*
D03*
X164370D02*
D03*
X253150Y24311D02*
D03*
Y11024D02*
D03*
X276772D02*
D03*
Y24311D02*
D03*
X57874Y11122D02*
D03*
Y24409D02*
D03*
X34252D02*
D03*
Y11122D02*
D03*
X44094Y115157D02*
D03*
X11024D02*
D03*
X267323Y474016D02*
D03*
X300394D02*
D03*
X300000Y119685D02*
D03*
X266929D02*
D03*
X138976Y43307D02*
D03*
X172047D02*
D03*
D42*
X32559Y84606D02*
D03*
X32560Y261772D02*
D03*
X32559Y320827D02*
D03*
X32559Y379879D02*
D03*
Y438935D02*
D03*
Y497990D02*
D03*
X32558Y202715D02*
D03*
X32560Y143661D02*
D03*
D43*
X40040Y74410D02*
D03*
X25079D02*
D03*
X10119D02*
D03*
X15630Y83073D02*
D03*
X15631Y260238D02*
D03*
X10119Y251575D02*
D03*
X25080D02*
D03*
X40040D02*
D03*
X40040Y310630D02*
D03*
X25079D02*
D03*
X10119D02*
D03*
X15630Y319293D02*
D03*
X15630Y378346D02*
D03*
X10118Y369683D02*
D03*
X25078D02*
D03*
X40039D02*
D03*
Y428738D02*
D03*
X25078D02*
D03*
X10118D02*
D03*
X15630Y437401D02*
D03*
Y496456D02*
D03*
X10118Y487793D02*
D03*
X25078D02*
D03*
X40039D02*
D03*
X40038Y192518D02*
D03*
X25078D02*
D03*
X10117D02*
D03*
X15629Y201181D02*
D03*
X15631Y142128D02*
D03*
X10119Y133465D02*
D03*
X25080D02*
D03*
X40040D02*
D03*
D44*
X293307Y531496D02*
D03*
Y275590D02*
D03*
X17717Y531496D02*
D03*
Y275590D02*
D03*
X293307Y11811D02*
D03*
X17717D02*
D03*
D45*
X36496Y64213D02*
D03*
X36497Y123268D02*
D03*
Y182323D02*
D03*
Y241378D02*
D03*
X36496Y300433D02*
D03*
X36496Y359486D02*
D03*
Y418541D02*
D03*
Y477596D02*
D03*
M02*
