G04*
G04 #@! TF.GenerationSoftware,Altium Limited,Altium Designer,19.1.6 (110)*
G04*
G04 Layer_Color=65535*
%FSLAX25Y25*%
%MOIN*%
G70*
G01*
G75*
%ADD10C,0.01968*%
%ADD11C,0.01000*%
%ADD12C,0.00600*%
%ADD13C,0.01200*%
%ADD14C,0.00500*%
%ADD15C,0.00394*%
%ADD16C,0.00598*%
D10*
X63682Y536662D02*
G03*
X63682Y536662I-394J0D01*
G01*
D11*
X238352Y10236D02*
G03*
X238352Y10236I-557J0D01*
G01*
X261974D02*
G03*
X261974Y10236I-557J0D01*
G01*
X73785Y25197D02*
G03*
X73785Y25197I-557J0D01*
G01*
X50163D02*
G03*
X50163Y25197I-557J0D01*
G01*
X45439Y99803D02*
G03*
X45439Y99803I-557J0D01*
G01*
X301738Y458661D02*
G03*
X301738Y458661I-557J0D01*
G01*
X301344Y104331D02*
G03*
X301344Y104331I-557J0D01*
G01*
X173391Y48819D02*
G03*
X173391Y48819I-557J0D01*
G01*
X257874Y92520D02*
X265355D01*
Y64961D02*
Y92520D01*
X257874Y64961D02*
X265355D01*
X45670Y92520D02*
X53150D01*
X50394Y64961D02*
X53150D01*
X45670Y69685D02*
X50394Y64961D01*
X45670Y69685D02*
Y92520D01*
X45670Y246850D02*
Y269685D01*
Y246850D02*
X50394Y242126D01*
X53150D01*
X45670Y269685D02*
X53150D01*
X257875Y242126D02*
X265355D01*
Y269685D01*
X257875D02*
X265355D01*
X257874Y328740D02*
X265355D01*
Y301181D02*
Y328740D01*
X257874Y301181D02*
X265355D01*
X45670Y328740D02*
X53150D01*
X50394Y301181D02*
X53150D01*
X45670Y305906D02*
X50394Y301181D01*
X45670Y305906D02*
Y328740D01*
X45669Y364958D02*
Y387793D01*
Y364958D02*
X50393Y360234D01*
X53149D01*
X45669Y387793D02*
X53149D01*
X257874Y360234D02*
X265354D01*
Y387793D01*
X257874D02*
X265354D01*
X257874Y446848D02*
X265354D01*
Y419289D02*
Y446848D01*
X257874Y419289D02*
X265354D01*
X45669Y446848D02*
X53149D01*
X50393Y419289D02*
X53149D01*
X45669Y424013D02*
X50393Y419289D01*
X45669Y424013D02*
Y446848D01*
Y483069D02*
Y505903D01*
Y483069D02*
X50393Y478344D01*
X53149D01*
X45669Y505903D02*
X53149D01*
X257874Y478344D02*
X265354D01*
Y505903D01*
X257874D02*
X265354D01*
X257873Y210629D02*
X265353D01*
Y183070D02*
Y210629D01*
X257873Y183070D02*
X265353D01*
X45668Y210629D02*
X53149D01*
X50393Y183070D02*
X53149D01*
X45668Y187794D02*
X50393Y183070D01*
X45668Y187794D02*
Y210629D01*
X45670Y128740D02*
Y151575D01*
Y128740D02*
X50394Y124016D01*
X53150D01*
X45670Y151575D02*
X53150D01*
X257875Y124016D02*
X265355D01*
Y151575D01*
X257875D02*
X265355D01*
X241437Y6890D02*
Y12106D01*
Y23327D02*
Y28543D01*
X254724Y14075D02*
Y21654D01*
X278346Y14075D02*
Y21654D01*
X265059Y23327D02*
Y28543D01*
Y6890D02*
Y12106D01*
X69587Y23327D02*
Y28543D01*
Y6890D02*
Y12106D01*
X56299Y13780D02*
Y21358D01*
X32677Y13780D02*
Y21358D01*
X45965Y6890D02*
Y12106D01*
Y23327D02*
Y28543D01*
X13780Y116732D02*
X41339D01*
X43209Y103248D02*
X48425D01*
X6663Y103150D02*
X11880D01*
X262963Y462008D02*
X268179D01*
X299508Y462106D02*
X304724D01*
X270079Y475591D02*
X297638D01*
X269685Y121260D02*
X297244D01*
X299114Y107776D02*
X304331D01*
X262569Y107677D02*
X267785D01*
X137402Y25197D02*
Y27165D01*
X173622Y25197D02*
Y27165D01*
X137402Y25197D02*
X173622D01*
D12*
X2920Y47299D02*
Y47977D01*
X7120Y47299D02*
Y47977D01*
X40212Y54593D02*
X40890D01*
X40212Y58793D02*
X40890D01*
X38834Y157513D02*
X39512D01*
X38834Y153313D02*
X39512D01*
X40212Y172703D02*
X40891D01*
X40212Y176903D02*
X40891D01*
X40212Y235958D02*
X40891D01*
X40212Y231758D02*
X40891D01*
X40212Y290813D02*
X40890D01*
X40212Y295013D02*
X40890D01*
X40211Y354066D02*
X40889D01*
X40211Y349866D02*
X40889D01*
X40211Y408921D02*
X40889D01*
X40211Y413121D02*
X40889D01*
X40211Y472176D02*
X40889D01*
X40211Y467976D02*
X40889D01*
X12336Y59110D02*
Y59788D01*
X8136Y59110D02*
Y59788D01*
X7447Y154877D02*
Y155556D01*
X11647Y154877D02*
Y155556D01*
X12337Y177220D02*
Y177898D01*
X8137Y177220D02*
Y177898D01*
Y236275D02*
Y236953D01*
X12337Y236275D02*
Y236953D01*
X12336Y295330D02*
Y296008D01*
X8136Y295330D02*
Y296008D01*
X8135Y354383D02*
Y355061D01*
X12335Y354383D02*
Y355061D01*
Y413438D02*
Y414116D01*
X8135Y413438D02*
Y414116D01*
Y472493D02*
Y473171D01*
X12335Y472493D02*
Y473171D01*
X47594Y521687D02*
X48272D01*
X47594Y517487D02*
X48272D01*
X47594Y526411D02*
X48272D01*
X47594Y522211D02*
X48272D01*
X47594Y526739D02*
X48272D01*
X47594Y530939D02*
X48272D01*
X67739Y511263D02*
X89939D01*
Y513096D01*
X67739Y537163D02*
X89939D01*
X67739Y535329D02*
Y537163D01*
Y511263D02*
Y513096D01*
X89939Y535329D02*
Y537163D01*
D13*
X24184Y476620D02*
X25584D01*
Y473670D02*
Y476620D01*
X13784Y473670D02*
Y476620D01*
X15184D01*
X24184Y417564D02*
X25584D01*
Y414614D02*
Y417564D01*
X13784Y414614D02*
Y417564D01*
X15184D01*
X24184Y358509D02*
X25584D01*
Y355559D02*
Y358509D01*
X13784Y355559D02*
Y358509D01*
X15184D01*
X24185Y299457D02*
X25585D01*
Y296507D02*
Y299457D01*
X13785Y296507D02*
Y299457D01*
X15185D01*
X24185Y240402D02*
X25585D01*
Y237452D02*
Y240402D01*
X13785Y237452D02*
Y240402D01*
X15185D01*
X24185Y181346D02*
X25585D01*
Y178396D02*
Y181346D01*
X13785Y178396D02*
Y181346D01*
X15185D01*
X23791Y158807D02*
X25191D01*
Y155857D02*
Y158807D01*
X13391Y155857D02*
Y158807D01*
X14791D01*
X13785Y63236D02*
X15185D01*
X13785Y60286D02*
Y63236D01*
X25585Y60286D02*
Y63236D01*
X24185D02*
X25585D01*
D14*
X40827Y69505D02*
X43160D01*
X41993Y70672D02*
Y68339D01*
X40828Y128560D02*
X43160D01*
X41994Y129727D02*
Y127394D01*
X40828Y187616D02*
X43160D01*
X41994Y188782D02*
Y186449D01*
X40828Y246671D02*
X43160D01*
X41994Y247837D02*
Y245504D01*
X40827Y305726D02*
X43160D01*
X41993Y306892D02*
Y304559D01*
X40826Y364778D02*
X43159D01*
X41993Y365945D02*
Y363612D01*
X40826Y423834D02*
X43159D01*
X41993Y425000D02*
Y422667D01*
X40826Y482889D02*
X43159D01*
X41993Y484055D02*
Y481722D01*
D15*
X35493Y529445D02*
X35165Y529773D01*
X34509D01*
X34181Y529445D01*
Y528133D01*
X34509Y527805D01*
X35165D01*
X35493Y528133D01*
X37461Y529773D02*
X36149D01*
Y528789D01*
X36805Y529117D01*
X37133D01*
X37461Y528789D01*
Y528133D01*
X37133Y527805D01*
X36477D01*
X36149Y528133D01*
X38117Y529445D02*
X38445Y529773D01*
X39101D01*
X39429Y529445D01*
Y528133D01*
X39101Y527805D01*
X38445D01*
X38117Y528133D01*
Y529445D01*
X40085Y527805D02*
X40741D01*
X40413D01*
Y529773D01*
X40085Y529445D01*
X34890Y524953D02*
X34562Y525281D01*
X33906D01*
X33578Y524953D01*
Y523641D01*
X33906Y523313D01*
X34562D01*
X34890Y523641D01*
X36858Y525281D02*
X35546D01*
Y524297D01*
X36202Y524624D01*
X36530D01*
X36858Y524297D01*
Y523641D01*
X36530Y523313D01*
X35874D01*
X35546Y523641D01*
X37514Y524953D02*
X37842Y525281D01*
X38498D01*
X38826Y524953D01*
Y523641D01*
X38498Y523313D01*
X37842D01*
X37514Y523641D01*
Y524953D01*
X39481D02*
X39810Y525281D01*
X40466D01*
X40793Y524953D01*
Y523641D01*
X40466Y523313D01*
X39810D01*
X39481Y523641D01*
Y524953D01*
X75197Y540944D02*
Y539304D01*
X75525Y538976D01*
X76181D01*
X76509Y539304D01*
Y540944D01*
X78477D02*
X77165D01*
Y539960D01*
X77821Y540288D01*
X78149D01*
X78477Y539960D01*
Y539304D01*
X78149Y538976D01*
X77493D01*
X77165Y539304D01*
X79133Y540616D02*
X79461Y540944D01*
X80116D01*
X80445Y540616D01*
Y539304D01*
X80116Y538976D01*
X79461D01*
X79133Y539304D01*
Y540616D01*
X81100D02*
X81428Y540944D01*
X82084D01*
X82412Y540616D01*
Y539304D01*
X82084Y538976D01*
X81428D01*
X81100Y539304D01*
Y540616D01*
X33581Y518628D02*
Y520596D01*
X34565D01*
X34893Y520268D01*
Y519612D01*
X34565Y519284D01*
X33581D01*
X34237D02*
X34893Y518628D01*
X36861Y520596D02*
X35549D01*
Y519612D01*
X36205Y519940D01*
X36533D01*
X36861Y519612D01*
Y518956D01*
X36533Y518628D01*
X35877D01*
X35549Y518956D01*
X37517Y520268D02*
X37845Y520596D01*
X38501D01*
X38829Y520268D01*
Y518956D01*
X38501Y518628D01*
X37845D01*
X37517Y518956D01*
Y520268D01*
X39485D02*
X39813Y520596D01*
X40469D01*
X40797Y520268D01*
Y518956D01*
X40469Y518628D01*
X39813D01*
X39485Y518956D01*
Y520268D01*
X4199Y478546D02*
X6167D01*
Y477562D01*
X5839Y477234D01*
X5183D01*
X4855Y477562D01*
Y478546D01*
Y477890D02*
X4199Y477234D01*
X6167Y475266D02*
X5839Y475922D01*
X5183Y476578D01*
X4527D01*
X4199Y476250D01*
Y475594D01*
X4527Y475266D01*
X4855D01*
X5183Y475594D01*
Y476578D01*
X5839Y474610D02*
X6167Y474282D01*
Y473626D01*
X5839Y473298D01*
X4527D01*
X4199Y473626D01*
Y474282D01*
X4527Y474610D01*
X5839D01*
X4199Y472642D02*
Y471986D01*
Y472314D01*
X6167D01*
X5839Y472642D01*
X3871Y471002D02*
Y469690D01*
X5839Y469034D02*
X6167Y468706D01*
Y468050D01*
X5839Y467722D01*
X5511D01*
X5183Y468050D01*
X4855Y467722D01*
X4527D01*
X4199Y468050D01*
Y468706D01*
X4527Y469034D01*
X4855D01*
X5183Y468706D01*
X5511Y469034D01*
X5839D01*
X5183Y468706D02*
Y468050D01*
X4199Y419490D02*
X6167D01*
Y418507D01*
X5839Y418179D01*
X5183D01*
X4855Y418507D01*
Y419490D01*
Y418835D02*
X4199Y418179D01*
X6167Y416211D02*
X5839Y416867D01*
X5183Y417523D01*
X4527D01*
X4199Y417195D01*
Y416539D01*
X4527Y416211D01*
X4855D01*
X5183Y416539D01*
Y417523D01*
X5839Y415555D02*
X6167Y415227D01*
Y414571D01*
X5839Y414243D01*
X4527D01*
X4199Y414571D01*
Y415227D01*
X4527Y415555D01*
X5839D01*
X4199Y413587D02*
Y412931D01*
Y413259D01*
X6167D01*
X5839Y413587D01*
X3871Y411947D02*
Y410635D01*
X6167Y409979D02*
Y408667D01*
X5839D01*
X4527Y409979D01*
X4199D01*
Y360435D02*
X6167D01*
Y359452D01*
X5839Y359123D01*
X5183D01*
X4855Y359452D01*
Y360435D01*
Y359780D02*
X4199Y359123D01*
X6167Y357156D02*
X5839Y357812D01*
X5183Y358468D01*
X4527D01*
X4199Y358140D01*
Y357484D01*
X4527Y357156D01*
X4855D01*
X5183Y357484D01*
Y358468D01*
X5839Y356500D02*
X6167Y356172D01*
Y355516D01*
X5839Y355188D01*
X4527D01*
X4199Y355516D01*
Y356172D01*
X4527Y356500D01*
X5839D01*
X4199Y354532D02*
Y353876D01*
Y354204D01*
X6167D01*
X5839Y354532D01*
X3871Y352892D02*
Y351580D01*
X6167Y349612D02*
X5839Y350268D01*
X5183Y350924D01*
X4527D01*
X4199Y350596D01*
Y349940D01*
X4527Y349612D01*
X4855D01*
X5183Y349940D01*
Y350924D01*
X4200Y301383D02*
X6168D01*
Y300399D01*
X5840Y300071D01*
X5184D01*
X4856Y300399D01*
Y301383D01*
Y300727D02*
X4200Y300071D01*
X6168Y298103D02*
X5840Y298759D01*
X5184Y299415D01*
X4528D01*
X4200Y299087D01*
Y298431D01*
X4528Y298103D01*
X4856D01*
X5184Y298431D01*
Y299415D01*
X5840Y297447D02*
X6168Y297119D01*
Y296463D01*
X5840Y296135D01*
X4528D01*
X4200Y296463D01*
Y297119D01*
X4528Y297447D01*
X5840D01*
X4200Y295479D02*
Y294823D01*
Y295151D01*
X6168D01*
X5840Y295479D01*
X3872Y293839D02*
Y292527D01*
X6168Y290560D02*
Y291871D01*
X5184D01*
X5512Y291215D01*
Y290887D01*
X5184Y290560D01*
X4528D01*
X4200Y290887D01*
Y291543D01*
X4528Y291871D01*
X4200Y242328D02*
X6168D01*
Y241344D01*
X5840Y241016D01*
X5184D01*
X4856Y241344D01*
Y242328D01*
Y241672D02*
X4200Y241016D01*
X6168Y239048D02*
X5840Y239704D01*
X5184Y240360D01*
X4528D01*
X4200Y240032D01*
Y239376D01*
X4528Y239048D01*
X4856D01*
X5184Y239376D01*
Y240360D01*
X5840Y238392D02*
X6168Y238064D01*
Y237408D01*
X5840Y237080D01*
X4528D01*
X4200Y237408D01*
Y238064D01*
X4528Y238392D01*
X5840D01*
X4200Y236424D02*
Y235768D01*
Y236096D01*
X6168D01*
X5840Y236424D01*
X3872Y234784D02*
Y233472D01*
X4200Y231832D02*
X6168D01*
X5184Y232816D01*
Y231504D01*
X4200Y183273D02*
X6168D01*
Y182289D01*
X5840Y181961D01*
X5184D01*
X4856Y182289D01*
Y183273D01*
Y182617D02*
X4200Y181961D01*
X6168Y179993D02*
X5840Y180649D01*
X5184Y181305D01*
X4528D01*
X4200Y180977D01*
Y180321D01*
X4528Y179993D01*
X4856D01*
X5184Y180321D01*
Y181305D01*
X5840Y179337D02*
X6168Y179009D01*
Y178353D01*
X5840Y178025D01*
X4528D01*
X4200Y178353D01*
Y179009D01*
X4528Y179337D01*
X5840D01*
X4200Y177369D02*
Y176713D01*
Y177041D01*
X6168D01*
X5840Y177369D01*
X3872Y175729D02*
Y174417D01*
X5840Y173761D02*
X6168Y173433D01*
Y172777D01*
X5840Y172449D01*
X5512D01*
X5184Y172777D01*
Y173105D01*
Y172777D01*
X4856Y172449D01*
X4528D01*
X4200Y172777D01*
Y173433D01*
X4528Y173761D01*
X3511Y160930D02*
X5479D01*
Y159946D01*
X5151Y159618D01*
X4495D01*
X4167Y159946D01*
Y160930D01*
Y160274D02*
X3511Y159618D01*
X5479Y157650D02*
X5151Y158306D01*
X4495Y158962D01*
X3839D01*
X3511Y158634D01*
Y157978D01*
X3839Y157650D01*
X4167D01*
X4495Y157978D01*
Y158962D01*
X5151Y156994D02*
X5479Y156666D01*
Y156010D01*
X5151Y155682D01*
X3839D01*
X3511Y156010D01*
Y156666D01*
X3839Y156994D01*
X5151D01*
X3511Y155026D02*
Y154370D01*
Y154698D01*
X5479D01*
X5151Y155026D01*
X3183Y153386D02*
Y152075D01*
X3511Y150107D02*
Y151419D01*
X4823Y150107D01*
X5151D01*
X5479Y150435D01*
Y151091D01*
X5151Y151419D01*
X4200Y64506D02*
X6168D01*
Y63522D01*
X5840Y63194D01*
X5184D01*
X4856Y63522D01*
Y64506D01*
Y63850D02*
X4200Y63194D01*
X6168Y61226D02*
X5840Y61883D01*
X5184Y62538D01*
X4528D01*
X4200Y62211D01*
Y61554D01*
X4528Y61226D01*
X4856D01*
X5184Y61554D01*
Y62538D01*
X5840Y60571D02*
X6168Y60243D01*
Y59587D01*
X5840Y59259D01*
X4528D01*
X4200Y59587D01*
Y60243D01*
X4528Y60571D01*
X5840D01*
X4200Y58603D02*
Y57947D01*
Y58275D01*
X6168D01*
X5840Y58603D01*
X3872Y56963D02*
Y55651D01*
X4200Y54995D02*
Y54339D01*
Y54667D01*
X6168D01*
X5840Y54995D01*
X35299Y463990D02*
Y465958D01*
X36283D01*
X36611Y465630D01*
Y464974D01*
X36283Y464646D01*
X35299D01*
X35955D02*
X36611Y463990D01*
X38579Y465958D02*
X37923Y465630D01*
X37267Y464974D01*
Y464318D01*
X37595Y463990D01*
X38251D01*
X38579Y464318D01*
Y464646D01*
X38251Y464974D01*
X37267D01*
X39235Y465630D02*
X39563Y465958D01*
X40219D01*
X40547Y465630D01*
Y464318D01*
X40219Y463990D01*
X39563D01*
X39235Y464318D01*
Y465630D01*
X41203D02*
X41531Y465958D01*
X42187D01*
X42515Y465630D01*
Y464318D01*
X42187Y463990D01*
X41531D01*
X41203Y464318D01*
Y465630D01*
X43171Y463662D02*
X44482D01*
X45138Y465630D02*
X45466Y465958D01*
X46122D01*
X46450Y465630D01*
Y465302D01*
X46122Y464974D01*
X46450Y464646D01*
Y464318D01*
X46122Y463990D01*
X45466D01*
X45138Y464318D01*
Y464646D01*
X45466Y464974D01*
X45138Y465302D01*
Y465630D01*
X45466Y464974D02*
X46122D01*
X35299Y404935D02*
Y406902D01*
X36283D01*
X36611Y406574D01*
Y405919D01*
X36283Y405590D01*
X35299D01*
X35955D02*
X36611Y404935D01*
X38579Y406902D02*
X37923Y406574D01*
X37267Y405919D01*
Y405263D01*
X37595Y404935D01*
X38251D01*
X38579Y405263D01*
Y405590D01*
X38251Y405919D01*
X37267D01*
X39235Y406574D02*
X39563Y406902D01*
X40219D01*
X40547Y406574D01*
Y405263D01*
X40219Y404935D01*
X39563D01*
X39235Y405263D01*
Y406574D01*
X41203D02*
X41531Y406902D01*
X42187D01*
X42515Y406574D01*
Y405263D01*
X42187Y404935D01*
X41531D01*
X41203Y405263D01*
Y406574D01*
X43171Y404607D02*
X44482D01*
X45138Y406902D02*
X46450D01*
Y406574D01*
X45138Y405263D01*
Y404935D01*
X35299Y345880D02*
Y347847D01*
X36283D01*
X36611Y347519D01*
Y346863D01*
X36283Y346535D01*
X35299D01*
X35955D02*
X36611Y345880D01*
X38579Y347847D02*
X37923Y347519D01*
X37267Y346863D01*
Y346207D01*
X37595Y345880D01*
X38251D01*
X38579Y346207D01*
Y346535D01*
X38251Y346863D01*
X37267D01*
X39235Y347519D02*
X39563Y347847D01*
X40219D01*
X40547Y347519D01*
Y346207D01*
X40219Y345880D01*
X39563D01*
X39235Y346207D01*
Y347519D01*
X41203D02*
X41531Y347847D01*
X42187D01*
X42515Y347519D01*
Y346207D01*
X42187Y345880D01*
X41531D01*
X41203Y346207D01*
Y347519D01*
X43171Y345551D02*
X44482D01*
X46450Y347847D02*
X45794Y347519D01*
X45138Y346863D01*
Y346207D01*
X45466Y345880D01*
X46122D01*
X46450Y346207D01*
Y346535D01*
X46122Y346863D01*
X45138D01*
X35300Y286827D02*
Y288795D01*
X36284D01*
X36612Y288467D01*
Y287811D01*
X36284Y287483D01*
X35300D01*
X35956D02*
X36612Y286827D01*
X38580Y288795D02*
X37924Y288467D01*
X37268Y287811D01*
Y287155D01*
X37596Y286827D01*
X38252D01*
X38580Y287155D01*
Y287483D01*
X38252Y287811D01*
X37268D01*
X39236Y288467D02*
X39564Y288795D01*
X40220D01*
X40548Y288467D01*
Y287155D01*
X40220Y286827D01*
X39564D01*
X39236Y287155D01*
Y288467D01*
X41204D02*
X41532Y288795D01*
X42188D01*
X42516Y288467D01*
Y287155D01*
X42188Y286827D01*
X41532D01*
X41204Y287155D01*
Y288467D01*
X43171Y286499D02*
X44483D01*
X46451Y288795D02*
X45139D01*
Y287811D01*
X45795Y288139D01*
X46123D01*
X46451Y287811D01*
Y287155D01*
X46123Y286827D01*
X45467D01*
X45139Y287155D01*
X35300Y227772D02*
Y229739D01*
X36284D01*
X36612Y229412D01*
Y228756D01*
X36284Y228428D01*
X35300D01*
X35956D02*
X36612Y227772D01*
X38580Y229739D02*
X37924Y229412D01*
X37268Y228756D01*
Y228100D01*
X37596Y227772D01*
X38252D01*
X38580Y228100D01*
Y228428D01*
X38252Y228756D01*
X37268D01*
X39236Y229412D02*
X39564Y229739D01*
X40220D01*
X40548Y229412D01*
Y228100D01*
X40220Y227772D01*
X39564D01*
X39236Y228100D01*
Y229412D01*
X41204D02*
X41532Y229739D01*
X42188D01*
X42516Y229412D01*
Y228100D01*
X42188Y227772D01*
X41532D01*
X41204Y228100D01*
Y229412D01*
X43172Y227444D02*
X44484D01*
X46124Y227772D02*
Y229739D01*
X45140Y228756D01*
X46452D01*
X35300Y168717D02*
Y170684D01*
X36284D01*
X36612Y170356D01*
Y169701D01*
X36284Y169372D01*
X35300D01*
X35956D02*
X36612Y168717D01*
X38580Y170684D02*
X37924Y170356D01*
X37268Y169701D01*
Y169044D01*
X37596Y168717D01*
X38252D01*
X38580Y169044D01*
Y169372D01*
X38252Y169701D01*
X37268D01*
X39236Y170356D02*
X39564Y170684D01*
X40220D01*
X40548Y170356D01*
Y169044D01*
X40220Y168717D01*
X39564D01*
X39236Y169044D01*
Y170356D01*
X41204D02*
X41532Y170684D01*
X42188D01*
X42516Y170356D01*
Y169044D01*
X42188Y168717D01*
X41532D01*
X41204Y169044D01*
Y170356D01*
X43172Y168389D02*
X44484D01*
X45140Y170356D02*
X45468Y170684D01*
X46124D01*
X46452Y170356D01*
Y170028D01*
X46124Y169701D01*
X45796D01*
X46124D01*
X46452Y169372D01*
Y169044D01*
X46124Y168717D01*
X45468D01*
X45140Y169044D01*
X33600Y159806D02*
Y161774D01*
X34584D01*
X34912Y161446D01*
Y160790D01*
X34584Y160462D01*
X33600D01*
X34256D02*
X34912Y159806D01*
X36880Y161774D02*
X36224Y161446D01*
X35568Y160790D01*
Y160134D01*
X35896Y159806D01*
X36552D01*
X36880Y160134D01*
Y160462D01*
X36552Y160790D01*
X35568D01*
X37536Y161446D02*
X37864Y161774D01*
X38520D01*
X38848Y161446D01*
Y160134D01*
X38520Y159806D01*
X37864D01*
X37536Y160134D01*
Y161446D01*
X39504D02*
X39832Y161774D01*
X40488D01*
X40815Y161446D01*
Y160134D01*
X40488Y159806D01*
X39832D01*
X39504Y160134D01*
Y161446D01*
X41471Y159478D02*
X42783D01*
X44751Y159806D02*
X43439D01*
X44751Y161118D01*
Y161446D01*
X44423Y161774D01*
X43767D01*
X43439Y161446D01*
X35300Y50606D02*
Y52574D01*
X36284D01*
X36612Y52246D01*
Y51590D01*
X36284Y51262D01*
X35300D01*
X35956D02*
X36612Y50606D01*
X38580Y52574D02*
X37924Y52246D01*
X37268Y51590D01*
Y50934D01*
X37596Y50606D01*
X38252D01*
X38580Y50934D01*
Y51262D01*
X38252Y51590D01*
X37268D01*
X39236Y52246D02*
X39564Y52574D01*
X40220D01*
X40548Y52246D01*
Y50934D01*
X40220Y50606D01*
X39564D01*
X39236Y50934D01*
Y52246D01*
X41204D02*
X41532Y52574D01*
X42188D01*
X42516Y52246D01*
Y50934D01*
X42188Y50606D01*
X41532D01*
X41204Y50934D01*
Y52246D01*
X43171Y50278D02*
X44483D01*
X45139Y50606D02*
X45795D01*
X45467D01*
Y52574D01*
X45139Y52246D01*
X15711Y483018D02*
Y484330D01*
X15383Y484658D01*
X14727D01*
X14399Y484330D01*
Y483018D01*
X14727Y482690D01*
X15383D01*
X15055Y483346D02*
X15711Y482690D01*
X15383D02*
X15711Y483018D01*
X17679Y484658D02*
X17023Y484330D01*
X16367Y483674D01*
Y483018D01*
X16695Y482690D01*
X17351D01*
X17679Y483018D01*
Y483346D01*
X17351Y483674D01*
X16367D01*
X18335Y484330D02*
X18663Y484658D01*
X19319D01*
X19647Y484330D01*
Y483018D01*
X19319Y482690D01*
X18663D01*
X18335Y483018D01*
Y484330D01*
X20303D02*
X20631Y484658D01*
X21287D01*
X21615Y484330D01*
Y483018D01*
X21287Y482690D01*
X20631D01*
X20303Y483018D01*
Y484330D01*
X22271Y482362D02*
X23583D01*
X24238Y484330D02*
X24566Y484658D01*
X25222D01*
X25550Y484330D01*
Y484002D01*
X25222Y483674D01*
X25550Y483346D01*
Y483018D01*
X25222Y482690D01*
X24566D01*
X24238Y483018D01*
Y483346D01*
X24566Y483674D01*
X24238Y484002D01*
Y484330D01*
X24566Y483674D02*
X25222D01*
X15711Y423963D02*
Y425275D01*
X15383Y425602D01*
X14727D01*
X14399Y425275D01*
Y423963D01*
X14727Y423635D01*
X15383D01*
X15055Y424291D02*
X15711Y423635D01*
X15383D02*
X15711Y423963D01*
X17679Y425602D02*
X17023Y425275D01*
X16367Y424618D01*
Y423963D01*
X16695Y423635D01*
X17351D01*
X17679Y423963D01*
Y424291D01*
X17351Y424618D01*
X16367D01*
X18335Y425275D02*
X18663Y425602D01*
X19319D01*
X19647Y425275D01*
Y423963D01*
X19319Y423635D01*
X18663D01*
X18335Y423963D01*
Y425275D01*
X20303D02*
X20631Y425602D01*
X21287D01*
X21615Y425275D01*
Y423963D01*
X21287Y423635D01*
X20631D01*
X20303Y423963D01*
Y425275D01*
X22271Y423307D02*
X23583D01*
X24238Y425602D02*
X25550D01*
Y425275D01*
X24238Y423963D01*
Y423635D01*
X15711Y364908D02*
Y366219D01*
X15383Y366547D01*
X14727D01*
X14399Y366219D01*
Y364908D01*
X14727Y364580D01*
X15383D01*
X15055Y365235D02*
X15711Y364580D01*
X15383D02*
X15711Y364908D01*
X17679Y366547D02*
X17023Y366219D01*
X16367Y365563D01*
Y364908D01*
X16695Y364580D01*
X17351D01*
X17679Y364908D01*
Y365235D01*
X17351Y365563D01*
X16367D01*
X18335Y366219D02*
X18663Y366547D01*
X19319D01*
X19647Y366219D01*
Y364908D01*
X19319Y364580D01*
X18663D01*
X18335Y364908D01*
Y366219D01*
X20303D02*
X20631Y366547D01*
X21287D01*
X21615Y366219D01*
Y364908D01*
X21287Y364580D01*
X20631D01*
X20303Y364908D01*
Y366219D01*
X22271Y364251D02*
X23583D01*
X25550Y366547D02*
X24894Y366219D01*
X24238Y365563D01*
Y364908D01*
X24566Y364580D01*
X25222D01*
X25550Y364908D01*
Y365235D01*
X25222Y365563D01*
X24238D01*
X15712Y305855D02*
Y307167D01*
X15384Y307495D01*
X14728D01*
X14400Y307167D01*
Y305855D01*
X14728Y305527D01*
X15384D01*
X15056Y306183D02*
X15712Y305527D01*
X15384D02*
X15712Y305855D01*
X17680Y307495D02*
X17024Y307167D01*
X16368Y306511D01*
Y305855D01*
X16696Y305527D01*
X17352D01*
X17680Y305855D01*
Y306183D01*
X17352Y306511D01*
X16368D01*
X18336Y307167D02*
X18664Y307495D01*
X19320D01*
X19648Y307167D01*
Y305855D01*
X19320Y305527D01*
X18664D01*
X18336Y305855D01*
Y307167D01*
X20304D02*
X20632Y307495D01*
X21287D01*
X21615Y307167D01*
Y305855D01*
X21287Y305527D01*
X20632D01*
X20304Y305855D01*
Y307167D01*
X22271Y305199D02*
X23583D01*
X25551Y307495D02*
X24239D01*
Y306511D01*
X24895Y306839D01*
X25223D01*
X25551Y306511D01*
Y305855D01*
X25223Y305527D01*
X24567D01*
X24239Y305855D01*
X15712Y246800D02*
Y248112D01*
X15384Y248440D01*
X14728D01*
X14400Y248112D01*
Y246800D01*
X14728Y246472D01*
X15384D01*
X15056Y247128D02*
X15712Y246472D01*
X15384D02*
X15712Y246800D01*
X17680Y248440D02*
X17024Y248112D01*
X16368Y247456D01*
Y246800D01*
X16696Y246472D01*
X17352D01*
X17680Y246800D01*
Y247128D01*
X17352Y247456D01*
X16368D01*
X18336Y248112D02*
X18664Y248440D01*
X19320D01*
X19648Y248112D01*
Y246800D01*
X19320Y246472D01*
X18664D01*
X18336Y246800D01*
Y248112D01*
X20304D02*
X20632Y248440D01*
X21288D01*
X21616Y248112D01*
Y246800D01*
X21288Y246472D01*
X20632D01*
X20304Y246800D01*
Y248112D01*
X22272Y246144D02*
X23584D01*
X25224Y246472D02*
Y248440D01*
X24240Y247456D01*
X25552D01*
X15712Y187744D02*
Y189056D01*
X15384Y189384D01*
X14728D01*
X14400Y189056D01*
Y187744D01*
X14728Y187417D01*
X15384D01*
X15056Y188073D02*
X15712Y187417D01*
X15384D02*
X15712Y187744D01*
X17680Y189384D02*
X17024Y189056D01*
X16368Y188400D01*
Y187744D01*
X16696Y187417D01*
X17352D01*
X17680Y187744D01*
Y188073D01*
X17352Y188400D01*
X16368D01*
X18336Y189056D02*
X18664Y189384D01*
X19320D01*
X19648Y189056D01*
Y187744D01*
X19320Y187417D01*
X18664D01*
X18336Y187744D01*
Y189056D01*
X20304D02*
X20632Y189384D01*
X21288D01*
X21616Y189056D01*
Y187744D01*
X21288Y187417D01*
X20632D01*
X20304Y187744D01*
Y189056D01*
X22272Y187089D02*
X23584D01*
X24240Y189056D02*
X24568Y189384D01*
X25224D01*
X25552Y189056D01*
Y188728D01*
X25224Y188400D01*
X24896D01*
X25224D01*
X25552Y188073D01*
Y187744D01*
X25224Y187417D01*
X24568D01*
X24240Y187744D01*
X15318Y165205D02*
Y166517D01*
X14990Y166845D01*
X14334D01*
X14006Y166517D01*
Y165205D01*
X14334Y164877D01*
X14990D01*
X14662Y165533D02*
X15318Y164877D01*
X14990D02*
X15318Y165205D01*
X17286Y166845D02*
X16630Y166517D01*
X15974Y165861D01*
Y165205D01*
X16302Y164877D01*
X16958D01*
X17286Y165205D01*
Y165533D01*
X16958Y165861D01*
X15974D01*
X17942Y166517D02*
X18270Y166845D01*
X18926D01*
X19254Y166517D01*
Y165205D01*
X18926Y164877D01*
X18270D01*
X17942Y165205D01*
Y166517D01*
X19910D02*
X20238Y166845D01*
X20894D01*
X21222Y166517D01*
Y165205D01*
X20894Y164877D01*
X20238D01*
X19910Y165205D01*
Y166517D01*
X21878Y164549D02*
X23190D01*
X25157Y164877D02*
X23846D01*
X25157Y166189D01*
Y166517D01*
X24829Y166845D01*
X24174D01*
X23846Y166517D01*
X15712Y69634D02*
Y70946D01*
X15384Y71274D01*
X14728D01*
X14400Y70946D01*
Y69634D01*
X14728Y69306D01*
X15384D01*
X15056Y69962D02*
X15712Y69306D01*
X15384D02*
X15712Y69634D01*
X17680Y71274D02*
X17024Y70946D01*
X16368Y70290D01*
Y69634D01*
X16696Y69306D01*
X17352D01*
X17680Y69634D01*
Y69962D01*
X17352Y70290D01*
X16368D01*
X18336Y70946D02*
X18664Y71274D01*
X19320D01*
X19648Y70946D01*
Y69634D01*
X19320Y69306D01*
X18664D01*
X18336Y69634D01*
Y70946D01*
X20304D02*
X20632Y71274D01*
X21287D01*
X21615Y70946D01*
Y69634D01*
X21287Y69306D01*
X20632D01*
X20304Y69634D01*
Y70946D01*
X22271Y68978D02*
X23583D01*
X24239Y69306D02*
X24895D01*
X24567D01*
Y71274D01*
X24239Y70946D01*
X47257Y475585D02*
Y473617D01*
X48241D01*
X48569Y473945D01*
Y475257D01*
X48241Y475585D01*
X47257D01*
X50537D02*
X49881Y475257D01*
X49225Y474601D01*
Y473945D01*
X49553Y473617D01*
X50209D01*
X50537Y473945D01*
Y474273D01*
X50209Y474601D01*
X49225D01*
X51193Y475257D02*
X51521Y475585D01*
X52177D01*
X52505Y475257D01*
Y473945D01*
X52177Y473617D01*
X51521D01*
X51193Y473945D01*
Y475257D01*
X53161D02*
X53488Y475585D01*
X54144D01*
X54472Y475257D01*
Y473945D01*
X54144Y473617D01*
X53488D01*
X53161Y473945D01*
Y475257D01*
X55128Y473289D02*
X56440D01*
X57096Y475257D02*
X57424Y475585D01*
X58080D01*
X58408Y475257D01*
Y474929D01*
X58080Y474601D01*
X58408Y474273D01*
Y473945D01*
X58080Y473617D01*
X57424D01*
X57096Y473945D01*
Y474273D01*
X57424Y474601D01*
X57096Y474929D01*
Y475257D01*
X57424Y474601D02*
X58080D01*
X47257Y416530D02*
Y414562D01*
X48241D01*
X48569Y414890D01*
Y416201D01*
X48241Y416530D01*
X47257D01*
X50537D02*
X49881Y416201D01*
X49225Y415546D01*
Y414890D01*
X49553Y414562D01*
X50209D01*
X50537Y414890D01*
Y415218D01*
X50209Y415546D01*
X49225D01*
X51193Y416201D02*
X51521Y416530D01*
X52177D01*
X52505Y416201D01*
Y414890D01*
X52177Y414562D01*
X51521D01*
X51193Y414890D01*
Y416201D01*
X53161D02*
X53488Y416530D01*
X54144D01*
X54472Y416201D01*
Y414890D01*
X54144Y414562D01*
X53488D01*
X53161Y414890D01*
Y416201D01*
X55128Y414234D02*
X56440D01*
X57096Y416530D02*
X58408D01*
Y416201D01*
X57096Y414890D01*
Y414562D01*
X47257Y357474D02*
Y355506D01*
X48241D01*
X48569Y355835D01*
Y357146D01*
X48241Y357474D01*
X47257D01*
X50537D02*
X49881Y357146D01*
X49225Y356490D01*
Y355835D01*
X49553Y355506D01*
X50209D01*
X50537Y355835D01*
Y356163D01*
X50209Y356490D01*
X49225D01*
X51193Y357146D02*
X51521Y357474D01*
X52177D01*
X52505Y357146D01*
Y355835D01*
X52177Y355506D01*
X51521D01*
X51193Y355835D01*
Y357146D01*
X53161D02*
X53488Y357474D01*
X54144D01*
X54472Y357146D01*
Y355835D01*
X54144Y355506D01*
X53488D01*
X53161Y355835D01*
Y357146D01*
X55128Y355178D02*
X56440D01*
X58408Y357474D02*
X57752Y357146D01*
X57096Y356490D01*
Y355835D01*
X57424Y355506D01*
X58080D01*
X58408Y355835D01*
Y356163D01*
X58080Y356490D01*
X57096D01*
X47258Y298422D02*
Y296454D01*
X48242D01*
X48570Y296782D01*
Y298094D01*
X48242Y298422D01*
X47258D01*
X50538D02*
X49882Y298094D01*
X49226Y297438D01*
Y296782D01*
X49554Y296454D01*
X50210D01*
X50538Y296782D01*
Y297110D01*
X50210Y297438D01*
X49226D01*
X51193Y298094D02*
X51521Y298422D01*
X52177D01*
X52505Y298094D01*
Y296782D01*
X52177Y296454D01*
X51521D01*
X51193Y296782D01*
Y298094D01*
X53161D02*
X53489Y298422D01*
X54145D01*
X54473Y298094D01*
Y296782D01*
X54145Y296454D01*
X53489D01*
X53161Y296782D01*
Y298094D01*
X55129Y296126D02*
X56441D01*
X58409Y298422D02*
X57097D01*
Y297438D01*
X57753Y297766D01*
X58081D01*
X58409Y297438D01*
Y296782D01*
X58081Y296454D01*
X57425D01*
X57097Y296782D01*
X47258Y239367D02*
Y237399D01*
X48242D01*
X48570Y237727D01*
Y239039D01*
X48242Y239367D01*
X47258D01*
X50538D02*
X49882Y239039D01*
X49226Y238383D01*
Y237727D01*
X49554Y237399D01*
X50210D01*
X50538Y237727D01*
Y238055D01*
X50210Y238383D01*
X49226D01*
X51194Y239039D02*
X51522Y239367D01*
X52178D01*
X52506Y239039D01*
Y237727D01*
X52178Y237399D01*
X51522D01*
X51194Y237727D01*
Y239039D01*
X53162D02*
X53490Y239367D01*
X54146D01*
X54474Y239039D01*
Y237727D01*
X54146Y237399D01*
X53490D01*
X53162Y237727D01*
Y239039D01*
X55130Y237071D02*
X56441D01*
X58081Y237399D02*
Y239367D01*
X57098Y238383D01*
X58409D01*
X47258Y180311D02*
Y178344D01*
X48242D01*
X48570Y178672D01*
Y179983D01*
X48242Y180311D01*
X47258D01*
X50538D02*
X49882Y179983D01*
X49226Y179327D01*
Y178672D01*
X49554Y178344D01*
X50210D01*
X50538Y178672D01*
Y178999D01*
X50210Y179327D01*
X49226D01*
X51194Y179983D02*
X51522Y180311D01*
X52178D01*
X52506Y179983D01*
Y178672D01*
X52178Y178344D01*
X51522D01*
X51194Y178672D01*
Y179983D01*
X53162D02*
X53490Y180311D01*
X54146D01*
X54474Y179983D01*
Y178672D01*
X54146Y178344D01*
X53490D01*
X53162Y178672D01*
Y179983D01*
X55130Y178016D02*
X56441D01*
X57098Y179983D02*
X57425Y180311D01*
X58081D01*
X58409Y179983D01*
Y179656D01*
X58081Y179327D01*
X57753D01*
X58081D01*
X58409Y178999D01*
Y178672D01*
X58081Y178344D01*
X57425D01*
X57098Y178672D01*
X47258Y121256D02*
Y119289D01*
X48242D01*
X48570Y119616D01*
Y120928D01*
X48242Y121256D01*
X47258D01*
X50538D02*
X49882Y120928D01*
X49226Y120272D01*
Y119616D01*
X49554Y119289D01*
X50210D01*
X50538Y119616D01*
Y119944D01*
X50210Y120272D01*
X49226D01*
X51194Y120928D02*
X51522Y121256D01*
X52178D01*
X52506Y120928D01*
Y119616D01*
X52178Y119289D01*
X51522D01*
X51194Y119616D01*
Y120928D01*
X53162D02*
X53490Y121256D01*
X54146D01*
X54474Y120928D01*
Y119616D01*
X54146Y119289D01*
X53490D01*
X53162Y119616D01*
Y120928D01*
X55130Y118960D02*
X56441D01*
X58409Y119289D02*
X57098D01*
X58409Y120600D01*
Y120928D01*
X58081Y121256D01*
X57425D01*
X57098Y120928D01*
X47258Y62201D02*
Y60233D01*
X48242D01*
X48570Y60561D01*
Y61873D01*
X48242Y62201D01*
X47258D01*
X50538D02*
X49882Y61873D01*
X49226Y61217D01*
Y60561D01*
X49554Y60233D01*
X50210D01*
X50538Y60561D01*
Y60889D01*
X50210Y61217D01*
X49226D01*
X51193Y61873D02*
X51521Y62201D01*
X52177D01*
X52505Y61873D01*
Y60561D01*
X52177Y60233D01*
X51521D01*
X51193Y60561D01*
Y61873D01*
X53161D02*
X53489Y62201D01*
X54145D01*
X54473Y61873D01*
Y60561D01*
X54145Y60233D01*
X53489D01*
X53161Y60561D01*
Y61873D01*
X55129Y59905D02*
X56441D01*
X57097Y60233D02*
X57753D01*
X57425D01*
Y62201D01*
X57097Y61873D01*
X261154Y104330D02*
X260498D01*
X260826D01*
Y102690D01*
X260498Y102362D01*
X260171D01*
X259842Y102690D01*
X261810Y102362D02*
X262466D01*
X262138D01*
Y104330D01*
X261810Y104002D01*
X263450D02*
X263778Y104330D01*
X264434D01*
X264762Y104002D01*
Y102690D01*
X264434Y102362D01*
X263778D01*
X263450Y102690D01*
Y104002D01*
X265418Y104330D02*
X266730D01*
Y104002D01*
X265418Y102690D01*
Y102362D01*
X270006Y96990D02*
X271318D01*
X270662Y97646D02*
Y96334D01*
X271974Y97974D02*
Y97646D01*
X272630Y96990D01*
X273286Y97646D01*
Y97974D01*
X272630Y96990D02*
Y96006D01*
X277222Y97646D02*
X276894Y97974D01*
X276238D01*
X275910Y97646D01*
Y97318D01*
X276238Y96990D01*
X276894D01*
X277222Y96662D01*
Y96334D01*
X276894Y96006D01*
X276238D01*
X275910Y96334D01*
X278862Y97974D02*
X278206D01*
X277878Y97646D01*
Y96334D01*
X278206Y96006D01*
X278862D01*
X279190Y96334D01*
Y97646D01*
X278862Y97974D01*
X279846D02*
Y96006D01*
X281157D01*
X281814D02*
Y97318D01*
X282469Y97974D01*
X283125Y97318D01*
Y96006D01*
Y96990D01*
X281814D01*
X283781Y96006D02*
Y97974D01*
X284765D01*
X285093Y97646D01*
Y96990D01*
X284765Y96662D01*
X283781D01*
X284437D02*
X285093Y96006D01*
X287717D02*
Y97974D01*
X288701D01*
X289029Y97646D01*
Y96990D01*
X288701Y96662D01*
X287717D01*
X289685Y96006D02*
Y97318D01*
X290341Y97974D01*
X290997Y97318D01*
Y96006D01*
Y96990D01*
X289685D01*
X291653Y96006D02*
Y97974D01*
X292965Y96006D01*
Y97974D01*
X294933D02*
X293621D01*
Y96006D01*
X294933D01*
X293621Y96990D02*
X294277D01*
X295588Y97974D02*
Y96006D01*
X296900D01*
X261548Y458562D02*
X260892D01*
X261220D01*
Y456922D01*
X260892Y456595D01*
X260564D01*
X260236Y456922D01*
X262204Y456595D02*
X262860D01*
X262532D01*
Y458562D01*
X262204Y458234D01*
X263844D02*
X264172Y458562D01*
X264828D01*
X265156Y458234D01*
Y456922D01*
X264828Y456595D01*
X264172D01*
X263844Y456922D01*
Y458234D01*
X267124Y458562D02*
X266468Y458234D01*
X265812Y457578D01*
Y456922D01*
X266140Y456595D01*
X266796D01*
X267124Y456922D01*
Y457250D01*
X266796Y457578D01*
X265812D01*
X270400Y451390D02*
X271712D01*
X272368Y452374D02*
X273680Y450406D01*
Y452374D02*
X272368Y450406D01*
X277615Y452046D02*
X277288Y452374D01*
X276632D01*
X276304Y452046D01*
Y451718D01*
X276632Y451390D01*
X277288D01*
X277615Y451062D01*
Y450734D01*
X277288Y450406D01*
X276632D01*
X276304Y450734D01*
X279255Y452374D02*
X278599D01*
X278271Y452046D01*
Y450734D01*
X278599Y450406D01*
X279255D01*
X279583Y450734D01*
Y452046D01*
X279255Y452374D01*
X280239D02*
Y450406D01*
X281551D01*
X282207D02*
Y451718D01*
X282863Y452374D01*
X283519Y451718D01*
Y450406D01*
Y451390D01*
X282207D01*
X284175Y450406D02*
Y452374D01*
X285159D01*
X285487Y452046D01*
Y451390D01*
X285159Y451062D01*
X284175D01*
X284831D02*
X285487Y450406D01*
X288111D02*
Y452374D01*
X289095D01*
X289423Y452046D01*
Y451390D01*
X289095Y451062D01*
X288111D01*
X290079Y450406D02*
Y451718D01*
X290735Y452374D01*
X291390Y451718D01*
Y450406D01*
Y451390D01*
X290079D01*
X292046Y450406D02*
Y452374D01*
X293358Y450406D01*
Y452374D01*
X295326D02*
X294014D01*
Y450406D01*
X295326D01*
X294014Y451390D02*
X294670D01*
X295982Y452374D02*
Y450406D01*
X297294D01*
X5249Y99606D02*
X4593D01*
X4921D01*
Y97966D01*
X4593Y97638D01*
X4265D01*
X3937Y97966D01*
X5905Y97638D02*
X6561D01*
X6233D01*
Y99606D01*
X5905Y99278D01*
X7545D02*
X7873Y99606D01*
X8529D01*
X8857Y99278D01*
Y97966D01*
X8529Y97638D01*
X7873D01*
X7545Y97966D01*
Y99278D01*
X10825Y99606D02*
X9513D01*
Y98622D01*
X10169Y98950D01*
X10497D01*
X10825Y98622D01*
Y97966D01*
X10497Y97638D01*
X9841D01*
X9513Y97966D01*
X14106Y92459D02*
X15418D01*
X14762Y93115D02*
Y91803D01*
X16074Y93443D02*
X17386Y91475D01*
Y93443D02*
X16074Y91475D01*
X21322Y93115D02*
X20994Y93443D01*
X20338D01*
X20010Y93115D01*
Y92787D01*
X20338Y92459D01*
X20994D01*
X21322Y92131D01*
Y91803D01*
X20994Y91475D01*
X20338D01*
X20010Y91803D01*
X22962Y93443D02*
X22306D01*
X21978Y93115D01*
Y91803D01*
X22306Y91475D01*
X22962D01*
X23290Y91803D01*
Y93115D01*
X22962Y93443D01*
X23946D02*
Y91475D01*
X25258D01*
X25914D02*
Y92787D01*
X26569Y93443D01*
X27225Y92787D01*
Y91475D01*
Y92459D01*
X25914D01*
X27881Y91475D02*
Y93443D01*
X28865D01*
X29193Y93115D01*
Y92459D01*
X28865Y92131D01*
X27881D01*
X28537D02*
X29193Y91475D01*
X31817D02*
Y93443D01*
X32801D01*
X33129Y93115D01*
Y92459D01*
X32801Y92131D01*
X31817D01*
X33785Y91475D02*
Y92787D01*
X34441Y93443D01*
X35097Y92787D01*
Y91475D01*
Y92459D01*
X33785D01*
X35753Y91475D02*
Y93443D01*
X37065Y91475D01*
Y93443D01*
X39033D02*
X37721D01*
Y91475D01*
X39033D01*
X37721Y92459D02*
X38377D01*
X39689Y93443D02*
Y91475D01*
X41000D01*
X133398Y49901D02*
X132743D01*
X133071D01*
Y48261D01*
X132743Y47933D01*
X132415D01*
X132087Y48261D01*
X134055Y47933D02*
X134710D01*
X134382D01*
Y49901D01*
X134055Y49573D01*
X135694D02*
X136022Y49901D01*
X136678D01*
X137006Y49573D01*
Y48261D01*
X136678Y47933D01*
X136022D01*
X135694Y48261D01*
Y49573D01*
X138646Y47933D02*
Y49901D01*
X137662Y48917D01*
X138974D01*
X142028Y19980D02*
X143340D01*
X143995Y20964D02*
X145307D01*
Y20636D01*
X143995Y19324D01*
Y18996D01*
X145307D01*
X149243Y20636D02*
X148915Y20964D01*
X148259D01*
X147931Y20636D01*
Y20308D01*
X148259Y19980D01*
X148915D01*
X149243Y19652D01*
Y19324D01*
X148915Y18996D01*
X148259D01*
X147931Y19324D01*
X150883Y20964D02*
X150227D01*
X149899Y20636D01*
Y19324D01*
X150227Y18996D01*
X150883D01*
X151211Y19324D01*
Y20636D01*
X150883Y20964D01*
X151867D02*
Y18996D01*
X153179D01*
X153835D02*
Y20308D01*
X154491Y20964D01*
X155147Y20308D01*
Y18996D01*
Y19980D01*
X153835D01*
X155803Y18996D02*
Y20964D01*
X156787D01*
X157115Y20636D01*
Y19980D01*
X156787Y19652D01*
X155803D01*
X156458D02*
X157115Y18996D01*
X159738D02*
Y20964D01*
X160722D01*
X161050Y20636D01*
Y19980D01*
X160722Y19652D01*
X159738D01*
X161706Y18996D02*
Y20308D01*
X162362Y20964D01*
X163018Y20308D01*
Y18996D01*
Y19980D01*
X161706D01*
X163674Y18996D02*
Y20964D01*
X164986Y18996D01*
Y20964D01*
X166954D02*
X165642D01*
Y18996D01*
X166954D01*
X165642Y19980D02*
X166298D01*
X167610Y20964D02*
Y18996D01*
X168922D01*
X45997Y32775D02*
X45341D01*
X45669D01*
Y31135D01*
X45341Y30807D01*
X45013D01*
X44685Y31135D01*
X46653Y30807D02*
X47309D01*
X46981D01*
Y32775D01*
X46653Y32447D01*
X48293D02*
X48621Y32775D01*
X49277D01*
X49605Y32447D01*
Y31135D01*
X49277Y30807D01*
X48621D01*
X48293Y31135D01*
Y32447D01*
X50261D02*
X50589Y32775D01*
X51245D01*
X51573Y32447D01*
Y31135D01*
X51245Y30807D01*
X50589D01*
X50261Y31135D01*
Y32447D01*
X26247Y35039D02*
X25591Y35695D01*
Y36351D01*
X26247Y37007D01*
X27230Y36023D02*
X28542D01*
X27886Y36679D02*
Y35367D01*
X29198Y37007D02*
X30510Y35039D01*
Y37007D02*
X29198Y35039D01*
X31494Y34711D02*
X31822Y35039D01*
Y35367D01*
X31494D01*
Y35039D01*
X31822D01*
X31494Y34711D01*
X31166Y34383D01*
X33134Y36023D02*
X34446D01*
X33790Y36679D02*
Y35367D01*
X35102Y37007D02*
Y36679D01*
X35758Y36023D01*
X36414Y36679D01*
Y37007D01*
X35758Y36023D02*
Y35039D01*
X37070D02*
X37726Y35695D01*
Y36351D01*
X37070Y37007D01*
X41989Y36679D02*
X41661Y37007D01*
X41006D01*
X40677Y36679D01*
Y36351D01*
X41006Y36023D01*
X41661D01*
X41989Y35695D01*
Y35367D01*
X41661Y35039D01*
X41006D01*
X40677Y35367D01*
X43957Y37007D02*
X42645D01*
Y35039D01*
X43957D01*
X42645Y36023D02*
X43301D01*
X44613Y35039D02*
Y37007D01*
X45597D01*
X45925Y36679D01*
Y36023D01*
X45597Y35695D01*
X44613D01*
X49861Y36679D02*
X49533Y37007D01*
X48877D01*
X48549Y36679D01*
Y36351D01*
X48877Y36023D01*
X49533D01*
X49861Y35695D01*
Y35367D01*
X49533Y35039D01*
X48877D01*
X48549Y35367D01*
X50517Y37007D02*
Y35039D01*
X51173Y35695D01*
X51829Y35039D01*
Y37007D01*
X70308Y32873D02*
X69652D01*
X69980D01*
Y31234D01*
X69652Y30906D01*
X69324D01*
X68996Y31234D01*
X70964Y30906D02*
X71620D01*
X71292D01*
Y32873D01*
X70964Y32545D01*
X72604D02*
X72932Y32873D01*
X73588D01*
X73916Y32545D01*
Y31234D01*
X73588Y30906D01*
X72932D01*
X72604Y31234D01*
Y32545D01*
X74572Y30906D02*
X75228D01*
X74900D01*
Y32873D01*
X74572Y32545D01*
X56955Y35039D02*
X56299Y35695D01*
Y36351D01*
X56955Y37007D01*
X57939Y36023D02*
X59251D01*
X58595Y36679D02*
Y35367D01*
X59907Y37007D02*
X61219Y35039D01*
Y37007D02*
X59907Y35039D01*
X62203Y34711D02*
X62531Y35039D01*
Y35367D01*
X62203D01*
Y35039D01*
X62531D01*
X62203Y34711D01*
X61875Y34383D01*
X63843Y36023D02*
X65155D01*
X65811Y37007D02*
Y36679D01*
X66466Y36023D01*
X67123Y36679D01*
Y37007D01*
X66466Y36023D02*
Y35039D01*
X67778D02*
X68434Y35695D01*
Y36351D01*
X67778Y37007D01*
X72698Y36679D02*
X72370Y37007D01*
X71714D01*
X71386Y36679D01*
Y36351D01*
X71714Y36023D01*
X72370D01*
X72698Y35695D01*
Y35367D01*
X72370Y35039D01*
X71714D01*
X71386Y35367D01*
X74666Y37007D02*
X73354D01*
Y35039D01*
X74666D01*
X73354Y36023D02*
X74010D01*
X75322Y35039D02*
Y37007D01*
X76306D01*
X76634Y36679D01*
Y36023D01*
X76306Y35695D01*
X75322D01*
X80569Y36679D02*
X80242Y37007D01*
X79586D01*
X79258Y36679D01*
Y36351D01*
X79586Y36023D01*
X80242D01*
X80569Y35695D01*
Y35367D01*
X80242Y35039D01*
X79586D01*
X79258Y35367D01*
X81226Y37007D02*
Y35039D01*
X81881Y35695D01*
X82537Y35039D01*
Y37007D01*
X260466Y32677D02*
X259809D01*
X260138D01*
Y31037D01*
X259809Y30709D01*
X259482D01*
X259154Y31037D01*
X261121Y30709D02*
X261777D01*
X261449D01*
Y32677D01*
X261121Y32349D01*
X262761D02*
X263089Y32677D01*
X263745D01*
X264073Y32349D01*
Y31037D01*
X263745Y30709D01*
X263089D01*
X262761Y31037D01*
Y32349D01*
X264729D02*
X265057Y32677D01*
X265713D01*
X266041Y32349D01*
Y32021D01*
X265713Y31693D01*
X265385D01*
X265713D01*
X266041Y31365D01*
Y31037D01*
X265713Y30709D01*
X265057D01*
X264729Y31037D01*
X259317Y35827D02*
X258661Y36483D01*
Y37139D01*
X259317Y37795D01*
X260301Y36811D02*
X261613D01*
X262269Y37795D02*
X263581Y35827D01*
Y37795D02*
X262269Y35827D01*
X264565Y35499D02*
X264893Y35827D01*
Y36155D01*
X264565D01*
Y35827D01*
X264893D01*
X264565Y35499D01*
X264237Y35171D01*
X266205Y36811D02*
X267517D01*
X268173Y37795D02*
Y37467D01*
X268829Y36811D01*
X269485Y37467D01*
Y37795D01*
X268829Y36811D02*
Y35827D01*
X270141D02*
X270797Y36483D01*
Y37139D01*
X270141Y37795D01*
X275060Y37467D02*
X274732Y37795D01*
X274076D01*
X273748Y37467D01*
Y37139D01*
X274076Y36811D01*
X274732D01*
X275060Y36483D01*
Y36155D01*
X274732Y35827D01*
X274076D01*
X273748Y36155D01*
X277028Y37795D02*
X275716D01*
Y35827D01*
X277028D01*
X275716Y36811D02*
X276372D01*
X277684Y35827D02*
Y37795D01*
X278668D01*
X278996Y37467D01*
Y36811D01*
X278668Y36483D01*
X277684D01*
X282932Y37467D02*
X282604Y37795D01*
X281948D01*
X281620Y37467D01*
Y37139D01*
X281948Y36811D01*
X282604D01*
X282932Y36483D01*
Y36155D01*
X282604Y35827D01*
X281948D01*
X281620Y36155D01*
X283588Y37795D02*
Y35827D01*
X284244Y36483D01*
X284900Y35827D01*
Y37795D01*
X236745Y32677D02*
X236089D01*
X236417D01*
Y31037D01*
X236089Y30709D01*
X235761D01*
X235433Y31037D01*
X237401Y30709D02*
X238057D01*
X237729D01*
Y32677D01*
X237401Y32349D01*
X239041D02*
X239369Y32677D01*
X240025D01*
X240353Y32349D01*
Y31037D01*
X240025Y30709D01*
X239369D01*
X239041Y31037D01*
Y32349D01*
X242321Y30709D02*
X241009D01*
X242321Y32021D01*
Y32349D01*
X241993Y32677D01*
X241337D01*
X241009Y32349D01*
X228609Y35827D02*
X227953Y36483D01*
Y37139D01*
X228609Y37795D01*
X229593Y36811D02*
X230905D01*
X231560Y37795D02*
X232872Y35827D01*
Y37795D02*
X231560Y35827D01*
X233856Y35499D02*
X234184Y35827D01*
Y36155D01*
X233856D01*
Y35827D01*
X234184D01*
X233856Y35499D01*
X233528Y35171D01*
X235496Y36811D02*
X236808D01*
X236152Y37467D02*
Y36155D01*
X237464Y37795D02*
Y37467D01*
X238120Y36811D01*
X238776Y37467D01*
Y37795D01*
X238120Y36811D02*
Y35827D01*
X239432D02*
X240088Y36483D01*
Y37139D01*
X239432Y37795D01*
X244352Y37467D02*
X244024Y37795D01*
X243368D01*
X243040Y37467D01*
Y37139D01*
X243368Y36811D01*
X244024D01*
X244352Y36483D01*
Y36155D01*
X244024Y35827D01*
X243368D01*
X243040Y36155D01*
X246320Y37795D02*
X245008D01*
Y35827D01*
X246320D01*
X245008Y36811D02*
X245663D01*
X246975Y35827D02*
Y37795D01*
X247959D01*
X248287Y37467D01*
Y36811D01*
X247959Y36483D01*
X246975D01*
X252223Y37467D02*
X251895Y37795D01*
X251239D01*
X250911Y37467D01*
Y37139D01*
X251239Y36811D01*
X251895D01*
X252223Y36483D01*
Y36155D01*
X251895Y35827D01*
X251239D01*
X250911Y36155D01*
X252879Y37795D02*
Y35827D01*
X253535Y36483D01*
X254191Y35827D01*
Y37795D01*
X9102Y50731D02*
X11069D01*
Y49747D01*
X10741Y49419D01*
X10086D01*
X9758Y49747D01*
Y50731D01*
Y50075D02*
X9102Y49419D01*
Y48763D02*
Y48107D01*
Y48435D01*
X11069D01*
X10741Y48763D01*
Y47123D02*
X11069Y46795D01*
Y46139D01*
X10741Y45811D01*
X9430D01*
X9102Y46139D01*
Y46795D01*
X9430Y47123D01*
X10741D01*
X9102Y45155D02*
Y44499D01*
Y44827D01*
X11069D01*
X10741Y45155D01*
D16*
X250819Y156936D02*
X249819D01*
X250319D01*
Y154437D01*
X249819Y153937D01*
X249319D01*
X248819Y154437D01*
X253818Y153937D02*
X251818D01*
X253818Y155936D01*
Y156436D01*
X253318Y156936D01*
X252318D01*
X251818Y156436D01*
X254817D02*
X255317Y156936D01*
X256317D01*
X256817Y156436D01*
Y154437D01*
X256317Y153937D01*
X255317D01*
X254817Y154437D01*
Y156436D01*
X257816D02*
X258316Y156936D01*
X259316D01*
X259816Y156436D01*
Y154437D01*
X259316Y153937D01*
X258316D01*
X257816Y154437D01*
Y156436D01*
X260815Y153437D02*
X262815D01*
X265814Y153937D02*
X263814D01*
X265814Y155936D01*
Y156436D01*
X265314Y156936D01*
X264314D01*
X263814Y156436D01*
X250817Y215990D02*
X249817D01*
X250317D01*
Y213491D01*
X249817Y212991D01*
X249318D01*
X248818Y213491D01*
X253816Y212991D02*
X251817D01*
X253816Y214990D01*
Y215490D01*
X253316Y215990D01*
X252316D01*
X251817Y215490D01*
X254816D02*
X255315Y215990D01*
X256315D01*
X256815Y215490D01*
Y213491D01*
X256315Y212991D01*
X255315D01*
X254816Y213491D01*
Y215490D01*
X257815D02*
X258315Y215990D01*
X259314D01*
X259814Y215490D01*
Y213491D01*
X259314Y212991D01*
X258315D01*
X257815Y213491D01*
Y215490D01*
X260814Y212491D02*
X262813D01*
X263813Y215490D02*
X264313Y215990D01*
X265312D01*
X265812Y215490D01*
Y214990D01*
X265312Y214490D01*
X264812D01*
X265312D01*
X265812Y213990D01*
Y213491D01*
X265312Y212991D01*
X264313D01*
X263813Y213491D01*
X250817Y511264D02*
X249818D01*
X250318D01*
Y508765D01*
X249818Y508265D01*
X249318D01*
X248818Y508765D01*
X253816Y508265D02*
X251817D01*
X253816Y510265D01*
Y510765D01*
X253317Y511264D01*
X252317D01*
X251817Y510765D01*
X254816D02*
X255316Y511264D01*
X256316D01*
X256816Y510765D01*
Y508765D01*
X256316Y508265D01*
X255316D01*
X254816Y508765D01*
Y510765D01*
X257815D02*
X258315Y511264D01*
X259315D01*
X259815Y510765D01*
Y508765D01*
X259315Y508265D01*
X258315D01*
X257815Y508765D01*
Y510765D01*
X260814Y507765D02*
X262813D01*
X263813Y510765D02*
X264313Y511264D01*
X265313D01*
X265813Y510765D01*
Y510265D01*
X265313Y509765D01*
X265813Y509265D01*
Y508765D01*
X265313Y508265D01*
X264313D01*
X263813Y508765D01*
Y509265D01*
X264313Y509765D01*
X263813Y510265D01*
Y510765D01*
X264313Y509765D02*
X265313D01*
X250817Y452209D02*
X249818D01*
X250318D01*
Y449710D01*
X249818Y449210D01*
X249318D01*
X248818Y449710D01*
X253816Y449210D02*
X251817D01*
X253816Y451209D01*
Y451709D01*
X253317Y452209D01*
X252317D01*
X251817Y451709D01*
X254816D02*
X255316Y452209D01*
X256316D01*
X256816Y451709D01*
Y449710D01*
X256316Y449210D01*
X255316D01*
X254816Y449710D01*
Y451709D01*
X257815D02*
X258315Y452209D01*
X259315D01*
X259815Y451709D01*
Y449710D01*
X259315Y449210D01*
X258315D01*
X257815Y449710D01*
Y451709D01*
X260814Y448710D02*
X262813D01*
X263813Y452209D02*
X265813D01*
Y451709D01*
X263813Y449710D01*
Y449210D01*
X250817Y393154D02*
X249818D01*
X250318D01*
Y390655D01*
X249818Y390155D01*
X249318D01*
X248818Y390655D01*
X253816Y390155D02*
X251817D01*
X253816Y392154D01*
Y392654D01*
X253317Y393154D01*
X252317D01*
X251817Y392654D01*
X254816D02*
X255316Y393154D01*
X256316D01*
X256816Y392654D01*
Y390655D01*
X256316Y390155D01*
X255316D01*
X254816Y390655D01*
Y392654D01*
X257815D02*
X258315Y393154D01*
X259315D01*
X259815Y392654D01*
Y390655D01*
X259315Y390155D01*
X258315D01*
X257815Y390655D01*
Y392654D01*
X260814Y389655D02*
X262813D01*
X265813Y393154D02*
X264813Y392654D01*
X263813Y391655D01*
Y390655D01*
X264313Y390155D01*
X265313D01*
X265813Y390655D01*
Y391155D01*
X265313Y391655D01*
X263813D01*
X250818Y334101D02*
X249819D01*
X250318D01*
Y331602D01*
X249819Y331102D01*
X249319D01*
X248819Y331602D01*
X253817Y331102D02*
X251818D01*
X253817Y333102D01*
Y333602D01*
X253317Y334101D01*
X252318D01*
X251818Y333602D01*
X254817D02*
X255317Y334101D01*
X256316D01*
X256816Y333602D01*
Y331602D01*
X256316Y331102D01*
X255317D01*
X254817Y331602D01*
Y333602D01*
X257816D02*
X258316Y334101D01*
X259315D01*
X259815Y333602D01*
Y331602D01*
X259315Y331102D01*
X258316D01*
X257816Y331602D01*
Y333602D01*
X260815Y330603D02*
X262814D01*
X265813Y334101D02*
X263814D01*
Y332602D01*
X264814Y333102D01*
X265314D01*
X265813Y332602D01*
Y331602D01*
X265314Y331102D01*
X264314D01*
X263814Y331602D01*
X250819Y275046D02*
X249819D01*
X250319D01*
Y272547D01*
X249819Y272047D01*
X249319D01*
X248819Y272547D01*
X253818Y272047D02*
X251818D01*
X253818Y274047D01*
Y274546D01*
X253318Y275046D01*
X252318D01*
X251818Y274546D01*
X254817D02*
X255317Y275046D01*
X256317D01*
X256817Y274546D01*
Y272547D01*
X256317Y272047D01*
X255317D01*
X254817Y272547D01*
Y274546D01*
X257816D02*
X258316Y275046D01*
X259316D01*
X259816Y274546D01*
Y272547D01*
X259316Y272047D01*
X258316D01*
X257816Y272547D01*
Y274546D01*
X260815Y271547D02*
X262815D01*
X265314Y272047D02*
Y275046D01*
X263814Y273547D01*
X265814D01*
X250818Y97881D02*
X249819D01*
X250318D01*
Y95382D01*
X249819Y94882D01*
X249319D01*
X248819Y95382D01*
X253817Y94882D02*
X251818D01*
X253817Y96881D01*
Y97381D01*
X253317Y97881D01*
X252318D01*
X251818Y97381D01*
X254817D02*
X255317Y97881D01*
X256316D01*
X256816Y97381D01*
Y95382D01*
X256316Y94882D01*
X255317D01*
X254817Y95382D01*
Y97381D01*
X257816D02*
X258316Y97881D01*
X259315D01*
X259815Y97381D01*
Y95382D01*
X259315Y94882D01*
X258316D01*
X257816Y95382D01*
Y97381D01*
X260815Y94382D02*
X262814D01*
X263814Y94882D02*
X264814D01*
X264314D01*
Y97881D01*
X263814Y97381D01*
M02*
