G04*
G04 #@! TF.GenerationSoftware,Altium Limited,Altium Designer,19.1.6 (110)*
G04*
G04 Layer_Color=32768*
%FSLAX25Y25*%
%MOIN*%
G70*
G01*
G75*
%ADD11C,0.01000*%
%ADD12C,0.00600*%
D11*
X0Y572441D02*
X6000Y574441D01*
X0Y572441D02*
X6000Y570441D01*
X305024D02*
X311024Y572441D01*
X305024Y574441D02*
X311024Y572441D01*
X0D02*
X138816D01*
X169007D02*
X311024D01*
X0Y542445D02*
Y573441D01*
X311024Y541551D02*
Y573441D01*
X332283Y78740D02*
X334283Y72740D01*
X330283D02*
X332283Y78740D01*
X330283Y6000D02*
X332283Y0D01*
X334283Y6000D01*
X332283Y52866D02*
Y78740D01*
Y0D02*
Y22674D01*
X260630Y78740D02*
X333283D01*
X311024Y0D02*
X333283D01*
X-21685Y6000D02*
X-19685Y0D01*
X-17685Y6000D01*
X-19685Y543307D02*
X-17685Y537307D01*
X-21685D02*
X-19685Y543307D01*
Y0D02*
Y252459D01*
Y287648D02*
Y543307D01*
X-20685Y0D02*
X0D01*
X-20685Y543307D02*
X1362D01*
X330677Y498124D02*
X332677Y492124D01*
X334677Y498124D01*
X332677Y543307D02*
X334677Y537307D01*
X330677D02*
X332677Y543307D01*
Y492124D02*
Y501519D01*
Y530711D02*
Y543307D01*
X260630Y492124D02*
X333677D01*
X3362Y543307D02*
X333677D01*
X229331Y-15748D02*
X235331Y-13748D01*
X229331Y-15748D02*
X235331Y-17748D01*
X305024D02*
X311024Y-15748D01*
X305024Y-13748D02*
X311024Y-15748D01*
X229331D02*
X253482D01*
X283673D02*
X311024D01*
X229331Y-16748D02*
Y28937D01*
X311024Y-16748D02*
Y0D01*
X75693Y-17748D02*
X81693Y-15748D01*
X75693Y-13748D02*
X81693Y-15748D01*
X2362D02*
X8362Y-13748D01*
X2362Y-15748D02*
X8362Y-17748D01*
X55023Y-15748D02*
X81693D01*
X2362D02*
X25832D01*
X81693Y-16748D02*
Y28937D01*
X2362Y-16748D02*
Y-1000D01*
X330677Y439069D02*
X332677Y433069D01*
X334677Y439069D01*
X332677Y492124D02*
X334677Y486124D01*
X330677D02*
X332677Y492124D01*
Y433069D02*
Y446400D01*
Y475592D02*
Y492124D01*
X260630Y433069D02*
X333677D01*
X260630Y492124D02*
X333677D01*
X330677Y380013D02*
X332677Y374013D01*
X334677Y380013D01*
X332677Y433069D02*
X334677Y427069D01*
X330677D02*
X332677Y433069D01*
Y374013D02*
Y387345D01*
Y416537D02*
Y433069D01*
X260630Y374013D02*
X333677D01*
X260630Y433069D02*
X333677D01*
X330677Y320961D02*
X332677Y314961D01*
X334677Y320961D01*
X332677Y374013D02*
X334677Y368013D01*
X330677D02*
X332677Y374013D01*
Y314961D02*
Y328291D01*
Y357483D02*
Y374013D01*
X260630Y314961D02*
X333677D01*
X260630Y374013D02*
X333677D01*
X330283Y261906D02*
X332283Y255906D01*
X334283Y261906D01*
X332283Y314961D02*
X334283Y308961D01*
X330283D02*
X332283Y314961D01*
Y255906D02*
Y269237D01*
Y298429D02*
Y314961D01*
X260631Y255906D02*
X333283D01*
X260630Y314961D02*
X333283D01*
X330283Y202849D02*
X332283Y196849D01*
X334283Y202849D01*
X332283Y255906D02*
X334283Y249905D01*
X330283D02*
X332283Y255906D01*
Y196849D02*
Y210181D01*
Y239373D02*
Y255906D01*
X260629Y196849D02*
X333283D01*
X260631Y255906D02*
X333283D01*
X330283Y143795D02*
X332283Y137795D01*
X334283Y143795D01*
X332283Y196849D02*
X334283Y190849D01*
X330283D02*
X332283Y196849D01*
Y137795D02*
Y151126D01*
Y180318D02*
Y196849D01*
X260631Y137795D02*
X333283D01*
X260629Y196849D02*
X333283D01*
X330283Y84740D02*
X332283Y78740D01*
X334283Y84740D01*
X332283Y137795D02*
X334283Y131795D01*
X330283D02*
X332283Y137795D01*
Y78740D02*
Y92072D01*
Y121264D02*
Y137795D01*
X260630Y78740D02*
X333283D01*
X260631Y137795D02*
X333283D01*
D12*
X140416Y574840D02*
X144415D01*
Y573840D01*
X140416Y569842D01*
Y568842D01*
X146414Y569842D02*
X147414Y568842D01*
X149413D01*
X150413Y569842D01*
Y573840D01*
X149413Y574840D01*
X147414D01*
X146414Y573840D01*
Y572841D01*
X147414Y571841D01*
X150413D01*
X152412Y568842D02*
Y569842D01*
X153412D01*
Y568842D01*
X152412D01*
X157411Y573840D02*
X158410Y574840D01*
X160410D01*
X161409Y573840D01*
Y569842D01*
X160410Y568842D01*
X158410D01*
X157411Y569842D01*
Y573840D01*
X163409D02*
X164408Y574840D01*
X166408D01*
X167407Y573840D01*
Y569842D01*
X166408Y568842D01*
X164408D01*
X163409Y569842D01*
Y573840D01*
X335882Y28273D02*
Y24274D01*
X331884Y28273D01*
X330884D01*
X329884Y27273D01*
Y25274D01*
X330884Y24274D01*
Y30272D02*
X329884Y31272D01*
Y33272D01*
X330884Y34271D01*
X334883D01*
X335882Y33272D01*
Y31272D01*
X334883Y30272D01*
X330884D01*
X335882Y36271D02*
X334883D01*
Y37270D01*
X335882D01*
Y36271D01*
X330884Y41269D02*
X329884Y42269D01*
Y44268D01*
X330884Y45268D01*
X334883D01*
X335882Y44268D01*
Y42269D01*
X334883Y41269D01*
X330884D01*
Y47267D02*
X329884Y48267D01*
Y50266D01*
X330884Y51266D01*
X334883D01*
X335882Y50266D01*
Y48267D01*
X334883Y47267D01*
X330884D01*
X-16086Y254059D02*
Y256058D01*
Y255058D01*
X-22084D01*
X-21084Y254059D01*
Y259057D02*
X-22084Y260057D01*
Y262056D01*
X-21084Y263056D01*
X-20085D01*
X-19085Y262056D01*
Y261056D01*
Y262056D01*
X-18085Y263056D01*
X-17086D01*
X-16086Y262056D01*
Y260057D01*
X-17086Y259057D01*
X-21084Y265055D02*
X-22084Y266055D01*
Y268054D01*
X-21084Y269054D01*
X-20085D01*
X-19085Y268054D01*
X-18085Y269054D01*
X-17086D01*
X-16086Y268054D01*
Y266055D01*
X-17086Y265055D01*
X-18085D01*
X-19085Y266055D01*
X-20085Y265055D01*
X-21084D01*
X-19085Y266055D02*
Y268054D01*
X-16086Y271053D02*
X-17086D01*
Y272053D01*
X-16086D01*
Y271053D01*
X-21084Y276052D02*
X-22084Y277051D01*
Y279051D01*
X-21084Y280050D01*
X-17086D01*
X-16086Y279051D01*
Y277051D01*
X-17086Y276052D01*
X-21084D01*
Y282050D02*
X-22084Y283049D01*
Y285049D01*
X-21084Y286048D01*
X-17086D01*
X-16086Y285049D01*
Y283049D01*
X-17086Y282050D01*
X-21084D01*
X336276Y503120D02*
Y505119D01*
Y504119D01*
X330278D01*
X331278Y503120D01*
Y508118D02*
X330278Y509118D01*
Y511117D01*
X331278Y512117D01*
X332277D01*
X333277Y511117D01*
Y510117D01*
Y511117D01*
X334277Y512117D01*
X335277D01*
X336276Y511117D01*
Y509118D01*
X335277Y508118D01*
X336276Y514116D02*
X335277D01*
Y515116D01*
X336276D01*
Y514116D01*
X331278Y519114D02*
X330278Y520114D01*
Y522113D01*
X331278Y523113D01*
X335277D01*
X336276Y522113D01*
Y520114D01*
X335277Y519114D01*
X331278D01*
Y525112D02*
X330278Y526112D01*
Y528111D01*
X331278Y529111D01*
X335277D01*
X336276Y528111D01*
Y526112D01*
X335277Y525112D01*
X331278D01*
X259080Y-19347D02*
X255082D01*
X259080Y-15348D01*
Y-14349D01*
X258081Y-13349D01*
X256081D01*
X255082Y-14349D01*
X261080D02*
X262079Y-13349D01*
X264079D01*
X265078Y-14349D01*
Y-18347D01*
X264079Y-19347D01*
X262079D01*
X261080Y-18347D01*
Y-14349D01*
X267078Y-19347D02*
Y-18347D01*
X268077D01*
Y-19347D01*
X267078D01*
X272076Y-13349D02*
X276075D01*
Y-14349D01*
X272076Y-18347D01*
Y-19347D01*
X282073Y-13349D02*
X278074D01*
Y-16348D01*
X280073Y-15348D01*
X281073D01*
X282073Y-16348D01*
Y-18347D01*
X281073Y-19347D01*
X279074D01*
X278074Y-18347D01*
X31431Y-19347D02*
X27432D01*
X31431Y-15348D01*
Y-14349D01*
X30431Y-13349D01*
X28431D01*
X27432Y-14349D01*
X33430D02*
X34429Y-13349D01*
X36429D01*
X37429Y-14349D01*
Y-18347D01*
X36429Y-19347D01*
X34429D01*
X33430Y-18347D01*
Y-14349D01*
X39428Y-19347D02*
Y-18347D01*
X40428D01*
Y-19347D01*
X39428D01*
X44426D02*
X46426D01*
X45426D01*
Y-13349D01*
X44426Y-14349D01*
X53423Y-13349D02*
X49425D01*
Y-16348D01*
X51424Y-15348D01*
X52424D01*
X53423Y-16348D01*
Y-18347D01*
X52424Y-19347D01*
X50424D01*
X49425Y-18347D01*
X336276Y448000D02*
Y450000D01*
Y449000D01*
X330278D01*
X331278Y448000D01*
X330278Y456997D02*
Y452999D01*
X333277D01*
X332277Y454998D01*
Y455998D01*
X333277Y456997D01*
X335277D01*
X336276Y455998D01*
Y453998D01*
X335277Y452999D01*
X336276Y458997D02*
X335277D01*
Y459996D01*
X336276D01*
Y458997D01*
X331278Y463995D02*
X330278Y464995D01*
Y466994D01*
X331278Y467994D01*
X335277D01*
X336276Y466994D01*
Y464995D01*
X335277Y463995D01*
X331278D01*
Y469993D02*
X330278Y470993D01*
Y472992D01*
X331278Y473992D01*
X335277D01*
X336276Y472992D01*
Y470993D01*
X335277Y469993D01*
X331278D01*
X336276Y388945D02*
Y390944D01*
Y389945D01*
X330278D01*
X331278Y388945D01*
X330278Y397942D02*
Y393944D01*
X333277D01*
X332277Y395943D01*
Y396942D01*
X333277Y397942D01*
X335277D01*
X336276Y396942D01*
Y394943D01*
X335277Y393944D01*
X336276Y399941D02*
X335277D01*
Y400941D01*
X336276D01*
Y399941D01*
X331278Y404940D02*
X330278Y405940D01*
Y407939D01*
X331278Y408939D01*
X335277D01*
X336276Y407939D01*
Y405940D01*
X335277Y404940D01*
X331278D01*
Y410938D02*
X330278Y411938D01*
Y413937D01*
X331278Y414937D01*
X335277D01*
X336276Y413937D01*
Y411938D01*
X335277Y410938D01*
X331278D01*
X336276Y329891D02*
Y331891D01*
Y330891D01*
X330278D01*
X331278Y329891D01*
X330278Y338888D02*
Y334890D01*
X333277D01*
X332277Y336889D01*
Y337889D01*
X333277Y338888D01*
X335277D01*
X336276Y337889D01*
Y335889D01*
X335277Y334890D01*
X336276Y340888D02*
X335277D01*
Y341887D01*
X336276D01*
Y340888D01*
X331278Y345886D02*
X330278Y346886D01*
Y348885D01*
X331278Y349885D01*
X335277D01*
X336276Y348885D01*
Y346886D01*
X335277Y345886D01*
X331278D01*
Y351884D02*
X330278Y352884D01*
Y354883D01*
X331278Y355883D01*
X335277D01*
X336276Y354883D01*
Y352884D01*
X335277Y351884D01*
X331278D01*
X335882Y270837D02*
Y272837D01*
Y271837D01*
X329884D01*
X330884Y270837D01*
X329884Y279834D02*
Y275836D01*
X332884D01*
X331884Y277835D01*
Y278835D01*
X332884Y279834D01*
X334883D01*
X335882Y278835D01*
Y276835D01*
X334883Y275836D01*
X335882Y281834D02*
X334883D01*
Y282833D01*
X335882D01*
Y281834D01*
X330884Y286832D02*
X329884Y287832D01*
Y289831D01*
X330884Y290831D01*
X334883D01*
X335882Y289831D01*
Y287832D01*
X334883Y286832D01*
X330884D01*
Y292830D02*
X329884Y293830D01*
Y295829D01*
X330884Y296829D01*
X334883D01*
X335882Y295829D01*
Y293830D01*
X334883Y292830D01*
X330884D01*
X335882Y211782D02*
Y213781D01*
Y212781D01*
X329884D01*
X330884Y211782D01*
X329884Y220779D02*
Y216780D01*
X332884D01*
X331884Y218779D01*
Y219779D01*
X332884Y220779D01*
X334883D01*
X335882Y219779D01*
Y217780D01*
X334883Y216780D01*
X335882Y222778D02*
X334883D01*
Y223778D01*
X335882D01*
Y222778D01*
X330884Y227776D02*
X329884Y228776D01*
Y230775D01*
X330884Y231775D01*
X334883D01*
X335882Y230775D01*
Y228776D01*
X334883Y227776D01*
X330884D01*
Y233774D02*
X329884Y234774D01*
Y236773D01*
X330884Y237773D01*
X334883D01*
X335882Y236773D01*
Y234774D01*
X334883Y233774D01*
X330884D01*
X335882Y152726D02*
Y154726D01*
Y153726D01*
X329884D01*
X330884Y152726D01*
X329884Y161723D02*
Y157725D01*
X332884D01*
X331884Y159724D01*
Y160724D01*
X332884Y161723D01*
X334883D01*
X335882Y160724D01*
Y158724D01*
X334883Y157725D01*
X335882Y163723D02*
X334883D01*
Y164723D01*
X335882D01*
Y163723D01*
X330884Y168721D02*
X329884Y169721D01*
Y171720D01*
X330884Y172720D01*
X334883D01*
X335882Y171720D01*
Y169721D01*
X334883Y168721D01*
X330884D01*
Y174719D02*
X329884Y175719D01*
Y177718D01*
X330884Y178718D01*
X334883D01*
X335882Y177718D01*
Y175719D01*
X334883Y174719D01*
X330884D01*
X335882Y93672D02*
Y95671D01*
Y94672D01*
X329884D01*
X330884Y93672D01*
X329884Y102669D02*
Y98670D01*
X332884D01*
X331884Y100670D01*
Y101669D01*
X332884Y102669D01*
X334883D01*
X335882Y101669D01*
Y99670D01*
X334883Y98670D01*
X335882Y104668D02*
X334883D01*
Y105668D01*
X335882D01*
Y104668D01*
X330884Y109667D02*
X329884Y110666D01*
Y112666D01*
X330884Y113665D01*
X334883D01*
X335882Y112666D01*
Y110666D01*
X334883Y109667D01*
X330884D01*
Y115665D02*
X329884Y116665D01*
Y118664D01*
X330884Y119664D01*
X334883D01*
X335882Y118664D01*
Y116665D01*
X334883Y115665D01*
X330884D01*
M02*
