G04*
G04 #@! TF.GenerationSoftware,Altium Limited,Altium Designer,19.1.6 (110)*
G04*
G04 Layer_Color=16711935*
%FSLAX25Y25*%
%MOIN*%
G70*
G01*
G75*
%ADD41C,0.00800*%
%ADD42C,0.06706*%
%ADD43C,0.04737*%
%ADD45C,0.06890*%
%ADD54R,0.01981X0.03556*%
%ADD55R,0.03359X0.03556*%
D41*
X260630Y78740D02*
D03*
X50394Y72835D02*
D03*
X50394Y250000D02*
D03*
X260631Y255906D02*
D03*
X260630Y314961D02*
D03*
X50394Y309055D02*
D03*
X50393Y368108D02*
D03*
X260630Y374013D02*
D03*
Y433069D02*
D03*
X50393Y427163D02*
D03*
Y486218D02*
D03*
X260630Y492124D02*
D03*
X260629Y196849D02*
D03*
X50393Y190944D02*
D03*
X50394Y131890D02*
D03*
X260631Y137795D02*
D03*
X81693Y23622D02*
D03*
X146653D02*
D03*
X229331D02*
D03*
X164370D02*
D03*
X253150Y24311D02*
D03*
Y11024D02*
D03*
X276772D02*
D03*
Y24311D02*
D03*
X57874Y11122D02*
D03*
Y24409D02*
D03*
X34252D02*
D03*
Y11122D02*
D03*
X44094Y115157D02*
D03*
X11024D02*
D03*
X267323Y474016D02*
D03*
X300394D02*
D03*
X300000Y119685D02*
D03*
X266929D02*
D03*
X138976Y43307D02*
D03*
X172047D02*
D03*
D42*
X32559Y84606D02*
D03*
X32560Y261772D02*
D03*
X32559Y320827D02*
D03*
X32559Y379879D02*
D03*
Y438935D02*
D03*
Y497990D02*
D03*
X32558Y202715D02*
D03*
X32560Y143661D02*
D03*
D43*
X40040Y74410D02*
D03*
X25079D02*
D03*
X10119D02*
D03*
X15630Y83073D02*
D03*
X15631Y260238D02*
D03*
X10119Y251575D02*
D03*
X25080D02*
D03*
X40040D02*
D03*
X40040Y310630D02*
D03*
X25079D02*
D03*
X10119D02*
D03*
X15630Y319293D02*
D03*
X15630Y378346D02*
D03*
X10118Y369683D02*
D03*
X25078D02*
D03*
X40039D02*
D03*
Y428738D02*
D03*
X25078D02*
D03*
X10118D02*
D03*
X15630Y437401D02*
D03*
Y496456D02*
D03*
X10118Y487793D02*
D03*
X25078D02*
D03*
X40039D02*
D03*
X40038Y192518D02*
D03*
X25078D02*
D03*
X10117D02*
D03*
X15629Y201181D02*
D03*
X15631Y142128D02*
D03*
X10119Y133465D02*
D03*
X25080D02*
D03*
X40040D02*
D03*
D45*
X36496Y64213D02*
D03*
X36497Y123268D02*
D03*
Y182323D02*
D03*
Y241378D02*
D03*
X36496Y300433D02*
D03*
X36496Y359486D02*
D03*
Y418541D02*
D03*
Y477596D02*
D03*
D54*
X117126Y32677D02*
D03*
X115157D02*
D03*
X121063D02*
D03*
X123031D02*
D03*
X113189D02*
D03*
X111221D02*
D03*
X107283D02*
D03*
X109252D02*
D03*
X105315D02*
D03*
X103346D02*
D03*
X99409D02*
D03*
X101378D02*
D03*
X130905D02*
D03*
X128937D02*
D03*
X125000D02*
D03*
X126969D02*
D03*
X138779D02*
D03*
X136811D02*
D03*
X132874D02*
D03*
X134843D02*
D03*
X140748D02*
D03*
X142717D02*
D03*
X95472D02*
D03*
X97441D02*
D03*
X119095D02*
D03*
X85630D02*
D03*
X89567D02*
D03*
X87598D02*
D03*
X91535D02*
D03*
X93504D02*
D03*
X134843Y14567D02*
D03*
X136811D02*
D03*
X140748D02*
D03*
X138779D02*
D03*
X142717D02*
D03*
X109252D02*
D03*
X130905D02*
D03*
X132874D02*
D03*
X85630D02*
D03*
X87598D02*
D03*
X93504D02*
D03*
X95472D02*
D03*
X91535D02*
D03*
X89567D02*
D03*
X101378D02*
D03*
X103346D02*
D03*
X99409D02*
D03*
X97441D02*
D03*
X126969D02*
D03*
X128937D02*
D03*
X125000D02*
D03*
X123031D02*
D03*
X119095D02*
D03*
X121063D02*
D03*
X117126D02*
D03*
X115157D02*
D03*
X105315D02*
D03*
X107283D02*
D03*
X113189D02*
D03*
X111221D02*
D03*
X193898D02*
D03*
X195866D02*
D03*
X189961D02*
D03*
X187992D02*
D03*
X197835D02*
D03*
X199803D02*
D03*
X203740D02*
D03*
X201772D02*
D03*
X205709D02*
D03*
X207677D02*
D03*
X211614D02*
D03*
X209646D02*
D03*
X180118D02*
D03*
X182087D02*
D03*
X186024D02*
D03*
X184055D02*
D03*
X172244D02*
D03*
X174213D02*
D03*
X178150D02*
D03*
X176181D02*
D03*
X170276D02*
D03*
X168307D02*
D03*
X215551D02*
D03*
X213583D02*
D03*
X191929D02*
D03*
X225394D02*
D03*
X221457D02*
D03*
X223425D02*
D03*
X219488D02*
D03*
X217520D02*
D03*
X176181Y32677D02*
D03*
X174213D02*
D03*
X170276D02*
D03*
X172244D02*
D03*
X168307D02*
D03*
X201772D02*
D03*
X180118D02*
D03*
X178150D02*
D03*
X225394D02*
D03*
X223425D02*
D03*
X217520D02*
D03*
X215551D02*
D03*
X219488D02*
D03*
X221457D02*
D03*
X209646D02*
D03*
X207677D02*
D03*
X211614D02*
D03*
X213583D02*
D03*
X184055D02*
D03*
X182087D02*
D03*
X186024D02*
D03*
X187992D02*
D03*
X191929D02*
D03*
X189961D02*
D03*
X193898D02*
D03*
X195866D02*
D03*
X205709D02*
D03*
X203740D02*
D03*
X197835D02*
D03*
X199803D02*
D03*
D55*
X19193Y37205D02*
D03*
X30807Y29724D02*
D03*
X19193D02*
D03*
X30807Y37205D02*
D03*
X291831D02*
D03*
X280217Y29724D02*
D03*
X291831D02*
D03*
X280217Y37205D02*
D03*
M02*
