G04 #@! TF.GenerationSoftware,KiCad,Pcbnew,(5.1.9)-1*
G04 #@! TF.CreationDate,2021-12-19T15:27:34-05:00*
G04 #@! TF.ProjectId,backplane-sepsw,6261636b-706c-4616-9e65-2d7365707377,rev?*
G04 #@! TF.SameCoordinates,Original*
G04 #@! TF.FileFunction,Legend,Bot*
G04 #@! TF.FilePolarity,Positive*
%FSLAX46Y46*%
G04 Gerber Fmt 4.6, Leading zero omitted, Abs format (unit mm)*
G04 Created by KiCad (PCBNEW (5.1.9)-1) date 2021-12-19 15:27:34*
%MOMM*%
%LPD*%
G01*
G04 APERTURE LIST*
%ADD10C,0.200000*%
%ADD11C,0.150000*%
G04 APERTURE END LIST*
D10*
X135970000Y-91750000D02*
X137760000Y-91750000D01*
X135970000Y-91750000D02*
X135970000Y-97230000D01*
X135970000Y-97230000D02*
X136980000Y-98250000D01*
X136980000Y-98250000D02*
X137760000Y-98250000D01*
X154240000Y-98250000D02*
X155020000Y-98250000D01*
X155020000Y-98250000D02*
X156030000Y-97230000D01*
X156030000Y-97230000D02*
X156030000Y-91750000D01*
X156030000Y-91750000D02*
X154240000Y-91750000D01*
X138300000Y-90800000D02*
G75*
G03*
X138300000Y-90800000I-100000J0D01*
G01*
X114970000Y-91750000D02*
X116760000Y-91750000D01*
X114970000Y-91750000D02*
X114970000Y-97230000D01*
X114970000Y-97230000D02*
X115980000Y-98250000D01*
X115980000Y-98250000D02*
X116760000Y-98250000D01*
X133240000Y-98250000D02*
X134020000Y-98250000D01*
X134020000Y-98250000D02*
X135030000Y-97230000D01*
X135030000Y-97230000D02*
X135030000Y-91750000D01*
X135030000Y-91750000D02*
X133240000Y-91750000D01*
X117300000Y-90800000D02*
G75*
G03*
X117300000Y-90800000I-100000J0D01*
G01*
D11*
X136183333Y-98502380D02*
X136183333Y-99216666D01*
X136230952Y-99359523D01*
X136326190Y-99454761D01*
X136469047Y-99502380D01*
X136564285Y-99502380D01*
X135754761Y-98597619D02*
X135707142Y-98550000D01*
X135611904Y-98502380D01*
X135373809Y-98502380D01*
X135278571Y-98550000D01*
X135230952Y-98597619D01*
X135183333Y-98692857D01*
X135183333Y-98788095D01*
X135230952Y-98930952D01*
X135802380Y-99502380D01*
X135183333Y-99502380D01*
X115558333Y-98402380D02*
X115558333Y-99116666D01*
X115605952Y-99259523D01*
X115701190Y-99354761D01*
X115844047Y-99402380D01*
X115939285Y-99402380D01*
X114558333Y-99402380D02*
X115129761Y-99402380D01*
X114844047Y-99402380D02*
X114844047Y-98402380D01*
X114939285Y-98545238D01*
X115034523Y-98640476D01*
X115129761Y-98688095D01*
M02*
