M48
;Layer_Color=9474304
;FILE_FORMAT=2:5
INCH,LZ
;TYPE=PLATED
T1F00S00C0.00787
T2F00S00C0.06102
;TYPE=NON_PLATED
T3F00S00C0.03543
T4F00S00C0.03937
T5F00S00C0.05000
T6F00S00C0.05906
T7F00S00C0.06890
T8F00S00C0.09843
T9F00S00C0.12500
%
T01
X0090945Y-0283858
X-0090847Y-0283661
X-0134744Y-0080807
X0134744Y-0080709
X0133662Y0029724
X0127363Y0029724
X0122958Y0037229
X0101181Y0015157
X0135729Y0100295
X0096063Y0088583
X0089764
X0083465
X0077166
X0070867
X0064567
X0058268
X0051969
X004567
X0039371
X0033071
X0026772
X0020473
X0014174
X0017324Y0082284
X0023623
X0029922
X0036222
X0042521
X004882
X0055119
X0061418
X0067718
X0074017
X0080316
X0086615
X0092915
X0099214
X0096063Y0075197
X0089764
X0083465
X0077166
X0070867
X0064567
X0058268
X0051969
X004567
X0039371
X0033071
X0026772
X0020473
X0014174
X0017324Y0068898
X0023623
X0029922
X0036222
X0042521
X004882
X0055119
X0061418
X0067718
X0074017
X0080316
X0086615
X0092915
X0099214
X0069882Y0036417
X0067914Y0010335
X0065945Y0008366
X0063977Y0010335
X0062008Y0008366
X0058071
X006004Y0010335
X0056103
X0054134Y0008366
X0052166Y0010335
X0050197Y0008366
X0048229Y0010335
X004626Y0008366
X0042323
X0044292Y0010335
X0040355
X0038386Y0008366
X0036418Y0010335
X0034449Y0008366
X0032481Y0010335
X0030512Y0008366
X0026575
X0028544Y0010335
X0024607
X0022638Y0008366
X0018701
X002067Y0010335
X0016733
X0014764Y0008366
X0012796Y0010335
X-0012795Y0008366
X-0014763Y0010335
X-0016732Y0008366
X-0020669
X-00187Y0010335
X-0022637
X-0024606Y0008366
X-0028543
X-0026575Y0010335
X-0030512
X-003248Y0008366
X-0036417
X-0034449Y0010335
X-0038385
X-0040354Y0008366
X-0044291
X-0042322Y0010335
X-004626
X-0048228Y0008366
X-0052165
X-0050197Y0010335
X-0054134
X-0056102Y0008366
X-0051967Y0068898
X-0045668
X-0039369
X-003307
X-002677
X-0020471
X-0014172
X-0007873
X-0001574
X-0004724Y0075197
X-0011023
X-0017322
X-0023622
X-0029921
X-003622
X-0042519
X-0048818
X-0055118
X-0051967Y0082284
X-0045668
X-0039369
X-003307
X-002677
X-0020471
X-0014172
X-0007873
X-0001574
X-0004724Y0088583
X-0011023
X-0017323
X-0023622
X-0029921
X-003622
X-0042519
X-0048818
X-0055118
X0016929Y0051476
X-0058267Y0068898
X-0064566
X-0070865
X-0077164
X-0083463
X-0089763
X-0096062
X-0092913Y0075197
X-0099212
X-0096062Y0082284
X-0089763
X-0083463
X-0077164
X-0070865
X-0064566
X-0058267
X-0061417Y0088583
X-0067716
X-0074015
X-0080315
X-0086614
X-0092913
X-0099212
X-0086614Y0075197
X-0080315
X-0074015
X-0067716
X-0061417
X-0062008Y0010335
X-0063976Y0008366
X-0065944Y0010335
X-0067913Y0008366
X-0060039
X-0058071Y0010335
X-0078248Y0020079
X-011063Y0026772
X-0112992Y0029921
X-0127362Y0029724
X-0133661Y0029724
X-0124704Y0039764
X-012021Y0056735
X-0132021Y0058605
X-0145308Y0064609
X-0150525Y0052948
X-0150459Y0042327
X-0145997Y0160377
X-013248Y0154111
X-0121588Y0155456
X-0120209Y0174845
X-013202Y0176716
X-0145308Y0182719
X-0096063Y0187007
X-0089764
X-0083465
X-0077166
X-0070866
X-0064567
X-0058268
X-0061418Y0193306
X-0067717
X-0074017
X-0080316
X-0086615
X-0092914
X-0099213
X-0096063Y0200392
X-0089764
X-0083465
X-0077166
X-0070866
X-0064567
X-0058268
X-0061418Y0206692
X-0067717
X-0074017
X-0080316
X-0086615
X-0092914
X-0099213
X-0096061Y0246063
X-0089762
X-0083463
X-0077164
X-0070865
X-0064565
X-0058266
X-0061417Y0252362
X-0067716
X-0074015
X-0080314
X-0086613
X-0092913
X-0099212
X-0096061Y0259449
X-0089762
X-0083463
X-0077164
X-0070865
X-0064565
X-0058266
X-0061417Y0265748
X-0067716
X-0074015
X-0080314
X-0086613
X-0092913
X-0099212
X-0120209Y02339
X-013202Y0235771
X-0099212Y0147638
X-0092913
X-0086613
X-0080314
X-0074015
X-0067716
X-0061417
X-0064565Y0141339
X-0070865
X-0077164
X-0083463
X-0089762
X-0096061
X-0092913Y0134252
X-0099212
X-0096061Y0127953
X-0089762
X-0083463
X-0077164
X-0070865
X-0064565
X-0058266
X-0061417Y0134252
X-0067716
X-0074015
X-0080314
X-0086613
X-0058266Y0141339
X-0051967
X-0045668
X-0039369
X-0033069
X-002677
X-0020471
X-0014172
X-0007873
X-0001573
X-0004724Y0147638
X-0011023
X-0017322
X-0023621
X-0029921
X-003622
X-0042519
X-0048818
X-0055117
Y0134252
X-0048818
X-0042519
X-003622
X-0029921
X-0023621
X-0017322
X-0011023
X-0004724
X-0007873Y0127953
X-0014172
X-0020471
X-002677
X-0033069
X-0039369
X-0045668
X-0051967
X-0001573
X0017324
X0023624
X0029923
X0036222
X0042521
X004882
X005512
X0061419
X0067718
X0074017
X0080317
X0086616
X0092915
X0099214
X0096064Y0134252
X0089765
X0083465
X0077166
X0070867
X0064568
X0058268
X0051969
X004567
X0039371
X0033072
X0026772
X0020473
X0014174
X0017324Y0141339
X0023624
X0029923
X0036222
X0042521
X004882
X005512
X0061419
X0067718
X0074017
X0080317
X0086616
X0092915
X0099214
X0096064Y0147638
X0089765
X0083465
X0077166
X0070867
X0064568
X0058268
X0051969
X004567
X0039371
X0033072
X0026772
X0020473
X0014174
X0017323Y0187007
X0023622
X0029921
X003622
X004252
X0048819
X0055118
X0061417
X0067716
X0074016
X0080315
X0086614
X0092915Y0187008
X0099212Y0187007
X0096062Y0193306
X0089763
X0083464
X0077165
X0070867Y0193307
X0064566Y0193306
X0058267
X0051968
X0045668
X0039369
X003307
X0026771
X0020473Y0193307
X0014174
X0017323Y0200392
X0023622
X0029921
X003622
X004252
X0048819
X0055118
X0061417
X0067716
X0074016
X0080315
X0086614
X0092913
X0099212
X0096062Y0206692
X0089763
X0083464
X0077166Y0206693
X0070867
X0064566Y0206692
X0058267
X0051968
X0045668
X0039369
X003307
X0026771
X0020471
X0014172
X-0004725
X-0011024
X-0017324
X-0023623
X-0029922
X-0036221
X-0042521
X-004882
X-0055119
X-0051969Y0200392
X-0045669
X-003937
X-0033071
X-0026772
X-0020473
X-0014173
X-0007874
X-0001575
X-0004725Y0193306
X-0011024
X-0017324
X-0023623
X-0029922
X-0036221
X-0042521
X-004882
X-0055119
X-0051969Y0187007
X-0045669
X-003937
X-0033071
X-0026772
X-0020473
X-0014173
X-0007874
X-0001575
X-0001573Y0246063
X-0007873
X-0014172
X-0020471
X-002677
X-0033069
X-0039369
X-0045668
X-0051967
X-0048818Y0252362
X-0055117
X-0051967Y0259449
X-0045668
X-0039369
X-0033069
X-002677
X-0020471
X-0014172
X-0007873
X-0001573
X-0004724Y0265748
X-0011023
X-0017322
X-0023621
X-0029921
X-003622
X-0042519
X-0048818
X-0055117
X-0042519Y0252362
X-003622
X-0029921
X-0023621
X-0017322
X-0011023
X-0004724
X0014174
X0020473
X0026772
X0033072
X0039371
X004567
X0051969
X0058268
X0064568
X0070867
X0077166
X0083465
X0089765
X0096064
X0092915Y0246063
X0099214
X0086616
X0080317
X0074017
X0067718
X0061419
X005512
X004882
X0042521
X0036222
X0029923
X0023624
X0017324
Y0259449
X0023624
X0029923
X0036222
X0042521
X004882
X005512
X0061419
X0067718
X0074017
X0080317
X0086616
X0092915
X0099214
X0096064Y0265748
X0089765
X0083465
X0077166
X0070867
X0064568
X0058268
X0051969
X004567
X0039371
X0033072
X0026772
X0020473
X0014174
X0017324Y0305118
X0023623
X0029922
X0036222
X0042521
X004882
X0055119
X0061418
X0067718
X0074017
X0080316
X0086615
X0092915
X0099214
X0096063Y0311417
X0089764
X0083465
X0077166
X0070867
X0064567
X0058268
X0051969
X004567
X0039371
X0033071
X0026772
X0020473
X0014174
X0017324Y0318504
X0023623
X0029922
X0036222
X0042521
X004882
X0055119
X0061418
X0067718
X0074017
X0080316
X0086615
X0092915
X0099214
X0096063Y0324803
X0089764
X0083465
X0077166
X0070867
X0064567
X0058268
X0051969
X004567
X0039371
X0033071
X0026772
X0020473
X0014174
X-0004724
X-0011023
X-0017323
X-0023622
X-0029921
X-003622
X-0042519
X-0048818
X-0055118
X-0051967Y0318504
X-0045668
X-0039369
X-003307
X-002677
X-0020471
X-0014172
X-0007873
X-0001574
X-0004724Y0311417
X-0011023
X-0017322
X-0023622
X-0029921
X-003622
X-0042519
X-0048818
X-0055118
X-0051967Y0305118
X-0045668
X-0039369
X-003307
X-002677
X-0020471
X-0014172
X-0007873
X-0001574
X-0001575Y0364171
X-0007874
X-0014173
X-0020472
X-0026771
X-003307
X-003937
X-0045669
X-0051968
X-0048819Y037047
X-0055119
X-0051968Y0377557
X-0045669
X-003937
X-003307
X-0026771
X-0020472
X-0014173
X-0007874
X-0001575
X-0004725Y0383856
X-0011024
X-0017323
X-0023622
X-0029922
X-0036221
X-004252
X-0048819
X-0055119
X-004252Y037047
X-0036221
X-0029922
X-0023622
X-0017323
X-0011024
X-0004725
X0014173
X0020472
X0026771
X003307
X003937
X0045669
X0051968
X0058267
X0064566
X0070866
X0077165
X0083464
X0089763
X0096062
X0092914Y0364171
X0099213
X0086615
X0080315
X0074016
X0067717
X0061418
X0055118
X0048819
X004252
X0036221
X0029922
X0023622
X0017323
Y0377557
X0023622
X0029922
X0036221
X004252
X0048819
X0055118
X0061418
X0067717
X0074016
X0080315
X0086615
X0092914
X0099213
X0096062Y0383856
X0089763
X0083464
X0077165
X0070866
X0064566
X0058267
X0051968
X0045669
X003937
X003307
X0026771
X0020472
X0014173
X0017323Y0423226
X0023622
X0029922
X0036221
X004252
X0048819
X0055118
X0061418
X0067717
X0074016
X0080315
X0086615
X0092914
X0099213
X-0001575
X-0007874
X-0014173
X-0020472
X-0026771
X-003307
X-003937
X-0045669
X-0051968
X-0058267
X-0064567
X-0070866
X-0077165
X-0083464
X-0089763
X-0096063
X-0120211Y0411063
X-0132022Y0412933
Y0353878
X-0120211Y0352008
X-0096063Y0364171
X-0089763
X-0083464
X-0077165
X-0070866
X-0064567
X-0058267
X-0061418Y037047
X-0067717
X-0074016
X-0080315
X-0086615
X-0092914
X-0099213
X-0096063Y0377557
X-0089763
X-0083464
X-0077165
X-0070866
X-0064567
X-0058267
X-0061418Y0383856
X-0067717
X-0074016
X-0080315
X-0086615
X-0092914
X-0099213
X-0099212Y0324803
X-0092913
X-0086614
X-0080315
X-0074015
X-0067716
X-0061417
X-0064566Y0318504
X-0070865
X-0077164
X-0083463
X-0089763
X-0096062
X-0092913Y0311417
X-0099212
X-0096062Y0305118
X-0089763
X-0083463
X-0077164
X-0070865
X-0064566
X-0058267
X-0061417Y0311417
X-0067716
X-0074015
X-0080315
X-0086614
X-0058267Y0318504
X-0120189Y0292934
X-0132021Y0294826
X-0099213Y0429525
X-0092914
X-0086615
X-0080315
X-0074016
X-0067717
X-0061418
X-0064567Y0436612
X-0070866
X-0077165
X-0083464
X-0089763
X-0096063
X-0092914Y0442911
X-0099213
X-0086615
X-0080315
X-0074016
X-0067717
X-0061418
X-0058267Y0436612
Y0482281
X-0064567
X-0070866
X-0077165
X-0083464
X-0089763
X-0096063
X-0092914Y048858
X-0099213
X-0096063Y0495667
X-0089763
X-0083464
X-0077165
X-0070866
X-0064567
X-0058267
X-0061418Y0501966
X-0067717
X-0074016
X-0080315
X-0086615
X-0092914
X-0099213
X-0100098Y0519587
X-0095669Y0517815
X-009557Y0522835
X-0113385Y0524409
X-0137007Y0514764
X-0150787Y0511024
X-0132022Y0471989
X-0120211Y0470119
X-0086615Y048858
X-0080315
X-0074016
X-0067717
X-0061418
X-0057677Y0522933
Y0528051
Y0533268
X-0052854Y053061
Y0525492
X-0055119Y0501966
X-0048819
X-004252
X-0036221
X-0029922
X-0023622
X-0017323
X-0011024
X-0004725
X-0007874Y0495667
X-0014173
X-0020472
X-0026771
X-003307
X-003937
X-0045669
X-0051968
X-0048819Y048858
X-0055119
X-0051968Y0482281
X-0045669
X-003937
X-003307
X-0026771
X-0020472
X-0014173
X-0007874
X-0001575
X-0004725Y048858
X-0011024
X-0017323
X-0023622
X-0029922
X-0036221
X-004252
Y0442911
X-0048819
X-0055119
X-0051968Y0436612
X-0045669
X-003937
X-003307
X-0026771
X-0020472
X-0014173
X-0007874
X-0001575
X-0004725Y0442911
X-0011024
X-0017323
X-0023622
X-0029922
X-0036221
Y0429525
X-004252
X-0048819
X-0055119
X-0029922
X-0023622
X-0017323
X-0011024
X-0004725
X0014173
X0020472
X0026771
X003307
X003937
X0045669
X0051968
X0058267
X0064566
X0070866
X0077165
X0083464
X0089763
X0096062
X0092914Y0436612
X0099213
X0096062Y0442911
X0089763
X0083464
X0077165
X0070866
X0064566
X0058267
X0051968
X0045669
X003937
X003307
X0026771
X0020472
X0014173
X0017323Y0436612
X0023622
X0029922
X0036221
X004252
X0048819
X0055118
X0061418
X0067717
X0074016
X0080315
X0086615
Y0482281
X0080315
X0074016
X0067717
X0061418
X0055118
X0048819
X004252
X0036221
X0029922
X0023622
X0017323
X0020472Y048858
X0014173
X0017323Y0495667
X0023622
X0029922
X0036221
X004252
X0048819
X0055118
X0061418
X0067717
X0074016
X0080315
X0086615
X0092914
X0099213
X0096062Y0501966
X0089763
X0083464
X0077165
X0070866
X0064566
X0058267
X0051968
X0045669
X003937
X003307
X0026771
X0020472
X0014173
X-0001575Y0495667
X0026771Y048858
X003307
X003937
X0045669
X0051968
X0058267
X0064566
X0070866
X0077165
X0083464
X0089763
X0096062
X0092914Y0482281
X0099213
X0072245Y051811
T02
X-0176858Y-0400571
Y-0390728
Y-0380886
X0176981
Y-0390728
Y-0400571
X-0176956Y-0066319
Y-0056476
Y-0046634
X0176981
Y-0056476
Y-0066319
T03
X-0016535Y-028187
X0016535
X0008859Y0023622
X-0008858
X0073819
X-0073818
X-0111417Y0115157
X-0144488
X0111418Y0119685
X0144489
X0144882Y0474016
X0111811
T04
X-0145393Y007441
X-0139881Y0083073
X-0130432Y007441
X-0115472
X-0115471Y0133465
X-0130432
X-0145393
X-0139881Y0142128
X-0145394Y0192518
X-0139882Y0201181
X-0130434Y0192518
X-0115473
X-0115471Y0251575
X-0130432
X-0145393
X-0139881Y0260238
X-0145393Y031063
X-0139881Y0319293
X-0130432Y031063
X-0115472
X-0115472Y0369683
X-0130433
X-0145394
X-0139882Y0378346
X-0145394Y0428738
X-0139882Y0437401
X-0130433Y0428738
X-0115472
Y0487793
X-0130433
X-0145394
X-0139882Y0496456
T05
X0105119Y007874
X-0105117Y0072835
X-0105117Y013189
X-0105119Y0190944
X-0105117Y025
X0105119Y0255906
X0105118Y0196849
X0105119Y0137795
X0105119Y0314961
X0105118Y0374013
X-0105118Y0368108
X-0105117Y0309055
X-0105118Y0427163
Y0486218
X0105118Y0492124
Y0433069
T06
X-0122952Y0084606
X-0122952Y0143661
X-0122953Y0202715
X-0122952Y0261772
X-0122952Y0320827
X-0122953Y0379879
Y0438935
Y049799
T07
X-0119015Y0064213
X-0119015Y0123268
Y0182323
Y0241378
X-0119015Y0300433
X-0119016Y0359486
Y0418541
Y0477596
T08
X0137796Y0011811
X-0137795
X0137796Y027559
X-0137795
Y0531496
X0137796
T09
X0162414Y-0338169
X-0162291
X-0161417Y-009252
X0161417
M30
